<?xml version="1.0" encoding="UTF-8"?>
<!-- Generator: visioncortex VTracer 0.6.5 -->
<svg version="1.1" xmlns="http://www.w3.org/2000/svg" width="460" height="460">
<path d="M0,0 L460,0 L460,460 L0,460 Z " fill="#30A9B3" transform="translate(0,0)"/>
<path d="M0,0 L3,0 L3,52 L50,49 L60,49 L59,60 L56,77 L55,79 L37,79 L3,78 L4,206 L8,219 L12,223 L19,226 L34,226 L43,223 L59,216 L63,213 L67,214 L73,225 L74,229 L67,236 L61,239 L57,243 L39,254 L24,261 L12,264 L-10,264 L-26,259 L-37,253 L-45,245 L-51,233 L-55,218 L-55,77 L-80,77 L-82,68 L-82,58 L-59,50 L-55,50 L-55,25 L-45,21 L-33,15 L-23,11 L-16,7 L-10,5 Z " fill="#FDFEFE" transform="translate(236,95)"/>
</svg>
