<?xml version="1.0" encoding="UTF-8"?>
<!-- Generator: visioncortex VTracer 0.6.5 -->
<svg version="1.1" xmlns="http://www.w3.org/2000/svg" width="1289" height="980">
<path d="M0,0 L1289,0 L1289,980 L0,980 Z " fill="#FEFEFE" transform="translate(0,0)"/>
<path d="M0,0 L7,0 L10,3 L18,3 L19,3 L24,3 L28,6 L28,15 L24,15 L24,19 L28,20 L28,22 L33,20 L34,19 L39,19 L43,21 L51,20 L53,19 L58,20 L60,22 L60,26 L68,25 L69,26 L69,31 L66,31 L66,35 L71,37 L82,45 L87,48 L87,50 L62,56 L55,59 L46,62 L28,70 L12,80 L-3,93 L-11,101 L-24,119 L-30,129 L-37,145 L-38,173 L-40,173 L-40,179 L-43,181 L-44,189 L-45,190 L-45,195 L-47,191 L-48,191 L-49,194 L-54,192 L-53,195 L-60,195 L-60,203 L-61,206 L-62,220 L-63,221 L-62,229 L-57,227 L-56,231 L-58,232 L-60,245 L-65,245 L-66,241 L-67,233 L-75,219 L-84,197 L-89,179 L-93,155 L-93,115 L-90,93 L-83,69 L-75,51 L-67,35 L-58,22 L-54,16 L-52,16 L-50,12 L-43,4 L-40,2 L-1,1 Z M-53,193 Z " fill="#FCFDFC" transform="translate(500,301)"/>
<path d="M0,0 L1,0 L7,30 L13,50 L24,76 L34,94 L42,106 L49,115 L58,125 L58,127 L61,128 L66,134 L74,141 L86,151 L96,158 L111,167 L128,176 L147,184 L165,190 L189,195 L210,197 L234,197 L249,195 L266,192 L282,188 L303,181 L324,172 L331,168 L333,169 L323,178 L311,187 L301,194 L285,203 L269,211 L248,219 L226,224 L207,227 L197,228 L161,228 L145,226 L122,221 L101,214 L80,204 L68,197 L53,187 L53,185 L48,183 L37,174 L27,165 L17,155 L8,144 L-6,123 L-12,113 L-19,99 L-20,96 L-20,72 L-16,48 L-12,32 L-7,16 L-1,1 Z " fill="#1C73BC" transform="translate(243,448)"/>
<path d="M0,0 L2,0 L-3,26 L-5,45 L-5,72 L-3,90 L0,106 L6,127 L13,145 L22,162 L28,173 L32,178 L42,192 L51,202 L58,210 L69,221 L79,229 L89,236 L107,247 L110,248 L110,250 L119,253 L130,258 L151,265 L174,270 L191,272 L222,273 L222,275 L206,279 L188,282 L180,283 L140,283 L116,279 L94,273 L79,267 L64,260 L42,247 L23,233 L8,219 L0,211 L-9,200 L-15,192 L-25,176 L-33,160 L-37,151 L-43,134 L-49,111 L-52,93 L-53,85 L-53,55 L-49,47 L-36,32 L-18,14 L-4,3 Z " fill="#1C73BC" transform="translate(324,347)"/>
<path d="M0,0 L30,0 L38,10 L51,28 L63,44 L73,58 L73,60 L78,55 L88,41 L97,29 L107,15 L110,10 L112,10 L114,5 L118,0 L149,0 L149,141 L122,141 L121,41 L111,54 L102,66 L90,82 L84,90 L77,100 L71,100 L61,87 L51,73 L40,58 L29,43 L27,40 L26,141 L0,141 Z " fill="#1D6FB8" transform="translate(751,427)"/>
<path d="M0,0 L7,0 L5,4 L-5,18 L-15,36 L-20,46 L-26,61 L-31,78 L-34,91 L-36,108 L-36,132 L-33,156 L-28,179 L-19,203 L-8,224 L1,237 L11,250 L29,268 L45,280 L60,290 L65,293 L63,294 L46,289 L28,281 L8,269 L-4,260 L-14,252 L-30,236 L-39,225 L-49,211 L-59,192 L-65,179 L-71,160 L-74,147 L-77,129 L-78,117 L-78,94 L-74,67 L-66,41 L-58,23 L-56,20 L-54,20 L-54,18 L-38,12 L-16,5 L-3,1 Z " fill="#1C73BC" transform="translate(422,303)"/>
<path d="M0,0 L20,0 L36,3 L46,7 L57,15 L63,22 L65,25 L64,29 L60,32 L50,36 L47,38 L43,37 L36,31 L28,27 L18,24 L2,24 L-9,28 L-15,33 L-17,38 L-16,47 L-12,52 L-4,56 L12,59 L26,61 L42,65 L54,71 L64,80 L68,87 L70,94 L70,113 L65,126 L60,133 L50,140 L40,145 L28,148 L20,149 L-1,149 L-12,147 L-24,143 L-36,136 L-45,125 L-50,116 L-50,114 L-31,104 L-27,104 L-21,113 L-13,119 L-7,122 L1,124 L21,124 L34,120 L40,115 L43,108 L43,99 L40,94 L30,88 L18,85 L-12,80 L-24,75 L-33,69 L-38,63 L-42,55 L-44,47 L-44,35 L-41,25 L-34,15 L-26,9 L-16,4 Z " fill="#1D6FB6" transform="translate(620,423)"/>
<path d="M0,0 L1,0 L7,26 L13,44 L17,53 L25,69 L34,84 L42,95 L55,110 L67,122 L81,133 L97,144 L118,156 L129,161 L147,168 L166,173 L190,177 L230,177 L246,175 L264,171 L272,170 L272,168 L241,168 L219,165 L210,163 L214,162 L214,160 L211,159 L218,158 L222,162 L222,164 L265,165 L272,165 L275,166 L275,170 L285,171 L286,165 L290,164 L291,161 L294,160 L305,160 L305,164 L307,165 L303,170 L301,172 L294,172 L299,167 L299,166 L277,176 L264,181 L245,187 L225,191 L214,193 L203,194 L179,194 L158,192 L134,187 L116,181 L95,172 L71,159 L58,150 L44,139 L37,132 L30,126 L23,118 L14,108 L4,93 L-4,80 L-13,61 L-19,46 L-25,26 L-29,6 L-28,2 L-26,5 L-24,19 L-20,18 L-19,20 L-19,27 L-17,28 L-16,44 L-11,44 L-10,52 L-5,51 L-4,48 L-1,49 L0,39 L3,33 L4,27 L0,25 Z " fill="#FCFDFC" transform="translate(274,452)"/>
<path d="M0,0 L17,0 L19,5 L23,8 L24,11 L28,12 L28,8 L31,8 L32,11 L38,12 L38,7 L41,7 L42,5 L44,6 L38,26 L34,53 L34,76 L36,93 L40,115 L45,131 L49,142 L61,167 L73,184 L78,190 L78,192 L81,193 L88,201 L100,213 L108,219 L122,229 L143,241 L157,247 L174,252 L168,248 L170,246 L177,247 L180,249 L183,248 L182,255 L180,255 L179,259 L157,257 L152,259 L152,262 L164,264 L167,266 L173,269 L169,270 L155,266 L139,260 L123,253 L123,251 L118,250 L99,238 L87,229 L74,217 L64,207 L55,196 L45,183 L41,177 L35,168 L27,152 L22,141 L16,124 L11,106 L8,88 L7,75 L7,48 L10,24 L14,5 L15,3 L9,7 L-1,15 L-13,26 L-17,29 L-17,24 L-13,24 L-12,20 L-10,20 L-10,16 L-4,16 L-4,12 L-7,11 L-7,8 L-2,9 L-2,11 L2,10 L2,8 L0,8 L-1,1 Z M1,1 L2,3 Z " fill="#FCFDFB" transform="translate(311,344)"/>
<path d="M0,0 L31,0 L56,4 L58,5 L58,7 L47,15 L34,26 L26,34 L24,34 L22,38 L14,46 L6,56 L-3,69 L-13,86 L-23,111 L-28,130 L-30,142 L-31,153 L-31,180 L-28,204 L-24,225 L-21,236 L-22,239 L-29,228 L-37,212 L-44,195 L-49,177 L-53,153 L-53,113 L-50,91 L-43,67 L-35,49 L-27,33 L-18,20 L-14,14 L-12,14 L-10,10 L-3,2 Z " fill="#1D73BB" transform="translate(460,303)"/>
<path d="M0,0 L116,0 L116,24 L71,24 L71,141 L45,141 L45,24 L0,24 Z " fill="#1D6FB7" transform="translate(969,427)"/>
<path d="M0,0 L30,1 L28,3 L0,4 L-7,10 L-12,17 L-16,21 L-23,32 L-29,42 L-37,58 L-44,76 L-49,94 L-52,116 L-52,156 L-48,180 L-42,200 L-34,220 L-28,231 L-26,235 L-26,241 L-29,240 L-30,238 L-32,242 L-33,245 L-38,240 L-45,230 L-55,212 L-60,201 L-67,182 L-72,159 L-75,135 L-75,111 L-72,90 L-67,70 L-61,54 L-55,40 L-47,26 L-37,11 L-31,3 L-30,3 L-28,12 L-30,12 L-31,16 L-28,16 L-28,20 L-26,20 L-25,23 L-25,21 L-20,20 L-19,14 L-16,13 L-16,11 L-11,8 L-10,5 L-4,3 L-4,1 Z " fill="#FCFDFB" transform="translate(460,300)"/>
<path d="M0,0 L6,0 L27,11 L38,19 L43,22 L43,24 L18,30 L11,33 L2,36 L-16,44 L-32,54 L-47,67 L-55,75 L-68,93 L-74,103 L-81,119 L-87,137 L-91,153 L-92,160 L-94,161 L-95,154 L-95,129 L-92,109 L-86,88 L-75,65 L-65,50 L-52,35 L-39,23 L-22,11 L-11,5 Z " fill="#1B74BC" transform="translate(544,327)"/>
<path d="M0,0 L15,1 L19,2 L27,0 L32,0 L33,6 L32,11 L29,9 L-1,8 L-1,149 L25,149 L25,47 L30,52 L30,55 L27,54 L27,141 L29,141 L28,150 L25,151 L-3,150 L-2,157 L-7,157 L-8,149 L-10,149 L-10,142 L-12,142 L-13,147 L-14,156 L-16,157 L-16,142 L-15,141 L-14,13 L-10,3 L-5,1 Z " fill="#FCFDF9" transform="translate(752,419)"/>
<path d="M0,0 L6,0 L10,4 L10,7 L18,7 L29,13 L29,15 L36,16 L46,19 L46,22 L59,24 L59,26 L62,27 L62,30 L64,30 L64,28 L71,29 L81,31 L81,29 L89,30 L89,32 L65,32 L65,34 L61,34 L61,32 L56,32 L53,30 L52,25 L50,26 L50,31 L48,34 L52,36 L49,36 L49,38 L43,38 L33,36 L29,35 L29,33 L22,33 L5,27 L5,26 L-5,25 L-5,23 L-10,23 L-11,20 L-21,18 L-25,16 L-24,14 L-30,12 L-32,9 L-32,6 L-39,7 L-39,5 L-42,5 L-41,1 L-21,1 L-21,4 L-31,4 L-31,8 L-26,9 L-20,11 L-20,5 L-14,5 L-12,1 L-10,2 L-4,2 Z " fill="#1B74BD" transform="translate(415,590)"/>
<path d="M0,0 L45,0 L45,117 L71,117 L71,0 L116,0 L116,2 L113,3 L75,3 L78,6 L102,6 L111,9 L109,13 L104,13 L103,12 L78,11 L78,114 L75,117 L73,117 L73,119 L43,120 L41,116 L41,109 L43,109 L43,11 L41,11 L41,5 L42,3 L4,3 L0,2 Z " fill="#F9FEFE" transform="translate(969,451)"/>
<path d="M0,0 L1,0 L7,30 L13,50 L24,76 L34,94 L35,97 L31,97 L30,94 L28,93 L26,97 L21,96 L20,91 L26,91 L24,85 L24,80 L16,80 L17,77 L17,79 L20,79 L18,70 L17,70 L17,64 L15,64 L15,60 L10,59 L10,56 L12,56 L11,52 L9,52 L8,54 L8,44 L5,49 L2,49 L1,52 L-1,52 L-1,58 L-3,64 L-5,64 L-5,48 L-9,48 L-9,64 L-12,64 L-12,53 L-14,53 L-15,64 L-18,65 L-18,93 L-12,104 L-12,108 L-8,109 L-5,120 L-4,123 L-2,123 L-2,128 L-6,123 L-12,113 L-19,99 L-20,96 L-20,72 L-16,48 L-12,32 L-7,16 L-1,1 Z " fill="#2474B3" transform="translate(243,448)"/>
<path d="M0,0 L2,3 L-3,10 L-6,11 L-7,13 L-9,13 L-9,18 L-12,18 L-13,22 L-15,26 L-18,27 L-19,35 L-24,39 L-26,39 L-25,53 L-27,58 L-29,58 L-29,61 L-31,61 L-31,64 L-33,64 L-35,76 L-31,75 L-30,68 L-28,66 L-26,63 L-25,64 L-24,77 L-23,81 L-20,80 L-19,87 L-14,87 L-12,81 L-8,77 L-5,70 L-3,70 L-2,66 L1,61 L-2,60 L3,60 L5,54 L8,54 L9,49 L11,47 L12,42 L15,42 L16,40 L20,38 L21,33 L28,29 L30,29 L30,26 L33,26 L33,24 L35,24 L36,20 L37,18 L42,16 L46,12 L50,9 L50,6 L54,5 L58,3 L60,5 L51,12 L40,21 L31,30 L29,30 L27,34 L19,42 L11,52 L2,65 L-8,82 L-18,107 L-22,122 L-23,122 L-23,114 L-22,112 L-20,100 L-17,96 L-16,93 L-24,91 L-24,93 L-38,94 L-40,99 L-44,95 L-45,87 L-38,63 L-30,45 L-22,29 L-13,16 L-9,10 L-7,10 L-5,6 Z " fill="#1A75BB" transform="translate(455,307)"/>
<path d="M0,0 L36,0 L34,1 L34,3 L40,3 L40,4 L29,5 L47,4 L50,5 L49,8 L46,8 L42,13 L40,18 L36,19 L36,17 L30,18 L4,18 L4,20 L-1,20 L-2,24 L-5,25 L-6,28 L-8,34 L-13,35 L-13,39 L-17,39 L-19,43 L-20,43 L-20,23 L-15,22 L-15,25 L-10,23 L-9,20 L-21,18 L-20,13 L-13,14 L-11,7 L-8,6 L-5,3 L0,2 Z M-15,17 Z " fill="#1C6FB9" transform="translate(610,426)"/>
<path d="M0,0 L116,0 L116,24 L71,24 L71,141 L45,141 L45,24 L0,24 Z M4,3 L4,5 L2,5 L2,21 L5,23 L44,23 L48,25 L48,37 L46,37 L46,140 L70,140 L70,133 L68,133 L68,29 L67,21 L72,22 L112,22 L113,21 L113,3 Z " fill="#2669A5" transform="translate(969,427)"/>
<path d="M0,0 L17,0 L19,5 L23,8 L24,11 L28,12 L28,8 L31,8 L32,11 L38,12 L38,7 L41,7 L42,5 L44,6 L38,26 L34,53 L34,76 L36,93 L40,115 L43,125 L42,129 L41,129 L38,120 L35,114 L35,106 L33,96 L33,88 L31,88 L30,57 L27,55 L27,42 L30,40 L28,40 L29,33 L31,30 L31,15 L28,15 L27,24 L24,24 L23,14 L19,15 L19,9 L15,9 L15,18 L13,33 L11,40 L11,94 L13,94 L15,103 L15,117 L13,114 L10,99 L8,88 L7,75 L7,48 L10,24 L14,5 L15,3 L9,7 L-1,15 L-13,26 L-17,29 L-17,24 L-13,24 L-12,20 L-10,20 L-10,16 L-4,16 L-4,12 L-7,11 L-7,8 L-2,9 L-2,11 L2,10 L2,8 L0,8 L-1,1 Z M1,1 L2,3 Z " fill="#F8FDFC" transform="translate(311,344)"/>
<path d="M0,0 L5,2 L15,8 L18,9 L18,11 L27,14 L38,19 L59,26 L82,31 L99,33 L130,34 L130,36 L114,40 L96,43 L88,44 L48,44 L24,40 L2,34 L-13,28 L-26,22 L-22,21 L-15,23 L-12,24 L-11,26 L-6,27 L-6,29 L5,29 L6,31 L21,36 L28,37 L28,39 L40,40 L48,42 L48,40 L45,38 L47,38 L48,30 L51,28 L52,29 L52,34 L60,36 L60,38 L64,38 L64,36 L74,35 L88,36 L88,34 L80,33 L80,35 L70,34 L63,32 L63,34 L61,34 L60,31 L58,30 L58,28 L48,27 L45,26 L45,23 L37,22 L28,19 L28,17 L22,15 L17,12 L9,11 L8,8 L5,6 L0,2 Z " fill="#1C73BB" transform="translate(416,586)"/>
<path d="M0,0 L2,4 L0,4 L-1,10 L-6,13 L-7,15 L-5,16 L-9,17 L-11,16 L-12,23 L-11,26 L-14,31 L-16,35 L-16,33 L-21,36 L-24,41 L-25,46 L-22,46 L-21,50 L-14,51 L-10,46 L-7,40 L-4,40 L-2,35 L1,36 L-9,49 L-19,65 L-26,81 L-32,99 L-36,115 L-37,122 L-39,123 L-40,116 L-40,91 L-37,71 L-31,50 L-20,27 L-10,12 Z " fill="#2576B3" transform="translate(489,365)"/>
<path d="M0,0 L5,0 L6,4 L4,4 L4,7 L6,7 L6,9 L10,10 L10,15 L7,16 L5,20 L3,20 L3,27 L-1,27 L-1,30 L-7,31 L-6,34 L-10,36 L-11,41 L-14,41 L-16,46 L-20,49 L-24,56 L-28,58 L-33,56 L-34,52 L-37,52 L-36,45 L-31,40 L-28,39 L-24,32 L-25,25 L-23,22 L-18,22 L-18,18 L-14,16 L-12,10 L-10,10 L-11,6 L-4,5 L-4,2 L0,2 Z " fill="#1B74BC" transform="translate(501,359)"/>
<path d="M0,0 L6,1 L8,2 L7,7 L4,12 L3,18 L-11,18 L-11,34 L-13,35 L-12,56 L-11,65 L-11,81 L-13,88 L-15,88 L-16,81 L-15,66 L-17,66 L-17,74 L-20,72 L-21,69 L-22,58 L-22,18 L-21,7 L-21,1 L-20,4 L-16,5 L-14,2 L0,2 Z " fill="#1B74BD" transform="translate(431,398)"/>
<path d="M0,0 L5,5 L18,23 L30,39 L40,53 L40,55 L45,50 L55,36 L64,24 L74,10 L77,9 L78,19 L78,32 L76,32 L75,27 L72,28 L71,24 L69,24 L65,30 L60,32 L57,41 L55,41 L53,45 L47,53 L46,57 L40,57 L39,62 L35,62 L34,60 L32,60 L31,56 L17,57 L16,60 L18,64 L23,69 L23,71 L25,71 L26,74 L30,78 L32,83 L35,84 L34,88 L37,87 L39,92 L43,92 L43,86 L45,84 L45,87 L47,87 L47,84 L51,85 L44,95 L38,95 L28,82 L18,68 L7,53 L1,44 L4,43 L5,47 L8,48 L10,52 L13,54 L14,51 L17,51 L17,49 L20,49 L20,45 L25,46 L26,47 L25,37 L23,37 L22,33 L20,32 L19,29 L17,28 L17,26 L12,24 L11,21 L8,20 L7,12 L0,2 Z " fill="#1D6FB8" transform="translate(784,432)"/>
<path d="M0,0 L5,0 L5,2 L7,2 L7,4 L9,4 L11,10 L17,12 L18,14 L30,19 L30,21 L38,22 L42,24 L41,31 L39,31 L38,29 L32,29 L30,31 L19,32 L26,34 L29,35 L29,37 L19,37 L6,33 L6,31 L3,30 L1,24 L-5,23 L-7,16 L-11,14 L-11,9 L-7,9 L-6,6 L-1,4 Z " fill="#1C6FB8" transform="translate(586,529)"/>
<path d="M0,0 L1,0 L6,24 L10,36 L18,56 L24,67 L26,71 L26,77 L23,76 L22,74 L20,78 L19,81 L14,76 L7,66 L-3,48 L-8,37 L-13,24 L-13,21 L-11,21 L-9,25 L-7,26 L-5,32 L-1,32 L-1,25 L1,27 L1,32 L4,32 L1,16 L0,14 Z " fill="#F9FCF8" transform="translate(408,464)"/>
<path d="M0,0 L6,1 L15,3 L15,1 L18,2 L17,6 L21,4 L22,2 L25,1 L33,1 L33,4 L30,4 L30,6 L23,8 L23,10 L19,10 L19,12 L15,12 L15,14 L6,17 L-2,20 L-12,20 L-12,22 L-15,23 L-24,23 L-25,20 L-16,18 L-14,17 L-17,15 L-17,13 L-50,13 L-50,11 L-18,11 L-18,8 L-34,8 L-54,7 L-55,4 L-8,3 L0,2 Z " fill="#1B74BC" transform="translate(498,643)"/>
<path d="M0,0 L28,0 L35,2 L34,6 L32,4 L2,3 L2,144 L28,144 L28,42 L33,47 L33,50 L30,49 L30,136 L32,136 L31,145 L28,146 L0,145 L-2,143 L-2,8 L-3,3 Z " fill="#E0F3FA" transform="translate(749,424)"/>
<path d="M0,0 L2,0 L-3,26 L-5,45 L-6,45 L-6,37 L-9,37 L-8,49 L-9,53 L-10,69 L-12,69 L-12,30 L-14,30 L-15,32 L-16,69 L-18,69 L-19,53 L-21,51 L-20,38 L-23,36 L-24,29 L-28,30 L-31,33 L-34,33 L-34,35 L-36,35 L-36,38 L-41,41 L-43,40 L-32,28 L-18,14 L-4,3 Z " fill="#1D74B9" transform="translate(324,347)"/>
<path d="M0,0 L32,0 L34,2 L35,142 L30,147 L28,147 L28,145 L3,145 L2,143 L2,70 L4,49 L1,50 L-2,56 L-6,60 L-10,65 L-13,64 L-3,51 L4,42 L5,42 L5,143 L32,143 L32,2 L1,3 L-5,12 L-6,8 L-2,2 Z " fill="#EFFEFE" transform="translate(868,425)"/>
<path d="M0,0 L16,0 L31,5 L40,12 L42,14 L47,13 L54,9 L61,6 L63,2 L66,3 L64,7 L64,11 L66,12 L66,14 L62,14 L61,17 L58,16 L59,12 L52,12 L53,17 L45,17 L41,18 L34,17 L33,12 L26,11 L18,9 L17,6 L2,6 L1,9 L-5,11 L-11,10 L-12,15 L-14,16 L-9,16 L-8,19 L-10,20 L0,21 L-3,24 L-13,25 L-13,28 L-6,29 L-4,30 L-4,33 L2,32 L2,34 L10,34 L18,36 L18,37 L10,37 L-6,34 L-15,29 L-19,24 L-20,15 L-17,9 L-11,4 Z " fill="#FBFCFA" transform="translate(622,446)"/>
<path d="M0,0 L31,0 L31,141 L4,141 L3,39 L5,39 L6,44 L8,45 L7,138 L29,138 L29,2 L1,2 L1,4 L-1,4 L-3,9 L-4,7 Z " fill="#447CAA" transform="translate(869,427)"/>
<path d="M0,0 L2,1 L-8,10 L-20,19 L-30,26 L-46,35 L-62,43 L-83,51 L-100,55 L-107,55 L-105,53 L-99,51 L-86,49 L-78,46 L-67,42 L-66,41 L-61,41 L-61,39 L-57,39 L-57,37 L-53,37 L-53,35 L-49,33 L-46,33 L-46,31 L-43,31 L-43,28 L-54,29 L-55,32 L-59,33 L-59,29 L-61,28 L-61,30 L-68,30 L-75,27 L-75,26 L-55,22 L-28,13 L-7,4 Z " fill="#1B74B9" transform="translate(574,616)"/>
<path d="M0,0 L4,1 L7,2 L8,6 L51,7 L58,7 L61,8 L61,12 L71,13 L72,7 L76,6 L77,3 L80,2 L91,2 L91,6 L93,7 L89,12 L87,14 L80,14 L85,9 L85,8 L63,18 L50,23 L31,29 L24,30 L17,29 L17,28 L12,27 L16,25 L23,25 L24,26 L34,25 L40,23 L40,21 L42,20 L52,19 L49,17 L51,17 L51,15 L42,19 L29,21 L-26,21 L-34,20 L-34,18 L-24,19 L16,19 L32,17 L50,13 L58,12 L58,10 L27,10 L5,7 L-4,5 L0,4 L0,2 L-3,1 Z " fill="#EBF9FA" transform="translate(488,610)"/>
<path d="M0,0 L9,1 L12,2 L52,3 L60,4 L60,7 L67,8 L68,11 L46,13 L36,15 L4,15 L-2,14 L-2,13 L5,11 L11,11 L11,9 L4,8 L4,5 L-12,5 L-12,2 L0,1 Z " fill="#FBFDFB" transform="translate(444,629)"/>
<path d="M0,0 L3,4 L10,15 L15,20 L15,22 L20,24 L29,29 L42,33 L50,34 L71,34 L87,31 L98,27 L103,25 L104,30 L103,33 L100,35 L98,38 L96,37 L97,34 L90,35 L87,35 L87,37 L79,38 L76,40 L42,40 L38,39 L33,39 L29,36 L18,35 L15,32 L10,28 L10,26 L12,26 L8,20 L7,13 L3,14 L0,12 L-1,1 Z " fill="#FAFCF8" transform="translate(569,537)"/>
<path d="M0,0 L4,2 L14,9 L29,18 L46,27 L65,35 L83,41 L107,46 L128,48 L152,48 L167,46 L173,46 L173,48 L165,50 L118,50 L119,52 L155,54 L155,57 L123,57 L123,59 L119,58 L113,57 L114,52 L108,52 L107,53 L91,53 L91,51 L94,49 L94,48 L85,47 L85,43 L79,43 L79,41 L71,40 L61,36 L52,35 L47,33 L47,31 L43,30 L43,27 L39,26 L26,20 L26,18 L16,15 L14,12 L7,9 L4,7 L4,5 L0,4 Z " fill="#1F72B8" transform="translate(325,597)"/>
<path d="M0,0 L45,0 L45,117 L71,117 L71,0 L116,0 L116,1 L72,1 L72,108 L75,109 L74,113 L73,119 L43,120 L41,116 L41,109 L43,109 L43,11 L41,11 L41,5 L42,3 L4,3 L0,2 Z " fill="#CCE4F3" transform="translate(969,451)"/>
<path d="M0,0 L30,0 L30,2 L2,2 L2,139 L24,139 L23,41 L24,38 L29,37 L31,42 L33,42 L35,46 L33,48 L27,40 L26,141 L0,141 Z " fill="#2A6FAA" transform="translate(751,427)"/>
<path d="M0,0 L1,3 L-1,15 L-2,26 L-2,53 L1,77 L5,98 L8,109 L7,112 L0,101 L-8,85 L-15,68 L-17,60 L-16,56 L-14,60 L-14,65 L-12,65 L-11,71 L-9,72 L-7,66 L-5,66 L-5,50 L-7,50 L-7,34 L-5,34 L-5,18 L-9,18 L-9,2 L-5,2 L-5,14 L-2,7 Z " fill="#1E74B7" transform="translate(431,430)"/>
<path d="M0,0 L5,5 L9,10 L9,12 L12,13 L19,21 L31,33 L39,39 L53,49 L51,51 L46,49 L44,46 L38,44 L38,41 L32,42 L29,41 L28,44 L25,44 L25,40 L29,40 L28,34 L22,33 L23,29 L16,27 L15,24 L14,29 L9,31 L9,33 L12,34 L13,36 L17,37 L17,40 L19,40 L21,47 L23,47 L22,51 L18,49 L5,37 L-5,27 L-10,20 L-6,20 L-6,23 L1,24 L2,27 L4,27 L4,18 L4,16 L5,12 L2,5 L-1,1 Z " fill="#F5FAF9" transform="translate(380,524)"/>
<path d="M0,0 L116,0 L116,24 L115,24 L115,1 L1,1 L1,3 L4,3 L4,5 L2,5 L2,21 L8,22 L44,22 L49,25 L48,37 L46,37 L46,140 L70,140 L70,25 L71,25 L71,141 L45,141 L45,24 L0,24 Z " fill="#4279A7" transform="translate(969,427)"/>
<path d="M0,0 L2,1 L4,5 L-7,26 L-12,40 L-16,56 L-18,72 L-18,97 L-17,103 L-14,88 L-8,67 L-6,66 L-6,90 L-8,90 L-8,96 L-11,98 L-12,106 L-13,107 L-13,112 L-15,108 L-16,108 L-17,111 L-22,109 L-23,106 L-22,88 L-21,88 L-21,47 L-20,45 L-18,45 L-18,48 L-16,48 L-17,40 L-16,36 L-13,35 L-11,30 L-10,20 L-8,17 L-4,4 Z " fill="#F0FAFA" transform="translate(468,384)"/>
<path d="M0,0 L1,0 L0,7 L-1,11 L1,11 L1,9 L5,9 L5,13 L2,13 L2,28 L1,29 L0,43 L3,44 L-4,44 L-3,49 L-2,76 L0,76 L2,82 L5,98 L8,105 L8,110 L6,108 L0,90 L-7,60 L-9,44 L-9,14 L-5,6 Z " fill="#1C73BA" transform="translate(280,388)"/>
<path d="M0,0 L9,1 L22,6 L32,13 L39,21 L43,32 L43,51 L38,64 L34,68 L34,63 L37,62 L37,59 L39,59 L40,37 L26,37 L26,39 L23,39 L22,33 L19,32 L19,48 L15,56 L13,59 L5,60 L10,56 L14,51 L16,46 L16,37 L13,32 L7,28 L11,27 L14,28 L14,30 L17,29 L20,30 L21,27 L28,27 L27,23 L25,23 L25,19 L29,20 L33,24 L32,27 L36,27 L36,23 L34,22 L31,17 L31,14 L27,15 L23,9 L17,8 L17,6 L5,3 L0,1 Z " fill="#226FB5" transform="translate(647,485)"/>
<path d="M0,0 L3,1 L3,5 L0,5 L0,11 L4,11 L4,5 L6,4 L8,5 L6,10 L-1,24 L-7,39 L-12,56 L-15,69 L-17,86 L-17,110 L-14,134 L-9,157 L-2,176 L-3,179 L-7,178 L-9,179 L-9,168 L-11,167 L-11,165 L-13,165 L-14,153 L-17,145 L-18,128 L-19,127 L-19,118 L-20,115 L-20,83 L-14,49 L-13,41 L-9,34 L-7,34 L-7,26 L-4,26 L-1,16 L0,13 L-3,12 L-4,5 L-1,4 Z " fill="#2872AE" transform="translate(403,325)"/>
<path d="M0,0 L6,0 L7,3 L12,3 L12,8 L11,9 L10,32 L12,32 L12,36 L9,36 L9,11 L-107,11 L-107,36 L-110,35 L-110,10 L-108,8 L-3,7 L4,8 L2,4 L0,3 Z " fill="#F5FDFD" transform="translate(1076,416)"/>
<path d="M0,0 L3,1 L-8,7 L-24,19 L-37,31 L-48,44 L-54,53 L-55,53 L-55,45 L-54,40 L-53,42 L-50,42 L-50,37 L-48,37 L-48,34 L-53,33 L-54,38 L-59,38 L-59,34 L-65,35 L-68,36 L-70,44 L-71,47 L-74,48 L-78,52 L-76,46 L-69,35 L-61,24 L-50,11 L-47,9 L-48,14 L-51,15 L-50,18 L-47,19 L-48,21 L-54,19 L-56,25 L-56,30 L-52,30 L-51,32 L-40,30 L-38,27 L-35,27 L-35,25 L-33,25 L-32,21 L-29,19 L-28,16 L-20,12 L-20,10 L-17,10 L-16,2 L-11,2 L-10,3 Z " fill="#F6FCF9" transform="translate(527,334)"/>
<path d="M0,0 L4,1 L7,3 L-3,5 L-19,10 L-52,21 L-54,21 L-54,23 L-56,23 L-58,28 L-66,47 L-67,47 L-66,39 L-65,36 L-67,36 L-67,26 L-63,23 L-61,23 L-60,20 L-58,20 L-58,22 L-56,22 L-57,18 L-54,17 L-53,12 L-47,10 L-42,10 L-42,8 L-21,5 L-18,4 L-2,3 L-2,1 Z " fill="#FBFCF7" transform="translate(422,300)"/>
<path d="M0,0 L6,1 L3,10 L-3,28 L-7,44 L-11,64 L-12,72 L-12,96 L-7,108 L-2,116 L-2,118 L-4,118 L-4,116 L-7,115 L-10,109 L-10,105 L-12,105 L-12,103 L-14,103 L-16,100 L-15,97 L-15,66 L-12,54 L-12,32 L-10,32 L-9,18 L-7,16 L-4,16 L-4,6 L0,7 Z " fill="#FCFCF7" transform="translate(236,448)"/>
<path d="M0,0 L24,0 L32,5 L37,16 L38,26 L41,30 L42,49 L41,55 L39,55 L38,58 L38,35 L34,24 L26,15 L16,9 L5,5 L-9,2 L-9,1 L0,1 Z " fill="#FCFDF8" transform="translate(651,482)"/>
<path d="M0,0 L2,2 L0,11 L0,23 L4,36 L6,40 L4,40 L4,38 L-2,37 L-2,34 L-11,33 L-11,2 L-10,1 Z " fill="#FDFEFB" transform="translate(577,447)"/>
<path d="M0,0 L1,2 L-3,6 L-8,10 L-9,14 L-5,18 L-4,23 L2,24 L4,27 L4,30 L8,31 L7,33 L13,34 L19,37 L26,39 L35,40 L58,40 L61,38 L71,38 L71,36 L77,36 L77,33 L86,32 L87,27 L88,25 L96,24 L95,27 L85,34 L75,39 L63,42 L55,43 L34,43 L23,41 L11,37 L-1,30 L-10,19 L-15,10 L-15,8 Z " fill="#3672A2" transform="translate(585,529)"/>
<path d="M0,0 L4,0 L10,9 L18,15 L24,18 L32,20 L52,20 L62,18 L60,23 L59,24 L47,25 L49,31 L48,33 L50,33 L50,35 L35,36 L30,35 L30,33 L27,32 L29,30 L35,30 L36,33 L38,33 L37,29 L39,26 L30,24 L27,23 L27,21 L18,18 L14,16 L14,14 L8,13 L6,10 L6,6 L4,6 L4,4 L2,4 L2,2 L-2,1 Z " fill="#216EB7" transform="translate(589,527)"/>
<path d="M0,0 L3,2 L-6,9 L-17,18 L-26,27 L-28,27 L-30,31 L-38,39 L-46,49 L-55,62 L-65,79 L-75,104 L-79,119 L-80,119 L-80,111 L-79,109 L-77,97 L-74,93 L-74,88 L-70,87 L-71,82 L-69,78 L-65,74 L-62,67 L-60,67 L-59,63 L-56,58 L-59,57 L-54,57 L-52,51 L-49,51 L-48,46 L-46,44 L-45,39 L-42,39 L-41,37 L-37,35 L-36,30 L-29,26 L-27,26 L-27,23 L-24,23 L-24,21 L-22,21 L-21,17 L-20,15 L-15,13 L-11,9 L-7,6 L-7,3 L-3,2 Z " fill="#3677A7" transform="translate(512,310)"/>
<path d="M0,0 L2,3 L1,7 L0,20 L0,62 L1,66 L3,67 L3,75 L4,79 L3,83 L6,97 L6,101 L11,99 L12,103 L10,104 L8,117 L3,117 L2,113 L2,107 L5,110 L5,107 L-1,78 L-4,54 L-4,27 L-2,9 Z " fill="#E7F7FB" transform="translate(432,429)"/>
<path d="M0,0 L16,0 L16,3 L28,3 L42,7 L44,11 L52,14 L55,16 L55,18 L57,18 L57,22 L60,22 L61,26 L59,28 L53,20 L42,12 L29,7 L16,5 L-4,5 L-20,9 L-33,16 L-35,17 L-35,15 L-37,14 L-34,9 L-24,8 L-24,6 Z " fill="#F0FBFC" transform="translate(624,419)"/>
<path d="M0,0 L7,0 L10,3 L18,3 L19,3 L24,3 L28,6 L26,11 L24,11 L24,15 L19,17 L16,17 L15,19 L10,19 L10,21 L5,23 L4,26 L1,28 L-2,28 L-2,30 L-8,32 L-9,35 L-12,34 L-6,27 L3,19 L16,9 L18,9 L18,7 L-9,3 L-9,2 L-1,1 Z " fill="#FCFCF8" transform="translate(500,301)"/>
<path d="M0,0 L1,3 L0,9 L2,16 L4,23 L2,24 L-4,39 L-7,46 L-9,46 L-9,56 L-11,62 L-12,62 L-12,51 L-9,35 L-11,35 L-10,27 L-8,27 L-8,19 L-6,15 L-4,14 L-3,3 Z " fill="#1D74BB" transform="translate(463,413)"/>
<path d="M0,0 L4,1 L4,3 L6,3 L5,0 L9,2 L14,7 L15,10 L18,10 L18,12 L20,12 L22,18 L15,21 L11,22 L9,21 L10,24 L3,25 L0,22 L0,18 L2,18 L2,16 L-2,17 L-2,14 L2,12 L10,11 L1,9 Z " fill="#1D70B8" transform="translate(661,433)"/>
<path d="M0,0 L4,2 L9,4 L11,10 L12,13 L15,12 L16,14 L14,14 L16,19 L14,19 L15,21 L15,28 L11,28 L11,25 L4,24 L4,21 L0,21 L-3,13 L-2,9 L-4,8 L-3,4 L-1,3 Z " fill="#FDFDFD" transform="translate(370,523)"/>
<path d="M0,0 L2,2 L3,13 L5,13 L6,27 L8,27 L8,37 L5,36 L5,27 L1,27 L2,36 L4,39 L4,43 L1,43 L0,38 L-3,40 L-3,37 L-6,37 L-7,34 L-7,23 L-5,23 L-5,16 L-2,12 L-1,6 L1,6 Z " fill="#1A74BC" transform="translate(241,453)"/>
<path d="M0,0 L10,1 L14,3 L15,5 L20,6 L20,8 L31,8 L32,10 L47,15 L54,16 L54,18 L66,19 L68,20 L111,20 L114,19 L133,19 L130,21 L114,23 L74,23 L50,19 L28,13 L13,7 L0,1 Z " fill="#3779A9" transform="translate(390,607)"/>
<path d="M0,0 L3,3 L5,17 L9,16 L10,18 L10,25 L12,26 L13,42 L16,46 L18,51 L19,61 L21,61 L22,65 L26,66 L29,78 L32,85 L29,85 L19,66 L12,48 L9,40 L4,24 L0,4 Z " fill="#EEF9FB" transform="translate(245,454)"/>
<path d="M0,0 L1,0 L7,26 L13,44 L17,53 L18,57 L13,55 L7,52 L4,49 L4,45 L6,45 L5,40 L3,41 L2,44 L0,44 L0,39 L3,33 L4,27 L0,25 Z " fill="#F3FBF9" transform="translate(274,452)"/>
<path d="M0,0 L2,0 L1,5 L-6,29 L-9,51 L-9,99 L-11,99 L-11,97 L-13,97 L-14,91 L-14,58 L-11,39 L-9,23 L-7,23 L-7,16 L-4,15 L-4,10 Z " fill="#F4FBFB" transform="translate(417,365)"/>
<path d="M0,0 L1,0 L1,12 L3,12 L3,50 L2,58 L4,76 L2,80 L-2,56 L-3,45 L-3,21 Z " fill="#E5F2F6" transform="translate(388,390)"/>
<path d="M0,0 L4,2 L14,9 L29,18 L46,27 L65,35 L83,41 L107,46 L107,47 L85,47 L85,43 L79,43 L79,41 L71,40 L61,36 L52,35 L47,33 L47,31 L43,30 L43,27 L39,26 L26,20 L26,18 L16,15 L14,12 L7,9 L4,7 L4,5 L0,4 Z " fill="#3276AA" transform="translate(325,597)"/>
<path d="M0,0 L2,0 L1,5 L-8,17 L-22,36 L-27,43 L-31,39 L-31,37 L-29,37 L-29,32 L-27,31 L-27,27 L-23,27 L-24,24 L-24,12 L-20,12 L-20,22 L-17,15 L-13,16 L-10,17 L-10,9 L-9,11 L-6,11 L-5,7 L-3,7 L-1,1 Z " fill="#FAFCF8" transform="translate(859,436)"/>
<path d="M0,0 L1,0 L1,14 L0,25 L-2,32 L-2,86 L0,86 L2,95 L2,109 L0,106 L-3,91 L-5,80 L-6,67 L-6,40 L-3,16 Z " fill="#D9F0F8" transform="translate(324,352)"/>
<path d="M0,0 L2,3 L1,14 L0,18 L0,15 L-2,16 L-4,27 L-6,27 L-7,35 L-5,35 L-7,51 L-7,61 L-5,46 L-2,43 L3,29 L6,23 L8,24 L4,33 L-2,51 L-6,67 L-7,74 L-9,75 L-10,68 L-10,43 L-7,23 L-1,2 Z " fill="#3D7DAF" transform="translate(459,413)"/>
<path d="M0,0 L7,0 L5,4 L-5,18 L-10,27 L-11,23 L-11,16 L-6,15 L-6,12 L-2,10 L1,4 L3,3 L0,2 L-1,5 L-6,6 L-13,7 L-15,10 L-24,12 L-25,14 L-17,14 L-17,15 L-22,15 L-22,17 L-33,16 L-40,17 L-46,16 L-44,14 L-16,5 L-3,1 Z " fill="#2372B0" transform="translate(422,303)"/>
<path d="M0,0 L1,0 L2,27 L4,45 L7,61 L13,82 L20,100 L21,104 L19,104 L15,96 L12,92 L9,89 L8,92 L5,88 L5,83 L8,84 L8,88 L12,88 L9,81 L7,80 L7,72 L5,72 L3,56 L2,55 L1,45 L0,44 L-1,37 Z " fill="#2773B1" transform="translate(317,392)"/>
<path d="M0,0 L20,0 L36,3 L46,7 L57,15 L63,22 L65,25 L64,29 L60,32 L50,36 L47,38 L43,37 L36,31 L38,30 L43,33 L46,34 L50,33 L50,31 L55,31 L57,29 L63,28 L61,22 L59,22 L59,20 L56,21 L54,17 L49,12 L47,11 L47,13 L45,13 L40,7 L30,4 L-10,3 L-10,2 Z " fill="#33719F" transform="translate(620,423)"/>
<path d="M0,0 L2,3 L2,9 L1,11 L-4,12 L-5,24 L-10,25 L-13,32 L-17,33 L-17,30 L-19,30 L-18,34 L-23,35 L-25,33 L-19,25 L-6,8 Z " fill="#FAFCF8" transform="translate(853,492)"/>
<path d="M0,0 L1,3 L3,3 L4,10 L11,14 L15,15 L16,17 L24,20 L42,20 L42,18 L52,18 L54,14 L55,12 L61,12 L61,15 L56,19 L43,23 L23,23 L13,20 L3,14 L-4,6 L-5,2 L-2,1 L-2,3 L0,3 Z " fill="#E1F4FA" transform="translate(598,525)"/>
<path d="M0,0 L17,0 L19,5 L23,8 L23,14 L19,15 L19,9 L15,9 L15,18 L14,18 L14,5 L15,3 L9,7 L-1,15 L-13,26 L-17,29 L-17,24 L-13,24 L-12,20 L-10,20 L-10,16 L-4,16 L-4,12 L-7,11 L-7,8 L-2,9 L-2,11 L2,10 L2,8 L0,8 L-1,1 Z M1,1 L2,3 Z " fill="#F5FDFD" transform="translate(311,344)"/>
<path d="M0,0 L9,3 L16,6 L17,4 L18,6 L31,10 L31,12 L36,14 L36,16 L42,17 L40,19 L44,19 L45,23 L46,26 L37,23 L13,10 L0,1 Z " fill="#FCFCF7" transform="translate(332,601)"/>
<path d="M0,0 L4,2 L8,0 L12,5 L16,1 L16,16 L23,17 L23,21 L26,22 L26,34 L28,35 L25,35 L17,24 L3,5 Z " fill="#FBFCF9" transform="translate(784,431)"/>
<path d="M0,0 L5,5 L5,8 L2,7 L2,94 L4,94 L3,103 L0,104 L-9,104 L-9,103 L0,102 Z " fill="#CCE8F5" transform="translate(777,466)"/>
<path d="M0,0 L28,0 L28,136 L10,135 L10,133 L27,133 L27,1 L2,2 L-2,7 L-3,10 L-5,10 L-5,12 L-10,11 L-9,8 L-7,8 L-5,3 L-4,6 L-2,2 L0,2 Z " fill="#226FB1" transform="translate(870,429)"/>
<path d="M0,0 L1,0 L1,9 L-2,9 L-2,25 L-3,30 L-5,30 L-4,40 L-6,36 L-6,30 L-9,30 L-9,41 L-10,46 L-13,46 L-15,42 L-14,35 L-8,17 L-1,2 Z " fill="#F9FDFB" transform="translate(448,386)"/>
<path d="M0,0 L2,1 L4,9 L9,19 L11,25 L12,29 L15,31 L16,39 L19,39 L20,31 L23,31 L27,40 L27,43 L24,43 L24,40 L20,40 L22,47 L24,47 L25,52 L28,52 L28,57 L23,52 L13,37 L0,10 L-2,1 Z " fill="#2D75A7" transform="translate(357,472)"/>
<path d="M0,0 L2,0 L4,2 L9,3 L12,4 L13,13 L18,13 L20,16 L20,18 L22,19 L23,22 L28,24 L30,24 L33,27 L34,25 L35,27 L36,36 L31,33 L20,24 L2,6 L-1,1 Z " fill="#E4F3F7" transform="translate(428,545)"/>
<path d="M0,0 L5,2 L12,12 L18,21 L15,21 L14,17 L12,17 L8,12 L4,15 L4,101 L0,99 L-2,98 L-8,98 L-8,97 L0,96 L1,87 L1,2 Z " fill="#F8FBFC" transform="translate(780,473)"/>
<path d="M0,0 L7,1 L9,3 L9,7 L17,6 L18,7 L18,12 L15,12 L15,15 L9,13 L-1,8 L-7,8 L-13,11 L-16,10 L-14,7 L-12,7 L-12,4 L-15,3 L-2,1 Z " fill="#FCFCF7" transform="translate(551,320)"/>
<path d="M0,0 L3,1 L2,4 L4,5 L-4,7 L-5,10 L-7,10 L-7,12 L-11,12 L-10,14 L-11,17 L-14,19 L-14,22 L-23,23 L-29,22 L-30,23 L-36,23 L-31,19 L-14,10 L-4,3 Z " fill="#F9FDF8" transform="translate(555,633)"/>
<path d="M0,0 L6,0 L6,3 L11,4 L16,8 L16,10 L23,12 L32,16 L40,18 L41,17 L38,17 L34,13 L31,10 L32,8 L41,15 L56,25 L61,28 L59,29 L42,24 L24,16 L4,4 Z " fill="#3778A9" transform="translate(426,568)"/>
<path d="M0,0 L2,3 L-7,12 L-18,26 L-20,31 L-20,69 L-23,69 L-24,65 L-24,29 L-21,29 L-20,24 L-17,17 L-13,16 L-13,14 L-11,14 L-10,11 L-8,11 L-6,6 L-1,1 Z " fill="#DFF5F9" transform="translate(292,371)"/>
<path d="M0,0 L2,4 L5,5 L7,9 L12,14 L15,21 L20,26 L20,28 L22,28 L23,31 L27,35 L29,40 L32,41 L31,45 L34,44 L36,49 L40,49 L40,43 L42,41 L42,44 L44,44 L44,41 L48,42 L41,52 L35,52 L25,39 L15,25 L4,10 L-2,1 Z " fill="#3672A7" transform="translate(787,475)"/>
<path d="M0,0 L5,2 L15,8 L18,9 L18,11 L27,14 L38,19 L59,26 L82,31 L82,32 L72,32 L64,31 L64,30 L45,26 L45,23 L37,22 L28,19 L28,17 L22,15 L17,12 L9,11 L8,8 L5,6 L0,2 Z " fill="#3675A7" transform="translate(416,586)"/>
<path d="M0,0 L2,0 L2,2 L-10,7 L-11,10 L-13,10 L-13,12 L-19,12 L-20,18 L-25,20 L-28,33 L-28,48 L-26,48 L-25,54 L-28,57 L-32,44 L-32,32 L-29,22 L-22,12 L-14,6 L-4,1 Z " fill="#3A75A4" transform="translate(608,426)"/>
<path d="M0,0 L3,4 L2,11 L0,15 L-3,15 L-3,21 L-7,21 L-9,24 L-10,30 L-12,31 L-15,47 L-19,49 L-19,54 L-21,54 L-19,43 L-13,26 L-6,10 Z " fill="#DAF3F9" transform="translate(411,330)"/>
<path d="M0,0 L30,0 L30,2 L2,3 L1,140 L0,140 Z " fill="#336D97" transform="translate(751,427)"/>
<path d="M0,0 L10,5 L26,14 L35,18 L53,25 L58,26 L55,28 L42,27 L42,24 L37,23 L31,19 L21,18 L20,21 L16,21 L16,16 L21,16 L18,13 L9,10 L6,7 L3,5 L3,3 L0,2 Z " fill="#E8F9FB" transform="translate(368,595)"/>
<path d="M0,0 L0,3 L-2,7 L-6,9 L-2,11 L-2,14 L-10,15 L-9,18 L-11,18 L-10,22 L-17,26 L-18,30 L-23,29 L-23,32 L-28,32 L-21,21 L-9,8 Z " fill="#F9FBF7" transform="translate(505,386)"/>
<path d="M0,0 L3,0 L2,4 L-8,7 L-18,10 L-22,12 L-26,14 L-30,15 L-35,15 L-43,18 L-44,21 L-46,21 L-47,23 L-51,21 L-66,19 L-66,18 L-42,14 L-22,9 Z " fill="#D2ECF6" transform="translate(516,656)"/>
<path d="M0,0 L3,1 L-8,7 L-24,19 L-37,31 L-47,43 L-48,40 L-46,40 L-44,35 L-40,30 L-38,27 L-35,27 L-35,25 L-33,25 L-32,21 L-29,19 L-28,16 L-20,12 L-20,10 L-17,10 L-16,2 L-11,2 L-10,3 Z " fill="#D9F1FA" transform="translate(527,334)"/>
<path d="M0,0 L8,0 L17,3 L33,5 L36,7 L85,7 L102,5 L108,5 L104,7 L92,9 L82,10 L46,10 L30,8 L7,3 L0,1 Z " fill="#3675A5" transform="translate(358,666)"/>
<path d="M0,0 L4,0 L4,16 L2,16 L2,32 L4,32 L4,48 L2,49 L0,54 L-3,53 L-3,48 L-1,47 Z " fill="#1775C0" transform="translate(422,448)"/>
<path d="M0,0 L5,2 L27,12 L45,18 L53,20 L49,22 L49,20 L40,22 L34,21 L33,16 L24,15 L21,13 L14,13 L8,10 L8,7 L2,4 Z " fill="#E7F7FB" transform="translate(320,650)"/>
<path d="M0,0 L1,0 L1,16 L-2,17 L-2,45 L4,56 L4,60 L8,61 L11,72 L12,75 L14,75 L14,80 L10,75 L4,65 L-3,51 L-4,48 L-4,24 Z " fill="#377BA7" transform="translate(227,496)"/>
<path d="M0,0 L119,0 L119,1 L3,1 L3,26 L0,25 Z " fill="#E3FBFE" transform="translate(966,426)"/>
<path d="M0,0 L6,0 L27,11 L38,19 L43,22 L43,24 L18,30 L16,30 L16,28 L35,23 L37,24 L36,19 L32,18 L21,11 L16,8 L8,7 L8,5 L6,4 L-4,5 L-11,6 L-10,4 Z " fill="#3671A0" transform="translate(544,327)"/>
<path d="M0,0 L5,5 L18,20 L30,32 L34,36 L31,37 L31,34 L26,32 L23,28 L18,25 L12,21 L10,22 L9,16 L2,15 L0,2 Z " fill="#F8FBF6" transform="translate(311,542)"/>
<path d="M0,0 L3,1 L1,5 L1,9 L3,10 L3,12 L-1,12 L-2,15 L-5,14 L-4,10 L-11,10 L-10,15 L-18,15 L-22,16 L-26,15 L-28,9 L-36,5 L-36,3 L-40,3 L-40,1 L-34,2 L-24,9 L-21,12 L-16,11 L-9,7 L-2,4 Z " fill="#DDF4FC" transform="translate(685,448)"/>
<path d="M0,0 L4,0 L10,9 L18,15 L24,18 L32,20 L52,20 L62,18 L60,23 L59,24 L47,24 L27,22 L14,16 L14,14 L8,13 L6,10 L6,6 L4,6 L4,4 L2,4 L2,2 L-2,1 Z " fill="#39709D" transform="translate(589,527)"/>
<path d="M0,0 L4,4 L10,13 L14,18 L14,20 L17,21 L24,29 L32,37 L29,38 L25,34 L21,33 L20,29 L16,26 L16,24 L14,24 L12,20 L6,18 L3,14 L3,12 L1,12 L0,6 L-2,6 L-1,2 Z " fill="#F9FAF2" transform="translate(243,580)"/>
<path d="M0,0 L2,1 L1,9 L-3,33 L-3,57 L2,69 L7,77 L7,79 L5,79 L5,77 L2,76 L-1,70 L-1,66 L-3,66 L-3,64 L-5,64 L-7,61 L-6,58 L-6,27 L-3,15 Z " fill="#DAF0F8" transform="translate(227,487)"/>
<path d="M0,0 L2,2 L0,11 L0,23 L4,36 L6,40 L4,40 L4,38 L2,38 L0,34 L-2,33 L-4,17 L-7,16 L-7,2 Z " fill="#F9FEF7" transform="translate(577,447)"/>
<path d="M0,0 L1,0 L1,100 L0,100 L0,7 L-3,8 L-6,14 L-10,18 L-14,23 L-17,22 L-7,9 Z " fill="#C9EDFE" transform="translate(872,467)"/>
<path d="M0,0 L30,1 L28,3 L0,4 L-7,10 L-12,17 L-16,21 L-23,32 L-25,32 L-25,30 L-23,30 L-20,21 L-14,12 L-9,11 L-8,5 L-4,2 Z " fill="#DCF2FA" transform="translate(460,300)"/>
<path d="M0,0 L6,0 L6,2 L11,1 L20,1 L19,4 L34,8 L49,9 L60,13 L62,15 L58,16 L54,14 L14,7 L2,2 Z " fill="#3270A6" transform="translate(594,496)"/>
<path d="M0,0 L5,5 L12,15 L21,27 L23,30 L28,31 L28,33 L21,33 L18,31 L18,29 L16,29 L16,26 L10,25 L6,16 L4,15 L5,13 L4,10 L0,2 Z " fill="#F8FAF5" transform="translate(799,496)"/>
<path d="M0,0 L2,0 L2,10 L0,15 L0,65 L-2,67 L-4,50 L-4,27 Z " fill="#3B7CAC" transform="translate(348,370)"/>
<path d="M0,0 L31,0 L56,4 L58,5 L58,7 L55,8 L55,6 L42,6 L30,5 L28,4 L28,2 L0,2 L1,5 L-4,4 Z " fill="#2D76A9" transform="translate(460,303)"/>
<path d="M0,0 L3,4 L10,15 L15,20 L15,22 L20,24 L29,29 L36,31 L36,32 L27,32 L27,30 L20,29 L20,27 L11,24 L8,20 L7,13 L3,14 L0,12 L-1,1 Z " fill="#E4F6FA" transform="translate(569,537)"/>
<path d="M0,0 L8,0 L5,2 L-13,5 L-24,6 L-48,6 L-69,4 L-75,3 L-75,2 L-59,2 L-53,3 L-21,3 L-11,1 Z " fill="#C9E6F2" transform="translate(501,640)"/>
<path d="M0,0 L2,1 L-1,4 L-5,4 L-6,7 L-15,9 L-15,12 L-26,12 L-26,14 L-39,15 L-43,17 L-52,16 L-52,15 L-32,11 L-5,2 Z " fill="#387CB5" transform="translate(551,627)"/>
<path d="M0,0 L2,1 L-8,10 L-20,19 L-30,26 L-38,30 L-38,27 L-33,26 L-33,24 L-30,24 L-30,21 L-26,19 L-26,17 L-20,16 L-21,10 L-7,4 Z " fill="#3475AA" transform="translate(574,616)"/>
<path d="M0,0 L3,0 L3,3 L5,3 L5,6 L9,8 L11,10 L14,17 L16,18 L16,21 L18,21 L25,29 L28,33 L32,34 L32,38 L37,39 L37,41 L39,41 L42,44 L41,48 L28,36 L19,27 L10,16 L4,8 L0,2 Z " fill="#3A77A6" transform="translate(305,531)"/>
<path d="M0,0 L2,0 L1,7 L-5,8 L-7,7 L-13,10 L-14,13 L-18,14 L-18,16 L-26,15 L-26,17 L-32,20 L-34,21 L-36,19 L-25,12 L-11,5 Z " fill="#E6F5F8" transform="translate(550,360)"/>
<path d="M0,0 L3,4 L11,19 L18,29 L16,34 L15,31 L12,31 L10,22 L8,22 L8,18 L5,18 L6,28 L5,32 L1,32 L1,27 L4,26 L4,17 L1,16 L4,16 L0,4 Z " fill="#2175B2" transform="translate(338,496)"/>
<path d="M0,0 L5,5 L18,23 L30,39 L31,42 L28,43 L25,39 L25,37 L23,37 L22,33 L20,32 L19,29 L17,28 L17,26 L12,24 L11,21 L8,20 L7,12 L0,2 Z " fill="#3573AC" transform="translate(784,432)"/>
<path d="M0,0 L3,0 L4,27 L6,27 L8,33 L11,49 L14,56 L14,61 L12,59 L6,41 L-1,11 Z " fill="#3274A5" transform="translate(274,437)"/>
<path d="M0,0 L4,1 L-13,10 L-41,21 L-58,25 L-65,25 L-63,23 L-57,21 L-44,19 L-36,16 L-25,12 L-24,11 L-19,11 L-19,9 L-15,9 L-15,7 L-11,7 L-11,5 L-7,3 L-4,3 L-4,1 Z " fill="#3072A1" transform="translate(532,646)"/>
<path d="M0,0 L2,3 L-3,10 L-6,11 L-7,13 L-9,13 L-9,18 L-12,18 L-13,22 L-15,26 L-18,27 L-19,35 L-24,39 L-26,39 L-27,44 L-30,51 L-32,51 L-30,45 L-22,29 L-13,16 L-9,10 L-7,10 L-5,6 Z " fill="#3275A7" transform="translate(455,307)"/>
<path d="M0,0 L4,0 L4,2 L1,4 L0,8 L-2,8 L-2,11 L4,8 L6,11 L-4,15 L-15,21 L-17,21 L-15,17 L-13,16 L-14,12 L-8,11 L-7,7 Z " fill="#FCFDF7" transform="translate(587,516)"/>
<path d="M0,0 L2,4 L0,4 L-1,7 L-8,10 L-9,14 L-13,16 L-16,16 L-17,22 L-24,28 L-27,28 L-27,30 L-29,30 L-29,33 L-34,36 L-36,35 L-25,23 L-11,9 Z " fill="#3275AA" transform="translate(317,352)"/>
<path d="M0,0 L11,0 L11,4 L13,5 L9,10 L7,12 L0,12 L5,7 L5,6 L3,7 L-8,8 L-7,4 L-4,4 L-3,1 Z " fill="#F6F9F5" transform="translate(568,612)"/>
<path d="M0,0 L2,1 L-4,11 L-13,31 L-14,31 L-14,20 L-17,21 L-16,17 L-13,14 L-10,14 L-11,10 L-6,7 L-2,5 L-1,1 Z " fill="#F8FCFC" transform="translate(433,334)"/>
<path d="M0,0 L1,4 L-2,21 L-5,21 L-5,29 L-4,31 L-4,40 L-6,43 L-7,40 L-9,39 L-10,31 L-3,7 Z " fill="#327BB2" transform="translate(420,363)"/>
<path d="M0,0 L8,1 L18,4 L20,8 L28,11 L31,13 L31,15 L33,15 L33,19 L36,19 L37,23 L35,25 L29,17 L18,9 L5,4 L-8,2 L-8,1 Z " fill="#D6EEF7" transform="translate(648,422)"/>
<path d="M0,0 L8,6 L16,12 L24,18 L38,27 L42,30 L39,31 L34,29 L34,27 L27,25 L25,21 L21,20 L21,18 L15,16 L10,13 L5,7 L2,9 L1,4 L-1,2 Z " fill="#DDF4FA" transform="translate(278,620)"/>
<path d="M0,0 L4,2 L14,15 L32,33 L37,38 L33,37 L29,35 L28,32 L26,31 L26,29 L24,29 L24,27 L18,25 L17,21 L15,21 L15,19 L12,18 L12,16 L10,16 L9,14 L7,14 L3,6 L0,3 Z " fill="#3272A5" transform="translate(419,538)"/>
<path d="M0,0 L3,3 L9,15 L9,21 L6,20 L5,18 L3,22 L2,25 L-3,20 L-8,13 L-5,11 L-3,17 L0,16 L1,12 L3,12 L3,8 L1,8 Z " fill="#EDF8F8" transform="translate(425,520)"/>
<path d="M0,0 Z M-3,-2 L-2,1 L0,2 L0,5 L3,7 L3,9 L1,9 L2,11 L4,9 L5,7 L6,10 L8,10 L9,14 L11,14 L9,18 L7,21 L5,21 L-6,5 L-8,1 L-4,2 Z " fill="#F2F7F7" transform="translate(819,466)"/>
<path d="M0,0 L1,0 L5,21 L8,32 L7,35 L0,24 L0,18 L-3,12 L-3,5 Z " fill="#1F72BA" transform="translate(431,507)"/>
<path d="M0,0 L3,4 L3,9 L5,9 L6,15 L8,16 L10,10 L11,10 L11,18 L10,24 L14,32 L18,39 L18,44 L14,39 L9,29 L2,12 L0,4 Z " fill="#2D73A9" transform="translate(414,486)"/>
<path d="M0,0 L9,0 L16,2 L15,6 L25,7 L27,13 L23,13 L9,6 L-9,2 L-9,1 L0,1 Z " fill="#EAF6F7" transform="translate(651,482)"/>
<path d="M0,0 L1,0 L1,9 L0,14 L2,15 L1,17 L-1,17 L-1,15 L-3,15 L-4,21 L-8,22 L-9,19 L-11,19 L-9,13 Z " fill="#F9FDF9" transform="translate(423,311)"/>
<path d="M0,0 L2,0 L1,5 L-8,17 L-22,36 L-27,43 L-28,40 L-24,33 L-20,28 L-14,19 L-12,19 L-12,17 L-10,17 L-10,9 L-9,11 L-6,11 L-5,7 L-3,7 L-1,1 Z " fill="#DBF2FA" transform="translate(859,436)"/>
<path d="M0,0 L1,3 L-1,15 L-2,26 L-2,53 L0,74 L-3,74 L-4,66 L-4,10 L-2,7 Z " fill="#3370A8" transform="translate(431,430)"/>
<path d="M0,0 L20,0 L36,3 L46,7 L43,9 L37,6 L30,4 L-10,3 L-10,2 Z " fill="#3D77A7" transform="translate(620,423)"/>
<path d="M0,0 L8,1 L18,3 L30,4 L74,4 L74,5 L68,6 L2,6 Z " fill="#D6EFF9" transform="translate(374,671)"/>
<path d="M0,0 L13,1 L44,2 L44,4 L28,8 L24,7 L23,4 L14,4 L0,1 Z " fill="#4F82A8" transform="translate(502,618)"/>
<path d="M0,0 L4,2 L9,5 L9,9 L11,9 L13,12 L17,14 L19,18 L26,20 L26,23 L28,23 L28,26 L34,28 L36,29 L36,31 L33,32 L20,21 L12,14 L1,3 Z " fill="#3A79A7" transform="translate(259,600)"/>
<path d="M0,0 L2,1 L7,24 L14,43 L13,46 L9,45 L7,46 L8,34 L7,30 L5,30 L3,18 L2,17 L0,6 Z " fill="#3277AC" transform="translate(387,458)"/>
<path d="M0,0 L2,0 L1,11 L1,59 L-1,59 L-2,54 L-2,11 Z " fill="#CCE9F5" transform="translate(407,405)"/>
<path d="M0,0 L4,0 L4,2 L10,4 L11,7 L18,8 L20,9 L20,11 L26,11 L26,9 L28,10 L31,14 L38,16 L36,18 L30,17 L9,8 L-2,2 Z " fill="#387BAB" transform="translate(322,648)"/>
<path d="M0,0 L3,1 L-2,6 L-13,13 L-25,17 L-34,18 L-35,16 L-32,14 L-22,14 L-22,12 L-16,12 L-16,9 L-7,8 L-6,3 L-5,1 Z " fill="#2D6EA8" transform="translate(678,553)"/>
<path d="M0,0 L1,0 L0,7 L-1,9 L-4,9 L-5,13 L-7,13 L-7,52 L-8,52 L-9,44 L-9,14 L-5,6 Z " fill="#3B76A2" transform="translate(280,388)"/>
<path d="M0,0 L6,0 L6,2 L-2,4 L-52,4 L-60,2 L-60,1 L-39,2 L-15,2 Z " fill="#3472A3" transform="translate(492,643)"/>
<path d="M0,0 L1,0 L3,17 L7,39 L10,49 L9,53 L8,53 L5,44 L2,38 L2,30 L0,20 Z " fill="#E6F9FC" transform="translate(344,420)"/>
<path d="M0,0 L2,4 L-8,12 L-20,23 L-24,26 L-24,21 L-20,21 L-19,17 L-17,17 L-17,13 L-11,13 L-11,9 L-14,8 L-14,5 L-9,6 L-9,8 L-5,7 L-6,2 Z " fill="#ECF9FD" transform="translate(318,347)"/>
<path d="M0,0 L2,1 L-2,10 L-8,28 L-12,44 L-13,51 L-15,52 L-15,34 L-13,38 L-11,23 L-8,20 L-3,6 Z " fill="#3976A7" transform="translate(465,436)"/>
<path d="M0,0 L4,1 L-6,3 L-13,6 L-68,6 L-76,5 L-76,3 L-66,4 L-26,4 L-10,2 Z " fill="#D1EFF8" transform="translate(530,625)"/>
<path d="M0,0 L4,5 L13,17 L23,28 L23,30 L26,31 L24,32 L22,31 L22,29 L17,28 L16,31 L16,29 L14,28 L15,23 L12,23 L10,22 L9,14 L6,14 L5,10 L1,8 L1,6 L-1,6 Z " fill="#3579AB" transform="translate(278,545)"/>
<path d="M0,0 L6,1 L3,10 L-3,28 L-6,38 L-8,38 L-7,32 L-4,19 L-2,16 Z " fill="#DFF6FC" transform="translate(236,448)"/>
<path d="M0,0 L11,1 L15,3 L15,5 L13,6 L20,10 L24,9 L25,13 L23,13 L24,17 L21,18 L12,18 L12,17 L21,16 L21,14 L16,12 L2,2 Z " fill="#E1F0F5" transform="translate(566,335)"/>
<path d="M0,0 L5,2 L17,5 L16,7 L28,9 L31,11 L37,14 L33,15 L19,11 L3,5 L-2,3 L0,2 Z " fill="#DFF5F9" transform="translate(447,599)"/>
<path d="M0,0 L7,0 L10,3 L18,3 L19,3 L21,3 L21,8 L19,8 L18,13 L12,13 L16,9 L18,9 L18,7 L-9,3 L-9,2 L-1,1 Z " fill="#E1F3F8" transform="translate(500,301)"/>
<path d="M0,0 L3,0 L6,3 L8,4 L10,10 L15,15 L18,17 L18,19 L24,20 L24,23 L28,24 L28,26 L31,27 L31,31 L26,29 L7,10 L0,2 Z " fill="#3375A7" transform="translate(385,529)"/>
<path d="M0,0 L3,0 L2,3 L0,3 L-3,12 L-5,12 L-7,16 L-13,24 L-14,28 L-20,28 L-20,26 L-15,21 L-5,7 Z " fill="#3676A7" transform="translate(844,461)"/>
<path d="M0,0 L2,1 L2,2 L7,2 L9,8 L13,9 L13,13 L19,13 L16,15 L15,18 L9,14 L2,7 L-3,2 Z " fill="#EBF3F6" transform="translate(309,577)"/>
<path d="M0,0 L9,1 L22,6 L32,13 L39,21 L37,25 L34,22 L31,17 L31,14 L27,15 L23,9 L17,8 L17,6 L5,3 L0,1 Z " fill="#3D749D" transform="translate(647,485)"/>
<path d="M0,0 L2,0 L-3,26 L-5,45 L-6,45 L-6,37 L-8,37 L-7,32 L-5,32 L-5,21 L-4,17 L-8,17 L-7,14 L-2,13 L-3,5 L-5,4 Z " fill="#2E72A9" transform="translate(324,347)"/>
<path d="M0,0 L7,1 L9,4 L12,5 L12,21 L8,29 L6,32 L-2,33 L3,29 L7,24 L9,19 L9,10 L6,5 L0,1 Z " fill="#3571A6" transform="translate(654,512)"/>
<path d="M0,0 L16,0 L23,2 L20,4 L-6,4 L-6,6 L-13,9 L-16,8 L-11,4 Z " fill="#D4EBF3" transform="translate(622,446)"/>
<path d="M0,0 L3,1 L-7,14 L-17,30 L-19,35 L-23,31 L-23,29 L-19,29 L-18,26 L-16,24 L-15,16 L-11,15 L-5,5 L-2,5 Z " fill="#2C74AD" transform="translate(487,400)"/>
<path d="M0,0 L1,0 L1,8 L-2,9 L0,10 L0,16 L-4,20 L-11,21 L-16,22 L-11,17 L-8,16 L-6,12 Z " fill="#F8FAF4" transform="translate(688,540)"/>
<path d="M0,0 L3,1 L-7,8 L-20,19 L-27,25 L-27,20 L-23,17 L-23,15 L-17,14 L-17,11 L-13,11 L-13,6 L-8,6 L-8,4 L-6,4 L-5,2 Z " fill="#3075A8" transform="translate(517,375)"/>
<path d="M0,0 L3,4 L2,11 L0,15 L-3,15 L-3,21 L-6,20 L-7,12 Z " fill="#FAFBF4" transform="translate(411,330)"/>
<path d="M0,0 L3,0 L7,9 L7,12 L4,12 L4,9 L0,9 L2,16 L4,16 L5,21 L8,21 L8,26 L3,21 L-3,12 L-3,9 L-1,8 Z " fill="#2171B7" transform="translate(377,503)"/>
<path d="M0,0 L2,4 L2,6 L0,6 L0,12 L-3,16 L-4,23 L-6,23 L-6,30 L-8,30 L-9,38 L-10,42 L-12,42 L-10,29 L-2,5 Z " fill="#3F7FAF" transform="translate(240,453)"/>
<path d="M0,0 L5,5 L22,22 L29,28 L26,28 L23,27 L23,25 L21,25 L21,23 L16,21 L15,18 L12,18 L12,14 L9,15 L8,12 L4,8 L1,7 Z " fill="#3374AB" transform="translate(371,546)"/>
<path d="M0,0 L7,0 L7,2 L16,3 L19,4 L19,6 L32,8 L37,10 L38,13 L27,11 L7,4 L0,1 Z " fill="#D2EFF7" transform="translate(378,627)"/>
<path d="M0,0 L9,3 L16,6 L17,4 L18,7 L17,9 L25,11 L29,16 L26,17 L10,8 L0,1 Z " fill="#DDF2F9" transform="translate(332,601)"/>
<path d="M0,0 L3,1 L7,10 L9,12 L10,31 L9,37 L7,37 L6,40 L6,17 L2,6 L-1,1 Z " fill="#E1F5FC" transform="translate(683,500)"/>
<path d="M0,0 L3,1 L5,8 L9,7 L10,8 L10,18 L5,16 L5,13 L3,13 L2,15 L0,6 L-1,3 Z " fill="#FDFEFA" transform="translate(406,499)"/>
<path d="M0,0 L6,2 L12,4 L38,8 L37,11 L27,9 L10,8 L7,7 L6,5 L2,4 L2,2 L0,2 Z " fill="#3372A8" transform="translate(608,476)"/>
<path d="M0,0 L2,1 L-1,4 L-5,12 L-8,14 L-11,14 L-11,16 L-17,18 L-18,21 L-21,20 L-15,13 L-6,5 Z " fill="#E0F5FA" transform="translate(509,315)"/>
<path d="M0,0 L4,0 L2,33 L-2,33 L0,20 L-1,1 Z " fill="#FBFCF2" transform="translate(692,511)"/>
<path d="M0,0 L2,1 L2,20 L-3,33 L-7,37 L-7,32 L-4,31 L-4,28 L-2,28 L-1,2 Z " fill="#3474A7" transform="translate(688,516)"/>
<path d="M0,0 L2,0 L2,2 L4,4 L3,5 L-7,6 L-7,8 L-10,10 L-20,12 L-25,12 L-25,10 L-16,7 L-11,7 L-11,5 L-13,4 L-1,1 Z " fill="#F9F9F4" transform="translate(537,625)"/>
<path d="M0,0 L2,0 L1,5 L-6,29 L-8,40 L-9,40 L-9,23 L-7,23 L-7,16 L-4,15 L-4,10 Z " fill="#E6FAFD" transform="translate(417,365)"/>
<path d="M0,0 L2,2 L2,5 L4,5 L4,12 L-1,16 L-2,21 L-5,21 L-4,13 Z " fill="#2C76B2" transform="translate(355,347)"/>
<path d="M0,0 L24,0 L23,2 L16,3 L16,4 L-3,4 L-6,2 L0,2 Z " fill="#F1F8FA" transform="translate(424,638)"/>
<path d="M0,0 L5,0 L10,2 L11,5 L15,8 L18,8 L18,6 L21,7 L22,12 L24,13 L24,16 L19,14 L8,7 L0,1 Z " fill="#ECFBFB" transform="translate(402,575)"/>
<path d="M0,0 L7,0 L3,2 L-9,5 L-22,12 L-24,13 L-24,11 L-26,10 L-23,5 L-15,4 L-6,2 Z " fill="#EAF6FA" transform="translate(613,423)"/>
<path d="M0,0 L7,2 L7,4 L14,3 L16,8 L22,11 L21,14 L16,12 L0,3 Z " fill="#2B75B0" transform="translate(369,593)"/>
<path d="M0,0 L2,0 L2,2 L7,3 L7,6 L9,6 L8,10 L10,10 L11,7 L13,9 L18,14 L16,14 L16,20 L11,15 L4,7 Z " fill="#F8FAF4" transform="translate(282,550)"/>
<path d="M0,0 L1,0 L1,9 L-2,9 L-2,18 L-5,19 L-8,27 L-11,28 L-10,22 L-2,3 Z " fill="#D9F1F7" transform="translate(448,386)"/>
<path d="M0,0 L5,5 L6,8 L9,9 L16,17 L24,25 L21,26 L17,22 L13,21 L12,17 L8,14 L8,12 L6,12 L4,8 L2,6 L0,3 Z " fill="#D9F3FA" transform="translate(251,592)"/>
<path d="M0,0 L8,0 L24,3 L26,5 L19,5 L10,6 L8,5 L9,3 L-2,3 L-6,1 Z " fill="#E8F4F6" transform="translate(624,506)"/>
<path d="M0,0 L5,4 L5,12 L7,12 L11,23 L15,29 L14,32 L5,17 L-1,5 Z " fill="#3773A3" transform="translate(290,499)"/>
<path d="M0,0 L1,0 L2,27 L3,48 L0,44 L-1,37 Z " fill="#2A72A6" transform="translate(317,392)"/>
<path d="M0,0 L3,1 L2,4 L4,5 L-4,7 L-5,10 L-7,10 L-7,12 L-12,13 L-19,14 L-16,11 L-5,4 Z " fill="#E4F2F6" transform="translate(555,633)"/>
<path d="M0,0 L2,1 L2,3 L5,3 L10,11 L10,13 L6,13 L5,10 L3,9 L1,13 L-4,12 L-5,7 L1,7 Z " fill="#2272B6" transform="translate(268,532)"/>
<path d="M0,0 L2,2 L0,11 L0,23 L4,36 L6,40 L4,40 L4,38 L2,38 L0,34 L-2,33 L-2,5 Z " fill="#EDFEFD" transform="translate(577,447)"/>
<path d="M0,0 L6,2 L12,0 L16,0 L16,6 L10,6 L10,8 L3,6 L-2,1 Z " fill="#FBFBFA" transform="translate(326,594)"/>
<path d="M0,0 L4,2 L16,13 L13,14 L9,13 L6,10 L6,13 L1,14 L3,13 L3,11 L1,10 L2,8 L4,8 L2,3 L0,2 Z " fill="#2977B7" transform="translate(303,578)"/>
<path d="M0,0 L1,0 L6,24 L10,36 L11,40 L8,39 L6,28 L4,28 L0,14 Z " fill="#D6EFF8" transform="translate(408,464)"/>
<path d="M0,0 L1,0 L4,16 L8,31 L7,35 L5,28 L2,27 L0,11 L-1,10 L-1,3 Z " fill="#427DAA" transform="translate(320,437)"/>
<path d="M0,0 L4,1 L7,3 L-3,5 L-19,10 L-22,10 L-22,8 L-18,6 L-18,4 L-2,3 L-2,1 Z " fill="#DFF4F8" transform="translate(422,300)"/>
<path d="M0,0 L15,7 L22,9 L34,11 L34,12 L23,12 L14,11 L14,9 L5,7 L3,6 L3,3 L0,3 Z " fill="#D7EFF6" transform="translate(590,494)"/>
<path d="M0,0 L2,3 L6,14 L14,31 L14,33 L10,31 L8,21 L5,21 L2,16 Z " fill="#DAF3FA" transform="translate(354,472)"/>
<path d="M0,0 L2,1 L-3,3 L-4,7 L-7,11 L-8,16 L-10,22 L-12,22 L-13,28 L-16,28 L-15,23 L-8,7 L-6,4 L-4,4 L-4,2 Z " fill="#3579A9" transform="translate(372,319)"/>
<path d="M0,0 L1,0 L2,16 L7,28 L12,36 L12,38 L10,38 L10,36 L7,35 L4,29 L4,25 L2,25 L2,23 L0,23 L-2,20 L-1,17 Z " fill="#D0F1F8" transform="translate(222,528)"/>
<path d="M0,0 L14,0 L11,2 L10,5 L8,5 L7,7 L3,5 L-12,3 L-12,2 Z " fill="#F5FCFA" transform="translate(462,672)"/>
<path d="M0,0 L10,2 L26,5 L26,6 L20,8 L16,9 L9,8 L9,5 L0,2 Z " fill="#DEF1F6" transform="translate(426,622)"/>
<path d="M0,0 L3,3 L8,11 L4,15 L3,24 L1,23 L1,6 Z " fill="#FAFDFD" transform="translate(303,530)"/>
<path d="M0,0 L2,2 L4,0 L7,6 L7,11 L5,11 L6,18 L2,13 L0,10 Z " fill="#FAFCF9" transform="translate(276,532)"/>
<path d="M0,0 L4,1 L13,4 L13,7 L19,6 L19,8 L27,8 L35,10 L35,11 L27,11 L11,8 L2,3 Z " fill="#D8F0F7" transform="translate(605,472)"/>
<path d="M0,0 L8,0 L17,3 L33,5 L36,7 L42,8 L42,9 L34,9 L7,3 L0,1 Z " fill="#3877AA" transform="translate(358,666)"/>
<path d="M0,0 L4,1 L7,2 L8,6 L26,7 L26,9 L10,8 L-4,5 L0,4 L0,2 L-3,1 Z " fill="#D5ECF4" transform="translate(488,610)"/>
<path d="M0,0 L4,4 L13,16 L11,17 L7,16 L5,14 L4,12 L0,10 L1,5 L-1,5 Z " fill="#2B75B0" transform="translate(357,528)"/>
<path d="M0,0 L3,1 L3,6 L2,10 L0,10 L1,17 L-3,15 L-9,10 L-6,8 L-2,8 L-2,6 L0,6 Z " fill="#1D72B8" transform="translate(425,551)"/>
<path d="M0,0 L2,0 L3,5 L8,6 L10,9 L10,21 L7,17 L0,3 Z " fill="#EBF8FA" transform="translate(334,485)"/>
<path d="M0,0 L1,0 L7,30 L7,32 L4,32 L3,18 L1,18 L0,16 L-1,7 L-2,3 Z " fill="#497EA6" transform="translate(243,448)"/>
<path d="M0,0 L14,2 L43,2 L43,3 L27,5 L15,5 L3,4 Z " fill="#D8F4FB" transform="translate(605,569)"/>
<path d="M0,0 L2,0 L2,9 L3,15 L-4,15 L-5,17 L-6,13 Z " fill="#EBF5F8" transform="translate(468,433)"/>
<path d="M0,0 L5,0 L3,2 L-6,5 L-22,12 L-24,12 L-24,9 L-21,7 L-16,4 L-6,2 Z " fill="#2D71A6" transform="translate(552,358)"/>
<path d="M0,0 L3,0 L3,7 L-16,9 L-16,7 L-5,5 L-13,5 L-11,3 Z " fill="#FBFBF4" transform="translate(573,353)"/>
<path d="M0,0 L7,1 L5,3 L9,3 L10,7 L11,10 L2,7 L-7,2 L-7,1 L0,1 Z " fill="#F2FBFC" transform="translate(367,617)"/>
<path d="M0,0 L5,5 L19,19 L23,23 L20,24 L20,21 L15,19 L12,15 L7,12 L2,8 Z " fill="#D6EFF9" transform="translate(322,555)"/>
<path d="M0,0 L8,1 L10,5 L14,6 L14,8 L23,10 L24,15 L18,13 L3,3 Z " fill="#377CAD" transform="translate(296,634)"/>
<path d="M0,0 L1,0 L1,11 L-2,14 L-2,21 L-3,24 L-6,24 L-7,26 L-6,18 L-1,1 Z " fill="#DDF2F6" transform="translate(461,450)"/>
<path d="M0,0 L2,3 L11,19 L10,21 L2,20 L2,17 L4,14 L4,10 L1,10 L0,4 Z " fill="#E8F6FA" transform="translate(292,509)"/>
<path d="M0,0 L2,0 L2,9 L4,12 L2,18 L-2,17 L-3,12 L-1,1 Z " fill="#1774BE" transform="translate(457,428)"/>
<path d="M0,0 L6,1 L10,5 L14,7 L14,10 L8,8 L-2,3 L-10,3 L-10,1 Z " fill="#E5F7FC" transform="translate(552,325)"/>
<path d="M0,0 L4,5 L5,8 L7,9 L7,11 L10,11 L10,20 L7,20 L6,16 L6,13 L1,12 L0,5 L-1,3 Z " fill="#F6F9F7" transform="translate(225,555)"/>
<path d="M0,0 L3,1 L1,5 L1,9 L3,10 L3,12 L-1,12 L-2,15 L-5,14 L-4,10 L-8,8 L-1,3 Z " fill="#F6FDFC" transform="translate(685,448)"/>
<path d="M0,0 L2,1 L-3,7 L-5,7 L-6,12 L-10,12 L-10,15 L-17,16 L-11,9 Z " fill="#3779B1" transform="translate(507,349)"/>
<path d="M0,0 L2,0 L3,5 L-4,5 L-5,8 L-12,9 L-22,9 L-22,8 L-8,4 Z " fill="#D9EEF6" transform="translate(670,562)"/>
<path d="M0,0 L3,3 L-7,7 L-18,13 L-20,13 L-18,9 L-16,8 L-17,4 L-14,4 L-12,6 L-7,4 Z " fill="#D6F0F6" transform="translate(590,524)"/>
<path d="M0,0 L3,3 L5,15 L7,21 L7,32 L5,28 L0,4 Z " fill="#E2F8FD" transform="translate(245,454)"/>
<path d="M0,0 L2,1 L-4,21 L-7,43 L-8,43 L-8,33 L-5,13 L-3,10 L-2,3 Z " fill="#C8E8F4" transform="translate(353,349)"/>
<path d="M0,0 L12,1 L12,4 L2,4 L2,7 L-4,9 L-4,6 L-1,5 L-1,2 L-4,1 Z " fill="#EFF8F7" transform="translate(540,322)"/>
<path d="M0,0 L3,0 L3,2 L-5,5 L-8,7 L-17,8 L-18,10 L-24,9 L-22,7 Z " fill="#3B7AA9" transform="translate(400,310)"/>
<path d="M0,0 L2,1 L-1,6 L-13,6 L-23,5 L-23,4 L-8,2 Z " fill="#3070A5" transform="translate(649,545)"/>
<path d="M0,0 L5,5 L12,15 L16,20 L16,22 L13,22 L13,20 L10,21 L8,15 L8,13 L5,12 L0,2 Z " fill="#D6EEF9" transform="translate(799,496)"/>
<path d="M0,0 L30,0 L30,2 L2,3 L0,5 Z " fill="#4C7BA0" transform="translate(751,427)"/>
<path d="M0,0 L6,1 L8,2 L8,6 L2,5 L2,3 L-3,4 L-7,6 L-16,7 L-12,4 L-9,2 Z " fill="#2774AF" transform="translate(540,331)"/>
<path d="M0,0 L5,2 L18,10 L16,11 L3,7 L0,4 Z " fill="#3473A8" transform="translate(469,586)"/>
<path d="M0,0 L2,0 L5,5 L9,8 L11,13 L12,15 L14,14 L16,11 L15,17 L19,22 L17,22 L16,24 L10,16 L0,1 Z " fill="#397AB4" transform="translate(241,576)"/>
<path d="M0,0 L2,4 L3,9 L1,13 L-4,12 L-4,14 L-7,14 L-5,9 Z " fill="#F7FAF1" transform="translate(476,418)"/>
<path d="M0,0 L3,1 L-1,7 L-13,23 L-16,25 L-14,19 L-11,17 L-8,11 L-6,10 L-5,7 L-2,4 Z " fill="#3D76A6" transform="translate(866,470)"/>
<path d="M0,0 L5,2 L5,4 L9,5 L9,8 L2,9 L-7,3 L-5,2 L0,4 Z " fill="#FDFAF5" transform="translate(471,579)"/>
<path d="M0,0 L5,5 L9,10 L9,12 L12,13 L18,21 L13,20 L10,18 L8,13 L5,12 L2,5 L-1,1 Z " fill="#CFEFF3" transform="translate(380,524)"/>
<path d="M0,0 L1,4 L2,7 L7,9 L9,16 L11,21 L9,22 L5,16 L-1,7 L-3,1 Z " fill="#DFF4FB" transform="translate(347,505)"/>
<path d="M0,0 L5,3 L7,7 L7,16 L4,23 L3,19 L4,14 L2,5 L0,3 Z " fill="#D4ECF6" transform="translate(657,515)"/>
<path d="M0,0 L9,3 L23,8 L28,9 L28,10 L17,10 L9,6 L5,5 L5,3 L0,2 Z " fill="#D9F4FA" transform="translate(454,586)"/>
<path d="M0,0 L4,5 L5,9 L8,12 L9,17 L6,18 L3,14 L2,10 L-1,8 Z " fill="#F3FDFA" transform="translate(376,518)"/>
<path d="M0,0 L8,0 L5,2 L-13,5 L-22,5 L-21,3 L-11,1 Z " fill="#DEF3FB" transform="translate(501,640)"/>
<path d="M0,0 L3,1 L4,3 L8,4 L15,9 L15,10 L8,10 L8,8 L-2,5 L-1,1 Z " fill="#F5FCF9" transform="translate(339,575)"/>
<path d="M0,0 L1,4 L-2,5 L-5,11 L-9,15 L-13,20 L-16,19 L-6,6 L-3,2 L0,2 Z " fill="#DFF3FA" transform="translate(871,470)"/>
<path d="M0,0 L4,2 L4,4 L6,4 L8,11 L7,13 L3,14 L0,4 Z " fill="#F6FBF4" transform="translate(391,470)"/>
<path d="M0,0 L2,4 L3,7 L8,7 L9,10 L3,11 L2,14 L0,8 L-3,12 L-3,6 Z " fill="#FDFCF1" transform="translate(605,455)"/>
<path d="M0,0 L2,0 L0,4 L-5,6 L-6,9 L-9,9 L-9,11 L-5,10 L-2,13 L-3,14 L-9,14 L-9,12 L-12,11 L-10,7 Z " fill="#2070AE" transform="translate(522,338)"/>
<path d="M0,0 L7,0 L5,4 L4,2 L0,2 L-1,5 L-6,6 L-19,7 L-16,5 L-3,1 Z " fill="#3D7AA5" transform="translate(422,303)"/>
<path d="M0,0 L1,2 L-2,8 L-4,8 L-6,16 L-7,19 L-10,20 L-14,24 L-12,18 L-5,7 Z " fill="#DFF3F6" transform="translate(463,362)"/>
<path d="M0,0 L6,1 L9,4 L9,6 L14,7 L14,9 L16,9 L15,13 L11,11 L0,1 Z " fill="#D6EEF4" transform="translate(387,562)"/>
<path d="M0,0 L1,0 L1,16 L-2,17 L-2,32 L-4,31 L-3,16 Z " fill="#3F7DAB" transform="translate(227,496)"/>
<path d="M0,0 L4,4 L14,18 L15,20 L12,20 L11,16 L9,16 L5,11 L2,11 L0,2 Z " fill="#DAEEF8" transform="translate(783,474)"/>
<path d="M0,0 L2,1 L-7,8 L-17,14 L-18,11 L-13,10 L-13,8 L-10,8 L-10,5 L-6,3 L-6,1 Z " fill="#3576A8" transform="translate(554,632)"/>
<path d="M0,0 L1,0 L3,17 L4,22 L4,30 L2,30 L0,20 Z " fill="#CEEAF8" transform="translate(344,420)"/>
<path d="M0,0 L1,4 L1,8 L3,8 L2,18 L-1,18 L-3,14 L-2,7 Z " fill="#F9FDF2" transform="translate(436,414)"/>
<path d="M0,0 L3,0 L3,2 L7,3 L14,7 L10,9 L6,8 L6,6 L0,5 L-1,1 Z " fill="#FBFAEE" transform="translate(285,631)"/>
<path d="M0,0 L6,1 L3,10 L0,15 L-1,15 Z " fill="#EBF9FA" transform="translate(236,448)"/>
<path d="M0,0 L8,6 L16,12 L18,14 L10,13 L5,7 L2,9 L1,4 L-1,2 Z " fill="#D9F2F8" transform="translate(278,620)"/>
<path d="M0,0 L4,1 L9,3 L11,8 L4,8 L4,5 L1,6 L0,5 Z " fill="#F5FCF8" transform="translate(268,616)"/>
<path d="M0,0 L6,0 L7,2 L14,3 L13,6 L17,6 L17,8 L19,8 L19,10 L10,7 L8,6 L8,4 L3,3 Z " fill="#D9EDF3" transform="translate(426,591)"/>
<path d="M0,0 L2,0 L2,2 L7,2 L9,5 L9,7 L11,8 L10,11 L5,9 L1,5 Z " fill="#F7FBF8" transform="translate(439,556)"/>
<path d="M0,0 L1,0 L2,6 L4,6 L7,19 L7,24 L5,21 L0,7 L-1,1 Z " fill="#E6F7FC" transform="translate(327,461)"/>
<path d="M0,0 L1,2 L4,2 L4,4 L2,4 L2,20 L5,21 L1,23 L0,23 Z " fill="#3674A3" transform="translate(969,428)"/>
<path d="M0,0 L6,0 L14,4 L11,5 L9,4 L0,4 L-7,6 L-11,5 Z " fill="#3E7AA6" transform="translate(544,327)"/>
<path d="M0,0 L6,1 L4,3 L-4,5 L-4,7 L-6,7 L-8,12 L-10,8 L-6,6 L-7,2 Z " fill="#E5F5F9" transform="translate(372,316)"/>
<path d="M0,0 L7,5 L7,9 L10,9 L10,12 L15,13 L12,14 L11,16 L9,15 L7,11 L4,9 L5,6 L0,5 Z " fill="#F8FCFB" transform="translate(583,488)"/>
<path d="M0,0 L2,3 L7,18 L6,20 L0,15 Z " fill="#E1F3F4" transform="translate(280,478)"/>
<path d="M0,0 L1,0 L6,22 L5,26 L2,23 L3,15 L1,15 L0,12 Z " fill="#CAE7F4" transform="translate(274,452)"/>
<path d="M0,0 L5,1 L14,8 L15,12 L12,13 L10,9 L5,4 L3,3 L3,5 L1,5 L-2,1 Z " fill="#3470A2" transform="translate(664,431)"/>
<path d="M0,0 L6,1 L23,7 L28,9 L28,10 L22,10 L22,8 L14,7 L0,2 Z " fill="#33719E" transform="translate(382,630)"/>
<path d="M0,0 L3,1 L-9,12 L-13,15 L-13,10 L-9,10 L-8,6 L-6,6 L-6,2 L0,2 Z " fill="#D6EFF8" transform="translate(307,358)"/>
<path d="M0,0 L2,0 L0,4 L-1,6 L-8,8 L-9,9 L-15,9 L-10,5 Z " fill="#D4EDF5" transform="translate(534,647)"/>
<path d="M0,0 L5,1 L13,10 L11,14 L8,11 L5,6 L5,3 L1,4 Z " fill="#2C70A7" transform="translate(673,496)"/>
<path d="M0,0 L2,3 L4,24 L1,24 L0,16 Z " fill="#417CAB" transform="translate(427,480)"/>
<path d="M0,0 L3,1 L-7,6 L-12,6 L-15,8 L-16,2 L-11,2 L-10,3 Z " fill="#F9FBFB" transform="translate(527,334)"/>
<path d="M0,0 L2,4 L-5,12 L-7,15 L-10,13 Z " fill="#D8EEF6" transform="translate(853,492)"/>
<path d="M0,0 L2,3 L3,8 L5,9 L5,14 L7,15 L4,15 L-4,4 L-5,2 L-1,1 Z " fill="#D9F4FB" transform="translate(805,451)"/>
<path d="M0,0 L0,3 L-2,7 L-6,9 L-6,12 L-8,11 L-8,13 L-15,15 L-9,8 Z " fill="#D6F2F7" transform="translate(505,386)"/>
<path d="M0,0 L8,0 L5,2 L-11,7 L-14,6 L-10,3 L-3,1 Z " fill="#DAF2F9" transform="translate(392,310)"/>
<path d="M0,0 L1,3 L3,3 L3,10 L-2,9 L-5,4 L-5,2 L-2,1 L-2,3 L0,3 Z " fill="#EEF7F4" transform="translate(598,525)"/>
<path d="M0,0 L3,0 L5,18 L3,22 L0,4 Z " fill="#D9F3F9" transform="translate(387,448)"/>
<path d="M0,0 L4,2 L6,3 L6,5 L8,5 L8,9 L11,9 L12,13 L10,15 L4,7 L0,2 Z " fill="#E4F6FB" transform="translate(673,432)"/>
<path d="M0,0 L10,2 L14,4 L14,7 L9,7 L4,5 L4,3 L0,2 Z " fill="#2B74AC" transform="translate(368,625)"/>
<path d="M0,0 L5,1 L6,3 L11,4 L15,9 L17,10 L17,12 L21,13 L21,15 L16,13 L3,3 Z " fill="#3D7CA7" transform="translate(347,579)"/>
<path d="M0,0 L6,0 L12,1 L14,2 L16,7 L12,7 L0,1 Z " fill="#CFECF5" transform="translate(662,488)"/>
<path d="M0,0 L6,1 L7,10 L5,10 L5,8 L0,7 Z " fill="#196FC0" transform="translate(804,470)"/>
<path d="M0,0 L1,0 L0,7 L-3,8 L-3,10 L-6,13 L-10,17 L-12,16 L-8,11 Z " fill="#3070A4" transform="translate(858,442)"/>
<path d="M0,0 L3,1 L-7,14 L-11,18 L-10,13 L-5,5 L-2,5 Z " fill="#3778A6" transform="translate(487,400)"/>
<path d="M0,0 L6,0 L6,2 L-2,4 L-12,4 L-15,2 Z " fill="#3C77AA" transform="translate(492,643)"/>
<path d="M0,0 L7,4 L14,9 L12,11 L9,11 L9,8 L6,8 L6,6 L0,7 L1,3 Z " fill="#DDF1F8" transform="translate(354,585)"/>
<path d="M0,0 L5,2 L9,8 L12,11 L13,17 L8,12 L0,1 Z " fill="#D8F2F9" transform="translate(357,527)"/>
<path d="M0,0 L2,3 L8,17 L8,19 L6,19 L2,11 L-1,7 Z " fill="#3C7CAC" transform="translate(330,477)"/>
<path d="M0,0 L31,0 L31,1 L0,2 L1,5 L-4,4 Z " fill="#467FA6" transform="translate(460,303)"/>
<path d="M0,0 L2,0 L4,4 L6,5 L7,9 L5,9 L6,15 L8,16 L6,19 L0,3 Z " fill="#DEF3F9" transform="translate(395,485)"/>
<path d="M0,0 L1,2 L-3,10 L-5,10 L-7,15 L-7,17 L-12,17 L-5,6 Z " fill="#D5EFF9" transform="translate(489,401)"/>
<path d="M0,0 L5,2 L4,6 L-1,7 L-6,6 L-1,1 Z " fill="#FAF9F3" transform="translate(512,380)"/>
<path d="M0,0 L5,1 L8,3 L1,7 L-6,8 L-6,6 L-3,4 L1,4 L1,2 L-1,1 Z " fill="#2674AF" transform="translate(520,368)"/>
<path d="M0,0 L2,0 L-2,21 L-3,21 L-3,5 L-5,4 Z " fill="#417FA7" transform="translate(324,347)"/>
<path d="M0,0 L2,4 L0,4 L0,11 L-4,12 L-5,15 L-7,14 L-5,9 Z " fill="#DBF2F7" transform="translate(411,330)"/>
<path d="M0,0 L2,0 L1,4 L-5,19 L-6,19 L-5,11 L-2,2 L0,2 Z " fill="#DDF6FB" transform="translate(361,328)"/>
<path d="M0,0 L2,1 L-8,10 L-12,11 L-12,6 Z " fill="#3C749B" transform="translate(574,616)"/>
<path d="M0,0 L2,0 L5,11 L6,14 L8,14 L8,19 L4,14 L-1,5 Z " fill="#2B71A7" transform="translate(233,557)"/>
<path d="M0,0 L4,0 L4,3 L6,3 L7,7 L12,9 L14,10 L14,15 L7,9 L0,1 Z " fill="#CFEFF5" transform="translate(370,544)"/>
<path d="M0,0 L3,4 L7,12 L7,15 L1,16 L1,14 L3,14 L3,8 L1,8 Z " fill="#3478AC" transform="translate(401,504)"/>
<path d="M0,0 L2,3 L6,12 L5,15 L1,14 L0,9 Z " fill="#E1F6F9" transform="translate(419,505)"/>
<path d="M0,0 L1,4 L-1,5 L-4,11 L-7,13 L-9,18 L-12,16 L-6,8 Z " fill="#D0ECF6" transform="translate(840,509)"/>
<path d="M0,0 L8,1 L9,12 L4,7 Z " fill="#E0F5F9" transform="translate(791,440)"/>
<path d="M0,0 L6,2 L9,5 L9,7 L11,7 L11,9 L4,7 L0,2 Z " fill="#1676C4" transform="translate(277,611)"/>
<path d="M0,0 L10,5 L17,9 L13,10 L3,5 L3,3 L0,2 Z " fill="#D5F1F9" transform="translate(368,595)"/>
<path d="M0,0 L2,0 L2,2 L7,3 L7,6 L9,6 L8,10 L10,10 L11,7 L12,9 L10,13 L5,8 L0,1 Z " fill="#D7EFF5" transform="translate(282,550)"/>
<path d="M0,0 L5,5 L11,13 L7,14 L7,11 L5,11 L5,9 L3,9 L0,2 Z " fill="#D7F0F9" transform="translate(311,542)"/>
<path d="M0,0 L5,5 L7,8 L12,9 L12,11 L5,11 L2,9 L2,7 L0,6 L0,2 Z " fill="#DFF2F8" transform="translate(815,518)"/>
<path d="M0,0 L4,4 L9,11 L8,14 L4,13 L3,7 L0,6 Z " fill="#3171A9" transform="translate(815,474)"/>
<path d="M0,0 L5,0 L10,2 L11,5 L14,8 L11,9 L0,1 Z " fill="#E3F5F9" transform="translate(402,575)"/>
<path d="M0,0 L2,1 L6,19 L6,22 L4,22 L2,17 L0,6 Z " fill="#3F79A2" transform="translate(387,458)"/>
<path d="M0,0 L4,1 L7,8 L7,18 L6,18 L4,9 L2,8 L1,3 Z " fill="#F5FEFE" transform="translate(242,446)"/>
<path d="M0,0 L7,0 L3,2 L-9,5 L-16,8 L-15,4 L-6,2 Z " fill="#D5EFF9" transform="translate(613,423)"/>
<path d="M0,0 L1,4 L-1,9 L-4,10 L-5,15 L-8,22 L-10,22 L-8,16 Z " fill="#3F79A3" transform="translate(433,336)"/>
<path d="M0,0 L4,2 L5,5 L7,5 L8,10 L11,10 L11,15 L6,10 L0,1 Z " fill="#3375A4" transform="translate(374,514)"/>
<path d="M0,0 L5,2 L4,5 L4,3 L2,3 L0,10 L-3,13 L-5,13 L-3,7 L-1,7 Z " fill="#EFF6F9" transform="translate(842,506)"/>
<path d="M0,0 L2,1 L3,3 L-2,3 L-1,8 L-10,8 L-12,6 Z " fill="#CFE7F1" transform="translate(676,455)"/>
<path d="M0,0 L2,3 L0,19 L-2,19 L-3,23 L-2,9 Z " fill="#C4E6F3" transform="translate(432,429)"/>
<path d="M0,0 L2,0 L0,5 L-1,8 L-3,8 L-3,10 L-8,9 L-7,6 L-5,6 L-3,1 L-2,4 Z " fill="#3376AD" transform="translate(868,431)"/>
<path d="M0,0 L6,0 L7,3 L6,5 L-2,5 L-2,1 Z " fill="#FCFCF0" transform="translate(301,355)"/>
<path d="M0,0 L7,0 L9,1 L9,3 L5,4 L1,7 L1,5 L-2,5 L-2,2 L0,2 Z " fill="#1E74B4" transform="translate(506,308)"/>
<path d="M0,0 L19,0 L16,2 L4,3 L4,1 L-3,2 Z " fill="#387AAB" transform="translate(504,626)"/>
<path d="M0,0 L5,1 L6,2 L6,8 L1,7 Z " fill="#1576C4" transform="translate(262,594)"/>
<path d="M0,0 L3,4 L5,16 L2,13 L-1,8 Z " fill="#44779F" transform="translate(434,526)"/>
<path d="M0,0 L15,7 L14,9 L5,7 L3,6 L3,3 L0,3 Z " fill="#DFF4FA" transform="translate(590,494)"/>
<path d="M0,0 L4,2 L6,1 L6,7 L11,8 L13,13 L9,11 L2,5 Z " fill="#3678A3" transform="translate(581,483)"/>
<path d="M0,0 L15,0 L18,1 L18,3 L23,3 L25,6 L14,3 L0,1 Z " fill="#3E75A4" transform="translate(628,445)"/>
<path d="M0,0 L33,0 L32,4 L30,2 L0,1 Z " fill="#DFF8FC" transform="translate(751,426)"/>
<path d="M0,0 L1,0 L0,7 L-1,9 L-4,9 L-5,13 L-7,12 L-6,8 Z " fill="#3A7DB0" transform="translate(280,388)"/>
<path d="M0,0 L1,4 L-2,21 L-3,21 L-4,15 L-5,13 Z " fill="#387CB3" transform="translate(420,363)"/>
<path d="M0,0 L1,4 L-3,6 L-2,9 L1,10 L0,12 L-5,10 L-7,8 Z " fill="#DBF4F4" transform="translate(479,343)"/>
<path d="M0,0 L2,1 L-4,11 L-7,18 L-9,14 L-7,10 L-4,5 L-2,5 L-1,1 Z " fill="#D7F0F9" transform="translate(433,334)"/>
<path d="M0,0 L2,0 L1,16 L-1,16 L-1,2 Z " fill="#E1F8FC" transform="translate(222,512)"/>
<path d="M0,0 L1,0 L3,10 L2,14 L1,9 L-2,9 L-3,12 L-3,5 Z " fill="#4382BA" transform="translate(431,507)"/>
<path d="M0,0 L4,1 L-6,14 L-8,13 L-2,4 Z " fill="#3A759F" transform="translate(846,496)"/>
<path d="M0,0 L2,0 L3,8 L3,18 L1,16 L0,12 Z " fill="#E0F7FC" transform="translate(271,440)"/>
<path d="M0,0 L1,0 L3,21 L-1,17 Z " fill="#3C7BAE" transform="translate(385,435)"/>
<path d="M0,0 L2,1 L2,2 L7,2 L7,6 L0,6 L-3,2 Z " fill="#ECF3F1" transform="translate(309,577)"/>
<path d="M0,0 L7,0 L9,4 L8,5 L2,5 L2,3 L0,3 Z " fill="#1576C3" transform="translate(343,568)"/>
<path d="M0,0 L7,4 L14,9 L12,11 L7,9 L5,6 L2,5 Z " fill="#DAF4FB" transform="translate(419,564)"/>
<path d="M0,0 L2,4 L5,13 L7,17 L5,17 L5,15 L3,15 L1,11 L-1,10 Z " fill="#D1EBF6" transform="translate(576,470)"/>
<path d="M0,0 L2,0 L3,11 L1,13 L-2,10 Z " fill="#1976C0" transform="translate(240,459)"/>
<path d="M0,0 L1,0 L1,6 L-2,9 L-7,8 L-3,2 Z " fill="#E3F7FC" transform="translate(487,335)"/>
<path d="M0,0 L5,0 L3,2 L-10,7 L-12,7 L-12,5 L-7,2 Z " fill="#D8F1F8" transform="translate(548,626)"/>
<path d="M0,0 L11,0 L13,2 L5,4 L1,3 Z " fill="#367AB1" transform="translate(525,622)"/>
<path d="M0,0 L5,2 L13,8 L16,11 L11,10 L9,9 L9,7 L4,5 L2,4 L2,2 L0,2 Z " fill="#3876A1" transform="translate(400,575)"/>
<path d="M0,0 L1,0 L2,23 L0,23 L-2,20 L-1,17 Z " fill="#C6E1E9" transform="translate(222,528)"/>
<path d="M0,0 L3,4 L2,17 L0,18 Z " fill="#3D7395" transform="translate(450,470)"/>
<path d="M0,0 L11,2 L21,6 L18,8 L12,5 L1,2 Z " fill="#41769E" transform="translate(645,424)"/>
<path d="M0,0 L7,0 L4,3 L-5,7 L-7,7 L-6,4 L-2,4 L-2,1 Z " fill="#DBF4FB" transform="translate(561,619)"/>
<path d="M0,0 L1,0 L2,14 L6,21 L5,23 L1,20 L0,17 Z " fill="#2F739D" transform="translate(223,527)"/>
<path d="M0,0 L3,3 L5,5 L6,5 L6,10 L1,10 L0,6 Z " fill="#E4F0F1" transform="translate(434,536)"/>
<path d="M0,0 L3,3 L8,11 L6,13 L6,11 L2,10 L0,4 Z " fill="#DCF1FA" transform="translate(303,530)"/>
<path d="M0,0 L1,2 L-1,6 L-3,10 L-7,12 L-8,5 L-4,7 L-1,1 Z " fill="#256FAD" transform="translate(840,504)"/>
<path d="M0,0 L3,4 L8,13 L6,17 L0,4 Z " fill="#417DA8" transform="translate(338,496)"/>
<path d="M0,0 L7,0 L6,5 L3,6 L0,4 Z " fill="#FBFCF1" transform="translate(674,458)"/>
<path d="M0,0 L2,1 L-2,10 L-6,22 L-7,22 L-6,13 Z " fill="#427AA1" transform="translate(465,436)"/>
<path d="M0,0 L1,0 L2,6 L-2,10 L-5,16 L-7,16 L-5,10 Z " fill="#3B78A6" transform="translate(468,394)"/>
<path d="M0,0 L2,0 L1,5 L-3,19 L-4,19 L-4,10 Z " fill="#D7F2FB" transform="translate(417,365)"/>
<path d="M0,0 L3,0 L3,3 L1,4 L-13,5 L-11,3 Z " fill="#C8E4F1" transform="translate(573,353)"/>
<path d="M0,0 L4,1 L1,2 L1,5 L-2,5 L-2,7 L-6,9 L-6,6 L-5,3 Z " fill="#2571AC" transform="translate(374,319)"/>
<path d="M0,0 L1,0 L1,9 L-1,11 L-1,9 L-6,10 L-1,1 Z " fill="#D6EDEF" transform="translate(423,311)"/>
<path d="M0,0 L7,2 L7,5 L12,7 L12,9 L7,7 L-1,2 Z " fill="#3775A9" transform="translate(369,593)"/>
<path d="M0,0 L3,4 L8,15 L8,17 L4,15 L2,5 L0,5 Z " fill="#C5E6F2" transform="translate(360,488)"/>
<path d="M0,0 L4,4 L6,7 L5,11 L1,14 L-1,13 L-2,11 L4,10 L2,4 L0,4 Z " fill="#4178A4" transform="translate(679,441)"/>
<path d="M0,0 L3,0 L5,2 L0,7 L-4,13 L-5,11 L-2,2 L0,2 Z " fill="#D8F0F7" transform="translate(584,435)"/>
<path d="M0,0 L2,1 L-6,16 L-7,12 L-3,2 Z " fill="#D6F2FA" transform="translate(470,388)"/>
<path d="M0,0 L1,0 L1,11 L-2,14 L-3,13 L-3,7 L-2,5 L0,5 Z " fill="#EAFAFC" transform="translate(392,379)"/>
<path d="M0,0 L3,0 L3,5 L1,5 L-1,14 L-3,15 L-1,2 Z " fill="#2774AB" transform="translate(422,358)"/>
<path d="M0,0 L1,3 L-1,7 L-6,8 L-10,9 L-5,4 Z " fill="#D9F2F9" transform="translate(567,624)"/>
<path d="M0,0 L2,0 L3,4 L6,5 L7,9 L3,7 L-3,2 Z " fill="#327AB2" transform="translate(419,559)"/>
<path d="M0,0 L3,3 L7,11 L5,13 L-1,2 Z " fill="#DCF3FA" transform="translate(270,527)"/>
<path d="M0,0 L2,3 L7,12 L5,16 L4,10 L1,10 L0,4 Z " fill="#DAF0F7" transform="translate(292,509)"/>
<path d="M0,0 L3,4 L8,13 L4,12 L1,7 L1,5 L-2,5 L-1,2 Z " fill="#DEF2F6" transform="translate(368,505)"/>
<path d="M0,0 L5,1 L6,9 L8,10 L6,12 Z " fill="#3A79AE" transform="translate(367,502)"/>
<path d="M0,0 L3,4 L3,9 L5,9 L6,19 L4,16 L1,7 Z " fill="#3474A3" transform="translate(414,486)"/>
<path d="M0,0 L3,0 L3,2 L11,2 L19,4 L19,5 L11,5 L-1,3 Z " fill="#CDE8F4" transform="translate(621,478)"/>
<path d="M0,0 L1,3 L4,4 L4,8 L2,8 L1,17 L0,17 Z " fill="#1E71B3" transform="translate(410,399)"/>
<path d="M0,0 L1,0 L1,7 L-1,7 L-1,20 L-3,16 L-3,7 Z " fill="#2F71A6" transform="translate(416,377)"/>
<path d="M0,0 L6,0 L6,2 L4,3 L-12,3 L-12,2 Z " fill="#C8E4F0" transform="translate(462,672)"/>
<path d="M0,0 L3,3 L8,12 L3,12 L3,8 L1,7 Z " fill="#D0EAF6" transform="translate(235,568)"/>
<path d="M0,0 L2,4 L1,12 L-1,15 L-3,15 L-1,4 Z " fill="#D6E9EF" transform="translate(453,476)"/>
<path d="M0,0 L3,0 L4,4 L4,15 L2,11 Z " fill="#CDE8F3" transform="translate(248,471)"/>
<path d="M0,0 L4,2 L5,5 L7,5 L7,7 L1,7 L-1,1 Z " fill="#ECF8FC" transform="translate(659,457)"/>
<path d="M0,0 L1,0 L1,20 L3,20 L3,24 L0,24 Z " fill="#EBFEFF" transform="translate(1085,428)"/>
<path d="M0,0 L5,0 L3,2 L-6,5 L-12,7 L-13,4 Z " fill="#4780A7" transform="translate(552,358)"/>
<path d="M0,0 L8,0 L7,4 L11,4 L11,6 L5,5 L2,3 L2,1 Z " fill="#327BAC" transform="translate(413,615)"/>
<path d="M0,0 L4,0 L4,9 L1,8 Z " fill="#2470B5" transform="translate(242,480)"/>
<path d="M0,0 L2,4 L-4,8 L-6,5 L-6,2 Z " fill="#E1F2F4" transform="translate(318,347)"/>
<path d="M0,0 L1,0 L3,9 L-5,8 L-2,3 Z " fill="#DFF3F9" transform="translate(429,303)"/>
<path d="M0,0 L4,1 L11,5 L9,6 L-2,3 L-2,1 Z " fill="#54809A" transform="translate(476,591)"/>
<path d="M0,0 L6,1 L8,4 L8,7 L10,8 L3,7 L5,5 Z " fill="#2D73AE" transform="translate(581,552)"/>
<path d="M0,0 L2,0 L2,2 L4,2 L9,12 L8,15 L0,1 Z " fill="#DAF4FC" transform="translate(407,515)"/>
<path d="M0,0 L3,1 L4,5 L6,5 L8,9 L6,11 L0,3 Z " fill="#346E9D" transform="translate(778,464)"/>
<path d="M0,0 L2,4 L3,18 L1,18 L0,16 Z " fill="#2570AC" transform="translate(386,454)"/>
<path d="M0,0 L1,4 L-3,12 L-4,14 L-7,14 L-5,9 Z " fill="#C6EAF5" transform="translate(476,418)"/>
<path d="M0,0 L12,5 L8,7 L-1,2 Z " fill="#4282B1" transform="translate(448,580)"/>
<path d="M0,0 L2,0 L5,5 L9,8 L10,14 L6,10 L0,1 Z " fill="#3172A2" transform="translate(241,576)"/>
<path d="M0,0 L5,1 L20,2 L20,3 L8,4 L0,3 Z " fill="#4A7CA8" transform="translate(616,546)"/>
<path d="M0,0 L1,0 L1,8 L-2,9 L-2,11 L-4,11 L-4,13 L-6,12 Z " fill="#CEECF7" transform="translate(688,540)"/>
<path d="M0,0 L4,1 L6,11 L4,11 L4,6 L0,5 Z " fill="#FAFBF1" transform="translate(656,519)"/>
<path d="M0,0 L5,5 L6,8 L3,9 L0,5 L0,3 L-2,3 L-1,1 Z " fill="#3F78A5" transform="translate(809,466)"/>
<path d="M0,0 L4,0 L3,8 L1,12 L0,8 Z " fill="#DCF1F5" transform="translate(451,424)"/>
<path d="M0,0 L2,0 L1,4 L-5,7 L-7,8 L-9,6 Z " fill="#D2F1F9" transform="translate(523,373)"/>
<path d="M0,0 L2,0 L0,6 L-3,13 L-4,13 L-4,6 L-3,4 L-1,4 Z " fill="#DAF4FB" transform="translate(423,352)"/>
<path d="M0,0 L1,0 L1,9 L0,6 L-5,8 L-3,1 Z " fill="#1771B4" transform="translate(321,351)"/>
<path d="M0,0 L4,0 L1,10 L-1,12 L-1,1 Z " fill="#2776B4" transform="translate(412,318)"/>
<path d="M0,0 L5,0 L6,2 L3,2 L3,4 L-4,4 L-3,1 Z " fill="#2973A8" transform="translate(522,637)"/>
<path d="M0,0 L4,0 L8,5 L5,6 L-1,3 Z " fill="#E0F5FA" transform="translate(353,612)"/>
<path d="M0,0 L7,2 L8,0 L9,4 L12,5 L9,7 L0,1 Z " fill="#D5EFF7" transform="translate(464,581)"/>
<path d="M0,0 L4,0 L4,2 L6,3 L2,6 L-1,5 Z " fill="#FCF9F4" transform="translate(569,529)"/>
<path d="M0,0 L3,0 L4,3 L3,7 L-3,9 L-1,5 L1,4 Z " fill="#E5F5FA" transform="translate(573,528)"/>
<path d="M0,0 L3,2 L4,9 L5,13 L3,14 L0,4 Z " fill="#CEEEF7" transform="translate(391,470)"/>
<path d="M0,0 L2,0 L2,3 L0,3 L0,5 L-8,6 L-5,2 Z " fill="#2B6BA1" transform="translate(595,433)"/>
<path d="M0,0 L6,0 L3,2 L-5,5 L-8,5 L-8,3 Z " fill="#417AA6" transform="translate(496,662)"/>
<path d="M0,0 L7,1 L6,4 L3,5 L-2,2 Z " fill="#E1F0F7" transform="translate(481,590)"/>
<path d="M0,0 L3,0 L3,4 L0,5 L-2,7 L-2,5 L-5,4 L-2,3 L-2,1 Z " fill="#2672B3" transform="translate(366,584)"/>
<path d="M0,0 L3,1 L6,4 L6,7 L8,7 L10,12 L3,6 L0,2 Z " fill="#32709D" transform="translate(315,545)"/>
<path d="M0,0 L5,0 L3,1 L4,6 L7,5 L8,8 L6,10 L6,7 L2,7 Z " fill="#F2F9F8" transform="translate(368,537)"/>
<path d="M0,0 L4,5 L6,10 L2,10 L0,6 Z " fill="#3878A8" transform="translate(272,535)"/>
<path d="M0,0 L4,5 L2,10 L-1,8 Z " fill="#E6F5F4" transform="translate(376,518)"/>
<path d="M0,0 L5,1 L5,10 L2,6 Z " fill="#DDF5FC" transform="translate(402,504)"/>
<path d="M0,0 L11,0 L15,2 L7,3 L0,1 Z " fill="#437DAA" transform="translate(605,501)"/>
<path d="M0,0 L4,0 L4,12 L2,9 Z " fill="#D9EFF5" transform="translate(253,489)"/>
<path d="M0,0 L2,0 L2,3 L-3,8 L-4,10 L-8,10 L-7,7 L-3,5 Z " fill="#276CAB" transform="translate(853,452)"/>
<path d="M0,0 L1,0 L3,8 L4,9 L3,17 L2,17 L0,8 Z " fill="#387DAA" transform="translate(348,442)"/>
<path d="M0,0 L4,2 L7,2 L8,7 L6,9 Z " fill="#D8ECF5" transform="translate(784,431)"/>
<path d="M0,0 L5,5 L9,11 L10,16 L8,15 L3,6 L0,2 Z " fill="#356E9A" transform="translate(784,432)"/>
<path d="M0,0 L1,4 L-1,4 L-1,7 L-6,10 L-8,9 Z " fill="#427CAF" transform="translate(289,378)"/>
<path d="M0,0 L2,1 L-3,3 L-4,7 L-7,11 L-9,11 L-7,6 L-6,4 L-4,4 L-4,2 Z " fill="#457EA6" transform="translate(372,319)"/>
<path d="M0,0 L2,1 L-1,4 L-5,4 L-5,6 L-9,6 L-9,4 Z " fill="#3778A4" transform="translate(551,627)"/>
<path d="M0,0 L5,0 L8,5 L7,8 L0,1 Z " fill="#DCF7FC" transform="translate(311,583)"/>
<path d="M0,0 L5,0 L8,4 L7,8 L0,1 Z " fill="#D5EFFB" transform="translate(432,552)"/>
<path d="M0,0 L6,2 L6,10 L2,5 Z " fill="#DAF1F9" transform="translate(276,540)"/>
<path d="M0,0 L1,0 L1,8 L3,8 L4,14 L1,13 L-1,7 Z " fill="#2F77B1" transform="translate(294,503)"/>
<path d="M0,0 L3,1 L6,8 L4,10 L-1,1 Z " fill="#E6F6FC" transform="translate(683,500)"/>
<path d="M0,0 L2,3 L6,9 L0,8 L-1,1 Z " fill="#3974A3" transform="translate(602,467)"/>
<path d="M0,0 L1,4 L-1,16 L-3,14 L-2,7 Z " fill="#C7E7F3" transform="translate(436,414)"/>
<path d="M0,0 L6,1 L1,6 L-2,8 L-2,5 L0,5 Z " fill="#3A7DAD" transform="translate(504,381)"/>
<path d="M0,0 L2,0 L0,5 L-4,12 L-5,10 L-4,5 L-2,5 L-1,1 Z " fill="#417CA8" transform="translate(454,372)"/>
<path d="M0,0 L5,0 L5,4 L-1,5 L-3,6 L-2,1 Z " fill="#E6F5F4" transform="translate(323,344)"/>
<path d="M0,0 L10,2 L13,4 L13,6 L4,4 L2,3 Z " fill="#2771A7" transform="translate(550,330)"/>
<path d="M0,0 L3,4 L3,6 L-1,7 L-2,9 L-4,9 L-2,3 Z " fill="#D5EDF5" transform="translate(416,321)"/>
<path d="M0,0 L3,1 L1,4 L-1,4 L-1,6 L-6,6 L-1,1 Z " fill="#D9F1F7" transform="translate(574,618)"/>
<path d="M0,0 L9,0 L15,3 L11,4 L0,1 Z " fill="#C4E6F3" transform="translate(469,610)"/>
<path d="M0,0 L2,0 L2,5 L-6,4 L-6,1 L0,1 Z " fill="#ECF4F5" transform="translate(486,595)"/>
<path d="M0,0 L4,4 L7,10 L5,10 L4,8 L1,7 L-1,2 Z " fill="#C8E7F4" transform="translate(243,580)"/>
<path d="M0,0 L9,6 L9,7 L2,7 L0,3 Z " fill="#DDF5FA" transform="translate(345,578)"/>
<path d="M0,0 L1,3 L-4,8 L-9,9 L-4,4 L-1,3 Z " fill="#C9E7F2" transform="translate(681,553)"/>
<path d="M0,0 L1,2 L-3,6 L-9,6 L-4,2 Z " fill="#3A7AA2" transform="translate(585,529)"/>
<path d="M0,0 L3,3 L6,8 L6,11 L4,11 L1,8 Z " fill="#D2ECF7" transform="translate(425,520)"/>
<path d="M0,0 L3,3 L3,5 L5,5 L6,11 L4,12 L0,3 Z " fill="#D5F1F8" transform="translate(261,510)"/>
<path d="M0,0 L2,0 L4,12 L1,12 Z " fill="#3D7AA8" transform="translate(246,468)"/>
<path d="M0,0 L2,0 L5,8 L5,12 L3,12 L0,3 Z " fill="#407FAB" transform="translate(351,460)"/>
<path d="M0,0 L4,0 L3,7 L0,7 Z " fill="#2070C7" transform="translate(467,420)"/>
<path d="M0,0 L2,1 L-3,7 L-8,9 L-6,5 Z " fill="#3071A2" transform="translate(507,349)"/>
<path d="M0,0 L2,0 L0,4 L-8,8 L-10,7 Z " fill="#437AA8" transform="translate(522,338)"/>
<path d="M0,0 L7,3 L7,6 L1,4 L-3,1 Z " fill="#CFE9F6" transform="translate(559,329)"/>
<path d="M0,0 L1,2 L3,3 L2,4 L4,6 L0,8 L-3,1 Z " fill="#3A7DB2" transform="translate(556,625)"/>
<path d="M0,0 L5,0 L3,2 L-2,4 L-6,4 L-6,1 Z " fill="#38729E" transform="translate(662,564)"/>
<path d="M0,0 L3,3 L4,9 L1,8 L1,6 L-1,6 Z " fill="#2B75AD" transform="translate(278,545)"/>
<path d="M0,0 L3,3 L6,8 L5,10 L2,10 Z " fill="#3C80B2" transform="translate(409,520)"/>
<path d="M0,0 L3,3 L1,8 L0,5 L-3,5 L-2,1 L0,2 Z " fill="#307EB3" transform="translate(353,522)"/>
<path d="M0,0 L2,2 L4,0 L3,9 L1,11 L0,8 L0,3 Z " fill="#3581C1" transform="translate(431,522)"/>
<path d="M0,0 L3,0 L6,4 L6,6 L3,6 L3,4 L0,5 L-1,2 Z " fill="#E1ECF2" transform="translate(809,512)"/>
<path d="M0,0 L2,0 L5,3 L7,13 L4,9 Z " fill="#DCF3FB" transform="translate(337,493)"/>
<path d="M0,0 L6,0 L6,2 L11,3 L11,5 L6,4 L0,1 Z " fill="#4178A5" transform="translate(594,496)"/>
<path d="M0,0 L3,3 L5,6 L6,9 L4,12 L3,9 L1,8 Z " fill="#2C80C0" transform="translate(410,394)"/>
<path d="M0,0 L2,1 L1,4 L-1,4 L-1,6 L-7,5 L-2,1 Z " fill="#D2EDF7" transform="translate(532,368)"/>
<path d="M0,0 L1,2 L-2,8 L-4,8 L-5,12 L-7,12 L-5,7 Z " fill="#CAEAF5" transform="translate(463,362)"/>
<path d="M0,0 L8,1 L8,3 L-2,4 L-3,1 Z " fill="#2674AF" transform="translate(552,355)"/>
<path d="M0,0 L1,2 L-4,10 L-7,10 L-5,6 Z " fill="#D0ECF7" transform="translate(471,352)"/>
<path d="M0,0 L10,0 L8,2 L0,3 L-2,1 Z " fill="#FBF8EF" transform="translate(384,676)"/>
<path d="M0,0 L5,2 L9,4 L8,6 L2,4 Z " fill="#D2F0F5" transform="translate(320,650)"/>
<path d="M0,0 L9,0 L6,1 L6,3 L0,3 L-2,1 Z " fill="#2270AD" transform="translate(458,625)"/>
<path d="M0,0 L6,0 L9,3 L9,5 L3,3 Z " fill="#D2ECF6" transform="translate(360,618)"/>
<path d="M0,0 L11,3 L10,5 L4,4 L4,2 L0,2 Z " fill="#2570A2" transform="translate(420,617)"/>
<path d="M0,0 L8,1 L10,3 L0,3 Z " fill="#2F719F" transform="translate(464,610)"/>
<path d="M0,0 L5,3 L6,7 L-1,3 L-2,1 Z " fill="#D3EEF9" transform="translate(326,594)"/>
<path d="M0,0 L1,2 L5,4 L8,8 L6,10 L-1,2 Z " fill="#DCF0F6" transform="translate(299,569)"/>
<path d="M0,0 L6,1 L9,5 L7,5 L6,7 Z " fill="#C9E9F1" transform="translate(387,562)"/>
<path d="M0,0 L3,1 L-2,6 L-6,8 L-4,4 L-2,4 L-2,1 Z " fill="#34709F" transform="translate(678,553)"/>
<path d="M0,0 L5,4 L4,9 L1,6 Z " fill="#2F79B0" transform="translate(311,537)"/>
<path d="M0,0 L4,2 L7,7 L4,7 L0,3 Z " fill="#3A7AAB" transform="translate(419,538)"/>
<path d="M0,0 L4,0 L4,5 L0,7 Z " fill="#1971BD" transform="translate(850,484)"/>
<path d="M0,0 L2,0 L0,4 L-2,7 L-4,7 L-6,3 L-1,1 Z " fill="#CFEEFB" transform="translate(828,480)"/>
<path d="M0,0 L4,1 L5,6 L1,6 Z " fill="#1572BF" transform="translate(596,469)"/>
<path d="M0,0 L1,0 L0,8 L-3,12 L-3,6 Z " fill="#BCE0F0" transform="translate(605,455)"/>
<path d="M0,0 L3,1 L0,7 L-4,8 L-4,5 L-1,3 Z " fill="#D7EBF4" transform="translate(685,448)"/>
<path d="M0,0 L3,1 L-3,10 L-4,6 Z " fill="#D4EFF7" transform="translate(866,427)"/>
<path d="M0,0 L1,3 L4,4 L-1,7 L-3,7 L-3,2 L0,2 Z " fill="#2B75B4" transform="translate(463,408)"/>
<path d="M0,0 L1,0 L1,13 L-2,14 L-1,6 Z " fill="#CEEDF7" transform="translate(324,352)"/>
<path d="M0,0 L6,1 L6,3 L10,4 L9,7 L0,1 Z " fill="#C9EAF6" transform="translate(566,335)"/>
<path d="M0,0 L7,0 L7,3 L-1,3 Z " fill="#1477BB" transform="translate(398,314)"/>
<path d="M0,0 L2,2 L2,8 L-5,6 L-4,4 L0,4 Z " fill="#4380AE" transform="translate(468,584)"/>
<path d="M0,0 L2,0 L2,2 L4,2 L7,6 L3,6 L3,3 L-1,4 L-4,1 L0,2 Z " fill="#1D70B1" transform="translate(429,565)"/>
<path d="M0,0 L5,0 L5,4 L1,5 Z " fill="#1378C8" transform="translate(436,564)"/>
<path d="M0,0 L4,0 L5,3 L4,5 L0,5 L-1,2 Z " fill="#1E6DC0" transform="translate(823,519)"/>
<path d="M0,0 L6,2 L6,5 L1,4 Z " fill="#DFF5FB" transform="translate(650,511)"/>
<path d="M0,0 L7,5 L5,7 L0,5 Z " fill="#E1F6FA" transform="translate(583,488)"/>
<path d="M0,0 L1,4 L-5,11 L-6,9 L-4,5 L-1,3 Z " fill="#36719F" transform="translate(856,484)"/>
<path d="M0,0 L1,0 L0,8 L-1,12 L-3,12 L-2,3 L0,3 Z " fill="#3C79A6" transform="translate(231,483)"/>
<path d="M0,0 L5,4 L4,6 L1,5 L1,11 L0,11 Z " fill="#D7F0F7" transform="translate(778,468)"/>
<path d="M0,0 L2,1 L2,6 L0,7 L-2,6 L-2,1 Z " fill="#276CAB" transform="translate(868,464)"/>
<path d="M0,0 L2,3 L3,13 L0,10 Z " fill="#CDEFF8" transform="translate(348,450)"/>
<path d="M0,0 L2,0 L3,2 L3,8 L-1,8 Z " fill="#F5F8F8" transform="translate(685,440)"/>
<path d="M0,0 L8,4 L8,7 L2,4 Z " fill="#397AA9" transform="translate(563,334)"/>
<path d="M0,0 L3,1 L-8,6 L-7,2 Z " fill="#D5EDF6" transform="translate(527,334)"/>
<path d="M0,0 L6,0 L8,2 L-1,4 Z " fill="#F2F8FA" transform="translate(523,332)"/>
<path d="M0,0 L2,1 L-1,4 L-4,9 L-5,7 L-7,6 Z " fill="#D8F0F9" transform="translate(509,315)"/>
<path d="M0,0 L7,0 L14,2 L14,3 L6,3 L0,1 Z " fill="#4E89B3" transform="translate(386,672)"/>
<path d="M0,0 L3,1 L2,5 L-4,3 L-5,1 Z " fill="#2170AD" transform="translate(298,630)"/>
<path d="M0,0 L7,4 L7,7 L3,7 L2,2 L0,2 Z " fill="#D1ECF8" transform="translate(410,557)"/>
<path d="M0,0 L4,0 L4,3 L2,3 L3,7 L6,8 L3,9 L1,7 Z " fill="#E8F5F6" transform="translate(383,553)"/>
<path d="M0,0 L4,4 L5,7 L1,8 L1,5 L-1,5 Z " fill="#3A7FB0" transform="translate(357,528)"/>
<path d="M0,0 L4,0 L7,6 L4,6 L4,4 L2,4 L2,2 L-2,1 Z " fill="#4573A4" transform="translate(589,527)"/>
<path d="M0,0 L2,0 L4,9 L2,10 Z " fill="#D6F5F7" transform="translate(434,520)"/>
<path d="M0,0 L2,3 L5,14 L2,13 L0,4 Z " fill="#C1E3F0" transform="translate(414,490)"/>
<path d="M0,0 L2,0 L-1,13 L-2,13 L-1,1 Z " fill="#417BA3" transform="translate(392,368)"/>
<path d="M0,0 L2,0 L2,7 L0,10 L-1,4 Z " fill="#3172A6" transform="translate(354,350)"/>
<path d="M0,0 L7,0 L6,2 L2,4 L-2,3 Z " fill="#F0F9FA" transform="translate(511,314)"/>
<path d="M0,0 L8,1 L8,3 L0,3 Z " fill="#1679B4" transform="translate(464,666)"/>
<path d="M0,0 L6,0 L5,2 L-2,4 L-6,3 L0,2 Z " fill="#2571B2" transform="translate(486,663)"/>
<path d="M0,0 L3,1 L2,3 L-7,3 L-6,1 Z " fill="#CCE9F7" transform="translate(486,642)"/>
<path d="M0,0 L6,0 L6,2 L8,3 L7,4 L1,4 L3,3 L3,1 Z " fill="#2473B6" transform="translate(519,622)"/>
<path d="M0,0 L2,1 L-6,7 L-6,3 Z " fill="#62889B" transform="translate(574,616)"/>
<path d="M0,0 L9,3 L7,6 L0,1 Z " fill="#C0E5F3" transform="translate(332,601)"/>
<path d="M0,0 L9,3 L10,5 L7,6 L0,1 Z " fill="#D1EBF4" transform="translate(406,578)"/>
<path d="M0,0 L7,1 L7,4 L2,3 L0,2 Z " fill="#EFFBFC" transform="translate(464,579)"/>
<path d="M0,0 L2,0 L5,3 L4,7 L-2,2 Z " fill="#3C7AA6" transform="translate(342,572)"/>
<path d="M0,0 L5,2 L6,6 L0,4 Z " fill="#2370AD" transform="translate(410,528)"/>
<path d="M0,0 L1,4 L2,10 L-1,7 L-3,1 Z " fill="#D3EFF7" transform="translate(347,505)"/>
<path d="M0,0 L4,2 L4,4 L6,4 L6,7 L2,5 Z " fill="#2B6B9F" transform="translate(803,499)"/>
<path d="M0,0 L4,1 L3,5 L0,6 Z " fill="#F1F9FB" transform="translate(795,494)"/>
<path d="M0,0 L4,4 L6,8 L0,6 Z " fill="#3C78A7" transform="translate(815,474)"/>
<path d="M0,0 L2,2 L0,11 L-1,11 L-1,1 Z " fill="#CDEDF4" transform="translate(577,447)"/>
<path d="M0,0 L1,2 L-2,9 L-5,11 L-4,7 Z " fill="#3170A0" transform="translate(449,380)"/>
<path d="M0,0 L2,0 L1,5 L-5,5 Z " fill="#537E9B" transform="translate(324,347)"/>
<path d="M0,0 L3,0 L3,3 L1,3 L1,8 L-2,8 Z " fill="#2B75B7" transform="translate(467,349)"/>
<path d="M0,0 L2,0 L1,5 L-2,11 L-3,9 Z " fill="#2B71A0" transform="translate(404,337)"/>
<path d="M0,0 L1,2 L0,8 L-4,8 L-2,3 Z " fill="#4883AF" transform="translate(446,317)"/>
<path d="M0,0 L5,0 L2,2 L5,4 L-1,4 L-3,3 L-3,1 Z " fill="#267AB3" transform="translate(491,304)"/>
<path d="M0,0 L7,2 L4,5 L1,4 Z " fill="#DBF1F9" transform="translate(331,656)"/>
<path d="M0,0 L6,1 L8,2 L8,4 L5,5 Z " fill="#377FAF" transform="translate(287,627)"/>
<path d="M0,0 L3,0 L2,4 L-6,3 L-3,1 Z " fill="#D8F2F6" transform="translate(541,622)"/>
<path d="M0,0 L10,2 L7,4 L1,3 Z " fill="#D6EFF8" transform="translate(416,619)"/>
<path d="M0,0 L8,0 L10,2 L8,2 L8,4 L5,4 L5,1 L0,1 Z " fill="#307BB9" transform="translate(456,608)"/>
<path d="M0,0 L5,0 L7,5 L1,3 Z " fill="#1877C7" transform="translate(384,599)"/>
<path d="M0,0 L3,1 L5,6 L6,8 L1,8 L1,3 Z " fill="#E9FCF7" transform="translate(248,590)"/>
<path d="M0,0 L5,2 L10,6 L5,5 L0,2 Z " fill="#477CA9" transform="translate(416,586)"/>
<path d="M0,0 L4,2 L9,7 L4,6 L0,2 Z " fill="#3977A3" transform="translate(303,578)"/>
<path d="M0,0 L7,6 L4,7 L0,4 Z " fill="#4179A4" transform="translate(437,558)"/>
<path d="M0,0 L5,1 L5,4 L2,5 L0,3 Z " fill="#2270C7" transform="translate(393,535)"/>
<path d="M0,0 L2,1 L4,6 L0,6 L-1,2 Z " fill="#DDF2F7" transform="translate(674,489)"/>
<path d="M0,0 L3,0 L3,4 L-3,4 L-3,2 Z " fill="#2D70AC" transform="translate(827,485)"/>
<path d="M0,0 L2,0 L3,6 L0,9 Z " fill="#2A70AD" transform="translate(580,474)"/>
<path d="M0,0 L1,3 L-2,8 L-6,9 Z " fill="#3F75A4" transform="translate(852,450)"/>
<path d="M0,0 L2,0 L0,5 L-4,9 L-3,4 L-2,2 L0,2 Z " fill="#CEEDF9" transform="translate(849,451)"/>
<path d="M0,0 L2,3 L-1,6 L-5,2 L-1,1 Z " fill="#E5F4F6" transform="translate(805,451)"/>
<path d="M0,0 L1,0 L1,5 L-3,7 L-4,1 L-3,3 L0,3 Z " fill="#E5F6FC" transform="translate(853,444)"/>
<path d="M0,0 L4,1 L5,6 L2,8 L1,3 Z " fill="#E5F1F7" transform="translate(242,446)"/>
<path d="M0,0 L5,1 L5,4 L3,3 L3,5 L1,5 L-2,1 Z " fill="#2767A4" transform="translate(664,431)"/>
<path d="M0,0 L2,2 L-2,10 L-3,10 L-3,4 Z " fill="#D5EDF8" transform="translate(274,392)"/>
<path d="M0,0 L3,1 L-1,5 L-6,6 L-1,1 Z " fill="#CDEBF6" transform="translate(512,380)"/>
<path d="M0,0 L2,0 L0,4 L-3,7 L-3,1 Z " fill="#D6F4F7" transform="translate(475,380)"/>
<path d="M0,0 L2,3 L1,10 L-1,7 Z " fill="#FBF7F0" transform="translate(345,363)"/>
<path d="M0,0 L2,0 L3,3 L2,6 L-3,5 L0,2 Z " fill="#F9F9F2" transform="translate(589,349)"/>
<path d="M0,0 L3,1 L1,6 L-1,8 L-1,1 Z " fill="#3C7EAD" transform="translate(408,329)"/>
<path d="M0,0 L6,1 L4,3 L-3,5 L-4,3 Z " fill="#D5EEF6" transform="translate(372,316)"/>
<path d="M0,0 L2,1 L1,4 L-6,5 L-3,2 Z " fill="#D6ECF3" transform="translate(542,642)"/>
<path d="M0,0 L13,1 L13,2 L0,3 Z " fill="#1A79C8" transform="translate(416,644)"/>
<path d="M0,0 L4,0 L4,3 L-2,3 L-4,1 Z " fill="#137ACA" transform="translate(508,643)"/>
<path d="M0,0 L4,2 L8,5 L0,4 Z " fill="#CAEBF4" transform="translate(288,629)"/>
<path d="M0,0 L6,2 L4,3 L4,5 L0,4 Z " fill="#FAF8F3" transform="translate(431,625)"/>
<path d="M0,0 L7,0 L9,4 L0,1 Z " fill="#D0EDF8" transform="translate(369,623)"/>
<path d="M0,0 L6,0 L9,2 L9,4 L0,1 Z " fill="#2B6FAB" transform="translate(421,592)"/>
<path d="M0,0 L6,1 L8,3 L5,3 L0,4 Z " fill="#F8F9F3" transform="translate(324,591)"/>
<path d="M0,0 L4,1 L7,5 L2,4 Z " fill="#2D6FA3" transform="translate(386,564)"/>
<path d="M0,0 L4,0 L6,4 L5,7 L0,1 Z " fill="#D7F4FD" transform="translate(292,563)"/>
<path d="M0,0 L5,1 L7,5 L4,5 Z " fill="#DFF2FA" transform="translate(440,560)"/>
<path d="M0,0 L9,1 L11,3 L1,3 Z " fill="#D1ECF7" transform="translate(639,508)"/>
<path d="M0,0 L1,4 L-3,9 L-5,8 Z " fill="#316B9C" transform="translate(843,501)"/>
<path d="M0,0 L2,0 L3,8 L-2,3 L1,3 Z " fill="#D7EEF6" transform="translate(679,493)"/>
<path d="M0,0 L11,3 L11,4 L1,3 Z " fill="#276DA5" transform="translate(645,485)"/>
<path d="M0,0 L2,3 L3,10 L1,10 L0,7 Z " fill="#CBEAF4" transform="translate(280,478)"/>
<path d="M0,0 L5,1 L6,5 L4,7 Z " fill="#D9F1FA" transform="translate(679,440)"/>
<path d="M0,0 L2,0 L0,8 L-3,8 L-1,2 Z " fill="#DBF3FB" transform="translate(468,433)"/>
<path d="M0,0 L3,0 L3,2 L1,2 L1,4 L-4,4 L-4,2 Z " fill="#2273B4" transform="translate(508,377)"/>
<path d="M0,0 L1,4 L-1,7 L-4,6 L-2,3 L-5,2 L0,2 Z " fill="#2876AC" transform="translate(458,365)"/>
<path d="M0,0 L1,3 L-3,8 L-5,8 L-3,2 L0,2 Z " fill="#F0FAF6" transform="translate(467,360)"/>
<path d="M0,0 L3,1 L1,9 L-1,5 Z " fill="#3F7EAB" transform="translate(394,359)"/>
<path d="M0,0 L1,0 L0,9 L-3,9 Z " fill="#2173AF" transform="translate(428,349)"/>
<path d="M0,0 L8,0 L10,1 L10,3 L0,1 Z " fill="#467FAA" transform="translate(358,666)"/>
<path d="M0,0 L7,1 L7,4 L1,2 Z " fill="#3873A1" transform="translate(335,656)"/>
<path d="M0,0 L6,2 L9,5 L4,4 Z " fill="#E4FAFE" transform="translate(291,633)"/>
<path d="M0,0 L8,1 L8,4 L2,2 Z " fill="#4681AD" transform="translate(390,607)"/>
<path d="M0,0 L4,2 L7,5 L3,4 L0,4 Z " fill="#3478AD" transform="translate(325,597)"/>
<path d="M0,0 L6,0 L7,4 L1,2 Z " fill="#D4F3FA" transform="translate(426,591)"/>
<path d="M0,0 L4,0 L4,2 L8,2 L8,5 L3,3 Z " fill="#D5EFFA" transform="translate(418,586)"/>
<path d="M0,0 L9,2 L9,3 L0,3 Z " fill="#CDE8F4" transform="translate(596,566)"/>
<path d="M0,0 L5,5 L5,8 L2,7 Z " fill="#CCEBF7" transform="translate(575,548)"/>
<path d="M0,0 L3,1 L3,7 L1,7 Z " fill="#C7EFFA" transform="translate(437,532)"/>
<path d="M0,0 L2,1 L4,7 L2,7 L0,5 L-1,1 Z " fill="#3C7BAB" transform="translate(268,528)"/>
<path d="M0,0 L1,2 L4,2 L6,6 L0,5 Z " fill="#E3F6F9" transform="translate(428,529)"/>
<path d="M0,0 L2,2 L4,9 L2,10 L0,4 Z " fill="#C8E7F5" transform="translate(421,510)"/>
<path d="M0,0 L4,4 L2,8 L0,5 Z " fill="#4677A0" transform="translate(682,502)"/>
<path d="M0,0 L4,1 L5,7 L0,2 Z " fill="#D9F3F8" transform="translate(811,467)"/>
<path d="M0,0 L3,3 L2,8 L0,6 Z " fill="#DFF6FC" transform="translate(603,464)"/>
<path d="M0,0 L2,1 L-1,6 L-4,7 L-3,2 Z " fill="#F0FBFA" transform="translate(285,376)"/>
<path d="M0,0 L1,4 L-1,10 L-3,9 Z " fill="#4781A7" transform="translate(420,363)"/>
<path d="M0,0 L2,4 L0,8 L-2,8 L-1,3 Z " fill="#CCECF5" transform="translate(403,344)"/>
<path d="M0,0 L2,0 L0,5 L-2,8 L-4,8 L-4,6 L-2,6 Z " fill="#CFE8F3" transform="translate(439,324)"/>
<path d="M0,0 L8,1 L6,3 L-2,2 Z " fill="#1979C5" transform="translate(498,308)"/>
</svg>
