<?xml version="1.0" encoding="UTF-8"?>
<!-- Generator: visioncortex VTracer 0.6.5 -->
<svg version="1.1" xmlns="http://www.w3.org/2000/svg" width="1024" height="1024">
<path d="M0,0 L34,0 L43,6 L48,13 L53,40 L82,219 L87,225 L95,232 L122,259 L131,270 L145,288 L159,309 L170,328 L180,347 L191,373 L200,400 L208,432 L213,461 L214,470 L214,546 L210,574 L204,601 L196,629 L185,658 L172,685 L161,704 L164,726 L187,868 L188,875 L188,889 L184,899 L178,906 L170,910 L143,915 L-55,947 L-302,987 L-512,1021 L-536,1024 L-547,1022 L-555,1018 L-562,1010 L-564,1006 L-576,934 L-603,767 L-642,526 L-676,316 L-702,155 L-703,148 L-703,133 L-699,122 L-691,114 L-682,111 L-661,107 L-445,72 L-204,33 Z " fill="#222222" transform="translate(734,0)"/>
<path d="M0,0 L34,0 L43,6 L48,13 L53,40 L82,219 L81,221 L77,217 L72,214 L59,204 L41,192 L28,184 L14,176 L2,170 L-6,167 L-19,161 L-31,157 L-41,153 L-69,145 L-82,142 L-105,138 L-121,136 L-195,136 L-224,140 L-252,146 L-266,150 L-275,153 L-289,158 L-300,163 L-308,166 L-333,178 L-360,194 L-380,208 L-394,219 L-407,230 L-438,261 L-447,272 L-462,292 L-472,307 L-481,322 L-493,345 L-501,362 L-511,389 L-517,410 L-524,439 L-528,467 L-529,477 L-529,537 L-527,558 L-523,582 L-514,617 L-503,649 L-492,673 L-480,696 L-468,715 L-456,732 L-445,746 L-433,760 L-404,789 L-393,798 L-380,808 L-360,822 L-338,835 L-319,845 L-293,856 L-257,868 L-230,874 L-208,878 L-191,880 L-132,880 L-115,879 L-90,875 L-60,868 L-31,859 L-6,849 L17,838 L44,822 L64,808 L78,797 L92,785 L122,755 L133,741 L146,724 L156,710 L160,705 L162,713 L187,868 L188,875 L188,889 L184,899 L178,906 L170,910 L143,915 L-55,947 L-302,987 L-512,1021 L-536,1024 L-547,1022 L-555,1018 L-562,1010 L-564,1006 L-576,934 L-603,767 L-642,526 L-676,316 L-702,155 L-703,148 L-703,133 L-699,122 L-691,114 L-682,111 L-661,107 L-445,72 L-204,33 Z " fill="#1C1A24" transform="translate(734,0)"/>
<path d="M0,0 L38,0 L63,4 L83,10 L104,19 L119,28 L132,40 L142,49 L149,57 L161,72 L170,87 L178,102 L188,127 L194,149 L199,176 L204,214 L209,264 L214,329 L217,385 L217,405 L212,408 L188,419 L166,427 L136,435 L112,440 L98,442 L90,442 L87,443 L39,444 L39,401 L40,375 L40,288 L37,246 L32,211 L30,200 L39,196 L61,187 L73,180 L74,173 L71,167 L64,164 L57,165 L37,173 L8,182 L-24,189 L-45,191 L-64,191 L-86,189 L-104,185 L-124,177 L-143,167 L-153,158 L-159,151 L-163,143 L-165,136 L-165,113 L-162,101 L-154,84 L-145,72 L-137,63 L-129,56 L-117,46 L-100,35 L-82,25 L-62,16 L-35,7 L-14,2 Z " fill="#9367C5" transform="translate(520,403)"/>
<path d="M0,0 L74,0 L97,3 L117,7 L141,13 L163,20 L172,24 L182,28 L192,32 L206,39 L216,44 L228,51 L247,63 L263,75 L269,80 L274,83 L288,95 L317,124 L326,135 L340,153 L354,174 L365,193 L375,212 L386,238 L395,265 L403,297 L408,326 L409,335 L409,411 L405,439 L399,466 L391,494 L380,523 L367,550 L352,575 L341,590 L329,606 L320,617 L311,627 L283,655 L272,664 L255,677 L234,691 L215,702 L198,711 L172,722 L142,732 L114,739 L100,742 L80,745 L63,746 L4,746 L-26,742 L-62,734 L-98,722 L-119,713 L-136,705 L-157,693 L-175,681 L-186,673 L-199,663 L-213,651 L-243,621 L-252,610 L-266,592 L-276,577 L-288,557 L-300,534 L-310,511 L-322,475 L-329,447 L-333,423 L-335,402 L-335,342 L-332,316 L-327,291 L-320,263 L-311,237 L-302,216 L-289,190 L-275,167 L-262,149 L-252,136 L-240,122 L-208,90 L-194,79 L-181,69 L-160,55 L-141,44 L-118,32 L-109,28 L-95,23 L-83,18 L-72,15 L-64,12 L-40,6 L-9,1 Z M3,32 L-30,37 L-62,45 L-87,54 L-112,65 L-114,67 L-112,67 L-111,83 L-107,122 L-99,217 L-98,226 L-98,236 L-104,239 L-106,222 L-110,175 L-116,110 L-119,75 L-120,70 L-125,72 L-143,82 L-162,95 L-179,108 L-194,121 L-218,145 L-227,156 L-241,174 L-254,194 L-266,215 L-277,238 L-287,265 L-292,283 L-297,302 L-300,317 L-302,331 L-303,346 L-303,400 L-301,419 L-298,438 L-293,461 L-283,492 L-274,514 L-264,535 L-251,557 L-240,573 L-227,590 L-214,605 L-189,630 L-178,639 L-161,652 L-146,662 L-131,671 L-108,683 L-85,693 L-58,702 L-29,709 L-6,713 L10,714 L67,714 L97,710 L119,705 L144,698 L169,689 L197,676 L217,664 L232,654 L248,642 L259,633 L271,622 L292,601 L301,590 L312,576 L328,552 L340,531 L351,508 L361,480 L369,453 L374,427 L377,407 L377,346 L376,331 L373,312 L368,289 L361,265 L351,238 L338,211 L325,189 L314,173 L304,160 L295,149 L284,137 L270,123 L269,123 L269,383 L266,383 L265,379 L263,122 L261,115 L251,106 L235,94 L220,84 L196,70 L171,58 L144,48 L112,39 L100,37 L100,82 L101,167 L102,173 L93,172 L91,92 L91,35 L65,32 Z " fill="#6930A9" transform="translate(539,135)"/>
<path d="M0,0 L34,0 L43,6 L48,13 L53,40 L82,219 L81,221 L75,216 L60,125 L44,26 L41,16 L37,10 L31,6 L24,4 L16,4 L-188,37 L-398,71 L-608,105 L-675,116 L-683,120 L-689,127 L-691,132 L-691,147 L-662,326 L-655,370 L-649,406 L-637,480 L-627,541 L-616,609 L-606,671 L-604,684 L-596,733 L-588,782 L-575,863 L-567,912 L-561,949 L-559,962 L-553,996 L-548,1004 L-540,1009 L-537,1010 L-523,1010 L-474,1002 L-426,994 L-369,985 L-358,983 L-301,974 L-253,966 L-196,957 L-148,949 L-91,940 L-36,931 L-17,928 L-5,926 L88,911 L145,902 L166,898 L174,893 L178,888 L181,879 L180,866 L156,718 L156,710 L160,705 L162,713 L187,868 L188,875 L188,889 L184,899 L178,906 L170,910 L143,915 L-55,947 L-302,987 L-512,1021 L-536,1024 L-547,1022 L-555,1018 L-562,1010 L-564,1006 L-576,934 L-603,767 L-642,526 L-676,316 L-702,155 L-703,148 L-703,133 L-699,122 L-691,114 L-682,111 L-661,107 L-445,72 L-204,33 Z " fill="#000000" transform="translate(734,0)"/>
<path d="M0,0 L5,0 L6,38 L8,75 L9,115 L10,127 L13,208 L13,215 L4,214 L3,209 L1,161 L0,147 L-2,96 L-4,40 L-5,27 L-5,1 Z " fill="#6730A6" transform="translate(546,168)"/>
<path d="M0,0 L1,0 L8,54 L14,109 L19,150 L24,196 L28,231 L31,255 L31,264 L27,266 L24,249 L18,201 L13,166 L7,118 L2,83 L-3,42 L-6,18 L-6,9 Z " fill="#6630A4" transform="translate(288,328)"/>
<path d="M0,0 L9,3 L9,49 L8,163 L6,181 L2,192 L-1,196 L-2,195 L-2,108 L-1,74 Z " fill="#6730A6" transform="translate(884,456)"/>
<path d="M0,0 L3,1 L8,49 L16,130 L16,135 L9,142 L8,142 L3,96 L-4,28 L-6,11 L-6,5 Z " fill="#6730A7" transform="translate(356,314)"/>
<path d="M0,0 L5,1 L7,4 L7,159 L2,158 L0,157 Z " fill="#6830A8" transform="translate(720,274)"/>
<path d="M0,0 L9,3 L10,4 L10,84 L9,93 L1,93 L-1,90 L-1,1 Z " fill="#6730A6" transform="translate(844,406)"/>
<path d="M0,0 L7,0 L8,1 L11,70 L11,89 L9,91 L3,91 L2,90 L-1,37 L-3,7 L-3,2 Z " fill="#6730A6" transform="translate(502,221)"/>
<path d="M0,0 L10,1 L11,4 L12,51 L12,82 L3,81 L1,53 L0,16 Z " fill="#6830A7" transform="translate(586,251)"/>
<path d="M0,0 L1,0 L4,25 L7,53 L9,78 L10,84 L10,93 L5,96 L2,96 L-3,55 L-7,18 L-7,9 L-1,1 Z " fill="#6730A6" transform="translate(319,286)"/>
<path d="M0,0 L7,1 L8,3 L8,99 L3,99 L1,96 L0,85 Z " fill="#6730A5" transform="translate(760,386)"/>
<path d="M0,0 L2,0 L6,28 L11,68 L17,109 L17,114 L12,116 L10,109 L3,59 L0,43 L-3,21 L-4,10 Z " fill="#6630A4" transform="translate(260,382)"/>
<path d="M0,0 L6,1 L9,5 L9,61 L3,60 L-1,56 L-1,2 Z " fill="#6730A6" transform="translate(674,220)"/>
<path d="M0,0 L4,1 L5,19 L5,115 L1,118 L0,104 Z " fill="#632F9E" transform="translate(762,673)"/>
<path d="M0,0 L7,0 L13,4 L17,10 L17,17 L13,23 L7,27 L0,27 L-6,23 L-9,18 L-9,9 L-5,3 Z " fill="#020203" transform="translate(525,427)"/>
<path d="M0,0 L1,0 L1,77 L-4,84 L-6,83 L-6,6 Z " fill="#6530A2" transform="translate(849,632)"/>
<path d="M0,0 L5,1 L7,2 L8,7 L8,67 L3,65 L0,63 Z " fill="#6630A5" transform="translate(760,237)"/>
<path d="M0,0 L5,1 L6,7 L8,38 L8,55 L6,57 L1,57 L-1,53 L-3,32 L-4,2 Z " fill="#6730A5" transform="translate(468,276)"/>
<path d="M0,0 L6,1 L9,3 L9,57 L8,59 L1,58 Z " fill="#6730A6" transform="translate(674,312)"/>
<path d="M0,0 L3,1 L4,3 L8,37 L13,72 L19,120 L19,129 L17,128 L13,106 L10,83 L7,63 L3,36 L-1,7 L-1,1 Z " fill="#642FA0" transform="translate(280,532)"/>
<path d="M0,0 L7,0 L13,4 L15,7 L15,17 L11,22 L7,24 L0,24 L-6,20 L-9,15 L-9,9 L-5,3 Z " fill="#030203" transform="translate(462,419)"/>
<path d="M0,0 L4,1 L-24,14 L-52,24 L-81,32 L-102,36 L-126,39 L-158,39 L-158,37 L-168,37 L-168,36 L-125,35 L-121,34 L-107,33 L-84,29 L-53,21 L-29,13 L-11,5 Z " fill="#37264A" transform="translate(732,810)"/>
<path d="M0,0 L3,1 L8,42 L14,96 L14,102 L9,98 L7,77 L3,38 L-1,9 L-1,1 Z " fill="#642F9F" transform="translate(321,631)"/>
<path d="M0,0 L4,1 L5,2 L10,61 L10,74 L6,72 L5,71 L0,12 Z " fill="#642FA1" transform="translate(392,724)"/>
<path d="M0,0 L5,0 L6,1 L8,22 L10,47 L10,60 L6,61 L4,55 L0,6 Z " fill="#6530A3" transform="translate(462,690)"/>
<path d="M0,0 L4,1 L5,2 L7,40 L9,64 L9,84 L7,84 L6,82 L0,9 Z " fill="#642FA1" transform="translate(491,613)"/>
<path d="M0,0 L5,4 L7,7 L9,20 L10,40 L8,42 L5,42 L3,32 Z " fill="#6630A3" transform="translate(342,570)"/>
<path d="M0,0 L5,1 L7,5 L8,18 L8,32 L3,32 L1,27 L0,11 Z " fill="#6530A2" transform="translate(418,613)"/>
<path d="M0,0 L5,1 L6,2 L7,18 L7,33 L4,33 L2,29 L1,23 Z " fill="#6630A4" transform="translate(433,784)"/>
<path d="M0,0 L4,1 L-24,14 L-52,24 L-70,29 L-76,28 L-72,26 L-46,19 L-19,9 Z " fill="#412A5A" transform="translate(732,810)"/>
<path d="M0,0 L2,0 L3,2 L3,16 L-1,27 L-3,24 L-4,15 L-4,4 Z " fill="#6530A1" transform="translate(336,473)"/>
<path d="M0,0 L4,1 L-24,14 L-29,16 L-35,16 L-32,14 L-13,6 Z " fill="#472C64" transform="translate(732,810)"/>
<path d="M0,0 L8,0 L6,2 L-7,5 L-13,5 L-10,4 L-10,2 Z " fill="#38274A" transform="translate(652,838)"/>
<path d="M0,0 L4,1 L4,3 L-7,4 L-13,3 L-13,2 Z " fill="#402A5A" transform="translate(638,841)"/>
<path d="M0,0 L6,0 L4,2 L-6,5 L-10,4 L-7,4 L-7,2 Z " fill="#372848" transform="translate(679,831)"/>
<path d="M0,0 L4,1 L-6,6 L-11,6 L-9,4 Z " fill="#4C2E6E" transform="translate(732,810)"/>
<path d="M0,0 L3,1 L-3,9 L-6,9 L-4,5 Z " fill="#2C2435" transform="translate(316,286)"/>
<path d="M0,0 L8,0 L6,2 L-3,3 Z " fill="#30263B" transform="translate(652,838)"/>
</svg>
