<?xml version="1.0" encoding="UTF-8"?>
<!-- Generator: visioncortex VTracer 0.6.5 -->
<svg version="1.1" xmlns="http://www.w3.org/2000/svg" width="512" height="512">
<path d="M0,0 L7,1 L14,11 L22,24 L28,24 L40,11 L47,5 L53,5 L57,9 L65,30 L65,33 L72,33 L90,20 L92,19 L99,19 L103,23 L107,47 L111,51 L117,49 L135,41 L142,42 L145,46 L145,65 L144,74 L148,76 L160,74 L172,71 L179,72 L182,76 L181,86 L177,105 L180,108 L207,108 L212,112 L212,119 L203,139 L204,145 L212,147 L230,150 L234,153 L235,160 L229,169 L220,181 L221,187 L245,196 L248,199 L248,207 L243,212 L231,224 L229,225 L230,231 L249,243 L253,247 L253,254 L248,259 L230,270 L229,276 L237,283 L247,292 L248,294 L248,302 L243,306 L221,314 L220,320 L230,333 L235,341 L234,348 L230,351 L206,355 L203,358 L204,364 L212,382 L212,389 L207,393 L180,393 L177,396 L181,415 L182,425 L179,429 L172,430 L151,425 L147,426 L144,427 L145,436 L145,455 L140,460 L132,459 L113,450 L108,452 L106,460 L103,478 L99,482 L92,482 L73,469 L68,468 L65,468 L64,474 L56,494 L53,496 L47,496 L39,489 L31,481 L28,477 L22,477 L8,499 L4,501 L-2,500 L-7,494 L-17,478 L-17,476 L-24,478 L-36,490 L-40,495 L-42,496 L-48,496 L-53,491 L-61,470 L-61,468 L-68,468 L-84,480 L-87,482 L-94,482 L-98,479 L-102,458 L-103,452 L-108,450 L-131,460 L-138,459 L-141,454 L-141,427 L-144,425 L-155,427 L-168,430 L-174,429 L-177,426 L-178,420 L-173,399 L-174,395 L-175,393 L-203,393 L-208,388 L-207,380 L-198,361 L-200,356 L-208,354 L-226,351 L-230,347 L-230,339 L-218,323 L-216,320 L-217,314 L-241,305 L-244,301 L-244,294 L-231,281 L-225,276 L-225,270 L-245,258 L-249,253 L-248,246 L-240,240 L-225,231 L-225,225 L-240,211 L-244,207 L-244,200 L-241,196 L-217,187 L-216,181 L-229,163 L-230,162 L-230,154 L-226,150 L-202,146 L-198,142 L-200,136 L-208,118 L-207,111 L-203,108 L-175,108 L-173,105 L-175,93 L-178,81 L-177,75 L-172,71 L-164,72 L-147,76 L-143,75 L-141,74 L-141,47 L-138,42 L-131,41 L-108,51 L-103,49 L-99,25 L-96,20 L-94,19 L-87,19 L-69,32 L-64,33 L-61,33 L-58,23 L-52,8 L-48,5 L-42,5 L-37,9 L-30,17 L-23,24 L-17,25 L-15,20 L-5,4 Z M-3,46 L-8,49 L-12,54 L-13,63 L-10,69 L-5,73 L-3,74 L5,74 L12,70 L16,62 L15,54 L10,48 L6,46 Z M-34,70 L-53,75 L-74,83 L-93,93 L-110,105 L-124,117 L-133,126 L-133,127 L69,128 L84,132 L100,140 L110,148 L119,158 L125,170 L128,184 L128,192 L125,204 L120,214 L110,226 L96,237 L92,241 L102,249 L109,257 L115,269 L119,282 L122,293 L127,297 L139,300 L150,298 L156,294 L160,289 L163,280 L164,263 L184,262 L185,259 L185,239 L184,231 L149,215 L144,210 L143,207 L143,200 L152,179 L161,158 L151,143 L143,133 L134,123 L122,111 L105,98 L90,89 L69,79 L51,73 L36,70 L19,86 L11,94 L6,97 L-4,97 L-10,93 L-26,76 L-32,70 Z M-180,180 L-187,184 L-190,189 L-190,199 L-186,205 L-181,208 L-171,208 L-163,201 L-162,198 L-162,190 L-166,184 L-172,180 Z M178,180 L170,183 L166,188 L164,195 L166,202 L173,208 L175,209 L183,209 L189,205 L193,199 L193,191 L189,184 L184,181 Z M-146,183 L-143,192 L-140,200 L-141,209 L-145,214 L-179,229 L-180,230 L-180,267 L-176,291 L-174,298 L-122,298 L-122,183 Z M-39,184 L-39,217 L27,217 L38,213 L44,206 L45,201 L42,193 L34,187 L25,184 Z M-39,268 L-39,300 L7,301 L7,357 L-143,358 L-141,362 L-130,375 L-121,374 L-102,370 L-90,370 L-84,375 L-80,391 L-75,414 L-61,420 L-42,426 L-20,430 L-10,431 L14,431 L32,429 L57,423 L73,417 L77,415 L81,400 L86,377 L91,372 L95,370 L106,371 L129,376 L134,375 L145,363 L148,358 L69,357 L61,353 L56,348 L49,339 L45,329 L37,292 L33,282 L25,273 L17,269 L13,268 Z M-113,389 L-118,392 L-122,397 L-123,399 L-123,407 L-119,413 L-116,416 L-113,417 L-104,417 L-98,413 L-95,408 L-94,402 L-97,394 L-104,389 Z M110,389 L103,392 L98,398 L97,406 L101,414 L108,418 L115,418 L122,414 L126,407 L125,398 L119,391 Z " fill="#5A483D" transform="translate(254,3)"/>
<path d="M0,0 L7,1 L14,11 L22,24 L28,24 L40,11 L47,5 L53,5 L57,9 L65,30 L65,33 L72,33 L90,20 L92,19 L99,19 L103,23 L107,47 L111,51 L117,49 L135,41 L142,42 L145,46 L145,65 L144,74 L148,76 L160,74 L172,71 L179,72 L182,76 L181,86 L177,105 L180,108 L188,109 L189,113 L188,116 L186,116 L186,118 L181,120 L177,119 L179,124 L186,134 L198,155 L206,173 L214,199 L218,220 L219,228 L219,262 L217,262 L215,284 L210,307 L205,321 L204,317 L209,300 L211,283 L205,283 L206,277 L198,276 L200,272 L195,272 L196,265 L199,264 L201,260 L203,259 L204,255 L208,253 L209,248 L207,248 L205,252 L201,253 L199,249 L200,244 L202,242 L205,242 L206,238 L210,236 L204,234 L200,236 L195,235 L195,233 L189,232 L189,238 L190,236 L196,237 L198,241 L195,244 L190,243 L190,241 L185,240 L184,239 L184,231 L182,231 L182,229 L185,228 L184,227 L184,222 L188,223 L190,225 L186,220 L186,218 L191,217 L196,217 L192,215 L191,210 L194,207 L199,207 L201,208 L207,208 L209,209 L209,207 L206,206 L206,202 L203,203 L193,203 L191,201 L192,199 L192,191 L188,183 L189,179 L188,175 L190,173 L190,168 L186,158 L186,153 L182,152 L180,151 L180,143 L181,141 L178,142 L177,137 L174,137 L169,137 L167,135 L166,130 L168,128 L172,128 L167,118 L159,109 L155,105 L151,100 L143,93 L131,83 L115,72 L109,70 L106,67 L102,66 L102,64 L97,62 L84,57 L75,53 L66,50 L64,51 L63,49 L54,47 L41,48 L40,45 L34,43 L30,45 L24,52 L17,51 L12,45 L4,43 L1,43 L-3,41 L-8,42 L-12,43 L-16,42 L-26,42 L-31,44 L-33,46 L-37,45 L-37,43 L-52,47 L-66,51 L-76,55 L-85,59 L-96,65 L-105,71 L-109,73 L-105,77 L-106,81 L-109,86 L-114,91 L-119,94 L-124,94 L-125,90 L-129,97 L-128,101 L-127,105 L-133,104 L-135,103 L-141,103 L-141,109 L-141,111 L-140,114 L-143,123 L-149,125 L-157,125 L-158,130 L-165,131 L-168,137 L-172,136 L-172,144 L-168,143 L-165,146 L-165,150 L-161,152 L-158,160 L-159,164 L-161,167 L-156,166 L-153,169 L-154,179 L-159,187 L-164,187 L-170,182 L-172,181 L-180,181 L-185,184 L-187,184 L-189,189 L-189,199 L-186,204 L-181,207 L-171,208 L-171,221 L-178,225 L-179,227 L-177,227 L-177,229 L-179,230 L-179,267 L-175,291 L-174,298 L-169,298 L-168,303 L-170,305 L-175,305 L-175,308 L-178,308 L-179,311 L-182,311 L-179,313 L-178,321 L-179,324 L-177,327 L-175,334 L-170,341 L-167,343 L-167,369 L-163,371 L-159,382 L-159,387 L-161,388 L-171,375 L-180,361 L-188,347 L-193,337 L-198,324 L-198,327 L-190,345 L-182,360 L-170,378 L-162,388 L-162,390 L-164,391 L-167,396 L-173,394 L-175,393 L-203,393 L-208,388 L-207,380 L-198,361 L-200,356 L-208,354 L-226,351 L-230,347 L-230,339 L-218,323 L-216,320 L-217,314 L-241,305 L-244,301 L-244,294 L-231,281 L-225,276 L-225,270 L-245,258 L-249,253 L-248,246 L-240,240 L-225,231 L-225,225 L-240,211 L-244,207 L-244,200 L-241,196 L-217,187 L-216,181 L-229,163 L-230,162 L-230,154 L-226,150 L-202,146 L-198,142 L-200,136 L-208,118 L-207,111 L-203,108 L-175,108 L-173,105 L-175,93 L-178,81 L-177,75 L-172,71 L-164,72 L-147,76 L-143,75 L-141,74 L-141,47 L-138,42 L-131,41 L-108,51 L-103,49 L-99,25 L-96,20 L-94,19 L-87,19 L-69,32 L-64,33 L-61,33 L-58,23 L-52,8 L-48,5 L-42,5 L-37,9 L-30,17 L-23,24 L-17,25 L-15,20 L-5,4 Z M199,212 Z M198,213 Z M197,214 Z " fill="#7C482C" transform="translate(254,3)"/>
<path d="M0,0 L26,0 L52,3 L71,7 L95,15 L122,28 L136,37 L152,49 L164,60 L179,75 L192,92 L203,110 L212,127 L221,151 L226,170 L229,190 L230,201 L230,228 L227,254 L222,274 L218,285 L217,281 L222,264 L224,247 L218,247 L219,241 L211,240 L213,236 L208,236 L209,229 L212,228 L214,224 L216,223 L217,219 L221,217 L222,212 L220,212 L218,216 L214,217 L212,213 L213,208 L215,206 L218,206 L219,202 L223,200 L217,198 L213,200 L208,199 L208,197 L202,196 L202,202 L203,200 L209,201 L211,205 L208,208 L203,207 L203,205 L198,204 L197,203 L197,195 L195,195 L195,193 L198,192 L197,191 L197,186 L201,187 L203,189 L199,184 L199,182 L204,181 L209,181 L205,179 L204,174 L207,171 L212,171 L214,172 L220,172 L222,173 L222,171 L219,170 L219,166 L216,167 L206,167 L204,165 L205,163 L205,155 L201,147 L202,143 L201,139 L203,137 L203,132 L199,122 L199,117 L195,116 L193,115 L193,107 L194,105 L191,106 L190,101 L187,101 L182,101 L180,99 L179,94 L181,92 L185,92 L180,82 L172,73 L168,69 L164,64 L156,57 L144,47 L128,36 L122,34 L119,31 L115,30 L115,28 L110,26 L97,21 L88,17 L79,14 L77,15 L76,13 L67,11 L54,12 L53,9 L47,7 L43,9 L37,16 L30,15 L25,9 L17,7 L14,7 L10,5 L5,6 L1,7 L-3,6 L-13,6 L-18,8 L-20,10 L-24,9 L-24,7 L-39,11 L-53,15 L-63,19 L-72,23 L-83,29 L-92,35 L-96,37 L-92,41 L-93,45 L-96,50 L-101,55 L-106,58 L-111,58 L-112,54 L-116,61 L-115,65 L-114,69 L-120,68 L-122,67 L-128,67 L-128,73 L-128,75 L-127,78 L-130,87 L-136,89 L-144,89 L-145,94 L-152,95 L-155,101 L-159,100 L-159,108 L-155,107 L-152,110 L-152,114 L-148,116 L-145,124 L-146,128 L-148,131 L-143,130 L-140,133 L-141,143 L-146,151 L-151,151 L-157,146 L-159,145 L-167,145 L-172,148 L-174,148 L-176,153 L-176,163 L-173,168 L-168,171 L-158,172 L-158,185 L-165,189 L-166,191 L-164,191 L-164,193 L-166,194 L-166,231 L-162,255 L-161,262 L-156,262 L-155,267 L-157,269 L-162,269 L-162,272 L-165,272 L-166,275 L-169,275 L-166,277 L-165,285 L-166,288 L-164,291 L-162,298 L-157,305 L-154,307 L-154,333 L-150,335 L-146,346 L-146,351 L-148,352 L-158,339 L-167,325 L-175,311 L-180,301 L-185,288 L-187,286 L-189,282 L-193,269 L-198,246 L-200,227 L-200,203 L-197,178 L-192,155 L-185,135 L-173,110 L-163,94 L-154,82 L-142,68 L-128,54 L-114,43 L-100,33 L-78,21 L-59,13 L-44,8 L-22,3 Z M212,176 Z M211,177 Z M210,178 Z " fill="#6A412C" transform="translate(241,39)"/>
<path d="M0,0 L14,0 L19,4 L19,11 L10,31 L11,37 L19,39 L37,42 L41,45 L42,52 L36,61 L27,73 L28,79 L52,88 L55,91 L55,99 L50,104 L38,116 L36,117 L37,123 L56,135 L60,139 L60,146 L55,151 L37,162 L36,168 L44,175 L54,184 L55,186 L55,194 L50,198 L28,206 L27,212 L37,225 L42,233 L41,240 L37,243 L13,247 L10,250 L11,256 L19,274 L19,281 L14,285 L-13,285 L-16,288 L-12,307 L-11,317 L-14,321 L-21,322 L-42,317 L-46,318 L-49,319 L-48,328 L-48,347 L-53,352 L-61,351 L-80,342 L-85,344 L-87,352 L-90,370 L-94,374 L-101,374 L-120,361 L-125,360 L-128,360 L-129,366 L-137,386 L-140,388 L-146,388 L-154,381 L-162,373 L-165,369 L-171,369 L-175,375 L-183,374 L-183,370 L-181,369 L-179,363 L-179,359 L-150,355 L-129,350 L-107,342 L-88,333 L-68,321 L-55,311 L-41,299 L-30,288 L-21,277 L-12,265 L-1,247 L7,232 L16,209 L21,190 L24,175 L25,162 L25,120 L21,95 L14,71 L7,53 L-3,34 L-10,23 L-16,15 L-16,11 L-7,10 L-7,8 L-5,8 L-5,1 Z " fill="#5D4336" transform="translate(447,111)"/>
<path d="M0,0 L2,0 L1,14 L-4,31 L-5,39 L-14,60 L-24,78 L-36,95 L-47,108 L-66,127 L-80,138 L-95,148 L-122,162 L-141,169 L-159,174 L-177,177 L-196,179 L-218,179 L-243,176 L-259,173 L-276,168 L-296,160 L-317,149 L-329,141 L-330,139 L-325,141 L-308,151 L-306,152 L-304,148 L-304,139 L-305,135 L-310,137 L-311,131 L-308,128 L-303,129 L-303,132 L-299,134 L-296,139 L-296,141 L-288,142 L-288,140 L-284,139 L-280,137 L-276,141 L-276,143 L-272,145 L-268,146 L-265,146 L-267,152 L-264,158 L-256,156 L-257,155 L-257,149 L-251,149 L-249,152 L-244,149 L-239,149 L-239,153 L-234,153 L-234,156 L-228,155 L-226,158 L-226,163 L-223,167 L-222,170 L-219,166 L-201,166 L-198,161 L-194,160 L-192,163 L-188,160 L-184,160 L-188,156 L-187,152 L-182,154 L-181,155 L-179,148 L-178,147 L-172,147 L-168,144 L-166,146 L-166,152 L-168,155 L-165,157 L-159,157 L-157,153 L-153,151 L-153,153 L-147,155 L-142,153 L-136,160 L-132,159 L-131,155 L-126,154 L-121,155 L-121,157 L-119,157 L-120,153 L-124,150 L-128,152 L-132,149 L-130,140 L-127,136 L-120,137 L-120,135 L-112,134 L-109,137 L-106,144 L-105,138 L-108,137 L-109,131 L-105,129 L-101,131 L-94,131 L-87,127 L-84,121 L-84,112 L-79,111 L-77,105 L-75,100 L-71,102 L-71,104 L-64,104 L-68,102 L-69,98 L-66,95 L-60,97 L-61,93 L-57,88 L-54,86 L-54,81 L-50,81 L-49,83 L-47,83 L-47,76 L-37,72 L-39,68 L-38,64 L-39,60 L-37,56 L-27,57 L-28,53 L-30,49 L-29,44 L-28,42 L-32,43 L-33,48 L-38,49 L-41,46 L-41,42 L-34,42 L-31,36 L-36,36 L-36,31 L-30,31 L-29,27 L-25,27 L-26,23 L-25,22 L-19,22 L-18,18 L-13,18 L-13,16 L-15,16 L-16,12 L-18,11 L-18,17 L-20,19 L-24,18 L-25,13 L-30,14 L-31,9 L-29,7 L-23,7 L-21,10 L-18,5 L-13,4 L-10,10 L-7,14 L-7,12 L-10,9 L-9,4 L-2,5 Z M-30,34 Z M-31,35 Z M-299,129 Z M-300,130 Z M-301,131 Z M-280,136 Z M-265,144 Z " fill="#4D443E" transform="translate(463,289)"/>
<path d="M0,0 L7,0 L8,4 L-6,19 L-20,38 L-28,51 L-39,72 L-45,87 L-50,104 L-53,117 L-56,140 L-56,174 L-55,188 L-49,217 L-42,237 L-34,255 L-24,273 L-15,286 L-7,296 L-6,299 L-9,304 L-15,302 L-17,301 L-45,301 L-50,296 L-49,288 L-40,269 L-42,264 L-50,262 L-68,259 L-72,255 L-72,247 L-60,231 L-58,228 L-59,222 L-83,213 L-86,209 L-86,202 L-73,189 L-67,184 L-67,178 L-87,166 L-91,161 L-90,154 L-82,148 L-67,139 L-67,133 L-82,119 L-86,115 L-86,108 L-83,104 L-59,95 L-58,89 L-71,71 L-72,70 L-72,62 L-68,58 L-44,54 L-40,50 L-42,44 L-50,26 L-49,19 L-45,16 L-17,16 L-15,13 L-15,4 L-8,5 Z " fill="#6F432B" transform="translate(96,95)"/>
<path d="M0,0 L14,0 L19,4 L19,11 L10,31 L11,37 L19,39 L37,42 L41,45 L42,52 L36,61 L27,73 L28,79 L52,88 L55,91 L55,99 L50,104 L38,116 L36,117 L37,123 L56,135 L60,139 L60,146 L55,151 L37,162 L36,164 L33,163 L35,161 L35,158 L32,155 L28,156 L26,158 L25,120 L21,95 L14,71 L7,53 L-3,34 L-10,23 L-16,15 L-16,11 L-7,10 L-7,8 L-5,8 L-5,1 Z " fill="#6B422C" transform="translate(447,111)"/>
<path d="M0,0 L7,0 L25,13 L30,14 L37,13 L41,14 L41,12 L45,11 L46,12 L51,12 L53,10 L57,9 L57,5 L61,7 L63,9 L67,10 L67,13 L64,14 L63,17 L34,24 L25,27 L-1,38 L-19,48 L-36,60 L-49,71 L-55,76 L-57,76 L-57,73 L-64,74 L-72,79 L-77,79 L-80,79 L-84,62 L-83,56 L-78,52 L-70,53 L-53,57 L-49,56 L-47,55 L-47,28 L-44,23 L-37,22 L-14,32 L-9,30 L-5,6 L-2,1 Z " fill="#7F4325" transform="translate(160,22)"/>
<path d="M0,0 Z M-1,1 L1,3 L0,12 L-2,12 L-2,17 L4,16 L5,21 L1,22 L1,27 L3,24 L9,24 L10,29 L9,31 L12,32 L17,38 L20,43 L19,47 L15,48 L12,46 L12,44 L10,44 L11,47 L20,50 L19,60 L17,65 L19,65 L21,61 L25,60 L27,63 L26,71 L27,78 L29,79 L28,86 L36,87 L39,88 L43,89 L45,95 L46,96 L48,106 L53,112 L56,113 L65,113 L70,111 L68,116 L69,119 L73,118 L75,122 L75,131 L73,136 L59,129 L50,123 L46,122 L33,112 L20,100 L10,90 L1,79 L-9,65 L-18,50 L-29,27 L-31,18 L-28,21 L-22,36 L-13,53 L-4,68 L6,81 L9,84 L8,77 L5,68 L2,66 L1,40 L-4,35 L-8,29 L-10,22 L-11,20 L-10,16 L-11,10 L-15,7 L-10,7 L-9,5 L-6,5 L-6,2 Z " fill="#5A4235" transform="translate(85,306)"/>
<path d="M0,0 L4,2 L17,16 L25,23 L40,35 L59,47 L76,56 L89,61 L92,66 L84,67 L77,68 L72,67 L70,62 L70,57 L68,58 L68,61 L64,59 L62,56 L55,55 L54,50 L51,52 L46,52 L47,58 L44,61 L37,62 L36,58 L28,57 L27,51 L25,51 L24,36 L21,34 L10,36 L-3,39 L-9,38 L-12,35 L-13,29 L-8,8 L-9,2 L-2,4 Z " fill="#5E4234" transform="translate(89,394)"/>
<path d="M0,0 L2,0 L1,21 L-4,44 L-9,60 L-16,78 L-26,97 L-37,114 L-45,124 L-57,138 L-68,149 L-79,158 L-92,168 L-107,177 L-124,186 L-139,192 L-153,197 L-179,203 L-197,205 L-232,205 L-251,203 L-266,200 L-286,194 L-310,184 L-330,173 L-347,161 L-360,150 L-373,138 L-380,130 L-381,128 L-378,127 L-367,139 L-358,148 L-344,159 L-330,169 L-308,181 L-297,186 L-278,193 L-267,196 L-246,200 L-226,202 L-204,202 L-177,199 L-155,194 L-130,185 L-108,174 L-92,164 L-78,153 L-66,142 L-52,128 L-39,111 L-26,90 L-17,71 L-7,41 L-3,22 L-1,2 Z " fill="#645044" transform="translate(471,265)"/>
<path d="M0,0 L22,0 L46,4 L63,8 L87,17 L104,25 L121,35 L137,47 L151,59 L163,71 L172,82 L184,98 L197,121 L205,139 L213,165 L217,186 L218,194 L218,228 L216,228 L215,203 L212,178 L209,165 L205,150 L197,129 L186,108 L174,90 L161,74 L142,55 L125,42 L106,30 L81,18 L63,12 L44,7 L22,4 L0,2 Z " fill="#87573A" transform="translate(255,37)"/>
<path d="M0,0 L26,0 L52,3 L71,7 L95,15 L94,18 L85,16 L79,14 L77,15 L76,13 L67,11 L54,12 L53,9 L47,7 L43,9 L37,16 L30,15 L25,9 L17,7 L14,7 L10,5 L5,6 L1,7 L-3,6 L-13,6 L-18,8 L-20,10 L-24,9 L-24,7 L-39,11 L-53,15 L-63,19 L-68,21 L-71,20 L-67,17 L-64,15 L-51,10 L-28,4 Z " fill="#744228" transform="translate(241,39)"/>
<path d="M0,0 L5,5 L14,20 L23,37 L32,61 L37,80 L40,100 L41,111 L41,138 L38,164 L33,184 L29,195 L28,191 L33,174 L35,157 L29,157 L30,151 L22,150 L24,146 L19,146 L20,139 L23,138 L25,134 L27,133 L28,129 L32,127 L33,123 L34,121 L36,121 L36,123 L38,123 L37,97 L33,76 L29,61 L22,42 L15,27 L6,11 L0,2 Z " fill="#5C4132" transform="translate(430,129)"/>
<path d="M0,0 L2,3 L-8,19 L-19,40 L-27,61 L-32,79 L-35,95 L-37,115 L-37,139 L-34,163 L-28,189 L-21,208 L-9,233 L5,254 L13,264 L13,266 L9,264 L0,253 L-11,236 L-22,215 L-31,191 L-36,172 L-39,156 L-40,142 L-40,108 L-36,80 L-30,59 L-24,43 L-14,22 L-2,3 Z " fill="#7E4E34" transform="translate(79,127)"/>
<path d="M0,0 L4,1 L-13,9 L-27,17 L-42,27 L-53,36 L-63,45 L-77,59 L-90,76 L-101,94 L-109,110 L-113,119 L-118,132 L-123,151 L-126,167 L-128,187 L-128,207 L-126,225 L-123,244 L-121,255 L-123,255 L-128,234 L-131,210 L-131,186 L-128,161 L-123,138 L-116,118 L-104,93 L-94,77 L-85,65 L-73,51 L-59,37 L-45,26 L-31,16 L-9,4 Z " fill="#623823" transform="translate(172,56)"/>
<path d="M0,0 L7,1 L11,7 L17,7 L23,0 L26,3 L25,8 L23,8 L22,13 L17,18 L-20,17 L-19,13 L-15,12 L-16,5 L-15,2 L-13,1 L-2,1 Z " fill="#804425" transform="translate(265,20)"/>
<path d="M0,0 L2,1 L3,5 L9,9 L17,19 L22,19 L22,28 L13,31 L4,33 L-2,32 L-5,29 L-6,23 L-1,2 Z " fill="#684432" transform="translate(82,400)"/>
<path d="M0,0 L4,2 L6,4 L10,5 L10,8 L7,9 L6,12 L-23,19 L-32,22 L-45,26 L-50,27 L-52,20 L-48,17 L-42,17 L-39,18 L-34,17 L-34,14 L-36,13 L-34,7 L-31,9 L-20,8 L-16,9 L-16,7 L-12,6 L-11,7 L-6,7 L-4,5 L0,4 Z " fill="#7C4528" transform="translate(217,27)"/>
<path d="M0,0 L5,2 L22,12 L30,16 L36,18 L44,22 L55,25 L55,27 L61,27 L61,29 L67,29 L68,30 L77,32 L84,34 L86,30 L87,29 L94,29 L96,33 L101,36 L149,36 L170,32 L177,32 L175,34 L161,37 L134,40 L112,40 L87,37 L71,34 L54,29 L34,21 L13,10 L1,2 Z " fill="#433B35" transform="translate(133,428)"/>
<path d="M0,0 L3,0 L4,4 L7,3 L9,0 L11,7 L18,9 L20,12 L18,21 L16,25 L13,27 L7,27 L-1,20 L-7,14 L-5,7 L-1,6 Z " fill="#604839" transform="translate(294,472)"/>
<path d="M0,0 L6,0 L10,4 L16,20 L15,23 L6,23 L2,22 L-6,20 L-10,18 L-12,11 L-2,1 Z " fill="#844C2B" transform="translate(301,8)"/>
<path d="M0,0 L1,3 L-8,24 L-18,42 L-30,59 L-41,72 L-60,91 L-74,102 L-89,112 L-116,126 L-135,133 L-141,135 L-147,135 L-145,134 L-145,132 L-128,128 L-118,123 L-112,121 L-102,116 L-97,113 L-89,108 L-81,102 L-76,101 L-74,97 L-69,92 L-61,88 L-51,79 L-42,70 L-36,62 L-35,60 L-33,60 L-31,56 L-24,47 L-19,38 L-10,22 L-3,6 Z " fill="#443A34" transform="translate(457,325)"/>
<path d="M0,0 L15,0 L26,1 L26,4 L23,4 L23,9 L19,8 L14,7 L12,11 L11,15 L7,21 L7,25 L2,26 L-5,10 L-4,3 Z " fill="#7B4225" transform="translate(51,111)"/>
<path d="M0,0 L5,5 L14,20 L23,37 L32,61 L37,80 L40,100 L41,111 L41,138 L38,164 L33,184 L29,195 L28,191 L33,174 L35,160 L37,160 L37,150 L38,142 L38,112 L36,90 L30,64 L26,52 L22,42 L15,27 L6,11 L0,2 Z " fill="#5B3826" transform="translate(430,129)"/>
<path d="M0,0 L22,0 L46,4 L63,8 L87,17 L104,25 L121,35 L137,47 L137,50 L130,46 L119,38 L104,29 L81,18 L63,12 L44,7 L22,4 L0,2 Z " fill="#8F5838" transform="translate(255,37)"/>
<path d="M0,0 L2,3 L-8,19 L-19,40 L-27,61 L-32,79 L-35,95 L-37,115 L-38,134 L-40,134 L-40,108 L-36,80 L-30,59 L-24,43 L-14,22 L-2,3 Z " fill="#8B4E30" transform="translate(79,127)"/>
<path d="M0,0 L7,1 L16,5 L15,8 L13,8 L14,19 L12,16 L7,17 L5,19 L-2,21 L-5,22 L-6,15 L-6,6 L-3,1 Z " fill="#884A28" transform="translate(119,44)"/>
<path d="M0,0 L7,0 L19,9 L14,14 L5,14 L3,19 L2,21 L-7,21 L-5,6 L-2,1 Z " fill="#985932" transform="translate(160,22)"/>
<path d="M0,0 L28,0 L29,6 L26,11 L22,12 L22,14 L13,13 L11,12 L12,3 L5,3 L5,11 L-2,12 L-3,9 L-7,9 L-5,5 L-4,4 L1,4 Z " fill="#4B443F" transform="translate(240,470)"/>
<path d="M0,0 L6,0 L11,4 L18,12 L16,13 L10,12 L9,15 L-5,16 L-9,15 L-4,3 Z " fill="#9A5B34" transform="translate(206,8)"/>
<path d="M0,0 L2,3 L8,19 L13,37 L17,62 L17,96 L15,96 L14,71 L11,46 L8,33 L4,18 L-2,1 Z " fill="#7B4F38" transform="translate(456,169)"/>
<path d="M0,0 L3,3 L9,18 L18,35 L27,50 L37,63 L47,74 L54,82 L64,91 L67,92 L72,97 L78,102 L76,103 L64,94 L51,82 L41,72 L32,61 L22,47 L13,32 L2,9 Z " fill="#51382A" transform="translate(54,324)"/>
<path d="M0,0 L7,1 L25,1 L24,5 L18,14 L11,15 L5,10 L0,2 Z " fill="#664D3B" transform="translate(243,489)"/>
<path d="M0,0 L7,1 L13,10 L13,13 L0,13 L0,15 L-11,15 L-9,10 L-3,2 Z " fill="#9A5D36" transform="translate(254,3)"/>
<path d="M0,0 L5,5 L21,21 L35,32 L49,42 L66,52 L65,55 L46,44 L32,34 L19,23 L6,11 L-1,3 L-2,1 Z " fill="#75503B" transform="translate(92,392)"/>
<path d="M0,0 L6,0 L10,4 L13,13 L2,13 L-11,11 L-5,4 Z " fill="#985F39" transform="translate(301,8)"/>
<path d="M0,0 L7,1 L10,5 L10,16 L6,15 L5,12 L-7,10 L-11,7 L-11,5 Z " fill="#85512F" transform="translate(389,44)"/>
<path d="M0,0 L1,0 L2,8 L2,35 L-1,61 L-6,81 L-10,92 L-11,88 L-6,71 L-4,57 L-2,57 L-2,47 L-1,39 Z " fill="#4E392C" transform="translate(469,232)"/>
<path d="M0,0 Z M-6,1 Z M-2,1 L4,2 L7,2 L6,8 L4,12 L1,14 L-5,14 L-13,7 L-14,5 L-8,2 L-2,3 Z " fill="#69503D" transform="translate(306,485)"/>
<path d="M0,0 L2,0 L2,2 L9,4 L18,9 L20,11 L13,16 L6,16 L2,13 L0,4 Z " fill="#6A503B" transform="translate(154,469)"/>
<path d="M0,0 L8,1 L10,3 L9,6 L5,10 L3,10 L2,15 L-1,18 L-4,18 L-6,7 L-3,2 Z " fill="#8D522D" transform="translate(82,74)"/>
<path d="M0,0 L4,2 L5,4 L5,12 L0,16 L-9,19 L-8,13 L-7,9 L-5,4 Z " fill="#684632" transform="translate(497,293)"/>
<path d="M0,0 L4,3 L4,8 L2,11 L0,16 L-5,21 L-10,20 L-11,15 L-8,11 L-2,12 L-4,9 L-5,3 Z " fill="#67422D" transform="translate(96,199)"/>
<path d="M0,0 L3,1 L-7,10 L-23,21 L-40,31 L-49,35 L-48,31 L-27,20 L-10,8 Z " fill="#75503C" transform="translate(397,415)"/>
<path d="M0,0 L9,0 L20,3 L16,9 L13,11 L7,11 L2,6 Z " fill="#755E47" transform="translate(199,488)"/>
<path d="M0,0 L7,1 L10,5 L10,11 L9,13 L4,11 L-7,7 L-7,5 L-9,5 L-8,2 Z " fill="#834E2D" transform="translate(426,74)"/>
<path d="M0,0 L6,0 L9,6 L7,10 L4,12 L3,16 L-1,16 L-4,12 L-4,4 Z " fill="#7F4627" transform="translate(28,153)"/>
<path d="M0,0 L7,0 L11,4 L12,13 L-5,7 L-7,5 Z " fill="#965F3A" transform="translate(346,22)"/>
<path d="M0,0 L7,0 L13,5 L13,8 L6,7 L6,10 L-1,9 L-2,13 L-6,14 L-4,3 Z " fill="#9B5E37" transform="translate(160,22)"/>
<path d="M0,0 L2,0 L1,8 L-3,12 L-10,12 L-17,7 L-17,4 L-9,4 L-4,2 Z " fill="#69503C" transform="translate(356,473)"/>
<path d="M0,0 L11,0 L33,4 L53,10 L59,13 L55,14 L40,9 L11,3 L0,1 Z " fill="#663D26" transform="translate(275,41)"/>
<path d="M0,0 L7,1 L11,4 L1,10 L0,12 L-5,13 L-6,15 L-6,6 L-3,1 Z " fill="#9A6039" transform="translate(119,44)"/>
<path d="M0,0 L9,1 L10,4 L3,7 L-6,8 L-7,6 L-10,5 L-10,7 L-13,8 L-20,8 L-19,4 L-10,3 L-1,2 Z " fill="#8D4D29" transform="translate(216,20)"/>
<path d="M0,0 L4,5 L4,7 L-2,7 L-6,8 L-17,8 L-17,11 L-20,10 L-19,6 L-25,6 L-25,4 L-13,4 L-13,2 L0,2 Z " fill="#8E512C" transform="translate(267,14)"/>
<path d="M0,0 L2,0 L3,6 L6,6 L6,12 L14,15 L12,17 L5,18 L0,15 L-1,12 L-1,3 Z " fill="#6D4D37" transform="translate(114,445)"/>
<path d="M0,0 L8,0 L12,4 L16,4 L16,13 L14,13 L13,11 L7,9 L7,7 L0,5 L-1,1 Z " fill="#664130" transform="translate(88,415)"/>
<path d="M0,0 L3,0 L13,16 L22,33 L23,39 L20,38 L12,21 L1,3 Z " fill="#8C4F31" transform="translate(433,131)"/>
<path d="M0,0 L6,1 L20,6 L22,11 L12,9 L-3,4 L-3,2 Z " fill="#8A5330" transform="translate(337,28)"/>
<path d="M0,0 L1,0 L1,11 L-4,16 L-12,15 L-14,13 L-8,10 L-6,6 L-1,3 Z " fill="#684B38" transform="translate(398,447)"/>
<path d="M0,0 L7,0 L9,4 L14,8 L5,9 L-7,7 L-2,2 Z " fill="#564034" transform="translate(220,457)"/>
<path d="M0,0 L31,0 L31,3 L26,5 L23,3 L21,4 L17,2 L12,3 L8,4 L4,3 L-5,2 L-5,1 Z " fill="#7E4326" transform="translate(234,42)"/>
<path d="M0,0 L2,0 L2,12 L5,18 L-3,18 L-4,5 Z " fill="#544238" transform="translate(117,424)"/>
<path d="M0,0 L7,1 L10,5 L10,10 L4,8 L-7,5 L-7,3 Z " fill="#94613B" transform="translate(389,44)"/>
<path d="M0,0 L6,0 L4,6 L1,10 L-2,15 L-4,13 L-5,5 Z " fill="#8C4E29" transform="translate(51,111)"/>
<path d="M0,0 L5,0 L0,5 L-13,15 L-17,16 L-23,18 L-18,13 L-14,11 L-11,11 L-9,7 L-4,2 Z " fill="#543D32" transform="translate(392,415)"/>
<path d="M0,0 L6,1 L5,4 L0,7 L-9,8 L-10,11 L-15,12 L-15,9 L-10,8 L-8,4 Z " fill="#90512C" transform="translate(129,48)"/>
<path d="M0,0 L2,0 L4,4 L8,5 L9,10 L12,13 L5,14 L0,10 L-1,4 Z " fill="#6F4D35" transform="translate(77,419)"/>
<path d="M0,0 L17,0 L13,6 L6,7 L0,2 Z " fill="#755F48" transform="translate(248,497)"/>
<path d="M0,0 L16,5 L26,8 L26,13 L21,10 L14,7 L0,5 L-3,2 Z " fill="#824C2B" transform="translate(333,31)"/>
<path d="M0,0 L5,0 L3,6 L0,8 L-6,8 L-11,3 Z " fill="#715944" transform="translate(307,491)"/>
<path d="M0,0 L6,0 L5,3 L3,2 L1,6 L0,9 L-3,9 L-4,22 L-6,22 L-8,17 L-7,13 L-4,7 Z " fill="#844928" transform="translate(57,111)"/>
<path d="M0,0 L12,2 L15,4 L15,6 L12,8 L5,8 L1,5 Z " fill="#735942" transform="translate(155,477)"/>
<path d="M0,0 L36,0 L35,2 L30,3 L1,3 Z " fill="#5D524C" transform="translate(238,467)"/>
<path d="M0,0 L25,2 L26,6 L5,4 L0,2 Z " fill="#8D5531" transform="translate(289,19)"/>
<path d="M0,0 L8,1 L7,3 L3,5 L-2,10 L-5,11 L-6,7 L-3,2 Z " fill="#995C34" transform="translate(82,74)"/>
<path d="M0,0 L7,1 L8,6 L4,9 L-1,7 L-2,1 Z " fill="#754229" transform="translate(129,99)"/>
<path d="M0,0 L11,1 L24,3 L25,5 L13,5 L-1,2 Z " fill="#78503D" transform="translate(214,464)"/>
<path d="M0,0 L3,1 L1,7 L0,9 L-9,9 L-8,3 L-1,1 Z " fill="#8D502B" transform="translate(162,34)"/>
<path d="M0,0 L9,0 L20,3 L19,5 L9,5 L1,3 Z " fill="#6C533E" transform="translate(199,488)"/>
<path d="M0,0 L2,3 L3,8 L-5,11 L-8,11 L-6,6 Z " fill="#4F433C" transform="translate(424,391)"/>
<path d="M0,0 L5,5 L16,16 L13,18 L6,11 L-1,3 L-2,1 Z " fill="#694F42" transform="translate(92,392)"/>
<path d="M0,0 L20,0 L19,3 L1,3 Z " fill="#6C543F" transform="translate(246,494)"/>
<path d="M0,0 L7,1 L10,4 L10,11 L8,13 L6,11 L6,5 L4,5 L4,3 L0,3 Z " fill="#7C4C2E" transform="translate(456,111)"/>
<path d="M0,0 L2,0 L1,4 L-2,7 L-9,7 L-12,4 L-3,1 Z " fill="#705842" transform="translate(355,478)"/>
<path d="M0,0 L2,0 L3,6 L1,10 L-4,10 L-4,4 Z " fill="#86512F" transform="translate(28,153)"/>
<path d="M0,0 L6,1 L5,8 L0,7 L-1,6 L-1,1 Z " fill="#4B4745" transform="translate(163,399)"/>
<path d="M0,0 L3,1 L2,6 L-1,10 L-4,10 L-4,4 Z " fill="#4A4745" transform="translate(328,425)"/>
<path d="M0,0 L5,2 L1,9 L-4,9 L-6,5 L-1,5 Z " fill="#514841" transform="translate(454,381)"/>
<path d="M0,0 L4,1 L7,1 L2,6 L-6,5 L-4,2 Z " fill="#6B523D" transform="translate(392,457)"/>
<path d="M0,0 L5,1 L6,3 L10,5 L10,8 L3,7 L0,2 Z " fill="#775A41" transform="translate(113,455)"/>
<path d="M0,0 L4,1 L5,3 L0,7 L-9,6 L-7,3 L0,4 Z " fill="#90512C" transform="translate(174,29)"/>
<path d="M0,0 L3,0 L1,5 L0,7 L-2,7 L-3,10 L-5,10 L-4,3 Z " fill="#945933" transform="translate(51,111)"/>
<path d="M0,0 L15,5 L14,7 L4,6 L0,2 Z " fill="#4E433D" transform="translate(179,456)"/>
<path d="M0,0 L5,1 L15,6 L15,8 L9,6 L-2,3 L-2,1 Z " fill="#8E5935" transform="translate(384,46)"/>
<path d="M0,0 L7,1 L10,5 L10,7 L3,5 L2,2 L0,2 Z " fill="#8C5935" transform="translate(426,74)"/>
<path d="M0,0 L9,0 L9,2 L6,4 L0,4 L-3,1 Z " fill="#77614A" transform="translate(301,495)"/>
<path d="M0,0 L1,2 L5,4 L9,8 L9,10 L4,9 L1,6 Z " fill="#75543A" transform="translate(76,423)"/>
<path d="M0,0 L3,0 L1,4 L-8,7 L-10,6 L-2,1 Z " fill="#945832" transform="translate(129,48)"/>
<path d="M0,0 L4,1 L12,3 L11,5 L4,5 L0,2 Z " fill="#796049" transform="translate(156,480)"/>
<path d="M0,0 L4,1 L4,6 L-1,5 L-1,1 Z " fill="#4A4745" transform="translate(336,411)"/>
<path d="M0,0 L5,1 L4,6 L-1,4 Z " fill="#4A4745" transform="translate(244,442)"/>
<path d="M0,0 L2,0 L4,6 L-3,6 L-5,7 L-3,3 L-1,3 Z " fill="#524841" transform="translate(457,369)"/>
<path d="M0,0 L8,0 L4,4 L0,4 Z " fill="#4A4745" transform="translate(268,433)"/>
<path d="M0,0 L1,4 L-3,5 L-5,9 L-9,8 L-1,1 Z " fill="#4E443E" transform="translate(410,406)"/>
<path d="M0,0 L3,1 L0,4 L-7,4 L-7,2 Z " fill="#755E48" transform="translate(353,481)"/>
<path d="M0,0 L7,0 L4,2 L-7,5 L-4,2 Z " fill="#70503F" transform="translate(316,459)"/>
<path d="M0,0 Z M-3,1 L0,2 L-4,6 L-8,5 L-8,3 Z " fill="#4A4745" transform="translate(320,422)"/>
<path d="M0,0 L5,0 L6,4 L3,5 L0,3 Z " fill="#4A4745" transform="translate(330,419)"/>
<path d="M0,0 L2,0 L0,5 L-4,8 L-4,5 Z " fill="#79503B" transform="translate(428,382)"/>
<path d="M0,0 L2,0 L3,7 L-1,7 Z " fill="#834223" transform="translate(153,44)"/>
<path d="M0,0 L5,0 L5,4 L0,3 Z " fill="#4A4745" transform="translate(239,449)"/>
<path d="M0,0 L4,1 L4,6 L0,5 Z " fill="#4A4745" transform="translate(316,429)"/>
<path d="M0,0 L2,0 L4,7 L3,11 L0,4 Z " fill="#563725" transform="translate(50,312)"/>
<path d="M0,0 L2,0 L1,3 L-6,4 L-6,1 Z " fill="#96502E" transform="translate(212,41)"/>
<path d="M0,0 L2,1 L-3,6 L-6,5 L-4,5 L-3,2 Z " fill="#715842" transform="translate(397,457)"/>
<path d="M0,0 L7,3 L7,4 L-1,4 Z " fill="#4E443D" transform="translate(158,447)"/>
</svg>
