<?xml version="1.0" encoding="UTF-8"?>
<!-- Generator: visioncortex VTracer 0.6.5 -->
<svg version="1.1" xmlns="http://www.w3.org/2000/svg" width="114" height="100">
<path d="M0,0 L6,0 L22,8 L22,10 L27,8 L37,13 L46,18 L46,33 L51,34 L56,37 L56,58 L44,70 L37,68 L35,78 L29,84 L27,84 L27,86 L25,86 L24,89 L18,88 L5,82 L1,84 L-1,88 L-3,90 L-9,89 L-16,86 L-21,83 L-31,80 L-42,73 L-42,52 L-40,52 L-40,50 L-38,50 L-38,48 L-36,48 L-36,46 L-34,46 L-34,44 L-32,44 L-32,42 L-27,40 L-27,33 L-20,25 L-15,20 L-11,20 L-11,11 L-2,2 L0,2 Z M-27,40 Z " fill="#BA0606" transform="translate(58,10)"/>
<path d="M0,0 L6,1 L11,2 L15,0 L15,2 L13,3 L13,5 L19,6 L20,8 L20,22 L24,20 L24,24 L29,25 L30,27 L32,27 L35,24 L34,28 L36,29 L34,30 L30,29 L31,32 L38,36 L34,37 L30,35 L30,47 L25,51 L18,56 L17,54 L18,48 L16,48 L16,54 L11,53 L0,48 L-2,48 L-4,55 L-9,59 L-12,57 L-9,56 L-9,38 L-7,34 L-8,32 L-11,31 L-12,23 L-16,24 L-23,31 L-24,35 L-24,49 L-22,50 L-22,52 L-29,52 L-38,48 L-46,43 L-46,22 L-44,22 L-44,20 L-42,20 L-42,18 L-40,18 L-40,16 L-38,16 L-38,14 L-31,12 L-29,13 L-29,2 L-27,2 L-27,21 L-23,23 L-18,22 L-16,20 L-12,19 L-12,9 L-8,7 L-8,4 L-3,4 L-2,1 Z M0,49 Z " fill="#262025" transform="translate(62,40)"/>
<path d="M0,0 L5,1 L10,4 L10,25 L-2,37 L-9,35 L-11,45 L-17,51 L-19,51 L-19,53 L-21,53 L-22,56 L-28,55 L-41,49 L-45,51 L-47,55 L-49,57 L-55,56 L-62,53 L-67,49 L-64,49 L-64,47 L-67,46 L-67,30 L-60,22 L-57,19 L-53,20 L-53,28 L-49,29 L-48,33 L-50,35 L-51,53 L-53,54 L-50,55 L-47,52 L-44,45 L-42,45 L-41,43 L-41,46 L-35,47 L-26,51 L-26,45 L-24,45 L-24,52 L-15,46 L-13,44 L-12,32 L-3,33 L4,26 L7,25 L7,6 L0,12 L-3,17 L-8,17 L-8,15 L-11,14 L-4,7 L-2,2 L2,2 Z M-42,46 Z " fill="#CB4949" transform="translate(104,43)"/>
<path d="M0,0 L5,1 L17,7 L17,26 L8,35 L1,34 L-9,28 L-9,9 Z " fill="#EDBF03" transform="translate(62,42)"/>
<path d="M0,0 L6,2 L16,7 L16,26 L13,30 L8,29 L2,28 L-1,31 L-7,30 L-9,29 L-9,9 Z " fill="#FBF805" transform="translate(60,13)"/>
<path d="M0,0 L2,0 L3,2 L7,0 L9,2 L9,9 L13,10 L15,14 L12,16 L11,36 L13,38 L7,37 L0,34 L-8,29 L-8,8 L-6,8 L-6,6 L-4,6 L-4,4 L-2,4 L-2,2 L0,2 Z " fill="#CECDE0" transform="translate(24,54)"/>
<path d="M0,0 L3,0 L10,14 L9,18 L6,19 L4,24 L-2,25 L-4,32 L-8,34 L-8,36 L-10,36 L-12,40 L-14,40 L-15,44 L-18,44 L-20,49 L-22,51 L-25,51 L-25,47 L-27,47 L-29,41 L-27,37 L-22,35 L-20,30 L-15,28 L-17,24 L-17,19 L-13,19 L-13,21 L-10,19 L-6,19 L-4,12 L-2,12 L-2,10 L1,9 L-1,5 Z M-1,15 Z M4,15 L3,17 L5,17 Z M2,17 L0,20 L2,21 L3,17 Z M-10,24 L-9,28 L-8,30 L-6,30 L-8,25 Z M-14,29 L-13,32 Z M-13,32 Z M-12,33 L-11,35 Z M-19,34 Z M-22,36 L-22,40 L-20,40 L-21,36 Z M-16,38 Z M-26,40 Z M-24,46 Z " fill="#5A585A" transform="translate(35,6)"/>
<path d="M0,0 L3,0 L3,2 L8,0 L18,5 L27,10 L27,25 L25,25 L25,10 L19,9 L23,11 L23,30 L14,39 L13,39 L12,21 L2,16 L2,1 Z " fill="#F8F304" transform="translate(77,18)"/>
<path d="M0,0 L7,2 L10,4 L10,23 L1,30 L-2,30 L-1,23 L-3,23 L-3,29 L-8,28 L-16,24 L-15,15 L-10,13 L-2,5 Z " fill="#C34A49" transform="translate(81,65)"/>
<path d="M0,0 L3,2 L3,10 L8,11 L9,14 L6,16 L6,26 L0,29 L-2,31 L-7,30 L-10,28 L-10,10 Z " fill="#9B94C0" transform="translate(45,33)"/>
<path d="M0,0 L4,1 L4,9 L8,10 L9,14 L7,16 L6,34 L2,34 L1,32 L-3,31 L-3,22 L0,22 L-1,26 L1,27 L2,18 L0,18 L0,20 L-3,19 L-6,20 L-7,24 L-9,24 L-10,11 L-3,3 Z " fill="#DBD9E9" transform="translate(47,62)"/>
<path d="M0,0 L3,0 L3,17 L0,21 L-5,20 L-11,19 L-14,22 L-20,21 L-22,19 L-20,19 L-19,9 L-17,11 L-8,10 L-8,7 L-4,4 L-2,4 L-2,2 L0,2 Z " fill="#F89D05" transform="translate(73,22)"/>
<path d="M0,0 L5,1 L17,7 L17,16 L16,16 L16,9 L12,11 L7,16 L6,19 L2,18 L-5,15 L-5,13 L-9,13 L-8,8 Z " fill="#F9F608" transform="translate(62,42)"/>
<path d="M0,0 L6,0 L19,7 L17,8 L8,6 L2,4 L-6,12 L-7,32 L-3,34 L-6,34 L-10,33 L-11,25 L-14,25 L-22,33 L-25,32 L-25,43 L-32,44 L-32,42 L-27,40 L-27,33 L-20,25 L-15,20 L-11,20 L-11,11 L-2,2 L0,2 Z M-27,40 Z " fill="#8D847F" transform="translate(58,10)"/>
<path d="M0,0 L2,0 L2,20 L5,20 L9,12 L7,12 L7,10 L10,10 L12,17 L14,18 L15,11 L16,11 L16,29 L18,31 L12,30 L5,27 L-3,22 L-3,1 Z " fill="#958EB8" transform="translate(19,61)"/>
<path d="M0,0 L1,2 L3,2 L3,0 L5,0 L5,7 L4,9 L1,8 L3,4 L0,4 L0,13 L5,14 L5,16 L10,18 L13,15 L16,8 L18,8 L19,6 L19,9 L25,10 L34,14 L34,8 L36,8 L36,15 L41,11 L43,12 L41,16 L39,16 L38,19 L32,18 L19,12 L15,14 L13,18 L11,20 L5,19 L-2,16 L-7,12 L-4,12 L-4,10 L-7,9 L-6,6 L-4,6 L-4,1 Z M18,9 Z " fill="#928CAD" transform="translate(44,80)"/>
<path d="M0,0 L2,1 L2,20 L-7,27 L-10,27 L-9,20 L-15,21 L-16,18 L-14,18 L-13,16 L-11,18 L-9,9 L-4,4 L0,2 Z " fill="#BB0404" transform="translate(89,68)"/>
<path d="M0,0 L2,1 L2,20 L-4,24 L-9,28 L-10,23 L-10,12 L-7,7 L-4,6 L-2,2 Z " fill="#BB0606" transform="translate(110,48)"/>
<path d="M0,0 L7,1 L9,2 L10,9 L9,17 L15,19 L20,22 L21,39 L29,31 L30,12 L25,10 L28,9 L32,11 L32,26 L38,28 L34,29 L32,28 L31,33 L21,43 L17,44 L17,23 L13,21 L7,21 L7,3 L2,2 Z " fill="#2B120E" transform="translate(70,17)"/>
<path d="M0,0 L2,0 L3,7 L3,17 L-6,26 L-8,26 L-8,12 L-5,5 Z " fill="#FC9A00" transform="translate(76,51)"/>
<path d="M0,0 L5,1 L7,6 L7,11 L4,14 L-1,14 L0,18 L-4,20 L-11,6 L-10,2 L-7,2 L-5,6 Z M0,4 L1,6 Z M4,6 L2,10 L4,10 L5,6 Z M-4,9 Z M-3,11 Z M-2,13 Z " fill="#686668" transform="translate(49,0)"/>
<path d="M0,0 L1,0 L1,19 L-8,28 L-9,28 L-9,9 L-8,7 L-6,7 L-5,4 L0,2 Z " fill="#F79803" transform="translate(99,29)"/>
<path d="M0,0 L8,3 L8,5 L16,6 L16,23 L12,23 L11,21 L7,20 L7,11 L10,11 L9,15 L11,16 L12,7 L10,7 L10,9 L7,8 L4,9 L3,13 L1,13 Z " fill="#9E96C2" transform="translate(37,73)"/>
<path d="M0,0 L3,2 L3,10 L8,11 L9,14 L5,18 L1,17 L-10,12 L-8,8 Z " fill="#D6D5E7" transform="translate(45,33)"/>
<path d="M0,0 L4,2 L6,10 L8,14 L8,17 L6,17 L4,24 L-1,28 L-4,26 L-1,25 L-1,7 L1,3 Z " fill="#111038" transform="translate(54,71)"/>
<path d="M0,0 L4,0 L4,2 L8,2 L9,19 L1,15 L0,11 L5,11 L4,7 L2,10 L-4,8 L-5,5 L-4,2 Z " fill="#C94443" transform="translate(92,58)"/>
<path d="M0,0 L4,1 L7,2 L7,4 L11,4 L11,6 L14,6 L14,19 L13,19 L13,13 L10,12 L9,5 L6,5 L6,7 L8,7 L7,12 L4,16 L0,15 Z " fill="#A49BCA" transform="translate(20,66)"/>
<path d="M0,0 L3,1 L3,3 L6,1 L10,1 L12,5 L12,12 L6,16 L3,14 L-1,6 L-1,1 Z M6,6 L7,10 L8,12 L10,12 L8,7 Z " fill="#5C5A5C" transform="translate(19,24)"/>
<path d="M0,0 L1,2 L3,2 L1,18 L-2,21 L-5,21 L-5,17 L-7,17 L-9,11 L-7,7 L-2,5 Z M1,4 Z M-2,6 L-2,10 L0,10 L-1,6 Z M-6,10 Z M-4,16 Z " fill="#747274" transform="translate(15,36)"/>
<path d="M0,0 L2,0 L2,20 L10,25 L12,27 L9,28 L1,25 L-3,22 L-3,1 Z " fill="#8C8A90" transform="translate(19,61)"/>
<path d="M0,0 L0,3 L-2,3 L-2,12 L-6,12 L-6,14 L-9,17 L-15,16 L-17,14 L-15,14 L-14,4 L-12,6 L-3,5 L-3,2 Z " fill="#F7C50A" transform="translate(68,27)"/>
<path d="M0,0 L1,3 L7,4 L16,8 L16,2 L18,2 L18,9 L23,5 L25,6 L23,10 L21,10 L20,13 L14,12 L1,6 L-1,8 L-4,8 L-3,4 L-2,2 L0,2 Z M0,3 Z " fill="#524D51" transform="translate(62,86)"/>
<path d="M0,0 L2,0 L2,21 L-10,33 L-17,31 L-19,41 L-25,47 L-27,46 L-22,41 L-21,40 L-20,28 L-11,29 L-4,22 L0,20 Z " fill="#A9A1A6" transform="translate(112,47)"/>
<path d="M0,0 L3,0 L3,2 L8,0 L18,5 L27,10 L27,25 L25,25 L25,10 L16,9 L9,5 L5,6 L2,6 L2,1 Z " fill="#A5A3A7" transform="translate(77,18)"/>
<path d="M0,0 L7,2 L8,5 L3,9 L1,12 L-1,12 L-1,15 L-6,15 L-6,13 L-9,12 L-2,5 Z " fill="#C95251" transform="translate(81,65)"/>
<path d="M0,0 L2,1 L2,9 L6,7 L6,11 L11,12 L12,14 L14,14 L17,11 L16,15 L18,16 L16,17 L12,16 L13,19 L20,23 L16,24 L12,22 L12,34 L11,34 L10,16 L1,12 L0,14 Z " fill="#281516" transform="translate(80,53)"/>
<path d="M0,0 L3,0 L10,14 L9,18 L6,19 L3,16 L2,13 L-2,12 L-2,10 L1,9 L-1,5 Z " fill="#878687" transform="translate(35,6)"/>
<path d="M0,0 L1,0 L2,17 L9,18 L9,22 L4,27 L-2,25 L-1,22 L1,22 L1,20 L-1,19 Z " fill="#BD5445" transform="translate(76,20)"/>
<path d="M0,0 L6,2 L13,5 L13,7 L9,7 L8,16 L6,16 L3,10 L1,5 Z M5,16 Z " fill="#0D0807" transform="translate(57,73)"/>
<path d="M0,0 L4,0 L10,13 L9,17 L6,17 L0,5 Z " fill="#6C6A6C" transform="translate(0,45)"/>
<path d="M0,0 L5,0 L8,7 L7,11 L5,11 L4,15 L1,15 L0,8 L2,3 L0,3 Z M3,9 Z " fill="#464346" transform="translate(16,35)"/>
<path d="M0,0 L4,1 L4,9 L7,10 L3,10 L2,6 L0,12 L-5,11 L-5,9 L-8,8 Z " fill="#C4C2D9" transform="translate(47,62)"/>
<path d="M0,0 L6,0 L7,2 L7,8 L6,8 L6,22 L-1,30 L-5,33 L-8,31 L-3,28 L3,22 L4,3 L0,2 Z " fill="#582823" transform="translate(75,46)"/>
<path d="M0,0 L2,0 L2,19 L6,21 L10,23 L10,25 L4,23 L0,21 L-1,14 L-5,14 L-7,15 L-6,11 L-2,10 L0,11 Z " fill="#151317" transform="translate(33,42)"/>
<path d="M0,0 L4,1 L7,2 L7,4 L11,5 L9,8 L4,7 L2,15 L0,15 Z " fill="#F6D402" transform="translate(51,26)"/>
<path d="M0,0 L1,0 L1,20 L7,21 L5,23 L0,21 L-1,13 L-4,13 L-12,21 L-14,19 L-4,9 L-1,9 Z " fill="#3F3B43" transform="translate(48,22)"/>
<path d="M0,0 L5,1 L6,5 L1,10 L1,7 L-1,7 L-3,12 L-5,8 L-2,2 Z M0,4 L1,6 Z M-4,9 Z " fill="#999799" transform="translate(49,0)"/>
<path d="M0,0 L4,0 L4,2 L8,2 L8,9 L5,7 L4,8 L-3,7 L0,3 Z " fill="#B63D3C" transform="translate(71,78)"/>
<path d="M0,0 L6,1 L11,2 L15,0 L15,2 L13,3 L12,7 L4,3 L-1,4 L-6,8 L-8,7 L-8,4 L-3,4 L-2,1 Z " fill="#281911" transform="translate(62,40)"/>
<path d="M0,0 L7,1 L8,4 L13,6 L18,2 L16,6 L14,8 L8,7 L1,4 Z " fill="#7E7C85" transform="translate(41,92)"/>
<path d="M0,0 L7,1 L9,2 L10,9 L9,20 L7,21 L7,3 L2,2 Z " fill="#130B0C" transform="translate(70,17)"/>
<path d="M0,0 L3,0 L4,10 L-4,6 L-5,2 L0,2 Z " fill="#CB4847" transform="translate(97,67)"/>
<path d="M0,0 L1,3 L4,2 L3,6 L6,6 L7,2 L9,2 L9,7 L6,10 L1,10 L0,7 Z " fill="#5A585A" transform="translate(47,4)"/>
<path d="M0,0 L2,0 L2,7 L7,3 L9,4 L7,8 L5,8 L4,11 L-2,10 L-4,8 L0,6 Z " fill="#8D5D61" transform="translate(78,88)"/>
<path d="M0,0 L5,1 L9,5 L9,24 L8,24 L7,6 L0,5 L-3,5 L-2,2 L2,2 Z " fill="#6C575B" transform="translate(104,43)"/>
<path d="M0,0 L2,1 L2,9 L6,7 L6,11 L10,13 L10,15 L1,12 L0,14 Z " fill="#210F10" transform="translate(80,53)"/>
<path d="M0,0 L1,2 L3,2 L2,13 L0,13 L0,11 L-6,12 L-6,9 L-3,9 L-3,7 L-5,6 L-2,5 Z M1,4 Z M-2,6 L-2,10 L0,10 L-1,6 Z " fill="#C8C7C8" transform="translate(15,36)"/>
<path d="M0,0 L3,0 L6,9 L6,12 L3,11 L3,9 L1,9 L-1,5 Z " fill="#898789" transform="translate(35,6)"/>
<path d="M0,0 L4,0 L3,14 L0,15 Z " fill="#F2D30B" transform="translate(53,55)"/>
<path d="M0,0 L3,0 L5,3 L5,10 L-1,14 L-2,10 L3,10 L1,2 L-1,1 Z " fill="#262427" transform="translate(26,26)"/>
<path d="M0,0 L4,1 L6,3 L3,3 L1,13 L-5,19 L-7,18 L-2,13 L-1,12 Z " fill="#CAC8CD" transform="translate(92,75)"/>
<path d="M0,0 L1,0 L1,18 L0,18 L-1,12 L-5,13 L-8,15 L-10,13 L-5,9 L-1,8 Z " fill="#211F29" transform="translate(51,51)"/>
<path d="M0,0 L4,1 L7,2 L7,4 L11,4 L11,6 L15,6 L15,9 L11,8 L4,5 L4,3 L0,3 Z " fill="#FBF4C0" transform="translate(53,52)"/>
<path d="M0,0 L6,0 L19,7 L17,8 L8,6 L6,4 L5,2 L0,2 Z " fill="#989596" transform="translate(58,10)"/>
<path d="M0,0 L1,0 L3,10 L2,17 L-1,20 L-3,20 L-3,22 L-5,22 L-6,24 L-7,21 L-5,19 L0,16 L0,9 L-1,6 Z " fill="#CCCBCC" transform="translate(30,20)"/>
<path d="M0,0 L2,2 L8,1 L6,7 L4,10 L1,9 Z " fill="#5B4703" transform="translate(54,31)"/>
<path d="M0,0 L6,0 L7,5 L5,9 L3,9 L0,3 Z M3,3 Z " fill="#7A787A" transform="translate(31,18)"/>
<path d="M0,0 L1,2 L3,2 L3,0 L5,0 L5,7 L4,9 L1,8 L3,4 L0,4 L0,10 L-2,11 L-1,1 Z " fill="#3A3748" transform="translate(44,80)"/>
<path d="M0,0 L4,1 L11,4 L11,6 L14,7 L11,8 L7,7 L7,5 L3,4 L0,3 Z " fill="#E8E7F1" transform="translate(20,63)"/>
<path d="M0,0 L6,1 L11,3 L11,5 L14,5 L14,8 L10,7 L7,6 L7,4 L3,3 L0,2 Z " fill="#FCF7C0" transform="translate(51,24)"/>
<path d="M0,0 L2,0 L0,21 L-1,21 L-1,1 Z " fill="#1C1A21" transform="translate(19,61)"/>
<path d="M0,0 L2,0 L3,7 L3,15 L1,15 L0,3 L-5,7 L-3,2 Z " fill="#FCAE08" transform="translate(76,51)"/>
<path d="M0,0 L6,2 L10,5 L2,5 L1,11 L0,11 Z " fill="#AFA8D3" transform="translate(36,45)"/>
<path d="M0,0 L5,1 L9,0 L11,4 L7,6 L4,5 L4,3 L0,3 Z " fill="#D4D2E5" transform="translate(43,43)"/>
<path d="M0,0 L1,0 L2,18 L-2,23 L-5,22 L-1,18 Z " fill="#462220" transform="translate(100,30)"/>
<path d="M0,0 L6,2 L5,4 L3,4 L2,8 L-1,8 L-2,2 L0,2 Z M1,2 Z " fill="#787577" transform="translate(18,42)"/>
<path d="M0,0 L2,1 L-5,9 L-9,12 L-12,10 L-7,7 Z " fill="#401E15" transform="translate(79,67)"/>
<path d="M0,0 L3,0 L6,8 L6,11 L4,11 L2,8 L-1,10 L1,5 L2,2 L0,2 Z " fill="#4F4B61" transform="translate(26,71)"/>
<path d="M0,0 L4,2 L-1,9 L-2,14 L-3,14 L-3,5 L1,3 Z " fill="#29252F" transform="translate(38,65)"/>
<path d="M0,0 L1,3 L2,7 L-2,9 L-4,6 L-3,2 Z " fill="#7D7B7C" transform="translate(47,11)"/>
<path d="M0,0 L0,3 L-3,8 L-8,8 L-8,6 L-11,5 L-8,4 L-4,5 L-3,2 Z " fill="#D79999" transform="translate(104,52)"/>
<path d="M0,0 L8,1 L8,3 L11,3 L11,6 L7,5 L0,2 Z " fill="#E8E7F3" transform="translate(39,45)"/>
<path d="M0,0 L7,2 L6,6 L-1,4 Z " fill="#4E4A61" transform="translate(39,51)"/>
<path d="M0,0 L2,2 L-7,11 L-9,9 Z " fill="#36343D" transform="translate(43,32)"/>
<path d="M0,0 L2,0 L1,5 L-3,8 L-6,8 L-6,6 L-4,6 L-4,4 L-2,4 L-2,2 L0,2 Z " fill="#8B8A91" transform="translate(24,54)"/>
<path d="M0,0 L2,0 L3,4 L6,6 L6,8 L0,7 L-2,5 L0,5 Z " fill="#E6BA09" transform="translate(53,36)"/>
<path d="M0,0 L1,3 L4,6 L0,7 L-4,8 L-3,4 L-2,2 L0,2 Z " fill="#62616A" transform="translate(62,86)"/>
<path d="M0,0 L7,1 L3,6 L0,5 L-1,2 Z " fill="#943636" transform="translate(91,62)"/>
<path d="M0,0 L4,1 L-4,7 L-6,6 L-6,3 L-1,3 Z " fill="#2D2017" transform="translate(60,41)"/>
<path d="M0,0 L2,1 L-1,5 L-3,5 L-3,8 L-7,8 L-7,5 L-2,2 Z " fill="#DBA6A6" transform="translate(83,72)"/>
<path d="M0,0 L6,1 L6,3 L3,4 L1,6 L-1,5 Z M-2,5 Z M-3,6 Z " fill="#BA5352" transform="translate(81,65)"/>
<path d="M0,0 L2,0 L2,6 L-1,4 L-5,4 L-4,2 Z " fill="#C94747" transform="translate(77,81)"/>
<path d="M0,0 L2,1 L-1,6 L-2,8 L-5,7 L-4,2 Z " fill="#BD4B4A" transform="translate(92,58)"/>
<path d="M0,0 L4,1 L1,2 L3,7 L0,7 L-3,4 L-3,2 Z " fill="#B4B1B3" transform="translate(25,25)"/>
<path d="M0,0 L3,1 L2,3 L7,4 L7,7 L0,3 Z " fill="#B65454" transform="translate(92,69)"/>
<path d="M0,0 L4,1 L7,3 L3,4 L3,10 L2,10 L2,2 L0,2 Z " fill="#F8D011" transform="translate(51,26)"/>
<path d="M0,0 L7,1 L9,2 L9,6 L7,6 L7,3 L2,2 Z " fill="#31291D" transform="translate(70,17)"/>
<path d="M0,0 L7,0 L11,4 L5,3 L0,1 Z " fill="#918F94" transform="translate(26,88)"/>
<path d="M0,0 L4,1 L7,2 L7,5 L4,5 L4,3 L0,3 Z " fill="#F9F1B0" transform="translate(53,52)"/>
<path d="M0,0 L6,2 L10,5 L4,4 L0,3 Z " fill="#3F281E" transform="translate(79,34)"/>
<path d="M0,0 L4,0 L4,2 L7,2 L7,4 L0,3 Z " fill="#EAE9F1" transform="translate(38,71)"/>
<path d="M0,0 L3,3 L2,7 L0,4 L-4,3 L-4,1 Z " fill="#D2CFCF" transform="translate(37,15)"/>
<path d="M0,0 L4,2 L5,7 L0,7 L1,3 Z " fill="#352F3C" transform="translate(54,71)"/>
<path d="M0,0 L3,2 L3,4 L-1,6 L-3,2 L0,2 Z " fill="#C1BFD0" transform="translate(36,64)"/>
<path d="M0,0 L2,2 L-4,6 L-5,2 L0,2 Z " fill="#393637" transform="translate(29,34)"/>
<path d="M0,0 L7,3 L6,5 L0,3 L-2,1 Z " fill="#483F2B" transform="translate(89,22)"/>
<path d="M0,0 L4,4 L-1,5 L-2,2 L0,2 Z " fill="#551F1F" transform="translate(75,84)"/>
<path d="M0,0 L3,1 L1,10 L0,10 Z " fill="#7D1313" transform="translate(64,78)"/>
<path d="M0,0 L2,1 L2,3 L-2,5 L-4,4 L-3,1 Z " fill="#C84645" transform="translate(87,67)"/>
<path d="M0,0 L3,2 L3,4 L0,4 L-1,7 L-2,3 Z " fill="#7F7C7E" transform="translate(24,32)"/>
<path d="M0,0 L3,0 L4,6 L1,5 Z " fill="#1D1A1C" transform="translate(37,12)"/>
</svg>
