<?xml version="1.0" encoding="UTF-8"?>
<!-- Generator: visioncortex VTracer 0.6.5 -->
<svg version="1.1" xmlns="http://www.w3.org/2000/svg" width="600" height="600">
<path d="M0,0 L600,0 L600,600 L0,600 Z " fill="#FEFEFE" transform="translate(0,0)"/>
<path d="M0,0 L22,0 L38,5 L50,11 L54,14 L54,6 L58,3 L87,3 L91,6 L91,222 L86,227 L78,229 L63,229 L54,226 L52,223 L52,159 L38,167 L23,172 L0,172 L-13,168 L-24,162 L-36,152 L-46,139 L-53,125 L-57,114 L-60,93 L-60,71 L-57,55 L-52,42 L-45,30 L-36,20 L-27,12 L-14,4 L-4,1 Z " fill="#121212" transform="translate(477,218)"/>
<path d="M0,0 L81,0 L88,3 L91,7 L91,160 L90,174 L84,192 L77,203 L66,214 L52,222 L36,227 L31,228 L9,228 L-3,225 L-19,217 L-31,206 L-34,201 L-33,194 L-26,183 L-16,171 L-14,170 L-8,170 L-1,176 L6,185 L14,189 L30,189 L40,184 L45,177 L48,169 L49,165 L50,39 L-5,39 L-8,36 L-8,6 L-4,1 Z " fill="#131313" transform="translate(285,218)"/>
<path d="M0,0 L8,0 L22,7 L27,12 L27,18 L8,59 L-8,93 L-21,121 L-38,157 L-55,193 L-70,224 L-74,228 L-82,227 L-97,219 L-100,215 L-100,209 L-82,170 L-67,137 L-52,105 L-40,79 L-26,49 L-10,15 L-3,2 Z " fill="#454545" transform="translate(212,190)"/>
<path d="M0,0 L15,0 L26,4 L34,11 L39,21 L41,30 L41,69 L36,84 L30,92 L22,97 L15,99 L2,99 L-7,96 L-13,92 L-21,83 L-26,72 L-30,56 L-30,34 L-25,19 L-19,11 L-11,4 L-5,1 Z " fill="#FCFCFC" transform="translate(486,254)"/>
<path d="M0,0 L10,0 L22,6 L28,14 L30,18 L30,32 L25,42 L19,47 L10,51 L-1,51 L-9,47 L-16,40 L-20,31 L-20,19 L-16,11 L-9,4 Z " fill="#141414" transform="translate(350,152)"/>
<path d="M0,0 L12,0 L19,3 L27,9 L32,19 L32,31 L27,41 L20,47 L13,50 L-1,50 L-11,44 L-16,37 L-18,31 L-18,21 L-16,13 L-9,5 Z " fill="#464646" transform="translate(50,339)"/>
</svg>
