<?xml version="1.0" encoding="UTF-8"?>
<!-- Generator: visioncortex VTracer 0.6.5 -->
<svg version="1.1" xmlns="http://www.w3.org/2000/svg" width="600" height="600">
<path d="M0,0 L39,0 L39,172 L64,173 L63,162 L64,153 L68,144 L72,138 L80,131 L88,127 L97,124 L112,121 L145,117 L156,114 L162,109 L163,103 L160,98 L155,95 L148,93 L130,93 L119,97 L115,98 L114,101 L112,101 L110,105 L108,110 L69,110 L70,100 L74,91 L79,83 L81,83 L83,79 L93,71 L108,64 L121,61 L132,60 L145,60 L162,62 L174,66 L184,72 L187,74 L187,76 L190,77 L193,81 L193,83 L195,83 L200,95 L202,104 L202,186 L219,189 L228,191 L230,195 L190,191 L171,189 L125,186 L91,185 L31,185 L-3,186 L-50,189 L-82,192 L-131,198 L-162,203 L-186,207 L-211,212 L-243,219 L-279,228 L-302,235 L-328,243 L-353,252 L-365,257 L-370,259 L-370,256 L-359,250 L-343,242 L-327,235 L-310,228 L-308,228 L-307,223 L-296,191 L-291,177 L-284,157 L-275,131 L-270,117 L-263,96 L-259,86 L-251,62 L-243,40 L-234,14 L-185,14 L-181,23 L-172,49 L-166,67 L-162,77 L-151,109 L-145,127 L-141,137 L-130,169 L-126,180 L-125,181 L-110,179 L-101,179 L-107,167 L-111,151 L-111,123 L-107,107 L-101,95 L-93,84 L-89,79 L-77,70 L-65,64 L-53,61 L-31,61 L-19,64 L-5,71 L-5,73 L0,75 Z M-210,60 L-220,90 L-228,113 L-234,130 L-234,134 L-184,134 L-187,123 L-192,107 L-196,97 L-204,73 L-209,60 Z M-43,97 L-53,101 L-61,107 L-68,117 L-71,124 L-72,129 L-72,145 L-69,155 L-62,166 L-52,173 L-50,174 L-38,174 L-20,173 L-14,169 L-14,167 L-11,166 L-11,164 L-9,164 L-5,158 L-1,147 L0,144 L0,130 L-3,120 L-10,109 L-18,102 L-26,98 L-30,97 Z M164,142 L155,145 L141,148 L120,151 L111,154 L105,158 L103,161 L103,169 L109,175 L112,176 L136,178 L148,175 L156,171 L161,166 L165,160 L165,142 Z M-247,171 L-251,180 L-256,196 L-260,206 L-261,211 L-252,209 L-231,203 L-214,199 L-198,195 L-165,188 L-170,173 L-171,171 Z " fill="#000000" transform="translate(370,150)"/>
</svg>
