<?xml version="1.0" encoding="UTF-8"?>
<!-- Generator: visioncortex VTracer 0.6.5 -->
<svg version="1.1" xmlns="http://www.w3.org/2000/svg" width="735" height="372">
<path d="M0,0 L2,4 L7,29 L16,65 L27,107 L39,149 L46,149 L83,137 L128,121 L164,108 L177,103 L179,104 L166,117 L158,124 L152,131 L147,136 L130,153 L123,161 L108,177 L96,190 L84,203 L75,213 L61,228 L62,235 L75,264 L93,304 L113,345 L123,364 L125,369 L121,367 L107,357 L89,343 L71,330 L58,320 L41,307 L28,297 L11,284 L2,277 L-3,278 L-16,288 L-30,299 L-43,309 L-60,322 L-80,337 L-92,347 L-106,358 L-120,369 L-124,371 L-122,366 L-113,346 L-106,331 L-93,303 L-82,277 L-70,251 L-61,232 L-62,225 L-68,218 L-68,216 L-70,216 L-77,208 L-88,196 L-91,193 L-91,191 L-93,191 L-100,183 L-136,147 L-143,139 L-169,113 L-177,106 L-182,100 L-178,101 L-162,107 L-121,121 L-80,135 L-47,146 L-37,147 L-19,76 L-12,49 L-2,9 Z " fill="#F48F15" transform="translate(365,0)"/>
<path d="M0,0 L2,4 L7,29 L16,65 L27,107 L39,149 L46,149 L83,137 L128,121 L164,108 L177,103 L179,104 L166,117 L158,124 L152,131 L147,136 L130,153 L123,161 L108,177 L96,190 L84,203 L75,213 L61,228 L62,235 L65,243 L62,253 L57,256 L53,260 L49,267 L47,271 L45,268 L40,264 L36,259 L30,250 L23,240 L14,227 L5,214 L2,209 L2,207 L-1,207 L-4,202 L-6,195 L-10,193 L-14,184 L-14,181 L-16,181 L-24,167 L-25,164 L-28,161 L-30,156 L-32,156 L-37,149 L-33,132 L-15,60 L-5,22 Z " fill="#33909F" transform="translate(365,0)"/>
<path d="M0,0 L2,0 L10,13 L17,23 L26,36 L34,47 L37,52 L37,54 L40,55 L45,60 L49,59 L53,52 L55,52 L57,48 L59,46 L62,46 L63,41 L64,36 L67,39 L76,59 L92,95 L114,140 L123,157 L125,162 L121,160 L107,150 L89,136 L71,123 L58,113 L41,100 L28,90 L11,77 L2,70 L-3,71 L-16,81 L-30,92 L-43,102 L-60,115 L-80,130 L-92,140 L-106,151 L-115,157 L-113,153 L-105,143 L-93,127 L-80,110 L-67,93 L-53,75 L-47,67 L-34,50 L-24,36 L-12,19 L-1,1 Z " fill="#6D3009" transform="translate(365,207)"/>
<path d="M0,0 L2,0 L-1,9 L-10,26 L-24,45 L-38,60 L-49,70 L-64,80 L-78,87 L-109,98 L-125,103 L-145,109 L-191,124 L-219,133 L-236,138 L-240,137 L-233,130 L-229,129 L-228,125 L-215,111 L-206,100 L-192,85 L-182,76 L-171,70 L-155,64 L-127,54 L-91,40 L-71,32 L-59,27 L-36,17 L-16,8 Z " fill="#10394B" transform="translate(733,34)"/>
<path d="M0,0 L6,2 L21,10 L44,20 L54,24 L95,41 L140,59 L154,64 L166,69 L174,73 L189,87 L208,106 L215,114 L233,132 L240,140 L243,144 L233,141 L191,125 L144,109 L112,98 L79,86 L60,76 L47,66 L37,57 L26,46 L15,31 L6,15 L0,1 Z " fill="#13394D" transform="translate(0,33)"/>
<path d="M0,0 L10,3 L53,15 L82,24 L169,53 L196,64 L194,66 L153,69 L126,70 L114,71 L97,71 L77,67 L59,61 L45,54 L32,44 L27,39 L22,34 L19,31 L19,29 L17,29 L6,13 Z " fill="#2B4556" transform="translate(38,119)"/>
<path d="M0,0 L2,1 L-6,15 L-19,32 L-27,40 L-39,49 L-56,58 L-77,65 L-91,68 L-99,69 L-116,69 L-171,66 L-193,63 L-197,62 L-197,60 L-160,48 L-125,38 L-96,29 L-67,20 L-41,12 L-10,3 Z " fill="#294456" transform="translate(693,121)"/>
<path d="M0,0 L4,1 L7,2 L7,4 L11,6 L20,11 L34,22 L50,32 L60,39 L76,49 L87,56 L102,65 L131,81 L160,96 L171,101 L180,105 L180,108 L164,114 L136,125 L124,129 L122,129 L116,120 L114,116 L112,116 L105,108 L94,96 L91,93 L91,91 L89,91 L82,83 L46,47 L39,39 L13,13 L5,6 Z " fill="#D06506" transform="translate(183,100)"/>
<path d="M0,0 L2,1 L-11,14 L-19,21 L-25,28 L-30,33 L-47,50 L-54,58 L-69,74 L-81,87 L-93,100 L-102,110 L-116,125 L-123,124 L-154,112 L-165,107 L-173,103 L-170,100 L-151,92 L-133,84 L-109,72 L-89,61 L-87,61 L-87,59 L-75,52 L-63,44 L-45,31 L-25,17 L-13,9 L-15,8 L-19,7 Z " fill="#0D3245" transform="translate(542,103)"/>
<path d="M0,0 L3,3 L12,41 L24,86 L33,119 L38,136 L37,141 L30,152 L21,165 L12,177 L3,189 L0,191 L-1,189 L-1,56 Z " fill="#186A7B" transform="translate(366,13)"/>
<path d="M0,0 L24,9 L54,19 L95,33 L128,44 L138,46 L143,52 L143,54 L145,54 L148,59 L148,61 L151,62 L156,72 L159,77 L159,79 L161,79 L166,91 L171,96 L173,101 L174,103 L169,102 L153,95 L131,84 L109,72 L86,59 L75,52 L58,41 L47,34 L35,26 L23,18 L10,8 L0,2 Z " fill="#FAA922" transform="translate(190,102)"/>
<path d="M0,0 L2,4 L3,14 L2,14 L1,69 L1,207 L-1,207 L-4,202 L-6,195 L-10,193 L-14,184 L-14,181 L-16,181 L-24,167 L-25,164 L-28,161 L-30,156 L-32,156 L-37,149 L-33,132 L-15,60 L-5,22 Z " fill="#70B3BD" transform="translate(365,0)"/>
<path d="M0,0 L3,1 L-3,6 L-14,13 L-19,15 L-19,17 L-29,24 L-41,32 L-49,36 L-51,36 L-51,38 L-78,53 L-101,65 L-115,72 L-134,82 L-157,93 L-178,103 L-188,107 L-206,116 L-208,115 L-195,101 L-186,90 L-172,75 L-162,66 L-151,60 L-135,54 L-107,44 L-71,30 L-51,22 L-39,17 L-16,7 Z " fill="#287382" transform="translate(713,44)"/>
<path d="M0,0 L1,0 L1,68 L-10,76 L-24,87 L-38,98 L-47,105 L-63,117 L-80,130 L-96,143 L-110,154 L-114,156 L-112,152 L-104,142 L-92,126 L-79,109 L-66,92 L-52,74 L-46,66 L-33,49 L-23,35 L-11,18 Z " fill="#8E460C" transform="translate(364,208)"/>
<path d="M0,0 L30,3 L51,5 L75,11 L80,14 L83,17 L95,22 L125,32 L127,34 L108,42 L88,49 L74,52 L64,52 L52,50 L40,45 L31,39 L21,30 L12,20 L1,4 Z " fill="#1F3648" transform="translate(83,191)"/>
<path d="M0,0 L0,3 L-6,13 L-14,24 L-27,37 L-41,46 L-59,52 L-80,52 L-103,45 L-124,36 L-126,34 L-116,30 L-87,21 L-79,18 L-77,14 L-64,8 L-53,6 L-17,3 Z " fill="#1E384A" transform="translate(649,190)"/>
<path d="M0,0 L10,3 L39,15 L56,21 L68,26 L76,30 L91,44 L110,63 L117,71 L118,75 L115,77 L126,85 L131,90 L126,88 L114,81 L103,75 L87,66 L71,58 L48,46 L26,34 L4,22 L-10,14 L-8,13 L-8,10 L-3,11 L-3,14 L-2,13 L0,9 L4,9 L4,7 L0,6 L-4,3 L0,3 Z " fill="#2A7687" transform="translate(98,76)"/>
<path d="M0,0 L6,2 L21,10 L44,20 L54,24 L95,41 L98,42 L98,46 L96,47 L102,50 L102,52 L98,53 L97,59 L93,55 L90,53 L90,56 L85,55 L74,48 L66,46 L64,50 L63,52 L57,52 L57,67 L60,68 L55,70 L55,68 L48,67 L36,56 L26,46 L15,31 L6,15 L0,1 Z " fill="#0C4759" transform="translate(0,33)"/>
<path d="M0,0 L2,0 L-1,9 L-10,26 L-24,45 L-38,60 L-49,70 L-64,80 L-67,82 L-74,82 L-72,73 L-70,73 L-70,71 L-68,71 L-68,69 L-76,69 L-75,65 L-78,64 L-77,59 L-82,59 L-85,59 L-94,64 L-103,69 L-109,69 L-106,66 L-85,55 L-73,48 L-71,48 L-71,46 L-58,39 L-43,29 L-39,27 L-39,25 L-28,18 L-19,12 L-18,9 Z " fill="#0C4355" transform="translate(733,34)"/>
<path d="M0,0 L24,5 L64,14 L77,17 L74,19 L33,31 L1,38 L-14,40 L-34,40 L-31,35 L-19,22 L-6,7 Z " fill="#0D3549" transform="translate(475,191)"/>
<path d="M0,0 L5,3 L14,14 L30,31 L35,36 L35,39 L14,39 L-3,37 L-31,30 L-69,18 L-75,16 L-72,14 Z " fill="#F59415" transform="translate(257,192)"/>
<path d="M0,0 L10,3 L53,15 L82,24 L169,53 L196,64 L194,66 L184,67 L139,67 L139,62 L135,63 L131,62 L131,47 L125,46 L123,47 L123,45 L116,43 L115,46 L108,47 L102,45 L102,43 L95,42 L95,40 L97,40 L97,38 L95,38 L95,35 L91,34 L89,30 L81,31 L76,30 L75,28 L66,27 L65,28 L55,28 L55,24 L51,24 L51,22 L47,20 L47,18 L43,19 L41,15 L38,14 L27,15 L27,18 L25,18 L27,23 L27,29 L24,28 L23,26 L22,28 L18,27 L12,22 L6,13 Z M45,15 Z M44,16 Z " fill="#2F495B" transform="translate(38,119)"/>
<path d="M0,0 L37,12 L61,19 L81,23 L90,24 L88,27 L86,27 L86,29 L77,35 L67,39 L63,40 L46,40 L31,36 L8,25 L-8,16 L-17,9 L-18,6 Z " fill="#152E41" transform="translate(502,232)"/>
<path d="M0,0 L3,3 L12,23 L28,59 L50,104 L54,112 L53,116 L44,105 L35,94 L33,90 L31,90 L24,81 L16,71 L7,61 L-2,50 L-18,29 L-21,24 L-16,24 L-11,16 L-9,16 L-7,12 L-5,10 L-2,10 L-1,5 Z " fill="#975E33" transform="translate(429,243)"/>
<path d="M0,0 L9,2 L21,6 L16,11 L6,18 L-15,30 L-32,37 L-43,40 L-59,40 L-67,38 L-75,34 L-84,26 L-84,24 L-61,20 L-30,11 L-2,1 Z " fill="#152E42" transform="translate(227,232)"/>
<path d="M0,0 L9,6 L22,11 L33,16 L60,26 L63,36 L65,41 L62,51 L57,54 L53,58 L49,65 L47,69 L45,66 L40,62 L36,57 L30,48 L23,38 L14,25 L5,12 L0,3 Z " fill="#4B828D" transform="translate(365,202)"/>
<path d="M0,0 L10,2 L26,12 L42,21 L53,27 L52,29 L54,34 L53,36 L48,37 L51,38 L50,43 L47,44 L47,40 L38,42 L36,44 L18,42 L-1,33 L-13,25 L-17,21 L-11,21 L-9,23 L-9,21 L-9,6 L-3,6 L-1,2 Z " fill="#0A3D50" transform="translate(66,79)"/>
<path d="M0,0 L2,3 L-6,16 L-16,31 L-29,49 L-38,61 L-44,69 L-57,86 L-69,101 L-78,113 L-88,126 L-100,142 L-109,154 L-112,157 L-114,161 L-120,166 L-122,166 L-120,161 L-111,141 L-104,126 L-91,98 L-89,93 L-85,92 L-85,89 L-83,89 L-83,85 L-80,86 L-80,88 L-76,88 L-75,90 L-72,90 L-70,86 L-66,86 L-65,84 L-56,81 L-55,77 L-51,73 L-50,70 L-48,70 L-48,68 L-50,68 L-49,64 L-48,59 L-48,49 L-44,48 L-43,43 L-37,44 L-39,50 L-39,56 L-36,56 L-36,51 L-29,45 L-26,41 L-25,36 L-22,36 L-18,29 L-16,29 L-16,24 L-13,24 L-12,20 L-10,18 L-9,13 L-6,12 L-5,8 L-3,8 L-3,6 L-6,5 L0,3 Z " fill="#F08917" transform="translate(363,205)"/>
<path d="M0,0 L2,0 L3,8 L3,38 L20,38 L21,33 L19,31 L19,25 L26,23 L28,28 L31,28 L28,18 L28,9 L30,7 L39,38 L38,43 L31,54 L22,67 L13,79 L4,91 L1,93 L0,91 Z " fill="#156373" transform="translate(365,111)"/>
<path d="M0,0 L4,5 L13,20 L16,24 L16,27 L0,38 L-15,46 L-40,57 L-57,64 L-59,63 L-47,50 L-36,38 L-25,26 L-11,11 Z " fill="#0F394B" transform="translate(257,247)"/>
<path d="M0,0 L7,6 L21,21 L28,29 L38,39 L43,45 L51,52 L58,59 L58,61 L62,63 L59,64 L28,51 L12,43 L-2,35 L-15,25 L-15,21 L-4,6 Z " fill="#0E364A" transform="translate(471,248)"/>
<path d="M0,0 L3,1 L-3,6 L-14,13 L-19,15 L-19,17 L-29,24 L-41,32 L-49,36 L-51,36 L-51,38 L-78,53 L-92,60 L-98,62 L-102,63 L-104,62 L-103,58 L-107,59 L-108,56 L-114,54 L-114,51 L-110,50 L-109,48 L-104,46 L-99,47 L-96,44 L-90,44 L-88,41 L-92,41 L-92,38 L-61,26 L-42,18 L-9,4 Z " fill="#247684" transform="translate(713,44)"/>
<path d="M0,0 L10,3 L39,15 L56,21 L59,24 L57,24 L56,27 L55,25 L52,25 L52,23 L42,25 L39,25 L39,29 L37,29 L37,27 L30,27 L28,25 L28,23 L21,21 L22,25 L22,29 L27,28 L30,31 L35,32 L38,35 L44,34 L47,34 L48,40 L52,41 L55,44 L71,52 L87,60 L110,74 L125,84 L131,89 L128,89 L114,81 L103,75 L87,66 L71,58 L48,46 L26,34 L4,22 L-10,14 L-8,13 L-8,10 L-3,11 L-3,14 L-2,13 L0,9 L4,9 L4,7 L0,6 L-4,3 L0,3 Z " fill="#2D7888" transform="translate(98,76)"/>
<path d="M0,0 L3,4 L2,10 L3,19 L6,21 L5,40 L4,52 L3,53 L2,83 L-1,83 L1,88 L-1,88 L-2,91 L-3,87 L-14,87 L-16,86 L-17,83 L-22,82 L-20,71 L-3,3 L-1,1 L0,6 L0,3 Z " fill="#79BAC2" transform="translate(351,65)"/>
<path d="M0,0 L7,1 L8,1 L8,6 L7,7 L9,8 L8,12 L14,11 L16,12 L16,14 L14,14 L14,16 L12,16 L12,23 L11,24 L15,26 L1,32 L-14,37 L-25,38 L-27,36 L-25,34 L-21,34 L-21,32 L-24,33 L-25,29 L-23,28 L-16,28 L-16,26 L-24,25 L-24,22 L-33,24 L-40,27 L-49,29 L-51,27 L-49,23 L-33,15 L-23,11 L-18,11 L-8,5 Z " fill="#0C3B4C" transform="translate(649,91)"/>
<path d="M0,0 L4,1 L2,5 L-1,5 L-2,10 L-5,11 L-9,9 L-5,9 L-5,5 L-16,10 L-10,10 L-8,12 L-8,14 L-1,17 L-2,20 L2,21 L4,18 L8,18 L8,16 L10,15 L16,15 L17,13 L19,14 L19,16 L-1,25 L-11,29 L-31,38 L-56,51 L-66,57 L-68,57 L-66,53 L-55,41 L-48,33 L-39,23 L-27,12 L-16,6 Z " fill="#2A7181" transform="translate(578,98)"/>
<path d="M0,0 L4,0 L7,4 L12,3 L10,4 L9,8 L-6,20 L-18,29 L-31,39 L-51,54 L-63,64 L-77,75 L-86,81 L-84,77 L-76,67 L-64,51 L-51,34 L-44,25 L-44,28 L-46,33 L-40,30 L-37,27 L-32,28 L-31,24 L-29,23 L-28,27 L-26,27 L-25,24 L-23,24 L-23,20 L-16,20 L-16,18 L-10,16 L-9,12 L-13,12 L-13,14 L-15,14 L-15,10 L-7,10 L-7,8 L-5,8 L-5,4 L-1,4 Z " fill="#994C0F" transform="translate(336,283)"/>
<path d="M0,0 L11,3 L48,16 L84,28 L106,35 L113,37 L117,42 L117,44 L119,44 L122,49 L122,51 L125,52 L130,62 L133,67 L133,69 L135,69 L140,81 L145,86 L147,91 L148,93 L144,92 L140,84 L138,82 L138,79 L136,79 L135,83 L131,82 L131,80 L129,80 L129,78 L127,78 L127,65 L126,63 L123,62 L123,60 L116,59 L116,61 L114,60 L115,51 L113,51 L113,53 L110,53 L113,44 L109,44 L107,39 L105,39 L105,37 L95,37 L89,35 L81,35 L77,33 L77,31 L66,31 L65,32 L69,33 L69,35 L76,35 L79,37 L77,41 L73,40 L64,38 L60,35 L57,35 L57,33 L61,31 L61,30 L51,29 L47,27 L47,23 L45,23 L42,20 L42,22 L38,22 L37,17 L31,15 L30,12 L25,12 L19,9 L13,9 L8,10 L6,9 L6,5 L1,4 Z " fill="#F7AA26" transform="translate(216,112)"/>
<path d="M0,0 L6,0 L8,9 L7,13 L9,13 L9,15 L20,17 L20,22 L25,23 L30,28 L41,42 L52,55 L59,63 L67,73 L72,79 L72,87 L70,87 L68,82 L64,81 L64,79 L62,79 L62,77 L59,77 L56,73 L54,73 L51,70 L46,65 L45,62 L41,64 L41,57 L39,57 L36,54 L35,51 L31,50 L30,47 L30,44 L28,44 L27,40 L19,40 L14,35 L12,30 L9,28 L9,21 L7,21 L7,17 L5,17 L5,13 L3,13 L0,5 Z " fill="#5E2605" transform="translate(388,252)"/>
<path d="M0,0 L22,0 L31,10 L38,17 L38,20 L17,20 L0,18 L-28,11 L-44,6 L-46,3 L-29,2 Z " fill="#E16804" transform="translate(254,211)"/>
<path d="M0,0 L2,1 L-6,15 L-16,28 L-21,31 L-23,30 L-22,29 L-27,30 L-27,32 L-32,32 L-31,37 L-34,36 L-34,32 L-36,32 L-36,37 L-40,38 L-44,37 L-44,29 L-42,27 L-48,27 L-49,29 L-58,28 L-58,26 L-53,25 L-52,22 L-54,22 L-54,20 L-61,20 L-60,18 L-41,12 L-10,3 Z " fill="#2A4758" transform="translate(693,121)"/>
<path d="M0,0 L2,4 L3,14 L2,14 L1,69 L0,201 L-3,199 L-3,193 L-6,192 L-7,177 L-12,172 L-10,166 L-7,164 L-6,143 L-4,133 L-3,117 L-3,73 L-4,69 L-5,54 L-7,49 L-5,49 L-6,47 L-7,52 L-9,53 L-11,49 L-9,38 L-2,9 Z " fill="#66B0BB" transform="translate(365,0)"/>
<path d="M0,0 L2,1 L-5,9 L-13,17 L-27,26 L-45,32 L-66,32 L-89,25 L-110,16 L-112,14 L-102,10 L-95,9 L-98,10 L-98,12 L-88,15 L-78,19 L-71,21 L-46,21 L-33,17 L-21,12 L-16,10 L-16,8 L-10,7 L-10,5 L-3,3 Z " fill="#0F273A" transform="translate(635,210)"/>
<path d="M0,0 L24,5 L45,10 L48,12 L48,14 L56,15 L63,18 L62,21 L55,22 L30,22 L6,20 L-16,19 L-10,11 Z " fill="#0F5D6E" transform="translate(475,191)"/>
<path d="M0,0 L4,2 L9,6 L20,11 L28,14 L28,16 L38,18 L55,21 L78,21 L86,18 L93,15 L102,11 L110,12 L115,14 L113,16 L88,26 L69,32 L62,33 L52,33 L40,31 L28,26 L19,20 L9,11 L0,1 Z " fill="#12273A" transform="translate(95,210)"/>
<path d="M0,0 L4,1 L4,3 L12,3 L11,6 L17,7 L18,4 L26,5 L27,8 L17,12 L-18,23 L-49,33 L-59,36 L-63,35 L-56,28 L-52,27 L-52,24 L-26,12 L-11,5 Z " fill="#1B3D51" transform="translate(556,136)"/>
<path d="M0,0 L6,1 L32,15 L55,27 L68,33 L77,37 L77,40 L61,46 L55,47 L55,45 L50,46 L35,44 L35,27 L30,28 L30,26 L25,25 L23,21 L30,21 L34,22 L31,19 L21,16 L17,14 L16,12 L11,10 L7,6 L4,5 L4,3 L0,2 Z M35,26 Z " fill="#C86103" transform="translate(286,168)"/>
<path d="M0,0 L9,3 L29,12 L39,16 L80,33 L83,34 L83,38 L81,39 L87,42 L87,44 L83,45 L82,51 L78,47 L75,45 L75,48 L70,47 L53,36 L37,26 L32,23 L32,21 L26,19 L21,15 L12,9 L0,1 Z " fill="#2D7B8B" transform="translate(15,41)"/>
<path d="M0,0 L3,3 L10,33 L12,53 L14,57 L14,63 L11,64 L11,80 L4,80 L5,83 L4,89 L-1,90 L-1,56 Z " fill="#1B7184" transform="translate(366,13)"/>
<path d="M0,0 L4,2 L7,5 L10,6 L10,8 L16,10 L26,16 L42,23 L69,30 L108,36 L112,37 L134,38 L134,39 L107,40 L95,41 L78,41 L58,37 L40,31 L26,24 L13,14 L8,9 L3,4 Z " fill="#11263A" transform="translate(57,149)"/>
<path d="M0,0 L0,3 L-9,12 L-21,21 L-38,30 L-59,37 L-73,40 L-81,41 L-98,41 L-135,39 L-135,38 L-99,35 L-74,32 L-58,28 L-42,23 L-29,18 L-12,9 L-3,2 Z " fill="#102639" transform="translate(675,149)"/>
<path d="M0,0 L7,0 L34,27 L41,35 L42,39 L37,41 L11,25 L1,19 L-2,16 L-2,14 L-4,13 L-2,13 L-2,10 L-8,9 L-10,8 L-10,6 L-6,7 L-4,3 Z " fill="#2B7081" transform="translate(174,112)"/>
<path d="M0,0 L2,0 L-1,9 L-10,26 L-22,42 L-24,42 L-25,44 L-28,44 L-28,39 L-26,39 L-27,36 L-30,34 L-34,34 L-34,29 L-42,29 L-41,27 L-39,27 L-39,25 L-28,18 L-19,12 L-18,9 Z " fill="#114D5E" transform="translate(733,34)"/>
<path d="M0,0 L6,2 L15,7 L18,10 L28,17 L39,24 L47,29 L47,31 L52,33 L49,36 L46,36 L46,33 L42,31 L41,28 L33,30 L33,27 L26,30 L25,34 L30,35 L30,37 L32,37 L32,44 L26,46 L15,31 L6,15 L0,1 Z " fill="#0D5163" transform="translate(0,33)"/>
<path d="M0,0 L2,4 L0,4 L3,9 L4,24 L5,34 L5,72 L3,96 L2,98 L1,119 L-2,121 L-5,126 L-7,125 L-7,122 L-5,122 L-5,120 L-9,121 L-5,111 L-4,106 L-3,97 L0,93 L1,75 L2,72 L3,65 L3,54 L2,49 L1,55 L-1,55 L-2,41 L-5,39 L-6,28 L-5,24 L-5,26 L-8,27 L-9,19 L-5,4 L-3,4 L-2,8 L-1,3 Z " fill="#6CB3BD" transform="translate(358,45)"/>
<path d="M0,0 L4,1 L7,2 L7,4 L11,6 L20,11 L34,22 L50,32 L52,36 L55,37 L55,39 L62,42 L61,45 L65,47 L62,49 L62,51 L57,51 L59,55 L63,59 L64,64 L57,58 L46,47 L39,39 L13,13 L5,6 Z " fill="#DF7204" transform="translate(183,100)"/>
<path d="M0,0 L14,7 L25,14 L36,20 L44,24 L32,15 L28,11 L32,10 L33,8 L49,24 L56,32 L59,36 L49,33 L7,17 L4,16 L3,12 L0,12 L0,10 L-8,9 L-7,6 L-15,7 L-15,5 L-12,2 L-7,2 L-7,5 L0,6 L-2,1 Z " fill="#1F3B4F" transform="translate(184,141)"/>
<path d="M0,0 L1,4 L3,4 L4,10 L6,11 L6,20 L6,22 L10,22 L11,38 L14,38 L14,54 L8,54 L8,61 L10,62 L8,69 L12,70 L11,74 L6,73 L0,69 Z " fill="#783406" transform="translate(365,207)"/>
<path d="M0,0 L4,4 L6,7 L6,10 L-10,21 L-25,29 L-50,40 L-67,47 L-69,46 L-61,37 L-61,40 L-61,41 L-56,41 L-56,39 L-50,36 L-46,32 L-41,30 L-38,26 L-37,23 L-35,23 L-34,20 L-27,14 L-26,13 L-16,13 L-16,11 L-10,9 L-9,11 L-7,6 L-2,4 Z " fill="#0E2F44" transform="translate(267,264)"/>
<path d="M0,0 L4,5 L10,14 L18,26 L25,36 L33,47 L36,52 L36,54 L39,55 L48,67 L47,69 L42,67 L42,62 L33,62 L33,60 L31,60 L31,58 L29,58 L28,45 L23,46 L24,52 L25,58 L27,58 L27,62 L29,62 L29,66 L31,66 L32,73 L35,75 L34,79 L31,78 L31,76 L29,76 L29,74 L27,74 L27,71 L25,71 L25,69 L23,69 L19,62 L19,54 L21,54 L21,52 L18,51 L18,36 L15,35 L13,26 L10,22 L5,22 L4,25 L3,22 L4,20 L5,11 L2,10 L2,4 L0,4 Z " fill="#6D2F09" transform="translate(366,207)"/>
<path d="M0,0 L3,4 L23,45 L28,55 L27,59 L18,48 L9,37 L7,33 L5,33 L-2,24 L-10,14 L-11,9 L-12,8 L-12,3 L-4,1 L-3,4 Z " fill="#965626" transform="translate(455,300)"/>
<path d="M0,0 L5,0 L3,4 L2,9 L-4,8 L-10,9 L-11,8 L-13,16 L-8,17 L-8,19 L-1,20 L-1,18 L5,18 L4,21 L-5,22 L-37,22 L-54,19 L-54,17 L-17,5 Z " fill="#2C485A" transform="translate(550,164)"/>
<path d="M0,0 L4,1 L26,15 L33,20 L37,24 L40,27 L43,31 L40,32 L41,36 L40,42 L38,42 L37,34 L27,34 L24,33 L23,36 L23,34 L17,32 L14,30 L11,24 L11,22 L8,21 L7,17 L10,16 L12,17 L12,15 L10,14 L13,12 L11,11 L9,7 L3,6 L5,5 L5,3 L1,3 Z " fill="#D86A01" transform="translate(233,134)"/>
<path d="M0,0 L5,1 L10,4 L10,6 L14,7 L24,13 L26,14 L26,16 L31,16 L32,21 L36,22 L37,27 L47,32 L57,33 L64,38 L64,40 L68,42 L65,43 L34,30 L18,22 L4,14 L-4,8 L-2,3 L0,1 Z " fill="#0E2D41" transform="translate(465,269)"/>
<path d="M0,0 L24,9 L26,10 L27,13 L32,15 L32,17 L34,18 L35,19 L44,18 L40,19 L41,23 L51,23 L51,29 L61,29 L63,30 L64,33 L67,34 L67,37 L69,37 L67,44 L62,42 L57,38 L51,37 L40,29 L24,19 L12,9 L3,4 L0,2 Z " fill="#F7A41E" transform="translate(190,102)"/>
<path d="M0,0 L5,3 L5,5 L-8,3 L-8,5 L-11,8 L-15,9 L-22,9 L-35,12 L-33,13 L-33,15 L-40,17 L-51,17 L-51,19 L-32,19 L-32,22 L-48,23 L-50,24 L-69,18 L-75,16 L-72,14 Z " fill="#EE911A" transform="translate(257,192)"/>
<path d="M0,0 L2,1 L-11,14 L-19,21 L-25,28 L-30,33 L-47,50 L-48,48 L-50,47 L-49,42 L-44,43 L-45,39 L-47,37 L-50,38 L-52,36 L-35,24 L-19,13 L-13,9 L-15,8 L-19,7 Z " fill="#0E3A4D" transform="translate(542,103)"/>
<path d="M0,0 L9,6 L22,11 L34,17 L32,18 L31,23 L28,29 L31,30 L30,35 L27,38 L24,37 L23,32 L18,31 L10,19 L4,10 L0,3 Z " fill="#458795" transform="translate(365,202)"/>
<path d="M0,0 L3,3 L11,21 L11,23 L9,23 L7,21 L3,26 L-6,31 L-7,34 L-12,36 L-21,25 L-17,24 L-13,20 L-11,16 L-9,16 L-7,12 L-5,10 L-2,10 L-1,5 Z " fill="#8C7157" transform="translate(429,243)"/>
<path d="M0,0 L2,2 L5,10 L2,20 L-3,23 L-7,27 L-11,34 L-13,38 L-15,35 L-20,31 L-24,26 L-26,21 L-20,21 L-19,15 L-11,13 L-5,11 L-3,7 L-1,8 Z " fill="#5D7B82" transform="translate(425,233)"/>
<path d="M0,0 L6,2 L22,8 L38,16 L55,24 L72,34 L96,49 L106,57 L103,57 L89,49 L78,43 L62,34 L46,26 L23,14 L1,2 Z " fill="#DEE6EA" transform="translate(123,108)"/>
<path d="M0,0 L19,4 L26,7 L26,9 L34,10 L41,13 L40,16 L33,17 L8,17 L-16,15 L-38,14 L-37,12 L-21,12 L4,13 L4,11 L12,8 L10,8 L8,4 L0,2 Z " fill="#124D5E" transform="translate(497,196)"/>
<path d="M0,0 L2,4 L5,4 L11,18 L10,21 L7,15 L6,15 L6,22 L3,24 L0,24 L0,22 L-4,24 L-8,29 L-12,27 L-19,18 L-17,15 L-14,15 L-13,11 L-4,6 Z " fill="#956947" transform="translate(436,262)"/>
<path d="M0,0 L2,1 L-20,13 L-46,26 L-62,33 L-72,38 L-82,42 L-100,51 L-102,50 L-98,46 L-86,40 L-64,28 L-45,19 L-34,14 L-24,10 Z " fill="#E3ECEE" transform="translate(607,109)"/>
<path d="M0,0 L1,0 L1,15 L-4,15 L-2,16 L-2,19 L-5,19 L-6,24 L-9,24 L-9,28 L-11,28 L-11,35 L-14,40 L-12,44 L-11,48 L-12,52 L-10,52 L-10,54 L-8,54 L-8,56 L-10,56 L-10,58 L-15,60 L-18,60 L-19,56 L-18,65 L-20,66 L-20,64 L-22,64 L-24,62 L-25,65 L-27,65 L-27,68 L-30,69 L-27,59 L-14,31 L-5,11 Z " fill="#F19120" transform="translate(305,229)"/>
<path d="M0,0 L2,0 L2,8 L1,12 L-1,12 L-3,16 L-9,18 L-11,19 L-17,19 L-17,25 L-22,26 L-26,24 L-33,14 L-38,7 L-38,5 L-35,4 L-33,10 L-31,11 L-30,9 L-30,12 L-28,13 L-30,13 L-29,16 L-27,17 L-27,19 L-23,18 L-15,6 L-12,6 L-11,4 L-11,6 L-7,5 L-4,4 L-1,5 Z " fill="#557E88" transform="translate(423,229)"/>
<path d="M0,0 L9,3 L29,12 L39,16 L43,18 L44,20 L47,22 L47,24 L51,26 L45,26 L46,28 L50,30 L50,28 L55,29 L56,34 L60,38 L59,40 L48,33 L32,23 L32,21 L26,19 L21,15 L12,9 L0,1 Z " fill="#287886" transform="translate(15,41)"/>
<path d="M0,0 L4,1 L7,2 L7,4 L11,6 L20,11 L30,19 L31,22 L40,28 L43,31 L42,40 L46,40 L46,45 L39,39 L13,13 L5,6 Z " fill="#DF7811" transform="translate(183,100)"/>
<path d="M0,0 L1,0 L1,90 L-2,88 L-2,82 L-5,81 L-5,61 L-6,58 L-4,58 L-4,38 L-2,38 L-2,30 L-1,30 Z " fill="#57A1AC" transform="translate(364,111)"/>
<path d="M0,0 L4,1 L1,1 L1,3 L11,6 L19,9 L18,12 L25,13 L25,17 L13,17 L-7,9 L-13,6 L-12,4 Z " fill="#113041" transform="translate(536,219)"/>
<path d="M0,0 L4,2 L7,6 L7,8 L9,8 L12,13 L12,15 L15,16 L20,26 L23,31 L23,33 L25,33 L30,45 L35,50 L37,55 L38,57 L34,56 L30,48 L28,46 L28,43 L26,43 L25,47 L21,46 L21,44 L19,44 L19,42 L17,42 L17,29 L16,27 L13,26 L12,22 L12,17 L8,16 Z " fill="#F5AB23" transform="translate(326,148)"/>
<path d="M0,0 L2,1 L3,6 L0,8 L-2,7 L-7,8 L-7,12 L-14,11 L-13,15 L-15,19 L-34,25 L-38,24 L-31,17 L-27,16 L-27,13 L-1,1 Z " fill="#314858" transform="translate(531,147)"/>
<path d="M0,0 L2,1 L-8,14 L-18,27 L-30,43 L-39,55 L-42,58 L-44,62 L-50,67 L-52,67 L-50,62 L-42,46 L-41,49 L-39,49 L-39,47 L-35,47 L-35,44 L-30,39 L-27,33 L-25,33 L-25,25 L-20,26 L-20,21 L-16,22 L-15,16 L-9,12 L-7,9 L-7,5 L-3,5 L-3,2 Z " fill="#E68420" transform="translate(293,304)"/>
<path d="M0,0 L2,0 L2,2 L4,2 L5,9 L9,14 L12,15 L24,39 L23,43 L14,32 L5,21 L3,17 L1,17 L0,10 Z " fill="#98501C" transform="translate(459,316)"/>
<path d="M0,0 L6,0 L8,9 L7,13 L9,13 L9,15 L14,17 L16,26 L19,25 L20,32 L22,32 L21,40 L18,39 L13,34 L12,30 L9,28 L9,21 L7,21 L7,17 L5,17 L5,13 L3,13 L0,5 Z " fill="#682D08" transform="translate(388,252)"/>
<path d="M0,0 L5,3 L5,5 L-8,3 L-8,5 L-11,8 L-15,9 L-38,10 L-50,14 L-61,15 L-61,17 L-69,18 L-75,16 L-72,14 Z " fill="#EC9E2C" transform="translate(257,192)"/>
<path d="M0,0 L7,6 L17,17 L17,20 L12,22 L-9,9 L-10,7 L-5,5 L-7,4 L1,4 Z " fill="#236072" transform="translate(199,131)"/>
<path d="M0,0 L3,3 L5,8 L5,11 L3,12 L0,18 L-5,21 L-8,26 L-9,27 L-14,27 L-14,30 L-18,29 L-21,24 L-16,24 L-11,16 L-9,16 L-7,12 L-5,10 L-2,10 L-1,5 Z " fill="#807566" transform="translate(429,243)"/>
<path d="M0,0 L13,2 L19,4 L19,6 L27,7 L30,11 L32,10 L31,13 L28,15 L23,15 L23,17 L-2,17 L-17,16 L-14,13 L-13,14 L19,16 L19,14 L11,14 L12,11 L18,11 L18,9 L15,8 L16,4 L9,5 L4,4 L4,2 Z " fill="#105566" transform="translate(478,192)"/>
<path d="M0,0 L3,0 L1,4 L-10,11 L-27,23 L-42,34 L-45,32 L-41,31 L-40,28 L-36,28 L-36,25 L-33,23 L-34,21 L-25,19 L-21,17 L-21,15 L-19,15 L-18,9 L-16,8 L-18,5 L-6,1 Z " fill="#368A99" transform="translate(527,110)"/>
<path d="M0,0 L12,0 L19,2 L24,3 L23,5 L29,6 L29,8 L38,8 L47,11 L65,12 L77,12 L80,10 L82,12 L82,15 L61,15 L44,13 L16,6 L0,1 Z " fill="#CF6C1D" transform="translate(210,216)"/>
<path d="M0,0 L9,1 L12,3 L12,5 L20,6 L27,9 L26,12 L19,13 L-6,13 L-1,9 L6,8 L5,3 L0,2 Z " fill="#0F4454" transform="translate(511,200)"/>
<path d="M0,0 L2,1 L-11,14 L-19,21 L-23,25 L-28,25 L-29,23 L-31,21 L-16,11 L-13,8 L-19,8 L-16,6 Z " fill="#0D4055" transform="translate(542,103)"/>
<path d="M0,0 L6,0 L7,4 L18,4 L21,7 L22,11 L19,12 L17,16 L16,20 L15,24 L12,17 L9,14 L7,9 L5,9 L0,2 Z " fill="#79B7BC" transform="translate(328,147)"/>
<path d="M0,0 L2,0 L1,5 L-7,6 L-10,7 L-7,8 L-7,10 L-11,11 L-21,11 L-31,9 L-31,7 L-13,1 L-1,1 Z " fill="#2D4C60" transform="translate(527,174)"/>
<path d="M0,0 L3,3 L11,14 L14,19 L14,21 L17,22 L26,34 L25,36 L20,34 L20,29 L11,29 L11,27 L9,27 L9,25 L7,25 L6,16 L5,11 L2,10 L0,4 Z " fill="#632C0A" transform="translate(388,240)"/>
<path d="M0,0 L24,9 L26,10 L27,13 L32,15 L32,17 L34,18 L33,22 L30,23 L18,14 L10,8 L0,2 Z " fill="#ED9C1B" transform="translate(190,102)"/>
<path d="M0,0 L2,4 L3,14 L2,14 L1,69 L0,69 L-1,31 L-4,31 L-6,28 L-1,3 Z " fill="#3F97A4" transform="translate(365,0)"/>
<path d="M0,0 L2,2 L5,10 L2,20 L-3,23 L-7,27 L-11,34 L-13,38 L-15,35 L-19,31 L-14,29 L-11,24 L-7,21 L-5,16 L-1,13 L1,6 Z " fill="#677877" transform="translate(425,233)"/>
<path d="M0,0 L6,2 L15,7 L14,9 L13,13 L15,14 L12,15 L11,17 L13,17 L13,20 L17,21 L16,26 L13,23 L13,21 L10,22 L2,6 Z " fill="#14596B" transform="translate(0,33)"/>
<path d="M0,0 L2,3 L-6,16 L-16,31 L-29,49 L-35,57 L-36,57 L-36,51 L-29,45 L-26,41 L-25,36 L-22,36 L-18,29 L-16,29 L-16,24 L-13,24 L-12,20 L-10,18 L-9,13 L-6,12 L-5,8 L-3,8 L-3,6 L-6,5 L0,3 Z " fill="#E58E25" transform="translate(363,205)"/>
<path d="M0,0 L2,1 L-20,13 L-42,24 L-43,21 L-38,20 L-38,16 L-19,8 Z " fill="#DBE4E7" transform="translate(607,109)"/>
<path d="M0,0 L7,6 L17,16 L24,24 L27,28 L17,25 L15,20 L11,15 L-4,4 L0,2 Z " fill="#194659" transform="translate(216,149)"/>
<path d="M0,0 L2,4 L5,5 L0,10 L-13,21 L-20,25 L-18,21 L-10,11 L-5,4 L-2,3 Z " fill="#A05315" transform="translate(270,339)"/>
<path d="M0,0 L4,5 L10,14 L18,26 L22,31 L21,33 L14,28 L10,22 L5,22 L4,25 L3,22 L4,20 L5,11 L2,10 L2,4 L0,4 Z " fill="#723508" transform="translate(366,207)"/>
<path d="M0,0 L2,0 L2,2 L5,2 L6,8 L11,7 L12,11 L14,11 L14,18 L16,19 L18,26 L20,33 L18,33 L15,28 L13,21 L9,19 L5,10 L5,7 L3,7 Z " fill="#72A4A7" transform="translate(346,174)"/>
<path d="M0,0 L11,3 L45,15 L45,16 L37,15 L33,14 L33,12 L25,12 L19,9 L13,9 L8,10 L6,9 L6,5 L1,4 Z " fill="#EEA62F" transform="translate(216,112)"/>
<path d="M0,0 L4,1 L7,2 L7,4 L11,6 L20,11 L24,14 L24,16 L20,16 L22,19 L25,20 L26,25 L19,19 L2,3 Z " fill="#DF7D12" transform="translate(183,100)"/>
<path d="M0,0 L5,2 L9,6 L12,7 L13,5 L16,6 L16,8 L19,9 L17,10 L17,13 L19,13 L19,18 L23,19 L24,23 L27,24 L26,28 L19,21 L19,19 L17,19 L10,11 L0,1 Z " fill="#CC680E" transform="translate(255,172)"/>
<path d="M0,0 L2,3 L-5,12 L-9,18 L-15,23 L-17,23 L-15,18 L-7,2 L-6,5 L-4,5 L-4,3 L0,3 Z " fill="#E18518" transform="translate(258,348)"/>
<path d="M0,0 L4,2 L7,6 L7,8 L9,8 L12,13 L12,15 L15,16 L20,26 L23,31 L22,33 L18,28 L13,26 L12,22 L12,17 L8,16 Z " fill="#E0A335" transform="translate(326,148)"/>
<path d="M0,0 L11,3 L34,11 L34,12 L27,12 L27,10 L6,9 L3,7 L3,3 L0,2 Z " fill="#F4AD2A" transform="translate(262,128)"/>
<path d="M0,0 L1,2 L5,4 L5,6 L7,6 L8,8 L12,8 L19,22 L18,26 L9,15 L0,4 L-2,1 Z " fill="#914916" transform="translate(464,333)"/>
<path d="M0,0 L5,1 L8,6 L8,8 L2,9 L1,11 L-4,12 L-8,9 L-7,6 L-5,6 L-3,2 Z " fill="#25697B" transform="translate(192,127)"/>
<path d="M0,0 L8,1 L9,5 L7,8 L-7,12 L-11,11 L-4,4 L0,3 Z " fill="#345467" transform="translate(504,160)"/>
<path d="M0,0 L4,1 L-4,4 L-9,6 L-20,7 L-20,9 L-28,10 L-34,8 L-31,6 Z " fill="#E29933" transform="translate(216,200)"/>
<path d="M0,0 L2,2 L5,2 L6,6 L4,21 L1,17 L1,12 L-3,17 L-3,10 Z " fill="#5DABB5" transform="translate(359,28)"/>
<path d="M0,0 L6,2 L22,8 L34,14 L32,15 L31,18 L6,5 L0,1 Z " fill="#D4E3E7" transform="translate(123,108)"/>
<path d="M0,0 L3,1 L-3,6 L-14,13 L-17,14 L-17,11 L-23,13 L-25,11 Z " fill="#22717C" transform="translate(713,44)"/>
<path d="M0,0 L1,4 L0,7 L2,7 L2,5 L7,6 L10,9 L10,18 L8,14 L3,15 L2,9 L-1,9 L-1,7 L-4,7 L-5,2 Z " fill="#72ADAF" transform="translate(349,167)"/>
<path d="M0,0 L1,4 L0,8 L-2,8 L-3,17 L-5,18 L-3,22 L-3,25 L-6,26 L-7,29 L-11,28 L-12,33 L-14,33 L-11,24 L-2,5 Z " fill="#E78A21" transform="translate(274,298)"/>
<path d="M0,0 L5,5 L5,8 L-9,18 L-11,18 L-11,16 L-6,14 L-7,7 L-5,4 L0,3 Z " fill="#17283D" transform="translate(268,266)"/>
<path d="M0,0 L3,3 L0,12 L-6,16 L-8,16 L-9,19 L-11,19 L-13,24 L-14,30 L-18,29 L-21,24 L-16,24 L-11,16 L-9,16 L-7,12 L-5,10 L-2,10 L-1,5 Z " fill="#74766D" transform="translate(429,243)"/>
<path d="M0,0 L3,0 L1,4 L-10,11 L-12,12 L-13,9 L-18,6 L-15,4 L-6,1 Z " fill="#358896" transform="translate(527,110)"/>
<path d="M0,0 L14,8 L25,16 L30,21 L25,19 L13,12 L2,6 L0,4 Z " fill="#D4E0E7" transform="translate(199,145)"/>
<path d="M0,0 L4,1 L10,7 L10,10 L5,12 L-8,4 L-8,3 L-1,3 Z " fill="#1C5565" transform="translate(206,141)"/>
<path d="M0,0 L4,2 L1,5 L5,6 L6,4 L9,8 L7,8 L9,12 L13,16 L14,21 L7,15 L-4,4 L-4,2 L-1,2 Z " fill="#DB730F" transform="translate(233,143)"/>
<path d="M0,0 L6,0 L7,4 L11,5 L10,11 L15,17 L16,24 L13,20 L12,17 L9,14 L7,9 L5,9 L0,2 Z " fill="#84B5B0" transform="translate(328,147)"/>
<path d="M0,0 L9,2 L29,8 L33,15 L29,15 L29,10 L14,9 L9,6 L8,4 L0,1 Z " fill="#EDAC34" transform="translate(297,140)"/>
<path d="M0,0 L12,0 L19,2 L24,3 L23,5 L29,6 L29,8 L31,9 L23,8 L0,1 Z " fill="#DB6F0D" transform="translate(210,216)"/>
<path d="M0,0 L9,1 L14,2 L17,5 L23,4 L26,4 L27,10 L31,11 L30,13 L16,7 L0,1 Z " fill="#367681" transform="translate(119,106)"/>
<path d="M0,0 L8,0 L8,2 L-13,4 L-19,5 L-32,4 L-33,2 L-16,1 Z " fill="#E5780A" transform="translate(241,212)"/>
<path d="M0,0 L3,1 L-1,2 L-1,4 L-3,4 L-3,6 L-6,7 L-8,10 L-9,13 L-11,11 L-18,12 L-19,13 L-24,13 L-23,11 Z " fill="#093B4B" transform="translate(425,179)"/>
<path d="M0,0 L4,4 L5,8 L8,9 L17,21 L16,23 L11,21 L11,16 L6,16 L5,9 L2,8 L0,4 Z " fill="#583118" transform="translate(397,253)"/>
<path d="M0,0 L7,0 L10,3 L12,3 L12,5 L16,5 L17,3 L21,3 L22,9 L26,11 L22,12 L6,4 L0,1 Z " fill="#3B7581" transform="translate(151,119)"/>
<path d="M0,0 L3,1 L-23,12 L-25,11 L-17,2 L-17,5 L-17,6 L-12,6 L-12,4 L-6,1 Z " fill="#0D2A3C" transform="translate(223,299)"/>
<path d="M0,0 L24,9 L20,10 L15,11 L3,4 L0,2 Z " fill="#E09927" transform="translate(190,102)"/>
<path d="M0,0 L2,0 L2,3 L-10,5 L-10,7 L-23,10 L-24,11 L-30,11 L-27,9 Z " fill="#3C8B95" transform="translate(448,137)"/>
<path d="M0,0 L8,0 L12,1 L19,2 L19,3 L-21,3 L-21,2 Z " fill="#182B3C" transform="translate(561,185)"/>
<path d="M0,0 L1,3 L-1,3 L-1,8 L-6,11 L-6,14 L-8,19 L-15,20 L-11,14 L-1,1 Z " fill="#974A08" transform="translate(326,264)"/>
<path d="M0,0 L5,5 L14,18 L14,21 L7,16 L4,11 L2,6 L0,4 Z " fill="#593C26" transform="translate(373,219)"/>
<path d="M0,0 L9,3 L20,8 L21,14 L16,12 L3,3 Z " fill="#246D7A" transform="translate(15,41)"/>
<path d="M0,0 L2,0 L2,2 L5,2 L6,8 L8,8 L8,12 L10,12 L13,19 L15,24 L13,23 L13,21 L9,19 L5,10 L5,7 L3,7 Z " fill="#82A798" transform="translate(346,174)"/>
<path d="M0,0 L2,0 L7,12 L12,17 L14,22 L15,24 L11,23 L7,15 L5,13 L5,10 L2,10 L0,4 Z " fill="#CEA03D" transform="translate(349,181)"/>
<path d="M0,0 L6,0 L6,3 L-4,8 L-6,8 L-6,5 L-8,4 Z " fill="#E9F0F3" transform="translate(547,135)"/>
<path d="M0,0 L19,0 L16,2 L9,3 L-1,3 L-9,2 L-9,1 Z " fill="#0E1C2A" transform="translate(148,240)"/>
<path d="M0,0 L3,0 L3,6 L-7,12 L-9,12 L-7,8 Z " fill="#2D6E7E" transform="translate(519,143)"/>
<path d="M0,0 L8,0 L3,5 L-8,12 L-10,12 L-10,9 L-1,4 L-2,1 Z " fill="#348694" transform="translate(475,144)"/>
<path d="M0,0 L1,0 L1,6 L-1,10 L-3,10 L-4,20 L-5,22 L-7,22 L-8,18 Z " fill="#E08A1E" transform="translate(259,331)"/>
<path d="M0,0 L2,1 L-5,7 L-10,8 L-13,8 L-19,8 L-16,6 Z " fill="#255A62" transform="translate(542,103)"/>
<path d="M0,0 L2,1 L-7,6 L-16,9 L-20,10 L-20,6 L-17,6 L-16,4 L-6,3 Z " fill="#367485" transform="translate(619,103)"/>
<path d="M0,0 L4,1 L6,6 L-9,5 L-9,3 Z " fill="#355569" transform="translate(505,178)"/>
<path d="M0,0 L2,1 L2,6 L-7,6 L-8,9 L-11,8 L-12,10 L-15,8 Z " fill="#1F3B4B" transform="translate(598,115)"/>
<path d="M0,0 L2,1 L-16,11 L-22,10 L-19,8 Z " fill="#C7DFE5" transform="translate(607,109)"/>
<path d="M0,0 L2,4 L6,19 L6,23 L4,23 L3,17 L1,17 L1,9 L-1,7 Z " fill="#206474" transform="translate(388,95)"/>
<path d="M0,0 L7,0 L20,4 L27,5 L27,6 L19,6 L0,2 Z " fill="#C6702A" transform="translate(241,224)"/>
<path d="M0,0 L4,1 L7,2 L7,4 L11,6 L13,7 L13,11 L10,11 L0,1 Z " fill="#D87F1D" transform="translate(183,100)"/>
<path d="M0,0 L3,1 L-3,6 L-12,8 L-16,7 Z " fill="#216D73" transform="translate(713,44)"/>
<path d="M0,0 L2,2 L5,2 L6,6 L5,13 L3,9 L0,9 L-2,8 Z " fill="#54A5AE" transform="translate(359,28)"/>
<path d="M0,0 L1,0 L1,5 L-2,11 L-3,17 L-5,17 L-5,20 L-8,21 L-5,11 Z " fill="#E9922B" transform="translate(283,277)"/>
<path d="M0,0 L3,1 L1,6 L5,7 L4,9 L-1,8 L-7,6 L-5,2 L-2,1 L0,1 Z " fill="#1E3444" transform="translate(211,157)"/>
<path d="M0,0 L7,0 L4,3 L-4,7 L-7,6 L-8,4 Z " fill="#E4F2F5" transform="translate(583,119)"/>
<path d="M0,0 L1,2 L-1,5 L-3,11 L-12,17 L-10,13 L-2,3 Z " fill="#A65B11" transform="translate(262,347)"/>
<path d="M0,0 L2,4 L3,14 L0,13 L-3,17 L-2,9 Z " fill="#3F8A96" transform="translate(365,0)"/>
<path d="M0,0 L1,0 L3,8 L-4,14 L-6,14 L-4,9 Z " fill="#CF7A19" transform="translate(247,357)"/>
<path d="M0,0 L3,0 L1,5 L-7,15 L-10,16 L-9,13 L-5,9 L-3,3 L-2,1 Z " fill="#233F51" transform="translate(684,134)"/>
<path d="M0,0 L1,3 L-2,7 L-4,13 L-9,16 L-11,15 Z " fill="#9B4F06" transform="translate(338,247)"/>
<path d="M0,0 L22,0 L27,7 L22,6 L22,2 L0,1 Z " fill="#E27710" transform="translate(254,211)"/>
<path d="M0,0 L13,1 L13,2 L1,3 L-16,3 L-16,2 Z " fill="#0D1B2B" transform="translate(151,187)"/>
<path d="M0,0 L4,2 L7,6 L10,14 L10,17 L7,14 Z " fill="#DBA539" transform="translate(326,148)"/>
<path d="M0,0 L5,5 L8,14 L4,14 L4,10 L1,7 Z " fill="#F2A421" transform="translate(343,175)"/>
<path d="M0,0 L4,2 L-10,9 L-12,8 L-8,4 Z " fill="#D7E2E7" transform="translate(517,151)"/>
<path d="M0,0 L4,2 L12,8 L14,11 L4,8 L2,3 Z " fill="#32495F" transform="translate(229,166)"/>
<path d="M0,0 L3,0 L4,3 L-1,6 L-5,6 L-9,5 Z " fill="#223747" transform="translate(541,143)"/>
<path d="M0,0 L3,0 L1,4 L-3,6 L-4,3 L-10,5 L-12,3 Z " fill="#2D7987" transform="translate(527,110)"/>
<path d="M0,0 L5,3 L5,5 L1,4 L-16,4 L-16,3 Z " fill="#E6A038" transform="translate(257,192)"/>
<path d="M0,0 L2,3 L4,11 L3,17 L2,13 L0,13 Z " fill="#216878" transform="translate(384,80)"/>
<path d="M0,0 L5,1 L3,2 L3,5 L7,6 L9,10 L0,5 L-2,2 Z " fill="#102C3B" transform="translate(463,274)"/>
<path d="M0,0 L2,0 L5,5 L5,7 L8,8 L10,15 L8,15 L0,2 Z " fill="#A7A976" transform="translate(333,156)"/>
<path d="M0,0 L11,3 L19,6 L19,7 L10,7 L9,4 L3,3 L0,2 Z " fill="#E7A739" transform="translate(216,112)"/>
<path d="M0,0 L1,0 L1,5 L-1,8 L-2,13 L-4,14 L-5,17 L-7,17 L-4,8 Z " fill="#E79231" transform="translate(291,260)"/>
<path d="M0,0 L4,2 L12,11 L9,11 L0,4 Z " fill="#153145" transform="translate(225,159)"/>
<path d="M0,0 L2,1 L-3,2 L-3,4 L-10,6 L-11,8 L-13,8 L-11,2 Z " fill="#388A97" transform="translate(415,148)"/>
<path d="M0,0 L4,1 L2,1 L2,3 L-2,4 L-3,7 L-8,6 L-9,4 Z " fill="#E1EFF1" transform="translate(567,126)"/>
<path d="M0,0 L11,3 L17,5 L17,6 L4,5 L3,3 L0,2 Z " fill="#E7AE3D" transform="translate(262,128)"/>
<path d="M0,0 L0,3 L0,4 L3,5 L-1,8 L-8,10 L-2,2 Z " fill="#17313D" transform="translate(206,301)"/>
<path d="M0,0 L8,0 L16,2 L16,4 L18,5 L10,4 L0,1 Z " fill="#CB6917" transform="translate(223,220)"/>
<path d="M0,0 L3,4 L7,11 L7,13 L3,11 L-1,7 L1,7 L2,5 L0,5 Z " fill="#653B1A" transform="translate(483,356)"/>
<path d="M0,0 L3,3 L9,11 L8,13 L2,10 L0,4 Z " fill="#563A22" transform="translate(388,240)"/>
<path d="M0,0 L5,1 L9,5 L9,7 L3,5 L0,2 Z " fill="#E8EDF3" transform="translate(191,142)"/>
<path d="M0,0 L9,1 L14,2 L15,6 L10,5 L0,1 Z " fill="#4E818F" transform="translate(119,106)"/>
<path d="M0,0 L4,4 L5,8 L8,9 L9,12 L5,11 L5,9 L2,8 L0,4 Z " fill="#553722" transform="translate(397,253)"/>
<path d="M0,0 L12,0 L8,2 L-2,4 L-8,4 L-8,3 L0,2 Z " fill="#0F2B3D" transform="translate(478,225)"/>
<path d="M0,0 L6,5 L5,9 L-2,4 Z " fill="#1C3E51" transform="translate(220,153)"/>
<path d="M0,0 L5,4 L9,10 L3,9 L4,5 L-1,3 Z " fill="#E69726" transform="translate(263,198)"/>
<path d="M0,0 L4,1 L4,3 L9,2 L9,4 L7,4 L8,8 L5,8 L0,1 Z " fill="#5A7A7A" transform="translate(392,245)"/>
<path d="M0,0 L6,5 L4,9 L-1,9 L1,3 Z " fill="#D4690F" transform="translate(283,220)"/>
<path d="M0,0 L9,6 L5,10 L1,5 Z " fill="#467E8A" transform="translate(365,202)"/>
<path d="M0,0 L6,2 L6,6 L0,5 L0,2 Z " fill="#ECF3F6" transform="translate(167,128)"/>
<path d="M0,0 L3,3 L3,5 L7,8 L9,9 L7,13 L1,6 L1,4 L-1,4 Z " fill="#CE6B16" transform="translate(296,212)"/>
<path d="M0,0 L3,1 L0,3 L-2,3 L-2,5 L-6,6 L-11,7 L-11,5 Z " fill="#0A394C" transform="translate(393,194)"/>
<path d="M0,0 L9,2 L17,5 L17,6 L10,6 L10,4 L4,3 Z " fill="#E5AD41" transform="translate(279,134)"/>
<path d="M0,0 L5,1 L5,3 L-3,4 L-5,3 L-5,1 Z " fill="#E29322" transform="translate(191,206)"/>
<path d="M0,0 L10,2 L14,9 L10,9 L10,4 L1,2 Z " fill="#E1A937" transform="translate(316,146)"/>
<path d="M0,0 L4,2 L4,4 L4,7 L-2,5 L-4,3 L-1,2 Z " fill="#D5DEE0" transform="translate(174,131)"/>
<path d="M0,0 L4,5 L7,10 L6,12 L2,10 L2,4 L0,4 Z " fill="#5F4128" transform="translate(366,207)"/>
<path d="M0,0 L2,1 L-1,5 L-4,6 L-7,9 L-7,6 L-3,1 Z " fill="#1B3344" transform="translate(639,205)"/>
<path d="M0,0 L6,1 L11,4 L9,5 L5,4 L3,5 L0,3 Z " fill="#E7F2F6" transform="translate(155,123)"/>
<path d="M0,0 L6,0 L3,3 L-2,6 L-4,6 L-2,2 Z " fill="#396673" transform="translate(514,149)"/>
<path d="M0,0 L2,1 L0,4 L-2,4 L0,8 L-5,6 L-7,4 Z " fill="#0C4C5C" transform="translate(669,76)"/>
<path d="M0,0 L1,3 L0,5 L2,6 L-1,9 L-2,12 L-3,12 L-3,5 Z " fill="#D57D14" transform="translate(251,350)"/>
<path d="M0,0 L4,5 L7,11 L5,13 L1,5 L1,3 L-1,2 Z " fill="#143747" transform="translate(260,252)"/>
<path d="M0,0 L4,2 L9,5 L10,10 L3,4 Z " fill="#CE711E" transform="translate(237,154)"/>
<path d="M0,0 L3,1 L2,3 L-2,5 L-7,4 L-3,1 Z " fill="#2F4652" transform="translate(556,136)"/>
<path d="M0,0 L5,1 L8,3 L7,6 L2,5 Z " fill="#EBF4F6" transform="translate(176,133)"/>
<path d="M0,0 L3,1 L-7,5 L-9,5 L-9,7 L-13,5 Z " fill="#36868D" transform="translate(506,116)"/>
<path d="M0,0 L6,2 L14,5 L10,7 L0,1 Z " fill="#C2D7E0" transform="translate(123,108)"/>
<path d="M0,0 L7,3 L6,5 L10,7 L8,8 L3,6 L0,2 Z " fill="#24404F" transform="translate(162,130)"/>
<path d="M0,0 L2,1 L1,3 L-1,3 L-2,5 L-4,4 L-6,8 L-9,5 Z " fill="#1E3E4D" transform="translate(609,109)"/>
<path d="M0,0 L11,4 L10,6 L4,5 L0,2 Z " fill="#D38F32" transform="translate(190,102)"/>
<path d="M0,0 L3,0 L6,6 L5,10 L3,6 L0,2 Z " fill="#7F441B" transform="translate(477,349)"/>
<path d="M0,0 L5,4 L8,9 L7,11 L6,8 L2,6 Z " fill="#9F9E6C" transform="translate(353,187)"/>
<path d="M0,0 L5,0 L5,7 L0,2 Z " fill="#8FB5A1" transform="translate(328,147)"/>
<path d="M0,0 L5,2 L1,4 L-3,5 L-4,2 Z " fill="#E0E8E9" transform="translate(530,144)"/>
<path d="M0,0 L2,4 L0,4 L4,11 L2,11 L-2,6 Z " fill="#8A491F" transform="translate(477,345)"/>
<path d="M0,0 L1,0 L1,5 L-2,8 L-5,7 Z " fill="#984C05" transform="translate(344,239)"/>
<path d="M0,0 L1,0 L1,8 L-4,7 Z " fill="#9A4F12" transform="translate(364,208)"/>
<path d="M0,0 L5,1 L5,3 L8,4 L7,8 L0,1 Z " fill="#C3631A" transform="translate(274,192)"/>
<path d="M0,0 L3,1 L0,3 L-8,6 L-10,4 L-2,1 Z " fill="#388897" transform="translate(398,190)"/>
<path d="M0,0 L5,4 L5,7 L1,6 L1,4 L-1,3 Z " fill="#213A52" transform="translate(228,166)"/>
<path d="M0,0 L6,1 L8,2 L8,5 L2,3 L0,2 Z " fill="#E2EFF5" transform="translate(135,114)"/>
<path d="M0,0 L3,1 L4,4 L7,5 L7,10 L2,5 Z " fill="#607272" transform="translate(399,254)"/>
<path d="M0,0 L2,0 L2,2 L6,3 L7,7 L4,7 Z " fill="#50818A" transform="translate(379,226)"/>
<path d="M0,0 L8,0 L8,2 L13,3 L9,4 L0,1 Z " fill="#CD7622" transform="translate(210,216)"/>
<path d="M0,0 L3,1 L3,8 L-2,3 L-3,1 Z " fill="#C76616" transform="translate(285,199)"/>
<path d="M0,0 L8,1 L5,4 L0,3 L-2,1 Z " fill="#E0EAED" transform="translate(551,133)"/>
<path d="M0,0 L7,0 L4,3 L0,4 L0,2 L-2,1 Z " fill="#DBECF1" transform="translate(583,119)"/>
<path d="M0,0 L2,1 L-1,4 L-5,6 L-8,5 L-4,1 Z " fill="#2C6D78" transform="translate(586,115)"/>
<path d="M0,0 L5,0 L5,2 L1,4 L-2,3 L-6,2 Z " fill="#266875" transform="translate(529,108)"/>
<path d="M0,0 L4,1 L7,2 L7,4 L9,5 L5,6 Z " fill="#C38327" transform="translate(183,100)"/>
<path d="M0,0 L1,2 L-2,9 L-6,10 L-4,5 Z " fill="#AB5806" transform="translate(262,347)"/>
<path d="M0,0 L5,5 L5,8 L0,4 Z " fill="#584635" transform="translate(373,219)"/>
<path d="M0,0 L4,3 L5,9 L3,9 L0,4 Z " fill="#A9AB84" transform="translate(361,198)"/>
<path d="M0,0 L3,3 L5,8 L6,10 L2,9 L0,4 Z " fill="#E2AD53" transform="translate(358,195)"/>
<path d="M0,0 L4,4 L6,10 L1,5 Z " fill="#AFA162" transform="translate(343,171)"/>
<path d="M0,0 L5,2 L7,3 L7,5 L0,4 Z " fill="#2D3F4C" transform="translate(196,148)"/>
<path d="M0,0 L2,1 L1,3 L6,5 L2,6 L-2,4 Z " fill="#1A3F52" transform="translate(143,120)"/>
<path d="M0,0 L6,3 L7,6 L3,5 L0,2 Z " fill="#203947" transform="translate(136,116)"/>
<path d="M0,0 L3,1 L-3,6 L-4,2 Z " fill="#23646D" transform="translate(713,44)"/>
<path d="M0,0 L3,2 L3,4 L-2,6 L-5,6 Z " fill="#994E0C" transform="translate(301,296)"/>
<path d="M0,0 L4,3 L4,5 L1,6 L-2,3 L-1,1 Z " fill="#562204" transform="translate(422,287)"/>
<path d="M0,0 L5,5 L5,8 L1,7 Z " fill="#E3A22D" transform="translate(343,175)"/>
<path d="M0,0 L4,2 L3,6 L-1,6 L-1,2 Z " fill="#1F3443" transform="translate(203,152)"/>
<path d="M0,0 L5,5 L5,8 L3,8 L3,6 L1,6 Z " fill="#5C2F12" transform="translate(414,276)"/>
<path d="M0,0 L3,1 L3,5 L-2,5 Z " fill="#0D3E58" transform="translate(472,250)"/>
<path d="M0,0 L0,3 L-2,5 L-2,3 L-10,3 L-10,2 Z " fill="#223843" transform="translate(649,190)"/>
<path d="M0,0 L4,2 L7,6 L6,8 L1,3 Z " fill="#BDA757" transform="translate(326,148)"/>
<path d="M0,0 L1,2 L3,3 L-1,7 L-3,7 L-1,2 Z " fill="#C47A29" transform="translate(244,364)"/>
<path d="M0,0 L4,2 L-6,4 L-6,2 Z " fill="#143141" transform="translate(511,218)"/>
<path d="M0,0 L5,2 L8,6 L7,8 L0,1 Z " fill="#C1691B" transform="translate(255,172)"/>
<path d="M0,0 L6,2 L7,7 L0,1 Z " fill="#D87D1A" transform="translate(202,118)"/>
<path d="M0,0 Z " fill="#A67E4A" transform="translate(240,371)"/>
<path d="M0,0 Z " fill="#43301F" transform="translate(491,370)"/>
<path d="M0,0 Z " fill="#594129" transform="translate(490,369)"/>
<path d="M0,0 Z " fill="#172025" transform="translate(533,312)"/>
<path d="M0,0 Z " fill="#081619" transform="translate(197,311)"/>
<path d="M0,0 Z " fill="#48575E" transform="translate(492,172)"/>
<path d="M0,0 Z " fill="#2C4F4B" transform="translate(544,102)"/>
<path d="M0,0 Z " fill="#A38141" transform="translate(182,99)"/>
</svg>
