<?xml version="1.0" encoding="UTF-8"?>
<!-- Generator: visioncortex VTracer 0.6.5 -->
<svg version="1.1" xmlns="http://www.w3.org/2000/svg" width="512" height="513">
<path d="M0,0 L46,0 L69,3 L94,9 L118,17 L142,28 L161,39 L178,51 L189,60 L201,71 L216,86 L227,100 L238,115 L249,134 L257,150 L265,169 L273,196 L277,217 L279,234 L279,279 L276,302 L271,324 L265,344 L254,370 L243,390 L233,405 L223,418 L211,432 L193,450 L179,461 L164,472 L140,486 L118,496 L91,505 L69,510 L46,513 L0,513 L-22,510 L-45,505 L-72,496 L-98,484 L-115,474 L-132,462 L-143,453 L-155,442 L-170,427 L-181,413 L-192,398 L-203,379 L-211,363 L-219,344 L-227,317 L-231,296 L-233,279 L-233,234 L-230,211 L-225,188 L-216,161 L-205,137 L-192,115 L-181,100 L-173,90 L-162,78 L-147,63 L-133,52 L-118,41 L-103,32 L-86,23 L-61,13 L-37,6 L-17,2 Z " fill="#1F1F1F" transform="translate(233,0)"/>
<path d="M0,0 L3,3 L18,31 L34,62 L46,84 L63,117 L75,139 L80,148 L96,115 L121,65 L132,42 L153,0 L159,2 L183,16 L190,20 L188,26 L166,70 L155,93 L129,145 L118,168 L92,220 L81,243 L70,263 L60,277 L51,288 L34,305 L21,315 L3,325 L-10,330 L-25,334 L-36,335 L-52,302 L-52,300 L-35,296 L-14,288 L-1,280 L10,271 L18,263 L28,250 L39,232 L53,205 L56,198 L55,193 L41,166 L29,144 L16,119 L4,97 L-9,72 L-21,50 L-33,27 L-36,22 L-36,20 L-11,6 Z " fill="#FDFDFD" transform="translate(148,88)"/>
<path d="M0,0 L12,0 L21,4 L28,12 L31,18 L31,30 L27,39 L23,44 L17,48 L11,50 L0,50 L-10,45 L-16,38 L-19,31 L-19,18 L-15,10 L-8,3 Z " fill="#4495D7" transform="translate(375,193)"/>
</svg>
