<?xml version="1.0" encoding="UTF-8"?>
<!-- Generator: visioncortex VTracer 0.6.5 -->
<svg version="1.1" xmlns="http://www.w3.org/2000/svg" width="256" height="256">
<path d="M0,0 L6,1 L32,16 L58,31 L82,45 L108,60 L113,63 L113,193 L85,209 L61,223 L35,238 L11,252 L4,256 L-2,255 L-28,240 L-54,225 L-78,211 L-104,196 L-109,193 L-109,63 L-81,47 L-57,33 L-31,18 L-7,4 Z " fill="#266795" transform="translate(126,0)"/>
<path d="M0,0 L8,0 L11,3 L9,7 L-3,20 L-6,33 L-5,37 L3,44 L12,42 L20,39 L27,31 L33,24 L37,26 L38,27 L38,35 L24,50 L5,56 L-1,56 L-2,61 L-15,94 L-17,100 L50,101 L60,104 L69,110 L76,119 L80,129 L80,143 L77,153 L71,162 L62,169 L51,173 L36,173 L12,169 L-3,166 L-59,157 L-69,152 L-77,143 L-80,135 L-80,123 L-77,115 L-69,106 L-67,106 L-65,102 L-52,85 L-40,70 L-27,53 L-18,42 L-16,27 L-13,15 L-1,2 Z " fill="#FAFBFC" transform="translate(128,31)"/>
<path d="M0,0 L5,2 L33,18 L57,32 L67,38 L67,42 L55,57 L43,73 L36,79 L32,86 L31,90 L31,102 L35,111 L41,118 L51,123 L119,134 L134,137 L146,139 L161,139 L172,135 L181,128 L187,118 L190,111 L204,119 L218,127 L215,130 L187,146 L175,153 L176,155 L150,170 L126,184 L112,192 L106,191 L80,176 L54,161 L30,147 L4,132 L-1,129 L-1,47 Z " fill="#1F69A1" transform="translate(18,64)"/>
<path d="M0,0 L6,1 L32,16 L58,31 L82,45 L108,60 L113,63 L113,193 L85,209 L70,218 L66,217 L88,204 L109,192 L100,186 L83,176 L81,176 L81,160 L76,148 L70,141 L60,135 L52,133 L-16,132 L-12,120 L-6,122 L1,126 L5,125 L28,112 L45,102 L71,87 L95,73 L109,65 L105,62 L79,47 L55,33 L29,18 L4,3 L-1,4 L-27,19 L-41,27 L-65,41 L-91,56 L-105,64 L-108,64 L-108,111 L-109,111 L-109,63 L-81,47 L-57,33 L-31,18 L-7,4 Z " fill="#1D74B4" transform="translate(126,0)"/>
<path d="M0,0 L4,1 L10,8 L20,13 L76,22 L78,23 L78,79 L72,77 L50,64 L24,49 L-2,34 L-19,24 L-29,18 L-26,15 L-3,2 Z " fill="#1F5180" transform="translate(49,174)"/>
<path d="M0,0 L14,8 L28,16 L25,19 L-3,35 L-15,42 L-14,44 L-40,59 L-64,73 L-76,80 L-78,79 L-79,78 L-79,23 L-71,23 L-56,26 L-44,28 L-29,28 L-18,24 L-9,17 L-3,7 Z " fill="#1B5C94" transform="translate(208,175)"/>
<path d="M0,0 L12,0 L24,6 L30,13 L34,22 L34,33 L30,43 L24,50 L12,56 L0,56 L-12,50 L-18,43 L-22,34 L-22,22 L-16,10 L-9,4 Z " fill="#6584A3" transform="translate(166,140)"/>
<path d="M0,0 L52,0 L46,8 L41,20 L41,35 L45,46 L47,51 L36,50 L-1,44 L-3,42 L4,34 L7,26 L7,13 L2,3 Z " fill="#6281A1" transform="translate(96,140)"/>
<path d="M0,0 L9,0 L19,5 L24,12 L25,15 L25,24 L20,34 L12,39 L9,40 L0,40 L-9,35 L-14,27 L-15,24 L-15,15 L-10,6 L-3,1 Z " fill="#93A8BE" transform="translate(71,140)"/>
<path d="M0,0 L20,0 L28,14 L27,20 L20,32 L0,32 L-8,18 L-7,12 Z " fill="#92A8BD" transform="translate(162,152)"/>
<path d="M0,0 L4,1 L5,6 L-6,33 L-14,53 L-15,54 L-41,54 L-37,47 L-27,35 L-17,22 L-6,8 Z " fill="#4C7095" transform="translate(116,78)"/>
<path d="M0,0 L6,1 L32,16 L58,31 L82,45 L108,60 L111,63 L105,62 L79,47 L55,33 L29,18 L4,3 L-1,4 L-27,19 L-41,27 L-65,41 L-91,56 L-105,64 L-108,64 L-108,111 L-109,111 L-109,63 L-81,47 L-57,33 L-31,18 L-7,4 Z " fill="#29A0DA" transform="translate(126,0)"/>
<path d="M0,0 L20,0 L28,14 L27,20 L20,32 L0,32 L-8,18 L-7,12 Z M3,4 L-3,14 L-2,20 L3,28 L17,28 L23,18 L22,12 L17,4 Z " fill="#F9FAFB" transform="translate(162,152)"/>
<path d="M0,0 L6,1 L32,16 L56,30 L82,45 L106,59 L108,60 L108,4 L112,5 L110,5 L110,60 L112,61 L111,63 L105,62 L79,47 L53,32 L29,18 L3,3 Z " fill="#15609F" transform="translate(19,193)"/>
<path d="M0,0 L4,0 L4,72 L2,68 L1,4 L-25,19 L-53,35 L-55,34 L-33,21 L-7,6 L0,2 Z " fill="#1E87C7" transform="translate(235,63)"/>
<path d="M0,0 L10,0 L14,6 L13,11 L10,16 L0,16 L-4,10 L-3,5 Z " fill="#FCFDFD" transform="translate(71,152)"/>
<path d="M0,0 L3,1 L1,2 L1,126 L3,127 L3,129 L-1,129 L-1,47 Z " fill="#1A7DBD" transform="translate(18,64)"/>
<path d="M0,0 L6,2 L10,6 L12,7 L12,9 L17,10 L19,12 L-4,12 Z " fill="#206CA5" transform="translate(114,120)"/>
<path d="M0,0 L2,1 L-1,4 L-27,19 L-49,32 L-53,31 L-26,15 Z " fill="#14609F" transform="translate(188,219)"/>
<path d="M0,0 L4,1 L-20,15 L-25,16 L-25,63 L-26,63 L-26,15 Z " fill="#2D9ACE" transform="translate(43,48)"/>
<path d="M0,0 L6,1 L32,16 L47,25 L43,26 L17,11 L0,1 Z " fill="#1868A6" transform="translate(19,193)"/>
<path d="M0,0 L4,1 L-22,16 L-37,25 L-41,24 L-19,11 Z " fill="#1769A7" transform="translate(233,193)"/>
<path d="M0,0 L4,1 L-20,15 L-32,22 L-36,21 L-12,7 Z " fill="#289DD7" transform="translate(81,26)"/>
<path d="M0,0 L2,1 L-1,4 L-4,6 L-8,5 Z " fill="#2DA7DF" transform="translate(91,20)"/>
</svg>
