<?xml version="1.0" encoding="UTF-8"?>
<!-- Generator: visioncortex VTracer 0.6.5 -->
<svg version="1.1" xmlns="http://www.w3.org/2000/svg" width="200" height="200">
<path d="M0,0 L29,0 L36,11 L42,22 L41,26 L40,28 L45,30 L53,36 L60,46 L69,62 L72,67 L70,73 L66,79 L79,80 L88,95 L101,118 L104,127 L104,136 L99,149 L85,173 L79,180 L69,185 L64,186 L22,186 L17,177 L15,177 L10,186 L-80,186 L-92,165 L-93,161 L-80,138 L-74,128 L-60,104 L-54,93 L-49,85 L-36,85 L-42,75 L-41,70 L-33,57 L-21,36 L-7,12 Z M16,68 L5,87 L0,96 L-14,97 L-10,105 L-8,110 L-18,127 L-24,137 L-24,138 L10,138 L12,144 L17,149 L22,140 L22,138 L57,138 L50,125 L38,104 L42,96 L44,92 L30,92 L28,87 L19,71 Z " fill="#738999" transform="translate(94,0)"/>
<path d="M0,0 L25,0 L23,6 L17,16 L6,35 L4,39 L14,22 L22,8 L26,1 L29,4 L35,14 L39,23 L37,28 L44,31 L51,34 L57,42 L68,61 L71,66 L70,70 L67,70 L65,75 L57,88 L53,84 L41,62 L36,55 L31,53 L25,53 L21,55 L11,72 L9,77 L7,77 L5,82 L-1,93 L-4,92 L-13,76 L-14,75 L-14,70 L-8,60 L-7,57 L-13,68 L-16,72 L-40,72 L-38,67 L-28,49 L-16,28 L-9,17 L-3,6 Z " fill="#89A2B2" transform="translate(95,1)"/>
<path d="M0,0 L25,0 L19,11 L10,27 L3,39 L4,45 L8,52 L55,53 L53,58 L52,61 L56,54 L58,54 L63,63 L62,68 L59,74 L60,78 L63,84 L62,88 L58,96 L56,96 L45,77 L46,72 L47,69 L43,75 L-43,75 L-37,64 L-31,52 L-29,52 L-27,46 L-16,27 L-6,10 L-1,1 Z " fill="#95AFC4" transform="translate(46,87)"/>
<path d="M0,0 L29,0 L36,11 L42,22 L41,26 L40,28 L45,30 L50,34 L45,33 L37,29 L39,23 L28,3 L20,16 L7,39 L3,45 L2,43 L15,20 L26,1 L1,1 L0,5 L-6,15 L-12,26 L-24,47 L-35,66 L-39,73 L-15,72 L-5,55 L-4,58 L-12,71 L-12,76 L-6,86 L-2,93 L0,94 L2,88 L8,78 L10,78 L8,84 L2,94 L0,97 L-16,98 L-21,89 L-23,88 L-48,88 L-53,97 L-64,116 L-77,139 L-79,139 L-80,144 L-90,161 L-5,161 L0,153 L1,155 L-2,160 L-1,166 L3,173 L6,181 L7,184 L-79,184 L-82,183 L-92,165 L-93,161 L-80,138 L-74,128 L-60,104 L-54,93 L-49,85 L-36,85 L-42,75 L-41,70 L-33,57 L-21,36 L-7,12 Z " fill="#748A9A" transform="translate(94,0)"/>
<path d="M0,0 L25,0 L23,6 L17,16 L6,35 L-8,59 L-15,71 L-16,72 L-40,72 L-38,67 L-28,49 L-16,28 L-9,17 L-3,6 Z " fill="#94AEC3" transform="translate(95,1)"/>
<path d="M0,0 L2,0 L9,12 L9,14 L13,15 L26,39 L27,44 L27,53 L23,64 L20,64 L18,69 L14,76 L13,76 L12,64 L4,48 L-11,22 L-10,18 Z " fill="#89A2B2" transform="translate(171,83)"/>
<path d="M0,0 L4,1 L8,8 L8,10 L11,10 L17,20 L15,25 L9,35 L6,35 L4,40 L-2,51 L-15,51 L-18,46 L-22,42 L-21,36 L-10,17 Z " fill="#859DAE" transform="translate(70,88)"/>
<path d="M0,0 L36,0 L40,7 L40,14 L37,19 L31,22 L-11,22 L-9,16 Z " fill="#94AEC3" transform="translate(117,140)"/>
<path d="M0,0 L29,0 L36,11 L42,22 L41,26 L40,28 L45,30 L50,34 L45,33 L37,29 L39,23 L28,3 L20,16 L7,39 L3,45 L2,43 L15,20 L26,1 L1,1 L0,5 L-6,15 L-12,26 L-24,47 L-35,66 L-39,73 L-15,72 L-5,55 L-4,58 L-12,71 L-12,76 L-6,86 L-3,95 L-16,95 L-21,87 L-33,86 L-36,81 L-39,80 L-42,75 L-41,70 L-33,57 L-21,36 L-7,12 Z " fill="#8DBF79" transform="translate(94,0)"/>
<path d="M0,0 L2,0 L7,9 L6,14 L3,20 L4,24 L7,30 L6,34 L2,42 L0,42 L-11,23 L-10,18 Z " fill="#C2D141" transform="translate(102,141)"/>
<path d="M0,0 L13,0 L11,4 L1,22 L-24,22 L-19,12 L-18,11 L-6,11 L-4,6 Z " fill="#6EC8F0" transform="translate(158,81)"/>
<path d="M0,0 L29,0 L36,11 L42,22 L41,26 L40,28 L45,30 L50,34 L45,33 L37,29 L39,23 L28,3 L20,16 L7,39 L3,45 L2,43 L15,20 L26,1 L1,1 L0,5 L-6,15 L-12,26 L-24,47 L-35,66 L-39,73 L-15,72 L-5,55 L-4,58 L-12,71 L-13,76 L-15,75 L-39,74 L-38,80 L-42,75 L-41,70 L-33,57 L-21,36 L-7,12 Z " fill="#506274" transform="translate(94,0)"/>
<path d="M0,0 L3,3 L7,10 L7,12 L56,11 L53,13 L48,14 L6,14 L1,5 L-1,5 L-6,14 L-96,14 L-97,11 L-9,12 L-13,5 L-12,3 L-8,9 L-8,11 L-6,11 L-4,5 Z " fill="#4C5D6B" transform="translate(110,172)"/>
<path d="M0,0 L2,0 L0,6 L-6,16 L-8,19 L-24,20 L-29,11 L-31,10 L-56,10 L-61,19 L-72,38 L-85,61 L-87,61 L-88,66 L-98,83 L-98,89 L-101,86 L-100,81 L-88,60 L-82,50 L-68,26 L-62,15 L-57,7 L-44,7 L-46,2 L-43,3 L-41,7 L-29,8 L-24,16 L-12,16 L-14,10 L-11,13 L-8,16 L-6,10 Z " fill="#435362" transform="translate(102,78)"/>
<path d="M0,0 L2,0 L0,6 L-2,8 L11,9 L20,24 L20,26 L18,26 L11,14 L11,12 L9,12 L7,17 L-1,31 L0,38 L-4,34 L-28,34 L-30,35 L-31,32 L-25,22 L-38,21 L-39,18 L-13,18 L-14,14 L-10,17 Z M-4,10 L-10,19 L-10,21 L-22,21 L-28,31 L-28,32 L-3,32 L8,13 L9,10 Z " fill="#597489" transform="translate(162,71)"/>
<path d="M0,0 L2,0 L0,6 L-5,14 L28,15 L34,25 L39,17 L40,15 L75,15 L75,16 L42,17 L36,28 L32,27 L28,20 L28,18 L26,18 L24,23 L21,28 L20,26 L25,17 L-22,17 L-25,12 L-24,10 L-21,15 L-8,16 L-6,10 Z " fill="#475865" transform="translate(76,123)"/>
<path d="M0,0 L3,1 L14,20 L14,31 L9,36 L6,38 L-38,38 L-39,40 L-40,36 L-35,26 L-33,26 L-35,31 L-38,37 L4,36 L10,33 L12,29 L12,22 L9,16 L-26,15 L-26,14 L7,14 Z " fill="#5F7585" transform="translate(144,125)"/>
<path d="M0,0 L3,3 L7,10 L7,12 L56,11 L53,13 L48,14 L6,14 L1,5 L-1,5 L-5,12 L-6,9 L-1,1 Z " fill="#3A4855" transform="translate(110,172)"/>
<path d="M0,0 L2,0 L0,6 L-6,16 L-8,19 L-24,20 L-29,11 L-31,10 L-56,9 L-56,8 L-29,8 L-24,16 L-12,16 L-14,10 L-11,13 L-8,16 L-6,10 Z " fill="#5E757D" transform="translate(102,78)"/>
<path d="M0,0 L1,2 L-2,7 L-1,13 L3,20 L2,22 L-5,11 L-91,10 L-91,9 L-5,8 Z " fill="#5C717F" transform="translate(94,153)"/>
<path d="M0,0 L1,3 L-7,16 L-8,21 L-10,20 L-34,19 L-33,25 L-37,20 L-36,15 L-34,12 L-31,13 L-34,18 L-10,17 Z " fill="#536777" transform="translate(89,55)"/>
<path d="M0,0 L3,3 L11,18 L12,23 L12,32 L8,43 L7,43 L8,35 L9,32 L9,21 L1,5 Z " fill="#445463" transform="translate(186,104)"/>
<path d="M0,0 L35,0 L35,1 L2,2 L-4,13 L-8,12 L-12,5 L-11,2 L-6,10 L-1,2 Z " fill="#313D47" transform="translate(116,138)"/>
<path d="M0,0 L2,1 L3,11 L9,1 L11,1 L9,6 L-1,24 L-2,20 L-1,18 Z " fill="#63798B" transform="translate(182,146)"/>
<path d="M0,0 L2,0 L0,6 L-2,8 L11,9 L20,24 L20,26 L18,26 L11,14 L11,12 L9,12 L9,10 L-4,10 L-3,5 Z " fill="#4D6072" transform="translate(162,71)"/>
<path d="M0,0 L3,1 L10,13 L10,15 L-26,15 L-26,14 L7,14 Z " fill="#5D7387" transform="translate(144,125)"/>
<path d="M0,0 L1,4 L-9,22 L-14,30 L-16,29 L-5,9 Z " fill="#415160" transform="translate(72,37)"/>
<path d="M0,0 L3,3 L6,8 L5,12 L0,4 L-5,12 L-6,9 L-1,1 Z " fill="#44545E" transform="translate(110,172)"/>
<path d="M0,0 L5,4 L12,16 L12,18 L10,18 L2,5 L0,3 Z " fill="#485969" transform="translate(144,34)"/>
<path d="M0,0 L2,0 L0,6 L-6,16 L-8,18 L-7,12 Z " fill="#3F4F5D" transform="translate(102,78)"/>
<path d="M0,0 L1,3 L-1,6 L4,8 L9,12 L4,11 L-4,7 L-2,2 L0,2 Z " fill="#425160" transform="translate(135,22)"/>
<path d="M0,0 L2,0 L0,6 L-6,16 L-7,12 Z " fill="#41515F" transform="translate(76,123)"/>
<path d="M0,0 L3,1 L8,10 L7,14 Z " fill="#445464" transform="translate(144,125)"/>
<path d="M0,0 L2,0 L0,5 L-5,14 L-6,10 Z " fill="#425261" transform="translate(191,147)"/>
<path d="M0,0 L1,4 L-5,14 L-7,14 L-5,9 Z " fill="#425261" transform="translate(32,107)"/>
<path d="M0,0 L1,3 L-3,11 L-5,13 L-6,10 Z " fill="#3E5160" transform="translate(137,93)"/>
<path d="M0,0 L4,4 L6,10 L4,12 L1,5 Z " fill="#3E4E5C" transform="translate(160,59)"/>
<path d="M0,0 L1,2 L-3,10 L-5,10 L-3,4 Z " fill="#3A4956" transform="translate(15,137)"/>
<path d="M0,0 L2,0 L0,5 L-3,10 L-4,7 Z " fill="#3D4C5A" transform="translate(82,113)"/>
<path d="M0,0 L2,0 L0,5 L-3,10 L-4,7 Z " fill="#3D4C59" transform="translate(108,68)"/>
<path d="M0,0 L5,4 L7,9 L4,8 L0,3 Z " fill="#3E4D5B" transform="translate(144,34)"/>
<path d="M0,0 L3,0 L1,5 L-2,9 L-1,3 Z " fill="#3D4C5B" transform="translate(182,161)"/>
<path d="M0,0 L4,2 L6,6 L5,10 Z " fill="#3D4C5A" transform="translate(110,67)"/>
<path d="M0,0 L1,3 L-2,10 L-3,10 L-2,2 Z " fill="#485A69" transform="translate(196,137)"/>
<path d="M0,0 L4,5 L5,9 L3,9 L0,4 Z " fill="#404F5E" transform="translate(177,88)"/>
<path d="M0,0 L2,0 L0,6 L-3,8 L-2,3 Z " fill="#3D4C59" transform="translate(162,71)"/>
</svg>
