<?xml version="1.0" encoding="UTF-8"?>
<!-- Generator: visioncortex VTracer 0.6.5 -->
<svg version="1.1" xmlns="http://www.w3.org/2000/svg" width="256" height="256">
<path d="M0,0 L8,0 L8,2 L6,2 L6,6 L4,6 L4,10 L2,10 L2,12 L0,12 L0,16 L-2,16 L-2,20 L-4,20 L-4,24 L-6,24 L-6,30 L-8,30 L-8,46 L-4,46 L-4,44 L-2,44 L-2,42 L0,42 L0,40 L2,40 L2,38 L6,38 L6,36 L8,36 L8,34 L12,34 L12,32 L20,32 L20,30 L26,30 L26,32 L34,32 L34,34 L38,34 L38,36 L40,36 L40,40 L38,40 L38,42 L36,42 L36,44 L34,44 L34,46 L32,46 L32,48 L30,48 L30,50 L28,50 L28,52 L26,52 L26,54 L24,54 L24,56 L22,56 L22,58 L20,58 L20,60 L18,60 L18,62 L16,62 L16,66 L14,66 L14,72 L12,72 L12,78 L14,78 L14,80 L16,80 L16,82 L20,82 L20,80 L36,80 L36,82 L40,82 L40,84 L42,84 L42,86 L44,86 L44,88 L46,88 L46,90 L48,90 L48,96 L50,96 L50,108 L48,108 L48,114 L46,114 L46,116 L44,116 L44,118 L42,118 L42,120 L38,120 L38,122 L32,122 L32,128 L30,128 L30,136 L28,136 L28,140 L26,140 L26,144 L24,144 L24,146 L22,146 L22,150 L20,150 L20,152 L16,152 L16,154 L14,154 L14,156 L10,156 L10,158 L4,158 L4,160 L-10,160 L-10,162 L-20,162 L-20,164 L-22,164 L-22,166 L-24,166 L-24,168 L-26,168 L-26,170 L-28,170 L-28,174 L-30,174 L-30,178 L-32,178 L-32,180 L-34,180 L-34,186 L-32,186 L-32,194 L-30,194 L-30,200 L-26,200 L-26,202 L-22,202 L-22,200 L-16,200 L-16,198 L-4,198 L-4,200 L0,200 L0,202 L2,202 L2,204 L4,204 L4,208 L6,208 L6,216 L8,216 L8,220 L6,220 L6,240 L4,240 L4,246 L-16,246 L-16,248 L-18,248 L-18,250 L-82,250 L-82,234 L-84,234 L-84,240 L-86,240 L-86,246 L-88,246 L-88,248 L-106,248 L-106,252 L-164,252 L-164,250 L-166,250 L-166,248 L-168,248 L-168,244 L-170,244 L-170,240 L-172,240 L-172,232 L-174,232 L-174,218 L-172,218 L-172,210 L-170,210 L-170,204 L-168,204 L-168,200 L-166,200 L-166,198 L-164,198 L-164,194 L-162,194 L-162,192 L-160,192 L-160,190 L-158,190 L-158,188 L-156,188 L-156,184 L-158,184 L-158,182 L-160,182 L-160,178 L-162,178 L-162,174 L-164,174 L-164,168 L-166,168 L-166,152 L-164,152 L-164,144 L-162,144 L-162,138 L-160,138 L-160,134 L-158,134 L-158,128 L-156,128 L-156,124 L-154,124 L-154,122 L-156,122 L-156,118 L-158,118 L-158,112 L-160,112 L-160,106 L-162,106 L-162,102 L-164,102 L-164,94 L-166,94 L-166,70 L-164,70 L-164,62 L-162,62 L-162,60 L-160,60 L-160,56 L-158,56 L-158,54 L-156,54 L-156,50 L-154,50 L-154,48 L-152,48 L-152,46 L-150,46 L-150,44 L-146,44 L-146,42 L-144,42 L-144,40 L-142,40 L-142,38 L-138,38 L-138,36 L-134,36 L-134,34 L-130,34 L-130,36 L-128,36 L-128,42 L-130,42 L-130,46 L-132,46 L-132,50 L-134,50 L-134,54 L-136,54 L-136,62 L-138,62 L-138,78 L-136,78 L-136,86 L-134,86 L-134,92 L-132,92 L-132,96 L-130,96 L-130,100 L-128,100 L-128,104 L-126,104 L-126,108 L-124,108 L-124,110 L-122,110 L-122,114 L-120,114 L-120,116 L-118,116 L-118,118 L-102,118 L-102,116 L-98,116 L-98,114 L-96,114 L-96,112 L-92,112 L-92,110 L-90,110 L-90,108 L-88,108 L-88,106 L-86,106 L-86,102 L-84,102 L-84,100 L-82,100 L-82,96 L-80,96 L-80,94 L-78,94 L-78,92 L-76,92 L-76,86 L-74,86 L-74,82 L-72,82 L-72,78 L-70,78 L-70,74 L-68,74 L-68,70 L-66,70 L-66,68 L-64,68 L-64,64 L-62,64 L-62,62 L-60,62 L-60,58 L-58,58 L-58,56 L-56,56 L-56,54 L-54,54 L-54,50 L-52,50 L-52,46 L-50,46 L-50,42 L-48,42 L-48,34 L-46,34 L-46,28 L-44,28 L-44,24 L-42,24 L-42,20 L-40,20 L-40,18 L-38,18 L-38,14 L-34,14 L-34,12 L-32,12 L-32,10 L-28,10 L-28,8 L-24,8 L-24,6 L-18,6 L-18,4 L-10,4 L-10,2 L0,2 Z M-88,204 L-88,206 L-90,206 L-90,208 L-88,208 L-88,210 L-86,210 L-86,212 L-84,212 L-84,214 L-82,214 L-82,204 Z " fill="#040404" transform="translate(190,4)"/>
<path d="M0,0 L2,0 L2,6 L0,6 L0,30 L2,30 L2,38 L4,38 L4,42 L6,42 L6,46 L8,46 L8,50 L10,50 L10,54 L12,54 L12,58 L14,58 L14,62 L16,62 L16,64 L18,64 L18,68 L20,68 L20,70 L22,70 L22,72 L28,72 L28,74 L44,74 L44,72 L50,72 L50,70 L54,70 L54,68 L56,68 L56,66 L60,66 L60,64 L62,64 L62,62 L64,62 L64,60 L66,60 L66,62 L68,62 L68,66 L70,66 L70,68 L72,68 L72,70 L74,70 L74,72 L76,72 L76,76 L78,76 L78,78 L80,78 L80,80 L82,80 L82,82 L84,82 L84,86 L86,86 L86,88 L88,88 L88,90 L90,90 L90,92 L92,92 L92,94 L94,94 L94,96 L96,96 L96,98 L98,98 L98,100 L100,100 L100,102 L102,102 L102,104 L104,104 L104,106 L106,106 L106,108 L108,108 L108,110 L110,110 L110,112 L112,112 L112,114 L110,114 L110,120 L108,120 L108,122 L106,122 L106,124 L104,124 L104,126 L100,126 L100,128 L98,128 L98,130 L88,130 L88,150 L90,150 L90,166 L94,166 L94,164 L98,164 L98,162 L102,162 L102,160 L106,160 L106,158 L112,158 L112,156 L122,156 L122,158 L124,158 L124,162 L126,162 L126,178 L124,178 L124,188 L122,188 L122,190 L72,190 L72,140 L64,140 L64,144 L58,144 L58,146 L30,146 L30,140 L32,140 L32,134 L30,134 L30,132 L26,132 L26,134 L24,134 L24,144 L22,144 L22,146 L20,146 L20,150 L18,150 L18,152 L16,152 L16,154 L14,154 L14,156 L12,156 L12,158 L10,158 L10,160 L6,160 L6,162 L4,162 L4,166 L6,166 L6,168 L12,168 L12,166 L16,166 L16,164 L22,164 L22,162 L38,162 L38,164 L40,164 L40,180 L38,180 L38,184 L36,184 L36,188 L34,188 L34,192 L-14,192 L-14,190 L-16,190 L-16,186 L-18,186 L-18,180 L-20,180 L-20,162 L-18,162 L-18,158 L-16,158 L-16,154 L-14,154 L-14,150 L-12,150 L-12,148 L-10,148 L-10,146 L-8,146 L-8,144 L-6,144 L-6,140 L-4,140 L-4,138 L-2,138 L-2,136 L0,136 L0,134 L2,134 L2,130 L0,130 L0,128 L-4,128 L-4,126 L-6,126 L-6,124 L-8,124 L-8,120 L-10,120 L-10,114 L-12,114 L-12,100 L-10,100 L-10,94 L-8,94 L-8,88 L-6,88 L-6,84 L-4,84 L-4,78 L-2,78 L-2,74 L0,74 L0,68 L-2,68 L-2,62 L-4,62 L-4,56 L-6,56 L-6,50 L-8,50 L-8,46 L-10,46 L-10,38 L-12,38 L-12,22 L-10,22 L-10,14 L-8,14 L-8,10 L-6,10 L-6,8 L-4,8 L-4,6 L-2,6 L-2,2 L0,2 Z " fill="#A6A6A6" transform="translate(44,56)"/>
<path d="M0,0 L6,0 L6,4 L4,4 L4,8 L2,8 L2,14 L0,14 L0,36 L2,36 L2,42 L4,42 L4,44 L6,44 L6,48 L10,48 L10,46 L12,46 L12,44 L14,44 L14,42 L16,42 L16,40 L18,40 L18,38 L20,38 L20,36 L22,36 L22,34 L24,34 L24,32 L28,32 L28,30 L30,30 L30,28 L42,28 L42,30 L40,30 L40,32 L38,32 L38,34 L36,34 L36,36 L34,36 L34,38 L32,38 L32,40 L30,40 L30,42 L28,42 L28,44 L26,44 L26,48 L24,48 L24,52 L22,52 L22,58 L20,58 L20,60 L18,60 L18,62 L22,62 L22,66 L16,66 L16,72 L18,72 L18,76 L26,76 L26,80 L24,80 L24,82 L22,82 L22,98 L24,98 L24,100 L26,100 L26,104 L28,104 L28,106 L32,106 L32,108 L34,108 L34,110 L40,110 L40,116 L38,116 L38,120 L36,120 L36,126 L34,126 L34,128 L32,128 L32,132 L30,132 L30,134 L26,134 L26,136 L22,136 L22,138 L16,138 L16,140 L-8,140 L-8,138 L-10,138 L-10,136 L-12,136 L-12,134 L-14,134 L-14,132 L-16,132 L-16,130 L-18,130 L-18,128 L-20,128 L-20,126 L-22,126 L-22,124 L-24,124 L-24,122 L-26,122 L-26,120 L-28,120 L-28,118 L-30,118 L-30,116 L-32,116 L-32,114 L-34,114 L-34,110 L-36,110 L-36,108 L-38,108 L-38,106 L-40,106 L-40,104 L-42,104 L-42,102 L-44,102 L-44,100 L-46,100 L-46,98 L-48,98 L-48,94 L-50,94 L-50,92 L-52,92 L-52,90 L-54,90 L-54,82 L-52,82 L-52,76 L-50,76 L-50,72 L-48,72 L-48,68 L-46,68 L-46,66 L-44,66 L-44,62 L-42,62 L-42,58 L-40,58 L-40,56 L-38,56 L-38,52 L-36,52 L-36,50 L-34,50 L-34,48 L-32,48 L-32,44 L-30,44 L-30,40 L-28,40 L-28,36 L-26,36 L-26,30 L-24,30 L-24,26 L-22,26 L-22,18 L-20,18 L-20,14 L-18,14 L-18,12 L-16,12 L-16,10 L-14,10 L-14,8 L-12,8 L-12,6 L-10,6 L-10,4 L-6,4 L-6,2 L0,2 Z " fill="#979797" transform="translate(174,16)"/>
<path d="M0,0 L8,0 L8,2 L6,2 L6,6 L4,6 L4,10 L2,10 L2,12 L0,12 L0,16 L-2,16 L-2,20 L-4,20 L-4,24 L-6,24 L-6,30 L-8,30 L-8,46 L-4,46 L-4,44 L-2,44 L-2,42 L0,42 L0,40 L2,40 L2,38 L6,38 L6,36 L8,36 L8,34 L12,34 L12,32 L20,32 L20,30 L26,30 L26,32 L34,32 L34,34 L38,34 L38,36 L40,36 L40,40 L38,40 L38,42 L36,42 L36,44 L34,44 L34,46 L32,46 L32,48 L30,48 L30,50 L28,50 L28,52 L26,52 L26,54 L24,54 L24,56 L22,56 L22,58 L20,58 L20,60 L18,60 L18,62 L16,62 L16,66 L14,66 L14,72 L12,72 L12,78 L14,78 L14,80 L16,80 L16,82 L20,82 L20,80 L36,80 L36,82 L40,82 L40,84 L42,84 L42,86 L44,86 L44,88 L46,88 L46,90 L48,90 L48,96 L50,96 L50,108 L48,108 L48,114 L46,114 L46,116 L44,116 L44,118 L42,118 L42,120 L38,120 L38,122 L32,122 L32,128 L30,128 L30,136 L28,136 L28,140 L26,140 L26,144 L24,144 L24,146 L22,146 L22,150 L20,150 L20,152 L16,152 L16,154 L14,154 L14,156 L10,156 L10,158 L4,158 L4,160 L-10,160 L-10,162 L-20,162 L-20,156 L-24,156 L-24,152 L0,152 L0,150 L6,150 L6,148 L10,148 L10,146 L14,146 L14,144 L16,144 L16,140 L18,140 L18,138 L20,138 L20,132 L22,132 L22,128 L24,128 L24,122 L18,122 L18,120 L16,120 L16,118 L12,118 L12,116 L10,116 L10,112 L8,112 L8,110 L6,110 L6,94 L8,94 L8,92 L10,92 L10,88 L2,88 L2,84 L0,84 L0,78 L6,78 L6,74 L2,74 L2,72 L4,72 L4,70 L6,70 L6,64 L8,64 L8,60 L10,60 L10,56 L12,56 L12,54 L14,54 L14,52 L16,52 L16,50 L18,50 L18,48 L20,48 L20,46 L22,46 L22,44 L24,44 L24,42 L26,42 L26,40 L14,40 L14,42 L12,42 L12,44 L8,44 L8,46 L6,46 L6,48 L4,48 L4,50 L2,50 L2,52 L0,52 L0,54 L-2,54 L-2,56 L-4,56 L-4,58 L-6,58 L-6,60 L-10,60 L-10,56 L-12,56 L-12,54 L-14,54 L-14,48 L-16,48 L-16,26 L-14,26 L-14,20 L-12,20 L-12,16 L-10,16 L-10,12 L-16,12 L-16,14 L-22,14 L-22,16 L-26,16 L-26,18 L-28,18 L-28,20 L-30,20 L-30,22 L-32,22 L-32,24 L-34,24 L-34,26 L-36,26 L-36,30 L-38,30 L-38,38 L-40,38 L-40,42 L-42,42 L-42,48 L-44,48 L-44,52 L-46,52 L-46,56 L-48,56 L-48,60 L-50,60 L-50,62 L-52,62 L-52,64 L-54,64 L-54,68 L-56,68 L-56,70 L-58,70 L-58,74 L-60,74 L-60,78 L-62,78 L-62,80 L-64,80 L-64,84 L-66,84 L-66,88 L-68,88 L-68,94 L-70,94 L-70,102 L-68,102 L-68,104 L-66,104 L-66,106 L-64,106 L-64,110 L-66,110 L-66,108 L-68,108 L-68,126 L-66,126 L-66,128 L-64,128 L-64,132 L-66,132 L-66,130 L-68,130 L-68,128 L-70,128 L-70,124 L-72,124 L-72,122 L-74,122 L-74,120 L-76,120 L-76,118 L-78,118 L-78,114 L-80,114 L-80,108 L-82,108 L-82,102 L-80,102 L-80,100 L-78,100 L-78,96 L-80,96 L-80,94 L-78,94 L-78,92 L-76,92 L-76,86 L-74,86 L-74,82 L-72,82 L-72,78 L-70,78 L-70,74 L-68,74 L-68,70 L-66,70 L-66,68 L-64,68 L-64,64 L-62,64 L-62,62 L-60,62 L-60,58 L-58,58 L-58,56 L-56,56 L-56,54 L-54,54 L-54,50 L-52,50 L-52,46 L-50,46 L-50,42 L-48,42 L-48,34 L-46,34 L-46,28 L-44,28 L-44,24 L-42,24 L-42,20 L-40,20 L-40,18 L-38,18 L-38,14 L-34,14 L-34,12 L-32,12 L-32,10 L-28,10 L-28,8 L-24,8 L-24,6 L-18,6 L-18,4 L-10,4 L-10,2 L0,2 Z " fill="#050405" transform="translate(190,4)"/>
<path d="M0,0 L3,0 L3,10 L1,10 L1,12 L5,12 L5,10 L11,10 L11,12 L13,12 L13,14 L15,14 L15,16 L17,16 L17,12 L21,12 L21,14 L23,14 L23,16 L25,16 L25,20 L29,20 L29,18 L31,18 L31,16 L33,16 L33,14 L35,14 L35,12 L37,12 L37,10 L39,10 L39,8 L41,8 L41,6 L43,6 L43,4 L47,4 L47,2 L49,2 L49,0 L61,0 L61,2 L59,2 L59,4 L57,4 L57,6 L55,6 L55,8 L53,8 L53,10 L51,10 L51,12 L49,12 L49,14 L47,14 L47,16 L45,16 L45,20 L43,20 L43,24 L41,24 L41,30 L39,30 L39,32 L37,32 L37,34 L41,34 L41,38 L35,38 L35,44 L37,44 L37,48 L39,48 L39,66 L35,70 L3,70 L3,68 L-1,68 L-1,66 L-3,66 L-5,63 L-7,62 L-7,11 L-3,10 L-3,5 Z " fill="#B2B2B2" transform="translate(155,44)"/>
<path d="M0,0 L2,0 L2,2 L6,2 L6,4 L8,4 L8,6 L10,6 L10,8 L12,8 L12,10 L14,10 L14,12 L16,12 L16,14 L18,14 L18,18 L20,18 L20,20 L22,20 L22,22 L24,22 L24,24 L26,24 L26,26 L28,26 L28,28 L30,28 L30,30 L32,30 L32,32 L34,32 L34,34 L36,34 L36,36 L38,36 L38,38 L40,38 L40,40 L42,40 L42,42 L44,42 L44,48 L48,48 L48,50 L46,50 L46,52 L44,52 L44,54 L42,54 L42,56 L40,56 L40,58 L38,58 L38,56 L36,56 L36,54 L34,54 L34,52 L32,52 L32,50 L30,50 L30,48 L28,48 L28,46 L26,46 L26,44 L20,44 L20,42 L18,42 L18,40 L16,40 L16,38 L14,38 L14,36 L12,36 L12,34 L10,34 L10,32 L8,32 L8,30 L6,30 L6,26 L4,26 L4,20 L2,20 L2,18 L0,18 Z " fill="#AE0000" transform="translate(122,112)"/>
<path d="M0,0 L16,0 L16,2 L18,2 L18,4 L20,4 L20,6 L22,6 L22,8 L24,8 L24,22 L22,22 L22,26 L20,26 L20,28 L18,28 L18,30 L14,30 L14,32 L0,32 L0,30 L-2,30 L-2,28 L-6,28 L-6,24 L-8,24 L-8,22 L-10,22 L-10,10 L-8,10 L-8,8 L-6,8 L-6,4 L-4,4 L-4,2 L0,2 Z " fill="#FF3DFF" transform="translate(210,90)"/>
<path d="M0,0 L6,0 L6,4 L4,4 L4,8 L2,8 L2,14 L0,14 L0,36 L2,36 L2,40 L-2,40 L-2,44 L-4,44 L-4,42 L-6,42 L-6,40 L-8,40 L-8,38 L-14,38 L-14,40 L-18,40 L-18,38 L-16,38 L-16,28 L-14,28 L-14,24 L-20,24 L-20,26 L-22,26 L-22,18 L-20,18 L-20,14 L-18,14 L-18,12 L-16,12 L-16,10 L-14,10 L-14,8 L-12,8 L-12,6 L-10,6 L-10,4 L-6,4 L-6,2 L0,2 Z " fill="#9A9A9A" transform="translate(174,16)"/>
<path d="M0,0 L4,0 L4,2 L6,2 L6,4 L8,4 L8,10 L12,10 L12,18 L8,18 L8,20 L6,20 L6,22 L4,22 L4,36 L-8,36 L-8,4 L0,4 Z " fill="#C5C5C5" transform="translate(172,56)"/>
<path d="M0,0 L2,0 L2,2 L6,2 L6,4 L8,4 L8,6 L10,6 L10,8 L12,8 L12,10 L14,10 L14,12 L16,12 L16,14 L18,14 L18,22 L20,22 L20,38 L18,38 L18,36 L16,36 L16,34 L14,34 L14,32 L12,32 L12,30 L10,30 L10,28 L8,28 L8,24 L4,24 L4,20 L2,20 L2,18 L0,18 Z " fill="#D70000" transform="translate(122,112)"/>
<path d="M0,0 L2,0 L2,38 L6,38 L6,44 L4,44 L4,42 L2,42 L2,40 L0,40 L0,38 L-2,38 L-2,36 L-4,36 L-4,32 L-6,32 L-6,30 L-8,30 L-8,28 L-10,28 L-10,20 L-8,20 L-8,14 L-6,14 L-6,10 L-4,10 L-4,6 L-2,6 L-2,4 L0,4 Z " fill="#939393" transform="translate(130,78)"/>
<path d="M0,0 L2,0 L3,49 L2,56 L4,56 L4,60 L2,60 L2,58 L0,58 L0,50 L-4,50 L-4,4 L-2,4 L-2,2 L0,2 Z " fill="#9E9E9E" transform="translate(140,64)"/>
<path d="M0,0 L16,0 L16,2 L18,2 L18,8 L12,8 L12,10 L10,10 L10,12 L4,12 L4,14 L0,14 L0,16 L-2,16 L-2,18 L-6,18 L-6,20 L-8,20 L-8,8 L-6,8 L-6,4 L-4,4 L-4,2 L0,2 Z " fill="#FFCCFF" transform="translate(210,90)"/>
<path d="M0,0 L12,0 L12,2 L10,2 L10,4 L8,4 L8,6 L6,6 L6,8 L4,8 L4,10 L2,10 L2,12 L0,12 L0,14 L-2,14 L-2,16 L-4,16 L-4,20 L-6,20 L-6,24 L-8,24 L-8,30 L-10,30 L-10,26 L-12,26 L-12,22 L-14,22 L-14,20 L-16,20 L-16,18 L-14,18 L-14,12 L-12,12 L-12,10 L-10,10 L-10,8 L-8,8 L-8,6 L-6,6 L-6,4 L-2,4 L-2,2 L0,2 Z " fill="#8F8F8F" transform="translate(204,44)"/>
<path d="M0,0 L8,0 L8,2 L10,2 L10,18 L8,18 L8,26 L-2,26 L-2,20 L0,20 L0,12 L2,12 L2,4 L0,4 Z " fill="#4A4A4A" transform="translate(90,218)"/>
<path d="M0,0 L2,0 L2,8 L0,8 L0,14 L-2,14 L-2,28 L0,28 L0,30 L-4,30 L-4,28 L-10,28 L-10,30 L-14,30 L-14,28 L-12,28 L-12,18 L-10,18 L-10,14 L-8,14 L-8,10 L-6,10 L-6,8 L-4,8 L-4,4 L-2,4 L-2,2 L0,2 Z " fill="#686868" transform="translate(170,26)"/>
<path d="M0,0 L4,0 L4,6 L2,6 L2,10 L0,10 L0,12 L-2,12 L-2,14 L-6,14 L-6,16 L-20,16 L-20,14 L-22,14 L-22,12 L-18,12 L-18,10 L-14,10 L-14,8 L-12,8 L-12,6 L-8,6 L-8,4 L-2,4 L-2,2 L0,2 Z " fill="#EC00EC" transform="translate(230,106)"/>
<path d="M0,0 L4,0 L4,2 L6,2 L6,4 L8,4 L8,10 L-4,10 L-4,12 L-6,12 L-6,34 L4,34 L4,36 L-8,36 L-8,4 L0,4 Z " fill="#BDBDBD" transform="translate(172,56)"/>
<path d="M0,0 L2,0 L2,2 L4,2 L4,4 L6,4 L6,6 L8,6 L8,8 L10,8 L10,10 L12,10 L12,12 L14,12 L14,14 L16,14 L16,16 L18,16 L18,18 L20,18 L20,20 L22,20 L22,22 L18,22 L18,20 L16,20 L16,18 L14,18 L14,16 L12,16 L12,14 L10,14 L10,12 L8,12 L8,10 L6,10 L6,8 L4,8 L4,26 L2,26 L2,24 L0,24 L0,22 L-2,22 L-2,20 L-4,20 L-4,18 L-6,18 L-6,16 L-8,16 L-8,14 L-10,14 L-10,12 L-12,12 L-12,8 L-14,8 L-14,6 L-10,6 L-10,10 L-8,10 L-8,12 L-6,12 L-6,14 L-4,14 L-4,16 L-2,16 L-2,18 L0,18 L0,20 L2,20 L2,4 L0,4 Z " fill="#890202" transform="translate(140,130)"/>
<path d="M0,0 L2,0 L2,2 L4,2 L4,4 L6,4 L6,8 L8,8 L8,24 L6,24 L6,22 L4,22 L4,20 L2,20 L2,16 L-2,16 L-2,12 L-4,12 L-4,6 L-2,6 L-2,4 L0,4 Z " fill="#E40000" transform="translate(112,100)"/>
<path d="M0,0 L2,0 L2,6 L-4,6 L-4,8 L-6,8 L-6,10 L-8,10 L-8,12 L-10,12 L-10,14 L-14,14 L-14,16 L-16,16 L-16,18 L-20,18 L-20,20 L-26,20 L-26,18 L-28,18 L-28,6 L-26,6 L-26,16 L-24,16 L-24,14 L-20,14 L-20,12 L-18,12 L-18,10 L-14,10 L-14,8 L-8,8 L-8,6 L-6,6 L-6,4 L0,4 Z " fill="#FD73FD" transform="translate(228,94)"/>
<path d="M0,0 L2,0 L2,2 L4,2 L4,4 L6,4 L6,6 L8,6 L8,8 L10,8 L10,10 L12,10 L12,12 L14,12 L14,20 L16,20 L16,36 L14,36 L14,34 L12,34 L12,32 L10,32 L10,30 L8,29 L9,28 L10,12 L8,12 L8,10 L6,10 L6,8 L4,8 L4,6 L2,6 L2,4 L0,4 Z " fill="#C80000" transform="translate(126,114)"/>
<path d="M0,0 L4,0 L4,10 L2,10 L2,22 L4,22 L4,24 L6,24 L6,28 L10,28 L10,30 L12,30 L12,32 L10,32 L10,34 L8,34 L8,32 L4,32 L4,30 L2,30 L2,26 L0,26 L0,24 L-2,24 L-2,8 L0,8 L0,6 L2,6 L2,2 L0,2 Z " fill="#161316" transform="translate(198,90)"/>
<path d="M0,0 L2,0 L2,30 L0,30 L0,26 L-2,26 L-2,24 L-4,24 L-4,22 L-6,22 L-6,14 L-4,14 L-4,8 L-2,8 L-2,4 L0,4 Z " fill="#888888" transform="translate(126,84)"/>
<path d="M0,0 L2,0 L2,4 L4,4 L4,6 L6,6 L6,8 L8,8 L8,12 L6,12 L6,10 L4,10 L4,28 L6,28 L6,30 L8,30 L8,34 L6,34 L6,32 L4,32 L4,30 L2,30 L2,26 L0,26 L0,24 L-2,24 L-2,22 L-4,22 L-4,20 L-6,20 L-6,16 L-8,16 L-8,14 L-4,14 L-4,18 L-2,18 L-2,20 L0,20 L0,22 L2,22 L2,6 L0,6 Z " fill="#DD0000" transform="translate(118,102)"/>
<path d="M0,0 L2,0 L2,2 L4,2 L4,4 L6,4 L6,6 L8,6 L8,22 L6,22 L6,20 L4,20 L4,18 L0,18 Z " fill="#BA0000" transform="translate(144,138)"/>
<path d="M0,0 L4,0 L4,2 L6,2 L6,8 L0,8 L0,10 L-2,10 L-2,12 L-8,12 L-8,14 L-12,14 L-12,16 L-14,16 L-14,18 L-18,18 L-18,20 L-20,20 L-20,16 L-16,16 L-16,14 L-14,14 L-14,12 L-10,12 L-10,10 L-8,10 L-8,8 L-6,8 L-6,6 L-4,6 L-4,4 L0,4 Z " fill="#FFA9FF" transform="translate(222,90)"/>
<path d="M0,0 L4,0 L4,2 L6,2 L6,8 L10,8 L10,10 L8,10 L8,12 L6,12 L6,14 L4,14 L4,16 L2,16 L2,18 L0,18 L0,16 L-2,16 L-2,14 L0,14 Z " fill="#9F0000" transform="translate(160,152)"/>
<path d="M0,0 L2,0 L2,8 L4,8 L4,14 L6,14 L6,18 L2,18 L2,22 L0,22 L0,20 L-2,20 L-2,18 L0,18 L0,16 L-2,16 L-2,2 L0,2 Z " fill="#989898" transform="translate(170,38)"/>
<path d="M0,0 L4,0 L4,4 L0,4 L0,6 L-6,6 L-6,10 L-10,10 L-10,12 L-12,12 L-12,14 L-22,14 L-22,12 L-18,12 L-18,10 L-14,10 L-14,8 L-12,8 L-12,6 L-8,6 L-8,4 L-2,4 L-2,2 L0,2 Z " fill="#FE12FE" transform="translate(230,106)"/>
<path d="M0,0 L6,0 L6,2 L8,2 L8,14 L6,14 L6,16 L0,16 L0,8 L4,8 L4,2 L0,2 Z " fill="#010101" transform="translate(178,76)"/>
<path d="M0,0 L2,0 L2,6 L-4,6 L-4,8 L-6,8 L-6,10 L-8,10 L-8,12 L-10,12 L-10,14 L-14,14 L-14,16 L-16,16 L-16,18 L-20,18 L-20,20 L-26,20 L-26,18 L-22,18 L-22,16 L-18,16 L-18,14 L-16,14 L-16,12 L-12,12 L-12,10 L-10,10 L-10,8 L-8,8 L-8,6 L-6,6 L-6,4 L0,4 Z " fill="#FD58FD" transform="translate(230,96)"/>
<path d="M0,0 L4,0 L4,2 L2,2 L2,4 L0,4 L0,6 L-2,6 L-2,8 L-4,8 L-4,12 L-6,12 L-6,16 L-8,16 L-8,14 L-10,14 L-10,12 L-12,12 L-12,10 L-10,10 L-10,6 L-6,6 L-6,4 L-4,4 L-4,2 L0,2 Z " fill="#6A6A6A" transform="translate(200,52)"/>
<path d="M0,0 L4,0 L4,2 L6,2 L6,4 L4,4 L4,6 L2,6 L2,8 L0,8 L0,10 L-8,10 L-8,8 L-6,8 L-6,4 L-4,4 L-4,2 L0,2 Z " fill="#F3E2F3" transform="translate(210,90)"/>
<path d="M0,0 L6,0 L6,4 L1,5 L-2,14 L-6,15 L-6,6 L-4,6 L-4,2 L0,2 Z " fill="#9F9F9F" transform="translate(154,40)"/>
<path d="M0,0 L2,0 L2,10 L4,10 L4,8 L8,8 L8,6 L10,6 L10,4 L14,4 L14,2 L18,2 L18,4 L16,4 L16,6 L12,6 L12,8 L10,8 L10,10 L6,10 L6,12 L0,12 Z " fill="#DD83DD" transform="translate(200,100)"/>
<path d="M0,0 L2,0 L2,2 L4,2 L4,4 L6,4 L6,6 L8,6 L8,8 L10,8 L10,10 L12,10 L12,12 L14,12 L14,14 L16,14 L16,16 L18,16 L18,18 L14,18 L14,16 L12,16 L12,14 L10,14 L10,12 L8,12 L8,10 L6,10 L6,8 L4,8 L4,6 L2,6 L2,4 L0,4 Z " fill="#3D0B0B" transform="translate(144,134)"/>
<path d="M0,0 L2,0 L2,4 L0,4 L0,6 L2,6 L2,8 L-2,8 L-2,18 L-8,18 L-8,16 L-4,16 L-4,8 L-8,8 L-8,6 L-4,6 L-4,4 L-2,4 L-2,2 L0,2 Z " fill="#B1B1B1" transform="translate(188,58)"/>
<path d="M0,0 L2,0 L2,4 L28,4 L28,6 L0,6 Z " fill="#8B8B8B" transform="translate(74,196)"/>
<path d="M0,0 L4,0 L4,2 L6,2 L6,8 L0,8 L0,10 L-2,10 L-2,12 L-6,12 L-6,10 L-4,10 L-4,8 L-2,8 L-2,6 L0,6 Z " fill="#FB92FB" transform="translate(222,90)"/>
<path d="M0,0 L4,0 L4,4 L6,4 L6,6 L8,6 L8,8 L10,8 L10,10 L12,10 L12,12 L14,12 L14,16 L12,16 L12,14 L10,14 L10,12 L8,12 L8,10 L6,10 L6,8 L4,8 L4,6 L2,6 L2,2 L0,2 Z " fill="#431717" transform="translate(126,136)"/>
<path d="M0,0 L2,0 L2,2 L4,2 L4,4 L6,4 L6,6 L8,6 L8,8 L10,8 L10,10 L12,10 L12,12 L14,12 L14,16 L12,16 L12,14 L10,14 L10,12 L8,12 L8,10 L6,10 L6,8 L4,8 L4,6 L2,6 L2,4 L0,4 Z " fill="#351E1E" transform="translate(126,114)"/>
<path d="M0,0 L4,0 L4,4 L2,4 L2,6 L0,6 L0,12 L-4,12 L-4,6 L-2,6 L-2,4 L0,4 Z " fill="#1E0000" transform="translate(108,100)"/>
<path d="M0,0 L2,0 L2,16 L0,16 L0,14 L-2,14 L-2,6 L0,6 Z " fill="#7E7E7E" transform="translate(122,92)"/>
<path d="M0,0 L6,0 L6,6 L2,6 L2,12 L0,12 Z " fill="#797979" transform="translate(176,78)"/>
<path d="M0,0 L4,0 L4,2 L6,2 L6,4 L8,4 L8,6 L10,6 L10,8 L12,8 L12,12 L10,12 L10,10 L8,10 L8,8 L6,8 L6,6 L4,6 L4,4 L2,4 L2,2 L0,2 Z " fill="#3D1111" transform="translate(144,156)"/>
<path d="M0,0 L2,0 L2,8 L-2,8 L-2,10 L-4,10 L-4,12 L-8,12 L-8,10 L-6,10 L-6,8 L-4,8 L-4,6 L-2,6 L-2,4 L0,4 Z " fill="#F22DF2" transform="translate(232,98)"/>
<path d="M0,0 L6,0 L6,4 L4,4 L4,6 L2,6 L2,12 L0,12 Z " fill="#9D9D9D" transform="translate(194,92)"/>
<path d="M0,0 L2,0 L2,18 L0,18 L0,10 L-2,10 L-2,6 L0,6 Z " fill="#838383" transform="translate(172,28)"/>
<path d="M0,0 L2,0 L2,2 L4,2 L4,8 L8,8 L8,10 L6,10 L6,12 L2,12 L2,4 L0,4 Z " fill="#780101" transform="translate(162,152)"/>
<path d="M0,0 L2,0 L2,8 L4,8 L4,14 L0,14 Z " fill="#A9A9A9" transform="translate(170,38)"/>
<path d="M0,0 L2,0 L2,6 L0,6 L0,8 L-6,8 L-6,6 L-4,6 L-4,4 L-2,4 L-2,2 L0,2 Z " fill="#180000" transform="translate(168,162)"/>
<path d="M0,0 L2,0 L2,4 L4,4 L4,6 L6,6 L6,8 L8,8 L8,12 L6,12 L6,10 L4,10 L4,8 L2,8 L2,6 L0,6 Z " fill="#391C1C" transform="translate(118,102)"/>
<path d="M0,0 L4,0 L4,4 L0,4 L0,6 L-2,6 L-2,8 L-6,8 L-6,6 L-4,6 L-4,4 L-2,4 L-2,2 L0,2 Z " fill="#9E9E9E" transform="translate(196,50)"/>
<path d="M0,0 L6,0 L6,4 L-6,4 L-6,2 L0,2 Z " fill="#888888" transform="translate(174,16)"/>
<path d="M0,0 L4,0 L4,4 L6,4 L6,6 L8,6 L8,10 L6,10 L6,8 L4,8 L4,6 L2,6 L2,2 L0,2 Z " fill="#4A1818" transform="translate(118,126)"/>
<path d="M0,0 L4,0 L4,4 L6,4 L6,6 L8,6 L8,10 L6,10 L6,8 L4,8 L4,6 L2,6 L2,2 L0,2 Z " fill="#4C1818" transform="translate(110,116)"/>
<path d="M0,0 L2,0 L2,10 L0,10 L0,8 L-2,8 L-2,2 L0,2 Z " fill="#F00000" transform="translate(110,104)"/>
<path d="M0,0 L2,0 L2,4 L10,4 L10,6 L0,6 Z " fill="#363636" transform="translate(88,238)"/>
<path d="M0,0 L2,0 L2,2 L4,2 L4,4 L2,4 L2,10 L0,10 Z " fill="#7E7E7E" transform="translate(152,166)"/>
<path d="M0,0 L4,0 L4,2 L2,2 L2,4 L-6,4 L-6,2 L0,2 Z " fill="#EC3BEC" transform="translate(210,114)"/>
<path d="M0,0 L6,0 L6,6 L4,6 L4,4 L2,4 L2,2 L0,2 Z " fill="#8A8A8A" transform="translate(130,116)"/>
<path d="M0,0 L2,0 L2,2 L4,2 L4,4 L6,4 L6,8 L4,8 L4,6 L2,6 L2,4 L0,4 Z " fill="#4F0505" transform="translate(126,114)"/>
<path d="M0,0 L4,0 L4,6 L0,6 Z " fill="#E9A2E9" transform="translate(222,90)"/>
<path d="M0,0 L6,0 L6,2 L8,2 L8,4 L6,4 L6,6 L4,6 L4,2 L0,2 Z " fill="#2D2D2D" transform="translate(178,76)"/>
<path d="M0,0 L2,0 L2,4 L0,4 L0,6 L2,6 L2,8 L-2,8 L-2,2 L0,2 Z " fill="#9D9D9D" transform="translate(188,58)"/>
<path d="M0,0 L6,0 L6,2 L4,2 L4,4 L2,4 L2,6 L0,6 Z " fill="#868686" transform="translate(210,44)"/>
<path d="M0,0 L4,0 L4,4 L2,4 L1,7 L0,7 Z " fill="#A5A5A5" transform="translate(154,50)"/>
<path d="M0,0 L6,0 L6,2 L4,2 L4,4 L0,4 Z " fill="#363636" transform="translate(68,208)"/>
<path d="M0,0 L4,0 L4,2 L2,2 L2,4 L-4,4 L-4,2 L0,2 Z " fill="#FB21FB" transform="translate(212,116)"/>
<path d="M0,0 L6,0 L6,2 L2,2 L2,6 L0,6 Z " fill="#2E2E2E" transform="translate(190,82)"/>
<path d="M0,0 L2,0 L2,8 L0,8 L0,4 L-2,4 L-2,2 L0,2 Z " fill="#727272" transform="translate(170,26)"/>
</svg>
