<?xml version="1.0" encoding="UTF-8"?>
<!-- Generator: visioncortex VTracer 0.6.5 -->
<svg version="1.1" xmlns="http://www.w3.org/2000/svg" width="400" height="400">
<path d="M0,0 L40,0 L60,3 L83,9 L103,17 L124,28 L136,36 L149,46 L162,58 L170,66 L181,80 L190,93 L199,109 L207,126 L213,144 L218,165 L220,180 L220,220 L217,240 L211,263 L203,283 L192,304 L184,316 L174,329 L162,342 L154,350 L140,361 L127,370 L111,379 L94,387 L76,393 L55,398 L40,400 L0,400 L-20,397 L-43,391 L-63,383 L-84,372 L-96,364 L-109,354 L-122,342 L-130,334 L-141,320 L-150,307 L-159,291 L-167,274 L-173,256 L-178,235 L-180,220 L-180,180 L-177,160 L-171,137 L-163,117 L-152,96 L-144,84 L-134,71 L-122,58 L-114,50 L-100,39 L-87,30 L-71,21 L-54,13 L-36,7 L-15,2 Z " fill="#FEFEFE" transform="translate(180,0)"/>
<path d="M0,0 L149,0 L155,2 L161,6 L192,37 L195,43 L195,196 L191,204 L158,237 L151,240 L-1,240 L-11,234 L-39,206 L-44,198 L-45,194 L-45,46 L-40,36 L-8,4 Z " fill="#FEFEFE" transform="translate(125,80)"/>
<path d="M0,0 L149,0 L155,2 L161,6 L192,37 L195,43 L195,196 L191,204 L158,237 L151,240 L-1,240 L-11,234 L-39,206 L-44,198 L-45,194 L-45,46 L-40,36 L-8,4 Z M7,25 L-1,32 L-18,49 L-20,52 L-20,188 L-13,196 L6,215 L144,215 L152,208 L170,190 L171,188 L171,53 L167,47 L147,27 L144,25 Z " fill="#010101" transform="translate(125,80)"/>
<path d="M0,0 L123,0 L129,4 L131,8 L131,18 L126,24 L124,25 L-1,25 L-7,20 L-9,16 L-8,7 L-3,1 Z " fill="#FF0000" transform="translate(140,227)"/>
<path d="M0,0 L12,0 L23,4 L31,10 L37,18 L40,26 L41,36 L38,43 L32,47 L23,47 L16,41 L13,30 L10,27 L2,27 L-2,32 L-4,41 L-9,46 L-11,47 L-20,47 L-26,43 L-28,40 L-28,26 L-24,17 L-18,9 L-9,3 Z " fill="#FF0000" transform="translate(158,148)"/>
<path d="M0,0 L8,1 L13,5 L15,9 L15,17 L11,23 L-6,35 L-22,45 L-31,45 L-36,42 L-39,37 L-39,28 L-35,22 L-8,4 Z " fill="#FF0000" transform="translate(254,150)"/>
</svg>
