<?xml version="1.0" encoding="UTF-8"?>
<!-- Generator: visioncortex VTracer 0.6.5 -->
<svg version="1.1" xmlns="http://www.w3.org/2000/svg" width="400" height="400">
<path d="M0,0 L15,0 L20,5 L21,4 L27,4 L31,8 L36,8 L37,11 L41,12 L42,15 L41,17 L45,18 L48,20 L48,22 L53,22 L53,25 L55,25 L56,22 L59,20 L65,20 L66,22 L69,23 L69,21 L75,22 L78,26 L78,28 L81,28 L80,25 L83,25 L84,22 L88,23 L88,21 L92,21 L92,23 L96,22 L100,27 L105,24 L108,22 L110,23 L110,21 L118,21 L121,20 L127,20 L128,23 L132,24 L134,32 L135,34 L138,33 L139,36 L141,35 L145,31 L147,29 L151,29 L151,31 L154,32 L155,35 L174,35 L176,36 L176,38 L180,37 L185,43 L185,51 L182,54 L181,57 L189,63 L189,70 L186,76 L192,78 L193,81 L197,83 L198,88 L198,91 L196,98 L191,103 L191,107 L193,109 L193,115 L198,120 L199,123 L202,124 L202,129 L211,131 L213,132 L213,135 L216,136 L215,142 L214,144 L220,145 L225,150 L226,159 L225,161 L223,161 L224,165 L222,169 L224,171 L226,175 L226,188 L219,196 L217,196 L215,201 L216,204 L216,216 L213,217 L214,220 L210,224 L205,228 L199,233 L197,233 L194,236 L190,237 L186,241 L183,250 L178,254 L175,257 L172,257 L171,259 L167,260 L157,260 L155,260 L151,262 L152,265 L145,271 L145,273 L135,275 L135,273 L131,274 L126,268 L120,268 L115,266 L108,261 L105,258 L104,260 L95,262 L93,261 L92,264 L88,266 L86,271 L85,280 L83,280 L83,317 L85,317 L85,321 L92,323 L95,325 L95,327 L100,329 L102,331 L107,333 L115,340 L118,344 L129,344 L132,345 L132,347 L138,346 L141,347 L141,349 L146,348 L150,348 L156,344 L164,336 L169,330 L171,330 L173,327 L175,327 L178,331 L177,333 L173,339 L171,341 L167,345 L164,348 L164,350 L166,351 L167,348 L175,349 L173,355 L183,358 L187,360 L193,363 L198,364 L202,366 L205,367 L205,369 L210,368 L211,371 L221,372 L226,376 L226,385 L225,389 L223,389 L224,394 L221,395 L222,398 L219,400 L-129,400 L-130,398 L-138,397 L-139,396 L-148,396 L-153,394 L-159,387 L-161,381 L-158,380 L-158,378 L-151,377 L-146,375 L-141,374 L-138,373 L-135,374 L-135,372 L-128,371 L-127,369 L-119,368 L-119,367 L-109,366 L-104,364 L-99,363 L-96,362 L-92,361 L-87,360 L-84,361 L-84,359 L-76,358 L-70,355 L-65,355 L-61,354 L-57,355 L-57,353 L-55,353 L-54,351 L-56,350 L-56,348 L-58,347 L-58,344 L-56,344 L-56,342 L-50,343 L-46,346 L-42,347 L-40,345 L-42,343 L-42,339 L-40,337 L-44,333 L-45,330 L-46,327 L-50,323 L-49,320 L-53,318 L-53,314 L-51,314 L-50,311 L-48,311 L-48,313 L-45,314 L-41,319 L-37,325 L-33,331 L-30,336 L-26,340 L-27,343 L-21,343 L-17,341 L-14,340 L-11,337 L-6,335 L-4,330 L-3,329 L2,325 L6,318 L7,312 L8,309 L8,298 L9,297 L8,292 L9,290 L7,289 L3,280 L2,274 L0,274 L-2,270 L-4,269 L-4,267 L-7,267 L-8,270 L-11,272 L-13,271 L-13,273 L-19,273 L-22,270 L-22,268 L-35,268 L-37,265 L-51,265 L-55,262 L-56,259 L-58,262 L-67,262 L-68,260 L-71,259 L-71,262 L-77,262 L-79,260 L-82,263 L-84,264 L-90,264 L-94,262 L-94,260 L-98,259 L-103,262 L-114,262 L-116,261 L-116,259 L-121,260 L-133,260 L-135,258 L-137,257 L-137,255 L-140,254 L-141,251 L-140,248 L-142,248 L-142,246 L-147,245 L-147,242 L-150,242 L-149,234 L-152,233 L-152,224 L-150,222 L-150,219 L-152,211 L-153,211 L-153,204 L-155,199 L-159,197 L-162,195 L-163,187 L-164,185 L-166,184 L-166,178 L-162,175 L-160,171 L-162,170 L-161,166 L-153,159 L-150,160 L-150,158 L-146,157 L-143,158 L-143,156 L-134,155 L-136,152 L-136,149 L-139,148 L-140,142 L-144,143 L-163,143 L-166,141 L-168,141 L-170,139 L-174,136 L-174,126 L-170,124 L-169,122 L-165,121 L-164,118 L-157,114 L-155,113 L-151,110 L-148,108 L-148,103 L-144,101 L-142,99 L-140,100 L-138,95 L-135,94 L-135,91 L-133,91 L-132,89 L-130,90 L-130,88 L-121,88 L-119,82 L-115,80 L-111,76 L-106,76 L-101,78 L-91,77 L-92,73 L-87,67 L-81,66 L-82,63 L-83,61 L-85,60 L-87,58 L-86,52 L-83,49 L-78,50 L-78,48 L-73,48 L-73,50 L-68,49 L-67,52 L-64,51 L-59,52 L-58,49 L-51,49 L-51,51 L-47,52 L-47,48 L-49,47 L-49,45 L-52,45 L-52,40 L-48,37 L-45,38 L-44,35 L-46,33 L-45,31 L-47,31 L-46,25 L-43,25 L-43,23 L-41,23 L-41,21 L-38,21 L-37,16 L-35,16 L-33,12 L-31,13 L-31,11 L-29,10 L-19,9 L-13,8 L-11,5 L-5,2 L-1,3 Z M-11,6 Z M18,6 Z M28,6 Z M-17,9 Z M-19,10 Z M-29,11 Z M-21,11 Z M-36,19 Z M114,22 Z M116,22 Z M130,24 Z M76,26 Z M77,28 Z M79,31 Z M80,32 Z M143,33 Z M-42,35 Z M-44,36 L-44,38 L-41,37 Z M-50,52 L-49,56 Z M-63,53 Z M-50,57 Z M176,58 L176,59 L181,59 L181,58 Z M-85,67 Z M-87,68 Z M184,74 Z M-113,78 Z M-93,78 Z M190,78 Z M-137,95 L-136,98 Z M-139,98 Z M-148,109 Z M33,113 Z M33,115 L34,117 Z M35,115 L36,117 Z M-160,116 Z M200,124 Z M200,128 Z M199,130 Z M207,131 Z M213,141 Z M212,143 Z M-139,144 Z M211,144 L211,146 L218,146 L218,145 Z M223,150 Z M-133,154 L-132,156 Z M-140,156 Z M221,166 Z M43,167 Z M45,168 L44,173 L46,175 L46,168 Z M219,169 Z M43,174 L44,176 Z M46,176 Z M-165,178 Z M-161,194 Z M213,198 L214,200 Z M-152,201 L-151,204 Z M-55,208 Z M-52,209 L-51,211 L-49,209 Z M-55,210 Z M-150,213 L-149,217 Z M184,240 Z M114,242 L115,245 L116,242 Z M182,248 Z M107,256 Z M-98,257 Z M154,257 Z M-133,258 Z M157,258 Z M-101,259 Z M153,259 Z M-54,261 Z M-39,262 Z M91,262 Z M-43,263 Z M-23,265 Z M-25,266 Z M4,278 L5,280 Z M6,284 L7,286 Z M-52,316 L-51,318 Z M6,319 L7,321 Z M89,323 Z M-5,333 Z M105,333 Z M-6,335 Z M172,337 Z M168,342 Z M-25,344 L-24,346 Z M-23,344 Z M128,345 Z M-42,348 Z M151,348 Z M149,350 Z M-52,352 Z M-70,356 Z M170,356 Z M176,357 Z M179,358 Z M186,361 Z M188,362 Z M203,367 Z M-123,369 Z M209,369 Z M-133,372 Z M219,373 Z M-156,378 Z M224,383 L225,385 Z M-158,385 L-157,387 Z M-152,393 Z " fill="#A7CD7A" transform="translate(174,0)"/>
<path d="M0,0 L10,0 L12,1 L12,3 L-1,5 L-1,8 L2,11 L-7,13 L-11,17 L-11,21 L1,21 L-3,24 L-6,26 L-6,30 L-16,30 L-16,33 L-9,36 L-4,37 L-7,39 L-14,42 L-14,47 L-20,53 L-23,53 L-22,42 L-30,45 L-32,46 L-39,42 L-49,42 L-51,43 L-50,48 L-43,52 L-46,53 L-44,57 L-53,60 L-56,63 L-55,69 L-50,74 L-54,78 L-57,73 L-60,71 L-68,71 L-72,72 L-75,70 L-81,71 L-87,79 L-88,82 L-100,82 L-103,89 L-111,93 L-113,93 L-113,96 L-106,97 L-108,99 L-125,107 L-138,116 L-139,117 L-139,123 L-131,127 L-129,127 L-130,125 L-137,122 L-136,117 L-129,112 L-125,114 L-117,117 L-100,117 L-97,114 L-95,120 L-87,119 L-84,125 L-82,126 L-68,126 L-59,124 L-42,125 L-38,123 L-36,120 L-31,123 L-22,122 L-16,121 L-13,122 L-13,125 L-7,121 L-5,116 L-13,114 L-13,110 L-27,111 L-23,107 L-24,102 L-21,103 L-12,103 L-5,100 L2,101 L4,105 L9,106 L9,103 L6,103 L4,97 L-3,95 L-11,88 L-21,89 L-22,87 L-20,87 L-21,82 L-41,82 L-45,79 L-45,73 L-51,69 L-54,66 L-52,62 L-43,59 L-38,60 L-35,62 L-33,69 L-30,71 L-25,72 L-12,72 L-12,77 L-11,78 L1,78 L9,85 L15,87 L16,92 L23,93 L27,92 L29,98 L30,99 L37,99 L42,97 L41,101 L44,102 L44,86 L42,82 L47,84 L53,88 L57,87 L60,87 L69,89 L67,93 L64,96 L66,100 L72,103 L71,106 L69,107 L70,110 L74,113 L65,116 L64,120 L69,122 L68,125 L66,125 L65,128 L65,138 L71,143 L76,145 L84,146 L85,148 L86,153 L88,155 L98,156 L98,157 L91,159 L85,169 L101,174 L102,175 L104,185 L106,188 L109,176 L111,156 L117,154 L119,162 L122,164 L122,168 L116,167 L115,181 L112,191 L106,200 L111,203 L109,208 L105,209 L101,219 L100,233 L99,235 L93,235 L91,241 L87,245 L79,249 L75,249 L76,260 L79,264 L78,269 L76,268 L76,263 L74,261 L74,248 L75,247 L75,240 L73,240 L72,224 L71,224 L72,230 L72,241 L71,243 L68,243 L68,245 L61,245 L59,238 L58,221 L57,221 L59,240 L60,262 L61,263 L61,290 L60,292 L58,292 L58,305 L58,309 L58,315 L56,315 L55,323 L54,323 L53,315 L47,318 L45,322 L32,330 L25,338 L14,345 L9,348 L-3,349 L-6,350 L-6,355 L-10,356 L-14,353 L-17,356 L-21,355 L-24,359 L-28,358 L-31,354 L-33,357 L-39,357 L-42,355 L-42,358 L-44,359 L-54,360 L-56,361 L-63,361 L-66,358 L-67,356 L-86,361 L-124,371 L-124,373 L-120,379 L-104,382 L-92,382 L-93,386 L-88,388 L-88,389 L-98,389 L-99,387 L-107,386 L-108,385 L-117,385 L-122,383 L-128,376 L-130,370 L-127,369 L-127,367 L-120,366 L-115,364 L-110,363 L-107,362 L-104,363 L-104,361 L-97,360 L-96,358 L-88,357 L-88,356 L-78,355 L-73,353 L-68,352 L-65,351 L-61,350 L-56,349 L-53,350 L-53,348 L-45,347 L-39,344 L-34,344 L-30,343 L-26,344 L-26,342 L-24,342 L-23,340 L-25,339 L-25,337 L-27,336 L-27,333 L-25,333 L-25,331 L-19,332 L-15,335 L-11,336 L-9,334 L-11,332 L-11,328 L-9,326 L-13,322 L-14,319 L-15,316 L-19,312 L-18,309 L-22,307 L-22,303 L-20,303 L-19,300 L-17,300 L-17,302 L-14,303 L-10,308 L-6,314 L-2,320 L1,325 L5,329 L4,332 L10,332 L14,330 L17,329 L20,326 L25,324 L27,319 L28,318 L33,314 L37,307 L38,301 L39,298 L39,287 L40,286 L39,281 L40,279 L38,278 L34,269 L33,263 L31,263 L29,259 L27,258 L27,256 L24,256 L23,259 L20,261 L18,260 L18,262 L12,262 L9,259 L9,257 L-4,257 L-6,254 L-20,254 L-24,251 L-25,248 L-27,251 L-36,251 L-37,249 L-40,248 L-40,251 L-46,251 L-48,249 L-51,252 L-53,253 L-59,253 L-63,251 L-63,249 L-67,248 L-72,251 L-83,251 L-85,250 L-85,248 L-90,249 L-102,249 L-104,247 L-106,246 L-106,244 L-109,243 L-110,240 L-109,237 L-111,237 L-111,235 L-116,234 L-116,231 L-119,231 L-118,223 L-121,222 L-121,213 L-119,211 L-119,208 L-121,200 L-122,200 L-122,193 L-124,188 L-128,186 L-131,184 L-132,176 L-133,174 L-135,173 L-135,167 L-131,164 L-129,160 L-131,159 L-130,155 L-122,148 L-119,149 L-119,147 L-115,146 L-112,147 L-112,145 L-103,144 L-105,141 L-105,138 L-108,137 L-109,131 L-113,132 L-132,132 L-135,130 L-137,130 L-139,128 L-143,125 L-143,115 L-139,113 L-138,111 L-134,110 L-133,107 L-126,103 L-124,102 L-120,99 L-117,97 L-117,92 L-113,90 L-111,88 L-109,89 L-107,84 L-104,83 L-104,80 L-102,80 L-101,78 L-99,79 L-99,77 L-90,77 L-88,71 L-84,69 L-80,65 L-75,65 L-70,67 L-60,66 L-61,62 L-56,56 L-50,55 L-51,52 L-52,50 L-54,49 L-56,47 L-55,41 L-52,38 L-47,39 L-47,37 L-42,37 L-42,39 L-37,38 L-36,41 L-33,40 L-28,41 L-27,38 L-20,38 L-20,40 L-16,41 L-16,37 L-18,36 L-18,34 L-21,34 L-21,29 L-17,26 L-14,27 L-13,24 L-15,22 L-14,20 L-16,20 L-15,14 L-12,14 L-12,12 L-10,12 L-10,10 L-7,10 L-6,5 L-4,5 L-2,1 L0,2 Z M-5,8 Z M-11,24 Z M-13,25 L-13,27 L-10,26 Z M-19,41 L-18,45 Z M-32,42 Z M-19,46 Z M-54,56 Z M-56,57 Z M-82,67 Z M-62,67 Z M-106,84 L-105,87 Z M-108,87 Z M-117,98 Z M64,102 Z M64,104 L65,106 Z M66,104 L67,106 Z M-129,105 Z M-108,133 Z M-102,143 L-101,145 Z M-109,145 Z M74,156 Z M76,157 L75,162 L77,164 L77,157 Z M74,163 L75,165 Z M77,165 Z M-134,167 Z M-130,183 Z M-121,190 L-120,193 Z M-24,197 Z M-21,198 L-20,200 L-18,198 Z M-24,199 Z M-119,202 L-118,206 Z M-67,246 Z M-102,247 Z M-70,248 Z M-23,250 Z M-8,251 Z M-12,252 Z M8,254 Z M6,255 Z M35,267 L36,269 Z M37,273 L38,275 Z M-21,305 L-20,307 Z M37,308 L38,310 Z M26,322 Z M25,324 Z M6,333 L7,335 Z M8,333 Z M-11,337 Z M-21,341 Z M-39,345 Z M-92,358 Z M-102,361 Z M-125,367 Z M-127,374 L-126,376 Z M-121,382 Z " fill="#7D8E30" transform="translate(143,11)"/>
<path d="M0,0 L15,0 L20,5 L21,4 L27,4 L31,8 L36,8 L37,11 L41,12 L42,15 L41,17 L45,18 L48,20 L48,22 L53,22 L53,25 L55,25 L56,22 L59,20 L65,20 L66,22 L69,23 L69,21 L75,22 L78,26 L78,28 L81,28 L80,25 L83,25 L84,22 L88,23 L88,21 L92,21 L92,23 L96,22 L100,27 L105,24 L108,22 L110,23 L110,21 L118,21 L121,20 L127,20 L128,23 L132,24 L134,32 L135,34 L138,33 L139,36 L141,35 L145,31 L147,29 L151,29 L151,31 L154,32 L155,35 L174,35 L176,36 L176,38 L180,37 L185,43 L185,51 L182,54 L181,57 L189,63 L189,70 L186,76 L192,78 L193,81 L197,83 L198,88 L198,91 L196,98 L191,103 L191,107 L193,109 L193,115 L198,120 L199,123 L202,124 L202,129 L211,131 L213,132 L213,135 L216,136 L215,142 L214,144 L220,145 L225,150 L226,159 L225,161 L223,161 L224,165 L222,169 L224,171 L226,175 L226,188 L219,196 L217,196 L215,201 L216,204 L216,216 L213,217 L214,220 L210,224 L205,228 L199,233 L197,233 L194,236 L190,237 L186,241 L183,250 L178,254 L175,257 L172,257 L171,259 L167,260 L157,260 L155,260 L151,262 L152,265 L145,271 L145,273 L135,275 L135,273 L131,274 L126,268 L120,268 L115,266 L108,261 L105,258 L104,260 L95,262 L93,261 L92,264 L88,266 L86,271 L85,280 L83,280 L83,317 L85,317 L85,321 L92,323 L95,325 L95,327 L100,329 L102,331 L107,333 L115,340 L118,344 L129,344 L132,345 L132,347 L138,346 L141,347 L141,349 L146,348 L150,348 L156,344 L164,336 L169,330 L171,330 L173,327 L175,327 L178,331 L177,333 L173,339 L171,341 L167,345 L164,348 L164,350 L166,351 L167,348 L175,349 L173,355 L183,358 L187,360 L193,363 L198,364 L202,366 L205,367 L205,369 L210,368 L211,371 L221,372 L226,376 L226,385 L225,389 L223,389 L224,394 L221,395 L222,398 L219,400 L-119,400 L-126,397 L-124,396 L-125,394 L-135,394 L-151,391 L-154,388 L-157,382 L-140,377 L-114,370 L-98,366 L-95,367 L-97,367 L-94,371 L-87,371 L-85,370 L-73,369 L-73,366 L-64,367 L-62,363 L-58,369 L-54,368 L-51,365 L-46,366 L-45,363 L-43,364 L-43,366 L-38,366 L-37,361 L-34,359 L-22,358 L-9,350 L-4,345 L4,338 L14,332 L16,328 L23,325 L24,328 L25,326 L27,326 L27,320 L25,319 L26,316 L27,303 L29,303 L29,274 L28,273 L26,239 L25,229 L28,232 L29,249 L30,250 L30,256 L37,256 L36,252 L41,252 L40,235 L35,234 L35,233 L40,233 L42,235 L42,251 L44,251 L45,258 L44,259 L44,272 L46,274 L46,279 L47,278 L46,273 L44,271 L44,260 L52,257 L58,254 L62,246 L68,246 L69,230 L74,219 L78,218 L79,214 L74,212 L80,202 L83,192 L84,177 L91,179 L91,175 L100,173 L104,167 L109,172 L118,172 L127,166 L129,166 L129,164 L131,165 L129,168 L130,172 L134,174 L128,179 L128,181 L131,182 L132,188 L136,190 L135,192 L135,199 L137,203 L141,205 L150,204 L157,199 L161,201 L165,203 L176,203 L179,200 L180,198 L180,191 L179,186 L183,187 L194,187 L196,186 L196,181 L194,178 L206,176 L206,169 L205,166 L209,161 L210,156 L206,154 L198,154 L186,157 L187,148 L180,145 L165,144 L169,141 L180,134 L183,130 L183,126 L181,125 L170,124 L176,117 L178,113 L173,112 L177,109 L187,102 L193,94 L194,88 L191,83 L183,79 L179,77 L184,70 L184,64 L180,62 L169,61 L173,57 L178,52 L180,50 L180,43 L174,40 L152,39 L151,33 L146,36 L137,45 L136,43 L136,38 L133,36 L125,35 L128,31 L128,25 L119,25 L113,29 L108,33 L110,28 L112,26 L108,27 L101,32 L99,32 L97,28 L94,26 L86,26 L84,28 L85,35 L85,38 L78,35 L75,32 L72,26 L68,27 L65,29 L64,24 L57,27 L53,29 L50,26 L44,27 L40,28 L44,21 L34,22 L37,18 L37,14 L28,10 L21,9 L16,12 L14,5 L13,4 L3,4 L-8,9 L-12,13 L-18,13 L-17,8 L-13,7 L-8,3 L-3,2 L-1,3 Z M-11,6 Z M18,6 Z M28,6 Z M114,22 Z M116,22 Z M130,24 Z M76,26 Z M77,28 Z M79,31 Z M80,32 Z M143,33 Z M176,58 L176,59 L181,59 L181,58 Z M184,74 Z M190,78 Z M200,124 Z M200,128 Z M199,130 Z M207,131 Z M213,141 Z M212,143 Z M211,144 L211,146 L218,146 L218,145 Z M223,150 Z M221,166 Z M219,169 Z M213,198 L214,200 Z M184,240 Z M114,242 L115,245 L116,242 Z M182,248 Z M107,256 Z M154,257 Z M157,258 Z M153,259 Z M91,262 Z M89,323 Z M105,333 Z M172,337 Z M168,342 Z M128,345 Z M151,348 Z M149,350 Z M170,356 Z M176,357 Z M179,358 Z M186,361 Z M188,362 Z M203,367 Z M209,369 Z M219,373 Z M224,383 L225,385 Z " fill="#9C7E52" transform="translate(174,0)"/>
<path d="M0,0 L2,0 L3,5 L11,4 L13,11 L17,12 L31,12 L39,10 L46,10 L56,11 L61,10 L63,6 L65,8 L76,8 L81,6 L79,10 L77,15 L72,13 L64,13 L54,19 L50,24 L50,32 L52,35 L50,37 L50,44 L54,47 L65,47 L66,54 L70,57 L79,57 L91,50 L96,47 L98,47 L99,55 L96,56 L95,60 L100,59 L103,75 L108,77 L116,93 L122,100 L139,113 L151,122 L165,130 L165,145 L163,154 L161,157 L159,192 L156,197 L143,205 L136,213 L125,220 L120,223 L108,224 L105,225 L105,230 L101,231 L97,228 L94,231 L90,230 L87,234 L83,233 L80,229 L78,232 L72,232 L69,230 L69,233 L67,234 L57,235 L55,236 L48,236 L45,233 L44,231 L25,236 L-13,246 L-13,248 L-9,254 L7,257 L19,257 L18,261 L23,263 L23,264 L13,264 L12,262 L4,261 L3,260 L-6,260 L-11,258 L-17,251 L-19,245 L-16,244 L-16,242 L-9,241 L-4,239 L1,238 L4,237 L7,238 L7,236 L14,235 L15,233 L23,232 L23,231 L33,230 L38,228 L43,227 L46,226 L50,225 L55,224 L58,225 L58,223 L66,222 L72,219 L77,219 L81,218 L85,219 L85,217 L87,217 L88,215 L86,214 L86,212 L84,211 L84,208 L86,208 L86,206 L92,207 L96,210 L100,211 L102,209 L100,207 L100,203 L102,201 L98,197 L97,194 L96,191 L92,187 L93,184 L89,182 L89,178 L91,178 L92,175 L94,175 L94,177 L97,178 L101,183 L105,189 L109,195 L112,200 L116,204 L115,207 L121,207 L125,205 L128,204 L131,201 L136,199 L138,194 L139,193 L144,189 L148,182 L149,176 L150,173 L150,162 L151,161 L150,156 L151,154 L149,153 L145,144 L144,138 L142,138 L140,134 L138,133 L138,131 L135,131 L134,134 L131,136 L129,135 L129,137 L123,137 L120,134 L120,132 L107,132 L105,129 L91,129 L87,126 L86,123 L84,126 L75,126 L74,124 L71,123 L71,126 L65,126 L63,124 L60,127 L58,128 L52,128 L48,126 L48,124 L44,123 L39,126 L28,126 L26,125 L26,123 L21,124 L9,124 L7,122 L5,121 L5,119 L2,118 L1,115 L2,112 L0,112 L0,110 L-5,109 L-5,106 L-8,106 L-7,98 L-10,97 L-10,88 L-8,86 L-8,83 L-10,75 L-11,75 L-11,68 L-13,63 L-17,61 L-20,59 L-21,51 L-22,49 L-24,48 L-24,42 L-20,39 L-18,35 L-20,34 L-19,30 L-11,23 L-8,24 L-8,22 L-4,21 L-1,22 L-1,20 L8,19 L6,16 L6,13 L3,12 L2,6 L-2,7 L-11,6 L-13,5 L-13,3 L-1,2 Z M3,8 Z M9,18 L10,20 Z M2,20 Z M-23,42 Z M-19,58 Z M-10,65 L-9,68 Z M87,72 Z M90,73 L91,75 L93,73 Z M87,74 Z M-8,77 L-7,81 Z M44,121 Z M9,122 Z M41,123 Z M88,125 Z M103,126 Z M99,127 Z M119,129 Z M117,130 Z M146,142 L147,144 Z M148,148 L149,150 Z M90,180 L91,182 Z M148,183 L149,185 Z M137,197 Z M136,199 Z M117,208 L118,210 Z M119,208 Z M100,212 Z M90,216 Z M72,220 Z M19,233 Z M9,236 Z M-14,242 Z M-16,249 L-15,251 Z M-10,257 Z " fill="#4F4E00" transform="translate(32,136)"/>
<path d="M0,0 L1,0 L2,24 L0,30 L0,47 L9,47 L11,46 L11,59 L8,58 L-2,59 L-2,49 L-3,48 L-3,59 L-2,60 L-2,67 L-5,68 L-3,86 L-2,86 L-2,83 L4,83 L6,79 L2,78 L-3,73 L-2,68 L-1,67 L7,66 L9,65 L10,80 L11,82 L11,80 L19,77 L26,77 L29,80 L41,83 L45,87 L47,95 L51,100 L57,100 L61,99 L60,88 L65,84 L69,86 L77,90 L93,90 L91,85 L86,83 L74,77 L66,68 L66,67 L92,67 L96,65 L103,66 L103,68 L109,67 L112,68 L112,70 L117,69 L121,69 L127,65 L135,57 L140,51 L142,51 L144,48 L146,48 L149,52 L148,54 L144,60 L142,62 L138,66 L135,69 L135,71 L137,72 L138,69 L146,70 L144,76 L154,79 L158,81 L164,84 L169,85 L173,87 L176,88 L176,90 L181,89 L182,92 L192,93 L197,97 L197,106 L196,110 L194,110 L195,115 L192,116 L193,119 L190,121 L-148,121 L-155,118 L-153,117 L-154,115 L-164,115 L-180,112 L-183,109 L-186,103 L-169,98 L-143,91 L-127,87 L-124,88 L-126,88 L-123,92 L-116,92 L-114,91 L-102,90 L-102,87 L-93,88 L-91,84 L-87,90 L-83,89 L-80,86 L-75,87 L-74,84 L-72,85 L-72,87 L-67,87 L-66,82 L-63,80 L-51,79 L-38,71 L-33,66 L-25,59 L-15,53 L-13,49 L-6,46 L-5,49 L-4,47 L-2,47 L-2,41 L-4,40 L-3,37 L-2,24 L0,24 Z M143,58 Z M139,63 Z M99,66 Z M122,69 Z M120,71 Z M141,77 Z M147,78 Z M150,79 Z M157,82 Z M159,83 Z M174,88 Z M180,90 Z M190,94 Z M195,104 L196,106 Z " fill="#8DA44B" transform="translate(203,279)"/>
<path d="M0,0 L10,0 L13,4 L14,8 L18,5 L25,6 L35,11 L34,17 L35,18 L41,18 L39,23 L43,22 L49,23 L50,26 L57,21 L61,21 L63,25 L66,22 L70,23 L75,31 L82,34 L80,29 L81,24 L83,22 L91,22 L96,27 L96,29 L106,22 L110,23 L106,29 L114,22 L116,21 L123,21 L126,24 L125,30 L124,31 L132,33 L134,35 L134,41 L145,30 L148,30 L149,36 L171,36 L177,39 L178,40 L178,47 L172,54 L168,57 L180,59 L182,61 L182,67 L177,74 L187,78 L191,82 L192,88 L188,96 L179,104 L169,109 L157,110 L160,106 L160,101 L146,98 L135,97 L134,86 L131,84 L123,84 L115,85 L111,79 L107,77 L101,77 L95,82 L92,85 L90,80 L85,81 L83,85 L80,81 L83,80 L77,76 L76,75 L77,66 L72,65 L72,63 L67,65 L64,65 L62,60 L60,59 L50,59 L51,53 L49,52 L39,52 L34,53 L26,53 L24,46 L18,45 L12,49 L8,53 L6,49 L1,49 L-1,53 L-3,50 L-12,50 L-16,52 L-20,58 L-22,60 L-27,60 L-31,52 L-33,51 L-47,50 L-44,47 L-41,46 L-50,42 L-51,38 L-50,37 L-41,37 L-40,33 L-35,30 L-45,30 L-46,25 L-41,20 L-33,18 L-36,16 L-35,12 L-32,11 L-22,11 L-23,9 L-32,8 L-32,7 L-20,6 L-19,9 L-14,8 L-10,4 Z M-22,7 Z " fill="#AEDA88" transform="translate(177,3)"/>
<path d="M0,0 L6,1 L8,3 L9,8 L20,8 L21,7 L31,7 L34,9 L33,14 L42,14 L46,17 L46,21 L54,19 L54,21 L60,21 L59,31 L63,35 L52,35 L50,37 L47,37 L47,39 L40,37 L31,37 L29,40 L28,49 L26,49 L24,45 L21,44 L18,54 L8,52 L5,52 L1,53 L-9,47 L-7,50 L-7,63 L-8,66 L-12,65 L-12,63 L-15,64 L-22,64 L-25,61 L-26,57 L-34,58 L-37,56 L-37,51 L-43,50 L-51,43 L-63,43 L-65,41 L-65,37 L-77,37 L-84,35 L-87,32 L-88,26 L-91,24 L-99,25 L-105,28 L-103,32 L-96,37 L-96,43 L-93,45 L-73,45 L-71,49 L-73,52 L-63,51 L-54,59 L-47,61 L-46,62 L-46,67 L-43,67 L-43,70 L-48,70 L-50,68 L-50,65 L-57,65 L-64,68 L-73,68 L-74,68 L-75,72 L-76,74 L-65,74 L-65,78 L-57,80 L-58,85 L-63,89 L-65,89 L-65,86 L-74,87 L-83,88 L-88,85 L-91,89 L-94,90 L-101,90 L-111,89 L-120,91 L-134,91 L-139,86 L-139,83 L-141,84 L-147,84 L-150,80 L-152,82 L-169,82 L-177,79 L-181,77 L-188,82 L-188,86 L-181,89 L-180,92 L-186,91 L-192,87 L-192,81 L-182,73 L-163,63 L-160,62 L-165,60 L-165,57 L-157,53 L-155,53 L-154,47 L-152,45 L-142,45 L-140,46 L-139,41 L-133,34 L-127,33 L-122,35 L-120,34 L-112,34 L-107,38 L-105,40 L-103,38 L-109,31 L-108,26 L-103,22 L-97,20 L-98,17 L-96,16 L-103,12 L-104,7 L-101,5 L-91,5 L-83,9 L-78,6 L-74,6 L-75,17 L-70,14 L-67,11 L-67,6 L-65,5 L-51,6 L-47,9 L-45,16 L-39,14 L-34,7 L-30,5 L-21,5 L-18,7 L-15,4 L-11,5 L-9,8 L-4,2 Z " fill="#92AC54" transform="translate(195,47)"/>
<path d="M0,0 L15,0 L20,5 L21,4 L27,4 L31,8 L36,8 L37,11 L41,12 L42,15 L41,17 L45,18 L48,20 L48,22 L53,22 L53,25 L55,25 L56,22 L59,20 L65,20 L66,22 L69,23 L69,21 L75,22 L78,26 L78,28 L81,28 L80,25 L83,25 L84,22 L88,23 L88,21 L92,21 L92,23 L96,22 L100,27 L105,24 L108,22 L110,23 L110,21 L118,21 L121,20 L127,20 L128,23 L132,24 L134,32 L135,34 L138,33 L139,36 L141,35 L145,31 L147,29 L151,29 L151,31 L154,32 L155,35 L174,35 L176,36 L176,38 L180,37 L185,43 L185,51 L182,54 L181,57 L189,63 L189,70 L186,76 L192,78 L193,81 L197,83 L198,88 L198,91 L196,98 L191,103 L191,107 L193,109 L193,115 L198,120 L199,123 L202,124 L202,129 L211,131 L213,132 L213,135 L216,136 L215,142 L214,144 L220,145 L225,150 L226,159 L225,161 L223,161 L224,165 L222,169 L224,171 L226,175 L226,188 L219,196 L217,196 L215,201 L216,204 L216,216 L213,217 L214,220 L210,224 L205,228 L199,233 L197,233 L194,236 L190,237 L186,241 L183,250 L181,250 L181,248 L172,255 L161,256 L152,254 L150,260 L146,266 L140,271 L133,271 L126,265 L116,263 L111,258 L112,253 L119,242 L120,239 L100,238 L100,234 L105,231 L94,231 L94,229 L108,228 L108,232 L103,235 L122,236 L122,242 L115,252 L115,259 L123,262 L129,264 L133,268 L140,268 L145,264 L148,258 L143,256 L140,253 L127,249 L124,246 L125,239 L132,228 L133,225 L112,225 L112,222 L118,218 L104,218 L100,216 L108,206 L120,195 L133,189 L136,190 L135,192 L135,199 L137,203 L141,205 L150,204 L157,199 L161,201 L165,203 L176,203 L179,200 L180,198 L180,191 L179,186 L183,187 L194,187 L196,186 L196,181 L194,178 L206,176 L206,169 L205,166 L209,161 L210,156 L206,154 L198,154 L186,157 L187,148 L180,145 L165,144 L169,141 L180,134 L183,130 L183,126 L181,125 L170,124 L176,117 L178,113 L173,112 L177,109 L187,102 L193,94 L194,88 L191,83 L183,79 L179,77 L184,70 L184,64 L180,62 L169,61 L173,57 L178,52 L180,50 L180,43 L174,40 L152,39 L151,33 L146,36 L137,45 L136,43 L136,38 L133,36 L125,35 L128,31 L128,25 L119,25 L113,29 L108,33 L110,28 L112,26 L108,27 L101,32 L99,32 L97,28 L94,26 L86,26 L84,28 L85,35 L85,38 L78,35 L75,32 L72,26 L68,27 L65,29 L64,24 L57,27 L53,29 L50,26 L44,27 L40,28 L44,21 L34,22 L37,18 L37,14 L28,10 L21,9 L16,12 L14,5 L13,4 L3,4 L-8,9 L-12,13 L-18,13 L-17,8 L-13,7 L-8,3 L-3,2 L-1,3 Z M-11,6 Z M18,6 Z M28,6 Z M114,22 Z M116,22 Z M130,24 Z M76,26 Z M77,28 Z M79,31 Z M80,32 Z M143,33 Z M176,58 L176,59 L181,59 L181,58 Z M184,74 Z M190,78 Z M200,124 Z M200,128 Z M199,130 Z M207,131 Z M213,141 Z M212,143 Z M211,144 L211,146 L218,146 L218,145 Z M223,150 Z M221,166 Z M219,169 Z M213,198 L214,200 Z M184,240 Z M182,248 Z " fill="#8FA74F" transform="translate(174,0)"/>
<path d="M0,0 L4,2 L12,7 L20,10 L40,12 L40,13 L33,15 L27,25 L43,30 L44,31 L46,41 L48,44 L51,32 L53,12 L59,10 L61,18 L64,20 L64,24 L58,23 L57,37 L54,47 L48,56 L53,59 L51,64 L47,65 L43,75 L42,89 L41,91 L35,91 L33,97 L29,101 L21,105 L17,105 L18,116 L21,120 L20,125 L18,124 L18,119 L16,117 L16,104 L17,103 L17,96 L15,96 L14,80 L13,80 L14,86 L14,97 L13,99 L10,99 L10,101 L3,101 L1,94 L0,77 L-1,77 L1,96 L1,118 L-1,118 L1,124 L1,141 L-1,140 L-1,125 L-3,122 L-2,117 L0,117 L0,112 L-2,112 L-4,97 L-3,94 L-7,92 L-18,85 L-33,76 L-44,67 L-48,62 L-54,51 L-57,40 L-57,34 L-53,32 L-52,29 L-59,31 L-59,28 L-53,24 L-51,18 L-38,17 L-35,13 L-33,10 L-26,14 L-16,14 L-16,8 L-18,4 L0,4 Z M16,12 Z M18,13 L17,18 L19,20 L19,13 Z M16,19 L17,21 Z M19,21 Z " fill="#692F00" transform="translate(201,155)"/>
<path d="M0,0 L1,0 L2,7 L6,10 L15,10 L27,3 L32,0 L34,0 L35,8 L32,9 L31,13 L36,12 L39,28 L44,30 L52,46 L58,53 L75,66 L87,75 L101,83 L101,98 L99,107 L97,110 L95,145 L92,150 L79,158 L72,166 L61,173 L56,176 L44,177 L41,178 L41,183 L37,184 L33,181 L30,184 L26,183 L23,187 L19,186 L16,182 L14,185 L8,185 L5,183 L5,186 L3,187 L-7,188 L-9,189 L-16,189 L-19,186 L-20,184 L-39,189 L-77,199 L-77,201 L-73,207 L-57,210 L-45,210 L-46,214 L-41,216 L-41,217 L-51,217 L-52,215 L-60,214 L-61,213 L-70,213 L-75,211 L-81,204 L-83,198 L-80,197 L-80,195 L-73,194 L-68,192 L-63,191 L-60,190 L-57,191 L-57,189 L-50,188 L-49,186 L-41,185 L-41,184 L-31,183 L-26,181 L-21,180 L-18,179 L-14,178 L-9,177 L-6,178 L-6,176 L2,175 L8,172 L13,172 L17,171 L21,172 L21,170 L23,170 L24,168 L22,167 L22,165 L20,164 L20,161 L22,161 L22,159 L28,160 L32,163 L36,164 L38,162 L36,160 L36,156 L38,154 L34,150 L33,147 L32,144 L28,140 L29,137 L25,135 L25,131 L27,131 L28,128 L30,128 L30,130 L33,131 L37,136 L41,142 L45,148 L48,153 L52,157 L51,160 L57,160 L61,158 L64,157 L67,154 L72,152 L74,147 L75,146 L80,142 L84,135 L85,129 L86,126 L86,115 L87,114 L86,109 L87,107 L85,106 L81,97 L80,91 L78,91 L76,87 L74,86 L74,84 L71,84 L70,87 L67,89 L65,88 L65,90 L59,90 L56,87 L56,85 L43,85 L41,82 L27,82 L23,79 L22,76 L20,79 L11,79 L10,77 L7,76 L7,79 L1,79 L-1,77 L-4,80 L-6,81 L-12,81 L-16,79 L-16,77 L-20,76 L-22,78 L-27,77 L-22,72 L-18,69 L-14,75 L-12,76 L-6,76 L1,71 L2,74 L6,75 L6,71 L10,73 L12,74 L19,74 L21,68 L25,69 L37,69 L36,64 L35,61 L36,57 L32,53 L25,50 L23,44 L28,45 L31,46 L40,46 L42,42 L41,33 L36,34 L36,38 L30,38 L19,29 L5,19 L3,14 L2,13 L-7,12 L-5,10 L-1,8 L-1,6 L-9,3 L-9,2 Z M23,25 Z M26,26 L27,28 L29,26 Z M23,27 Z M-20,74 Z M-23,76 Z M24,78 Z M39,79 Z M35,80 Z M55,82 Z M53,83 Z M82,95 L83,97 Z M84,101 L85,103 Z M26,133 L27,135 Z M84,136 L85,138 Z M73,150 Z M72,152 Z M53,161 L54,163 Z M55,161 Z M36,165 Z M26,169 Z M8,173 Z M-45,186 Z M-55,189 Z M-78,195 Z M-80,202 L-79,204 Z M-74,210 Z " fill="#502C01" transform="translate(96,183)"/>
<path d="M0,0 L10,0 L13,4 L14,8 L18,5 L25,6 L35,11 L34,17 L35,18 L41,18 L39,23 L43,22 L49,23 L50,26 L57,21 L61,21 L63,25 L66,22 L70,23 L75,31 L77,33 L73,36 L71,36 L70,45 L75,50 L77,51 L77,53 L73,57 L73,65 L72,63 L67,65 L64,65 L62,60 L60,59 L50,59 L51,53 L49,52 L39,52 L34,53 L26,53 L24,46 L18,45 L12,49 L8,53 L6,49 L1,49 L-1,53 L-3,50 L-12,50 L-16,52 L-20,58 L-22,60 L-27,60 L-31,52 L-33,51 L-47,50 L-44,47 L-41,46 L-50,42 L-51,38 L-50,37 L-41,37 L-40,33 L-35,30 L-45,30 L-46,25 L-41,20 L-33,18 L-36,16 L-35,12 L-32,11 L-22,11 L-23,9 L-32,8 L-32,7 L-20,6 L-19,9 L-14,8 L-10,4 Z M-22,7 Z " fill="#A0C26F" transform="translate(177,3)"/>
<path d="M0,0 L6,1 L9,2 L11,1 L19,1 L24,5 L26,7 L28,5 L32,6 L33,13 L37,15 L54,16 L56,22 L63,22 L66,21 L76,29 L82,30 L82,32 L74,32 L67,35 L58,35 L57,35 L56,39 L55,41 L66,41 L66,45 L74,47 L73,52 L68,56 L66,56 L66,53 L57,54 L48,55 L43,52 L40,56 L37,57 L30,57 L20,56 L11,58 L-3,58 L-8,53 L-8,50 L-10,51 L-16,51 L-19,47 L-21,49 L-38,49 L-46,46 L-50,44 L-57,49 L-57,53 L-50,56 L-49,59 L-55,58 L-61,54 L-61,48 L-51,40 L-32,30 L-29,29 L-34,27 L-34,24 L-26,20 L-24,20 L-23,14 L-21,12 L-11,12 L-9,13 L-8,8 L-2,1 Z " fill="#84983C" transform="translate(64,80)"/>
<path d="M0,0 L8,1 L15,7 L17,11 L23,15 L26,18 L25,22 L19,25 L12,25 L7,23 L3,26 L2,30 L13,30 L15,32 L15,36 L19,37 L13,38 L13,40 L22,38 L29,34 L32,31 L38,31 L41,34 L41,38 L50,41 L53,45 L52,50 L54,53 L53,58 L41,58 L37,56 L37,61 L35,63 L28,63 L22,59 L22,63 L17,62 L16,60 L10,65 L4,65 L-1,60 L-3,58 L-10,64 L-9,67 L-16,66 L-12,65 L-12,63 L-19,63 L-24,61 L-38,61 L-43,57 L-44,55 L-44,47 L-51,47 L-52,46 L-53,39 L-54,38 L-54,29 L-48,25 L-39,24 L-36,25 L-34,20 L-31,17 L-23,17 L-18,19 L-18,13 L-14,9 L-12,8 L-5,8 L-4,3 Z " fill="#697201" transform="translate(80,195)"/>
<path d="M0,0 L6,1 L9,4 L19,2 L34,3 L41,6 L42,7 L42,13 L42,15 L52,12 L60,12 L65,15 L64,20 L60,26 L61,33 L58,36 L49,38 L51,40 L51,45 L48,47 L37,47 L33,45 L35,50 L35,57 L32,62 L30,63 L19,63 L13,59 L9,61 L1,65 L-5,65 L-10,62 L-12,58 L-12,51 L-11,49 L-15,47 L-15,41 L-19,40 L-17,36 L-13,33 L-18,30 L-17,26 L-15,22 L-19,23 L-28,29 L-35,30 L-39,26 L-41,22 L-43,20 L-39,18 L-37,13 L-32,18 L-23,18 L-19,16 L-15,12 L-11,10 L-3,10 L-3,4 Z " fill="#A2C671" transform="translate(320,141)"/>
<path d="M0,0 L15,0 L20,5 L21,4 L27,4 L31,8 L36,8 L37,11 L41,12 L42,15 L41,17 L45,18 L48,20 L48,22 L53,22 L53,25 L55,25 L56,22 L59,20 L65,20 L66,22 L69,23 L69,21 L75,22 L78,26 L78,28 L81,28 L80,25 L83,25 L84,22 L88,23 L88,21 L92,21 L92,23 L96,22 L100,27 L105,24 L108,22 L110,23 L110,21 L118,21 L121,20 L127,20 L128,23 L132,24 L134,32 L135,34 L138,33 L139,36 L141,35 L145,31 L147,29 L151,29 L151,31 L154,32 L155,35 L174,35 L176,36 L176,38 L180,37 L185,43 L185,51 L182,54 L181,57 L189,63 L189,70 L186,76 L192,78 L193,81 L197,83 L198,88 L198,91 L196,98 L191,103 L191,107 L193,109 L193,115 L198,120 L199,123 L202,124 L202,129 L211,131 L213,132 L213,135 L216,136 L215,142 L214,144 L220,145 L225,150 L226,159 L225,161 L223,161 L224,165 L222,169 L224,171 L226,175 L226,188 L219,196 L217,196 L215,201 L216,204 L216,216 L213,217 L214,220 L210,224 L205,228 L199,233 L197,233 L194,236 L190,237 L186,241 L181,245 L181,239 L196,229 L206,222 L211,216 L211,203 L210,197 L219,190 L223,183 L223,177 L220,174 L212,173 L218,166 L221,158 L220,151 L219,150 L208,150 L202,152 L206,147 L205,143 L177,143 L179,139 L175,138 L181,133 L183,130 L183,126 L181,125 L170,124 L176,117 L178,113 L173,112 L177,109 L187,102 L193,94 L194,88 L191,83 L183,79 L179,77 L184,70 L184,64 L180,62 L169,61 L173,57 L178,52 L180,50 L180,43 L174,40 L152,39 L151,33 L146,36 L137,45 L136,43 L136,38 L133,36 L125,35 L128,31 L128,25 L119,25 L113,29 L108,33 L110,28 L112,26 L108,27 L101,32 L99,32 L97,28 L94,26 L86,26 L84,28 L85,35 L85,38 L78,35 L75,32 L72,26 L68,27 L65,29 L64,24 L57,27 L53,29 L50,26 L44,27 L40,28 L44,21 L34,22 L37,18 L37,14 L28,10 L21,9 L16,12 L14,5 L13,4 L3,4 L-8,9 L-12,13 L-18,13 L-17,8 L-13,7 L-8,3 L-3,2 L-1,3 Z M-11,6 Z M18,6 Z M28,6 Z M114,22 Z M116,22 Z M130,24 Z M76,26 Z M77,28 Z M79,31 Z M80,32 Z M143,33 Z M176,58 L176,59 L181,59 L181,58 Z M184,74 Z M190,78 Z M200,124 Z M200,128 Z M199,130 Z M207,131 Z M213,141 Z M212,143 Z M211,144 L211,146 L218,146 L218,145 Z M223,150 Z M221,166 Z M219,169 Z M213,198 L214,200 Z " fill="#242218" transform="translate(174,0)"/>
<path d="M0,0 L1,0 L1,16 L-1,26 L-6,34 L-11,37 L-18,45 L-29,52 L-34,55 L-46,56 L-49,57 L-49,62 L-53,63 L-57,60 L-60,63 L-64,62 L-67,66 L-71,65 L-74,61 L-76,64 L-82,64 L-85,62 L-85,65 L-87,66 L-97,67 L-99,68 L-106,68 L-109,65 L-110,63 L-129,68 L-167,78 L-167,80 L-163,86 L-147,89 L-135,89 L-136,93 L-131,95 L-131,96 L-141,96 L-142,94 L-150,93 L-151,92 L-160,92 L-165,90 L-171,83 L-173,77 L-170,76 L-170,74 L-163,73 L-158,71 L-153,70 L-150,69 L-147,70 L-147,68 L-140,67 L-139,65 L-131,64 L-131,63 L-121,62 L-116,60 L-111,59 L-108,58 L-104,57 L-99,56 L-96,57 L-96,55 L-88,54 L-82,51 L-77,51 L-73,50 L-69,51 L-69,49 L-67,49 L-66,47 L-68,46 L-68,44 L-70,43 L-70,40 L-68,40 L-68,38 L-62,39 L-58,42 L-54,43 L-52,41 L-54,39 L-54,35 L-52,33 L-56,29 L-57,26 L-58,23 L-62,19 L-61,16 L-65,14 L-65,10 L-63,10 L-62,7 L-60,7 L-60,9 L-57,10 L-53,15 L-49,21 L-45,27 L-42,32 L-38,36 L-39,39 L-33,39 L-29,37 L-26,36 L-23,33 L-18,31 L-17,33 L-17,34 L-15,34 L-13,29 L-6,21 L-1,13 Z M-64,12 L-63,14 Z M-37,40 L-36,42 Z M-35,40 Z M-54,44 Z M-64,48 Z M-82,52 Z M-135,65 Z M-145,68 Z M-168,74 Z M-170,81 L-169,83 Z M-164,89 Z " fill="#697204" transform="translate(186,304)"/>
<path d="M0,0 L4,2 L12,7 L20,10 L40,12 L40,13 L33,15 L27,25 L43,30 L44,31 L44,37 L40,40 L41,70 L39,71 L39,63 L36,62 L39,62 L38,49 L36,48 L35,51 L35,41 L36,41 L36,47 L38,47 L37,39 L34,37 L15,32 L-16,24 L-19,23 L-19,34 L-16,35 L-24,35 L-24,40 L-25,40 L-25,35 L-33,38 L-35,40 L-40,41 L-52,46 L-56,45 L-57,34 L-53,32 L-52,29 L-59,31 L-59,28 L-53,24 L-51,18 L-38,17 L-35,13 L-33,10 L-26,14 L-16,14 L-16,8 L-18,4 L0,4 Z M16,12 Z M18,13 L17,18 L19,20 L19,13 Z M16,19 L17,21 Z M19,21 Z " fill="#652D00" transform="translate(201,155)"/>
<path d="M0,0 L5,2 L11,3 L11,6 L15,4 L18,4 L17,8 L13,9 L16,22 L20,32 L26,41 L38,51 L49,57 L63,66 L67,69 L68,78 L68,87 L70,87 L70,92 L68,92 L69,99 L70,100 L70,115 L71,116 L70,99 L69,98 L69,93 L73,94 L73,121 L72,123 L70,123 L70,136 L70,140 L70,146 L68,146 L67,154 L66,154 L65,146 L60,148 L60,127 L61,113 L64,108 L66,86 L61,84 L49,77 L31,63 L20,54 L13,44 L8,33 L4,31 L1,20 L1,15 L-4,16 L-3,11 L0,11 L-2,2 Z " fill="#6F4F1E" transform="translate(131,180)"/>
<path d="M0,0 L2,0 L4,8 L7,10 L7,14 L1,13 L0,27 L-3,37 L-9,46 L-4,49 L-6,54 L-10,55 L-14,65 L-15,79 L-16,81 L-22,81 L-24,87 L-28,91 L-36,95 L-40,95 L-39,106 L-36,110 L-37,115 L-39,114 L-39,109 L-41,107 L-41,94 L-40,93 L-40,86 L-42,86 L-42,70 L-38,70 L-38,61 L-25,62 L-39,60 L-40,50 L-29,50 L-40,48 L-41,35 L-36,34 L-29,37 L-19,38 L-18,39 L-18,53 L-17,59 L-18,29 L-13,27 L-9,34 L-6,22 L-4,2 Z " fill="#945A00" transform="translate(258,165)"/>
<path d="M0,0 L11,2 L34,7 L37,9 L28,8 L20,7 L20,20 L31,21 L34,23 L20,22 L21,32 L31,32 L37,33 L34,35 L22,33 L22,42 L17,42 L16,42 L17,48 L17,59 L16,61 L13,61 L13,63 L6,63 L4,56 L3,39 L1,36 L1,26 L-7,26 L-16,24 L-16,37 L-17,37 L-18,11 L-33,15 L-37,14 L-24,10 L-15,10 L0,13 Z " fill="#280000" transform="translate(198,193)"/>
<path d="M0,0 L9,0 L27,12 L38,21 L44,24 L49,30 L56,49 L56,59 L55,59 L54,74 L49,82 L42,90 L39,95 L34,97 L35,94 L37,94 L36,90 L39,87 L39,85 L45,81 L48,75 L49,69 L50,66 L50,55 L51,54 L50,49 L51,47 L49,46 L45,37 L44,31 L42,31 L40,27 L38,26 L38,24 L35,24 L34,27 L31,29 L29,28 L29,30 L23,30 L20,27 L20,25 L7,25 L5,22 L-9,22 L-13,19 L-14,16 L-16,19 L-25,19 L-26,17 L-29,16 L-29,19 L-35,19 L-37,17 L-40,20 L-42,21 L-48,21 L-52,19 L-52,17 L-56,16 L-58,18 L-63,17 L-58,12 L-54,9 L-50,15 L-48,16 L-42,16 L-35,11 L-34,14 L-30,15 L-30,11 L-26,13 L-24,14 L-17,14 L-15,8 L-11,9 L1,9 L0,4 L-1,1 Z M-56,14 Z M-59,16 Z M-12,18 Z M3,19 Z M-1,20 Z M19,22 Z M17,23 Z M46,35 L47,37 Z M48,41 L49,43 Z M48,76 L49,78 Z M37,90 Z " fill="#3C3600" transform="translate(132,243)"/>
<path d="M0,0 L5,0 L1,3 L-2,5 L-2,7 L19,8 L16,15 L10,24 L11,30 L18,33 L25,35 L31,40 L38,40 L45,34 L50,24 L65,25 L72,23 L77,18 L79,18 L80,21 L75,26 L70,27 L69,29 L65,30 L55,30 L53,30 L49,32 L50,35 L43,41 L43,43 L33,45 L33,43 L29,44 L24,38 L18,38 L13,36 L6,31 L3,28 L2,30 L-7,32 L-9,31 L-10,34 L-14,36 L-16,41 L-17,50 L-19,50 L-19,87 L-17,87 L-17,91 L-10,93 L-7,95 L-7,97 L-2,99 L0,101 L5,103 L13,110 L16,114 L21,116 L21,117 L13,117 L6,109 L-6,102 L-12,97 L-21,94 L-23,78 L-23,53 L-19,37 L-15,22 L-9,2 L-8,1 Z M12,12 L13,15 L14,12 Z M5,26 Z M52,27 Z M55,28 Z M51,29 Z M-11,32 Z M-13,93 Z M3,103 Z " fill="#25211A" transform="translate(276,230)"/>
<path d="M0,0 L4,1 L6,3 L6,10 L1,14 L10,15 L13,15 L16,16 L16,18 L19,19 L19,24 L28,26 L30,27 L30,30 L33,31 L32,37 L31,39 L37,40 L42,45 L43,54 L42,56 L40,56 L41,60 L39,64 L41,66 L43,70 L43,83 L36,91 L34,91 L32,96 L33,99 L33,111 L30,112 L31,115 L27,119 L22,123 L16,128 L14,128 L11,131 L7,132 L3,136 L-2,140 L-2,134 L13,124 L23,117 L28,111 L28,98 L27,92 L36,85 L40,78 L40,72 L37,69 L29,68 L35,61 L38,53 L37,46 L36,45 L25,45 L19,47 L23,42 L22,38 L-6,38 L-4,34 L-8,33 L-2,28 L0,25 L0,21 L-2,20 L-13,19 L-7,12 L-5,8 L-10,7 L-6,4 Z M17,19 Z M17,23 Z M16,25 Z M24,26 Z M30,36 Z M29,38 Z M28,39 L28,41 L35,41 L35,40 Z M40,45 Z M38,61 Z M36,64 Z M30,93 L31,95 Z " fill="#7C8C2D" transform="translate(357,105)"/>
<path d="M0,0 L1,0 L3,15 L4,20 L1,21 L1,41 L0,41 L-1,35 L-3,34 L-17,34 L-21,40 L-23,42 L-37,46 L-47,45 L-59,41 L-59,36 L-56,34 L-44,33 L-31,25 L-26,20 L-18,13 L-8,7 L-6,3 Z " fill="#9A7D50" transform="translate(196,325)"/>
<path d="M0,0 L5,1 L8,3 L10,10 L13,12 L18,13 L31,13 L31,18 L32,19 L44,19 L52,26 L58,28 L59,33 L66,34 L70,33 L72,39 L73,40 L80,40 L85,38 L83,43 L73,44 L70,42 L56,42 L53,44 L49,44 L47,38 L40,36 L32,29 L22,30 L21,28 L23,28 L22,23 L2,23 L-2,20 L-2,14 L-8,10 L-11,7 L-9,3 Z " fill="#7C8C2C" transform="translate(100,70)"/>
<path d="M0,0 L10,0 L12,1 L12,3 L-1,5 L-1,8 L2,11 L-7,13 L-11,17 L-11,21 L1,21 L-3,24 L-6,26 L-6,30 L-16,30 L-16,33 L-9,36 L-4,37 L-7,39 L-14,42 L-14,47 L-20,53 L-23,53 L-22,42 L-30,45 L-32,46 L-39,42 L-49,42 L-51,43 L-50,48 L-43,52 L-46,53 L-44,57 L-53,60 L-56,63 L-55,69 L-50,74 L-54,78 L-57,73 L-60,71 L-68,71 L-72,72 L-75,70 L-81,71 L-87,79 L-88,82 L-100,82 L-103,89 L-111,93 L-113,93 L-113,96 L-106,97 L-108,99 L-125,107 L-138,116 L-139,117 L-139,123 L-127,129 L-129,130 L-129,132 L-133,131 L-137,130 L-139,128 L-143,125 L-143,115 L-139,113 L-138,111 L-134,110 L-133,107 L-126,103 L-124,102 L-120,99 L-117,97 L-117,92 L-113,90 L-111,88 L-109,89 L-107,84 L-104,83 L-104,80 L-102,80 L-101,78 L-99,79 L-99,77 L-90,77 L-88,71 L-84,69 L-80,65 L-75,65 L-70,67 L-60,66 L-61,62 L-56,56 L-50,55 L-51,52 L-52,50 L-54,49 L-56,47 L-55,41 L-52,38 L-47,39 L-47,37 L-42,37 L-42,39 L-37,38 L-36,41 L-33,40 L-28,41 L-27,38 L-20,38 L-20,40 L-16,41 L-16,37 L-18,36 L-18,34 L-21,34 L-21,29 L-17,26 L-14,27 L-13,24 L-15,22 L-14,20 L-16,20 L-15,14 L-12,14 L-12,12 L-10,12 L-10,10 L-7,10 L-6,5 L-4,5 L-2,1 L0,2 Z M-5,8 Z M-11,24 Z M-13,25 L-13,27 L-10,26 Z M-19,41 L-18,45 Z M-32,42 Z M-19,46 Z M-54,56 Z M-56,57 Z M-82,67 Z M-62,67 Z M-106,84 L-105,87 Z M-108,87 Z M-117,98 Z M-129,105 Z " fill="#232219" transform="translate(143,11)"/>
<path d="M0,0 L4,2 L12,5 L29,5 L32,2 L34,8 L42,7 L45,13 L47,14 L61,14 L70,12 L87,13 L91,11 L93,8 L98,11 L107,10 L113,9 L115,10 L114,15 L112,19 L110,18 L96,18 L94,19 L84,19 L81,16 L78,17 L77,21 L75,22 L67,22 L63,20 L58,21 L50,23 L35,23 L33,22 L31,16 L23,16 L20,10 L17,11 L15,14 L6,14 L5,18 L8,19 L5,20 L0,19 L-1,13 L-8,10 L-7,5 Z " fill="#6A7302" transform="translate(14,123)"/>
<path d="M0,0 L4,2 L12,7 L20,10 L40,12 L40,13 L33,15 L27,25 L43,30 L44,31 L44,37 L40,40 L41,70 L39,71 L39,63 L36,62 L39,62 L38,49 L36,48 L35,51 L35,41 L36,41 L36,47 L38,47 L37,39 L34,37 L15,32 L-16,24 L-19,23 L-19,34 L-16,35 L-24,35 L-24,40 L-25,40 L-25,35 L-30,36 L-28,34 L-21,32 L-20,22 L-11,23 L26,32 L42,36 L42,31 L31,29 L-17,17 L-18,15 L-16,14 L-16,8 L-18,4 L0,4 Z M16,12 Z M18,13 L17,18 L19,20 L19,13 Z M16,19 L17,21 Z M19,21 Z " fill="#0E0703" transform="translate(201,155)"/>
<path d="M0,0 L20,0 L17,3 L13,7 L34,8 L33,13 L26,24 L26,29 L30,32 L41,35 L49,41 L48,45 L43,51 L41,52 L34,52 L29,47 L17,44 L15,42 L15,35 L22,25 L23,19 L3,19 L7,15 L9,14 L9,12 L-4,12 L-3,5 Z " fill="#6A7301" transform="translate(273,217)"/>
<path d="M0,0 L8,4 L13,6 L17,11 L17,15 L9,15 L3,12 L-1,11 L-4,17 L-5,18 L-14,18 L-18,17 L-19,23 L-24,28 L-30,28 L-34,25 L-37,25 L-41,30 L-45,32 L-45,35 L-50,37 L-55,38 L-57,39 L-66,38 L-68,36 L-68,29 L-80,29 L-84,26 L-84,21 L-81,20 L-81,18 L-70,18 L-68,26 L-65,28 L-56,28 L-50,24 L-48,22 L-40,19 L-36,14 L-32,16 L-22,16 L-18,12 L-17,7 L-6,7 L-2,5 Z " fill="#6A7301" transform="translate(167,153)"/>
<path d="M0,0 L2,0 L3,5 L11,4 L10,8 L8,8 L9,13 L15,16 L14,18 L12,18 L14,22 L-3,25 L-13,30 L-15,34 L-5,35 L-7,37 L-19,43 L-20,48 L-15,50 L-15,58 L-10,61 L-6,63 L-6,74 L2,74 L11,72 L12,73 L21,73 L16,78 L12,84 L3,84 L-5,88 L-5,97 L-4,98 L-3,105 L5,105 L5,114 L10,119 L24,119 L29,121 L36,122 L36,124 L31,126 L26,125 L26,123 L21,124 L9,124 L7,122 L5,121 L5,119 L2,118 L1,115 L2,112 L0,112 L0,110 L-5,109 L-5,106 L-8,106 L-7,98 L-10,97 L-10,88 L-8,86 L-8,83 L-10,75 L-11,75 L-11,68 L-13,63 L-17,61 L-20,59 L-21,51 L-22,49 L-24,48 L-24,42 L-20,39 L-18,35 L-20,34 L-19,30 L-11,23 L-8,24 L-8,22 L-4,21 L-1,22 L-1,20 L8,19 L6,16 L6,13 L3,12 L2,6 L-2,7 L-11,6 L-13,5 L-13,3 L-1,2 Z M3,8 Z M9,18 L10,20 Z M2,20 Z M-23,42 Z M-19,58 Z M-10,65 L-9,68 Z M-8,77 L-7,81 Z M9,122 Z " fill="#1C1B17" transform="translate(32,136)"/>
<path d="M0,0 L2,0 L4,8 L7,10 L7,14 L1,13 L0,27 L-3,37 L-9,46 L-4,49 L-6,54 L-10,55 L-14,65 L-15,79 L-16,81 L-22,81 L-24,87 L-28,91 L-36,95 L-40,95 L-39,106 L-36,110 L-37,115 L-39,114 L-39,109 L-41,107 L-41,94 L-40,93 L-40,86 L-42,86 L-42,76 L-32,77 L-17,79 L-18,73 L-17,59 L-18,29 L-13,27 L-9,34 L-6,22 L-4,2 Z " fill="#6F511F" transform="translate(258,165)"/>
<path d="M0,0 L11,2 L41,10 L55,14 L57,16 L57,24 L54,25 L47,25 L45,23 L50,23 L19,16 L16,15 L16,28 L8,27 L-2,25 L-2,12 L0,11 Z " fill="#662E00" transform="translate(182,178)"/>
<path d="M0,0 L10,0 L11,2 L10,8 L9,8 L9,2 L1,3 L2,4 L2,16 L8,16 L9,12 L12,22 L11,12 L13,16 L14,23 L11,24 L11,35 L12,36 L12,42 L10,44 L9,54 L24,51 L27,49 L35,49 L45,58 L47,70 L49,74 L54,76 L54,77 L48,77 L44,72 L41,62 L33,59 L26,57 L24,55 L17,55 L9,57 L10,61 L8,60 L7,57 L5,60 L4,44 L-3,45 L-4,50 L1,55 L4,56 L3,61 L-4,60 L-2,65 L-6,63 L-7,55 L-7,45 L-5,44 L-5,37 L-6,33 L-5,25 L-3,26 L-4,36 L6,35 L6,28 L7,28 L7,36 L8,32 L8,25 L-2,24 L-3,18 L-3,7 L-1,1 Z " fill="#614013" transform="translate(205,302)"/>
<path d="M0,0 L3,0 L8,9 L4,7 L1,5 L5,10 L5,12 L0,11 L1,16 L-9,12 L-11,12 L-5,16 L-5,17 L-31,22 L-46,26 L-65,30 L-86,36 L-117,44 L-117,46 L-113,52 L-97,55 L-85,55 L-86,59 L-81,61 L-81,62 L-91,62 L-92,60 L-100,59 L-101,58 L-110,58 L-115,56 L-121,49 L-123,43 L-120,42 L-120,40 L-113,39 L-108,37 L-103,36 L-100,35 L-97,36 L-97,34 L-90,33 L-89,31 L-81,30 L-81,29 L-71,28 L-66,26 L-61,25 L-58,24 L-54,23 L-49,22 L-46,23 L-46,21 L-38,20 L-32,17 L-27,17 L-23,16 L-19,17 L-19,15 L-17,15 L-16,13 L-18,12 L-18,10 L-20,9 L-20,6 L-18,6 L-18,4 L-12,5 L-8,8 L-4,9 L-2,7 L-3,3 Z M-4,10 Z M-14,14 Z M-32,18 Z M-85,31 Z M-95,34 Z M-118,40 Z M-120,47 L-119,49 Z M-114,55 Z " fill="#302E26" transform="translate(136,338)"/>
<path d="M0,0 L3,3 L4,20 L5,21 L5,27 L12,27 L11,23 L16,23 L15,6 L10,5 L10,4 L15,4 L17,6 L17,22 L19,22 L20,29 L19,30 L19,43 L20,49 L17,50 L17,67 L19,67 L19,73 L16,74 L6,73 L5,67 L4,45 L3,44 L1,10 Z " fill="#553506" transform="translate(199,229)"/>
<path d="M0,0 L4,2 L12,6 L22,8 L22,14 L24,16 L34,16 L39,14 L41,17 L48,17 L53,15 L54,23 L64,25 L63,32 L58,36 L53,35 L51,34 L50,26 L45,27 L38,29 L36,24 L32,23 L32,25 L28,27 L20,27 L18,26 L18,19 L4,16 L-2,12 L-3,10 L-3,4 Z " fill="#8EA64C" transform="translate(212,137)"/>
<path d="M0,0 L1,2 L3,2 L3,10 L6,13 L13,16 L12,26 L13,27 L22,26 L26,24 L30,25 L37,26 L39,25 L37,29 L36,33 L40,35 L41,42 L29,39 L29,37 L22,37 L18,36 L12,38 L4,38 L3,37 L4,26 L-3,24 L-6,21 L-6,13 L-10,11 L-10,6 L-2,1 Z " fill="#3D3700" transform="translate(22,173)"/>
<path d="M0,0 L3,0 L4,5 L8,7 L2,12 L2,14 L6,16 L5,22 L11,22 L10,24 L10,33 L15,38 L24,37 L30,33 L34,33 L40,36 L45,37 L45,45 L42,48 L33,48 L27,44 L23,43 L18,48 L16,49 L7,49 L4,46 L3,39 L5,36 L5,33 L0,33 L0,27 L-2,26 L-1,23 L3,20 L3,17 L-2,16 L-1,12 L1,6 L-3,5 L-1,1 Z " fill="#8EA64C" transform="translate(307,154)"/>
<path d="M0,0 L7,1 L10,6 L14,8 L11,11 L11,17 L15,20 L20,21 L19,28 L14,33 L6,34 L6,28 L-1,27 L-6,26 L-6,24 L-1,20 L0,16 L-8,14 L-8,10 L-22,11 L-18,7 L-19,2 L-16,3 L-7,3 Z " fill="#3A3500" transform="translate(138,111)"/>
<path d="M0,0 L5,2 L11,6 L15,5 L18,5 L27,7 L25,11 L22,14 L24,18 L30,21 L29,24 L27,25 L28,28 L32,31 L23,33 L9,33 L10,29 L2,30 L4,25 L3,20 L2,4 Z M22,20 Z M22,22 L23,24 Z M24,22 L25,24 Z " fill="#393300" transform="translate(185,93)"/>
<path d="M0,0 L1,2 L13,2 L15,3 L15,6 L18,7 L17,13 L16,15 L22,16 L27,21 L28,30 L27,32 L25,32 L26,36 L24,40 L26,42 L28,46 L28,59 L21,67 L19,67 L17,72 L18,75 L18,87 L15,88 L16,91 L12,95 L7,99 L1,104 L-1,104 L-4,107 L-8,108 L-12,112 L-17,116 L-17,110 L-2,100 L8,93 L13,87 L13,74 L12,68 L21,61 L25,54 L25,48 L22,45 L14,44 L20,37 L23,29 L22,22 L21,21 L10,21 L4,23 L10,15 L13,10 L12,7 L9,6 L-6,6 L-1,1 Z M15,12 Z M14,14 Z M13,15 L13,17 L20,17 L20,16 Z M25,21 Z M23,37 Z M21,40 Z M15,69 L16,71 Z " fill="#36352B" transform="translate(372,129)"/>
<path d="M0,0 L2,1 L0,4 L1,8 L5,10 L1,13 L-7,17 L-23,25 L-31,29 L-35,28 L-37,26 L-37,11 L-29,9 L-25,3 L-20,8 L-11,8 L-2,2 L0,2 Z " fill="#8FA750" transform="translate(303,164)"/>
<path d="M0,0 L2,1 L2,20 L21,23 L24,24 L25,43 L25,58 L23,58 L25,64 L25,81 L23,80 L23,65 L21,62 L22,57 L24,57 L24,52 L22,52 L20,37 L21,34 L17,32 L6,25 L-9,16 L-20,7 L-20,5 Z " fill="#612B00" transform="translate(177,215)"/>
<path d="M0,0 L3,4 L9,5 L9,15 L6,34 L4,38 L0,31 L-1,23 L-11,20 L-18,18 L-13,8 L-10,5 L-14,3 L-3,2 Z " fill="#8DA34D" transform="translate(245,163)"/>
<path d="M0,0 L5,2 L15,9 L26,18 L32,19 L32,15 L35,14 L37,12 L39,18 L38,25 L36,28 L27,28 L18,25 L10,25 L9,28 L0,33 L-7,33 L-7,31 L-4,30 L-5,25 L6,23 L15,20 L11,14 L4,8 L1,3 Z " fill="#6F4E1D" transform="translate(100,202)"/>
<path d="M0,0 L4,1 L4,28 L3,30 L1,30 L1,43 L1,47 L1,53 L-1,53 L-2,61 L-3,61 L-4,53 L-9,55 L-9,34 L-8,20 L-5,15 L-3,1 L-1,4 L1,7 L1,22 L2,23 L1,6 L0,5 Z " fill="#6B4D1E" transform="translate(200,273)"/>
<path d="M0,0 L6,4 L9,9 L13,12 L18,14 L26,15 L27,17 L28,22 L29,24 L20,24 L10,20 L0,13 L0,17 L-3,18 L-19,18 L-19,16 L-15,16 L-16,9 L-19,4 L-3,5 L0,5 Z " fill="#6A7304" transform="translate(201,142)"/>
<path d="M0,0 L2,0 L4,7 L10,6 L16,2 L18,4 L23,6 L28,12 L35,31 L35,41 L34,41 L33,56 L28,64 L21,72 L18,77 L13,79 L14,76 L16,76 L15,72 L18,69 L18,67 L24,63 L27,57 L28,51 L29,48 L29,37 L30,36 L29,31 L30,29 L28,28 L24,19 L23,13 L21,13 L19,9 L17,8 L17,6 L14,6 L13,9 L10,11 L8,10 L8,12 L2,12 L-1,9 L-2,5 L0,5 L-1,1 Z M25,17 L26,19 Z M27,23 L28,25 Z M27,58 L28,60 Z M16,72 Z " fill="#2C2A29" transform="translate(153,261)"/>
<path d="M0,0 L1,0 L3,12 L20,14 L21,34 L0,31 L-1,30 L-1,2 Z " fill="#925700" transform="translate(179,205)"/>
<path d="M0,0 L1,0 L2,7 L6,10 L15,10 L27,3 L32,0 L34,0 L35,8 L32,9 L31,13 L36,12 L35,18 L30,15 L29,19 L20,19 L16,23 L15,25 L10,23 L5,19 L3,14 L2,13 L-7,12 L-5,10 L-1,8 L-1,6 L-9,3 L-9,2 Z " fill="#040200" transform="translate(96,183)"/>
<path d="M0,0 L9,1 L18,4 L69,17 L69,22 L53,19 L12,9 L4,7 L-2,8 L-12,12 L-11,7 Z " fill="#693000" transform="translate(174,169)"/>
<path d="M0,0 L3,0 L5,3 L6,11 L14,10 L13,18 L16,23 L20,25 L33,25 L42,28 L42,30 L39,32 L28,32 L20,31 L12,31 L7,27 L7,20 L8,18 L2,19 L2,17 L-1,17 L-3,9 L-4,8 L-4,3 Z " fill="#555600" transform="translate(32,223)"/>
<path d="M0,0 L2,0 L5,4 L4,6 L0,12 L-2,14 L-6,18 L-9,21 L-9,23 L-7,24 L-6,21 L2,22 L0,31 L-1,32 L-8,32 L-11,30 L-5,26 L-15,29 L-14,26 L-18,25 L-6,12 L-3,8 L-21,26 L-30,25 L-49,21 L-49,19 L-41,18 L-41,20 L-35,19 L-32,20 L-32,22 L-27,21 L-23,21 L-17,17 L-9,9 L-4,3 L-2,3 Z M-1,10 Z M-5,15 Z M-22,21 Z M-24,23 Z " fill="#191811" transform="translate(347,327)"/>
<path d="M0,0 L11,2 L34,7 L37,9 L28,8 L20,7 L20,16 L-1,23 L-1,14 L-3,13 L0,13 Z " fill="#090100" transform="translate(198,193)"/>
<path d="M0,0 L4,2 L8,5 L8,8 L5,11 L6,15 L7,16 L7,21 L11,22 L10,24 L-17,17 L-18,15 L-16,14 L-16,8 L-18,4 L0,4 Z " fill="#040200" transform="translate(201,155)"/>
<path d="M0,0 L5,2 L6,7 L20,7 L22,6 L22,11 L23,12 L30,13 L29,15 L22,17 L20,14 L6,14 L2,11 L1,8 L-1,11 L-10,11 L-11,9 L-14,8 L-14,11 L-20,11 L-22,9 L-25,12 L-27,13 L-33,13 L-37,11 L-37,9 L-41,8 L-43,10 L-48,9 L-43,4 L-39,1 L-35,7 L-33,8 L-27,8 L-20,3 L-19,6 L-15,7 L-15,3 L-11,5 L-9,6 L-2,6 Z M-41,6 Z M-44,8 Z M3,10 Z M18,11 Z M14,12 Z " fill="#161410" transform="translate(117,251)"/>
<path d="M0,0 L10,0 L12,1 L12,3 L-1,5 L-1,8 L2,11 L-7,13 L-11,17 L-11,21 L1,21 L-3,24 L-6,26 L-6,30 L-16,30 L-16,33 L-9,36 L-4,37 L-7,39 L-14,42 L-14,47 L-20,53 L-23,53 L-22,41 L-26,40 L-18,40 L-16,41 L-16,37 L-18,36 L-18,34 L-21,34 L-21,29 L-17,26 L-14,27 L-13,24 L-15,22 L-14,20 L-16,20 L-15,14 L-12,14 L-12,12 L-10,12 L-10,10 L-7,10 L-6,5 L-4,5 L-2,1 L0,2 Z M-5,8 Z M-11,24 Z M-13,25 L-13,27 L-10,26 Z M-19,41 L-18,45 Z M-19,46 Z " fill="#25221B" transform="translate(143,11)"/>
<path d="M0,0 L2,1 L2,14 L1,16 L-5,16 L-7,22 L-11,26 L-19,30 L-23,30 L-22,41 L-19,45 L-20,50 L-22,49 L-22,44 L-24,42 L-24,29 L-23,28 L-23,21 L-25,21 L-25,11 L-15,12 L0,14 L-1,8 Z " fill="#040100" transform="translate(241,230)"/>
<path d="M0,0 L4,2 L5,7 L13,6 L15,10 L15,13 L32,13 L42,10 L46,11 L49,12 L59,12 L60,7 L64,7 L66,9 L76,9 L83,8 L81,12 L79,12 L76,13 L65,13 L63,11 L59,15 L50,16 L46,15 L39,15 L31,17 L17,17 L13,15 L10,9 L3,9 L2,4 L0,4 L-1,7 L-14,7 L-13,4 L-3,4 Z " fill="#83963B" transform="translate(32,132)"/>
<path d="M0,0 L5,2 L6,4 L7,19 L11,18 L10,20 L7,20 L7,24 L1,24 L-10,15 L-15,11 L-11,5 L-9,4 L-1,4 Z M-6,11 Z M-3,12 L-2,14 L0,12 Z M-6,13 Z " fill="#15110D" transform="translate(125,197)"/>
<path d="M0,0 L1,3 L7,3 L13,8 L13,15 L10,21 L16,23 L17,26 L21,28 L22,33 L22,36 L20,43 L15,48 L15,52 L17,54 L17,60 L21,63 L19,67 L17,66 L6,65 L11,61 L12,60 L12,53 L9,49 L16,41 L18,36 L17,30 L12,26 L3,22 L8,15 L8,9 L4,7 L-7,6 L-3,2 Z M8,19 Z M14,23 Z " fill="#1D1C10" transform="translate(350,55)"/>
<path d="M0,0 L5,0 L1,3 L-2,5 L-2,7 L4,10 L4,17 L0,22 L-9,24 L-15,25 L-13,15 L-9,2 L-8,1 Z " fill="#050400" transform="translate(276,230)"/>
<path d="M0,0 L2,0 L2,2 L5,3 L9,8 L13,14 L17,20 L20,25 L24,29 L23,32 L29,32 L33,30 L36,29 L39,26 L41,28 L41,30 L34,35 L25,39 L17,28 L10,17 L2,5 L8,16 L12,22 L12,24 L7,23 L5,19 L4,16 L0,12 L1,9 L-3,7 L-3,3 L-1,3 Z M-2,5 L-1,7 Z M25,33 L26,35 Z M27,33 Z " fill="#211F19" transform="translate(124,311)"/>
<path d="M0,0 L7,6 L13,5 L20,7 L20,2 L27,3 L38,6 L40,8 L40,16 L37,17 L30,17 L28,15 L33,15 L2,8 L-2,6 Z " fill="#6B3100" transform="translate(199,186)"/>
<path d="M0,0 L7,4 L3,8 L-4,12 L-4,15 L5,11 L9,12 L-21,26 L-23,26 L-23,24 L-19,22 L-18,19 L-25,21 L-25,18 L-19,14 L-17,8 L-4,7 L-1,3 Z " fill="#0E0300" transform="translate(167,165)"/>
<path d="M0,0 L4,2 L5,7 L2,8 L2,28 L1,28 L0,22 L-2,21 L-16,21 L-20,27 L-22,29 L-36,33 L-46,32 L-56,28 L-57,25 L-48,28 L-42,30 L-34,29 L-28,26 L-21,25 L-17,17 L-11,14 L-6,13 L1,13 L-1,6 L-1,1 Z " fill="#6C4E1E" transform="translate(195,338)"/>
<path d="M0,0 L7,1 L10,6 L14,8 L12,10 L4,11 L1,13 L0,16 L-8,14 L-8,10 L-22,11 L-18,7 L-19,2 L-16,3 L-7,3 Z " fill="#060500" transform="translate(138,111)"/>
<path d="M0,0 L1,0 L1,16 L-1,26 L-6,34 L-11,37 L-13,40 L-32,45 L-35,44 L-25,39 L-22,35 L-20,31 L-17,32 L-19,35 L-15,34 L-13,29 L-6,21 L-1,13 Z " fill="#6F5021" transform="translate(186,304)"/>
<path d="M0,0 L3,1 L2,2 L1,12 L16,9 L19,7 L27,7 L37,16 L39,28 L41,32 L46,34 L46,35 L40,35 L36,30 L33,20 L25,17 L18,15 L16,13 L9,13 L1,15 L2,19 L0,18 Z " fill="#6A4C1D" transform="translate(213,344)"/>
<path d="M0,0 L3,0 L8,9 L4,7 L1,5 L5,10 L5,12 L0,11 L1,16 L-9,12 L-11,12 L-5,16 L-5,17 L-26,21 L-31,21 L-30,19 L-32,17 L-27,17 L-23,16 L-19,17 L-19,15 L-17,15 L-16,13 L-18,12 L-18,10 L-20,9 L-20,6 L-18,6 L-18,4 L-12,5 L-8,8 L-4,9 L-2,7 L-3,3 Z M-4,10 Z M-14,14 Z " fill="#28251E" transform="translate(136,338)"/>
<path d="M0,0 L1,0 L2,24 L0,30 L0,47 L9,47 L11,46 L11,59 L8,58 L-2,59 L-2,49 L-3,48 L-3,59 L-2,60 L-2,67 L-5,68 L-5,82 L-6,82 L-6,67 L-4,66 L-5,61 L-5,49 L-4,47 L-2,47 L-2,41 L-4,40 L-3,37 L-2,24 L0,24 Z " fill="#A28860" transform="translate(203,279)"/>
<path d="M0,0 L9,1 L12,2 L13,8 L13,19 L12,21 L9,21 L9,23 L2,23 L0,16 Z " fill="#0A0200" transform="translate(202,233)"/>
<path d="M0,0 L5,2 L11,6 L15,5 L18,5 L27,7 L25,11 L21,12 L19,10 L14,10 L12,15 L15,19 L15,21 L9,24 L8,28 L5,28 L4,21 L3,20 L2,4 Z " fill="#070600" transform="translate(185,93)"/>
<path d="M0,0 L8,1 L11,3 L18,4 L19,17 L11,16 L0,14 L-1,1 Z " fill="#945A00" transform="translate(218,199)"/>
<path d="M0,0 L5,3 L11,10 L11,12 L-2,17 L-10,17 L-11,16 L-22,15 L-21,10 L-16,7 L-12,9 L-5,9 L1,6 Z " fill="#050300" transform="translate(104,210)"/>
<path d="M0,0 L9,0 L27,12 L32,16 L30,20 L28,20 L26,13 L19,15 L12,17 L10,11 L6,10 L0,13 L-5,13 L-6,11 L1,9 L0,4 L-1,1 Z " fill="#040200" transform="translate(132,243)"/>
<path d="M0,0 L14,1 L23,3 L24,22 L24,37 L22,37 L24,43 L24,60 L22,59 L22,44 L20,41 L21,36 L23,36 L23,31 L21,31 L19,16 L20,13 L16,11 L5,4 Z " fill="#0B0400" transform="translate(178,236)"/>
<path d="M0,0 L2,0 L2,3 L0,3 L0,6 L7,7 L5,9 L-12,17 L-25,26 L-26,27 L-26,33 L-14,39 L-16,40 L-16,42 L-20,41 L-24,40 L-26,38 L-30,35 L-30,25 L-26,23 L-25,21 L-21,20 L-20,17 L-13,13 L-11,12 L-7,9 L-4,7 L-4,2 Z M-4,8 Z M-16,15 Z " fill="#1B1912" transform="translate(30,101)"/>
<path d="M0,0 L2,0 L3,5 L3,14 L5,14 L5,18 L12,20 L15,22 L15,24 L20,26 L22,28 L27,30 L35,37 L38,41 L43,43 L43,44 L35,44 L28,36 L16,29 L10,24 L1,21 L0,13 Z M9,20 Z M25,30 Z " fill="#1F1C19" transform="translate(254,303)"/>
<path d="M0,0 L5,5 L14,5 L18,4 L20,8 L11,15 L7,17 L0,16 L-4,9 L-6,7 L-2,5 Z " fill="#8EA74D" transform="translate(283,154)"/>
<path d="M0,0 L9,5 L14,6 L18,5 L25,8 L25,16 L23,16 L21,12 L18,11 L16,18 L7,16 L3,14 L2,2 L0,2 Z " fill="#7C8D2E" transform="translate(198,80)"/>
<path d="M0,0 L2,0 L2,4 L12,4 L18,5 L15,7 L3,5 L3,14 L-2,14 L-3,13 L-11,13 L-16,11 L-18,6 L-5,2 L-5,1 Z " fill="#2C0200" transform="translate(217,221)"/>
<path d="M0,0 L6,4 L9,9 L13,12 L18,14 L26,15 L27,17 L26,22 L17,21 L5,14 L0,10 L-3,9 L-2,5 L0,5 Z " fill="#6A7302" transform="translate(201,142)"/>
<path d="M0,0 L4,1 L13,1 L8,6 L4,12 L-5,12 L-9,13 L-9,11 L-13,10 L-16,11 L-15,6 L-13,6 L-10,3 Z " fill="#3B3500" transform="translate(40,208)"/>
<path d="M0,0 L7,0 L12,1 L13,4 L13,16 L2,16 L0,9 Z " fill="#593F19" transform="translate(203,257)"/>
<path d="M0,0 L4,0 L4,2 L7,3 L8,6 L27,6 L29,7 L29,9 L33,8 L38,14 L38,22 L35,25 L34,29 L30,29 L31,23 L33,21 L33,14 L27,11 L5,10 L4,4 L-1,5 Z " fill="#2E2B25" transform="translate(321,29)"/>
<path d="M0,0 L5,1 L4,4 L-1,7 L18,8 L18,14 L11,24 L11,31 L19,34 L25,36 L29,40 L36,42 L36,43 L29,43 L22,37 L12,35 L7,30 L8,25 L15,14 L16,11 L-4,10 L-4,6 L1,3 L-10,3 L-10,1 Z " fill="#8AA046" transform="translate(278,228)"/>
<path d="M0,0 L3,3 L4,20 L5,21 L5,27 L12,27 L11,23 L16,23 L15,6 L10,5 L10,4 L15,4 L17,6 L17,22 L19,22 L20,29 L19,30 L19,44 L17,44 L16,29 L4,28 L6,43 L6,50 L5,50 L3,44 L1,10 Z " fill="#BF9F6E" transform="translate(199,229)"/>
<path d="M0,0 L2,0 L1,3 L-4,6 L-6,6 L-5,8 L-1,10 L-1,19 L4,22 L9,24 L7,35 L17,33 L23,31 L25,33 L31,33 L35,31 L37,35 L34,36 L34,38 L31,37 L31,36 L24,36 L20,35 L14,37 L6,37 L5,36 L6,25 L-1,23 L-4,20 L-4,12 L-8,10 L-8,5 Z " fill="#4E4D00" transform="translate(20,174)"/>
<path d="M0,0 L3,3 L7,7 L13,7 L20,2 L21,5 L25,6 L25,2 L29,4 L36,6 L36,9 L30,10 L29,8 L26,7 L26,10 L20,10 L18,8 L15,11 L13,12 L7,12 L3,10 L3,8 L-1,7 L-3,9 L-8,8 L-3,3 Z M-1,5 Z M-4,7 Z " fill="#29271B" transform="translate(77,252)"/>
<path d="M0,0 L2,1 L1,4 L4,5 L6,13 L-8,20 L-21,32 L-25,36 L-23,31 L-15,21 L-5,14 L-1,11 L-8,10 L-8,6 Z " fill="#725320" transform="translate(301,177)"/>
<path d="M0,0 L2,0 L2,2 L8,2 L7,12 L11,16 L0,16 L-4,18 L-6,16 L-3,14 L-2,9 L-11,8 L-7,3 Z " fill="#090801" transform="translate(247,66)"/>
<path d="M0,0 L1,0 L2,9 L-19,16 L-19,7 L-3,1 Z " fill="#310100" transform="translate(216,200)"/>
<path d="M0,0 L8,0 L9,3 L13,4 L15,12 L16,14 L19,13 L20,16 L22,15 L26,11 L29,12 L26,17 L18,25 L17,23 L17,18 L14,16 L6,15 L9,11 L9,5 L0,5 L-3,6 L-3,4 L-5,3 Z M-3,2 Z M11,4 Z M24,13 Z " fill="#2B2822" transform="translate(293,20)"/>
<path d="M0,0 L7,0 L8,2 L8,9 L3,17 L-12,22 L-17,22 L-16,17 L-8,14 L-1,13 L2,9 L2,2 Z " fill="#3C3600" transform="translate(277,238)"/>
<path d="M0,0 L14,2 L13,7 L7,12 L5,13 L-7,13 Z " fill="#6A7303" transform="translate(339,241)"/>
<path d="M0,0 L2,1 L3,11 L0,12 L1,15 L-3,19 L-8,23 L-14,28 L-16,28 L-19,31 L-23,32 L-27,36 L-32,40 L-32,34 L-17,24 L-7,17 L-2,11 L-1,9 Z " fill="#201E13" transform="translate(387,205)"/>
<path d="M0,0 L9,1 L15,2 L15,13 L6,12 L0,11 Z " fill="#965C01" transform="translate(182,205)"/>
<path d="M0,0 L10,0 L12,1 L12,3 L-1,5 L-1,8 L2,11 L-7,13 L-11,17 L-11,21 L1,21 L-3,24 L-8,26 L-13,25 L-15,22 L-14,20 L-16,20 L-15,14 L-12,14 L-12,12 L-10,12 L-10,10 L-7,10 L-6,5 L-4,5 L-2,1 L0,2 Z M-5,8 Z M-11,24 Z " fill="#232113" transform="translate(143,11)"/>
<path d="M0,0 L5,0 L5,2 L10,1 L11,4 L14,3 L19,4 L20,1 L27,1 L27,3 L25,5 L17,8 L15,9 L8,5 L-2,5 L-4,6 L-3,11 L4,15 L1,16 L0,18 L-3,18 L-4,15 L-5,13 L-7,12 L-9,10 L-8,4 L-5,1 L0,2 Z M15,5 Z " fill="#28271D" transform="translate(96,48)"/>
<path d="M0,0 L10,0 L10,16 L0,16 Z " fill="#96794C" transform="translate(205,280)"/>
<path d="M0,0 L11,0 L8,7 L2,16 L3,22 L6,24 L6,26 L1,25 L-3,21 L-8,20 L-7,17 L-3,15 L0,9 Z M4,4 L5,7 L6,4 Z M-3,18 Z " fill="#0F0E09" transform="translate(284,238)"/>
<path d="M0,0 L6,1 L10,3 L16,6 L21,7 L25,9 L28,10 L28,12 L33,11 L34,14 L40,14 L40,16 L38,16 L38,18 L28,15 L7,7 L-3,3 L-4,1 Z M2,1 Z M9,4 Z M11,5 Z M26,10 Z M32,12 Z " fill="#2C2B23" transform="translate(351,357)"/>
<path d="M0,0 L5,0 L5,2 L1,4 L-5,11 L-8,17 L-20,17 L-23,24 L-31,27 L-32,23 L-29,24 L-27,19 L-24,18 L-24,15 L-22,15 L-21,13 L-19,14 L-19,12 L-10,12 L-8,6 L-4,4 Z M-2,2 Z M-26,19 L-25,22 Z M-28,22 Z " fill="#27231F" transform="translate(63,76)"/>
<path d="M0,0 L5,1 L6,14 L-2,13 L-9,12 L-10,11 L-10,3 L0,3 Z " fill="#955A00" transform="translate(192,192)"/>
<path d="M0,0 L23,2 L23,3 L16,5 L9,16 L6,14 L9,8 L6,10 L5,12 L1,12 L1,3 Z " fill="#3E3800" transform="translate(218,165)"/>
<path d="M0,0 L2,0 L4,7 L10,6 L16,2 L26,11 L29,19 L25,19 L23,16 L22,13 L17,8 L17,6 L14,6 L13,9 L10,11 L8,10 L8,12 L2,12 L-1,9 L-2,5 L0,5 L-1,1 Z " fill="#13100D" transform="translate(153,261)"/>
<path d="M0,0 L22,3 L25,4 L25,9 L10,8 L0,6 Z " fill="#945A01" transform="translate(216,235)"/>
<path d="M0,0 L13,2 L15,5 L15,11 L2,10 L0,9 Z " fill="#955B00" transform="translate(223,226)"/>
<path d="M0,0 L9,1 L46,10 L55,12 L54,15 L35,10 L4,2 L1,1 L1,12 L4,13 L-4,13 L-4,18 L-5,18 L-5,13 L-10,14 L-8,12 L-1,10 Z " fill="#120400" transform="translate(181,177)"/>
<path d="M0,0 L2,0 L3,5 L11,4 L10,8 L8,8 L9,13 L11,14 L10,18 L9,20 L2,20 L2,19 L8,19 L6,16 L6,13 L3,12 L2,6 L-2,7 L-11,6 L-13,5 L-13,3 L-1,2 Z M3,8 Z " fill="#2C2B22" transform="translate(32,136)"/>
<path d="M0,0 L7,0 L5,6 L1,10 L-7,14 L-11,14 L-10,25 L-7,29 L-8,34 L-10,33 L-10,28 L-12,26 L-12,13 L-5,8 Z " fill="#5F441A" transform="translate(229,246)"/>
<path d="M0,0 L3,0 L4,7 L5,7 L4,20 L1,21 L-19,18 L-17,17 L-17,8 L-14,8 L-14,17 L1,19 L-1,11 L-4,9 L0,9 Z " fill="#703701" transform="translate(237,218)"/>
<path d="M0,0 L7,6 L13,5 L20,7 L20,2 L22,2 L22,6 L25,6 L26,13 L7,9 L-2,6 Z " fill="#915700" transform="translate(199,186)"/>
<path d="M0,0 L6,0 L7,2 L10,3 L10,1 L16,2 L19,6 L19,8 L22,8 L21,14 L18,14 L15,9 L13,6 L9,7 L6,9 L5,4 L-2,6 L-4,5 L-3,2 Z M17,6 Z M18,8 Z M20,11 Z " fill="#222019" transform="translate(233,20)"/>
<path d="M0,0 L2,1 L2,3 L8,3 L8,4 L0,5 L-4,11 L-6,13 L-20,17 L-30,16 L-40,12 L-41,9 L-32,12 L-26,14 L-18,13 L-12,10 L-5,9 L-1,1 Z " fill="#745623" transform="translate(179,354)"/>
<path d="M0,0 L1,0 L2,24 L0,30 L0,47 L-3,48 L-3,59 L-2,60 L-2,67 L-5,68 L-5,82 L-6,82 L-6,67 L-4,66 L-5,61 L-5,49 L-4,47 L-2,47 L-2,41 L-4,40 L-3,37 L-2,24 L0,24 Z " fill="#DDCEB5" transform="translate(203,279)"/>
<path d="M0,0 L4,1 L4,10 L-2,10 L-9,9 L-9,15 L-15,12 L-12,6 L-9,4 L-1,4 Z " fill="#3E3800" transform="translate(125,197)"/>
<path d="M0,0 L1,3 L7,3 L13,8 L13,15 L10,21 L10,24 L4,23 L4,20 L8,15 L8,9 L4,7 L-7,6 L-3,2 Z M8,19 Z " fill="#313227" transform="translate(350,55)"/>
<path d="M0,0 L4,2 L7,4 L21,4 L26,6 L33,7 L33,9 L28,11 L23,10 L23,8 L18,9 L6,9 L4,7 L2,6 L2,4 L-1,3 Z M6,7 Z " fill="#23211A" transform="translate(35,251)"/>
<path d="M0,0 L4,1 L18,10 L24,12 L30,12 L32,15 L23,15 L13,11 L3,4 L3,8 L0,9 L-10,9 L-11,7 L0,6 L-1,1 Z " fill="#7A8A2E" transform="translate(198,151)"/>
<path d="M0,0 L7,3 L5,8 L7,11 L4,15 L4,17 L-1,16 L-3,10 L-4,6 L-2,3 L0,3 Z " fill="#3C3600" transform="translate(209,160)"/>
<path d="M0,0 L6,2 L14,7 L13,10 L11,11 L12,14 L16,17 L8,18 L5,13 L0,12 L3,9 L3,4 Z M6,6 Z M6,8 L7,10 Z M8,8 L9,10 Z " fill="#0C0C03" transform="translate(201,107)"/>
<path d="M0,0 L4,1 L16,7 L27,9 L25,11 L12,11 L4,7 L0,5 L-4,7 Z " fill="#71511E" transform="translate(268,359)"/>
<path d="M0,0 L2,0 L5,4 L4,6 L0,12 L-2,14 L-6,18 L-10,19 L-14,22 L-12,18 L-2,8 L-6,9 L-8,9 L-6,5 L-2,3 Z M-5,6 Z M-6,7 Z M-1,10 Z M-5,15 Z " fill="#211E18" transform="translate(347,327)"/>
<path d="M0,0 L5,0 L4,7 L0,13 L-7,21 L-10,26 L-15,28 L-14,25 L-12,25 L-13,21 L-10,18 L-10,16 L-4,12 L-1,6 Z M-1,7 L0,9 Z M-12,21 Z " fill="#1D1914" transform="translate(181,312)"/>
<path d="M0,0 L5,2 L13,9 L24,13 L25,15 L12,15 L2,5 L2,3 L0,3 Z " fill="#725420" transform="translate(256,331)"/>
<path d="M0,0 L11,0 L9,1 L8,5 L4,6 L6,6 L11,5 L10,10 L0,13 L0,7 L-1,4 Z " fill="#0A0801" transform="translate(150,173)"/>
<path d="M0,0 L4,5 L9,9 L4,13 L-2,13 L-5,10 L-5,5 L-2,2 L0,2 Z " fill="#545500" transform="translate(86,244)"/>
<path d="M0,0 L5,0 L10,5 L15,6 L14,13 L10,15 L7,12 L4,10 L6,9 L6,6 L2,5 L-1,6 L-1,1 Z " fill="#020100" transform="translate(143,126)"/>
<path d="M0,0 L1,0 L1,15 L0,13 L-4,12 L-9,7 L-8,2 L-7,1 Z " fill="#9E8054" transform="translate(209,345)"/>
<path d="M0,0 L5,0 L1,1 L1,5 L13,5 L8,14 L3,17 L2,10 L0,10 Z " fill="#390E03" transform="translate(216,241)"/>
<path d="M0,0 L2,1 L-5,7 L-7,11 L-13,10 L-18,6 L-8,1 Z " fill="#070500" transform="translate(51,209)"/>
<path d="M0,0 L9,0 L20,2 L21,4 L13,3 L8,2 L8,13 L18,14 L23,15 L23,16 L12,15 L8,14 L8,27 L7,27 L6,1 L-9,5 L-13,4 Z " fill="#411B00" transform="translate(174,203)"/>
<path d="M0,0 L4,0 L3,4 L-4,10 L-11,13 L-11,4 Z " fill="#8EA74D" transform="translate(351,127)"/>
<path d="M0,0 L3,0 L8,9 L4,7 L1,5 L5,10 L5,12 L0,11 L1,16 L-7,13 L-8,10 L-2,8 L-3,3 Z M-4,10 Z " fill="#0C0B04" transform="translate(136,338)"/>
<path d="M0,0 L2,0 L3,3 L-2,8 L-7,9 L-8,11 L-12,12 L-22,12 L-24,9 L-22,9 L-22,7 L-12,7 L-5,5 Z M-22,10 Z " fill="#313128" transform="translate(353,248)"/>
<path d="M0,0 L2,4 L-5,12 L-7,12 L-9,17 L-8,20 L-10,22 L-11,30 L-12,30 L-13,19 L-14,13 L-5,6 Z M-11,14 L-10,16 Z " fill="#1A1913" transform="translate(398,184)"/>
<path d="M0,0 L3,2 L14,2 L19,0 L17,4 L15,9 L10,7 L2,7 L-5,10 L-5,5 L-1,4 Z " fill="#070500" transform="translate(94,142)"/>
<path d="M0,0 L2,1 L2,23 L0,23 L2,29 L2,46 L0,45 L0,30 L-2,27 L-1,22 L1,22 L1,17 L-1,17 L-3,2 Z " fill="#361E06" transform="translate(200,250)"/>
<path d="M0,0 L3,0 L1,6 L3,8 L5,12 L5,23 L2,22 L2,14 L-1,11 L-9,10 L-3,3 Z M0,3 Z M-2,6 Z " fill="#1D1B14" transform="translate(395,163)"/>
<path d="M0,0 L2,0 L3,6 L5,10 L5,14 L-6,12 L-6,8 Z " fill="#6A7305" transform="translate(236,170)"/>
<path d="M0,0 L5,2 L6,5 L10,7 L11,12 L11,15 L9,22 L5,26 L4,21 L7,15 L6,9 L1,5 L-2,3 Z M3,2 Z " fill="#282720" transform="translate(361,76)"/>
<path d="M0,0 L3,0 L7,2 L9,3 L9,5 L14,5 L14,8 L18,7 L17,11 L14,12 L11,9 L5,10 L1,11 L5,4 L-5,5 Z " fill="#191811" transform="translate(213,17)"/>
<path d="M0,0 L10,0 L11,2 L10,8 L9,8 L9,2 L1,3 L2,4 L2,16 L-2,16 L-3,7 L-1,1 Z " fill="#614821" transform="translate(205,302)"/>
<path d="M0,0 L4,5 L5,9 L-1,19 L-2,19 L-4,2 Z " fill="#6A7203" transform="translate(244,192)"/>
<path d="M0,0 L6,1 L10,4 L12,4 L12,6 L10,6 L9,8 L6,7 L5,11 L2,12 L2,9 L0,8 L0,6 L-2,5 L-2,2 L0,2 Z " fill="#33302B" transform="translate(118,342)"/>
<path d="M0,0 L9,1 L12,2 L12,8 L1,6 L1,16 L0,16 Z " fill="#8D590E" transform="translate(202,233)"/>
<path d="M0,0 L7,4 L3,8 L-13,16 L-14,13 L-9,12 L-8,9 L-2,5 Z " fill="#060200" transform="translate(167,165)"/>
<path d="M0,0 L4,2 L8,7 L15,26 L15,36 L14,36 L13,27 L11,20 L9,20 L9,22 L7,22 L5,14 L8,13 L4,5 Z M7,18 L8,20 Z " fill="#6C5027" transform="translate(173,266)"/>
<path d="M0,0 L3,3 L4,20 L5,21 L5,37 L6,50 L5,50 L3,44 L1,10 Z " fill="#DAC9AE" transform="translate(199,229)"/>
<path d="M0,0 L3,1 L4,14 L2,14 L3,19 L0,20 L1,23 L-2,25 L-6,24 L-3,21 L-1,16 L0,2 Z " fill="#100F0A" transform="translate(395,375)"/>
<path d="M0,0 L6,0 L10,4 L15,4 L16,7 L20,8 L21,13 L19,15 L17,14 L16,10 L7,6 L3,2 Z M7,2 Z " fill="#26241D" transform="translate(195,4)"/>
<path d="M0,0 L4,2 L1,3 L3,7 L-14,10 L-19,11 L-18,8 L-12,7 L-12,5 L-1,5 Z " fill="#110D09" transform="translate(43,151)"/>
<path d="M0,0 L5,2 L4,4 L2,4 L3,8 L7,11 L0,12 L-6,9 L-4,5 Z " fill="#8EA64D" transform="translate(215,100)"/>
<path d="M0,0 L1,0 L1,11 L0,13 L-3,13 L-3,15 L-10,15 L-10,10 L-8,8 L-1,9 L-1,7 L-10,8 L-10,6 L0,6 Z " fill="#3F210B" transform="translate(214,241)"/>
<path d="M0,0 L4,4 L14,19 L16,24 L11,24 L7,28 L7,24 L9,22 L7,20 L11,20 L0,2 Z " fill="#6E7810" transform="translate(125,315)"/>
<path d="M0,0 L4,2 L4,7 L3,8 L-3,8 L-6,6 L-10,6 L-12,8 L-12,4 L-6,1 L-2,3 L0,3 Z " fill="#545500" transform="translate(111,247)"/>
<path d="M0,0 L4,2 L7,4 L13,5 L13,7 L5,7 L-2,10 L-5,10 L-6,6 L-1,3 Z " fill="#829538" transform="translate(133,105)"/>
<path d="M0,0 L3,1 L3,4 L1,5 L2,10 L9,14 L6,15 L5,17 L2,17 L1,14 L0,12 L-2,11 L-4,9 L-3,3 Z " fill="#2E2D28" transform="translate(91,49)"/>
<path d="M0,0 L2,0 L2,6 L-1,7 L-11,6 L-11,1 Z " fill="#975C06" transform="translate(216,296)"/>
<path d="M0,0 L5,2 L13,8 L12,13 L9,15 L3,5 Z " fill="#997B4E" transform="translate(182,243)"/>
<path d="M0,0 L15,0 L14,4 L19,6 L19,7 L9,7 L8,5 L0,4 Z " fill="#1E1F12" transform="translate(36,393)"/>
<path d="M0,0 L2,1 L3,11 L0,12 L1,15 L-3,19 L-6,21 L-9,21 L-7,17 L-2,11 L-1,9 Z " fill="#1E1C19" transform="translate(387,205)"/>
<path d="M0,0 L6,5 L9,6 L8,11 L1,10 L3,15 L-1,13 Z " fill="#715A27" transform="translate(200,352)"/>
<path d="M0,0 L2,0 L12,16 L12,18 L7,17 L5,13 L4,10 L0,6 L1,3 L-1,2 Z " fill="#201D16" transform="translate(124,317)"/>
<path d="M0,0 L7,2 L8,5 L3,8 L-4,7 L-3,2 Z " fill="#545500" transform="translate(95,210)"/>
<path d="M0,0 L2,0 L2,11 L6,13 L4,13 L2,17 L1,15 L-1,18 L-2,12 L-3,12 L-3,6 Z " fill="#1C1915" transform="translate(24,199)"/>
<path d="M0,0 L3,0 L3,2 L9,1 L12,2 L12,4 L17,3 L17,5 L15,6 L5,5 L-5,3 L-5,1 Z " fill="#33302A" transform="translate(303,345)"/>
<path d="M0,0 L4,1 L4,28 L3,30 L0,30 L0,23 L2,23 L1,6 L0,5 Z " fill="#815B34" transform="translate(200,273)"/>
<path d="M0,0 L1,0 L3,6 L15,9 L20,14 L27,16 L27,17 L20,17 L13,11 L3,9 L-1,5 Z " fill="#839947" transform="translate(287,254)"/>
<path d="M0,0 L6,0 L2,4 L-4,7 L-11,7 L-11,5 L-8,4 L-9,2 Z " fill="#5B3A0E" transform="translate(104,228)"/>
<path d="M0,0 L6,0 L7,8 L10,2 L12,5 L10,9 L6,13 L3,13 L4,1 Z " fill="#0C0C02" transform="translate(117,51)"/>
<path d="M0,0 L10,0 L7,1 L10,5 L8,7 L3,6 L-3,3 Z " fill="#88A04D" transform="translate(94,52)"/>
<path d="M0,0 L4,1 L1,6 L-7,14 L-8,12 L-8,4 L-3,5 L-1,1 Z M-1,2 Z " fill="#18170D" transform="translate(318,31)"/>
<path d="M0,0 L10,0 L12,1 L12,3 L-1,5 L0,10 L-4,10 L-4,3 L-2,1 L0,2 Z " fill="#1E1B16" transform="translate(143,11)"/>
<path d="M0,0 L4,2 L5,7 L2,8 L2,28 L1,28 L0,8 L-1,1 Z " fill="#130B02" transform="translate(195,338)"/>
<path d="M0,0 L2,0 L4,7 L10,7 L11,11 L8,10 L8,12 L2,12 L-1,9 L-2,5 L0,5 L-1,1 Z M10,6 Z " fill="#211E1A" transform="translate(153,261)"/>
<path d="M0,0 L1,2 L13,2 L14,5 L12,7 L9,6 L-6,6 L-1,1 Z " fill="#121008" transform="translate(372,129)"/>
<path d="M0,0 L6,2 L6,6 L10,9 L8,13 L3,13 L1,3 Z " fill="#8EA64C" transform="translate(359,173)"/>
<path d="M0,0 L3,1 L6,5 L6,7 L9,7 L8,13 L5,13 L2,8 L-2,3 L0,3 Z M4,5 Z M5,7 Z M7,10 Z " fill="#39372E" transform="translate(246,21)"/>
<path d="M0,0 L0,3 L0,6 L2,7 L3,5 L4,7 L3,9 L-6,12 L-5,9 L-9,8 Z " fill="#181712" transform="translate(338,344)"/>
<path d="M0,0 L5,0 L4,6 L2,9 L-2,8 L-3,3 Z " fill="#6A7303" transform="translate(153,120)"/>
<path d="M0,0 L2,0 L2,3 L0,3 L0,6 L7,7 L5,9 L-5,13 L-4,10 L-2,9 L-4,7 L-4,2 Z " fill="#131109" transform="translate(30,101)"/>
<path d="M0,0 L5,0 L5,2 L1,4 L-5,11 L-9,12 L-10,10 L-7,6 Z M-2,2 Z " fill="#38362D" transform="translate(63,76)"/>
<path d="M0,0 L3,1 L3,14 L-1,15 L-7,14 L-4,12 L0,13 L-1,3 Z " fill="#713B02" transform="translate(237,203)"/>
<path d="M0,0 L1,3 L4,4 L3,10 L2,12 L6,13 L0,13 L-2,14 L-3,10 L-1,5 Z M1,9 Z M0,11 Z M-4,12 Z M-5,13 Z " fill="#2F2D28" transform="translate(386,132)"/>
<path d="M0,0 L2,1 L3,5 L0,11 L0,14 L-6,13 L-6,10 L-1,3 Z M-2,9 Z " fill="#15140E" transform="translate(360,65)"/>
<path d="M0,0 L5,0 L4,3 L6,3 L4,7 L-2,12 L0,7 L2,5 L-2,6 L-5,7 L-3,1 L0,2 Z " fill="#262717" transform="translate(284,21)"/>
<path d="M0,0 L13,1 L14,4 L12,5 L3,5 L-1,3 Z " fill="#3F3C36" transform="translate(23,391)"/>
<path d="M0,0 L4,0 L4,2 L7,3 L8,8 L22,9 L22,10 L5,10 L4,4 L-1,5 Z " fill="#424734" transform="translate(321,29)"/>
<path d="M0,0 L3,3 L5,7 L1,8 L-2,8 L-6,9 L-8,7 Z M-1,5 Z M-4,7 Z " fill="#181613" transform="translate(77,252)"/>
<path d="M0,0 L2,3 L4,14 L6,15 L5,18 L1,19 L0,13 Z " fill="#6D3702" transform="translate(131,197)"/>
<path d="M0,0 L5,1 L14,2 L15,4 L6,5 L2,6 L-1,4 L-6,3 L-5,1 Z " fill="#0F0E0B" transform="translate(69,77)"/>
<path d="M0,0 L1,0 L2,15 L4,19 L12,22 L12,25 L3,22 L0,18 Z " fill="#E9DECB" transform="translate(211,344)"/>
<path d="M0,0 L1,0 L1,6 L2,7 L2,13 L0,13 L-1,21 L-2,21 L-3,6 L-1,5 Z " fill="#5A300A" transform="translate(199,313)"/>
<path d="M0,0 L4,1 L-17,11 L-20,9 L-15,7 L-12,7 L-11,1 L-9,4 Z " fill="#200700" transform="translate(172,176)"/>
<path d="M0,0 L5,2 L11,3 L9,7 L5,8 L3,6 L-2,5 Z " fill="#121204" transform="translate(201,97)"/>
<path d="M0,0 L1,0 L1,11 L2,12 L2,19 L-1,20 L-1,34 L-2,34 L-2,19 L0,18 L-1,13 L-1,1 Z " fill="#E7DCC6" transform="translate(199,327)"/>
<path d="M0,0 L9,1 L9,3 L1,1 L1,12 L4,13 L-4,13 L-4,18 L-5,18 L-5,13 L-10,14 L-8,12 L-1,10 Z " fill="#3C0F00" transform="translate(181,177)"/>
<path d="M0,0 L0,3 L-11,14 L-15,20 L-18,22 L-17,17 Z " fill="#7D9247" transform="translate(345,333)"/>
<path d="M0,0 L2,0 L0,4 L-5,8 L-4,11 L-11,10 L-7,9 L-7,7 L-14,7 L-16,5 L-6,6 L-6,4 Z " fill="#666D20" transform="translate(75,251)"/>
<path d="M0,0 L13,0 L13,4 L11,5 L5,5 L1,3 Z " fill="#3B3833" transform="translate(79,259)"/>
<path d="M0,0 L5,2 L4,5 L0,9 L-2,15 L-4,14 L-4,7 L-2,5 L-1,3 L1,3 Z " fill="#181612" transform="translate(26,217)"/>
<path d="M0,0 L1,3 L0,6 L-12,5 L-11,1 L-2,1 Z " fill="#18160E" transform="translate(55,87)"/>
<path d="M0,0 L5,1 L6,3 L0,3 L2,5 L5,6 L5,9 L0,9 L-2,7 L-2,1 Z " fill="#080604" transform="translate(118,205)"/>
<path d="M0,0 L3,1 L3,3 L6,4 L6,9 L12,10 L12,11 L4,11 L1,10 Z M4,4 Z M4,8 Z M0,10 Z " fill="#585752" transform="translate(370,120)"/>
<path d="M0,0 L3,0 L4,7 L5,7 L5,12 L-4,10 L0,9 Z " fill="#4F2D02" transform="translate(237,218)"/>
<path d="M0,0 L2,1 L1,5 L-9,8 L-9,4 Z " fill="#652D00" transform="translate(159,178)"/>
<path d="M0,0 L7,0 L8,3 L0,6 L-4,1 Z " fill="#3F3900" transform="translate(123,213)"/>
<path d="M0,0 L6,1 L9,4 L9,13 L7,10 L6,4 L4,3 L3,5 L-2,3 L-2,1 Z M2,1 Z " fill="#575653" transform="translate(391,372)"/>
<path d="M0,0 L4,1 L3,3 L-3,8 L-5,8 L-7,10 L-7,6 L-3,2 Z " fill="#1A1911" transform="translate(376,225)"/>
<path d="M0,0 L5,3 L3,7 L1,6 L-10,5 L-10,4 L-4,2 Z " fill="#373627" transform="translate(366,115)"/>
<path d="M0,0 L2,0 L2,3 L6,2 L5,4 L2,4 L2,8 L-4,8 L-6,5 L0,3 Z " fill="#130600" transform="translate(130,213)"/>
<path d="M0,0 L3,1 L0,8 L-5,10 L-11,10 L-11,9 L-6,9 L-6,7 L-2,6 L-1,1 Z " fill="#7D8E30" transform="translate(93,138)"/>
<path d="M0,0 L8,0 L8,3 L6,2 L6,4 L-3,6 L-3,4 L-5,3 Z M-3,2 Z " fill="#3A392E" transform="translate(293,20)"/>
<path d="M0,0 L3,0 L6,9 L11,11 L11,12 L5,12 L1,7 Z " fill="#745322" transform="translate(248,367)"/>
<path d="M0,0 L9,3 L20,6 L20,7 L11,7 L1,3 Z " fill="#71511E" transform="translate(138,363)"/>
<path d="M0,0 L5,1 L6,12 L1,12 L1,3 Z " fill="#211E12" transform="translate(218,165)"/>
<path d="M0,0 L2,1 L-1,4 L-3,7 L-8,9 L-12,11 L-11,7 Z " fill="#6D770F" transform="translate(380,218)"/>
<path d="M0,0 L3,0 L3,13 L0,12 Z " fill="#935800" transform="translate(177,190)"/>
<path d="M0,0 L1,2 L-3,9 L-8,11 L-7,8 L-5,8 L-6,4 L-3,1 Z M-5,4 Z " fill="#0E0B07" transform="translate(174,329)"/>
<path d="M0,0 L2,2 L-2,7 L-4,11 L-5,13 L-7,12 L-7,6 L-3,3 Z M-6,6 Z " fill="#36342B" transform="translate(15,172)"/>
<path d="M0,0 L0,3 L-3,9 L-8,7 L-7,5 L-12,4 L-12,3 L-1,1 Z " fill="#1B1A01" transform="translate(112,142)"/>
<path d="M0,0 L2,0 L2,3 L6,5 L8,9 L4,9 L0,4 Z " fill="#89A14D" transform="translate(86,74)"/>
<path d="M0,0 L2,4 L-1,7 L-2,11 L-6,11 L-5,5 Z " fill="#3C3B35" transform="translate(357,47)"/>
<path d="M0,0 L2,2 L1,4 L-6,6 L-10,5 L-6,1 L-1,1 Z " fill="#292620" transform="translate(74,363)"/>
<path d="M0,0 L2,1 L2,14 L0,14 L-1,1 Z " fill="#6B3000" transform="translate(218,199)"/>
<path d="M0,0 L1,0 L1,8 L3,8 L2,12 L-2,8 L-3,1 Z " fill="#A2C472" transform="translate(262,163)"/>
<path d="M0,0 L2,2 L9,3 L9,4 L-1,6 L-7,8 L-1,1 Z " fill="#0E0E02" transform="translate(383,144)"/>
<path d="M0,0 L6,0 L5,4 L3,4 L3,10 L3,13 L0,11 L0,5 L3,2 Z " fill="#707E2A" transform="translate(148,117)"/>
<path d="M0,0 L6,2 L7,4 L4,11 L3,11 L2,4 Z M2,11 Z " fill="#1C1C12" transform="translate(352,39)"/>
<path d="M0,0 L11,1 L9,2 L8,5 L0,4 Z " fill="#2C2C20" transform="translate(36,393)"/>
<path d="M0,0 L2,1 L3,8 L3,11 L-2,9 L-2,6 Z " fill="#0A0A03" transform="translate(256,27)"/>
<path d="M0,0 L5,4 L11,6 L11,9 L6,8 L0,4 Z " fill="#E3D7C1" transform="translate(198,363)"/>
<path d="M0,0 L4,2 L3,4 L-6,6 L-5,2 Z " fill="#342F2B" transform="translate(275,256)"/>
<path d="M0,0 L10,2 L7,3 L7,5 L0,5 Z " fill="#955B04" transform="translate(204,251)"/>
<path d="M0,0 L3,0 L4,9 L6,10 L1,10 Z " fill="#662E00" transform="translate(218,215)"/>
<path d="M0,0 L13,0 L12,3 L-1,3 Z " fill="#889D42" transform="translate(19,136)"/>
<path d="M0,0 L6,2 L8,4 L8,10 L4,9 L2,3 Z M6,6 Z " fill="#1B1A12" transform="translate(201,107)"/>
<path d="M0,0 L1,3 L5,5 L4,6 L-7,6 L-3,2 Z " fill="#090802" transform="translate(350,55)"/>
<path d="M0,0 L4,4 L11,14 L10,16 L6,12 L0,2 Z " fill="#5E6712" transform="translate(125,315)"/>
<path d="M0,0 L10,1 L9,4 L4,5 L-1,3 L-2,1 Z " fill="#38362A" transform="translate(290,263)"/>
<path d="M0,0 L7,0 L12,1 L10,3 L2,3 L0,7 Z " fill="#1E0A00" transform="translate(203,257)"/>
<path d="M0,0 L3,1 L1,7 L0,8 L-7,8 L-8,6 L-2,5 Z " fill="#6E780F" transform="translate(115,250)"/>
<path d="M0,0 L5,4 L5,7 L-3,7 Z " fill="#545500" transform="translate(126,244)"/>
<path d="M0,0 L2,0 L2,5 L-3,8 L-6,8 L-4,4 Z " fill="#0A0A06" transform="translate(384,218)"/>
<path d="M0,0 L2,0 L3,3 L2,6 L-3,7 L-4,3 Z " fill="#9EBF6B" transform="translate(210,125)"/>
<path d="M0,0 L2,3 L-3,7 L-5,11 L-7,6 Z " fill="#7C8E38" transform="translate(10,122)"/>
<path d="M0,0 L5,1 L1,5 L-4,6 L-5,2 L-1,3 Z " fill="#2D2C23" transform="translate(174,0)"/>
<path d="M0,0 L3,0 L2,3 L0,3 L1,6 L-2,8 L-6,7 L-3,4 L-2,1 Z " fill="#28271D" transform="translate(395,392)"/>
<path d="M0,0 L5,1 L3,4 L0,5 L-7,5 L-3,1 Z " fill="#24221D" transform="translate(93,358)"/>
<path d="M0,0 L2,0 L2,3 L6,4 L5,5 L-2,5 L-5,3 Z " fill="#0B0A05" transform="translate(341,354)"/>
<path d="M0,0 L7,4 L7,5 L-5,6 L-2,3 L0,3 Z " fill="#040301" transform="translate(124,350)"/>
<path d="M0,0 L5,1 L11,6 L11,8 L8,9 L2,2 Z " fill="#0F0E0B" transform="translate(297,265)"/>
<path d="M0,0 L2,1 L2,14 L0,16 L-1,8 Z " fill="#200F02" transform="translate(241,230)"/>
<path d="M0,0 L2,0 L3,3 L6,6 L-4,5 L-4,3 Z " fill="#0F0C02" transform="translate(136,132)"/>
<path d="M0,0 L6,0 L11,3 L8,4 L7,6 L4,6 L3,3 L2,1 Z " fill="#353627" transform="translate(89,60)"/>
<path d="M0,0 L1,2 L7,0 L8,5 L-3,4 L-3,1 L0,2 Z " fill="#100F08" transform="translate(129,36)"/>
<path d="M0,0 L4,1 L5,4 L3,6 L2,14 L1,14 Z " fill="#46482D" transform="translate(385,200)"/>
<path d="M0,0 L2,1 L2,6 L-3,7 L-3,1 Z " fill="#997B4E" transform="translate(142,190)"/>
<path d="M0,0 L1,0 L1,7 L-9,3 L-9,2 Z " fill="#100E02" transform="translate(96,183)"/>
<path d="M0,0 L12,1 L12,2 L5,4 L2,6 L1,4 L-2,2 L0,2 Z " fill="#090600" transform="translate(229,166)"/>
<path d="M0,0 L5,0 L5,3 L5,5 L8,6 L5,7 L0,6 Z " fill="#606638" transform="translate(14,136)"/>
<path d="M0,0 L6,2 L3,5 L-2,6 L-4,4 L-2,4 L-2,1 Z " fill="#707E21" transform="translate(42,96)"/>
<path d="M0,0 L3,0 L3,2 L6,3 L5,4 L-5,3 L-5,1 Z " fill="#14110B" transform="translate(303,345)"/>
<path d="M0,0 L10,0 L11,2 L10,8 L9,8 L9,2 L-1,2 Z " fill="#392818" transform="translate(205,302)"/>
<path d="M0,0 L1,0 L2,8 L-8,8 L-8,7 L-2,7 L-2,2 Z " fill="#95774A" transform="translate(213,264)"/>
<path d="M0,0 L4,1 L-2,4 L-9,4 L-9,2 Z " fill="#1D1700" transform="translate(102,231)"/>
<path d="M0,0 L4,1 L-4,5 L-8,4 L-7,1 Z " fill="#1F1F12" transform="translate(140,32)"/>
<path d="M0,0 L4,1 L4,3 L-3,6 L-5,7 L-5,2 Z " fill="#070603" transform="translate(195,5)"/>
<path d="M0,0 L2,1 L2,3 L8,3 L8,4 L0,5 L-3,9 L-4,7 L-1,1 Z " fill="#795E2A" transform="translate(179,354)"/>
<path d="M0,0 L1,0 L2,7 L3,8 L3,13 L0,13 L0,8 L-3,7 L-1,5 Z " fill="#2F2F1B" transform="translate(25,226)"/>
<path d="M0,0 L9,1 L9,5 L-2,3 L0,2 Z " fill="#A1C470" transform="translate(221,154)"/>
<path d="M0,0 L3,2 L1,5 L5,7 L3,9 L-2,5 Z " fill="#A1C572" transform="translate(208,104)"/>
<path d="M0,0 L2,0 L1,11 L-1,11 L-1,16 L-2,16 L-2,7 L0,7 Z " fill="#3B2B1A" transform="translate(219,296)"/>
<path d="M0,0 L4,1 L3,3 L1,5 L-7,4 L-3,2 Z M0,3 Z " fill="#393733" transform="translate(149,263)"/>
<path d="M0,0 L5,2 L6,4 L-2,5 L-2,1 Z " fill="#623407" transform="translate(135,239)"/>
<path d="M0,0 Z M-2,1 L0,2 L-2,6 L-5,7 L-8,7 L-7,4 Z " fill="#0F0F08" transform="translate(369,230)"/>
<path d="M0,0 L7,0 L9,2 L7,4 L2,3 L0,2 Z " fill="#7C8C2D" transform="translate(95,55)"/>
<path d="M0,0 L4,1 L6,8 L3,8 L1,6 L2,4 L0,4 Z " fill="#35322E" transform="translate(127,27)"/>
<path d="M0,0 L7,0 L6,4 L-3,3 L0,2 Z " fill="#4F2A03" transform="translate(206,323)"/>
<path d="M0,0 L5,0 L4,7 L1,8 L0,6 Z " fill="#262018" transform="translate(181,312)"/>
<path d="M0,0 L2,0 L6,8 L0,6 L1,3 L-1,2 Z " fill="#100F0A" transform="translate(124,317)"/>
<path d="M0,0 L1,3 L10,3 L10,5 L-1,5 Z " fill="#7F4B06" transform="translate(206,274)"/>
<path d="M0,0 L2,0 L3,3 L-2,7 L-5,7 L-3,3 Z " fill="#100F03" transform="translate(353,248)"/>
<path d="M0,0 L2,4 L-3,9 L-4,5 Z " fill="#302E28" transform="translate(398,184)"/>
<path d="M0,0 L8,6 L5,7 L-1,5 Z " fill="#3A3400" transform="translate(186,165)"/>
<path d="M0,0 L5,1 L4,4 L-3,3 L-4,1 Z M2,1 Z " fill="#1F1E19" transform="translate(351,357)"/>
<path d="M0,0 L3,1 L2,7 L-1,7 L-4,7 L-3,2 L-1,2 Z " fill="#363113" transform="translate(28,212)"/>
<path d="M0,0 L3,0 L2,4 L-2,5 L-3,7 L-3,2 Z " fill="#672E00" transform="translate(146,184)"/>
<path d="M0,0 L5,1 L5,7 L3,7 L1,3 L-1,2 Z " fill="#869B3F" transform="translate(41,138)"/>
<path d="M0,0 L6,0 L9,2 L7,6 L3,2 Z M7,2 Z " fill="#56544C" transform="translate(195,4)"/>
<path d="M0,0 L4,2 L5,4 L-3,5 L-2,1 Z " fill="#3C3B32" transform="translate(34,373)"/>
<path d="M0,0 L2,2 L1,4 L-8,7 L-7,4 L-3,2 L0,2 Z " fill="#0C0C05" transform="translate(340,349)"/>
<path d="M0,0 L5,2 L5,4 L3,4 L2,6 L-5,3 L-1,2 Z " fill="#3D3C29" transform="translate(125,344)"/>
<path d="M0,0 L4,2 L3,7 L0,6 Z " fill="#7A3D00" transform="translate(196,339)"/>
<path d="M0,0 L4,2 L3,7 L0,7 L-1,1 Z " fill="#34332D" transform="translate(179,279)"/>
<path d="M0,0 L1,0 L3,6 L10,8 L7,10 L0,7 L-1,5 Z " fill="#81953C" transform="translate(287,254)"/>
<path d="M0,0 L1,0 L0,8 L-3,9 L-4,5 Z M-2,7 Z " fill="#56534F" transform="translate(358,241)"/>
<path d="M0,0 L3,1 L1,6 L-5,7 L-3,2 L0,1 Z " fill="#232019" transform="translate(157,340)"/>
<path d="M0,0 L1,0 L1,8 L0,10 L-2,10 L-3,12 L-3,6 L-1,5 Z " fill="#2E1602" transform="translate(199,313)"/>
<path d="M0,0 L4,1 L4,6 L0,5 Z " fill="#773A03" transform="translate(200,273)"/>
<path d="M0,0 L2,1 L-2,5 L-5,5 L-6,1 Z " fill="#32322A" transform="translate(314,270)"/>
<path d="M0,0 L2,3 L3,10 L1,10 L0,13 Z " fill="#5F2D00" transform="translate(131,197)"/>
<path d="M0,0 L7,0 L5,1 L4,5 L1,5 Z " fill="#444308" transform="translate(154,173)"/>
<path d="M0,0 L4,1 L4,3 L8,4 L2,4 L0,5 L-1,1 Z M2,2 Z M-2,3 Z M-3,4 Z " fill="#41403E" transform="translate(384,141)"/>
<path d="M0,0 L5,1 L7,3 L5,3 L5,5 L1,4 Z " fill="#23211D" transform="translate(9,138)"/>
<path d="M0,0 L5,0 L4,7 L0,2 Z " fill="#3F3A01" transform="translate(153,132)"/>
<path d="M0,0 L2,0 L2,6 L-3,9 L-6,8 L-1,4 Z " fill="#0B0A01" transform="translate(364,110)"/>
<path d="M0,0 L3,2 L0,8 L-4,6 L-2,5 L-2,2 L0,2 Z " fill="#424036" transform="translate(41,89)"/>
<path d="M0,0 L6,2 L10,5 L6,6 L0,1 Z " fill="#6A7413" transform="translate(123,348)"/>
<path d="M0,0 L9,2 L9,4 L-1,4 Z " fill="#82963A" transform="translate(137,108)"/>
<path d="M0,0 L4,2 L4,4 L-1,6 L-4,5 L-1,3 Z " fill="#6C7509" transform="translate(133,105)"/>
<path d="M0,0 L5,0 L6,3 L0,8 L0,4 L2,2 Z " fill="#52504C" transform="translate(132,335)"/>
<path d="M0,0 L4,1 L-1,6 L-2,2 Z " fill="#3A3832" transform="translate(2,124)"/>
<path d="M0,0 L4,1 L3,5 L-2,3 L-2,1 Z " fill="#060503" transform="translate(261,322)"/>
<path d="M0,0 L1,0 L1,8 L-1,11 L-2,2 Z " fill="#866C47" transform="translate(204,307)"/>
<path d="M0,0 L1,0 L1,5 L6,6 L6,8 L1,8 L0,7 Z " fill="#6C7610" transform="translate(28,234)"/>
<path d="M0,0 L2,0 L2,6 L0,7 L-6,6 L-6,5 L0,5 Z " fill="#778628" transform="translate(184,163)"/>
<path d="M0,0 L2,3 L1,7 L-2,8 L-4,6 L-1,4 Z " fill="#1A1A06" transform="translate(245,76)"/>
<path d="M0,0 L6,0 L5,4 L2,5 Z " fill="#040201" transform="translate(225,24)"/>
<path d="M0,0 L4,2 L5,6 L3,7 L0,2 Z " fill="#0F0C02" transform="translate(18,387)"/>
<path d="M0,0 L1,0 L2,13 L1,13 L-1,4 Z " fill="#C6B597" transform="translate(203,266)"/>
<path d="M0,0 L4,1 L3,5 L0,6 Z " fill="#626704" transform="translate(102,212)"/>
<path d="M0,0 L3,0 L2,5 L-1,5 Z " fill="#602900" transform="translate(128,191)"/>
<path d="M0,0 L2,1 L1,5 L-1,6 L-3,5 L-1,1 Z " fill="#21201B" transform="translate(393,190)"/>
<path d="M0,0 L11,0 L12,3 L8,3 L8,1 L0,1 Z " fill="#7C8D2C" transform="translate(51,146)"/>
<path d="M0,0 L2,0 L2,5 L-4,5 Z " fill="#25280D" transform="translate(240,69)"/>
<path d="M0,0 L3,1 L3,3 L6,2 L4,6 L1,4 L1,2 L-1,1 Z " fill="#312E28" transform="translate(104,49)"/>
<path d="M0,0 L2,1 L1,5 L-3,6 L-4,3 L-1,3 Z " fill="#29271E" transform="translate(258,22)"/>
<path d="M0,0 L6,1 L5,4 L0,4 Z " fill="#383735" transform="translate(51,368)"/>
<path d="M0,0 L7,6 L5,8 L0,2 Z " fill="#697315" transform="translate(136,341)"/>
<path d="M0,0 L3,0 L3,2 L6,3 L1,6 Z " fill="#240A02" transform="translate(218,252)"/>
<path d="M0,0 L4,2 L3,6 L2,4 L-1,3 Z " fill="#2C2A24" transform="translate(35,251)"/>
<path d="M0,0 L4,1 L3,3 L-1,6 L-2,3 Z " fill="#302F27" transform="translate(376,225)"/>
<path d="M0,0 L2,2 L0,3 Z M-2,3 L0,4 L-1,7 L-5,6 L-4,4 Z " fill="#26241D" transform="translate(9,118)"/>
<path d="M0,0 L2,0 L4,7 L0,7 Z " fill="#040301" transform="translate(139,14)"/>
<path d="M0,0 L14,0 L14,1 L0,1 Z " fill="#5B5B5B" transform="translate(329,34)"/>
<path d="M0,0 L1,0 L1,12 L0,12 Z " fill="#FFFFFF" transform="translate(257,294)"/>
<path d="M0,0 L8,0 L8,1 L0,1 Z " fill="#FFFFFF" transform="translate(22,143)"/>
<path d="M0,0 L1,0 L1,7 L0,7 Z " fill="#494949" transform="translate(258,308)"/>
<path d="M0,0 L7,0 L7,1 L0,1 Z " fill="#808080" transform="translate(45,260)"/>
<path d="M0,0 L1,0 L1,6 L0,6 Z " fill="#E9E9E9" transform="translate(257,284)"/>
<path d="M0,0 L1,0 L1,5 L0,5 Z " fill="#808080" transform="translate(21,226)"/>
<path d="M0,0 L5,0 L5,1 L0,1 Z " fill="#FFFFFF" transform="translate(14,143)"/>
<path d="M0,0 L1,0 L1,5 L0,5 Z " fill="#808080" transform="translate(367,109)"/>
<path d="M0,0 L4,1 Z " fill="#404040" transform="translate(293,343)"/>
<path d="M0,0 L4,1 Z " fill="#202020" transform="translate(142,268)"/>
<path d="M0,0 L1,4 Z " fill="#606060" transform="translate(7,180)"/>
<path d="M0,0 L1,4 Z " fill="#606060" transform="translate(363,64)"/>
<path d="M0,0 L1,3 L-1,2 Z " fill="#7F7F7F" transform="translate(92,63)"/>
<path d="M0,0 L4,1 Z " fill="#606060" transform="translate(118,48)"/>
<path d="M0,0 L1,4 Z " fill="#808080" transform="translate(359,44)"/>
<path d="M0,0 L3,1 Z " fill="#2A2A2A" transform="translate(113,353)"/>
<path d="M0,0 Z " fill="#2A2A2A" transform="translate(260,271)"/>
<path d="M0,0 L3,1 Z " fill="#555555" transform="translate(297,268)"/>
<path d="M0,0 L3,1 Z " fill="#2A2A2A" transform="translate(110,262)"/>
<path d="M0,0 L3,1 Z " fill="#000000" transform="translate(64,262)"/>
<path d="M0,0 Z " fill="#000000" transform="translate(23,236)"/>
<path d="M0,0 Z " fill="#555555" transform="translate(390,205)"/>
<path d="M0,0 Z " fill="#555555" transform="translate(25,104)"/>
<path d="M0,0 L3,1 Z " fill="#474747" transform="translate(205,7)"/>
<path d="M0,0 L2,1 Z " fill="#000000" transform="translate(42,398)"/>
<path d="M0,0 Z " fill="#000000" transform="translate(398,390)"/>
<path d="M0,0 L2,1 Z " fill="#404040" transform="translate(21,376)"/>
<path d="M0,0 L2,1 Z " fill="#404040" transform="translate(29,374)"/>
<path d="M0,0 L2,1 Z " fill="#FFFFFF" transform="translate(44,370)"/>
<path d="M0,0 L2,1 Z " fill="#000000" transform="translate(63,365)"/>
<path d="M0,0 L2,1 Z " fill="#000000" transform="translate(71,363)"/>
<path d="M0,0 L2,1 Z " fill="#404040" transform="translate(79,361)"/>
<path d="M0,0 L2,1 Z " fill="#404040" transform="translate(87,359)"/>
<path d="M0,0 L2,1 Z " fill="#808080" transform="translate(96,357)"/>
<path d="M0,0 Z " fill="#808080" transform="translate(349,351)"/>
<path d="M0,0 L2,1 Z " fill="#000000" transform="translate(344,347)"/>
<path d="M0,0 Z " fill="#404040" transform="translate(115,345)"/>
<path d="M0,0 L2,1 Z " fill="#404040" transform="translate(307,345)"/>
<path d="M0,0 L2,1 Z " fill="#BFBFBF" transform="translate(155,341)"/>
<path d="M0,0 Z " fill="#404040" transform="translate(258,281)"/>
<path d="M0,0 L2,1 Z " fill="#404040" transform="translate(313,274)"/>
<path d="M0,0 L2,1 Z " fill="#FFFFFF" transform="translate(126,265)"/>
<path d="M0,0 L2,1 Z " fill="#000000" transform="translate(276,260)"/>
<path d="M0,0 Z " fill="#404040" transform="translate(32,249)"/>
<path d="M0,0 Z " fill="#808080" transform="translate(390,212)"/>
<path d="M0,0 L2,1 Z " fill="#404040" transform="translate(28,156)"/>
<path d="M0,0 Z " fill="#BFBFBF" transform="translate(371,94)"/>
<path d="M0,0 Z " fill="#404040" transform="translate(372,92)"/>
<path d="M0,0 Z " fill="#000000" transform="translate(372,86)"/>
<path d="M0,0 L2,1 Z " fill="#FFFFFF" transform="translate(47,87)"/>
<path d="M0,0 Z " fill="#FFFFFF" transform="translate(371,84)"/>
<path d="M0,0 L2,1 Z " fill="#404040" transform="translate(74,77)"/>
<path d="M0,0 L2,1 Z " fill="#404040" transform="translate(102,48)"/>
<path d="M0,0 L2,1 Z " fill="#404040" transform="translate(93,48)"/>
<path d="M0,0 L2,1 Z " fill="#000000" transform="translate(259,21)"/>
<path d="M0,0 L2,1 Z " fill="#808080" transform="translate(223,21)"/>
<path d="M0,0 L2,1 Z " fill="#000000" transform="translate(296,19)"/>
<path d="M0,0 Z " fill="#000000" transform="translate(394,399)"/>
<path d="M0,0 Z " fill="#000000" transform="translate(396,396)"/>
<path d="M0,0 Z " fill="#FFFFFF" transform="translate(18,391)"/>
<path d="M0,0 Z " fill="#808080" transform="translate(37,372)"/>
<path d="M0,0 Z " fill="#FFFFFF" transform="translate(388,370)"/>
<path d="M0,0 Z " fill="#000000" transform="translate(386,369)"/>
<path d="M0,0 Z " fill="#808080" transform="translate(380,367)"/>
<path d="M0,0 Z " fill="#808080" transform="translate(368,363)"/>
<path d="M0,0 Z " fill="#808080" transform="translate(338,349)"/>
<path d="M0,0 Z " fill="#808080" transform="translate(316,347)"/>
<path d="M0,0 Z " fill="#FFFFFF" transform="translate(339,346)"/>
<path d="M0,0 Z " fill="#000000" transform="translate(327,345)"/>
<path d="M0,0 Z " fill="#000000" transform="translate(128,345)"/>
<path d="M0,0 Z " fill="#000000" transform="translate(328,344)"/>
<path d="M0,0 Z " fill="#000000" transform="translate(329,343)"/>
<path d="M0,0 Z " fill="#FFFFFF" transform="translate(331,341)"/>
<path d="M0,0 Z " fill="#000000" transform="translate(148,341)"/>
<path d="M0,0 Z " fill="#FFFFFF" transform="translate(333,339)"/>
<path d="M0,0 Z " fill="#FFFFFF" transform="translate(159,339)"/>
<path d="M0,0 Z " fill="#000000" transform="translate(133,337)"/>
<path d="M0,0 Z " fill="#000000" transform="translate(163,336)"/>
<path d="M0,0 Z " fill="#000000" transform="translate(349,335)"/>
<path d="M0,0 Z " fill="#000000" transform="translate(144,335)"/>
<path d="M0,0 Z " fill="#FFFFFF" transform="translate(143,334)"/>
<path d="M0,0 Z " fill="#000000" transform="translate(141,331)"/>
<path d="M0,0 Z " fill="#808080" transform="translate(275,330)"/>
<path d="M0,0 Z " fill="#FFFFFF" transform="translate(344,329)"/>
<path d="M0,0 Z " fill="#FFFFFF" transform="translate(174,325)"/>
<path d="M0,0 Z " fill="#000000" transform="translate(137,325)"/>
<path d="M0,0 Z " fill="#FFFFFF" transform="translate(176,323)"/>
<path d="M0,0 Z " fill="#000000" transform="translate(181,291)"/>
<path d="M0,0 Z " fill="#808080" transform="translate(307,274)"/>
<path d="M0,0 Z " fill="#000000" transform="translate(162,272)"/>
<path d="M0,0 Z " fill="#FFFFFF" transform="translate(319,271)"/>
<path d="M0,0 Z " fill="#FFFFFF" transform="translate(302,271)"/>
<path d="M0,0 Z " fill="#000000" transform="translate(320,270)"/>
<path d="M0,0 Z " fill="#000000" transform="translate(165,270)"/>
<path d="M0,0 Z " fill="#FFFFFF" transform="translate(321,269)"/>
<path d="M0,0 Z " fill="#FFFFFF" transform="translate(300,269)"/>
<path d="M0,0 Z " fill="#000000" transform="translate(168,268)"/>
<path d="M0,0 Z " fill="#808080" transform="translate(290,266)"/>
<path d="M0,0 Z " fill="#FFFFFF" transform="translate(136,265)"/>
<path d="M0,0 Z " fill="#000000" transform="translate(286,264)"/>
<path d="M0,0 Z " fill="#000000" transform="translate(268,262)"/>
<path d="M0,0 Z " fill="#000000" transform="translate(99,262)"/>
<path d="M0,0 Z " fill="#000000" transform="translate(95,260)"/>
<path d="M0,0 Z " fill="#000000" transform="translate(56,260)"/>
<path d="M0,0 Z " fill="#FFFFFF" transform="translate(118,259)"/>
<path d="M0,0 Z " fill="#000000" transform="translate(347,258)"/>
<path d="M0,0 Z " fill="#FFFFFF" transform="translate(348,257)"/>
<path d="M0,0 Z " fill="#000000" transform="translate(38,257)"/>
<path d="M0,0 Z " fill="#FFFFFF" transform="translate(352,254)"/>
<path d="M0,0 Z " fill="#000000" transform="translate(353,253)"/>
<path d="M0,0 Z " fill="#FFFFFF" transform="translate(354,252)"/>
<path d="M0,0 Z " fill="#000000" transform="translate(28,245)"/>
<path d="M0,0 Z " fill="#000000" transform="translate(364,237)"/>
<path d="M0,0 Z " fill="#000000" transform="translate(371,233)"/>
<path d="M0,0 Z " fill="#000000" transform="translate(378,228)"/>
<path d="M0,0 Z " fill="#000000" transform="translate(382,225)"/>
<path d="M0,0 Z " fill="#000000" transform="translate(383,224)"/>
<path d="M0,0 Z " fill="#000000" transform="translate(17,200)"/>
<path d="M0,0 Z " fill="#FFFFFF" transform="translate(16,199)"/>
<path d="M0,0 Z " fill="#000000" transform="translate(14,197)"/>
<path d="M0,0 Z " fill="#FFFFFF" transform="translate(391,196)"/>
<path d="M0,0 Z " fill="#FFFFFF" transform="translate(12,174)"/>
<path d="M0,0 Z " fill="#000000" transform="translate(13,172)"/>
<path d="M0,0 Z " fill="#000000" transform="translate(397,170)"/>
<path d="M0,0 Z " fill="#000000" transform="translate(14,164)"/>
<path d="M0,0 Z " fill="#000000" transform="translate(15,163)"/>
<path d="M0,0 Z " fill="#000000" transform="translate(398,162)"/>
<path d="M0,0 Z " fill="#808080" transform="translate(8,141)"/>
<path d="M0,0 Z " fill="#000000" transform="translate(4,139)"/>
<path d="M0,0 Z " fill="#FFFFFF" transform="translate(373,120)"/>
<path d="M0,0 Z " fill="#808080" transform="translate(17,113)"/>
<path d="M0,0 Z " fill="#000000" transform="translate(365,106)"/>
<path d="M0,0 Z " fill="#000000" transform="translate(32,98)"/>
<path d="M0,0 Z " fill="#000000" transform="translate(42,88)"/>
<path d="M0,0 Z " fill="#808080" transform="translate(52,87)"/>
<path d="M0,0 Z " fill="#FFFFFF" transform="translate(57,80)"/>
<path d="M0,0 Z " fill="#000000" transform="translate(58,79)"/>
<path d="M0,0 Z " fill="#FFFFFF" transform="translate(360,60)"/>
<path d="M0,0 Z " fill="#FFFFFF" transform="translate(356,53)"/>
<path d="M0,0 Z " fill="#000000" transform="translate(108,50)"/>
<path d="M0,0 Z " fill="#000000" transform="translate(126,48)"/>
<path d="M0,0 Z " fill="#000000" transform="translate(351,36)"/>
<path d="M0,0 Z " fill="#808080" transform="translate(126,36)"/>
<path d="M0,0 Z " fill="#FFFFFF" transform="translate(314,35)"/>
<path d="M0,0 Z " fill="#000000" transform="translate(319,30)"/>
<path d="M0,0 Z " fill="#000000" transform="translate(253,26)"/>
<path d="M0,0 Z " fill="#808080" transform="translate(279,23)"/>
<path d="M0,0 Z " fill="#000000" transform="translate(271,23)"/>
<path d="M0,0 Z " fill="#000000" transform="translate(282,21)"/>
<path d="M0,0 Z " fill="#808080" transform="translate(267,21)"/>
<path d="M0,0 Z " fill="#000000" transform="translate(141,11)"/>
<path d="M0,0 Z " fill="#808080" transform="translate(171,1)"/>
</svg>
