<?xml version="1.0" encoding="UTF-8"?>
<!-- Generator: visioncortex VTracer 0.6.5 -->
<svg version="1.1" xmlns="http://www.w3.org/2000/svg" width="474" height="602">
<path d="M0,0 L474,0 L474,602 L0,602 Z " fill="#C86838" transform="translate(0,0)"/>
<path d="M0,0 L228,0 L228,434 L203,441 L176,446 L161,447 L116,447 L101,446 L77,441 L50,432 L33,423 L26,419 L15,412 L5,403 L-3,396 L-12,386 L-23,370 L-30,358 L-37,343 L-44,320 L-47,302 L-47,294 L-43,291 L-41,291 L-41,289 L-33,282 L-25,272 L-24,270 L-22,270 L-21,266 L-20,264 L-18,264 L-16,258 L-7,243 L-1,232 L7,220 L16,210 L20,208 L17,176 L17,166 L-4,175 L-22,183 L-27,186 L-29,185 L-24,179 L-19,174 L-9,160 L-1,146 L7,130 L13,113 L16,104 L20,83 L21,72 L21,35 L18,16 L17,13 L0,2 Z " fill="#FEFEFE" transform="translate(246,0)"/>
<path d="M0,0 L1,0 L4,16 L12,41 L20,58 L31,75 L39,85 L50,97 L61,106 L69,112 L76,116 L93,125 L111,132 L132,138 L148,141 L163,142 L208,142 L230,140 L254,135 L271,130 L275,130 L275,298 L35,298 L35,296 L30,294 L28,293 L28,291 L23,289 L12,283 L12,281 L8,280 L0,274 Z " fill="#C86937" transform="translate(199,304)"/>
<path d="M0,0 L4,2 L13,10 L25,18 L36,25 L55,33 L70,38 L86,41 L94,42 L113,43 L113,45 L106,49 L99,56 L94,65 L92,74 L90,98 L87,110 L83,117 L100,113 L110,107 L113,104 L115,104 L110,136 L107,168 L106,176 L106,232 L109,260 L112,277 L115,290 L120,308 L124,320 L129,331 L134,344 L154,357 L179,373 L191,381 L196,384 L207,391 L211,393 L211,395 L216,397 L227,403 L227,405 L232,407 L234,408 L234,410 L0,410 Z " fill="#FEFEFE" transform="translate(0,192)"/>
<path d="M0,0 L244,0 L249,18 L252,37 L252,72 L248,96 L243,112 L241,120 L238,128 L237,128 L238,116 L239,115 L239,77 L237,61 L229,37 L219,18 L215,12 L210,14 L202,19 L204,24 L210,34 L217,48 L222,64 L225,80 L225,106 L221,126 L219,129 L217,109 L213,94 L208,82 L201,70 L193,60 L186,53 L173,44 L169,42 L164,43 L152,51 L150,51 L150,53 L158,55 L171,62 L181,71 L186,76 L193,86 L199,98 L203,117 L203,138 L199,157 L190,174 L179,187 L170,194 L160,200 L148,204 L141,205 L127,205 L112,202 L105,198 L98,195 L88,187 L81,179 L74,169 L69,158 L65,147 L64,142 L64,112 L66,112 L66,106 L55,113 L49,117 L49,138 L53,158 L59,173 L67,187 L70,189 L69,192 L56,182 L56,180 L53,179 L46,171 L36,157 L28,141 L24,133 L15,139 L12,139 L16,152 L25,169 L34,181 L43,191 L44,194 L48,196 L56,202 L61,206 L68,210 L65,211 L54,207 L38,199 L27,192 L13,181 L13,179 L9,177 L2,169 L0,168 Z " fill="#FEFEFE" transform="translate(0,0)"/>
<path d="M0,0 L2,0 L2,150 L-231,150 L-231,148 L-221,142 L-215,137 L-204,131 L-199,128 L-197,128 L-197,126 L-181,116 L-168,108 L-157,101 L-146,94 L-126,81 L-115,74 L-99,64 L-87,56 L-73,47 L-66,43 L-64,43 L-64,41 L-48,31 L-35,23 L-29,19 L-27,19 L-27,17 L-13,9 L-4,3 Z " fill="#FEFEFE" transform="translate(472,452)"/>
<path d="M0,0 L2,0 L2,336 L-3,335 L-4,334 L-4,1 Z " fill="#C1612E" transform="translate(141,205)"/>
<path d="M0,0 L2,3 L2,413 L-1,413 L-1,1 Z " fill="#C36135" transform="translate(196,163)"/>
<path d="M0,0 L3,0 L3,343 L1,346 L0,344 Z " fill="#C36333" transform="translate(152,202)"/>
<path d="M0,0 L3,0 L3,342 L0,342 Z " fill="#C36334" transform="translate(148,204)"/>
<path d="M0,0 L3,4 L10,25 L13,41 L13,67 L9,87 L7,90 L5,70 L1,55 L-4,43 L-11,31 L-15,25 L-12,25 L-12,27 L-8,28 L-7,32 L-3,36 L0,33 L-1,25 L0,24 L-2,13 L-2,2 L-1,6 L1,6 Z " fill="#FCFCF9" transform="translate(212,39)"/>
<path d="M0,0 L4,1 L6,3 L6,153 L0,156 Z " fill="#CE6E3E" transform="translate(276,422)"/>
<path d="M0,0 L1,0 L1,374 L-2,373 L-1,4 L-3,3 Z " fill="#DA7A40" transform="translate(175,189)"/>
<path d="M0,0 L6,0 L8,1 L8,4 L11,4 L12,7 L12,17 L14,17 L15,23 L15,48 L14,55 L13,56 L12,74 L10,80 L8,85 L6,85 L5,68 L4,64 L3,48 L2,43 L2,33 L5,32 L6,16 L2,16 Z " fill="#FDFDFC" transform="translate(236,16)"/>
<path d="M0,0 L2,0 L7,14 L15,29 L24,41 L33,51 L34,54 L38,56 L46,62 L51,66 L58,70 L55,71 L44,67 L28,59 L17,52 L3,41 L3,39 L-1,37 L-8,29 L-10,27 L-4,28 L-3,31 L2,32 L3,28 L7,27 L7,29 L11,29 L8,24 L6,25 L3,23 L6,23 L6,20 L4,20 L4,13 L1,6 L0,6 Z " fill="#FCF8F3" transform="translate(10,140)"/>
<path d="M0,0 L3,0 L3,349 L-2,347 L-4,345 L-2,345 L-2,3 L-5,2 L-1,2 L0,345 L1,344 L2,1 Z " fill="#DE8045" transform="translate(153,201)"/>
<path d="M0,0 L2,0 L2,251 L0,251 L0,60 L-4,61 L-4,1 Z " fill="#BD5C2B" transform="translate(117,235)"/>
<path d="M0,0 L2,0 L2,332 L-2,330 L-1,327 L0,314 Z " fill="#D77745" transform="translate(135,206)"/>
<path d="M0,0 L2,0 L3,315 L2,327 L0,328 Z " fill="#BC5C29" transform="translate(133,206)"/>
<path d="M0,0 L2,0 L3,318 L0,318 Z " fill="#BA5B28" transform="translate(129,206)"/>
<path d="M0,0 L2,0 L2,308 L0,307 L-2,301 L-2,297 L0,297 Z " fill="#D67746" transform="translate(123,205)"/>
<path d="M0,0 L2,0 L1,10 L1,14 L3,14 L4,19 L6,19 L6,16 L11,17 L13,23 L15,17 L17,17 L19,22 L21,22 L26,38 L34,54 L38,60 L40,61 L39,64 L26,54 L26,52 L23,51 L16,43 L6,29 L-2,13 L-6,5 L-10,6 L-10,3 L-8,1 L-1,4 Z " fill="#FCFEFE" transform="translate(30,128)"/>
<path d="M0,0 L6,0 L4,2 L-24,9 L-42,12 L-57,13 L-102,13 L-117,12 L-126,10 L-126,9 L-112,9 L-96,10 L-68,10 L-68,8 L-77,9 L-85,9 L-87,7 L-64,6 L-49,6 L-48,4 L-20,3 L-12,2 L-6,2 L-4,3 L-4,1 Z " fill="#FBFDFD" transform="translate(464,434)"/>
<path d="M0,0 L1,0 L3,10 L2,266 L0,265 Z " fill="#D77646" transform="translate(201,314)"/>
<path d="M0,0 L2,0 L2,176 L-1,174 L-1,4 Z " fill="#C36331" transform="translate(114,304)"/>
<path d="M0,0 L1,0 L0,12 L-2,12 L-3,16 L0,16 L-2,20 L-9,21 L-9,28 L-6,29 L-4,33 L2,34 L3,37 L6,39 L-14,48 L-30,55 L-35,58 L-37,57 L-32,51 L-27,46 L-17,32 L-9,18 L-1,2 Z " fill="#FDFDFB" transform="translate(254,128)"/>
<path d="M0,0 L2,4 L4,9 L3,246 L-1,245 L1,244 Z " fill="#D77746" transform="translate(208,339)"/>
<path d="M0,0 L1,0 L3,12 L2,238 L0,238 Z " fill="#BB5B2A" transform="translate(211,348)"/>
<path d="M0,0 L3,4 L2,231 L-2,229 L0,228 Z " fill="#D87847" transform="translate(217,360)"/>
<path d="M0,0 L6,4 L13,14 L21,29 L25,48 L25,69 L21,88 L15,100 L14,100 L14,94 L17,90 L16,78 L13,75 L13,67 L16,66 L16,74 L18,73 L18,68 L22,64 L23,64 L23,55 L21,37 L14,38 L14,33 L15,28 L13,27 L13,25 L8,26 L7,27 L1,27 L2,23 L7,21 L8,10 L4,10 L3,4 L0,4 Z " fill="#FDFCF8" transform="translate(178,69)"/>
<path d="M0,0 L1,0 L1,136 L3,137 L1,137 L2,147 L1,421 L-2,420 L0,419 L-1,9 L-3,5 Z " fill="#DF8048" transform="translate(198,157)"/>
<path d="M0,0 L2,2 L2,215 L-1,215 Z " fill="#BE5D2C" transform="translate(231,383)"/>
<path d="M0,0 L4,4 L3,5 L3,207 L1,207 L0,209 Z " fill="#CD6F34" transform="translate(240,393)"/>
<path d="M0,0 L4,1 L1,6 L-8,17 L-18,25 L-28,31 L-40,35 L-47,36 L-61,36 L-72,34 L-69,32 L-65,29 L-65,25 L-50,25 L-43,28 L-28,29 L-26,25 L-24,23 L-19,21 L-18,18 L-16,18 L-16,16 L-10,16 L-10,14 L-8,14 L-8,12 L-6,12 L-6,10 L-4,10 L-4,8 L-2,8 L-2,2 Z " fill="#FDFDFC" transform="translate(188,169)"/>
<path d="M0,0 L3,0 L3,137 L2,141 L0,141 Z " fill="#C36133" transform="translate(199,152)"/>
<path d="M0,0 L2,0 L3,2 L3,136 L2,140 L0,140 Z " fill="#C2622F" transform="translate(289,429)"/>
<path d="M0,0 L6,0 L6,66 L3,68 L0,68 Z " fill="#C56534" transform="translate(371,448)"/>
<path d="M0,0 L3,4 L3,200 L0,202 Z " fill="#D77747" transform="translate(209,84)"/>
<path d="M0,0 L5,0 L5,78 L0,79 Z " fill="#C46431" transform="translate(356,447)"/>
<path d="M0,0 L2,0 L3,195 L0,196 Z " fill="#BC5B35" transform="translate(246,400)"/>
<path d="M0,0 L1,0 L0,379 L-1,379 L-2,3 Z " fill="#D97A3B" transform="translate(183,181)"/>
<path d="M0,0 L2,0 L3,4 L2,191 L0,191 Z " fill="#BB5B2D" transform="translate(250,403)"/>
<path d="M0,0 L2,2 L3,7 L3,186 L0,188 Z " fill="#D77847" transform="translate(213,94)"/>
<path d="M0,0 L6,1 L11,3 L11,35 L0,35 Z " fill="#C96C3C" transform="translate(105,199)"/>
<path d="M0,0 L1,0 L2,352 L-2,350 L-2,348 L0,348 Z " fill="#CD6F39" transform="translate(158,201)"/>
<path d="M0,0 L6,0 L6,58 L2,61 L0,61 Z " fill="#C46433" transform="translate(383,448)"/>
<path d="M0,0 L2,0 L-3,32 L-6,64 L-7,72 L-8,72 L-9,56 L-11,56 L-11,40 L-9,40 L-8,52 L-7,51 L-6,40 L-6,24 L-7,21 L-17,22 L-22,20 L-21,17 L-7,15 L-4,9 L-1,9 L-1,6 L-3,6 L-3,8 L-8,9 L-9,13 L-23,14 L-27,15 L-31,14 L-31,8 L-28,8 L-30,13 L-13,9 L-3,3 Z " fill="#FEFCF5" transform="translate(113,296)"/>
<path d="M0,0 L2,3 L2,87 L3,166 L2,177 L0,178 Z " fill="#BA5B2A" transform="translate(215,101)"/>
<path d="M0,0 L2,2 L3,172 L0,173 Z " fill="#BB5A33" transform="translate(262,413)"/>
<path d="M0,0 L2,1 L3,102 L4,2 L5,2 L5,106 L7,107 L0,111 Z " fill="#D67747" transform="translate(319,440)"/>
<path d="M0,0 L1,0 L1,316 L-2,312 L-1,301 Z " fill="#DD7D49" transform="translate(128,207)"/>
<path d="M0,0 L2,0 L2,2 L7,4 L12,8 L10,8 L11,128 L8,132 L8,72 L7,37 L3,14 L0,3 Z " fill="#DA804C" transform="translate(244,0)"/>
<path d="M0,0 L2,1 L2,40 L4,40 L4,2 L9,4 L10,5 L10,41 L0,41 Z " fill="#C26236" transform="translate(94,193)"/>
<path d="M0,0 L3,4 L4,8 L4,147 L0,151 Z " fill="#D37647" transform="translate(224,27)"/>
<path d="M0,0 L2,3 L3,8 L2,253 L-1,252 L1,251 L0,247 Z " fill="#E0804D" transform="translate(205,330)"/>
<path d="M0,0 L3,1 L2,132 L0,132 Z " fill="#BB5C2A" transform="translate(297,432)"/>
<path d="M0,0 L1,0 L2,56 L5,84 L8,101 L10,110 L9,112 L7,111 L7,106 L3,104 L2,97 L3,96 L3,87 L2,85 L1,98 L0,96 L-2,96 L-2,80 L2,80 L0,71 L-2,72 L-2,65 L0,65 Z " fill="#FEF9F4" transform="translate(104,368)"/>
<path d="M0,0 L3,0 L3,60 L0,61 L-1,7 L-2,62 L-3,62 L-3,3 Z " fill="#C26130" transform="translate(105,241)"/>
<path d="M0,0 L2,3 L4,0 L5,55 L3,59 L-1,60 L-1,4 L-3,3 Z " fill="#D37542" transform="translate(101,245)"/>
<path d="M0,0 L1,0 L2,7 L2,42 L-2,66 L-7,82 L-9,90 L-12,98 L-13,98 L-12,86 L-11,85 L-10,50 L-8,54 L-8,71 L-6,71 L-5,66 L-3,60 L-2,42 L-1,41 L0,34 Z " fill="#FDF3E7" transform="translate(250,30)"/>
<path d="M0,0 L1,2 L-2,7 L-6,7 L-6,10 L-8,10 L-7,24 L-6,26 L-4,41 L-2,41 L1,54 L0,57 L3,57 L3,59 L5,59 L6,66 L9,67 L9,69 L15,67 L13,71 L10,71 L12,78 L11,82 L3,67 L-2,54 L-8,35 L-11,17 L-11,9 L-7,6 L-5,6 L-5,4 Z " fill="#FCEFE2" transform="translate(210,285)"/>
<path d="M0,0 L2,4 L7,19 L15,34 L20,39 L19,42 L6,32 L6,30 L3,29 L-4,21 L-11,11 L-8,11 L-4,14 L-2,19 L0,20 L1,10 L0,9 Z " fill="#FDF8F1" transform="translate(50,150)"/>
<path d="M0,0 L3,0 L4,2 L7,3 L8,10 L11,10 L11,16 L15,16 L16,21 L18,21 L16,10 L20,10 L20,26 L17,28 L17,37 L18,42 L18,55 L17,55 L15,39 L7,15 L0,2 Z " fill="#FCF4ED" transform="translate(222,22)"/>
<path d="M0,0 L1,0 L1,49 L7,48 L4,50 L-5,52 L-10,52 L-8,47 L-5,39 L-3,23 L-2,9 Z " fill="#C66F3E" transform="translate(93,257)"/>
<path d="M0,0 L20,0 L24,4 L24,9 L21,10 L23,13 L22,17 L22,35 L21,35 L18,16 L17,13 L0,2 Z " fill="#FBFDFC" transform="translate(246,0)"/>
<path d="M0,0 L3,2 L3,108 L1,114 L0,114 Z " fill="#D77A3E" transform="translate(256,8)"/>
<path d="M0,0 L6,0 L6,36 L2,39 L0,39 Z " fill="#C26535" transform="translate(422,445)"/>
<path d="M0,0 L3,0 L3,195 L1,191 L0,184 L1,184 L2,9 L0,9 L-1,13 Z " fill="#DF8147" transform="translate(114,295)"/>
<path d="M0,0 L3,3 L3,219 L2,217 L0,217 Z " fill="#DA7B44" transform="translate(232,383)"/>
<path d="M0,0 L3,4 L3,11 L1,12 L1,7 L-2,9 L-5,23 L-6,24 L-12,24 L-12,29 L-16,31 L-17,38 L-21,39 L-21,45 L-19,45 L-19,48 L-23,48 L-23,46 L-25,47 L-26,50 L-28,50 L-29,53 L-31,51 L-28,46 L-26,46 L-25,42 L-24,40 L-22,40 L-20,34 L-11,19 L-5,8 Z " fill="#FCF6F0" transform="translate(250,224)"/>
<path d="M0,0 L4,4 L3,5 L2,202 L1,202 Z " fill="#E08347" transform="translate(240,393)"/>
<path d="M0,0 L3,3 L2,199 L4,200 L1,201 L0,198 Z " fill="#DF814F" transform="translate(244,397)"/>
<path d="M0,0 L2,0 L3,6 L2,96 L1,105 L0,105 Z " fill="#BA5B33" transform="translate(258,10)"/>
<path d="M0,0 L2,1 L3,93 L0,102 L-1,102 Z " fill="#DB7840" transform="translate(260,11)"/>
<path d="M0,0 L2,0 L2,64 L1,67 L-1,67 L-1,2 Z " fill="#C26331" transform="translate(239,176)"/>
<path d="M0,0 L1,0 L1,161 L-1,159 L-2,148 L-1,147 L-1,16 L-2,16 L-1,4 Z " fill="#DA8252" transform="translate(112,310)"/>
<path d="M0,0 L4,1 L2,1 L2,92 L4,93 L0,94 Z " fill="#D67945" transform="translate(338,444)"/>
<path d="M0,0 L3,0 L3,60 L1,64 L0,64 Z " fill="#C26231" transform="translate(379,448)"/>
<path d="M0,0 L3,1 L4,90 L1,92 Z " fill="#D77846" transform="translate(216,185)"/>
<path d="M0,0 L8,1 L15,3 L19,4 L20,7 L29,10 L33,9 L33,11 L35,11 L35,13 L43,13 L43,14 L56,16 L57,18 L56,20 L47,19 L27,13 L12,7 L0,1 Z " fill="#FCF2E7" transform="translate(280,423)"/>
<path d="M0,0 L3,0 L4,59 L0,60 Z " fill="#C26332" transform="translate(113,236)"/>
<path d="M0,0 L7,5 L7,44 L5,44 L4,5 L3,45 L-5,45 L-5,44 L1,44 Z " fill="#D77A45" transform="translate(91,189)"/>
<path d="M0,0 L1,0 L2,160 L-2,162 L-2,156 L-1,154 Z " fill="#D27340" transform="translate(269,422)"/>
<path d="M0,0 L1,0 L1,152 L3,153 L-1,155 L0,14 L-2,14 L-1,6 Z " fill="#E0814B" transform="translate(202,138)"/>
<path d="M0,0 L3,0 L4,82 L2,82 L1,84 Z " fill="#D67747" transform="translate(224,182)"/>
<path d="M0,0 L2,0 L2,5 L-3,12 L-12,12 L-16,15 L-17,19 L-26,22 L-27,21 L-29,23 L-32,21 L-27,19 L-27,17 L-13,9 L-4,3 Z " fill="#FCFCFC" transform="translate(472,452)"/>
<path d="M0,0 L5,0 L5,2 L-2,6 L-9,13 L-14,22 L-16,31 L-18,55 L-19,55 L-20,32 L-19,29 L-19,19 L-18,16 L-16,16 L-15,12 L-11,11 L-10,8 L-5,7 L-4,3 L0,3 Z " fill="#FDF3E6" transform="translate(108,235)"/>
<path d="M0,0 L2,3 L6,15 L11,26 L16,39 L23,44 L23,45 L18,45 L18,43 L14,43 L10,32 L8,29 L7,31 L4,30 L6,30 L1,12 L-3,11 L-3,9 L-1,9 Z " fill="#FCEFE3" transform="translate(118,497)"/>
<path d="M0,0 L1,0 L2,26 L4,40 L3,73 L0,70 Z " fill="#C06536" transform="translate(62,110)"/>
<path d="M0,0 L3,0 L4,5 L4,22 L7,22 L8,29 L4,32 L-1,24 L-2,18 L-1,16 L-3,16 L-3,10 L-1,11 Z " fill="#FDFCFD" transform="translate(214,64)"/>
<path d="M0,0 L1,0 L2,6 L2,32 L-2,52 L-4,55 L-6,35 L-9,20 L-7,20 L-3,33 L-2,38 L-1,39 Z " fill="#FBE4D3" transform="translate(223,74)"/>
<path d="M0,0 L2,3 L4,19 L4,57 L2,64 L0,63 Z " fill="#C66F44" transform="translate(236,58)"/>
<path d="M0,0 L2,1 L2,144 L4,145 L0,146 Z " fill="#CD6E3F" transform="translate(283,427)"/>
<path d="M0,0 L2,0 L2,2 L7,4 L9,8 L9,39 L7,37 L3,14 L0,3 Z " fill="#C1673A" transform="translate(244,0)"/>
<path d="M0,0 L4,1 L1,6 L-8,17 L-18,25 L-28,31 L-36,33 L-36,29 L-28,29 L-26,25 L-24,23 L-19,21 L-18,18 L-16,18 L-16,16 L-10,16 L-10,14 L-8,14 L-8,12 L-6,12 L-6,10 L-4,10 L-4,8 L-2,8 L-2,2 Z " fill="#FDF5E9" transform="translate(188,169)"/>
<path d="M0,0 L1,0 L3,22 L3,74 L0,76 L-1,26 Z " fill="#D57B4B" transform="translate(217,109)"/>
<path d="M0,0 L1,0 L1,16 L0,18 L1,40 L-1,40 L-2,33 L-4,40 L-6,40 L-6,52 L-10,56 L-12,56 L-11,50 L-5,32 L-1,11 Z " fill="#FDF5EC" transform="translate(267,72)"/>
<path d="M0,0 L2,0 L2,68 L4,69 L0,71 Z " fill="#D47440" transform="translate(369,448)"/>
<path d="M0,0 L1,2 L1,68 L-2,72 L-2,1 Z " fill="#D37543" transform="translate(238,176)"/>
<path d="M0,0 L1,0 L1,62 L-2,62 L-2,25 L-1,24 Z " fill="#C46435" transform="translate(72,168)"/>
<path d="M0,0 L1,0 L2,120 L2,123 L-1,126 Z " fill="#DC7B43" transform="translate(229,47)"/>
<path d="M0,0 L3,0 L3,4 L-8,9 L-13,9 L-13,13 L-17,13 L-18,12 L-21,13 L-26,12 L-23,9 L-13,3 L-4,4 L-4,2 Z " fill="#FBFEFD" transform="translate(333,547)"/>
<path d="M0,0 L3,0 L3,44 L0,44 Z " fill="#C26237" transform="translate(410,447)"/>
<path d="M0,0 L1,0 L1,53 L3,53 L3,48 L4,48 L4,84 L3,84 L0,56 Z " fill="#D19472" transform="translate(105,368)"/>
<path d="M0,0 L9,0 L13,4 L16,5 L16,7 L20,6 L22,4 L25,5 L25,10 L18,8 L17,13 L12,12 L3,3 Z M16,4 Z " fill="#FAFEFB" transform="translate(183,50)"/>
<path d="M0,0 L1,0 L3,24 L3,32 L-3,36 L-3,6 L-1,2 Z " fill="#D87943" transform="translate(263,176)"/>
<path d="M0,0 L2,0 L1,10 L1,14 L3,14 L4,19 L6,19 L7,23 L9,25 L9,32 L6,29 L-2,13 L-6,5 L-10,6 L-10,3 L-8,1 L-1,4 Z " fill="#FDF4E8" transform="translate(30,128)"/>
<path d="M0,0 L2,0 L2,5 L8,7 L8,10 L13,12 L15,8 L18,8 L18,10 L16,10 L15,17 L13,15 L14,18 L17,17 L17,24 L10,19 L3,11 L-3,2 Z " fill="#FEF9F4" transform="translate(78,168)"/>
<path d="M0,0 L3,1 L3,38 L2,41 L0,41 Z " fill="#C36230" transform="translate(414,447)"/>
<path d="M0,0 L5,2 L6,3 L6,22 L1,21 L0,20 Z " fill="#C46838" transform="translate(63,188)"/>
<path d="M0,0 L2,0 L2,6 L0,6 L0,30 L-1,30 L-2,73 L-4,70 L-4,5 L-6,4 Z " fill="#DA7F4D" transform="translate(64,106)"/>
<path d="M0,0 L2,0 L2,36 L0,43 L-1,43 L-1,3 Z " fill="#BF6133" transform="translate(247,100)"/>
<path d="M0,0 L11,1 L11,2 L-7,5 L-22,6 L-67,6 L-67,5 L-54,4 L-13,4 L-13,2 Z " fill="#FEF4E7" transform="translate(429,441)"/>
<path d="M0,0 L5,0 L10,18 L11,24 L11,33 L9,33 L8,35 L8,20 L5,20 L3,14 L4,4 L0,4 Z " fill="#FDF6F1" transform="translate(239,0)"/>
<path d="M0,0 L14,0 L30,1 L61,1 L64,3 L9,3 L0,1 Z " fill="#FFFDF8" transform="translate(338,443)"/>
<path d="M0,0 L1,0 L1,15 L-5,13 L-13,10 L-13,8 Z " fill="#CD855F" transform="translate(163,43)"/>
<path d="M0,0 L2,0 L0,14 L-1,14 L-1,6 L-3,6 L-3,8 L-8,9 L-9,13 L-23,14 L-27,15 L-31,14 L-31,8 L-28,8 L-30,13 L-13,9 L-3,3 Z " fill="#FDFBF8" transform="translate(113,296)"/>
<path d="M0,0 L4,1 L4,19 L-2,18 L-2,1 Z " fill="#C26939" transform="translate(166,41)"/>
<path d="M0,0 L2,1 L2,99 L4,100 L0,102 Z " fill="#DF8049" transform="translate(330,442)"/>
<path d="M0,0 L1,0 L2,50 L-2,54 L-2,1 Z " fill="#D37747" transform="translate(253,169)"/>
<path d="M0,0 L1,2 L-2,11 L-5,12 L-6,19 L-10,20 L-10,26 L-8,26 L-8,29 L-12,29 L-12,27 L-14,28 L-15,31 L-17,31 L-18,34 L-20,32 L-17,27 L-15,27 L-14,23 L-13,21 L-11,21 L-9,15 Z " fill="#FCEDDF" transform="translate(239,243)"/>
<path d="M0,0 L2,1 L3,7 L2,63 L1,63 L0,43 Z " fill="#B85A2C" transform="translate(203,74)"/>
<path d="M0,0 L1,0 L1,51 L-1,48 L-2,44 L-2,1 Z " fill="#D47846" transform="translate(54,113)"/>
<path d="M0,0 L2,0 L2,2 L7,4 L18,10 L18,12 L23,14 L25,15 L25,17 L18,17 L19,13 L13,14 L5,9 L5,6 L0,3 Z " fill="#FEF8F0" transform="translate(209,585)"/>
<path d="M0,0 L2,0 L2,2 L-1,3 L-5,7 L-7,12 L-10,12 L-15,13 L-17,15 L-21,15 L-22,20 L-26,21 L-29,19 L-27,19 L-27,17 L-11,7 Z " fill="#FDF1E7" transform="translate(302,561)"/>
<path d="M0,0 L8,2 L21,9 L28,15 L24,17 L18,15 L14,11 L14,9 L12,9 L12,6 L4,4 L4,2 L0,1 Z " fill="#FDF6F0" transform="translate(150,53)"/>
<path d="M0,0 L4,2 L5,5 L4,26 L0,24 Z " fill="#CD7244" transform="translate(0,168)"/>
<path d="M0,0 L2,4 L3,7 L6,6 L5,16 L5,27 L7,27 L6,47 L5,47 L2,16 L2,6 L-1,6 Z " fill="#FCF3EA" transform="translate(261,160)"/>
<path d="M0,0 L4,1 L4,3 L21,4 L29,4 L25,6 L18,7 L4,7 L-7,5 L-4,3 Z " fill="#FCF1E6" transform="translate(123,198)"/>
<path d="M0,0 L3,1 L2,47 L0,47 Z " fill="#BA5B35" transform="translate(86,186)"/>
<path d="M0,0 L4,3 L4,18 L3,22 L-2,20 L-2,18 L-4,17 L-3,6 L-1,6 Z " fill="#CB7042" transform="translate(60,185)"/>
<path d="M0,0 L12,7 L24,15 L21,16 L15,13 L7,13 L3,9 L6,9 L6,7 L4,7 L4,5 L1,4 Z " fill="#FCF5EF" transform="translate(161,554)"/>
<path d="M0,0 L3,0 L3,31 L0,31 Z " fill="#C16330" transform="translate(113,203)"/>
<path d="M0,0 L3,1 L3,4 L7,5 L11,7 L10,10 L5,9 L5,13 L3,13 L3,15 L-1,14 L1,13 L-2,9 L-1,7 L-2,2 L0,2 Z " fill="#FCFEFD" transform="translate(241,158)"/>
<path d="M0,0 L3,4 L2,47 L1,47 L-2,34 L0,34 Z " fill="#D47749" transform="translate(221,22)"/>
<path d="M0,0 L1,0 L2,40 L-1,44 L-2,12 L-3,8 Z " fill="#D67540" transform="translate(245,104)"/>
<path d="M0,0 L6,4 L13,14 L19,25 L19,27 L16,27 L14,19 L9,17 L8,16 L8,10 L4,10 L3,4 L0,4 Z M7,16 Z " fill="#FCEFE3" transform="translate(178,69)"/>
<path d="M0,0 L1,0 L1,75 L0,75 L-1,16 L-2,16 L-1,4 Z " fill="#DF814C" transform="translate(112,310)"/>
<path d="M0,0 L2,0 L3,12 L4,11 L5,0 L7,0 L6,16 L4,32 L3,32 L2,16 L0,16 Z " fill="#F9E9DD" transform="translate(102,336)"/>
<path d="M0,0 L2,0 L2,2 L-1,4 L-2,6 L-7,6 L-6,12 L-8,12 L-8,15 L-16,13 L-16,15 L-20,17 L-23,15 Z " fill="#FDF6F0" transform="translate(382,510)"/>
<path d="M0,0 L3,1 L3,3 L6,3 L7,9 L9,9 L10,11 L12,10 L12,16 L15,16 L13,11 L19,13 L19,17 L16,17 L16,22 L11,17 L2,5 Z " fill="#FDF4EA" transform="translate(222,367)"/>
<path d="M0,0 L2,2 L10,18 L14,24 L16,25 L15,28 L2,18 L2,16 L-1,15 L1,14 L6,18 L7,16 L4,16 L0,4 Z " fill="#F9E3D6" transform="translate(54,164)"/>
<path d="M0,0 L1,0 L2,26 L4,23 L6,24 L3,32 L1,40 L-2,48 L-3,48 L-2,36 L-1,35 Z " fill="#F1D6C6" transform="translate(240,80)"/>
<path d="M0,0 L1,0 L1,21 L4,21 L5,24 L4,39 L2,38 L0,30 Z " fill="#F6E7DD" transform="translate(64,112)"/>
<path d="M0,0 L5,0 L6,3 L4,3 L5,6 L6,4 L10,4 L10,8 L12,9 L8,10 L2,10 L2,8 L-2,7 L-4,2 Z " fill="#FCFDFB" transform="translate(26,181)"/>
<path d="M0,0 L1,2 L0,7 L5,7 L5,5 L10,3 L14,4 L-3,12 L-11,16 L-13,15 L-8,9 L-3,4 Z " fill="#FCEEE4" transform="translate(230,170)"/>
<path d="M0,0 L2,0 L1,11 L-2,11 L-2,9 L-4,9 L-4,11 L-10,10 L-12,8 L-2,1 Z " fill="#FDFDFD" transform="translate(396,501)"/>
<path d="M0,0 L1,0 L1,27 L-1,30 L-2,28 L-2,1 Z " fill="#D07241" transform="translate(445,441)"/>
<path d="M0,0 L4,2 L9,1 L12,2 L12,8 L9,5 L10,11 L11,14 L9,15 L3,5 L-2,7 L-5,8 L-6,4 L-1,4 Z " fill="#FEF8F3" transform="translate(212,7)"/>
<path d="M0,0 L6,0 L4,2 L-19,8 L-24,8 L-24,5 L-20,5 L-20,3 L-12,2 L-6,2 L-4,3 L-4,1 Z " fill="#FAF1EA" transform="translate(464,434)"/>
<path d="M0,0 L2,1 L2,9 L3,12 L3,26 L0,22 L-4,12 L-4,5 L-3,7 L0,7 Z " fill="#FCFDFA" transform="translate(72,143)"/>
<path d="M0,0 L5,2 L18,10 L16,12 L11,11 L10,15 L4,15 L4,11 L9,11 L6,6 L6,4 L0,4 Z " fill="#FFFBFE" transform="translate(17,206)"/>
<path d="M0,0 L5,2 L14,8 L14,9 L6,9 L5,12 L2,9 L2,7 L-3,5 L-3,2 L0,2 Z " fill="#FDF7EF" transform="translate(146,545)"/>
<path d="M0,0 L2,0 L1,5 L3,5 L3,8 L-1,10 L-12,10 L-12,8 L-2,2 Z " fill="#FCFCFC" transform="translate(253,592)"/>
<path d="M0,0 L3,1 L0,3 L-1,6 L-3,5 L-4,6 L-7,7 L-7,9 L-13,10 L-13,15 L-17,16 L-23,16 L-19,12 L-8,5 Z " fill="#F8E6D8" transform="translate(357,526)"/>
<path d="M0,0 L1,4 L8,4 L8,2 L11,3 L10,5 L3,9 L-3,13 L-4,32 L-5,32 L-6,12 L-4,10 L-1,10 L0,6 L-2,5 Z " fill="#FDF6F0" transform="translate(52,104)"/>
<path d="M0,0 L2,0 L7,14 L13,25 L12,27 L8,24 L6,25 L3,23 L6,23 L6,20 L4,20 L4,13 L1,6 L0,6 Z " fill="#FAFDFD" transform="translate(10,140)"/>
<path d="M0,0 L5,2 L5,20 L4,20 L4,9 L2,9 L2,20 L0,20 Z " fill="#B85827" transform="translate(55,182)"/>
<path d="M0,0 L1,0 L1,52 L-1,55 L0,14 L-2,14 L-3,17 L-2,10 Z " fill="#D88553" transform="translate(249,86)"/>
<path d="M0,0 L1,0 L1,17 L3,17 L3,14 L5,14 L5,16 L11,15 L8,17 L-1,19 L-6,19 L-4,14 L-1,6 Z " fill="#C57C51" transform="translate(89,290)"/>
<path d="M0,0 L3,3 L3,39 L2,39 L0,31 L-1,28 Z " fill="#CF7749" transform="translate(197,65)"/>
<path d="M0,0 L7,0 L10,1 L9,6 L6,7 L7,12 L0,6 L-3,1 L0,1 Z " fill="#FBFFFE" transform="translate(241,388)"/>
<path d="M0,0 L3,2 L2,38 L0,35 Z " fill="#D67949" transform="translate(217,16)"/>
<path d="M0,0 L2,0 L3,4 L5,5 L5,7 L-3,6 L-7,7 L-8,11 L-9,13 L-15,13 L-15,10 L-8,6 L-6,6 L-6,4 Z " fill="#FBF2E3" transform="translate(414,489)"/>
<path d="M0,0 L2,4 L1,9 L4,9 L5,7 L4,16 L2,21 L0,21 L-1,12 L-2,11 L-2,5 L0,5 Z " fill="#FEFCF9" transform="translate(84,283)"/>
<path d="M0,0 L2,2 L2,5 L-2,8 L-2,6 L-4,7 L-5,10 L-2,11 L-2,14 L-8,14 L-11,10 L-4,2 L-1,2 Z " fill="#FBF6EF" transform="translate(222,274)"/>
<path d="M0,0 L2,0 L3,58 L0,61 L1,2 L-2,1 Z " fill="#DB8151" transform="translate(244,173)"/>
<path d="M0,0 L1,2 L6,0 L14,0 L13,3 L8,2 L-6,11 L-8,11 L-8,13 L-10,13 L-10,11 L-12,10 L-7,10 L-7,8 L-5,7 L-4,4 L-1,4 L-2,1 Z " fill="#FDF0E3" transform="translate(158,40)"/>
<path d="M0,0 L4,0 L4,30 L6,31 L2,33 L2,1 Z " fill="#D57941" transform="translate(434,443)"/>
<path d="M0,0 L2,1 L3,10 L2,35 L0,33 Z " fill="#B95E2F" transform="translate(215,13)"/>
<path d="M0,0 L3,1 L2,32 L-1,28 L0,2 L-2,1 Z " fill="#D3784A" transform="translate(213,11)"/>
<path d="M0,0 L6,0 L1,4 L3,9 L7,15 L6,17 L3,16 L2,11 L-2,9 L-2,1 Z M-3,9 L-2,9 L-2,14 L-5,14 L-5,10 Z " fill="#FBF0EA" transform="translate(201,15)"/>
<path d="M0,0 L4,2 L5,6 L5,16 L4,20 L1,20 L1,10 L2,4 L-1,5 Z " fill="#FEFBF4" transform="translate(64,102)"/>
<path d="M0,0 L6,3 L9,6 L16,10 L13,11 L2,7 L-8,2 L-4,1 L0,4 Z " fill="#FBEEDE" transform="translate(52,200)"/>
<path d="M0,0 L1,2 L0,10 L-4,10 L-5,9 L-8,10 L-13,9 L-10,6 Z " fill="#FBF6F0" transform="translate(320,550)"/>
<path d="M0,0 L2,0 L3,29 L2,32 L0,32 Z " fill="#BC5C2E" transform="translate(434,444)"/>
<path d="M0,0 L1,0 L2,32 L-1,30 L-1,2 Z " fill="#B75929" transform="translate(28,143)"/>
<path d="M0,0 L2,0 L2,2 L7,4 L6,24 L5,24 L0,3 Z " fill="#C6805B" transform="translate(244,0)"/>
<path d="M0,0 L1,0 L2,59 L-1,60 Z " fill="#B45729" transform="translate(106,242)"/>
<path d="M0,0 L3,4 L2,6 L1,58 L0,58 L-1,3 Z " fill="#D06F3A" transform="translate(76,172)"/>
<path d="M0,0 L2,2 L6,21 L6,42 L5,42 L3,20 L2,10 L0,10 Z " fill="#FDEFE1" transform="translate(197,96)"/>
<path d="M0,0 L2,3 L6,16 L7,25 L4,24 L3,17 L0,10 Z " fill="#FDEFE4" transform="translate(216,48)"/>
<path d="M0,0 L6,1 L7,4 L12,6 L13,9 L18,9 L18,12 L16,12 L16,15 L13,14 L13,12 L9,10 L2,2 Z " fill="#FBEFE3" transform="translate(0,167)"/>
<path d="M0,0 L3,4 L2,47 L1,47 L-1,34 L0,32 Z " fill="#D68B63" transform="translate(201,70)"/>
<path d="M0,0 L1,0 L3,24 L3,32 L-1,34 Z " fill="#C37F5B" transform="translate(263,176)"/>
<path d="M0,0 L1,3 L1,8 L-6,6 L-6,8 L-8,8 L-8,10 L-15,10 L-10,6 Z " fill="#FCFBF9" transform="translate(431,479)"/>
<path d="M0,0 L4,2 L12,9 L8,10 L7,13 L4,13 L5,6 L0,6 Z " fill="#FEFBF1" transform="translate(0,192)"/>
<path d="M0,0 L5,5 L3,5 L2,51 L1,51 Z " fill="#CE7842" transform="translate(83,181)"/>
<path d="M0,0 L5,4 L4,6 L3,26 L-1,22 L0,21 Z " fill="#D67642" transform="translate(48,173)"/>
<path d="M0,0 L2,0 L2,55 L1,55 L0,3 L-2,1 Z " fill="#DD834B" transform="translate(248,171)"/>
<path d="M0,0 L5,0 L10,4 L9,8 L9,26 L8,26 L5,7 L4,4 Z " fill="#FBF1E4" transform="translate(259,9)"/>
<path d="M0,0 L4,0 L4,18 L0,20 L1,4 Z " fill="#E08144" transform="translate(470,434)"/>
<path d="M0,0 L1,4 L-1,8 L-3,8 L-2,13 L1,14 L-5,16 L-7,16 L-9,16 L-9,18 L-11,17 Z " fill="#FBEFE6" transform="translate(242,152)"/>
<path d="M0,0 L9,0 L11,1 L9,5 L12,7 L14,10 L13,13 L3,3 Z " fill="#F9F5ED" transform="translate(183,50)"/>
<path d="M0,0 L2,0 L0,4 L-2,4 L-1,7 L-3,7 L-2,11 L-6,10 L-4,7 L-14,11 L-16,10 L-7,4 Z " fill="#F9EDE2" transform="translate(271,581)"/>
<path d="M0,0 L4,0 L4,2 L-1,2 Z M-2,2 L-1,5 L-4,7 L-5,12 L-9,10 L-13,6 L-7,6 L-7,3 Z " fill="#FEFEF8" transform="translate(268,400)"/>
<path d="M0,0 L3,4 L2,33 L0,31 Z " fill="#D57948" transform="translate(29,144)"/>
<path d="M0,0 L2,2 L4,7 L3,45 L2,45 L1,12 Z " fill="#CE6F3E" transform="translate(228,35)"/>
<path d="M0,0 L1,0 L1,45 L3,45 L3,47 L-1,48 Z " fill="#D97E4A" transform="translate(405,448)"/>
<path d="M0,0 L11,1 L11,2 L-7,5 L-15,5 L-13,4 L-13,2 Z " fill="#F9DFCD" transform="translate(429,441)"/>
<path d="M0,0 L10,1 L14,0 L14,2 L16,2 L16,4 L18,4 L18,6 L24,7 L20,8 L0,1 Z " fill="#FAE8DA" transform="translate(299,432)"/>
<path d="M0,0 L1,2 L0,23 L2,24 L-2,25 L-2,2 L-4,1 Z " fill="#CF784A" transform="translate(457,438)"/>
<path d="M0,0 L1,4 L0,47 L-1,47 L-1,6 L-3,5 Z " fill="#D47B48" transform="translate(97,250)"/>
<path d="M0,0 L1,0 L-1,29 L-2,29 L-3,6 Z " fill="#FDEBE7" transform="translate(91,261)"/>
<path d="M0,0 L4,2 L3,24 L-1,22 L1,21 Z " fill="#D17C4E" transform="translate(9,177)"/>
<path d="M0,0 L3,0 L3,2 L7,3 L8,7 L12,11 L13,17 L11,18 L4,6 Z " fill="#FCEEE1" transform="translate(197,64)"/>
<path d="M0,0 L2,1 L0,7 L-3,7 L-3,9 L-9,9 L-9,6 Z " fill="#FEF6F0" transform="translate(332,542)"/>
<path d="M0,0 L2,3 L5,16 L5,22 L3,18 L1,12 L-3,11 L-3,9 L-1,9 Z " fill="#FEFDFB" transform="translate(118,497)"/>
<path d="M0,0 L3,1 L3,26 L1,25 Z " fill="#BA6033" transform="translate(187,55)"/>
<path d="M0,0 L2,1 L3,25 L0,25 Z " fill="#BA5D2E" transform="translate(35,159)"/>
<path d="M0,0 L1,0 L3,24 L0,33 L-1,33 Z " fill="#CF774C" transform="translate(260,80)"/>
<path d="M0,0 L2,3 L5,13 L6,29 L5,29 L1,12 Z " fill="#F7DCCA" transform="translate(199,298)"/>
<path d="M0,0 L2,0 L2,2 L8,0 L6,4 L3,4 L5,11 L4,15 L0,8 Z " fill="#FDF7ED" transform="translate(217,352)"/>
<path d="M0,0 L3,0 L3,17 L1,17 L0,14 Z " fill="#BF6230" transform="translate(66,212)"/>
<path d="M0,0 L14,0 L24,2 L24,3 L9,3 L0,1 Z " fill="#FAE6D6" transform="translate(338,443)"/>
<path d="M0,0 L3,0 L3,25 L2,25 L2,9 L0,9 L-1,13 Z " fill="#DC8052" transform="translate(114,295)"/>
<path d="M0,0 L2,0 L1,13 L-1,12 L-1,6 L-6,5 L-10,6 L-10,3 L-8,1 L-1,4 Z " fill="#FDFCF9" transform="translate(30,128)"/>
<path d="M0,0 L2,1 L2,22 L-2,20 L0,19 Z " fill="#D4804B" transform="translate(174,44)"/>
<path d="M0,0 L8,0 L8,4 L12,5 L13,9 L8,7 L0,2 Z " fill="#FCEDE1" transform="translate(246,0)"/>
<path d="M0,0 L4,2 L2,3 L2,21 L0,21 Z " fill="#BA5F38" transform="translate(180,49)"/>
<path d="M0,0 L4,3 L2,3 L2,22 L0,21 Z " fill="#D27B4D" transform="translate(25,190)"/>
<path d="M0,0 L2,0 L2,21 L-2,19 L0,18 Z " fill="#D77742" transform="translate(182,52)"/>
<path d="M0,0 L3,2 L2,20 L-2,19 L0,18 Z " fill="#D37C4F" transform="translate(37,198)"/>
<path d="M0,0 L3,1 L3,21 L1,21 Z " fill="#BC5E32" transform="translate(15,183)"/>
<path d="M0,0 L3,4 L4,9 L2,9 L1,14 L-2,13 L-2,2 L-1,6 L1,6 Z " fill="#F9F3ED" transform="translate(212,39)"/>
<path d="M0,0 L2,0 L2,12 L-2,8 L-4,3 Z " fill="#C4764C" transform="translate(205,16)"/>
<path d="M0,0 L3,1 L-2,5 L-7,6 L-10,5 L-11,7 L-10,3 L-7,3 L-7,1 Z " fill="#FDF6EF" transform="translate(17,134)"/>
<path d="M0,0 L2,0 L2,6 L0,6 L0,30 L-1,30 L-1,1 Z " fill="#BB7857" transform="translate(64,106)"/>
<path d="M0,0 L1,0 L1,30 L0,30 L-1,12 L-2,12 L-2,6 Z " fill="#CB6B3F" transform="translate(111,322)"/>
<path d="M0,0 L1,2 L3,2 L6,15 L4,17 L0,6 Z " fill="#FDF1E4" transform="translate(205,324)"/>
<path d="M0,0 L1,0 L1,24 L-2,23 L-2,16 L0,16 Z " fill="#C16B3C" transform="translate(119,470)"/>
<path d="M0,0 L2,1 L-4,8 L-13,10 L-8,5 Z " fill="#FCE9DB" transform="translate(472,452)"/>
<path d="M0,0 L6,0 L4,2 L-11,6 L-15,5 L-12,5 L-12,3 L-6,2 L-4,3 L-4,1 Z " fill="#FBE6CF" transform="translate(464,434)"/>
<path d="M0,0 L2,0 L0,14 L-1,14 L-1,6 L-9,8 L-6,5 Z " fill="#FDE4D1" transform="translate(113,296)"/>
<path d="M0,0 L2,0 L2,15 L-1,15 Z " fill="#BD7250" transform="translate(251,72)"/>
<path d="M0,0 L1,0 L3,10 L2,12 L1,29 L0,29 Z " fill="#CE724B" transform="translate(201,314)"/>
<path d="M0,0 L5,2 L14,8 L12,10 L7,8 L6,4 L0,4 Z " fill="#FCEEE0" transform="translate(17,206)"/>
<path d="M0,0 L1,0 L1,14 L-1,11 L-3,6 L-3,1 Z " fill="#C5774A" transform="translate(15,138)"/>
<path d="M0,0 L4,1 L-2,5 L-3,24 L-4,24 L-5,4 L-3,2 L0,2 Z " fill="#FBE7DA" transform="translate(51,112)"/>
<path d="M0,0 L4,4 L2,4 L2,30 L0,27 Z " fill="#D78255" transform="translate(193,60)"/>
<path d="M0,0 L5,3 L6,9 L3,5 L-2,7 L-5,8 L-6,4 L-1,4 Z " fill="#FCF0E7" transform="translate(212,7)"/>
<path d="M0,0 L1,0 L1,20 L-2,16 Z " fill="#D37D51" transform="translate(128,503)"/>
<path d="M0,0 L1,0 L1,26 L-1,22 L-2,15 L-1,15 Z " fill="#D6865A" transform="translate(116,464)"/>
<path d="M0,0 L2,0 L3,4 L1,19 L0,19 Z " fill="#BA5A28" transform="translate(469,435)"/>
<path d="M0,0 L3,1 L2,17 L0,18 Z " fill="#B75E2D" transform="translate(43,202)"/>
<path d="M0,0 L2,0 L3,12 L2,16 L-2,14 L0,14 Z " fill="#D3764A" transform="translate(61,191)"/>
<path d="M0,0 L2,2 L3,8 L5,8 L5,3 L6,3 L7,17 L4,13 L0,3 Z " fill="#FDF1E5" transform="translate(68,152)"/>
<path d="M0,0 L2,0 L7,14 L8,18 L5,17 L1,6 L0,6 Z " fill="#F8E1D4" transform="translate(10,140)"/>
<path d="M0,0 L1,0 L0,11 L-4,11 L-4,14 L-6,14 L-4,8 Z " fill="#F9E6D5" transform="translate(249,138)"/>
<path d="M0,0 L2,0 L1,4 L-8,8 L-9,10 L-12,10 L-12,8 L-2,2 Z " fill="#FDEBDC" transform="translate(253,592)"/>
<path d="M0,0 L1,0 L1,22 L0,22 L0,14 L-2,14 L-1,6 Z " fill="#D48A66" transform="translate(202,138)"/>
<path d="M0,0 L4,0 L3,5 L-6,5 L-2,1 Z " fill="#FCF2E9" transform="translate(340,537)"/>
<path d="M0,0 L1,0 L5,20 L4,22 L2,15 L1,12 L-1,11 Z " fill="#FBE9DB" transform="translate(109,458)"/>
<path d="M0,0 L2,1 L0,7 L-3,8 L-7,7 Z " fill="#FEF1E4" transform="translate(264,208)"/>
<path d="M0,0 L6,1 L7,3 L9,3 L11,6 L15,7 L15,10 L10,8 L0,1 Z " fill="#FAE3D3" transform="translate(263,412)"/>
<path d="M0,0 L5,2 L9,6 L10,11 L3,5 Z " fill="#FAEBD9" transform="translate(238,389)"/>
<path d="M0,0 L2,0 L3,2 L9,4 L9,8 L5,6 L0,4 Z " fill="#FBFCFB" transform="translate(43,196)"/>
<path d="M0,0 L2,3 L2,6 L4,6 L3,14 L1,17 Z " fill="#FDE0CA" transform="translate(218,112)"/>
<path d="M0,0 L1,0 L1,22 L-1,20 L-2,14 L0,14 Z " fill="#D78153" transform="translate(120,480)"/>
<path d="M0,0 L2,3 L3,8 L2,22 L1,22 L0,10 Z " fill="#D47F54" transform="translate(205,330)"/>
<path d="M0,0 L1,0 L2,17 L3,17 L3,23 L0,21 Z " fill="#C06536" transform="translate(27,152)"/>
<path d="M0,0 L1,2 L5,2 L5,11 L4,9 L2,9 Z " fill="#FBF4E6" transform="translate(233,45)"/>
<path d="M0,0 L7,3 L12,8 L7,8 L0,2 Z " fill="#FCEEE2" transform="translate(196,577)"/>
<path d="M0,0 L2,4 L4,9 L3,19 L1,15 Z " fill="#CB794F" transform="translate(208,339)"/>
<path d="M0,0 L2,0 L4,3 L7,2 L7,9 L0,4 Z " fill="#FCF4E5" transform="translate(88,183)"/>
<path d="M0,0 L1,0 L2,17 L2,20 L-1,23 Z " fill="#D47A4C" transform="translate(229,150)"/>
<path d="M0,0 L3,0 L3,10 L0,10 Z " fill="#C26132" transform="translate(160,45)"/>
<path d="M0,0 L4,2 L2,2 L2,26 L1,26 Z " fill="#D97F4D" transform="translate(252,6)"/>
<path d="M0,0 L3,0 L3,9 L0,10 Z " fill="#BD6C44" transform="translate(109,448)"/>
<path d="M0,0 L9,1 L5,4 L-2,6 L-2,4 L0,4 Z " fill="#FCF2ED" transform="translate(246,167)"/>
<path d="M0,0 L3,4 L2,26 L1,26 Z " fill="#D8824F" transform="translate(201,70)"/>
<path d="M0,0 L2,3 L4,12 L4,16 L1,15 Z " fill="#FCE5D4" transform="translate(219,57)"/>
<path d="M0,0 L6,0 L10,4 L9,7 L0,1 Z " fill="#FAEDE1" transform="translate(173,43)"/>
<path d="M0,0 L2,0 L4,3 L4,6 L-2,5 L-4,3 Z " fill="#FBEFE5" transform="translate(388,506)"/>
<path d="M0,0 L1,0 L1,8 L-2,15 L-4,15 L-3,9 Z " fill="#FAE7D6" transform="translate(259,113)"/>
<path d="M0,0 L1,0 L1,15 L0,15 L-3,2 L0,2 Z " fill="#C67A54" transform="translate(222,54)"/>
<path d="M0,0 L3,4 L4,8 L2,16 L1,16 Z " fill="#CE7C56" transform="translate(224,27)"/>
<path d="M0,0 L7,6 L8,9 L10,10 L7,10 L7,8 L3,7 L0,4 Z " fill="#FBEAD7" transform="translate(36,185)"/>
<path d="M0,0 L2,2 L2,16 L1,16 L-1,2 Z " fill="#CA7C55" transform="translate(49,134)"/>
<path d="M0,0 L3,1 L0,10 L-2,13 L-1,1 Z " fill="#F5BF9C" transform="translate(239,115)"/>
<path d="M0,0 L8,6 L4,8 L2,8 L0,3 Z " fill="#FEF4E7" transform="translate(170,62)"/>
<path d="M0,0 L3,0 L4,2 L7,3 L8,10 L6,9 L6,5 L2,5 Z " fill="#FDF7EB" transform="translate(222,22)"/>
<path d="M0,0 L1,0 L1,15 L3,16 L-1,18 Z " fill="#D57F50" transform="translate(370,501)"/>
<path d="M0,0 L2,4 L4,11 L3,15 L0,9 Z " fill="#FCECE0" transform="translate(114,482)"/>
<path d="M0,0 L2,0 L0,4 L-2,6 L-8,6 L-3,2 Z " fill="#FDEDE0" transform="translate(457,462)"/>
<path d="M0,0 L2,0 L2,16 L1,16 L1,7 L-1,7 Z " fill="#BC683F" transform="translate(114,304)"/>
<path d="M0,0 L3,0 L3,13 L2,13 L1,4 L-1,4 L-2,6 L-3,3 Z " fill="#C26F48" transform="translate(105,241)"/>
<path d="M0,0 L1,2 L1,7 L-4,5 L-5,1 Z " fill="#FBFBEE" transform="translate(109,193)"/>
<path d="M0,0 L4,5 L7,7 L6,10 L-2,4 L0,3 Z " fill="#FBD6BB" transform="translate(63,182)"/>
<path d="M0,0 L3,4 L2,6 L1,20 L0,20 L-1,3 Z " fill="#CC7748" transform="translate(76,172)"/>
<path d="M0,0 L3,1 L-5,10 L-6,6 L-4,6 L-4,4 L-2,4 L-2,2 L0,2 Z " fill="#FBEBDA" transform="translate(184,177)"/>
<path d="M0,0 L2,2 L5,11 L3,13 L-1,3 Z " fill="#B77650" transform="translate(24,132)"/>
<path d="M0,0 L5,2 L11,6 L9,7 L0,3 Z " fill="#FCE9DF" transform="translate(185,570)"/>
<path d="M0,0 L2,0 L3,3 L5,3 L5,5 L-5,4 L-2,1 Z " fill="#FDF2ED" transform="translate(437,475)"/>
<path d="M0,0 L1,0 L1,11 L-1,16 L-2,16 L-1,4 Z " fill="#DA9E7A" transform="translate(112,310)"/>
<path d="M0,0 L1,0 L0,9 L-2,12 L-3,2 L0,2 Z " fill="#FEEEDD" transform="translate(88,290)"/>
<path d="M0,0 L2,0 L2,2 L-1,4 L-2,6 L-9,7 L-5,3 Z " fill="#FBE5D6" transform="translate(382,510)"/>
<path d="M0,0 L2,1 L0,6 L9,5 L7,7 L3,8 L-1,7 L-1,1 Z " fill="#F8E7DB" transform="translate(83,303)"/>
<path d="M0,0 L1,0 L0,19 L-1,19 L-2,3 Z " fill="#F7D6CB" transform="translate(91,261)"/>
<path d="M0,0 L6,1 L11,3 L11,4 L3,4 L0,2 Z " fill="#FDEFDE" transform="translate(52,225)"/>
<path d="M0,0 L1,0 L1,11 L0,9 L-2,9 L-3,12 L-2,6 Z " fill="#CB8E68" transform="translate(245,104)"/>
<path d="M0,0 L10,5 L10,6 L2,6 Z " fill="#F8E6D5" transform="translate(217,590)"/>
<path d="M0,0 L1,2 L-2,7 L-8,8 L-7,6 L-5,6 L-5,4 Z " fill="#FAECD9" transform="translate(210,285)"/>
<path d="M0,0 L5,4 L4,6 L2,11 L1,11 Z " fill="#CF825F" transform="translate(48,173)"/>
<path d="M0,0 L1,0 L0,7 L-2,11 L-4,10 L-2,4 Z " fill="#F9ECD8" transform="translate(254,128)"/>
<path d="M0,0 L6,3 L6,5 L-1,5 Z " fill="#FEF1E6" transform="translate(228,597)"/>
<path d="M0,0 L2,0 L0,4 L-8,6 L-5,3 Z " fill="#FCE7D9" transform="translate(271,581)"/>
<path d="M0,0 L4,0 L4,9 L2,7 Z " fill="#C57A58" transform="translate(129,524)"/>
<path d="M0,0 L7,5 L5,7 L4,5 L1,9 Z " fill="#CF8058" transform="translate(91,189)"/>
<path d="M0,0 L4,5 L7,10 L3,10 L2,4 L0,4 Z " fill="#F8E7D5" transform="translate(23,167)"/>
<path d="M0,0 L3,4 L5,10 L2,10 L0,4 Z " fill="#F9E1D1" transform="translate(192,86)"/>
<path d="M0,0 L6,1 L8,5 L7,8 L0,1 Z " fill="#FDEDDA" transform="translate(189,55)"/>
<path d="M0,0 L2,0 L1,5 L-6,5 L-2,1 Z " fill="#FCF2E6" transform="translate(396,501)"/>
<path d="M0,0 L8,1 L10,5 L4,3 Z " fill="#FBEADE" transform="translate(280,423)"/>
<path d="M0,0 L7,2 L8,6 L4,4 Z " fill="#FBE7D8" transform="translate(255,406)"/>
<path d="M0,0 L2,3 L4,8 L3,13 L1,10 Z " fill="#C67F5A" transform="translate(212,349)"/>
<path d="M0,0 L1,0 L1,5 L-2,6 L-2,8 L-5,7 Z " fill="#FAE7DB" transform="translate(256,216)"/>
<path d="M0,0 L4,2 L6,5 L0,6 Z " fill="#FDF0E1" transform="translate(0,192)"/>
<path d="M0,0 L1,0 L1,15 L0,15 L0,5 L-3,4 Z " fill="#CD7B4E" transform="translate(187,176)"/>
<path d="M0,0 L2,4 L4,13 L0,9 Z " fill="#F9DDC5" transform="translate(50,150)"/>
<path d="M0,0 L9,5 L9,6 L2,5 Z " fill="#FCECD8" transform="translate(161,554)"/>
<path d="M0,0 L2,1 L1,5 L-6,5 L-1,1 Z " fill="#FBE7D8" transform="translate(422,484)"/>
<path d="M0,0 L4,1 L7,4 L4,4 L3,6 L0,4 Z " fill="#C57B51" transform="translate(268,417)"/>
<path d="M0,0 L4,4 L3,11 L1,9 Z " fill="#CE7D52" transform="translate(224,372)"/>
<path d="M0,0 L1,0 L1,10 L-2,12 L-2,6 Z " fill="#C07958" transform="translate(111,322)"/>
<path d="M0,0 L2,0 L1,3 L-1,4 L-9,4 L-5,2 Z " fill="#FDEDDF" transform="translate(102,304)"/>
<path d="M0,0 L8,2 L6,4 L1,3 L0,5 L-1,1 Z " fill="#FEF8F0" transform="translate(27,214)"/>
<path d="M0,0 L4,4 L0,5 L-1,8 L-2,4 L0,4 Z " fill="#FBF1E2" transform="translate(32,180)"/>
<path d="M0,0 L2,0 L1,5 L-5,7 Z " fill="#F9D1B5" transform="translate(222,179)"/>
<path d="M0,0 L1,2 L0,8 L-5,8 L-3,4 Z " fill="#FCEAD6" transform="translate(230,170)"/>
<path d="M0,0 L3,0 L3,14 L2,14 L1,3 L-1,1 Z " fill="#CD754C" transform="translate(56,111)"/>
<path d="M0,0 L2,0 L2,7 L-1,7 L-1,1 Z " fill="#BB6630" transform="translate(157,47)"/>
<path d="M0,0 L3,1 L1,13 L0,13 L0,2 L-2,1 Z " fill="#CE7F56" transform="translate(213,11)"/>
<path d="M0,0 L1,2 L0,4 L-4,4 L-4,6 L-8,5 Z " fill="#FDECDB" transform="translate(320,550)"/>
<path d="M0,0 L2,0 L2,2 L-1,2 L-3,7 L-7,5 L-2,3 L-2,1 Z " fill="#FAE5D6" transform="translate(447,468)"/>
<path d="M0,0 L2,0 L2,6 L4,7 L0,9 Z " fill="#D38052" transform="translate(436,467)"/>
<path d="M0,0 L1,0 L1,11 L3,12 L-1,14 Z " fill="#CC7540" transform="translate(471,440)"/>
<path d="M0,0 L2,0 L2,10 L0,7 L0,2 L-2,1 Z " fill="#D57E51" transform="translate(170,193)"/>
<path d="M0,0 L2,1 L-2,10 L-3,10 L-3,4 Z " fill="#FDF2E5" transform="translate(195,159)"/>
<path d="M0,0 L3,4 L5,9 L0,6 Z " fill="#FCE9D7" transform="translate(18,158)"/>
<path d="M0,0 L3,0 L4,10 L2,7 L0,3 Z " fill="#F9E7D3" transform="translate(26,134)"/>
<path d="M0,0 L2,0 L3,9 L1,9 L0,11 Z " fill="#F9ECDC" transform="translate(65,105)"/>
<path d="M0,0 L1,0 L1,9 L-3,13 Z " fill="#FBE6D6" transform="translate(263,98)"/>
<path d="M0,0 L2,3 L3,14 L0,14 Z " fill="#D4956B" transform="translate(236,58)"/>
<path d="M0,0 L2,2 L4,7 L3,11 L1,8 Z " fill="#C78664" transform="translate(228,35)"/>
<path d="M0,0 L2,0 L3,5 L-1,7 L-1,1 Z " fill="#CA7A4A" transform="translate(268,577)"/>
<path d="M0,0 L2,1 L-1,5 L-6,5 L-2,1 Z " fill="#FBE8D6" transform="translate(294,566)"/>
<path d="M0,0 L2,0 L2,5 L-3,3 L-5,1 Z " fill="#CB8055" transform="translate(154,545)"/>
<path d="M0,0 L1,0 L1,11 L3,12 L-1,14 Z " fill="#D48452" transform="translate(331,530)"/>
<path d="M0,0 L2,0 L3,5 L-1,7 L-1,1 Z " fill="#CA7549" transform="translate(393,497)"/>
<path d="M0,0 L0,3 L-2,5 L-7,5 L-4,2 Z " fill="#FBEADC" transform="translate(431,479)"/>
<path d="M0,0 L2,2 L3,10 L0,8 Z " fill="#AE6A45" transform="translate(113,470)"/>
<path d="M0,0 L6,1 L7,6 L0,1 Z " fill="#FEECD9" transform="translate(248,400)"/>
<path d="M0,0 L2,0 L2,6 L0,6 L-1,10 Z " fill="#BE8669" transform="translate(114,298)"/>
<path d="M0,0 L8,4 L5,5 L-2,3 L0,2 Z " fill="#FAD7B7" transform="translate(60,206)"/>
<path d="M0,0 L3,1 L5,6 L-1,5 L1,4 Z " fill="#F9E7D6" transform="translate(55,202)"/>
<path d="M0,0 L5,0 L7,5 L2,3 Z " fill="#FAE8D7" transform="translate(96,192)"/>
<path d="M0,0 L4,2 L3,8 L1,8 Z " fill="#CC7844" transform="translate(56,182)"/>
<path d="M0,0 L4,0 L5,2 L8,4 L3,5 Z " fill="#FCF1E6" transform="translate(252,163)"/>
<path d="M0,0 L1,4 L-1,8 L-4,8 L-2,3 Z " fill="#FCE6D6" transform="translate(242,152)"/>
<path d="M0,0 L5,2 L4,5 L1,5 L-2,4 Z " fill="#F8EBDF" transform="translate(21,129)"/>
<path d="M0,0 L1,0 L1,10 L-2,10 Z " fill="#CB825D" transform="translate(222,118)"/>
<path d="M0,0 L4,4 L5,8 L1,7 Z " fill="#F8E4D7" transform="translate(203,24)"/>
<path d="M0,0 L2,1 L0,5 L-6,5 L-3,2 Z " fill="#FBEBDE" transform="translate(332,542)"/>
<path d="M0,0 L2,3 L3,9 L1,9 L0,7 Z " fill="#FCE9D8" transform="translate(118,497)"/>
<path d="M0,0 L2,4 L0,10 L-1,10 L-2,4 Z " fill="#FBE9D2" transform="translate(93,251)"/>
<path d="M0,0 L1,4 L0,8 L-3,7 L-1,2 Z " fill="#FDEDE0" transform="translate(247,229)"/>
<path d="M0,0 L6,0 L2,4 L-1,3 Z " fill="#FDEDDE" transform="translate(162,194)"/>
<path d="M0,0 L2,0 L2,7 L-2,3 Z " fill="#D27A56" transform="translate(49,192)"/>
<path d="M0,0 L5,1 L6,5 L5,7 Z " fill="#FBEEE1" transform="translate(80,177)"/>
<path d="M0,0 L1,0 L1,10 L-2,7 Z " fill="#BC673D" transform="translate(64,173)"/>
<path d="M0,0 L1,4 L0,9 L-3,7 L-1,1 Z " fill="#CB876A" transform="translate(198,157)"/>
<path d="M0,0 L3,0 L3,7 L0,4 Z " fill="#B86B40" transform="translate(19,156)"/>
<path d="M0,0 L4,1 L5,8 L2,5 Z " fill="#FCEADC" transform="translate(34,152)"/>
<path d="M0,0 L2,1 L3,9 L1,8 Z " fill="#FAE1C3" transform="translate(65,142)"/>
<path d="M0,0 L3,2 L1,10 L0,7 Z " fill="#CD7F52" transform="translate(217,16)"/>
</svg>
