<?xml version="1.0" encoding="UTF-8"?>
<!-- Generator: visioncortex VTracer 0.6.5 -->
<svg version="1.1" xmlns="http://www.w3.org/2000/svg" width="225" height="225">
<path d="M0,0 L225,0 L225,225 L0,225 Z " fill="#091139" transform="translate(0,0)"/>
<path d="M0,0 L12,0 L16,2 L16,0 L27,0 L27,41 L17,41 L17,39 L10,42 L2,42 L-8,37 L-12,32 L-14,28 L-14,15 L-10,7 L-2,1 Z " fill="#92D8E3" transform="translate(38,98)"/>
<path d="M0,0 L12,0 L17,2 L17,0 L27,0 L27,41 L14,41 L10,42 L3,42 L-5,39 L-13,30 L-14,28 L-14,18 L-12,10 L-4,2 Z " fill="#93D9E4" transform="translate(139,98)"/>
<path d="M0,0 L17,0 L17,10 L3,11 L2,15 L11,17 L16,22 L17,33 L13,39 L8,42 L-8,42 L-8,31 L7,31 L7,27 L-1,25 L-6,21 L-8,18 L-8,9 L-5,4 Z " fill="#92D8E3" transform="translate(184,98)"/>
<path d="M0,0 L10,0 L10,13 L22,13 L22,24 L10,24 L10,54 L0,54 Z " fill="#93D9E4" transform="translate(76,85)"/>
<path d="M0,0 L10,0 L10,54 L0,54 Z " fill="#96DEE8" transform="translate(106,85)"/>
<path d="M0,0 L7,1 L12,5 L12,15 L8,20 L6,21 L-2,21 L-7,16 L-8,15 L-8,7 L-4,2 Z " fill="#0D163E" transform="translate(143,108)"/>
<path d="M0,0 L9,0 L14,5 L14,15 L8,20 L0,20 L-5,15 L-6,13 L-6,5 Z " fill="#0B143B" transform="translate(40,109)"/>
<path d="M0,0 L14,0 L13,2 L1,2 L1,4 L5,4 L5,6 L-1,5 Z " fill="#1B2A50" transform="translate(187,108)"/>
<path d="M0,0 L8,0 L8,7 L2,2 Z " fill="#EAEBEE" transform="translate(217,0)"/>
<path d="M0,0 L4,5 L7,8 L0,8 Z " fill="#ECEDF0" transform="translate(0,217)"/>
<path d="M0,0 L1,0 L1,8 L-6,8 L-1,3 Z " fill="#EDEEF0" transform="translate(224,217)"/>
<path d="M0,0 L7,0 L1,7 L0,7 Z " fill="#F2F2F4" transform="translate(0,0)"/>
</svg>
