<?xml version="1.0" encoding="UTF-8"?>
<!-- Generator: visioncortex VTracer 0.6.5 -->
<svg version="1.1" xmlns="http://www.w3.org/2000/svg" width="200" height="200">
<path d="M0,0 L200,0 L200,200 L0,200 Z " fill="#5630C2" transform="translate(0,0)"/>
<path d="M0,0 L12,0 L21,6 L25,12 L26,15 L26,25 L22,33 L20,35 L24,34 L28,31 L31,31 L27,24 L27,16 L32,9 L36,7 L45,7 L50,10 L54,16 L54,24 L51,30 L59,35 L64,40 L66,45 L66,49 L40,49 L43,55 L43,63 L-31,63 L-31,56 L-27,48 L-54,48 L-53,42 L-49,36 L-39,29 L-42,24 L-42,15 L-38,9 L-35,7 L-24,7 L-19,10 L-16,15 L-16,24 L-19,30 L-14,32 L-10,35 L-9,34 L-14,26 L-14,14 L-9,6 L-4,2 Z " fill="#FDFCFE" transform="translate(94,27)"/>
<path d="M0,0 L132,0 L132,77 L0,77 Z M60,6 L52,11 L48,16 L46,20 L46,32 L51,40 L49,40 L45,37 L41,35 L44,30 L44,21 L40,15 L36,13 L25,13 L20,17 L18,21 L18,30 L21,35 L11,42 L7,48 L6,54 L33,54 L29,62 L29,69 L103,69 L103,61 L100,55 L126,55 L125,49 L122,44 L115,38 L111,35 L114,30 L114,22 L110,16 L105,13 L96,13 L90,17 L87,22 L87,30 L91,37 L87,38 L83,41 L80,41 L85,34 L86,31 L86,21 L82,13 L74,7 L72,6 Z " fill="#5530C2" transform="translate(34,21)"/>
<path d="M0,0 L144,0 L147,3 L147,92 L145,95 L77,95 L77,105 L109,105 L109,112 L35,112 L35,105 L67,105 L67,95 L0,95 L-3,92 L-3,3 Z M6,9 L6,86 L138,86 L138,9 Z " fill="#F7F5FC" transform="translate(28,12)"/>
<path d="M0,0 L6,0 L7,10 L10,5 L24,5 L25,17 L29,18 L30,6 L35,6 L35,22 L21,22 L18,18 L17,9 L12,13 L14,18 L17,22 L10,22 L7,18 L6,23 L0,23 Z " fill="#EEEBF9" transform="translate(101,133)"/>
<path d="M0,0 L5,0 L5,4 L14,4 L17,9 L17,13 L19,13 L20,8 L22,4 L27,4 L24,13 L17,29 L12,29 L13,17 L9,8 L5,8 L5,16 L9,16 L9,21 L2,20 L0,18 L-1,4 Z " fill="#F4F2FB" transform="translate(162,166)"/>
<path d="M0,0 L5,0 L7,0 L13,0 L17,1 L18,0 L25,0 L28,3 L28,17 L23,17 L22,5 L18,5 L17,17 L11,17 L10,5 L6,5 L5,17 L0,17 Z " fill="#F3F1FA" transform="translate(83,170)"/>
<path d="M0,0 L13,0 L17,1 L18,0 L24,0 L28,3 L28,17 L23,17 L22,6 L18,5 L17,6 L16,17 L11,17 L10,5 L6,5 L5,17 L0,17 Z " fill="#F6F4FB" transform="translate(52,170)"/>
<path d="M0,0 L11,0 L16,3 L16,10 L12,12 L16,19 L16,21 L10,21 L7,15 L6,22 L0,22 Z " fill="#EFECF9" transform="translate(64,134)"/>
<path d="M0,0 L7,1 L11,5 L11,14 L7,17 L-2,17 L-6,13 L-6,5 L-3,1 Z " fill="#F7F5FC" transform="translate(88,138)"/>
<path d="M0,0 L7,0 L12,4 L13,10 L9,16 L7,17 L1,17 L-4,13 L-5,11 L-5,5 Z " fill="#F4F1FB" transform="translate(37,170)"/>
<path d="M0,0 L7,0 L12,4 L13,7 L7,7 L6,6 L-1,6 L-1,14 L0,16 L6,16 L7,15 L13,15 L11,19 L6,22 L0,22 L-6,18 L-8,14 L-8,8 L-4,2 Z " fill="#F5F3FB" transform="translate(18,165)"/>
<path d="M0,0 L13,0 L17,4 L17,17 L11,17 L10,5 L6,5 L5,17 L0,17 Z " fill="#F2EFFA" transform="translate(134,170)"/>
<path d="M0,0 L5,0 L6,11 L11,11 L12,0 L17,0 L17,17 L4,17 L0,12 Z " fill="#E9E4F7" transform="translate(114,170)"/>
<path d="M0,0 L4,0 L5,10 L10,12 L11,0 L16,0 L16,16 L2,16 L0,14 Z " fill="#FCFCFE" transform="translate(120,139)"/>
<path d="M0,0 L5,0 L8,2 L6,5 L5,17 L0,17 Z " fill="#FDFDFE" transform="translate(83,170)"/>
<path d="M0,0 L5,0 L5,17 L0,17 Z " fill="#F0EDF9" transform="translate(153,170)"/>
<path d="M0,0 L2,1 L4,11 L8,17 L9,19 L5,18 L1,15 L-4,13 L-1,7 Z " fill="#6644C8" transform="translate(78,44)"/>
<path d="M0,0 L4,0 L4,16 L0,16 L0,14 L-2,13 L-1,11 Z " fill="#FEFEFE" transform="translate(126,170)"/>
<path d="M0,0 L4,1 L6,3 L6,6 L-1,10 L-6,11 L-1,3 Z " fill="#613EC6" transform="translate(119,52)"/>
<path d="M0,0 L5,1 L5,7 L4,8 L-1,8 L-2,2 Z " fill="#5D39C5" transform="translate(39,174)"/>
<path d="M0,0 L5,1 L4,8 L-1,7 L-2,2 Z " fill="#613FC6" transform="translate(89,143)"/>
<path d="M0,0 L14,0 L14,11 L13,11 L13,1 L9,1 L9,13 L8,13 L7,4 L5,5 L6,1 L0,1 Z " fill="#AF9EE2" transform="translate(111,138)"/>
<path d="M0,0 L5,1 L4,5 L0,5 L-1,1 Z " fill="#EFEBF9" transform="translate(154,163)"/>
<path d="M0,0 L5,1 L5,5 L0,5 Z " fill="#5833C3" transform="translate(70,138)"/>
</svg>
