<?xml version="1.0" encoding="UTF-8"?>
<!-- Generator: visioncortex VTracer 0.6.5 -->
<svg version="1.1" xmlns="http://www.w3.org/2000/svg" width="640" height="384">
<path d="M0,0 L640,0 L640,384 L0,384 Z " fill="#FEFEFE" transform="translate(0,0)"/>
<path d="M0,0 L28,0 L77,49 L81,47 L86,42 L128,0 L156,0 L156,150 L128,150 L127,57 L79,105 L75,103 L55,83 L50,78 L29,57 L28,150 L0,150 Z " fill="#F1901F" transform="translate(300,117)"/>
<path d="M0,0 L36,0 L36,150 L0,150 L-1,53 L-89,141 L-94,145 L-98,150 L-149,150 L-147,146 L-84,83 L-79,78 L-71,71 L-66,66 L-61,61 Z " fill="#F1901F" transform="translate(255,117)"/>
<path d="M0,0 L45,0 L99,54 L103,52 L155,0 L200,0 L194,7 L152,49 L147,53 L146,55 L144,55 L144,57 L136,64 L50,150 L5,150 L11,143 L54,100 L56,100 L58,96 L62,92 L64,92 L65,89 L70,84 L76,79 L74,75 L0,1 Z " fill="#F19020" transform="translate(44,117)"/>
<path d="M0,0 L28,0 L28,122 L106,122 L133,149 L133,150 L0,150 Z " fill="#F19121" transform="translate(464,117)"/>
<path d="M0,0 L3,1 L4,6 L4,8 L6,6 L9,6 L9,4 L13,4 L14,1 L14,5 L-47,66 L-49,66 L-51,70 L-56,75 L-64,82 L-68,87 L-76,94 L-127,145 L-131,141 L-132,138 L-55,61 L-53,61 L-53,59 L-51,59 L-50,56 L-48,56 L-47,53 L-39,46 L2,5 L-42,5 L-50,13 L-51,10 L-53,9 L-52,7 L-48,6 L-46,3 L-41,2 L-1,1 Z " fill="#FDFCF9" transform="translate(241,113)"/>
<path d="M0,0 L2,0 L3,5 L5,6 L5,4 L7,4 L8,154 L9,158 L-2,157 L-2,4 L-1,4 L0,153 Z " fill="#FCF4EA" transform="translate(293,113)"/>
<path d="M0,0 L2,1 L2,147 L-2,147 L-2,1 Z " fill="#F18F1D" transform="translate(467,119)"/>
<path d="M0,0 L28,0 L28,1 L3,2 L3,148 L27,149 L27,56 L28,56 L28,150 L0,150 Z " fill="#F29830" transform="translate(300,117)"/>
<path d="M0,0 L1,0 L1,120 L79,119 L81,121 L78,122 L0,122 Z M79,118 Z " fill="#FDFAF2" transform="translate(492,117)"/>
<path d="M0,0 L7,6 L39,38 L37,42 L31,46 L31,43 L33,43 L32,36 L26,34 L25,28 L23,27 L24,25 L22,25 L21,27 L21,23 L19,23 L19,21 L17,21 L17,18 L13,17 L13,15 L11,15 L7,10 L7,8 L3,7 L0,2 Z " fill="#FCF8F1" transform="translate(82,156)"/>
<path d="M0,0 L2,0 L4,4 L-28,36 L-30,32 L-28,32 L-28,30 L-23,26 L-22,22 L-17,23 L-17,20 L-14,20 L-13,15 L-10,14 L-10,11 L-5,11 L-4,5 L0,3 Z " fill="#F19C36" transform="translate(194,222)"/>
<path d="M0,0 L7,6 L36,35 L33,36 L29,32 L29,30 L26,31 L25,28 L20,24 L15,19 L9,12 L4,7 L3,4 L0,3 Z " fill="#FBF2E5" transform="translate(46,120)"/>
<path d="M0,0 L4,2 L-2,9 L-19,26 L-21,23 L-20,21 L-18,20 L-14,18 L-14,16 L-11,16 L-10,7 L-7,7 L-6,3 L-5,5 L-1,5 Z " fill="#FCF7F0" transform="translate(241,125)"/>
<path d="M0,0 L2,1 L-1,7 L-5,9 L-5,11 L-7,12 L-8,15 L-3,14 L-5,18 L-8,21 L-11,20 L-13,16 L-16,16 L-2,2 L0,2 Z " fill="#FBF2E6" transform="translate(188,172)"/>
<path d="M0,0 L3,1 L1,1 L0,9 L-3,8 L-4,12 L-8,18 L-14,19 L-13,15 L-11,15 L-11,13 L-7,10 L-8,8 L-5,8 L-4,3 L0,2 Z " fill="#FCFDFC" transform="translate(194,168)"/>
<path d="M0,0 L1,4 L3,5 L1,8 L-1,8 L-2,12 L-5,12 L-9,12 L-13,14 L-7,7 Z " fill="#FDF8F0" transform="translate(108,252)"/>
<path d="M0,0 L1,3 L48,4 L48,5 L-3,5 L-1,1 Z " fill="#F3A751" transform="translate(109,262)"/>
<path d="M0,0 L2,4 L-3,6 L-2,14 L-10,11 L-4,4 Z " fill="#FDF9F2" transform="translate(137,223)"/>
<path d="M0,0 L4,1 L13,10 L18,10 L15,14 L11,12 L0,1 Z " fill="#FAF4EA" transform="translate(364,153)"/>
<path d="M0,0 L45,0 L42,3 L41,2 L0,1 Z " fill="#F29B35" transform="translate(199,117)"/>
<path d="M0,0 L3,3 L-5,11 L-8,7 L-6,7 L-5,2 L-1,2 Z " fill="#FBF6ED" transform="translate(174,137)"/>
<path d="M0,0 L2,1 L0,5 L-8,13 L-10,9 L-7,5 L-4,5 L-4,3 L0,3 Z " fill="#FCF5EC" transform="translate(254,114)"/>
<path d="M0,0 L4,1 L8,4 L8,7 L12,9 L16,12 L15,16 L0,1 Z " fill="#FAF7F2" transform="translate(348,137)"/>
<path d="M0,0 L4,1 L3,6 L-3,8 L-5,7 L-3,3 Z " fill="#F1962B" transform="translate(163,208)"/>
<path d="M0,0 L3,3 L-4,10 L-7,9 L-7,5 L-4,5 L-4,3 L-2,3 L-2,1 Z " fill="#FDFAF5" transform="translate(149,162)"/>
<path d="M0,0 L5,1 L5,3 L7,3 L7,5 L9,5 L9,7 L12,8 L15,13 L12,13 L0,1 Z " fill="#FCF4E8" transform="translate(579,248)"/>
<path d="M0,0 L3,2 L-9,14 L-11,11 L-10,9 L-8,8 L-4,6 L-4,4 L-1,4 Z " fill="#FCF1E2" transform="translate(231,137)"/>
<path d="M0,0 L2,2 L-11,15 L-12,11 L-8,10 L-8,8 L-6,8 L-6,6 L-4,6 L-4,2 Z " fill="#F29A36" transform="translate(242,178)"/>
<path d="M0,0 L2,2 L-7,11 L-8,8 L-10,7 L-9,5 L-5,4 L-3,1 Z " fill="#FDF6EE" transform="translate(198,115)"/>
<path d="M0,0 L1,3 L2,7 L-4,7 L-4,9 L-9,12 L-11,11 Z " fill="#F19A33" transform="translate(139,232)"/>
<path d="M0,0 L3,1 L-5,9 L-7,9 L-9,13 L-11,14 L-10,10 L-8,6 L-5,5 L-2,2 L0,2 Z " fill="#FBECDB" transform="translate(199,170)"/>
<path d="M0,0 L6,1 L0,8 L-2,9 L-4,4 Z " fill="#FDF3E9" transform="translate(204,161)"/>
<path d="M0,0 L1,2 L3,2 L3,7 L-1,8 L-1,10 L-3,10 L-2,6 L-2,5 L-6,6 L-5,4 L-3,4 L-2,1 Z " fill="#FDF6EF" transform="translate(196,165)"/>
<path d="M0,0 L2,1 L3,7 L-1,9 L0,3 L-2,8 L-4,10 L-5,5 Z " fill="#FCFDFE" transform="translate(175,187)"/>
<path d="M0,0 L7,6 L7,9 L1,9 Z " fill="#FCF9F3" transform="translate(328,173)"/>
<path d="M0,0 L7,6 L11,11 L5,11 L4,8 L1,4 Z " fill="#F4982B" transform="translate(342,132)"/>
<path d="M0,0 L3,1 L2,3 L0,2 L-1,6 L-5,8 L-6,11 L-8,11 L-9,13 L-11,11 Z " fill="#F29C39" transform="translate(127,244)"/>
<path d="M0,0 L7,6 L10,10 L5,10 L3,6 L0,6 Z " fill="#FBF1E7" transform="translate(360,205)"/>
<path d="M0,0 L7,6 L10,10 L2,8 L3,4 L-1,4 Z " fill="#EC9F36" transform="translate(130,159)"/>
<path d="M0,0 L4,0 L7,2 L0,9 L-2,8 L-2,5 L1,5 Z " fill="#F19932" transform="translate(207,208)"/>
<path d="M0,0 L7,6 L7,7 L0,8 L-1,1 Z " fill="#F3962A" transform="translate(330,120)"/>
<path d="M0,0 L4,1 L7,3 L7,5 L11,6 L8,9 L0,1 Z " fill="#FCF5EB" transform="translate(570,239)"/>
<path d="M0,0 L0,3 L-1,7 L-4,10 L-9,10 L-3,3 Z " fill="#F1A245" transform="translate(95,220)"/>
<path d="M0,0 L1,4 L3,8 L-3,8 L-5,5 Z " fill="#F1982F" transform="translate(115,256)"/>
<path d="M0,0 L3,0 L4,3 L-1,9 L-3,6 L-2,4 L-4,3 L1,2 Z " fill="#FCF7EE" transform="translate(109,200)"/>
<path d="M0,0 L4,1 L-3,8 L-5,5 L-3,5 L-2,1 Z " fill="#F19A35" transform="translate(224,195)"/>
<path d="M0,0 L4,2 L-3,9 L-5,5 L-2,5 L-2,3 L0,2 Z " fill="#F29C39" transform="translate(202,216)"/>
<path d="M0,0 L0,3 L-3,10 L-5,10 L-6,6 Z " fill="#FCF0E2" transform="translate(171,189)"/>
<path d="M0,0 L2,4 L-1,7 L-6,6 L-2,1 Z " fill="#FCF3E8" transform="translate(166,257)"/>
<path d="M0,0 L2,2 L-5,8 L-6,4 Z " fill="#FCF3E9" transform="translate(406,136)"/>
<path d="M0,0 L2,0 L0,4 L-6,9 L-7,6 L-4,6 L-4,3 L-2,3 L-2,1 Z " fill="#F19932" transform="translate(250,170)"/>
<path d="M0,0 L2,4 L-4,7 L-7,7 Z " fill="#FAF1E2" transform="translate(137,223)"/>
<path d="M0,0 L0,3 L1,8 L-3,11 L-4,8 L-1,1 Z " fill="#FBF3E8" transform="translate(175,189)"/>
<path d="M0,0 L7,6 L8,8 L2,8 L1,4 Z " fill="#EAA23C" transform="translate(122,151)"/>
<path d="M0,0 L7,6 L8,8 L0,6 Z " fill="#EBA13F" transform="translate(108,137)"/>
<path d="M0,0 L2,0 L2,7 L-1,7 L-4,3 L0,2 Z " fill="#FDF6EE" transform="translate(597,259)"/>
<path d="M0,0 L1,4 L0,7 L-7,8 L-5,5 L-3,5 L-1,1 Z " fill="#F2A142" transform="translate(103,212)"/>
<path d="M0,0 L1,3 L-5,8 L-5,4 L-3,2 L0,2 Z " fill="#F09D3B" transform="translate(206,152)"/>
<path d="M0,0 L1,2 L0,7 L-6,7 Z " fill="#FCF3E6" transform="translate(117,243)"/>
<path d="M0,0 L1,2 L0,6 L-7,8 L-1,1 Z " fill="#FAEEDC" transform="translate(148,212)"/>
<path d="M0,0 L2,2 L-5,8 L-6,4 L-2,4 L-2,1 Z " fill="#FCEFDE" transform="translate(219,150)"/>
<path d="M0,0 L7,6 L8,8 L3,7 L0,4 Z " fill="#EAA547" transform="translate(98,127)"/>
<path d="M0,0 L1,2 L5,3 L5,6 L-2,4 Z " fill="#F09831" transform="translate(178,193)"/>
<path d="M0,0 L7,6 L3,7 L0,4 Z " fill="#F5962A" transform="translate(370,160)"/>
<path d="M0,0 L2,2 L-5,8 L-4,3 L-1,3 Z " fill="#FCF1E5" transform="translate(414,128)"/>
<path d="M0,0 L7,6 L8,8 L3,7 L2,4 L-1,2 Z " fill="#E8A64B" transform="translate(90,119)"/>
<path d="M0,0 L4,1 L-2,6 L-2,1 Z " fill="#FDF1E1" transform="translate(160,152)"/>
<path d="M0,0 L4,1 L3,4 L-3,4 Z " fill="#F19B35" transform="translate(155,216)"/>
<path d="M0,0 L3,0 L5,3 L1,5 L-3,1 Z " fill="#F29933" transform="translate(355,196)"/>
<path d="M0,0 L3,2 L1,6 L-2,6 Z " fill="#FAEEE1" transform="translate(118,192)"/>
<path d="M0,0 L3,1 L-2,6 L-4,6 L-3,2 Z " fill="#FCEFDE" transform="translate(147,166)"/>
<path d="M0,0 L1,3 L1,5 L-5,6 Z " fill="#F29F3E" transform="translate(139,232)"/>
<path d="M0,0 L1,4 L-1,6 L-5,5 Z " fill="#F2A245" transform="translate(85,230)"/>
<path d="M0,0 L2,4 L2,6 L-4,5 Z " fill="#FBF1E2" transform="translate(153,207)"/>
<path d="M0,0 L5,5 L-2,4 Z " fill="#FAF1E4" transform="translate(355,200)"/>
<path d="M0,0 L2,0 L0,4 L-3,6 L-4,3 Z " fill="#FAEDDC" transform="translate(183,186)"/>
</svg>
