<svg height="48" width="48" xmlns="http://www.w3.org/2000/svg" xmlns:xlink="http://www.w3.org/1999/xlink"><linearGradient id="a" gradientUnits="userSpaceOnUse" x1="3.99954" x2="43.99954" y1="24.00455" y2="24.00455"><stop offset="0" stop-color="#ffc35a"/><stop offset="1" stop-color="#faae2a"/></linearGradient><linearGradient id="b" gradientUnits="userSpaceOnUse" x1="23.66882" x2="41.66882" y1="7.981105" y2="25.981105"><stop offset="0" stop-color="#383e51"/><stop offset="1" stop-color="#655c6f" stop-opacity="0"/></linearGradient><rect fill="url(#a)" height="40" opacity=".9" rx="20" stroke-opacity=".550265" stroke-width="2.8" width="40" x="4.005363" y="4"/><path d="m4.0117 23.504555c-.004.16686-.0117.33212-.0117.5 0 11.07999 8.92001 20 20 20s20-8.92001 20-20c0-.16788-.008-.33315-.0117-.5-.26418 10.84657-9.07584 19.5-19.98828 19.5s-19.7241-8.65343-19.98828-19.5z" opacity=".15" stroke-opacity=".550265" stroke-width="2.8"/><path d="m36.888672 8.6953125-7.751953 24.2226565-5-13-2 2-7 16 4.707031 5.648437c.779526.163578 1.576056.281066 2.386719.351563h3.539062c10.24423-.890854 18.230469-9.434954 18.230469-19.917969 0-6.158056-2.761216-11.641583-7.111328-15.3046875z" fill="url(#b)" fill-rule="evenodd" opacity=".2"/><path d="m36.82839 7.918015c.65902.00003 1.0273.49696 1.10487 1.4908l-.55245 4.68038h.20353l.43614-.34669h.11631v.104c-.60092.43918-1.18244 1.64106-1.74454 3.60564-.21326 1.68728-.57185 3.2474-1.07582 4.68039-.44585 1.47924-.66876 2.84291-.66873 4.09101l-.84321 2.46153c-.00002.20802.31981.41605.95951.62405-.11633.48538-.29078.72806-.52337.72806v.13868h.20353v.104c-.00002.25425-.32955.38137-.98857.38136l.11629.13869v.48535h-.20352c.13566.4854.42642.72809.87227.72807v.24269h-.87227v.13867c.29073 0 .43611.20803.43613.62406l-1.22117.48537.1163.13868v.104c-.00003.1618-.1454.2427-.43614.2427v.13867c.36826 0 .55241.081.55244.24269-.52338.20803-1.2115 1.23656-2.06439 3.08559-.87228 1.64103-1.62825 2.46154-2.26791 2.46154h-.2326c-.48462-.36982-.88198-1.59482-1.1921-3.67498-1.2406-3.16647-1.86088-5.02708-1.86087-5.5818-.00001-1.43299-.39738-2.95845-1.1921-4.57637-.21323-.71647-.35861-1.61789-.43613-2.70423l-.52337-.13867c-1.31812 2.38066-2.00626 4.24126-2.06438 5.5818-.36832.78586-.65906 1.73348-.87228 2.8429.79473.25426 1.1921.49693 1.19211.72805v.13868c-.62029-.0925-1.05645-.26579-1.30841-.52004-.27138.62406-.62999 2.35753-1.0758 5.20043-.34892 1.31745-.78506 1.97617-1.30841 1.97617-1.47318-.57783-2.70407-1.52545-3.69264-2.84289-.15507 0-.40707-.65874-.75597-1.97618-.21323 0-.35861-.65873-.43614-1.97617-.73658-1.87215-1.24056-4.01009-1.51193-6.41386v-3.60562h-.1163l-.52338.13866v-.13866c0-.1618.17446-.24268.52338-.24269l-.11631-2.08018v-1.62945l-.8432-5.20044v-2.21886c.3683-1.38674 1.00796-2.08014 1.91901-2.08017 0 0 .081-.005.34893.34669l-.34889-.104c1.41501 1.84907 2.24851 3.40919 2.50051 4.68039h.98859v.24269h-.75598v.27737c.29076 1.06322.50398 1.59481.63966 1.59479h.23261l.52337-.13869.1163.13869.1163-.13869.11631.13869v.104c-.38768.27737-.64936.65873-.78505 1.1441h-.0872v.24268h.20354c.27137 3.85989.77534 6.78368 1.51193 8.77139l.43615.34669h.23259c.29076.00001.90136-1.35209 1.83179-4.05634.6009-1.22497 1.03702-2.29973 1.30841-3.22425l-.11631-.38138c.60089-.90138 1.22118-1.35208 1.86085-1.35211h.20353c.40705.00003.69781.25427.87228.76272.54274.76276.97887 1.90686 1.3084 3.4323l1.62826 3.60562c.21321.25427.31981.54318.31983.86675.60089 1.36369 1.14364 2.26508 1.62825 2.70423h.34889c.40705 0 .94981-1.68724 1.62827-5.06177.11628.00002.4361-.90139.95949-2.70421v-.13868l-1.83178-.2427-.43614.13869h-.55242v-.27737l1.10487-.104h2.15161c.83348-2.98157 1.59914-5.29286 2.29699-6.93392.23258-3.37446.55241-5.06171.95951-5.06175l1.30841-.62405m-11.0779 2.98159h.31984v.104c-.00002.16182-.10662.24272-.31984.2427l-.11629.13866v.13869l-.31985-.13869v-.24268zm-1.62824 1.35211v.13866c-.00001.18494-.46521.38141-1.39564.5894v-.24269l.63968-.34671.11629.104h.0872l.55243-.24269m-3.14017 1.2481v.104c-.40708.36984-1.06613.70498-1.97717 1.00543v-.24269c.15507.00002.23259-.1271.2326-.38136zm5.52438 1.21343.11631.13868v.104l-.20353.27735h-.1163l-.23261-.27735v-.104zm4.01247.13868h.1163v.104l-.20353.27735h-.1163v-.13868l.20353-.24268m-1.83178 1.73348.43615.34669c-.0775.25426-.29079.38138-.63968.38136l-.2326-.38136c-.00002-.11554.14536-.23111.43613-.34669m2.61682 1.59479.0872.13868v.104l-.0872.13867h-.23259v-.13867l.23259-.24269m-4.12876 1.2481v.104l-.55244.52004h-.31983v-.13868c-.00002-.208.29073-.36978.87227-.48537m-3.80892 10.60887h.11629v.24269l-.87227.52005-.1163-.13868v-.24269zm-.31985 3.22427h.0872l.34891.38135-.11629.104h-.11631l-.20354-.34669v-.13867" fill="#fff"/></svg>