<?xml version="1.0" encoding="UTF-8"?>
<!-- Generator: visioncortex VTracer 0.6.5 -->
<svg version="1.1" xmlns="http://www.w3.org/2000/svg" width="512" height="524">
<path d="M0,0 L44,0 L67,3 L93,9 L116,17 L136,26 L157,38 L174,50 L190,63 L206,78 L213,86 L224,99 L237,118 L246,133 L257,155 L266,179 L273,205 L277,229 L278,239 L278,285 L275,308 L270,331 L263,354 L254,375 L241,400 L231,415 L219,431 L207,444 L199,453 L191,460 L177,472 L160,484 L141,495 L125,503 L105,511 L81,518 L61,522 L44,524 L0,524 L-23,521 L-49,515 L-72,507 L-90,499 L-108,489 L-126,477 L-140,466 L-150,457 L-161,447 L-168,439 L-179,426 L-192,408 L-204,387 L-215,364 L-223,342 L-230,314 L-233,295 L-234,285 L-234,239 L-231,215 L-225,189 L-217,165 L-209,147 L-197,124 L-187,109 L-175,93 L-163,80 L-154,70 L-146,63 L-133,52 L-116,40 L-97,29 L-81,21 L-61,13 L-41,7 L-17,2 Z " fill="#DDA986" transform="translate(234,0)"/>
<path d="M0,0 L44,0 L67,3 L93,9 L116,17 L136,26 L157,38 L174,50 L190,63 L206,78 L213,86 L224,99 L237,118 L246,133 L257,155 L266,179 L273,205 L277,229 L278,239 L278,285 L275,308 L270,331 L263,354 L254,375 L241,400 L231,415 L219,431 L207,444 L199,453 L191,460 L177,472 L160,484 L141,495 L125,503 L105,511 L81,518 L61,522 L44,524 L0,524 L-23,521 L-49,515 L-72,507 L-90,499 L-108,489 L-126,477 L-140,466 L-150,457 L-161,447 L-168,439 L-179,426 L-192,408 L-204,387 L-215,364 L-223,342 L-230,314 L-233,295 L-234,285 L-234,239 L-231,215 L-225,189 L-217,165 L-209,147 L-197,124 L-187,109 L-175,93 L-163,80 L-154,70 L-146,63 L-133,52 L-116,40 L-97,29 L-81,21 L-61,13 L-41,7 L-17,2 Z M12,63 L-20,66 L-45,71 L-58,75 L-70,80 L-81,86 L-87,93 L-91,102 L-92,106 L-92,123 L-90,132 L-97,114 L-100,100 L-107,106 L-115,115 L-125,130 L-129,135 L-129,137 L-117,140 L-106,146 L-95,155 L-86,164 L-84,167 L-114,169 L-130,172 L-140,177 L-144,182 L-145,184 L-145,191 L-141,200 L-130,211 L-123,216 L-121,216 L-121,218 L-131,215 L-143,208 L-153,199 L-162,187 L-164,190 L-164,202 L-161,218 L-158,224 L-152,229 L-143,231 L-120,234 L-121,245 L-124,249 L-124,258 L-117,272 L-113,278 L-123,283 L-123,286 L-115,286 L-111,285 L-110,290 L-107,290 L-106,283 L-99,283 L-100,287 L-95,288 L-98,290 L-100,292 L-96,297 L-101,296 L-104,295 L-107,292 L-110,307 L-110,321 L-122,333 L-129,347 L-130,352 L-130,378 L-126,390 L-120,400 L-114,407 L-100,416 L-86,421 L-72,424 L-65,436 L-58,442 L-45,447 L-38,448 L-18,448 L-14,460 L-12,464 L-17,472 L-16,475 L-9,478 L8,482 L16,483 L41,483 L58,481 L80,475 L92,470 L107,462 L118,453 L130,441 L131,437 L124,432 L121,432 L120,420 L141,414 L156,408 L169,400 L177,393 L185,383 L193,367 L197,352 L198,346 L198,308 L194,283 L191,267 L196,278 L198,287 L200,287 L201,276 L201,241 L197,223 L192,215 L184,210 L179,208 L172,178 L166,155 L158,134 L147,113 L138,101 L127,89 L115,80 L100,72 L80,66 L62,63 Z " fill="#A9EDFE" transform="translate(234,0)"/>
<path d="M0,0 L50,0 L68,3 L88,9 L103,17 L116,27 L123,34 L133,47 L142,63 L150,81 L157,102 L164,131 L166,145 L155,144 L119,144 L90,147 L66,150 L21,154 L-8,154 L-17,152 L-35,142 L-49,132 L-57,125 L-55,131 L-48,141 L-45,146 L-51,144 L-62,138 L-72,130 L-83,119 L-87,113 L-100,113 L-112,119 L-119,127 L-125,138 L-129,155 L-133,154 L-144,146 L-153,137 L-157,128 L-157,121 L-153,115 L-145,110 L-134,107 L-114,105 L-96,104 L-105,94 L-115,85 L-129,77 L-141,74 L-139,70 L-129,55 L-121,45 L-113,37 L-112,37 L-108,54 L-102,69 L-104,60 L-104,43 L-100,32 L-96,26 L-90,21 L-75,14 L-57,8 L-32,3 Z " fill="#AA4401" transform="translate(246,63)"/>
<path d="M0,0 L44,0 L67,3 L93,9 L116,17 L136,26 L157,38 L174,50 L190,63 L206,78 L213,86 L224,99 L237,118 L246,133 L257,155 L266,179 L273,205 L277,229 L278,239 L278,285 L275,308 L270,331 L263,354 L254,375 L241,400 L231,415 L219,431 L207,444 L199,453 L191,460 L177,472 L160,484 L141,495 L125,503 L105,511 L81,518 L61,522 L44,524 L0,524 L-23,521 L-49,515 L-72,507 L-90,499 L-108,489 L-126,477 L-140,466 L-150,457 L-161,447 L-168,439 L-179,426 L-192,408 L-204,387 L-215,364 L-223,342 L-230,314 L-233,295 L-234,285 L-234,239 L-231,215 L-225,189 L-217,165 L-209,147 L-197,124 L-187,109 L-175,93 L-163,80 L-154,70 L-146,63 L-133,52 L-116,40 L-97,29 L-81,21 L-61,13 L-41,7 L-17,2 Z M-1,19 L-27,23 L-52,30 L-70,37 L-87,45 L-104,55 L-118,65 L-129,74 L-139,83 L-147,90 L-154,98 L-165,111 L-177,128 L-189,149 L-199,171 L-205,188 L-211,211 L-214,230 L-215,242 L-215,284 L-212,305 L-209,321 L-201,347 L-193,366 L-183,386 L-172,403 L-163,415 L-152,428 L-146,435 L-138,442 L-126,453 L-110,465 L-97,473 L-79,483 L-55,493 L-35,499 L-15,503 L3,505 L42,505 L57,503 L75,500 L104,491 L127,481 L148,469 L162,459 L172,451 L182,442 L200,424 L211,410 L220,397 L229,382 L240,360 L249,335 L255,312 L258,294 L259,281 L259,238 L255,211 L248,185 L240,164 L231,145 L219,125 L207,109 L196,96 L189,88 L181,81 L169,70 L151,57 L136,48 L120,40 L104,33 L75,24 L53,20 L43,19 Z " fill="#01CCFF" transform="translate(234,0)"/>
<path d="M0,0 L54,0 L81,4 L97,10 L107,16 L113,23 L118,45 L121,66 L121,104 L117,123 L109,139 L103,147 L98,152 L91,159 L75,168 L51,176 L25,182 L10,184 L-8,184 L-24,180 L-34,173 L-40,164 L-43,157 L-44,152 L-44,120 L-39,108 L-31,98 L-19,89 L-6,83 L4,80 L11,80 L8,86 L8,98 L13,104 L15,105 L25,105 L33,101 L37,93 L37,85 L32,73 L23,59 L14,48 L5,38 L-4,28 L-13,19 L-20,11 L-27,3 L-27,1 Z " fill="#AA4400" transform="translate(311,242)"/>
<path d="M0,0 L18,0 L30,4 L45,12 L50,15 L49,17 L51,21 L55,29 L56,35 L58,35 L57,17 L53,0 L55,0 L62,9 L69,16 L76,24 L86,34 L93,42 L104,55 L114,70 L119,81 L120,84 L120,92 L116,100 L110,104 L107,105 L97,105 L90,99 L89,97 L89,85 L92,80 L81,81 L65,88 L52,97 L44,107 L39,119 L39,151 L42,161 L48,171 L58,178 L74,182 L92,182 L112,179 L120,177 L124,177 L126,184 L126,189 L130,190 L136,194 L134,199 L120,213 L110,220 L91,230 L71,236 L55,239 L46,240 L21,240 L3,237 L-11,232 L-12,229 L-7,220 L-11,211 L-12,209 L-12,203 L-18,203 L-14,201 L5,196 L14,192 L23,186 L31,175 L33,168 L33,152 L29,140 L20,118 L20,108 L25,96 L38,72 L50,51 L54,41 L38,50 L24,55 L11,58 L-11,58 L-22,56 L-32,51 L-37,43 L-38,40 L-39,26 L-42,23 L-43,14 L-40,11 L-20,5 Z " fill="#D28C5E" transform="translate(229,243)"/>
<path d="M0,0 L5,5 L12,13 L19,20 L33,29 L42,33 L34,22 L30,15 L31,12 L40,20 L55,30 L73,40 L80,41 L109,41 L164,36 L197,32 L207,31 L243,31 L255,33 L267,39 L271,44 L274,51 L277,66 L277,101 L276,112 L274,112 L271,100 L266,91 L259,83 L243,75 L234,72 L207,68 L116,68 L99,65 L86,62 L64,62 L49,59 L37,54 L26,47 L19,40 L11,28 L5,14 L1,4 Z " fill="#CBA9FB" transform="translate(158,175)"/>
<path d="M0,0 L4,0 L6,7 L6,12 L10,13 L16,17 L14,22 L0,36 L-10,43 L-29,53 L-49,59 L-65,62 L-74,63 L-99,63 L-117,60 L-131,55 L-132,52 L-127,43 L-131,34 L-132,27 L-123,25 L-94,19 L-79,14 L-63,6 L-56,3 L-46,5 L-28,5 L-8,2 Z " fill="#A05A2C" transform="translate(349,420)"/>
<path d="M0,0 L19,0 L40,4 L53,9 L64,15 L74,24 L79,31 L82,47 L82,64 L79,77 L73,86 L66,93 L56,98 L42,102 L36,103 L14,103 L0,100 L-16,92 L-27,84 L-36,75 L-45,61 L-49,51 L-48,49 L-36,60 L-22,68 L-13,71 L2,74 L30,74 L42,70 L50,63 L54,56 L56,50 L56,34 L51,24 L42,16 L26,8 L5,2 L0,1 Z " fill="#D35400" transform="translate(300,79)"/>
<path d="M0,0 L20,0 L30,6 L56,32 L69,42 L83,50 L95,55 L111,59 L111,60 L94,60 L71,55 L44,46 L33,44 L17,44 L6,48 L-3,54 L-9,53 L-20,46 L-34,34 L-46,21 L-42,17 L-17,5 Z " fill="#D35400" transform="translate(201,131)"/>
<path d="M0,0 L7,0 L19,16 L35,40 L45,57 L52,72 L57,87 L58,91 L58,100 L55,109 L49,117 L42,123 L29,129 L20,131 L2,131 L-13,127 L-27,120 L-28,118 L-5,117 L8,114 L16,109 L21,101 L23,93 L23,78 L18,55 L12,34 L3,8 Z " fill="#D35400" transform="translate(341,242)"/>
<path d="M0,0 L2,0 L6,25 L12,45 L17,58 L29,81 L38,102 L29,101 L12,96 L0,89 L-8,82 L-15,71 L-19,61 L-20,57 L-20,31 L-17,21 L-11,11 Z " fill="#AA85D6" transform="translate(124,321)"/>
<path d="M0,0 L11,1 L22,5 L33,12 L45,23 L52,31 L52,32 L21,34 L5,37 L-5,42 L-9,48 L-9,55 L-5,64 L5,74 L14,80 L14,82 L6,81 L-8,73 L-18,64 L-26,54 L-30,45 L-31,43 L-31,30 L-27,22 L-16,9 L-9,3 Z " fill="#CAA8FB" transform="translate(99,136)"/>
<path d="M0,0 L18,0 L34,3 L46,8 L56,17 L59,21 L61,30 L60,34 L50,29 L38,26 L0,26 L-20,27 L-56,27 L-75,24 L-83,22 L-80,20 L-52,11 L-26,4 Z " fill="#AA4504" transform="translate(358,209)"/>
<path d="M0,0 L3,4 L16,32 L25,55 L28,65 L28,75 L22,78 L9,80 L-9,80 L-19,78 L-18,74 L-14,72 L-12,68 L-9,50 L-2,13 Z " fill="#D38D5F" transform="translate(173,279)"/>
<path d="M0,0 L46,0 L86,4 L86,5 L50,7 L24,10 L2,15 L-8,18 L-20,23 L-31,29 L-36,35 L-40,44 L-41,48 L-41,65 L-39,76 L-42,72 L-48,56 L-51,42 L-51,33 L-49,24 L-43,15 L-35,8 L-25,4 L-12,1 Z " fill="#AA89DC" transform="translate(184,58)"/>
<path d="M0,0 L8,0 L24,5 L35,9 L39,19 L45,24 L48,30 L48,43 L44,51 L41,54 L36,56 L23,56 L19,54 L19,50 L26,50 L22,45 L24,43 L27,41 L22,40 L23,36 L16,36 L15,43 L11,42 L11,38 L7,39 L-1,39 L-1,36 L9,31 L2,20 L-2,11 L-2,2 Z " fill="#D18C5E" transform="translate(112,247)"/>
<path d="M0,0 L19,4 L28,5 L64,5 L84,4 L122,4 L134,7 L144,12 L151,20 L155,30 L157,43 L157,48 L155,45 L150,36 L143,28 L127,20 L118,17 L91,13 L0,13 L-17,10 L-30,7 L-30,6 L-7,2 Z " fill="#AA86D9" transform="translate(274,230)"/>
<path d="M0,0 L4,0 L8,10 L17,20 L26,26 L36,29 L57,33 L67,34 L87,34 L100,32 L110,28 L115,25 L113,29 L105,35 L89,43 L70,49 L52,53 L36,53 L36,52 L56,49 L74,44 L55,45 L48,46 L29,46 L15,43 L6,37 L0,29 L-3,20 L-3,3 Z " fill="#813403" transform="translate(292,369)"/>
<path d="M0,0 L5,2 L9,5 L7,10 L-7,24 L-17,31 L-36,41 L-56,47 L-72,50 L-81,51 L-106,51 L-124,48 L-138,43 L-139,40 L-134,32 L-125,35 L-114,38 L-107,39 L-80,39 L-61,36 L-40,30 L-23,21 L-11,12 L-2,3 Z " fill="#AAC73A" transform="translate(356,432)"/>
<path d="M0,0 L19,0 L47,5 L71,7 L65,14 L50,22 L37,27 L30,29 L17,30 L8,28 L1,23 L-4,15 L-7,8 L-6,3 Z " fill="#A90101" transform="translate(155,376)"/>
<path d="M0,0 L2,1 L-5,9 L-13,23 L-16,32 L-16,49 L-12,60 L-6,67 L4,72 L15,74 L34,74 L56,72 L64,72 L60,74 L42,79 L22,82 L4,82 L-10,79 L-21,73 L-29,64 L-33,52 L-33,38 L-29,27 L-23,18 L-13,8 Z " fill="#A985D8" transform="translate(306,340)"/>
<path d="M0,0 L27,0 L27,1 L20,1 L20,3 L9,7 L1,13 L-6,23 L-10,33 L-13,46 L-17,45 L-28,37 L-37,28 L-41,19 L-41,12 L-29,6 L-14,2 Z " fill="#833401" transform="translate(130,172)"/>
<path d="M0,0 L3,3 L6,8 L9,11 L15,31 L21,56 L23,70 L3,68 L-1,59 L-7,43 L-10,34 L-9,30 L-3,14 Z " fill="#813401" transform="translate(389,138)"/>
<path d="M0,0 L12,0 L9,2 L-11,8 L-25,13 L-46,19 L-70,26 L-86,32 L-95,35 L-94,28 L-87,20 L-77,13 L-63,7 L-50,4 L-19,1 Z " fill="#D25400" transform="translate(260,82)"/>
<path d="M0,0 L3,1 L3,18 L-4,55 L-7,73 L-11,79 L-17,81 L-23,81 L-25,79 L-25,71 L-15,37 L-6,11 Z " fill="#E8C5AD" transform="translate(169,274)"/>
<path d="M0,0 L1,3 L-2,16 L-2,27 L0,35 L5,45 L12,51 L23,55 L42,56 L54,82 L50,83 L34,79 L22,74 L10,65 L2,54 L-3,42 L-4,38 L-4,12 L-1,2 Z " fill="#AA4706" transform="translate(108,340)"/>
<path d="M0,0 L4,4 L11,13 L21,22 L37,30 L45,32 L45,47 L13,43 L7,39 L3,34 L0,23 L-1,15 L-1,3 Z " fill="#813401" transform="translate(71,187)"/>
<path d="M0,0 L3,1 L0,7 L-1,12 L-2,26 L-5,35 L-9,41 L-14,44 L-23,46 L-20,37 L-13,25 L-6,17 L-14,21 L-23,28 L-31,36 L-38,50 L-39,54 L-40,67 L-42,64 L-43,58 L-43,45 L-41,35 L-36,25 L-31,19 L-21,11 L-7,3 Z " fill="#D25502" transform="translate(313,324)"/>
<path d="M0,0 L18,0 L30,4 L45,12 L48,15 L40,14 L32,12 L25,11 L4,11 L-16,17 L-38,26 L-42,23 L-43,14 L-40,11 L-20,5 Z " fill="#582503" transform="translate(229,243)"/>
<path d="M0,0 L11,1 L22,5 L33,12 L45,23 L50,28 L50,30 L45,28 L35,23 L19,18 L14,17 L-4,17 L-12,20 L-20,25 L-25,30 L-30,35 L-29,31 L-26,23 L-20,13 L-12,5 L-4,1 Z " fill="#AA87DC" transform="translate(99,136)"/>
<path d="M0,0 L2,2 L6,24 L15,51 L20,61 L20,63 L10,62 L4,59 L-1,55 L-7,43 L-8,37 L-8,21 L-3,6 Z " fill="#AA4604" transform="translate(125,326)"/>
<path d="M0,0 L19,0 L47,5 L71,7 L70,9 L63,11 L42,13 L3,13 L-6,10 L-7,4 L-3,1 Z " fill="#810201" transform="translate(155,376)"/>
<path d="M0,0 L20,0 L41,5 L56,11 L57,14 L48,13 L30,9 L31,16 L26,20 L20,19 L18,17 L18,9 L19,8 L5,8 L-4,12 L-7,17 L-10,17 L-10,8 L-5,2 Z " fill="#582503" transform="translate(212,273)"/>
<path d="M0,0 L8,0 L24,5 L35,9 L37,13 L36,20 L34,21 L16,14 L4,12 L3,19 L0,16 L-2,11 L-2,2 Z " fill="#582503" transform="translate(112,247)"/>
<path d="M0,0 L10,0 L20,3 L26,10 L26,13 L21,12 L20,12 L19,17 L18,18 L12,18 L10,13 L5,12 L6,8 L-1,8 L-2,15 L-6,14 L-6,10 L-10,11 L-18,11 L-18,8 L-8,3 Z " fill="#592807" transform="translate(129,275)"/>
<path d="M0,0 L15,0 L12,9 L6,9 L9,15 L10,17 L-4,17 L-12,13 L-13,10 L-9,4 Z " fill="#E0D7D5" transform="translate(217,280)"/>
<path d="M0,0 L4,4 L7,8 L8,26 L10,35 L14,39 L31,42 L31,44 L33,45 L13,43 L7,39 L3,34 L0,23 L-1,15 L-1,3 Z " fill="#A94807" transform="translate(71,187)"/>
<path d="M0,0 L6,1 L14,7 L21,15 L23,24 L22,28 L12,23 L8,21 L0,3 Z " fill="#843705" transform="translate(396,215)"/>
<path d="M0,0 L8,6 L20,15 L41,27 L43,29 L34,28 L13,23 L4,10 L0,3 Z " fill="#AA84D5" transform="translate(188,187)"/>
<path d="M0,0 L5,3 L10,9 L15,31 L16,38 L16,50 L14,47 L6,20 L0,2 Z " fill="#8C3D09" transform="translate(414,256)"/>
<path d="M0,0 L10,1 L8,2 L8,8 L4,14 L-1,17 L-11,17 L-18,12 L-19,7 L-12,6 L-8,10 L-2,9 L0,7 Z " fill="#8EA132" transform="translate(242,282)"/>
<path d="M0,0 L12,0 L20,2 L19,4 L12,6 L3,7 L-15,7 L-25,5 L-25,2 Z " fill="#A45F31" transform="translate(179,352)"/>
<path d="M0,0 L3,3 L7,12 L8,21 L10,21 L11,39 L9,73 L8,73 L7,42 L3,17 Z " fill="#AAD8ED" transform="translate(424,266)"/>
<path d="M0,0 L9,0 L12,3 L12,8 L7,12 L1,11 L-1,9 L-1,1 Z " fill="#06272B" transform="translate(231,281)"/>
<path d="M0,0 L7,0 L5,2 L-13,6 L-23,9 L-35,14 L-43,18 L-45,17 L-35,10 L-23,5 L-6,1 Z " fill="#AADAEC" transform="translate(199,67)"/>
<path d="M0,0 L7,0 L6,4 L11,4 L11,7 L7,9 L12,15 L6,15 L1,12 L-1,9 L-1,2 Z " fill="#DFD5D1" transform="translate(128,283)"/>
<path d="M0,0 L6,3 L3,10 L-1,13 L-8,13 L-13,9 L-14,6 L-8,4 L-7,7 L-1,7 Z " fill="#9AB138" transform="translate(148,285)"/>
<path d="M0,0 L4,0 L5,7 L2,12 L-2,14 L-10,14 L-15,11 L-16,9 L-19,7 L-12,6 L-8,10 L-2,9 L0,7 Z " fill="#A7C338" transform="translate(242,282)"/>
<path d="M0,0 L5,0 L4,4 L-14,9 L-24,11 L-40,11 L-40,10 L-20,7 L-2,2 Z " fill="#883D13" transform="translate(368,411)"/>
<path d="M0,0 L7,0 L13,2 L12,5 L1,6 L-4,3 L-3,1 Z " fill="#FAFAF7" transform="translate(217,284)"/>
<path d="M0,0 L2,2 L8,22 L13,44 L12,46 L9,38 L4,17 L0,6 Z " fill="#A85821" transform="translate(396,147)"/>
<path d="M0,0 L5,0 L8,3 L7,8 L6,9 L0,9 L-2,2 Z " fill="#092A2B" transform="translate(141,284)"/>
<path d="M0,0 L3,2 L8,13 L10,22 L6,18 L2,13 L0,5 Z " fill="#ABE5F9" transform="translate(417,231)"/>
<path d="M0,0 L4,1 L3,2 L3,8 L8,16 L8,18 L4,17 L-2,8 Z " fill="#D3A07D" transform="translate(116,259)"/>
<path d="M0,0 L8,0 L7,2 L-14,5 L-14,4 L-19,3 L-19,2 Z " fill="#C69AD7" transform="translate(355,207)"/>
<path d="M0,0 L10,1 L11,3 L2,7 L-1,6 Z " fill="#DED3D0" transform="translate(250,284)"/>
<path d="M0,0 L15,0 L13,6 L5,4 L5,2 L0,1 Z " fill="#949943" transform="translate(217,280)"/>
<path d="M0,0 L4,1 L6,3 L-7,5 L-13,4 L-9,2 Z " fill="#D39268" transform="translate(224,442)"/>
<path d="M0,0 L9,0 L9,3 L6,4 L-1,4 L-2,1 Z " fill="#F8F8F4" transform="translate(130,287)"/>
<path d="M0,0 L6,3 L3,10 L1,12 L-3,11 L1,7 Z " fill="#8FA02E" transform="translate(148,285)"/>
<path d="M0,0 L5,0 L4,4 L-4,6 L-5,3 L0,1 Z " fill="#884527" transform="translate(368,411)"/>
<path d="M0,0 L2,0 L4,6 L4,14 L2,11 L0,4 Z " fill="#853500" transform="translate(426,292)"/>
<path d="M0,0 L7,0 L4,4 L-1,4 Z " fill="#95AD32" transform="translate(135,283)"/>
<path d="M0,0 L5,5 L8,8 L8,10 L4,9 L0,2 Z " fill="#CE5200" transform="translate(333,225)"/>
<path d="M0,0 L1,0 L1,10 L-8,9 L-4,7 L0,7 Z " fill="#AE6432" transform="translate(115,224)"/>
<path d="M0,0 L5,0 L5,2 L0,4 L-4,3 L-3,1 Z " fill="#AAE8FB" transform="translate(176,72)"/>
<path d="M0,0 L5,0 L4,5 L-2,4 Z " fill="#A5BD46" transform="translate(226,281)"/>
<path d="M0,0 L5,0 L5,2 L7,3 L-6,2 L-6,1 Z " fill="#A9612D" transform="translate(97,229)"/>
</svg>
