<?xml version="1.0" encoding="UTF-8"?>
<!-- Generator: visioncortex VTracer 0.6.5 -->
<svg version="1.1" xmlns="http://www.w3.org/2000/svg" width="1024" height="1024">
<path d="M0,0 L1,4 L-22,107 L-31,149 L-36,182 L-39,209 L-39,230 L-35,245 L-27,260 L-17,273 L-6,285 L8,297 L25,309 L30,311 L46,295 L54,288 L64,279 L77,269 L94,257 L112,246 L128,237 L155,225 L188,214 L214,208 L241,204 L252,203 L304,203 L331,206 L361,212 L387,220 L408,228 L430,238 L451,250 L472,264 L489,277 L503,289 L519,304 L526,311 L531,309 L545,299 L556,290 L569,278 L581,263 L589,249 L593,239 L595,230 L595,209 L590,167 L585,140 L571,75 L555,4 L556,0 L563,7 L572,18 L585,34 L598,51 L612,69 L626,88 L638,105 L652,125 L667,148 L680,169 L692,190 L706,217 L716,240 L723,261 L726,276 L726,301 L722,319 L716,336 L704,361 L692,381 L679,400 L670,412 L660,425 L649,438 L640,449 L625,465 L621,469 L620,726 L612,730 L586,741 L553,756 L528,768 L498,783 L475,796 L455,808 L438,820 L427,829 L416,839 L408,846 L379,875 L372,883 L359,897 L350,908 L340,919 L331,930 L317,947 L306,961 L295,975 L290,982 L266,982 L254,966 L240,949 L229,935 L217,921 L208,910 L198,899 L191,891 L180,879 L169,867 L142,840 L134,833 L121,822 L104,810 L76,793 L48,778 L8,758 L-28,742 L-53,731 L-64,726 L-65,469 L-78,456 L-85,448 L-97,434 L-108,420 L-121,403 L-139,376 L-150,357 L-161,334 L-167,316 L-170,301 L-170,275 L-166,258 L-160,240 L-149,215 L-139,195 L-125,171 L-113,151 L-89,115 L-75,95 L-61,76 L-45,55 L-35,42 L-22,26 L-14,16 L-3,3 Z " fill="#7D9199" transform="translate(234,21)"/>
<path d="M0,0 L7,6 L18,19 L29,33 L41,48 L56,68 L71,88 L83,105 L97,125 L112,148 L125,169 L137,190 L151,217 L161,240 L168,261 L171,276 L171,301 L167,319 L161,336 L149,361 L137,381 L124,400 L115,412 L105,425 L94,438 L85,449 L70,465 L66,469 L65,726 L57,730 L31,741 L-2,756 L-27,768 L-57,783 L-80,796 L-100,808 L-117,820 L-128,829 L-139,839 L-147,846 L-176,875 L-183,883 L-196,897 L-205,908 L-215,919 L-224,930 L-238,947 L-249,961 L-260,975 L-265,982 L-277,982 L-277,513 L-262,509 L-252,504 L-243,495 L-237,483 L-235,475 L-235,465 L-238,453 L-245,442 L-254,434 L-265,429 L-277,427 L-277,203 L-251,203 L-224,206 L-194,212 L-168,220 L-147,228 L-125,238 L-104,250 L-83,264 L-66,277 L-52,289 L-36,304 L-29,311 L-24,309 L-10,299 L1,290 L14,278 L26,263 L34,249 L38,239 L40,230 L40,209 L35,167 L30,140 L16,75 L0,4 Z " fill="#566366" transform="translate(789,21)"/>
<path d="M0,0 L7,6 L18,19 L29,33 L41,48 L56,68 L71,88 L83,105 L97,125 L112,148 L125,169 L137,190 L151,217 L161,240 L168,261 L171,276 L171,301 L167,319 L161,336 L149,361 L137,381 L124,400 L115,412 L105,425 L94,438 L85,449 L70,465 L64,470 L54,444 L43,420 L32,398 L17,373 L4,354 L-5,342 L-18,326 L-28,315 L-29,312 L-18,305 L-5,295 L9,283 L20,271 L30,257 L37,242 L40,230 L40,209 L35,167 L30,140 L16,75 L0,4 Z " fill="#BEBEBE" transform="translate(789,21)"/>
<path d="M0,0 L1,4 L-22,107 L-31,149 L-36,182 L-39,209 L-39,230 L-35,245 L-27,260 L-17,273 L-6,285 L8,297 L25,309 L30,313 L23,321 L11,335 L-4,355 L-14,370 L-27,391 L-42,420 L-51,439 L-62,467 L-64,470 L-78,456 L-85,448 L-97,434 L-108,420 L-121,403 L-139,376 L-150,357 L-161,334 L-167,316 L-170,301 L-170,275 L-166,258 L-160,240 L-149,215 L-139,195 L-125,171 L-113,151 L-89,115 L-75,95 L-61,76 L-45,55 L-35,42 L-22,26 L-14,16 L-3,3 Z " fill="#BEBEBE" transform="translate(234,21)"/>
<path d="M0,0 L15,0 L25,3 L35,9 L42,16 L48,26 L51,38 L51,48 L47,61 L41,70 L33,78 L21,84 L17,85 L-1,85 L-12,81 L-20,75 L-27,68 L-33,56 L-34,53 L-34,32 L-30,22 L-23,13 L-15,6 L-4,1 Z " fill="#FDFEFE" transform="translate(504,448)"/>
</svg>
