<?xml version="1.0" encoding="UTF-8"?>
<!-- Generator: visioncortex VTracer 0.6.4 -->
<svg version="1.1" xmlns="http://www.w3.org/2000/svg" width="200" height="200">
<path d="M0 0 C0.82 -0 1.64 -0.01 2.48 -0.01 C5.16 -0.02 7.84 -0.02 10.52 -0.02 C12.41 -0.03 14.29 -0.03 16.18 -0.03 C20.12 -0.04 24.06 -0.04 28 -0.04 C33.02 -0.04 38.03 -0.05 43.05 -0.07 C46.94 -0.08 50.83 -0.08 54.72 -0.08 C56.57 -0.08 58.42 -0.09 60.26 -0.1 C93.34 -0.22 93.34 -0.22 106.41 10.25 C117.22 21.11 119.43 34.66 119.45 49.29 C119.46 50.17 119.46 51.05 119.47 51.95 C119.48 54.83 119.49 57.71 119.49 60.59 C119.5 62.08 119.5 62.08 119.5 63.6 C119.52 68.85 119.53 74.09 119.53 79.34 C119.54 84.73 119.56 90.12 119.59 95.51 C119.61 99.68 119.61 103.85 119.61 108.02 C119.62 110.01 119.62 111.99 119.64 113.98 C119.75 131.31 118.85 146.91 106.29 160.15 C105.63 160.15 104.97 160.15 104.29 160.15 C104.29 160.81 104.29 161.47 104.29 162.15 C90.81 170.95 76.46 170.6 60.95 170.54 C58.89 170.55 56.84 170.55 54.78 170.55 C50.5 170.56 46.21 170.55 41.92 170.54 C36.46 170.52 31 170.53 25.53 170.55 C21.3 170.56 17.06 170.55 12.82 170.55 C10.81 170.54 8.79 170.55 6.78 170.55 C-9.54 170.6 -26.28 170.5 -39.05 158.9 C-52.47 144.72 -50.87 126.46 -50.88 108.28 C-50.88 106.35 -50.88 104.43 -50.89 102.5 C-50.89 98.48 -50.9 94.45 -50.9 90.43 C-50.9 85.31 -50.91 80.19 -50.93 75.06 C-50.94 71.09 -50.94 67.12 -50.94 63.14 C-50.94 61.26 -50.94 59.37 -50.95 57.48 C-51.07 24.89 -51.07 24.89 -38.96 11.77 C-28.15 1.69 -14.15 -0.01 0 0 Z " fill="#081B87" transform="translate(65.7099609375,16.854736328125)"/>
<path d="M0 0 C0.82 -0 1.64 -0.01 2.48 -0.01 C5.16 -0.02 7.84 -0.02 10.52 -0.02 C12.41 -0.03 14.29 -0.03 16.18 -0.03 C20.12 -0.04 24.06 -0.04 28 -0.04 C33.02 -0.04 38.03 -0.05 43.05 -0.07 C46.94 -0.08 50.83 -0.08 54.72 -0.08 C56.57 -0.08 58.42 -0.09 60.26 -0.1 C93.34 -0.22 93.34 -0.22 106.41 10.25 C117.22 21.11 119.43 34.66 119.45 49.29 C119.46 50.17 119.46 51.05 119.47 51.95 C119.48 54.83 119.49 57.71 119.49 60.59 C119.5 62.08 119.5 62.08 119.5 63.6 C119.52 68.85 119.53 74.09 119.53 79.34 C119.54 84.73 119.56 90.12 119.59 95.51 C119.61 99.68 119.61 103.85 119.61 108.02 C119.62 110.01 119.62 111.99 119.64 113.98 C119.75 131.31 118.85 146.91 106.29 160.15 C105.63 160.15 104.97 160.15 104.29 160.15 C104.29 160.81 104.29 161.47 104.29 162.15 C90.81 170.95 76.46 170.6 60.95 170.54 C58.89 170.55 56.84 170.55 54.78 170.55 C50.5 170.56 46.21 170.55 41.92 170.54 C36.46 170.52 31 170.53 25.53 170.55 C21.3 170.56 17.06 170.55 12.82 170.55 C10.81 170.54 8.79 170.55 6.78 170.55 C-9.54 170.6 -26.28 170.5 -39.05 158.9 C-52.47 144.72 -50.87 126.46 -50.88 108.28 C-50.88 106.35 -50.88 104.43 -50.89 102.5 C-50.89 98.48 -50.9 94.45 -50.9 90.43 C-50.9 85.31 -50.91 80.19 -50.93 75.06 C-50.94 71.09 -50.94 67.12 -50.94 63.14 C-50.94 61.26 -50.94 59.37 -50.95 57.48 C-51.07 24.89 -51.07 24.89 -38.96 11.77 C-28.15 1.69 -14.15 -0.01 0 0 Z M-32.38 20.26 C-35.91 25.39 -37.83 29.2 -37.85 35.48 C-37.86 36.34 -37.86 37.2 -37.87 38.09 C-37.87 39.03 -37.87 39.96 -37.87 40.93 C-37.88 41.92 -37.88 42.91 -37.89 43.93 C-37.9 47.22 -37.91 50.5 -37.91 53.79 C-37.92 56.07 -37.92 58.35 -37.93 60.64 C-37.94 65.43 -37.95 70.22 -37.95 75.01 C-37.96 81.14 -37.98 87.28 -38.01 93.41 C-38.03 98.13 -38.03 102.85 -38.03 107.57 C-38.04 109.83 -38.04 112.09 -38.06 114.35 C-38.07 117.51 -38.07 120.68 -38.07 123.85 C-38.08 124.77 -38.08 125.7 -38.09 126.66 C-38.04 135.09 -35.8 143.01 -29.71 149.15 C-24.66 152.58 -19.69 155.26 -13.49 155.29 C-12.63 155.29 -11.77 155.3 -10.89 155.3 C-9.48 155.3 -9.48 155.3 -8.04 155.31 C-6.55 155.31 -6.55 155.31 -5.03 155.32 C-1.75 155.34 1.54 155.34 4.83 155.35 C7.12 155.35 9.4 155.36 11.69 155.37 C16.49 155.38 21.29 155.38 26.08 155.39 C32.22 155.39 38.36 155.41 44.5 155.44 C49.22 155.46 53.95 155.47 58.67 155.47 C60.94 155.47 63.2 155.48 65.46 155.49 C68.63 155.51 71.8 155.51 74.97 155.5 C76.37 155.52 76.37 155.52 77.79 155.53 C86.23 155.48 94.14 153.24 100.29 147.15 C104.09 141.65 106.4 136.52 106.43 129.81 C106.44 128.95 106.44 128.09 106.45 127.2 C106.45 126.26 106.45 125.33 106.45 124.36 C106.46 123.37 106.46 122.38 106.47 121.36 C106.48 118.07 106.49 114.79 106.49 111.5 C106.5 109.22 106.5 106.94 106.51 104.65 C106.52 99.86 106.53 95.07 106.53 90.28 C106.54 84.15 106.56 78.01 106.59 71.88 C106.61 67.16 106.61 62.44 106.61 57.72 C106.62 55.46 106.62 53.2 106.64 50.94 C106.65 47.78 106.65 44.61 106.65 41.45 C106.66 40.05 106.66 40.05 106.67 38.63 C106.62 30.42 104.68 23.84 99.04 17.68 C93.93 13.18 87.69 11.03 80.95 11 C79.65 11 79.65 11 78.33 10.99 C77.4 10.99 76.46 10.99 75.49 10.98 C74.5 10.98 73.5 10.97 72.48 10.97 C69.19 10.95 65.9 10.95 62.61 10.94 C60.33 10.94 58.04 10.93 55.75 10.92 C50.96 10.91 46.16 10.91 41.37 10.91 C35.23 10.9 29.09 10.88 22.95 10.85 C18.22 10.83 13.5 10.82 8.77 10.82 C6.51 10.82 4.25 10.81 1.98 10.8 C-1.19 10.78 -4.35 10.78 -7.52 10.79 C-8.46 10.78 -9.39 10.77 -10.35 10.76 C-18.82 10.82 -26.9 13.32 -32.38 20.26 Z " fill="#6D6D6D" transform="translate(65.7099609375,16.854736328125)"/>
<path d="M0 0 C0.98 -0.01 1.97 -0.01 2.98 -0.02 C6.22 -0.04 9.46 -0.03 12.7 -0.01 C14.96 -0.02 17.22 -0.02 19.48 -0.03 C24.21 -0.03 28.94 -0.02 33.67 -0 C39.73 0.02 45.78 0.01 51.84 -0.02 C56.5 -0.03 61.17 -0.03 65.83 -0.02 C68.07 -0.02 70.3 -0.02 72.53 -0.03 C75.66 -0.04 78.78 -0.02 81.91 0 C82.82 -0.01 83.74 -0.02 84.68 -0.02 C90.54 0.05 95.26 1.04 100.08 4.52 C103.04 7.87 104.05 10.96 104.33 15.46 C104.25 16.47 104.17 17.48 104.08 18.52 C94.67 19.67 94.67 19.67 90.08 19.52 C90.08 20.18 90.08 20.84 90.08 21.52 C88.43 21.52 86.78 21.52 85.08 21.52 C84.59 20.53 84.59 20.53 84.08 19.52 C83.59 21.99 83.59 21.99 83.08 24.52 C81.76 24.52 80.44 24.52 79.08 24.52 C78.59 23.03 78.59 23.03 78.08 21.52 C78.08 22.51 78.08 23.5 78.08 24.52 C77.42 24.52 76.76 24.52 76.08 24.52 C76.08 22.87 76.08 21.22 76.08 19.52 C75.75 20.18 75.42 20.84 75.08 21.52 C69.47 21.52 63.86 21.52 58.08 21.52 C57.59 23 57.59 23 57.08 24.52 C55.43 24.52 53.78 24.52 52.08 24.52 C52.58 23.03 52.58 23.03 53.08 21.52 C52.42 21.52 51.76 21.52 51.08 21.52 C51.08 23.5 51.08 25.48 51.08 27.52 C47.78 27.52 44.48 27.52 41.08 27.52 C41.08 25.87 41.08 24.22 41.08 22.52 C42.07 22.19 43.06 21.86 44.08 21.52 C43.75 21.52 43.42 21.52 43.08 21.52 C42.42 21.52 41.76 21.52 41.08 21.52 C40.15 28.58 39.96 35.46 40.02 42.58 C40.02 43.64 40.03 44.69 40.03 45.78 C40.05 48.36 40.06 50.94 40.08 53.52 C38.76 53.52 37.44 53.52 36.08 53.52 C36.41 54.51 36.74 55.5 37.08 56.52 C36.53 56.58 35.97 56.64 35.4 56.71 C32.82 57.4 32.82 57.4 30.83 60.08 C27.96 62.62 27.59 62.87 24.02 62.89 C21.18 62.62 18.8 62.25 16.08 61.52 C15.09 62.01 15.09 62.01 14.08 62.52 C11.03 62.65 8.33 62.57 5.33 61.96 C3.06 61.28 3.06 61.28 1.08 62.52 C-5.17 63.1 -5.17 63.1 -8.35 60.64 C-9.92 58.52 -9.92 58.52 -9.92 56.52 C-12.23 56.52 -14.54 56.52 -16.92 56.52 C-17.11 54.94 -17.3 53.35 -17.48 51.77 C-17.58 50.89 -17.69 50 -17.8 49.1 C-17.92 46.52 -17.92 46.52 -17.34 44.61 C-16.82 42.03 -17.33 40.87 -18.33 38.46 C-20.26 33.07 -20.4 28.08 -20.35 22.39 C-20.37 21.44 -20.39 20.49 -20.42 19.51 C-20.41 13.3 -19.72 9.5 -15.92 4.52 C-10.71 0.07 -6.54 -0.06 0 0 Z " fill="#344684" transform="translate(57.91748046875,37.482421875)"/>
<path d="M0 0 C0.86 -0.01 1.72 -0.01 2.6 -0.02 C4.01 -0.02 4.01 -0.02 5.44 -0.02 C6.92 -0.03 6.92 -0.03 8.44 -0.04 C11.72 -0.05 15 -0.06 18.27 -0.06 C20.56 -0.07 22.84 -0.07 25.12 -0.08 C29.91 -0.09 34.7 -0.1 39.48 -0.1 C45.61 -0.11 51.73 -0.13 57.85 -0.16 C62.56 -0.18 67.28 -0.18 72 -0.18 C74.25 -0.19 76.51 -0.19 78.76 -0.21 C81.93 -0.22 85.09 -0.22 88.26 -0.22 C89.64 -0.23 89.64 -0.23 91.06 -0.24 C99.59 -0.19 106.81 1.53 113.17 7.46 C117.63 12.45 119.78 17.82 119.81 24.48 C119.82 25.34 119.82 26.2 119.83 27.09 C119.83 28.49 119.83 28.49 119.83 29.92 C119.84 30.92 119.84 31.91 119.85 32.93 C119.86 36.21 119.87 39.5 119.87 42.78 C119.88 45.07 119.88 47.35 119.89 49.63 C119.9 54.43 119.91 59.22 119.91 64.01 C119.91 70.14 119.94 76.27 119.97 82.4 C119.99 87.12 119.99 91.84 119.99 96.56 C120 98.82 120 101.08 120.02 103.34 C120.03 106.51 120.03 109.67 120.03 112.84 C120.03 113.77 120.04 114.7 120.05 115.65 C120 124.09 117.76 131.99 111.67 138.14 C106.18 141.94 101.05 144.25 94.34 144.29 C93.48 144.29 92.62 144.3 91.74 144.31 C90.8 144.31 89.87 144.31 88.9 144.32 C87.91 144.32 86.92 144.33 85.9 144.34 C82.62 144.36 79.34 144.37 76.06 144.38 C74.94 144.38 73.82 144.39 72.67 144.39 C66.73 144.41 60.79 144.43 54.86 144.44 C48.73 144.45 42.61 144.48 36.49 144.52 C31.77 144.55 27.06 144.56 22.34 144.56 C20.09 144.56 17.83 144.58 15.57 144.59 C12.41 144.62 9.25 144.62 6.08 144.61 C4.7 144.63 4.7 144.63 3.28 144.65 C-4.23 144.59 -9.73 142.35 -16.08 138.45 C-21.37 133.01 -24.44 126.39 -24.47 118.8 C-24.48 117.94 -24.48 117.08 -24.49 116.2 C-24.49 115.26 -24.49 114.32 -24.49 113.36 C-24.5 112.37 -24.5 111.37 -24.51 110.35 C-24.52 107.07 -24.53 103.78 -24.53 100.5 C-24.54 98.22 -24.55 95.93 -24.55 93.65 C-24.56 88.85 -24.57 84.06 -24.57 79.27 C-24.58 73.14 -24.6 67.01 -24.63 60.88 C-24.65 56.16 -24.65 51.44 -24.65 46.72 C-24.66 44.46 -24.67 42.2 -24.68 39.94 C-24.7 36.77 -24.69 33.61 -24.69 30.44 C-24.7 29.51 -24.71 28.58 -24.72 27.63 C-24.66 19.36 -22.69 12.87 -17.01 6.68 C-12.08 2.16 -6.65 0.03 0 0 Z M-12.66 17.31 C-14.86 21.61 -14.99 25.72 -15.06 30.48 C-15.09 31.45 -15.12 32.42 -15.15 33.42 C-15.24 37 -15.29 40.57 -15.33 44.14 C-15.35 45.64 -15.37 47.14 -15.4 48.64 C-15.54 59.12 -15.6 69.61 -15.63 80.1 C-15.64 84.76 -15.67 89.42 -15.71 94.07 C-15.74 97.7 -15.75 101.32 -15.75 104.95 C-15.75 106.66 -15.77 108.38 -15.78 110.1 C-15.81 112.49 -15.81 114.88 -15.8 117.28 C-15.81 117.97 -15.83 118.67 -15.84 119.38 C-15.77 125.5 -13.55 129.25 -9.89 134.02 C-5.47 137.2 1.16 136.31 6.37 136.33 C7.34 136.34 8.31 136.35 9.31 136.36 C12.52 136.38 15.73 136.4 18.93 136.41 C20.03 136.42 21.13 136.42 22.26 136.43 C28.08 136.46 33.89 136.48 39.7 136.49 C44.51 136.5 49.31 136.53 54.11 136.57 C59.92 136.62 65.73 136.65 71.54 136.65 C73.75 136.66 75.96 136.68 78.17 136.7 C81.26 136.73 84.36 136.73 87.46 136.72 C88.36 136.74 89.26 136.76 90.2 136.77 C96.66 136.71 101.49 135.08 106.67 131.14 C112.8 124.07 112.33 116.23 112.11 107.27 C112.1 105.99 112.1 104.71 112.09 103.39 C112 96.27 111.49 89.34 110.63 82.27 C109.72 74.62 109.55 67.1 109.65 59.41 C109.67 57.76 109.67 57.76 109.69 56.08 C109.75 51.55 109.83 47.02 109.94 42.49 C110.01 39.13 110.05 35.77 110.09 32.41 C110.12 31.4 110.15 30.38 110.18 29.34 C110.23 23.6 109.48 19.67 106.43 14.79 C100.97 9.69 94.66 9.7 87.61 9.74 C86.62 9.73 85.63 9.72 84.62 9.72 C81.37 9.7 78.13 9.7 74.88 9.71 C72.62 9.7 70.36 9.7 68.1 9.69 C63.36 9.68 58.63 9.68 53.89 9.69 C47.83 9.71 41.76 9.69 35.7 9.66 C31.03 9.64 26.36 9.64 21.69 9.64 C19.45 9.64 17.22 9.64 14.98 9.63 C11.85 9.61 8.73 9.62 5.6 9.64 C4.68 9.63 3.76 9.62 2.81 9.61 C-4.28 9.69 -8.32 11.41 -12.66 17.31 Z " fill="#1B1B1B" transform="translate(52.33073425292969,27.85955810546875)"/>
<path d="M0 0 C1.65 0 3.3 0 5 0 C5 0.66 5 1.32 5 2 C4.01 2.33 3.02 2.66 2 3 C2 3.99 2 4.98 2 6 C2.33 5.01 2.66 4.02 3 3 C5.31 3 7.62 3 10 3 C9.67 3.66 9.34 4.32 9 5 C8.34 4.67 7.68 4.34 7 4 C7 4.66 7 5.32 7 6 C7.99 6 8.98 6 10 6 C9.67 6.66 9.34 7.32 9 8 C9.99 8 10.98 8 12 8 C12 7.34 12 6.68 12 6 C12.33 5.67 12.66 5.34 13 5 C12.5 4.01 12.5 4.01 12 3 C12.99 3 13.98 3 15 3 C15 2.01 15 1.02 15 0 C16.32 0 17.64 0 19 0 C19 2.64 19 5.28 19 8 C18.01 8 17.02 8 16 8 C18.08 8.55 19.84 9 22 9 C22.5 10.49 22.5 10.49 23 12 C23.99 12 24.98 12 26 12 C26 11.01 26 10.02 26 9 C30.62 9 35.24 9 40 9 C40 11.97 40 14.94 40 18 C40.5 16.51 40.5 16.51 41 15 C41.66 15.33 42.32 15.66 43 16 C42.67 16.66 42.34 17.32 42 18 C43.65 18 45.3 18 47 18 C47 17.34 47 16.68 47 16 C46.01 16 45.02 16 44 16 C44.33 15.34 44.66 14.68 45 14 C45.99 14.5 45.99 14.5 47 15 C47 14.34 47 13.68 47 13 C45.02 13 43.04 13 41 13 C41 11.68 41 10.36 41 9 C45.29 9 49.58 9 54 9 C54 9.99 54 10.98 54 12 C55.03 7.73 55 4.63 55 0 C66.22 0 77.44 0 89 0 C88.67 0.66 88.34 1.32 88 2 C88.4 4.1 88.4 4.1 89 6 C89.99 6 90.98 6 92 6 C91.67 6.66 91.34 7.32 91 8 C88.06 7.62 88.06 7.62 85 7 C84.5 6.01 84.5 6.01 84 5 C83.34 5.99 82.68 6.98 82 8 C82.5 8.5 82.5 8.5 83 9 C83 9.66 83 10.32 83 11 C83.99 11.5 83.99 11.5 85 12 C85 11.01 85 10.02 85 9 C86.32 9 87.64 9 89 9 C88 11 88 11 86 14 C86.99 14.5 86.99 14.5 88 15 C88 14.01 88 13.02 88 12 C88.99 12 89.98 12 91 12 C91.33 11.01 91.66 10.02 92 9 C95.96 9 99.92 9 104 9 C104.05 12.02 104.09 15.04 104.12 18.06 C104.14 18.91 104.16 19.76 104.18 20.63 C104.22 26.61 104.19 32.29 100.26 37.15 C97.51 39.4 96.12 39.57 92.6 39.74 C91.44 39.79 90.28 39.85 89.08 39.9 C87.72 39.94 86.36 39.97 85 40 C84.24 40.02 83.48 40.03 82.7 40.05 C76.28 40.18 69.87 40.22 63.45 40.24 C61.93 40.24 61.93 40.24 60.37 40.25 C55.01 40.27 49.66 40.29 44.3 40.3 C38.78 40.31 33.27 40.34 27.75 40.38 C23.49 40.41 19.22 40.41 14.96 40.42 C12.92 40.42 10.89 40.43 8.86 40.45 C6.01 40.48 3.17 40.48 0.33 40.47 C-0.5 40.48 -1.33 40.5 -2.18 40.51 C-7.62 40.46 -12.71 39.59 -17 36 C-18 33.16 -18 31.07 -18 28 C-18.66 28 -19.32 28 -20 28 C-20 22.72 -20 17.44 -20 12 C-19.34 12 -18.68 12 -18 12 C-18 11.01 -18 10.02 -18 9 C-17.01 8.67 -16.02 8.34 -15 8 C-15.99 7.67 -16.98 7.34 -18 7 C-17.34 5.68 -16.68 4.36 -16 3 C-13.03 3 -10.06 3 -7 3 C-7 3.99 -7 4.98 -7 6 C-6.67 5.01 -6.34 4.02 -6 3 C-5.2 2.88 -4.39 2.75 -3.56 2.62 C-2.72 2.42 -1.87 2.21 -1 2 C-0.67 1.34 -0.34 0.68 0 0 Z M78 2 C77.32 3.89 77.32 3.89 77 6 C77.66 6.66 78.32 7.32 79 8 C79 6.35 79 4.7 79 3 C79.66 2.67 80.32 2.34 81 2 C80.01 2 79.02 2 78 2 Z M-4 7 C-4.33 7.66 -4.66 8.32 -5 9 C-4.34 9.66 -3.68 10.32 -3 11 C-3 10.34 -3 9.68 -3 9 C-2.34 9 -1.68 9 -1 9 C-1.33 9.99 -1.66 10.98 -2 12 C-1.34 12.33 -0.68 12.66 0 13 C0.66 11.02 1.32 9.04 2 7 C0.02 7 -1.96 7 -4 7 Z M75 8 C75.33 8.66 75.66 9.32 76 10 C76.66 9.34 77.32 8.68 78 8 C77.01 8 76.02 8 75 8 Z " fill="#091F9E" transform="translate(58,122)"/>
<path d="M0 0 C0.5 0.99 0.5 0.99 1 2 C1.66 2.33 2.32 2.66 3 3 C2.34 4.32 1.68 5.64 1 7 C1.66 7 2.32 7 3 7 C3 6.01 3 5.02 3 4 C3.66 4.33 4.32 4.66 5 5 C4.67 5.66 4.34 6.32 4 7 C4.99 6.67 5.98 6.34 7 6 C8.22 3.5 8.22 3.5 9 1 C9.66 1.66 10.32 2.32 11 3 C11.99 2.67 12.98 2.34 14 2 C17.74 1.09 21.16 1 25 1 C25.66 0.67 26.32 0.34 27 0 C27.99 0.49 27.99 0.49 29 1 C28.99 2.3 28.98 3.61 28.97 4.95 C28.93 9.88 28.91 14.8 28.89 19.72 C28.88 21.83 28.87 23.95 28.85 26.06 C28.76 36.82 28.81 47.36 30.27 58.02 C31.18 64.81 31.34 71.52 31.32 78.36 C31.31 80.42 31.34 82.49 31.36 84.55 C31.36 85.86 31.36 87.17 31.36 88.52 C31.37 89.7 31.37 90.87 31.37 92.08 C31 95 31 95 29.48 96.9 C28.99 97.27 28.5 97.63 28 98 C27.98 92.62 27.96 87.25 27.95 81.87 C27.94 80.05 27.93 78.22 27.92 76.39 C27.91 73.76 27.91 71.13 27.9 68.51 C27.9 67.69 27.89 66.87 27.89 66.02 C27.89 60.23 27.89 60.23 29 58 C28.34 58 27.68 58 27 58 C26.5 58.99 26.5 58.99 26 60 C25.67 59.01 25.34 58.02 25 57 C25.5 56.01 25.5 56.01 26 55 C25.34 55 24.68 55 24 55 C23.5 55.99 23.5 55.99 23 57 C23 56.34 23 55.68 23 55 C22.34 55 21.68 55 21 55 C20.67 55.99 20.34 56.98 20 58 C16.3 58.95 13.7 58.95 10 58 C9.5 58.99 9.5 58.99 9 60 C9 59.34 9 58.68 9 58 C7.68 57.67 6.36 57.34 5 57 C5.33 55.35 5.66 53.7 6 52 C4.7 52.25 4.7 52.25 3.38 52.5 C0.19 52.97 -2.78 53.08 -6 53 C-6 51.68 -6 50.36 -6 49 C-6.99 49.33 -7.98 49.66 -9 50 C-9 49.01 -9 48.02 -9 47 C-9.66 47 -10.32 47 -11 47 C-11 50.3 -11 53.6 -11 57 C-10.01 56.67 -9.02 56.34 -8 56 C-7.01 56.5 -7.01 56.5 -6 57 C-5.5 56.01 -5.5 56.01 -5 55 C-5.33 56.32 -5.66 57.64 -6 59 C-7.65 58.67 -9.3 58.34 -11 58 C-11.33 58.66 -11.66 59.32 -12 60 C-12 59.34 -12 58.68 -12 58 C-12.66 57.67 -13.32 57.34 -14 57 C-13.34 57 -12.68 57 -12 57 C-12 53.7 -12 50.4 -12 47 C-13.65 46.67 -15.3 46.34 -17 46 C-17 46.66 -17 47.32 -17 48 C-16.34 48.33 -15.68 48.66 -15 49 C-15.66 49 -16.32 49 -17 49 C-17.33 49.66 -17.66 50.32 -18 51 C-18.33 50.01 -18.66 49.02 -19 48 C-18.67 47.34 -18.34 46.68 -18 46 C-18.99 46 -19.98 46 -21 46 C-21.33 45.34 -21.66 44.68 -22 44 C-22.99 44 -23.98 44 -25 44 C-27.67 44 -30.33 44 -33 44 C-32.95 40.92 -32.95 40.92 -32.9 37.85 C-32.79 35.98 -32.79 35.98 -34 35 C-34 38.3 -34 41.6 -34 45 C-31.03 45 -28.06 45 -25 45 C-25 45.33 -25 45.66 -25 46 C-27.97 46 -30.94 46 -34 46 C-34 46.66 -34 47.32 -34 48 C-29.71 48 -25.42 48 -21 48 C-27.96 51.48 -35.47 50.12 -43 49 C-43 48.67 -43 48.34 -43 48 C-41.35 48 -39.7 48 -38 48 C-38.5 46.52 -38.5 46.52 -39 45 C-38.56 42.31 -38.56 42.31 -38 40 C-38.99 39.67 -39.98 39.34 -41 39 C-40.01 38.5 -40.01 38.5 -39 38 C-39 37.34 -39 36.68 -39 36 C-37.68 36 -36.36 36 -35 36 C-35.08 35.23 -35.17 34.46 -35.25 33.66 C-35.36 32.66 -35.46 31.66 -35.56 30.62 C-35.67 29.63 -35.77 28.63 -35.88 27.6 C-36 25 -36 25 -35 23 C-36.65 23 -38.3 23 -40 23 C-40 22.67 -40 22.34 -40 22 C-38.35 22 -36.7 22 -35 22 C-35.33 21.01 -35.66 20.02 -36 19 C-35.67 18.34 -35.34 17.68 -35 17 C-35.66 16.67 -36.32 16.34 -37 16 C-36.34 16 -35.68 16 -35 16 C-35.19 15.05 -35.37 14.1 -35.56 13.12 C-36 10 -36 10 -35 8 C-36.65 8 -38.3 8 -40 8 C-40 7.67 -40 7.34 -40 7 C-38.35 7 -36.7 7 -35 7 C-34.9 6.38 -34.79 5.76 -34.69 5.12 C-34 3 -34 3 -31 1 C-30.67 2.32 -30.34 3.64 -30 5 C-30.99 5.49 -30.99 5.49 -32 6 C-32.66 5.67 -33.32 5.34 -34 5 C-34 5.66 -34 6.32 -34 7 C-31.69 7 -29.38 7 -27 7 C-27 7.33 -27 7.66 -27 8 C-29.31 8 -31.62 8 -34 8 C-34 8.66 -34 9.32 -34 10 C-30.7 10 -27.4 10 -24 10 C-24.33 9.01 -24.66 8.02 -25 7 C-24.67 6.01 -24.34 5.02 -24 4 C-23.34 4 -22.68 4 -22 4 C-21 5 -21 5 -20 7 C-19.34 7 -18.68 7 -18 7 C-18 5.35 -18 3.7 -18 2 C-17.67 2.66 -17.34 3.32 -17 4 C-16.26 3.93 -15.53 3.86 -14.77 3.78 C-13.79 3.69 -12.82 3.6 -11.81 3.5 C-10.85 3.41 -9.89 3.31 -8.89 3.22 C-6.25 3.02 -3.65 2.96 -1 3 C-0.67 2.01 -0.34 1.02 0 0 Z " fill="#122855" transform="translate(133,55)"/>
<path d="M0 0 C0.82 -0 1.64 -0.01 2.48 -0.01 C5.16 -0.02 7.84 -0.02 10.52 -0.02 C12.41 -0.03 14.29 -0.03 16.18 -0.03 C20.12 -0.04 24.06 -0.04 28 -0.04 C33.02 -0.04 38.03 -0.05 43.05 -0.07 C46.94 -0.08 50.83 -0.08 54.72 -0.08 C56.57 -0.08 58.42 -0.09 60.26 -0.1 C93.34 -0.22 93.34 -0.22 106.41 10.25 C117.22 21.11 119.43 34.66 119.45 49.29 C119.46 50.17 119.46 51.05 119.47 51.95 C119.48 54.83 119.49 57.71 119.49 60.59 C119.5 62.08 119.5 62.08 119.5 63.6 C119.52 68.85 119.53 74.09 119.53 79.34 C119.54 84.73 119.56 90.12 119.59 95.51 C119.61 99.68 119.61 103.85 119.61 108.02 C119.62 110.01 119.62 111.99 119.64 113.98 C119.75 131.31 118.85 146.91 106.29 160.15 C105.63 160.15 104.97 160.15 104.29 160.15 C104.29 160.81 104.29 161.47 104.29 162.15 C90.81 170.95 76.46 170.6 60.95 170.54 C58.89 170.55 56.84 170.55 54.78 170.55 C50.5 170.56 46.21 170.55 41.92 170.54 C36.46 170.52 31 170.53 25.53 170.55 C21.3 170.56 17.06 170.55 12.82 170.55 C10.81 170.54 8.79 170.55 6.78 170.55 C-9.54 170.6 -26.28 170.5 -39.05 158.9 C-52.47 144.72 -50.87 126.46 -50.88 108.28 C-50.88 106.35 -50.88 104.43 -50.89 102.5 C-50.89 98.48 -50.9 94.45 -50.9 90.43 C-50.9 85.31 -50.91 80.19 -50.93 75.06 C-50.94 71.09 -50.94 67.12 -50.94 63.14 C-50.94 61.26 -50.94 59.37 -50.95 57.48 C-51.07 24.89 -51.07 24.89 -38.96 11.77 C-28.15 1.69 -14.15 -0.01 0 0 Z M-36.74 13.15 C-44.51 22.35 -46.85 33.13 -46.89 44.9 C-46.89 45.78 -46.9 46.65 -46.91 47.55 C-46.93 50.43 -46.94 53.31 -46.95 56.2 C-46.95 57.19 -46.96 58.18 -46.96 59.2 C-46.98 64.45 -47 69.7 -47.01 74.95 C-47.02 80.34 -47.05 85.72 -47.09 91.1 C-47.12 95.28 -47.12 99.45 -47.13 103.62 C-47.13 105.6 -47.14 107.59 -47.16 109.57 C-47.3 125.45 -47.21 141.59 -35.52 153.77 C-31.72 157.47 -27.63 159.31 -22.71 161.15 C-22.04 161.49 -21.37 161.83 -20.67 162.18 C-16.46 163.55 -12.48 163.44 -8.08 163.44 C-7.11 163.44 -6.15 163.45 -5.15 163.46 C-1.96 163.48 1.23 163.48 4.42 163.48 C6.64 163.49 8.87 163.49 11.09 163.5 C15.76 163.51 20.43 163.52 25.1 163.52 C31.06 163.52 37.02 163.54 42.98 163.58 C47.58 163.6 52.18 163.6 56.78 163.6 C58.98 163.6 61.17 163.61 63.36 163.63 C84.27 164 84.27 164 102.58 154.84 C111.45 146.05 114.36 136.53 114.45 124.23 C114.45 123.34 114.45 122.45 114.45 121.53 C114.46 120.58 114.46 119.63 114.47 118.65 C114.48 115.52 114.49 112.39 114.49 109.25 C114.5 107.07 114.5 104.88 114.51 102.69 C114.52 98.11 114.53 93.53 114.53 88.94 C114.54 83.09 114.56 77.23 114.59 71.38 C114.61 66.86 114.61 62.34 114.61 57.83 C114.62 55.67 114.62 53.51 114.64 51.35 C114.65 48.33 114.65 45.3 114.65 42.27 C114.66 40.95 114.66 40.95 114.67 39.61 C114.61 29.41 111.86 21.21 104.98 13.58 C91.82 1.65 77.83 1.54 60.92 1.65 C58.86 1.65 56.8 1.65 54.74 1.64 C50.45 1.64 46.16 1.66 41.86 1.68 C36.39 1.71 30.92 1.7 25.45 1.69 C21.21 1.68 16.97 1.69 12.72 1.7 C10.71 1.71 8.69 1.71 6.68 1.71 C-16.88 1.59 -16.88 1.59 -36.74 13.15 Z " fill="#020202" transform="translate(65.7099609375,16.854736328125)"/>
<path d="M0 0 C2.03 -0 4.07 -0.01 6.1 -0.02 C10.34 -0.02 14.58 -0.02 18.82 -0.01 C24.23 -0 29.63 -0.02 35.03 -0.05 C39.22 -0.07 43.41 -0.07 47.6 -0.06 C49.59 -0.06 51.58 -0.07 53.57 -0.08 C68.95 -0.16 83.95 0.32 95.88 11.43 C103.95 20.65 105.36 30.99 105.13 42.87 C105.12 43.95 105.12 45.02 105.11 46.13 C105.03 53.97 105.03 53.97 103.88 57.43 C103.22 57.43 102.56 57.43 101.88 57.43 C102.87 60.4 102.87 60.4 103.88 63.43 C100.91 63.93 100.91 63.93 97.88 64.43 C97.86 63.68 97.84 62.92 97.82 62.15 C97.72 58.66 97.61 55.17 97.5 51.68 C97.46 49.9 97.46 49.9 97.41 48.09 C96.98 30.98 96.98 30.98 88.88 16.43 C81.81 10.57 74.53 10.14 65.74 10.16 C64.25 10.15 64.25 10.15 62.73 10.14 C59.45 10.13 56.18 10.13 52.91 10.13 C50.63 10.13 48.35 10.12 46.06 10.12 C41.28 10.11 36.51 10.11 31.73 10.12 C25.61 10.12 19.5 10.11 13.38 10.08 C8.67 10.07 3.96 10.07 -0.75 10.07 C-3.01 10.07 -5.26 10.07 -7.52 10.06 C-10.67 10.04 -13.83 10.05 -16.98 10.06 C-17.91 10.05 -18.84 10.05 -19.79 10.04 C-27.8 10.1 -33.78 12.34 -40.12 17.43 C-49.95 28.65 -47.54 46.76 -47.75 60.68 C-47.78 62.8 -47.82 64.91 -47.86 67.02 C-47.96 72.16 -48.04 77.3 -48.12 82.43 C-49.3 82.9 -49.3 82.9 -50.5 83.37 C-53.04 84.36 -53.04 84.36 -55.12 85.43 C-55.22 77.66 -55.29 69.89 -55.34 62.11 C-55.36 59.47 -55.39 56.83 -55.42 54.19 C-55.47 50.38 -55.49 46.57 -55.51 42.76 C-55.53 41.59 -55.55 40.42 -55.57 39.22 C-55.58 28.59 -53.09 19.66 -46.15 11.44 C-33.66 -0.89 -16.3 -0.03 0 0 Z " fill="#DFDFDF" transform="translate(75.12109375,18.56640625)"/>
<path d="M0 0 C6.16 3.57 9.89 9.01 12.69 15.44 C13.21 19.91 13.16 24.37 13.13 28.86 C13.13 31 13.15 33.13 13.19 35.27 C13.19 36.64 13.19 38.01 13.18 39.38 C13.19 41.23 13.19 41.23 13.19 43.12 C12.6 47.02 11.43 48.66 8.69 51.44 C4.44 53.56 -0.86 52.64 -5.31 51.44 C-6.3 51.93 -6.3 51.93 -7.31 52.44 C-10.37 52.57 -13.06 52.49 -16.06 51.88 C-18.34 51.2 -18.34 51.2 -20.31 52.44 C-24.69 53.02 -26.63 52.93 -30.25 50.31 C-33.89 45.35 -33.02 38.25 -32.31 32.44 C-31.65 31.78 -30.99 31.12 -30.31 30.44 C-30.31 31.1 -30.31 31.76 -30.31 32.44 C-29.65 32.44 -28.99 32.44 -28.31 32.44 C-28.81 30.95 -28.81 30.95 -29.31 29.44 C-28.75 27.31 -28.75 27.31 -27.31 25.44 C-25.32 25.07 -23.32 24.75 -21.31 24.44 C-18 22.48 -18 22.48 -15.31 20.44 C-15.28 18.55 -15.28 18.55 -16.31 16.44 C-18.57 14.67 -20.67 13.67 -23.31 12.44 C-26.43 13.11 -26.43 13.11 -27.5 15.5 C-27.77 16.14 -28.04 16.78 -28.31 17.44 C-29.3 17.11 -30.29 16.78 -31.31 16.44 C-30.72 11.32 -29.76 7.53 -25.73 4.09 C-18.06 -1.62 -9.14 -4.1 0 0 Z " fill="#96C6FE" transform="translate(79.3125,47.5625)"/>
<path d="M0 0 C0.33 0 0.66 0 1 0 C0.99 0.85 0.98 1.7 0.97 2.58 C0.52 21.09 0.52 21.09 2 39.5 C3.09 47.07 3.26 54.59 3.3 62.23 C3.31 63.65 3.32 65.08 3.34 66.5 C3.36 68.51 3.36 70.52 3.36 72.52 C3.37 73.7 3.37 74.87 3.37 76.08 C3 79 3 79 1.48 80.9 C0.99 81.27 0.5 81.63 0 82 C-0.02 76.62 -0.04 71.25 -0.05 65.87 C-0.06 64.05 -0.07 62.22 -0.08 60.39 C-0.09 57.76 -0.09 55.13 -0.1 52.51 C-0.1 51.69 -0.11 50.87 -0.11 50.02 C-0.11 44.23 -0.11 44.23 1 42 C0.34 42 -0.32 42 -1 42 C-1.5 42.99 -1.5 42.99 -2 44 C-2.33 43.01 -2.66 42.02 -3 41 C-2.5 40.01 -2.5 40.01 -2 39 C-2.66 39 -3.32 39 -4 39 C-4.5 39.99 -4.5 39.99 -5 41 C-5 40.34 -5 39.68 -5 39 C-5.66 39 -6.32 39 -7 39 C-7.33 39.99 -7.66 40.98 -8 42 C-11.7 42.95 -14.3 42.95 -18 42 C-18.5 42.99 -18.5 42.99 -19 44 C-19 43.34 -19 42.68 -19 42 C-20.32 41.67 -21.64 41.34 -23 41 C-22.67 39.35 -22.34 37.7 -22 36 C-23.3 36.25 -23.3 36.25 -24.62 36.5 C-27.81 36.97 -30.78 37.08 -34 37 C-34 35.68 -34 34.36 -34 33 C-34.99 33.33 -35.98 33.66 -37 34 C-37 33.01 -37 32.02 -37 31 C-37.66 31 -38.32 31 -39 31 C-39 34.3 -39 37.6 -39 41 C-38.01 40.67 -37.02 40.34 -36 40 C-35.01 40.5 -35.01 40.5 -34 41 C-33.5 40.01 -33.5 40.01 -33 39 C-33.33 40.32 -33.66 41.64 -34 43 C-35.65 42.67 -37.3 42.34 -39 42 C-39.33 42.66 -39.66 43.32 -40 44 C-40 43.34 -40 42.68 -40 42 C-40.66 41.67 -41.32 41.34 -42 41 C-41.34 41 -40.68 41 -40 41 C-40 37.7 -40 34.4 -40 31 C-41.65 30.67 -43.3 30.34 -45 30 C-45 30.66 -45 31.32 -45 32 C-44.34 32.33 -43.68 32.66 -43 33 C-43.66 33 -44.32 33 -45 33 C-45.33 33.66 -45.66 34.32 -46 35 C-46.33 34.01 -46.66 33.02 -47 32 C-46.67 31.34 -46.34 30.68 -46 30 C-46.99 30 -47.98 30 -49 30 C-49.33 29.34 -49.66 28.68 -50 28 C-50.99 28 -51.98 28 -53 28 C-55.67 28 -58.33 28 -61 28 C-60.95 24.92 -60.95 24.92 -60.9 21.85 C-60.79 19.98 -60.79 19.98 -62 19 C-62 22.3 -62 25.6 -62 29 C-59.03 29 -56.06 29 -53 29 C-53 29.33 -53 29.66 -53 30 C-55.97 30 -58.94 30 -62 30 C-62 30.66 -62 31.32 -62 32 C-57.71 32 -53.42 32 -49 32 C-55.96 35.48 -63.47 34.12 -71 33 C-71 32.67 -71 32.34 -71 32 C-69.35 32 -67.7 32 -66 32 C-66.33 31.01 -66.66 30.02 -67 29 C-66.56 26.31 -66.56 26.31 -66 24 C-66.99 23.67 -67.98 23.34 -69 23 C-68.34 22.67 -67.68 22.34 -67 22 C-67 21.34 -67 20.68 -67 20 C-65.68 20 -64.36 20 -63 20 C-63 19.01 -63 18.02 -63 17 C-55.97 16.25 -49.07 15.86 -42 16 C-42 16.66 -42 17.32 -42 18 C-41.34 18 -40.68 18 -40 18 C-40 17.01 -40 16.02 -40 15 C-38.88 14.88 -37.75 14.76 -36.6 14.63 C-32.06 14.13 -27.53 13.58 -23 13 C-22.11 12.89 -21.21 12.78 -20.29 12.67 C-13.53 11.53 -7.47 8.04 -2 4 C-0.64 1.91 -0.64 1.91 0 0 Z " fill="#071D70" transform="translate(161,71)"/>
<path d="M0 0 C1.32 0.33 2.64 0.66 4 1 C3.01 1 2.02 1 1 1 C1 3.64 1 6.28 1 9 C1.91 8.81 2.81 8.63 3.75 8.44 C6.75 8.03 8.19 8.2 11 9 C11.66 8.67 12.32 8.34 13 8 C13 8.99 13 9.98 13 11 C13.99 11 14.98 11 16 11 C16.5 12.48 16.5 12.48 17 14 C17 13.01 17 12.02 17 11 C19.47 11.5 19.47 11.5 22 12 C22 15.63 22 19.26 22 23 C23.98 23 25.96 23 28 23 C25.21 21.89 25.21 21.89 23 22 C23 18.7 23 15.4 23 12 C23.66 12 24.32 12 25 12 C25.5 12.99 25.5 12.99 26 14 C26.66 14 27.32 14 28 14 C28.5 15.48 28.5 15.48 29 17 C32.63 17 36.26 17 40 17 C40 18.65 40 20.3 40 22 C47.05 23.13 47.05 23.13 54 22 C54.33 21.34 54.66 20.68 55 20 C56.65 20 58.3 20 60 20 C60.5 21.48 60.5 21.48 61 23 C61.66 23 62.32 23 63 23 C63 28.94 63 34.88 63 41 C56.25 42.12 56.25 42.12 52 41 C51.5 41.99 51.5 41.99 51 43 C48.94 43.62 48.94 43.62 47 44 C47 44.99 47 45.98 47 47 C45.51 46.5 45.51 46.5 44 46 C45.75 42.12 45.75 42.12 48 41 C46.68 41 45.36 41 44 41 C44 41.99 44 42.98 44 44 C41 43 41 43 39 40 C40.65 38.68 42.3 37.36 44 36 C44.41 36.52 44.82 37.03 45.25 37.56 C45.83 38.04 46.41 38.51 47 39 C49.16 38.77 49.16 38.77 51 38 C50.01 38 49.02 38 48 38 C48 37.01 48 36.02 48 35 C46.51 34.5 46.51 34.5 45 34 C45.99 33.34 46.98 32.68 48 32 C47.22 32.19 46.43 32.37 45.62 32.56 C43 33 43 33 41 32 C40.5 32.99 40.5 32.99 40 34 C40 33.34 40 32.68 40 32 C38.58 32.28 38.58 32.28 37.12 32.56 C34 33 34 33 32 32 C31.5 32.99 31.5 32.99 31 34 C31 33.34 31 32.68 31 32 C30.34 32 29.68 32 29 32 C28.5 32.99 28.5 32.99 28 34 C28 33.34 28 32.68 28 32 C27.34 32 26.68 32 26 32 C25.5 32.99 25.5 32.99 25 34 C25 33.34 25 32.68 25 32 C24.34 32 23.68 32 23 32 C22.5 32.99 22.5 32.99 22 34 C22 33.34 22 32.68 22 32 C19.36 32 16.72 32 14 32 C14 32.66 14 33.32 14 34 C14.99 34.5 14.99 34.5 16 35 C15.34 35 14.68 35 14 35 C13.67 35.99 13.34 36.98 13 38 C13 36.02 13 34.04 13 32 C11.35 32 9.7 32 8 32 C8 31.67 8 31.34 8 31 C9.77 30.8 11.54 30.62 13.31 30.44 C14.3 30.33 15.28 30.23 16.3 30.12 C19 30 19 30 22 31 C22 29.35 22 27.7 22 26 C20.35 26 18.7 26 17 26 C17 26.66 17 27.32 17 28 C17.66 28.33 18.32 28.66 19 29 C18.01 29 17.02 29 16 29 C16 27.02 16 25.04 16 23 C10.72 23 5.44 23 0 23 C0 23.66 0 24.32 0 25 C3.3 25 6.6 25 10 25 C10 25.33 10 25.66 10 26 C6.7 26 3.4 26 0 26 C0.5 27.98 0.5 27.98 1 30 C2.65 30 4.3 30 6 30 C6.5 30.99 6.5 30.99 7 32 C-0.75 33.12 -0.75 33.12 -3 32 C-3 32.99 -3 33.98 -3 35 C-2.34 35 -1.68 35 -1 35 C-1.33 36.65 -1.66 38.3 -2 40 C-6.62 40 -11.24 40 -16 40 C-16 40.99 -16 41.98 -16 43 C-16.66 43 -17.32 43 -18 43 C-18.33 42.01 -18.66 41.02 -19 40 C-19.66 39.34 -20.32 38.68 -21 38 C-21.12 34.88 -21.12 34.88 -21 32 C-20.01 31.67 -19.02 31.34 -18 31 C-21.3 31 -24.6 31 -28 31 C-28 31.99 -28 32.98 -28 34 C-30.31 34 -32.62 34 -35 34 C-35 33.34 -35 32.68 -35 32 C-34.01 32 -33.02 32 -32 32 C-32 31.34 -32 30.68 -32 30 C-32.99 30.33 -33.98 30.66 -35 31 C-35 30.34 -35 29.68 -35 29 C-35.99 28.67 -36.98 28.34 -38 28 C-38 26.35 -38 24.7 -38 23 C-32.72 23 -27.44 23 -22 23 C-21.67 23.66 -21.34 24.32 -21 25 C-21 24.34 -21 23.68 -21 23 C-19.35 23 -17.7 23 -16 23 C-15.67 22.01 -15.34 21.02 -15 20 C-15 20.66 -15 21.32 -15 22 C-14.01 21.67 -13.02 21.34 -12 21 C-11.34 21.33 -10.68 21.66 -10 22 C-9.67 21.34 -9.34 20.68 -9 20 C-9 20.66 -9 21.32 -9 22 C-8.34 22 -7.68 22 -7 22 C-6.67 21.34 -6.34 20.68 -6 20 C-6 20.66 -6 21.32 -6 22 C-5.34 22 -4.68 22 -4 22 C-4.5 20.52 -4.5 20.52 -5 19 C-4.67 17.35 -4.34 15.7 -4 14 C0.95 14 5.9 14 11 14 C5.56 13.5 5.56 13.5 0 13 C0 8.71 0 4.42 0 0 Z M37 34 C37.99 34.33 38.98 34.66 40 35 C39.34 35 38.68 35 38 35 C38 36.65 38 38.3 38 40 C37.34 39.01 36.68 38.02 36 37 C36.33 36.01 36.66 35.02 37 34 Z M34 40 C34.99 40.33 35.98 40.66 37 41 C36.01 41.33 35.02 41.66 34 42 C34 41.34 34 40.68 34 40 Z " fill="#081C85" transform="translate(99,90)"/>
<path d="M0 0 C0.97 -0.01 1.95 -0.01 2.95 -0.02 C6.16 -0.03 9.38 -0.03 12.59 -0.03 C14.83 -0.03 17.06 -0.03 19.3 -0.04 C23.99 -0.05 28.69 -0.05 33.38 -0.04 C39.38 -0.04 45.38 -0.05 51.38 -0.08 C56.01 -0.09 60.63 -0.09 65.25 -0.09 C67.47 -0.09 69.68 -0.09 71.89 -0.1 C74.99 -0.12 78.09 -0.11 81.19 -0.1 C82.1 -0.11 83 -0.11 83.94 -0.12 C90.34 -0.07 96.14 0.76 101.31 4.89 C101.76 5.45 102.2 6.01 102.66 6.59 C103.36 7.42 103.36 7.42 104.06 8.26 C107.55 13.98 107.58 19.62 107.58 26.1 C107.59 27.07 107.59 28.05 107.6 29.05 C107.62 32.26 107.62 35.47 107.62 38.67 C107.63 40.91 107.64 43.15 107.64 45.38 C107.66 50.07 107.66 54.75 107.66 59.44 C107.66 65.43 107.69 71.43 107.72 77.42 C107.74 82.04 107.75 86.66 107.75 91.28 C107.75 93.49 107.76 95.7 107.77 97.91 C107.79 101 107.79 104.1 107.77 107.19 C107.78 108.1 107.8 109 107.81 109.94 C107.74 116.46 106.37 121.85 101.91 126.8 C95.77 132.32 89.37 132.57 81.55 132.55 C80.11 132.56 80.11 132.56 78.63 132.56 C75.46 132.58 72.28 132.58 69.11 132.58 C66.89 132.58 64.68 132.58 62.47 132.59 C57.83 132.6 53.19 132.6 48.55 132.59 C42.62 132.58 36.68 132.6 30.75 132.62 C26.18 132.64 21.6 132.64 17.03 132.64 C14.84 132.64 12.66 132.64 10.47 132.65 C7.41 132.67 4.34 132.66 1.28 132.65 C-0.06 132.66 -0.06 132.66 -1.44 132.67 C-7.99 132.62 -13.79 131.72 -18.99 127.37 C-19.81 126.36 -19.81 126.36 -20.65 125.34 C-21.5 124.33 -21.5 124.33 -22.36 123.31 C-24.55 120.01 -24.84 116.87 -24.86 112.98 C-24.87 112.12 -24.87 111.27 -24.88 110.39 C-24.88 109.47 -24.89 108.54 -24.89 107.58 C-24.9 106.6 -24.9 105.62 -24.91 104.61 C-24.93 101.36 -24.94 98.1 -24.95 94.85 C-24.96 93.19 -24.96 93.19 -24.96 91.48 C-24.98 85.6 -25 79.72 -25.01 73.83 C-25.02 67.76 -25.05 61.69 -25.09 55.62 C-25.12 50.95 -25.13 46.27 -25.13 41.6 C-25.14 39.36 -25.15 37.13 -25.17 34.89 C-25.19 31.75 -25.19 28.62 -25.18 25.48 C-25.19 24.56 -25.21 23.65 -25.22 22.7 C-25.17 16.14 -23.86 10.67 -19.3 5.75 C-13.19 0.35 -7.78 -0.02 0 0 Z M-19.04 11.44 C-21.24 15.75 -21.37 19.85 -21.44 24.62 C-21.47 25.59 -21.5 26.56 -21.53 27.56 C-21.62 31.13 -21.67 34.7 -21.71 38.27 C-21.73 39.77 -21.76 41.27 -21.78 42.77 C-21.92 53.26 -21.98 63.74 -22.01 74.23 C-22.02 78.89 -22.05 83.55 -22.09 88.21 C-22.12 91.83 -22.13 95.46 -22.13 99.08 C-22.14 100.8 -22.15 102.52 -22.17 104.24 C-22.19 106.63 -22.19 109.02 -22.18 111.41 C-22.19 112.11 -22.21 112.8 -22.22 113.52 C-22.16 119.63 -19.93 123.38 -16.27 128.15 C-11.85 131.33 -5.22 130.44 -0.02 130.47 C0.96 130.48 1.93 130.48 2.93 130.49 C6.14 130.52 9.34 130.53 12.55 130.55 C13.65 130.55 14.75 130.56 15.88 130.56 C21.7 130.59 27.51 130.61 33.32 130.62 C38.13 130.64 42.93 130.67 47.73 130.71 C53.54 130.76 59.35 130.78 65.16 130.79 C67.37 130.79 69.58 130.81 71.78 130.83 C74.88 130.87 77.98 130.87 81.07 130.86 C81.98 130.87 82.88 130.89 83.81 130.91 C90.28 130.84 95.11 129.22 100.29 125.27 C106.41 118.2 105.95 110.36 105.73 101.4 C105.72 100.12 105.71 98.84 105.71 97.52 C105.62 90.4 105.11 83.47 104.25 76.4 C103.34 68.76 103.17 61.24 103.27 53.54 C103.29 51.9 103.29 51.9 103.31 50.22 C103.37 45.69 103.45 41.16 103.56 36.62 C103.63 33.26 103.67 29.9 103.71 26.54 C103.74 25.53 103.77 24.51 103.8 23.47 C103.84 17.74 103.1 13.8 100.05 8.92 C94.59 3.82 88.28 3.84 81.23 3.87 C80.24 3.86 79.25 3.86 78.24 3.85 C74.99 3.83 71.75 3.84 68.5 3.84 C66.24 3.84 63.98 3.83 61.72 3.83 C56.98 3.82 52.25 3.82 47.51 3.83 C41.45 3.84 35.38 3.82 29.32 3.79 C24.65 3.77 19.98 3.77 15.31 3.78 C13.07 3.78 10.83 3.77 8.6 3.76 C5.47 3.75 2.35 3.76 -0.78 3.77 C-1.7 3.76 -2.62 3.75 -3.57 3.74 C-10.66 3.83 -14.7 5.54 -19.04 11.44 Z " fill="#02050C" transform="translate(58.712158203125,33.725341796875)"/>
<path d="M0 0 C3.82 5.74 4.21 10.34 3 17 C2.96 19 2.95 21 3 23 C4.07 22.9 5.14 22.79 6.25 22.69 C8.11 22.84 8.11 22.84 10 23 C12 25.5 12 25.5 14 28 C18.24 28.46 21.86 27.83 26 27 C26.66 27.33 27.32 27.66 28 28 C31.86 28.17 35.23 27.75 39 27 C39.33 27.33 39.66 27.66 40 28 C45.13 28.66 45.13 28.66 49.76 26.85 C50.27 26.38 50.78 25.92 51.31 25.44 C52.2 24.63 53.09 23.83 54 23 C54.99 23.33 55.98 23.66 57 24 C57 29.61 57 35.22 57 41 C55.21 40.98 53.41 40.96 51.56 40.94 C49.71 40.92 47.85 40.93 46 41 C45.67 41.33 45.34 41.66 45 42 C43.33 42.04 41.67 42.04 40 42 C40.33 42.99 40.66 43.98 41 45 C40.34 45.66 39.68 46.32 39 47 C39 45.35 39 43.7 39 42 C33.72 42 28.44 42 23 42 C23 42.66 23 43.32 23 44 C25.31 44 27.62 44 30 44 C30 44.33 30 44.66 30 45 C27.03 45 24.06 45 21 45 C21.33 44.01 21.66 43.02 22 42 C21.34 42 20.68 42 20 42 C19.67 42.66 19.34 43.32 19 44 C19 43.34 19 42.68 19 42 C17.52 42.5 17.52 42.5 16 43 C15.34 42.67 14.68 42.34 14 42 C13.67 42.66 13.34 43.32 13 44 C13 43.34 13 42.68 13 42 C11.52 42.5 11.52 42.5 10 43 C9.34 42.67 8.68 42.34 8 42 C7.67 42.66 7.34 43.32 7 44 C7 43.01 7 42.02 7 41 C7.99 41 8.98 41 10 41 C10 40.34 10 39.68 10 39 C9.11 39.19 8.23 39.37 7.31 39.56 C4.12 39.98 2.09 39.71 -1 39 C-1.02 33.61 -1.04 28.21 -1.05 22.82 C-1.06 20.98 -1.07 19.15 -1.08 17.31 C-1.09 14.68 -1.09 12.04 -1.1 9.41 C-1.1 8.58 -1.11 7.76 -1.11 6.91 C-1.11 4.94 -1.06 2.97 -1 1 C-0.67 0.67 -0.34 0.34 0 0 Z M10 44 C10.99 44.33 11.98 44.66 13 45 C12.01 45.33 11.02 45.66 10 46 C10 45.34 10 44.68 10 44 Z M16 44 C19 45 19 45 19 45 Z " fill="#081C6F" transform="translate(38,71)"/>
<path d="M0 0 C0.33 0 0.66 0 1 0 C1 8.91 1 17.82 1 27 C2.98 26.67 4.96 26.34 7 26 C6.34 24.02 5.68 22.04 5 20 C5.66 20 6.32 20 7 20 C7.5 18.52 7.5 18.52 8 17 C8.07 26.57 8.12 36.14 8.16 45.71 C8.17 50.16 8.19 54.61 8.23 59.05 C8.26 63.35 8.28 67.65 8.28 71.95 C8.29 73.58 8.3 75.21 8.32 76.84 C8.46 91.21 7.49 103.7 -2.59 114.75 C-9.51 121.29 -17.39 123.47 -26.75 123.34 C-29 123 -29 123 -31 121 C-31.12 118.38 -31.12 118.38 -31 116 C-30.09 115.91 -29.19 115.83 -28.25 115.74 C-19.84 114.77 -12.51 113.65 -6.41 107.36 C-1.25 100.73 -0.7 93.61 -0.68 85.48 C-0.67 84.56 -0.66 83.63 -0.65 82.67 C-0.62 79.63 -0.6 76.58 -0.59 73.54 C-0.57 71.42 -0.55 69.3 -0.53 67.18 C-0.48 61.61 -0.44 56.05 -0.4 50.48 C-0.36 44.8 -0.31 39.11 -0.26 33.43 C-0.16 22.29 -0.08 11.14 0 0 Z " fill="#707070" transform="translate(172,56)"/>
<path d="M0 0 C0.66 0.66 1.32 1.32 2 2 C1.34 2.66 0.68 3.32 0 4 C-0.33 3.01 -0.66 2.02 -1 1 C-0.67 0.67 -0.34 0.34 0 0 Z M58 1 C60.6 3.71 60.99 4.89 61.19 8.75 C61.09 10.36 61.09 10.36 61 12 C51.59 13.15 51.59 13.15 47 13 C47 13.66 47 14.32 47 15 C45.35 15 43.7 15 42 15 C41.5 14.01 41.5 14.01 41 13 C40.67 14.65 40.34 16.3 40 18 C38.68 18 37.36 18 36 18 C35.5 16.52 35.5 16.52 35 15 C35 15.99 35 16.98 35 18 C34.34 18 33.68 18 33 18 C33 16.35 33 14.7 33 13 C32.67 13.66 32.34 14.32 32 15 C26.39 15 20.78 15 15 15 C14.67 15.99 14.34 16.98 14 18 C12.35 18 10.7 18 9 18 C9.33 17.01 9.66 16.02 10 15 C9.34 15 8.68 15 8 15 C8 16.98 8 18.96 8 21 C4.7 21 1.4 21 -2 21 C-2 19.35 -2 17.7 -2 16 C-1.01 15.67 -0.02 15.34 1 15 C0.67 15 0.34 15 0 15 C-0.66 15 -1.32 15 -2 15 C-2.93 22.06 -3.12 28.95 -3.06 36.06 C-3.06 37.12 -3.05 38.18 -3.05 39.26 C-3.04 41.84 -3.02 44.42 -3 47 C-4.32 47 -5.64 47 -7 47 C-6.67 47.99 -6.34 48.98 -6 50 C-6.99 50 -7.98 50 -9 50 C-9.01 49.1 -9.02 48.21 -9.03 47.28 C-9.07 43.92 -9.13 40.56 -9.21 37.19 C-9.24 35.75 -9.26 34.3 -9.27 32.85 C-9.36 24.69 -9.55 18.12 -14 11 C-14 10.34 -14 9.68 -14 9 C-10.53 8.51 -10.53 8.51 -7 8 C-6.67 6.68 -6.34 5.36 -6 4 C-5.01 4 -4.02 4 -3 4 C-2.67 3.34 -2.34 2.68 -2 2 C-2 2.66 -2 3.32 -2 4 C-1.34 4.33 -0.68 4.66 0 5 C-0.66 5 -1.32 5 -2 5 C-2 6.32 -2 7.64 -2 9 C-1.67 8.01 -1.34 7.02 -1 6 C0.39 6.09 0.39 6.09 1.81 6.19 C4.98 6.37 4.98 6.37 6.38 4.5 C8.64 2.4 10.16 2.69 13.19 2.81 C14.09 2.84 14.99 2.87 15.92 2.89 C16.95 2.95 16.95 2.95 18 3 C18 3.99 18 4.98 18 6 C17.34 6 16.68 6 16 6 C17.88 8.31 17.88 8.31 20.97 8.27 C22.13 8.26 23.3 8.26 24.5 8.25 C25.67 8.26 26.83 8.26 28.03 8.27 C31.12 8.31 31.12 8.31 33 6 C33 6.99 33 7.98 33 9 C33.66 7.02 34.32 5.04 35 3 C36.32 3.33 37.64 3.66 39 4 C38.01 4.33 37.02 4.66 36 5 C36 6.32 36 7.64 36 9 C36.62 8.26 36.62 8.26 37.25 7.5 C40.59 4.63 47.57 6 52 6 C52 5.34 52 4.68 52 4 C52.8 3.88 53.61 3.75 54.44 3.62 C55.28 3.42 56.13 3.21 57 3 C57.33 2.34 57.66 1.68 58 1 Z " fill="#253769" transform="translate(101,44)"/>
<path d="M0 0 C0.5 0.99 0.5 0.99 1 2 C1.66 2.33 2.32 2.66 3 3 C2.34 4.32 1.68 5.64 1 7 C1.66 7 2.32 7 3 7 C3 6.01 3 5.02 3 4 C3.66 4.33 4.32 4.66 5 5 C4.67 5.66 4.34 6.32 4 7 C4.99 6.67 5.98 6.34 7 6 C8.22 3.5 8.22 3.5 9 1 C9.66 1.66 10.32 2.32 11 3 C11.99 2.67 12.98 2.34 14 2 C17.74 1.09 21.16 1 25 1 C25.66 0.67 26.32 0.34 27 0 C27.99 0.49 27.99 0.49 29 1 C29 2.98 29 4.96 29 7 C28.01 7.33 27.02 7.66 26 8 C26 8.66 26 9.32 26 10 C23.69 10 21.38 10 19 10 C19 9.34 19 8.68 19 8 C18.34 7.67 17.68 7.34 17 7 C17 7.99 17 8.98 17 10 C16.01 10.33 15.02 10.66 14 11 C14 11.66 14 12.32 14 13 C12.02 13.33 10.04 13.66 8 14 C7.34 12.68 6.68 11.36 6 10 C6 10.99 6 11.98 6 13 C3.03 13 0.06 13 -3 13 C-3 15.97 -3 18.94 -3 22 C-5.64 22 -8.28 22 -11 22 C-11 20.02 -11 18.04 -11 16 C-14.96 16 -18.92 16 -23 16 C-23 15.34 -23 14.68 -23 14 C-25.97 14 -28.94 14 -32 14 C-32 16.64 -32 19.28 -32 22 C-31.34 22.33 -30.68 22.66 -30 23 C-30.33 23.66 -30.66 24.32 -31 25 C-29.68 25.33 -28.36 25.66 -27 26 C-27 26.66 -27 27.32 -27 28 C-28.65 28 -30.3 28 -32 28 C-30.35 28.33 -28.7 28.66 -27 29 C-27 29.66 -27 30.32 -27 31 C-28.65 31 -30.3 31 -32 31 C-32.33 31.66 -32.66 32.32 -33 33 C-33.66 33 -34.32 33 -35 33 C-36.12 25.25 -36.12 25.25 -35 23 C-36.65 23 -38.3 23 -40 23 C-40 22.67 -40 22.34 -40 22 C-38.35 22 -36.7 22 -35 22 C-35.33 21.01 -35.66 20.02 -36 19 C-35.67 18.34 -35.34 17.68 -35 17 C-35.66 16.67 -36.32 16.34 -37 16 C-36.34 16 -35.68 16 -35 16 C-35.19 15.05 -35.37 14.1 -35.56 13.12 C-36 10 -36 10 -35 8 C-36.65 8 -38.3 8 -40 8 C-40 7.67 -40 7.34 -40 7 C-38.35 7 -36.7 7 -35 7 C-34.85 6.07 -34.85 6.07 -34.69 5.12 C-34 3 -34 3 -31 1 C-30.67 2.32 -30.34 3.64 -30 5 C-30.99 5.49 -30.99 5.49 -32 6 C-32.66 5.67 -33.32 5.34 -34 5 C-34 5.66 -34 6.32 -34 7 C-31.69 7 -29.38 7 -27 7 C-27 7.33 -27 7.66 -27 8 C-29.31 8 -31.62 8 -34 8 C-34 8.66 -34 9.32 -34 10 C-30.7 10 -27.4 10 -24 10 C-24.33 9.01 -24.66 8.02 -25 7 C-24.67 6.01 -24.34 5.02 -24 4 C-23.34 4 -22.68 4 -22 4 C-21 5 -21 5 -20 7 C-19.34 7 -18.68 7 -18 7 C-18 5.35 -18 3.7 -18 2 C-17.67 2.66 -17.34 3.32 -17 4 C-16.26 3.93 -15.53 3.86 -14.77 3.78 C-13.79 3.69 -12.82 3.6 -11.81 3.5 C-10.85 3.41 -9.89 3.31 -8.89 3.22 C-6.25 3.02 -3.65 2.96 -1 3 C-0.67 2.01 -0.34 1.02 0 0 Z " fill="#192E5A" transform="translate(133,55)"/>
<path d="M0 0 C4.55 2.63 8.82 6.52 10.35 11.66 C10.46 12.24 10.57 12.83 10.69 13.44 C9.37 13.77 8.05 14.1 6.69 14.44 C6.69 15.43 6.69 16.42 6.69 17.44 C1.74 17.44 -3.21 17.44 -8.31 17.44 C-8.31 18.43 -8.31 19.42 -8.31 20.44 C-3.36 20.44 1.59 20.44 6.69 20.44 C6.69 21.43 6.69 22.42 6.69 23.44 C-0.57 23.77 -7.83 24.1 -15.31 24.44 C-15.31 25.1 -15.31 25.76 -15.31 26.44 C-18.94 26.77 -22.57 27.1 -26.31 27.44 C-26.64 26.78 -26.97 26.12 -27.31 25.44 C-26.01 25.31 -26.01 25.31 -24.69 25.19 C-20.84 24.33 -18.46 22.76 -15.31 20.44 C-15.28 18.55 -15.28 18.55 -16.31 16.44 C-18.57 14.67 -20.67 13.67 -23.31 12.44 C-26.43 13.11 -26.43 13.11 -27.5 15.5 C-27.77 16.14 -28.04 16.78 -28.31 17.44 C-29.3 17.11 -30.29 16.78 -31.31 16.44 C-30.72 11.32 -29.76 7.53 -25.73 4.09 C-18.06 -1.62 -9.14 -4.1 0 0 Z " fill="#CCE2FD" transform="translate(79.3125,47.5625)"/>
<path d="M0 0 C0.33 0 0.66 0 1 0 C1 11.22 1 22.44 1 34 C-0.98 34 -2.96 34 -5 34 C-5 32.35 -5 30.7 -5 29 C-4.01 29 -3.02 29 -2 29 C-2 27.68 -2 26.36 -2 25 C-2.5 26.48 -2.5 26.48 -3 28 C-3.66 28 -4.32 28 -5 28 C-5.5 26.52 -5.5 26.52 -6 25 C-6.99 25.5 -6.99 25.5 -8 26 C-8 24.68 -8 23.36 -8 22 C-8.14 22.6 -8.29 23.2 -8.44 23.81 C-8.89 25.56 -9.43 27.29 -10 29 C-10.5 27.02 -10.5 27.02 -11 25 C-11.99 25 -12.98 25 -14 25 C-14.33 25.99 -14.66 26.98 -15 28 C-15.66 28 -16.32 28 -17 28 C-16.98 27.2 -16.96 26.39 -16.94 25.56 C-16.7 23.07 -16.7 23.07 -18 22 C-17.67 24.64 -17.34 27.28 -17 30 C-17.99 30.33 -18.98 30.66 -20 31 C-20 29.02 -20 27.04 -20 25 C-20.27 25.8 -20.54 26.61 -20.81 27.44 C-21.2 28.28 -21.6 29.13 -22 30 C-22.99 30.33 -23.98 30.66 -25 31 C-25.66 30.34 -26.32 29.68 -27 29 C-26.34 29 -25.68 29 -25 29 C-25.66 26.69 -26.32 24.38 -27 22 C-27 23.98 -27 25.96 -27 28 C-29 25 -29 25 -30 22 C-30 23.98 -30 25.96 -30 28 C-30.33 28 -30.66 28 -31 28 C-31 26.02 -31 24.04 -31 22 C-31.66 22 -32.32 22 -33 22 C-33.33 22.99 -33.66 23.98 -34 25 C-34 24.01 -34 23.02 -34 22 C-34.66 22 -35.32 22 -36 22 C-36 23.98 -36 25.96 -36 28 C-36.33 28 -36.66 28 -37 28 C-37 26.02 -37 24.04 -37 22 C-37.66 22 -38.32 22 -39 22 C-39 24.31 -39 26.62 -39 29 C-39.33 29 -39.66 29 -40 29 C-40 25.7 -40 22.4 -40 19 C-40.66 19 -41.32 19 -42 19 C-42.33 19.99 -42.66 20.98 -43 22 C-43 20.02 -43 18.04 -43 16 C-42.67 16.66 -42.34 17.32 -42 18 C-41.34 18 -40.68 18 -40 18 C-40 17.01 -40 16.02 -40 15 C-38.88 14.88 -37.75 14.76 -36.6 14.63 C-32.06 14.13 -27.53 13.58 -23 13 C-22.11 12.89 -21.21 12.78 -20.29 12.67 C-13.53 11.53 -7.47 8.04 -2 4 C-0.64 1.91 -0.64 1.91 0 0 Z M-14 29 C-13.01 29.33 -12.02 29.66 -11 30 C-11.99 30.33 -12.98 30.66 -14 31 C-14 30.34 -14 29.68 -14 29 Z " fill="#061C5A" transform="translate(161,71)"/>
<path d="M0 0 C3.24 4.85 2.41 10.51 2.43 16.2 C2.44 18.36 2.49 20.52 2.54 22.69 C2.55 24.07 2.55 25.45 2.56 26.84 C2.57 28.09 2.59 29.34 2.6 30.63 C1.84 34.88 0.33 36.35 -3 39 C-5.32 39.34 -5.32 39.34 -7.56 38.94 C-8.31 38.82 -9.05 38.71 -9.82 38.59 C-12.07 37.98 -13.95 37.12 -16 36 C-16 34.35 -16 32.7 -16 31 C-15.34 31 -14.68 31 -14 31 C-13.67 31.99 -13.34 32.98 -13 34 C-13 32.35 -13 30.7 -13 29 C-13.66 29 -14.32 29 -15 29 C-15 28.34 -15 27.68 -15 27 C-14.34 27 -13.68 27 -13 27 C-13 26.01 -13 25.02 -13 24 C-15.31 24 -17.62 24 -20 24 C-20 24.99 -20 25.98 -20 27 C-21.98 27 -23.96 27 -26 27 C-24.68 27.66 -23.36 28.32 -22 29 C-22 29.33 -22 29.66 -22 30 C-20.35 30.33 -18.7 30.66 -17 31 C-17 33.31 -17 35.62 -17 38 C-18.26 38.02 -19.52 38.04 -20.81 38.06 C-21.87 38.08 -21.87 38.08 -22.96 38.1 C-25 38 -25 38 -28 37 C-30.64 37.39 -30.64 37.39 -33 38 C-33.76 33.68 -34.16 30.26 -33 26 C-31.68 26.66 -30.36 27.32 -29 28 C-28.67 27.34 -28.34 26.68 -28 26 C-26.02 26 -24.04 26 -22 26 C-22 25.34 -22 24.68 -22 24 C-24.1 24.14 -26.21 24.29 -28.31 24.44 C-30.07 24.56 -30.07 24.56 -31.86 24.68 C-35.03 24.89 -35.03 24.89 -38 26 C-38 25.34 -38 24.68 -38 24 C-36.35 23.67 -34.7 23.34 -33 23 C-33.33 22.01 -33.66 21.02 -34 20 C-33.01 20 -32.02 20 -31 20 C-31 20.66 -31 21.32 -31 22 C-30.67 21.34 -30.34 20.68 -30 20 C-27.69 20 -25.38 20 -23 20 C-23 20.33 -23 20.66 -23 21 C-24.98 21 -26.96 21 -29 21 C-29 21.66 -29 22.32 -29 23 C-27.9 22.87 -27.9 22.87 -26.77 22.75 C-25.79 22.64 -24.82 22.54 -23.81 22.44 C-22.85 22.33 -21.89 22.23 -20.89 22.12 C-18.06 22 -15.75 22.32 -13 23 C-13 22.34 -13 21.68 -13 21 C-13.66 20.67 -14.32 20.34 -15 20 C-14.01 19.67 -13.02 19.34 -12 19 C-11.67 19.66 -11.34 20.32 -11 21 C-11.33 21.66 -11.66 22.32 -12 23 C-11.05 22.81 -10.1 22.63 -9.12 22.44 C-6 22 -6 22 -4 23 C-4.5 21.52 -4.5 21.52 -5 20 C-4.34 19.67 -3.68 19.34 -3 19 C-2.34 19.66 -1.68 20.32 -1 21 C-1.66 21 -2.32 21 -3 21 C-3 21.66 -3 22.32 -3 23 C-2.34 23.33 -1.68 23.66 -1 24 C-1.66 24 -2.32 24 -3 24 C-3 25.65 -3 27.3 -3 29 C-2.01 28.67 -1.02 28.34 0 28 C0 24.37 0 20.74 0 17 C-0.99 17 -1.98 17 -3 17 C-3.5 15.52 -3.5 15.52 -4 14 C-4.66 14 -5.32 14 -6 14 C-6 13.34 -6 12.68 -6 12 C-5.34 12 -4.68 12 -4 12 C-4.5 10.52 -4.5 10.52 -5 9 C-9.62 9 -14.24 9 -19 9 C-19.33 7.68 -19.66 6.36 -20 5 C-19 4 -19 4 -16.13 3.87 C-14.95 3.87 -13.78 3.87 -12.56 3.88 C-10.8 3.87 -10.8 3.87 -9 3.87 C-6 4 -6 4 -4 5 C-4 4.01 -4 3.02 -4 2 C-2.68 1.34 -1.36 0.68 0 0 Z M-1 12 C0 14 0 14 0 14 Z " fill="#85BDFF" transform="translate(90,60)"/>
<path d="M0 0 C1.65 0.02 1.65 0.02 3.34 0.04 C5 0.05 5 0.05 6.69 0.06 C7.54 0.07 8.4 0.09 9.28 0.1 C8.95 1.17 8.62 2.24 8.28 3.35 C7.11 7.09 7.11 7.09 7.28 11.1 C7.94 11.1 8.6 11.1 9.28 11.1 C10.92 8.63 10.92 8.63 12.28 6.1 C16.39 7.55 19.71 9.61 23.28 12.1 C22.91 14.72 22.61 15.82 20.54 17.55 C19.83 17.96 19.13 18.36 18.4 18.79 C17.7 19.2 17 19.62 16.29 20.05 C14.28 21.1 14.28 21.1 11.28 22.1 C9.09 24.77 9.09 24.77 9.28 27.1 C8.29 27.1 7.3 27.1 6.28 27.1 C5.95 31.72 5.62 36.34 5.28 41.1 C3.3 41.1 1.32 41.1 -0.72 41.1 C-0.92 39.52 -1.1 37.93 -1.29 36.35 C-1.39 35.47 -1.49 34.58 -1.6 33.68 C-1.72 31.1 -1.72 31.1 -1.16 29 C-0.46 26.76 -0.46 26.76 -2.16 23.41 C-3.92 18.62 -4 14.14 -3.97 9.1 C-3.97 8.33 -3.97 7.56 -3.96 6.77 C-3.85 0.14 -3.85 0.14 0 0 Z " fill="#263A68" transform="translate(41.72265625,52.90234375)"/>
<path d="M0 0 C0.66 0 1.32 0 2 0 C2.91 18.5 3.23 37.04 3.4 55.56 C3.42 58.1 3.46 60.63 3.51 63.17 C3.58 66.79 3.6 70.4 3.62 74.02 C3.65 75.11 3.68 76.2 3.71 77.32 C3.69 83.77 2.76 87.53 -1.45 92.48 C-5.8 96.75 -10.28 98.12 -16.24 98.13 C-17.08 98.14 -17.91 98.14 -18.78 98.15 C-19.69 98.15 -20.6 98.15 -21.54 98.15 C-22.5 98.15 -23.47 98.15 -24.47 98.16 C-27.66 98.16 -30.86 98.17 -34.05 98.17 C-36.28 98.17 -38.5 98.17 -40.72 98.18 C-45.38 98.18 -50.04 98.19 -54.7 98.19 C-60.66 98.19 -66.63 98.2 -72.6 98.22 C-77.19 98.23 -81.78 98.23 -86.37 98.23 C-88.57 98.23 -90.77 98.23 -92.97 98.24 C-96.05 98.25 -99.12 98.25 -102.2 98.24 C-103.56 98.25 -103.56 98.25 -104.95 98.26 C-109.71 98.24 -113.53 97.84 -118 96 C-118 95.67 -118 95.34 -118 95 C-116.69 95.01 -115.38 95.02 -114.02 95.03 C-101.65 95.11 -89.27 95.17 -76.9 95.21 C-70.54 95.23 -64.18 95.26 -57.82 95.3 C-51.68 95.35 -45.54 95.37 -39.4 95.38 C-37.05 95.39 -34.71 95.4 -32.37 95.42 C-29.09 95.45 -25.81 95.46 -22.53 95.45 C-21.56 95.47 -20.59 95.48 -19.6 95.5 C-13.48 95.46 -10.09 94.38 -5 91 C-4.34 91 -3.68 91 -3 91 C-2.71 90.07 -2.42 89.14 -2.12 88.19 C-1 85 -1 85 1 82 C1.31 79.01 1.31 79.01 1.27 75.59 C1.27 73.66 1.27 73.66 1.28 71.68 C1.27 70.29 1.26 68.89 1.25 67.5 C1.25 66.44 1.25 66.44 1.25 65.36 C1.22 56.64 0.85 48.12 -0.35 39.48 C-1.92 26.49 -0.61 13.03 0 0 Z " fill="#020829" transform="translate(162,68)"/>
<path d="M0 0 C2.97 0.33 5.94 0.66 9 1 C9 1.66 9 2.32 9 3 C9.99 3.33 10.98 3.66 12 4 C12 6.64 12 9.28 12 12 C13.11 9.21 13.11 9.21 13 7 C15.64 7 18.28 7 21 7 C21.33 7.99 21.66 8.98 22 10 C25.63 10 29.26 10 33 10 C33 12.31 33 14.62 33 17 C30.12 17.96 28.3 18.11 25.31 18.06 C24.1 18.05 24.1 18.05 22.86 18.04 C22.25 18.02 21.63 18.01 21 18 C21 18.99 21 19.98 21 21 C20.34 21 19.68 21 19 21 C19 20.34 19 19.68 19 19 C18.38 19.07 17.77 19.14 17.13 19.22 C11.38 19.85 5.78 20.09 0 20 C0.33 19.01 0.66 18.02 1 17 C2.65 17.33 4.3 17.66 6 18 C6 17.34 6 16.68 6 16 C4.02 16 2.04 16 0 16 C0.66 15.34 1.32 14.68 2 14 C4.12 14.38 4.12 14.38 6 15 C6 14.34 6 13.68 6 13 C4.02 13 2.04 13 0 13 C0.99 12.01 1.98 11.02 3 10 C2.01 9.67 1.02 9.34 0 9 C0.33 8.34 0.66 7.68 1 7 C0.34 6.67 -0.32 6.34 -1 6 C-0.34 6 0.32 6 1 6 C1 5.34 1 4.68 1 4 C0.34 3.67 -0.32 3.34 -1 3 C-0.34 3 0.32 3 1 3 C0.67 2.01 0.34 1.02 0 0 Z " fill="#122B62" transform="translate(100,68)"/>
<path d="M0 0 C2.25 1.14 4.34 2.34 6.14 4.14 C6.18 5.81 6.18 7.47 6.14 9.14 C4.16 9.14 2.18 9.14 0.14 9.14 C0.14 9.8 0.14 10.46 0.14 11.14 C-1.84 11.14 -3.82 11.14 -5.86 11.14 C-6.19 12.13 -6.52 13.12 -6.86 14.14 C-6.86 13.15 -6.86 12.16 -6.86 11.14 C-7.52 11.14 -8.18 11.14 -8.86 11.14 C-9.19 12.13 -9.52 13.12 -9.86 14.14 C-10.19 13.48 -10.52 12.82 -10.86 12.14 C-11.52 12.8 -12.18 13.46 -12.86 14.14 C-13.86 14.14 -14.86 14.14 -15.86 14.14 C-15.86 12.47 -15.86 10.81 -15.86 9.14 C-15.99 9.78 -16.11 10.42 -16.24 11.08 C-16.44 11.76 -16.65 12.44 -16.86 13.14 C-17.85 13.64 -17.85 13.64 -18.86 14.14 C-19.93 11.77 -19.93 11.77 -20.86 9.14 C-20.53 8.48 -20.2 7.82 -19.86 7.14 C-21.18 6.81 -22.5 6.48 -23.86 6.14 C-23.2 5.48 -22.54 4.82 -21.86 4.14 C-21.2 3.15 -20.54 2.16 -19.86 1.14 C-20.85 1.47 -21.84 1.8 -22.86 2.14 C-22.86 1.48 -22.86 0.82 -22.86 0.14 C-16.21 -2.08 -6.76 -2.03 0 0 Z M-28.86 5.14 C-27.87 5.8 -26.88 6.46 -25.86 7.14 C-26.52 7.14 -27.18 7.14 -27.86 7.14 C-27.86 7.8 -27.86 8.46 -27.86 9.14 C-26.87 8.81 -25.88 8.48 -24.86 8.14 C-24.2 8.8 -23.54 9.46 -22.86 10.14 C-21.87 10.8 -20.88 11.46 -19.86 12.14 C-19.86 12.8 -19.86 13.46 -19.86 14.14 C-23.49 14.14 -27.12 14.14 -30.86 14.14 C-31.19 12.49 -31.52 10.84 -31.86 9.14 C-30.87 9.14 -29.88 9.14 -28.86 9.14 C-28.86 8.48 -28.86 7.82 -28.86 7.14 C-29.85 6.81 -30.84 6.48 -31.86 6.14 C-30.87 5.81 -29.88 5.48 -28.86 5.14 Z " fill="#32427E" transform="translate(152.86328125,38.859375)"/>
<path d="M0 0 C0.33 0.99 0.66 1.98 1 3 C2.65 3 4.3 3 6 3 C6 3.66 6 4.32 6 5 C5.01 5 4.02 5 3 5 C3.99 5.33 4.98 5.66 6 6 C6 7.65 6 9.3 6 11 C5.01 11 4.02 11 3 11 C6.07 11.91 8.8 12.09 12 12 C12 12.66 12 13.32 12 14 C12.99 14.33 13.98 14.66 15 15 C14.5 17.47 14.5 17.47 14 20 C9.38 20 4.76 20 0 20 C0 20.99 0 21.98 0 23 C-0.66 23 -1.32 23 -2 23 C-2.33 22.01 -2.66 21.02 -3 20 C-3.66 19.34 -4.32 18.68 -5 18 C-5.12 14.88 -5.12 14.88 -5 12 C-4.01 11.67 -3.02 11.34 -2 11 C-5.3 11 -8.6 11 -12 11 C-12 11.99 -12 12.98 -12 14 C-14.31 14 -16.62 14 -19 14 C-19 13.34 -19 12.68 -19 12 C-18.01 12 -17.02 12 -16 12 C-16 11.34 -16 10.68 -16 10 C-16.99 10.33 -17.98 10.66 -19 11 C-19 10.34 -19 9.68 -19 9 C-19.99 8.67 -20.98 8.34 -22 8 C-22 6.35 -22 4.7 -22 3 C-16.72 3 -11.44 3 -6 3 C-5.67 3.66 -5.34 4.32 -5 5 C-5 4.34 -5 3.68 -5 3 C-3.35 3 -1.7 3 0 3 C0 2.01 0 1.02 0 0 Z " fill="#091F97" transform="translate(83,110)"/>
<path d="M0 0 C2.48 3.72 2.27 6.58 2.23 10.88 C2.23 11.65 2.23 12.41 2.23 13.21 C2.23 14.83 2.22 16.45 2.21 18.07 C2.19 20.56 2.19 23.04 2.19 25.53 C2.18 27.1 2.17 28.68 2.17 30.25 C2.17 31 2.17 31.75 2.16 32.51 C2.12 37.77 2.12 37.77 1 40 C1.66 40 2.32 40 3 40 C3.33 42.64 3.66 45.28 4 48 C8.21 49.71 11.74 51.13 16.31 51.12 C17.19 51.12 18.07 51.12 18.97 51.12 C19.93 51.12 20.9 51.12 21.89 51.11 C22.9 51.11 23.92 51.11 24.96 51.11 C28.32 51.11 31.68 51.11 35.04 51.1 C37.37 51.1 39.7 51.09 42.03 51.09 C48.16 51.09 54.29 51.08 60.42 51.07 C66.67 51.06 72.92 51.05 79.18 51.05 C91.45 51.04 103.73 51.02 116 51 C114.42 52.88 113.52 53.9 111.07 54.37 C110.34 54.37 109.6 54.37 108.85 54.37 C108 54.38 107.15 54.39 106.28 54.4 C105.36 54.39 104.44 54.38 103.48 54.37 C102.51 54.38 101.53 54.38 100.53 54.38 C97.29 54.39 94.06 54.38 90.82 54.36 C88.58 54.36 86.33 54.36 84.09 54.36 C79.37 54.36 74.66 54.35 69.95 54.34 C63.92 54.31 57.88 54.31 51.84 54.32 C47.2 54.32 42.56 54.32 37.92 54.31 C35.7 54.3 33.47 54.3 31.25 54.3 C28.13 54.3 25.02 54.29 21.91 54.27 C20.99 54.28 20.07 54.28 19.12 54.28 C8.57 54.19 8.57 54.19 4.36 50.6 C1.27 46.55 -0.13 43.77 -0.11 38.71 C-0.11 37.85 -0.11 36.99 -0.11 36.1 C-0.11 35.18 -0.1 34.25 -0.1 33.3 C-0.1 32.35 -0.09 31.4 -0.09 30.42 C-0.09 27.39 -0.08 24.35 -0.06 21.31 C-0.06 19.25 -0.05 17.2 -0.05 15.14 C-0.04 10.09 -0.02 5.05 0 0 Z " fill="#061672" transform="translate(37,110)"/>
<path d="M0 0 C1.32 0.33 2.64 0.66 4 1 C4 6.61 4 12.22 4 18 C-4.25 18 -12.5 18 -21 18 C-21 17.34 -21 16.68 -21 16 C-23.97 15.67 -26.94 15.34 -30 15 C-30 14.34 -30 13.68 -30 13 C-29.01 12.67 -28.02 12.34 -27 12 C-27 11.34 -27 10.68 -27 10 C-22.71 10 -18.42 10 -14 10 C-13.67 10.66 -13.34 11.32 -13 12 C-13.02 11.2 -13.04 10.39 -13.06 9.56 C-13 7 -13 7 -12 6 C-10.55 5.71 -9.09 5.44 -7.62 5.19 C-3.84 4.41 -3.84 4.41 -0.94 1.88 C-0.63 1.26 -0.32 0.64 0 0 Z " fill="#0B2485" transform="translate(91,94)"/>
<path d="M0 0 C0.33 0 0.66 0 1 0 C1.03 6.23 1.04 12.46 1.05 18.69 C1.06 20.81 1.07 22.93 1.08 25.05 C1.09 28.09 1.09 31.14 1.1 34.18 C1.1 35.13 1.11 36.08 1.11 37.06 C1.11 37.95 1.11 38.83 1.11 39.73 C1.12 40.51 1.12 41.29 1.12 42.09 C1 44 1 44 0 46 C-1.98 46.66 -3.96 47.32 -6 48 C-6 35.46 -6 22.92 -6 10 C-4.02 9.67 -2.04 9.34 0 9 C-0.66 7.02 -1.32 5.04 -2 3 C-1.34 3 -0.68 3 0 3 C0 2.01 0 1.02 0 0 Z " fill="#929292" transform="translate(179,73)"/>
<path d="M0 0 C3 0 3 0 5.16 1.5 C7.68 4.93 7.5 7.95 7.39 12.05 C7.38 12.82 7.38 13.59 7.37 14.38 C7.35 16.84 7.3 19.29 7.25 21.75 C7.23 23.42 7.21 25.09 7.2 26.75 C7.15 30.84 7.08 34.92 7 39 C6.22 39.31 5.43 39.62 4.62 39.94 C2.08 40.93 2.08 40.93 0 42 C0 28.14 0 14.28 0 0 Z " fill="#B0B0B0" transform="translate(20,62)"/>
<path d="M0 0 C0.66 0 1.32 0 2 0 C2 14 2 28 2 42 C0.68 42 -0.64 42 -2 42 C-1.67 42.99 -1.34 43.98 -1 45 C-1.99 45 -2.98 45 -4 45 C-4.01 44.11 -4.02 43.22 -4.03 42.3 C-4.07 38.95 -4.13 35.6 -4.21 32.25 C-4.24 30.81 -4.26 29.37 -4.27 27.92 C-4.36 19.48 -4.78 12.56 -9 5 C-6.36 4.67 -3.72 4.34 -1 4 C-0.67 2.68 -0.34 1.36 0 0 Z " fill="#2F4B87" transform="translate(96,49)"/>
<path d="M0 0 C0 1.32 0 2.64 0 4 C5.45 4.49 5.45 4.49 11 5 C8 7 8 7 5 7 C4.96 7.58 4.92 8.16 4.88 8.75 C3.46 12.38 1.46 13.33 -2 15 C-5.08 15.04 -7.98 14.62 -11 14 C-11.33 14.99 -11.66 15.98 -12 17 C-12 16.01 -12 15.02 -12 14 C-12.99 14.33 -13.98 14.66 -15 15 C-14.66 8.5 -13.68 5.57 -9 1 C-5.75 -1.33 -3.79 -1.05 0 0 Z M1 0 C1.99 0.49 1.99 0.49 3 1 C2.01 1.49 2.01 1.49 1 2 C1 1.34 1 0.68 1 0 Z " fill="#2F427A" transform="translate(53,39)"/>
<path d="M0 0 C-0.33 0.99 -0.66 1.98 -1 3 C-1.99 3 -2.98 3 -4 3 C-4 3.99 -4 4.98 -4 6 C-8.95 6 -13.9 6 -19 6 C-19 6.99 -19 7.98 -19 9 C-14.05 9 -9.1 9 -4 9 C-4 9.99 -4 10.98 -4 12 C-11.26 12.33 -18.52 12.66 -26 13 C-26 13.66 -26 14.32 -26 15 C-29.63 15.33 -33.26 15.66 -37 16 C-37.33 15.34 -37.66 14.68 -38 14 C-36.7 13.88 -36.7 13.88 -35.38 13.75 C-31.38 12.86 -29.07 11.7 -26 9 C-25.5 5.83 -25.5 5.83 -26 3 C-24.68 3 -23.36 3 -22 3 C-22 2.01 -22 1.02 -22 0 C-6.14 -2.05 -6.14 -2.05 0 0 Z " fill="#BFDAF9" transform="translate(90,59)"/>
<path d="M0 0 C5.28 0 10.56 0 16 0 C16 1.98 16 3.96 16 6 C16.33 5.01 16.66 4.02 17 3 C18.65 3 20.3 3 22 3 C22 4.65 22 6.3 22 8 C19.03 8 16.06 8 13 8 C13 10.64 13 13.28 13 16 C11.58 16.17 10.17 16.34 8.75 16.5 C7.96 16.59 7.17 16.69 6.36 16.78 C4 17 4 17 0 17 C0 15.35 0 13.7 0 12 C2.31 12 4.62 12 7 12 C7 12.99 7 13.98 7 15 C7.66 15 8.32 15 9 15 C9 13.68 9 12.36 9 11 C6.03 11 3.06 11 0 11 C0 10.34 0 9.68 0 9 C0.99 8.67 1.98 8.34 3 8 C2.01 8 1.02 8 0 8 C0 5.36 0 2.72 0 0 Z " fill="#091F9A" transform="translate(99,113)"/>
<path d="M0 0 C4.11 1.45 7.43 3.51 11 6 C10.63 8.62 10.33 9.73 8.26 11.45 C7.55 11.86 6.85 12.27 6.12 12.69 C5.43 13.1 4.73 13.52 4.01 13.95 C2 15 2 15 -1 16 C-3.18 18.68 -3.18 18.68 -3 21 C-4.32 21 -5.64 21 -7 21 C-7 15.39 -7 9.78 -7 4 C-5.68 4.33 -4.36 4.66 -3 5 C-2.01 3.35 -1.02 1.7 0 0 Z " fill="#92C1F9" transform="translate(54,59)"/>
<path d="M0 0 C0.33 0 0.66 0 1 0 C1 33.99 1 67.98 1 103 C-1 102 -1 102 -1.62 100.45 C-2.17 96.92 -2.15 93.41 -2.15 89.84 C-2.15 89.02 -2.15 88.2 -2.16 87.36 C-2.16 84.64 -2.17 81.93 -2.17 79.22 C-2.17 77.33 -2.17 75.43 -2.18 73.54 C-2.18 69.56 -2.19 65.59 -2.19 61.61 C-2.19 56.55 -2.2 51.48 -2.22 46.42 C-2.23 42.5 -2.23 38.59 -2.23 34.67 C-2.23 32.8 -2.23 30.94 -2.24 29.07 C-2.28 19.19 -2.16 9.7 0 0 Z " fill="#051033" transform="translate(37,52)"/>
<path d="M0 0 C0.66 0.33 1.32 0.66 2 1 C2.03 4.94 2.05 8.87 2.06 12.81 C2.07 13.93 2.08 15.05 2.09 16.21 C2.09 17.28 2.09 18.35 2.1 19.46 C2.1 20.45 2.11 21.44 2.11 22.46 C2 25 2 25 1 28 C0.34 28 -0.32 28 -1 28 C-0.34 29.98 0.32 31.96 1 34 C-1.97 34.5 -1.97 34.5 -5 35 C-5.33 24.77 -5.66 14.54 -6 4 C-3 4 -3 4 -1 5 C-0.67 3.35 -0.34 1.7 0 0 Z " fill="#C5C5C5" transform="translate(178,48)"/>
<path d="M0 0 C0.68 0.83 1.36 1.65 2.06 2.5 C4.81 5.31 4.81 5.31 8.5 5.38 C11.4 5.06 14.15 4.57 17 4 C17.66 4.33 18.32 4.66 19 5 C22.84 5.17 26.27 4.88 30 4 C30 5.67 30 7.33 30 9 C25.05 9.33 20.1 9.66 15 10 C15.33 10.66 15.66 11.32 16 12 C14.02 12.33 12.04 12.66 10 13 C10 13.66 10 14.32 10 15 C8.35 15 6.7 15 5 15 C5 14.34 5 13.68 5 13 C2.03 12.5 2.03 12.5 -1 12 C-1.03 10.38 -1.05 8.75 -1.06 7.12 C-1.07 6.22 -1.09 5.32 -1.1 4.38 C-1 2 -1 2 0 0 Z " fill="#112D7E" transform="translate(47,94)"/>
<path d="M0 0 C2.59 1.83 4.62 3.86 6.73 6.22 C6.4 6.88 6.07 7.54 5.73 8.22 C3.01 6.41 0.98 4.56 -1.27 2.22 C-1.27 2.88 -1.27 3.54 -1.27 4.22 C-1.88 4.21 -2.48 4.2 -3.1 4.19 C-3.9 4.18 -4.7 4.17 -5.52 4.16 C-6.31 4.15 -7.1 4.14 -7.91 4.12 C-10.25 4.14 -10.25 4.14 -12.37 4.75 C-15.14 5.44 -17.51 4.79 -20.27 4.22 C-19.94 3.56 -19.61 2.9 -19.27 2.22 C-19.93 2.22 -20.59 2.22 -21.27 2.22 C-21.93 2.88 -22.59 3.54 -23.27 4.22 C-24.26 4.22 -25.25 4.22 -26.27 4.22 C-25.28 1.03 -24.25 0.21 -21.34 -1.53 C-14.19 -4.22 -6.6 -3.79 0 0 Z " fill="#DFEDFD" transform="translate(81.2734375,48.77734375)"/>
<path d="M0 0 C0.33 0 0.66 0 1 0 C1 5.28 1 10.56 1 16 C0.01 16.33 -0.98 16.66 -2 17 C-2 15.68 -2 14.36 -2 13 C-2.99 13.33 -3.98 13.66 -5 14 C-5.66 13.67 -6.32 13.34 -7 13 C-7.33 13.99 -7.66 14.98 -8 16 C-11.09 17.03 -12.53 16.97 -15.69 16.56 C-16.5 16.46 -17.3 16.36 -18.14 16.25 C-19.06 16.13 -19.06 16.13 -20 16 C-20.33 14.68 -20.66 13.36 -21 12 C-20.09 11.98 -19.19 11.96 -18.25 11.94 C-12.25 11.1 -6.81 7.52 -2 4 C-0.63 1.91 -0.63 1.91 0 0 Z " fill="#051C47" transform="translate(161,71)"/>
<path d="M0 0 C0 5.61 0 11.22 0 17 C-1.32 17 -2.64 17 -4 17 C-4.33 16.01 -4.66 15.02 -5 14 C-5.66 14 -6.32 14 -7 14 C-7 13.34 -7 12.68 -7 12 C-6.34 12 -5.68 12 -5 12 C-5.33 11.01 -5.66 10.02 -6 9 C-10.62 9 -15.24 9 -20 9 C-20.33 7.68 -20.66 6.36 -21 5 C-20 4 -20 4 -17.13 3.87 C-15.95 3.87 -14.78 3.87 -13.56 3.88 C-11.8 3.87 -11.8 3.87 -10 3.87 C-7 4 -7 4 -5 5 C-5 4.01 -5 3.02 -5 2 C-1.12 0 -1.12 0 0 0 Z M-2 12 C-1 14 -1 14 -1 14 Z " fill="#A6CDFB" transform="translate(91,60)"/>
<path d="M0 0 C5.28 0 10.56 0 16 0 C16 0.66 16 1.32 16 2 C18.97 3.48 18.97 3.48 22 5 C22 5.66 22 6.32 22 7 C24.97 7.49 24.97 7.49 28 8 C28 8.66 28 9.32 28 10 C26.93 9.76 26.93 9.76 25.84 9.51 C19.14 8.31 12.31 8.27 6 11 C6 10.01 6 9.02 6 8 C6.99 7.67 7.98 7.34 9 7 C6.03 6.67 3.06 6.34 0 6 C0 4.02 0 2.04 0 0 Z M2 1 C2.33 1.66 2.66 2.32 3 3 C3.33 2.34 3.66 1.68 4 1 C3.34 1 2.68 1 2 1 Z M20 2 C20.66 2 21.32 2 22 2 C22 2.66 22 3.32 22 4 C21.34 4 20.68 4 20 4 C20 3.34 20 2.68 20 2 Z " fill="#394D8F" transform="translate(52,38)"/>
<path d="M0 0 C2.31 0 4.62 0 7 0 C7 0.99 7 1.98 7 3 C6.34 3 5.68 3 5 3 C5 3.66 5 4.32 5 5 C5.66 5 6.32 5 7 5 C7 6.65 7 8.3 7 10 C6.34 9.67 5.68 9.34 5 9 C5.33 8.34 5.66 7.68 6 7 C5.34 7 4.68 7 4 7 C4 8.65 4 10.3 4 12 C8.29 12.66 12.58 13.32 17 14 C16.67 14.66 16.34 15.32 16 16 C11.74 16.07 8.12 16.11 4 15 C3.01 15.5 3.01 15.5 2 16 C-1.06 16.14 -3.75 16.05 -6.75 15.44 C-9.02 14.76 -9.02 14.76 -11 16 C-17.4 16.47 -17.4 16.47 -19.94 14.5 C-20.29 14 -20.64 13.51 -21 13 C-20.67 12.34 -20.34 11.68 -20 11 C-19.34 11.66 -18.68 12.32 -18 13 C-13.71 13.21 -10.14 13.16 -6 12 C-5.67 12.33 -5.34 12.66 -5 13 C-3.65 13.23 -2.3 13.41 -0.94 13.56 C0.36 13.71 1.66 13.85 3 14 C3 11.69 3 9.38 3 7 C0.03 7 -2.94 7 -6 7 C-5.01 6.34 -4.02 5.68 -3 5 C-3.99 5 -4.98 5 -6 5 C-6 4.34 -6 3.68 -6 3 C-4.02 3 -2.04 3 0 3 C0 2.01 0 1.02 0 0 Z " fill="#BAD8FB" transform="translate(70,84)"/>
<path d="M0 0 C1.65 0 3.3 0 5 0 C4.67 1.98 4.34 3.96 4 6 C4.66 6.33 5.32 6.66 6 7 C5.01 7.33 4.02 7.66 3 8 C3 6.68 3 5.36 3 4 C-1.29 4 -5.58 4 -10 4 C-10 4.66 -10 5.32 -10 6 C-8.02 6 -6.04 6 -4 6 C-4 6.33 -4 6.66 -4 7 C-6.97 7 -9.94 7 -13 7 C-13 7.66 -13 8.32 -13 9 C-8.71 9 -4.42 9 0 9 C-1.32 9.33 -2.64 9.66 -4 10 C-4 10.66 -4 11.32 -4 12 C-10.93 12 -17.86 12 -25 12 C-25.33 11.01 -25.66 10.02 -26 9 C-26.66 9 -27.32 9 -28 9 C-27.34 7.68 -26.68 6.36 -26 5 C-23.03 5.5 -23.03 5.5 -20 6 C-20.99 6.5 -20.99 6.5 -22 7 C-22 7.66 -22 8.32 -22 9 C-21.01 8.67 -20.02 8.34 -19 8 C-18.34 8.33 -17.68 8.66 -17 9 C-17 8.34 -17 7.68 -17 7 C-17.66 6.67 -18.32 6.34 -19 6 C-15.53 5.5 -15.53 5.5 -12 5 C-12.99 4.34 -13.98 3.68 -15 3 C-9.06 3 -3.12 3 3 3 C3 2.34 3 1.68 3 1 C2.01 0.67 1.02 0.34 0 0 Z " fill="#0D2679" transform="translate(74,100)"/>
<path d="M0 0 C3.82 5.74 4.21 10.34 3 17 C2.96 19 2.95 21 3 23 C4.98 23 6.96 23 9 23 C9 23.33 9 23.66 9 24 C7.02 24 5.04 24 3 24 C4.15 26.47 5.05 28.05 7 30 C6.34 30 5.68 30 5 30 C4.67 30.66 4.34 31.32 4 32 C4 31.34 4 30.68 4 30 C3.34 30 2.68 30 2 30 C1.67 32.97 1.34 35.94 1 39 C0.34 39 -0.32 39 -1 39 C-1.02 33.61 -1.04 28.21 -1.05 22.82 C-1.06 20.98 -1.07 19.15 -1.08 17.31 C-1.09 14.68 -1.09 12.04 -1.1 9.41 C-1.1 8.58 -1.11 7.76 -1.11 6.91 C-1.11 4.94 -1.06 2.97 -1 1 C-0.67 0.67 -0.34 0.34 0 0 Z " fill="#0A204E" transform="translate(38,71)"/>
<path d="M0 0 C0.33 0 0.66 0 1 0 C1.06 3.42 1.09 6.83 1.12 10.25 C1.15 11.7 1.15 11.7 1.18 13.18 C1.18 14.12 1.19 15.05 1.2 16.02 C1.21 16.87 1.22 17.73 1.23 18.62 C0.98 21.22 0.41 22.82 -1 25 C-2.33 25.36 -3.66 25.7 -5 26 C-5.33 26.99 -5.66 27.98 -6 29 C-6 22.73 -6 16.46 -6 10 C-4.02 9.67 -2.04 9.34 0 9 C-0.66 7.02 -1.32 5.04 -2 3 C-1.34 3 -0.68 3 0 3 C0 2.01 0 1.02 0 0 Z " fill="#ABABAB" transform="translate(179,73)"/>
<path d="M0 0 C0.33 0 0.66 0 1 0 C1.12 4.32 1.21 8.65 1.27 12.97 C1.3 14.44 1.33 15.91 1.38 17.38 C1.44 19.5 1.47 21.61 1.49 23.73 C1.51 25 1.54 26.28 1.57 27.59 C0.86 31.85 -0.73 33.29 -4 36 C-4.99 35.34 -5.98 34.68 -7 34 C-7.41 31.29 -7.13 28.76 -7 26 C-7.33 26.66 -7.66 27.32 -8 28 C-8.66 27.67 -9.32 27.34 -10 27 C-10 25.02 -10 23.04 -10 21 C-8.35 21 -6.7 21 -5 21 C-4.67 22.65 -4.34 24.3 -4 26 C-3.01 25.67 -2.02 25.34 -1 25 C-0.67 16.75 -0.34 8.5 0 0 Z " fill="#8BB7EE" transform="translate(91,63)"/>
<path d="M0 0 C0.99 0.33 1.98 0.66 3 1 C3 2.98 3 4.96 3 7 C2.01 7.33 1.02 7.66 0 8 C0 8.66 0 9.32 0 10 C-2.31 10 -4.62 10 -7 10 C-7 9.34 -7 8.68 -7 8 C-7.66 7.67 -8.32 7.34 -9 7 C-9.33 7.99 -9.66 8.98 -10 10 C-10 9.01 -10 8.02 -10 7 C-11.98 7 -13.96 7 -16 7 C-15 4 -15 4 -12 2 C-8.28 1 -4.83 1 -1 1 C-0.67 0.67 -0.34 0.34 0 0 Z " fill="#1E315E" transform="translate(159,55)"/>
<path d="M0 0 C1.65 0 3.3 0 5 0 C5.05 1.77 5.09 3.54 5.12 5.31 C5.15 6.3 5.17 7.28 5.2 8.3 C5 11 5 11 3 14 C1.68 14 0.36 14 -1 14 C-1 14.66 -1 15.32 -1 16 C-3 15 -3 15 -4 14 C-4 14.99 -4 15.98 -4 17 C-4.66 17 -5.32 17 -6 17 C-6.08 15.23 -6.14 13.46 -6.19 11.69 C-6.22 10.7 -6.26 9.72 -6.29 8.7 C-6 6 -6 6 -4.68 4.21 C-3 3 -3 3 0 2 C0 1.34 0 0.68 0 0 Z M-1 7 C-1.99 7.33 -2.98 7.66 -4 8 C-3.67 8.99 -3.34 9.98 -3 11 C-3 10.34 -3 9.68 -3 9 C-2.34 9 -1.68 9 -1 9 C-0.67 9.66 -0.34 10.32 0 11 C0.33 10.01 0.66 9.02 1 8 C0.34 7.67 -0.32 7.34 -1 7 Z " fill="#0922A9" transform="translate(93,145)"/>
<path d="M0 0 C4.03 4.03 3 9.62 3 15 C2.34 15 1.68 15 1 15 C-0.06 12.62 -0.06 12.62 -1 10 C-0.67 9.34 -0.34 8.68 0 8 C-1.32 7.67 -2.64 7.34 -4 7 C-3.34 6.34 -2.68 5.68 -2 5 C-1.34 4.01 -0.68 3.02 0 2 C-0.99 2.33 -1.98 2.66 -3 3 C-3 2.34 -3 1.68 -3 1 C-2.01 0.67 -1.02 0.34 0 0 Z M6 1 C6.99 1.49 6.99 1.49 8 2 C7.01 2.49 7.01 2.49 6 3 C6 2.34 6 1.68 6 1 Z M3 4 C3.99 4.49 3.99 4.49 5 5 C4.01 5.49 4.01 5.49 3 6 C3 5.34 3 4.68 3 4 Z M-9 6 C-8.01 6.66 -7.02 7.32 -6 8 C-6.66 8 -7.32 8 -8 8 C-8 8.66 -8 9.32 -8 10 C-7.01 9.67 -6.02 9.34 -5 9 C-4.34 9.66 -3.68 10.32 -3 11 C-2.01 11.66 -1.02 12.32 0 13 C0 13.66 0 14.32 0 15 C-3.63 15 -7.26 15 -11 15 C-11.33 13.35 -11.66 11.7 -12 10 C-11.01 10 -10.02 10 -9 10 C-9 9.34 -9 8.68 -9 8 C-9.99 7.67 -10.98 7.34 -12 7 C-11.01 6.67 -10.02 6.34 -9 6 Z " fill="#2D3E76" transform="translate(133,38)"/>
<path d="M0 0 C0.66 0.33 1.32 0.66 2 1 C1.67 1.66 1.34 2.32 1 3 C1.99 2.67 2.98 2.34 4 2 C6.69 3.75 6.69 3.75 9 6 C9 6.99 9 7.98 9 9 C7.02 9 5.04 9 3 9 C3 10.65 3 12.3 3 14 C-1.45 13.01 -1.45 13.01 -6 12 C-5.01 11.67 -4.02 11.34 -3 11 C-3 9.68 -3 8.36 -3 7 C-3.66 7 -4.32 7 -5 7 C-5.33 7.66 -5.66 8.32 -6 9 C-6.33 8.01 -6.66 7.02 -7 6 C-5 4 -5 4 -2.94 3.56 C-1.98 3.28 -1.98 3.28 -1 3 C-0.67 2.01 -0.34 1.02 0 0 Z M6 0 C6.99 0.49 6.99 0.49 8 1 C7.34 1.66 6.68 2.32 6 3 C6 2.01 6 1.02 6 0 Z " fill="#31427C" transform="translate(92,39)"/>
<path d="M0 0 C4.11 1.45 7.43 3.51 11 6 C10.63 8.63 10.29 9.75 8.26 11.52 C7.55 11.95 6.85 12.37 6.12 12.81 C5.43 13.25 4.73 13.69 4.01 14.14 C2 15 2 15 -1 14 C-0.44 10.73 0.5 9.17 3 7 C1.68 6.01 0.36 5.02 -1 4 C-0.67 2.68 -0.34 1.36 0 0 Z " fill="#1A2956" transform="translate(54,59)"/>
<path d="M0 0 C0.66 0 1.32 0 2 0 C1.67 3.96 1.34 7.92 1 12 C3.97 12 6.94 12 10 12 C10 12.33 10 12.66 10 13 C7.03 13 4.06 13 1 13 C1 13.66 1 14.32 1 15 C5.29 15 9.58 15 14 15 C7.04 18.48 -0.47 17.12 -8 16 C-8 15.67 -8 15.34 -8 15 C-6.35 15 -4.7 15 -3 15 C-3.33 14.01 -3.66 13.02 -4 12 C-3.56 9.31 -3.56 9.31 -3 7 C-3.99 6.67 -4.98 6.34 -6 6 C-5.34 5.67 -4.68 5.34 -4 5 C-4 4.34 -4 3.68 -4 3 C-2.68 3 -1.36 3 0 3 C0 2.01 0 1.02 0 0 Z " fill="#0A1F67" transform="translate(98,88)"/>
<path d="M0 0 C0.66 0 1.32 0 2 0 C2 16.83 2 33.66 2 51 C1.67 51 1.34 51 1 51 C-1.66 33.97 -0.8 17.14 0 0 Z " fill="#031137" transform="translate(162,68)"/>
<path d="M0 0 C0.66 0 1.32 0 2 0 C2 1.32 2 2.64 2 4 C2.66 4 3.32 4 4 4 C4.33 4.99 4.66 5.98 5 7 C5.33 6.01 5.66 5.02 6 4 C6.66 4.66 7.32 5.32 8 6 C7.34 6 6.68 6 6 6 C6.33 8.64 6.66 11.28 7 14 C-0.43 14.29 -0.43 14.29 -4 12 C-4 10.35 -4 8.7 -4 7 C-3.34 7 -2.68 7 -2 7 C-1.67 7.99 -1.34 8.98 -1 10 C-1 8.35 -1 6.7 -1 5 C-1.66 5 -2.32 5 -3 5 C-3 4.34 -3 3.68 -3 3 C-2.34 3 -1.68 3 -1 3 C-0.67 2.01 -0.34 1.02 0 0 Z " fill="#91C4FF" transform="translate(78,84)"/>
<path d="M0 0 C0.66 0.66 1.32 1.32 2 2 C2.99 2 3.98 2 5 2 C5.66 2.33 6.32 2.66 7 3 C7 6.96 7 10.92 7 15 C5.35 15.66 3.7 16.32 2 17 C1.34 17.33 0.68 17.66 0 18 C0 12.06 0 6.12 0 0 Z " fill="#A4A4A4" transform="translate(20,86)"/>
<path d="M0 0 C1.32 0 2.64 0 4 0 C4 0.66 4 1.32 4 2 C3.01 2.5 3.01 2.5 2 3 C2 5.64 2 8.28 2 11 C2.66 11.33 3.32 11.66 4 12 C3.67 12.66 3.34 13.32 3 14 C4.32 14.33 5.64 14.66 7 15 C7 15.66 7 16.32 7 17 C5.35 17 3.7 17 2 17 C3.65 17.33 5.3 17.66 7 18 C7 18.66 7 19.32 7 20 C5.35 20 3.7 20 2 20 C1.67 20.66 1.34 21.32 1 22 C0.34 22 -0.32 22 -1 22 C-2.12 14.25 -2.12 14.25 -1 12 C-2.65 12 -4.3 12 -6 12 C-6 11.67 -6 11.34 -6 11 C-4.35 11 -2.7 11 -1 11 C-1.33 10.01 -1.66 9.02 -2 8 C-1.67 7.34 -1.34 6.68 -1 6 C-1.66 5.67 -2.32 5.34 -3 5 C-2.34 5 -1.68 5 -1 5 C-0.67 3.35 -0.34 1.7 0 0 Z " fill="#1D3766" transform="translate(99,66)"/>
<path d="M0 0 C0.66 0 1.32 0 2 0 C3.02 7.93 3.22 15.85 3.24 23.83 C3.25 25.96 3.28 28.08 3.31 30.21 C3.32 31.56 3.32 32.92 3.33 34.28 C3.34 35.5 3.35 36.72 3.36 37.97 C3 41 3 41 0 44 C0 29.48 0 14.96 0 0 Z " fill="#051360" transform="translate(161,109)"/>
<path d="M0 0 C1.32 0.33 2.64 0.66 4 1 C4 3.64 4 6.28 4 9 C-1.61 9 -7.22 9 -13 9 C-12.67 8.01 -12.34 7.02 -12 6 C-10.04 5.41 -10.04 5.41 -7.62 5.06 C-3.83 4.39 -3.83 4.39 -0.94 1.88 C-0.63 1.26 -0.32 0.64 0 0 Z " fill="#163487" transform="translate(91,94)"/>
<path d="M0 0 C2.78 0.2 4.99 -0.14 7.68 -0.81 C7.68 0.86 7.68 2.52 7.68 4.19 C0.42 4.19 -6.84 4.19 -14.32 4.19 C-14.32 3.2 -14.32 2.21 -14.32 1.19 C-9.28 -1.12 -5.32 -0.72 0 0 Z " fill="#2E509C" transform="translate(69.31640625,98.80859375)"/>
<path d="M0 0 C1.32 0 2.64 0 4 0 C4 7.26 4 14.52 4 22 C3.67 21.01 3.34 20.02 3 19 C2.01 19 1.02 19 0 19 C0 12.73 0 6.46 0 0 Z " fill="#3A588D" transform="translate(43,72)"/>
<path d="M0 0 C1.17 -0.03 2.35 -0.05 3.56 -0.08 C4.55 0.03 5.54 0.14 6.56 0.25 C7.22 1.24 7.88 2.23 8.56 3.25 C8.23 3.91 7.9 4.57 7.56 5.25 C2.94 5.25 -1.68 5.25 -6.44 5.25 C-6.77 3.93 -7.1 2.61 -7.44 1.25 C-5.56 -0.63 -2.51 0.03 0 0 Z " fill="#102254" transform="translate(77.4375,63.75)"/>
<path d="M0 0 C0 2.64 0 5.28 0 8 C-2.64 8 -5.28 8 -8 8 C-8 7.01 -8 6.02 -8 5 C-8.99 5 -9.98 5 -11 5 C-11 3.35 -11 1.7 -11 0 C-9.54 -0.19 -8.08 -0.38 -6.62 -0.56 C-5.81 -0.67 -5 -0.77 -4.16 -0.88 C-2 -1 -2 -1 0 0 Z " fill="#071E5D" transform="translate(111,88)"/>
<path d="M0 0 C0.7 0 1.4 0.01 2.13 0.01 C3.86 0.03 5.58 0.04 7.31 0.06 C6.31 2.06 5.31 4.06 4.31 6.06 C2.66 6.06 1.01 6.06 -0.69 6.06 C-1.02 5.4 -1.35 4.74 -1.69 4.06 C-2.35 4.06 -3.01 4.06 -3.69 4.06 C-4.02 3.07 -4.35 2.08 -4.69 1.06 C-4.69 2.71 -4.69 4.36 -4.69 6.06 C-7 5.73 -9.31 5.4 -11.69 5.06 C-11.38 3.12 -11.38 3.12 -10.69 1.06 C-7.07 -0.14 -3.76 -0.05 0 0 Z M1.31 1.06 C1.64 2.05 1.97 3.04 2.31 4.06 C2.64 3.07 2.97 2.08 3.31 1.06 C2.65 1.06 1.99 1.06 1.31 1.06 Z " fill="#384789" transform="translate(96.6875,37.9375)"/>
<path d="M0 0 C0.33 0.66 0.66 1.32 1 2 C1.66 2.33 2.32 2.66 3 3 C2.67 3.66 2.34 4.32 2 5 C2.66 5 3.32 5 4 5 C5.12 8.75 5.12 8.75 4 11 C4.66 11.33 5.32 11.66 6 12 C5.34 12 4.68 12 4 12 C4 12.66 4 13.32 4 14 C4.66 14.33 5.32 14.66 6 15 C5.34 15 4.68 15 4 15 C4 17.31 4 19.62 4 22 C4.99 22 5.98 22 7 22 C7 22.99 7 23.98 7 25 C5.35 25 3.7 25 2 25 C1.8 23.42 1.62 21.83 1.44 20.25 C1.33 19.37 1.23 18.49 1.12 17.58 C1 15.09 1.4 13.38 2 11 C1.36 8.99 0.69 6.99 0 5 C-0.12 2.12 -0.12 2.12 0 0 Z " fill="#1F3A61" transform="translate(39,69)"/>
<path d="M0 0 C1.98 0 3.96 0 6 0 C6 2.97 6 5.94 6 9 C4.68 9 3.36 9 2 9 C2 9.66 2 10.32 2 11 C1.34 11 0.68 11 0 11 C-0.33 10.01 -0.66 9.02 -1 8 C-1.66 8 -2.32 8 -3 8 C-3 6.35 -3 4.7 -3 3 C-2.01 2.67 -1.02 2.34 0 2 C0 1.34 0 0.68 0 0 Z " fill="#294168" transform="translate(41,63)"/>
<path d="M0 0 C1.98 0 3.96 0 6 0 C6.33 0.99 6.66 1.98 7 3 C6.34 3 5.68 3 5 3 C5 3.66 5 4.32 5 5 C5.66 5.33 6.32 5.66 7 6 C6.34 6 5.68 6 5 6 C4.67 8.64 4.34 11.28 4 14 C2.35 14 0.7 14 -1 14 C-2.12 8.25 -2.12 8.25 -1 6 C-0.01 5.67 0.98 5.34 2 5 C1.34 5 0.68 5 0 5 C0 3.35 0 1.7 0 0 Z " fill="#0A2271" transform="translate(41,95)"/>
<path d="M0 0 C3 0 3 0 5.25 1.75 C7 4 7 4 6.88 6.12 C6 8 6 8 4 10 C3.83 12.58 3.83 12.58 4 15 C2.68 14.67 1.36 14.34 0 14 C0 9.38 0 4.76 0 0 Z " fill="#C3C3C3" transform="translate(20,62)"/>
<path d="M0 0 C0 0.99 0 1.98 0 3 C-0.66 3 -1.32 3 -2 3 C-1.34 3.62 -0.68 4.24 0 4.88 C2 7 2 7 2 9 C-0.64 9 -3.28 9 -6 9 C-6.33 8.01 -6.66 7.02 -7 6 C-8.32 6 -9.64 6 -11 6 C-10.67 4.35 -10.34 2.7 -10 1 C-6.53 -0.16 -3.64 -0.07 0 0 Z " fill="#293B70" transform="translate(119,47)"/>
<path d="M0 0 C0.99 0 1.98 0 3 0 C3.27 6.7 3.52 13.11 -1.12 18.44 C-2.05 19.21 -2.05 19.21 -3 20 C-3.99 19.67 -4.98 19.34 -6 19 C-5.34 18.67 -4.68 18.34 -4 18 C-3.35 15.98 -3.35 15.98 -3 14 C-2.34 14 -1.68 14 -1 14 C-0.65 10.28 -0.65 10.28 -2.5 7.19 C-3 6.8 -3.49 6.4 -4 6 C-3.34 5.67 -2.68 5.34 -2 5 C-1.34 5.33 -0.68 5.66 0 6 C-0.33 5.01 -0.66 4.02 -1 3 C-0.67 2.01 -0.34 1.02 0 0 Z " fill="#081C92" transform="translate(159,141)"/>
<path d="M0 0 C4.29 0 8.58 0 13 0 C13 1.65 13 3.3 13 5 C7.72 5 2.44 5 -3 5 C-3 4.34 -3 3.68 -3 3 C-2.01 2.67 -1.02 2.34 0 2 C0 1.34 0 0.68 0 0 Z " fill="#13328F" transform="translate(64,104)"/>
<path d="M0 0 C0.66 0 1.32 0 2 0 C2 0.66 2 1.32 2 2 C1.34 2 0.68 2 0 2 C0 1.34 0 0.68 0 0 Z M-7 1 C-0.25 1.88 -0.25 1.88 2 3 C2 3.66 2 4.32 2 5 C4.97 5.49 4.97 5.49 8 6 C8 6.66 8 7.32 8 8 C6.93 7.76 6.93 7.76 5.84 7.51 C-0.86 6.31 -7.69 6.27 -14 9 C-14 8.01 -14 7.02 -14 6 C-11.69 5.01 -9.38 4.02 -7 3 C-7 2.34 -7 1.68 -7 1 Z " fill="#445B99" transform="translate(72,40)"/>
<path d="M0 0 C3.4 5.1 2.93 7.99 2 14 C1.96 16 1.95 18 2 20 C3.98 20 5.96 20 8 20 C8 20.33 8 20.66 8 21 C6.02 21 4.04 21 2 21 C2.33 21.99 2.66 22.98 3 24 C2.34 24.66 1.68 25.32 1 26 C-0.19 22.12 -1 19.08 -1 15 C-1.01 13.87 -1.02 12.74 -1.04 11.58 C-1.05 9.72 -1.05 9.72 -1.06 7.81 C-1.07 6.56 -1.09 5.31 -1.1 4.02 C-1 1 -1 1 0 0 Z " fill="#132C50" transform="translate(39,74)"/>
<path d="M0 0 C-0.33 0.99 -0.66 1.98 -1 3 C-1.99 3 -2.98 3 -4 3 C-4 3.99 -4 4.98 -4 6 C-4.66 5.67 -5.32 5.34 -6 5 C-6.62 2.94 -6.62 2.94 -7 1 C-7.66 1 -8.32 1 -9 1 C-9.33 1.66 -9.66 2.32 -10 3 C-10.99 3 -11.98 3 -13 3 C-13 2.34 -13 1.68 -13 1 C-13.66 1 -14.32 1 -15 1 C-15.33 1.66 -15.66 2.32 -16 3 C-18 3 -20 3 -22 3 C-22 2.01 -22 1.02 -22 0 C-6.14 -2.05 -6.14 -2.05 0 0 Z " fill="#BBD9FD" transform="translate(90,59)"/>
<path d="M0 0 C0.33 0.99 0.66 1.98 1 3 C3.64 3 6.28 3 9 3 C9 4.65 9 6.3 9 8 C5.37 8 1.74 8 -2 8 C-2 6.02 -2 4.04 -2 2 C-1.34 2 -0.68 2 0 2 C0 1.34 0 0.68 0 0 Z " fill="#12308D" transform="translate(80,101)"/>
<path d="M0 0 C1.5 1.38 1.5 1.38 3 3 C3 3.66 3 4.32 3 5 C7.94 7.23 12.8 7.76 18.14 8.44 C21 9 21 9 23 11 C7.63 11.45 7.63 11.45 3.54 7.64 C1.17 5 0 3.61 0 0 Z " fill="#061469" transform="translate(38,153)"/>
<path d="M0 0 C0.33 0 0.66 0 1 0 C1 3.3 1 6.6 1 10 C-2.47 11.48 -2.47 11.48 -6 13 C-5.67 10.36 -5.34 7.72 -5 5 C-3.68 4.67 -2.36 4.34 -1 4 C-0.67 2.68 -0.34 1.36 0 0 Z " fill="#9D9D9D" transform="translate(179,94)"/>
<path d="M0 0 C0 3.63 0 7.26 0 11 C-0.99 11.33 -1.98 11.66 -3 12 C-3.66 11.67 -4.32 11.34 -5 11 C-5.33 11.99 -5.66 12.98 -6 14 C-6.33 11.69 -6.66 9.38 -7 7 C-6.01 7 -5.02 7 -4 7 C-4.06 6.22 -4.12 5.43 -4.19 4.62 C-4.13 3.76 -4.06 2.89 -4 2 C-1 0 -1 0 0 0 Z " fill="#B8B8B8" transform="translate(27,69)"/>
<path d="M0 0 C0 0.66 0 1.32 0 2 C-2.31 2 -4.62 2 -7 2 C-7 2.66 -7 3.32 -7 4 C-8.28 4.12 -9.56 4.25 -10.88 4.38 C-14.35 4.69 -14.35 4.69 -17 7 C-17.99 7 -18.98 7 -20 7 C-19.01 3.81 -17.98 2.99 -15.06 1.25 C-10.2 -0.66 -5.13 -0.25 0 0 Z " fill="#EEF5FE" transform="translate(75,46)"/>
<path d="M0 0 C1.65 0 3.3 0 5 0 C5 0.66 5 1.32 5 2 C5.99 2.33 6.98 2.66 8 3 C7.67 4.65 7.34 6.3 7 8 C4.69 8 2.38 8 0 8 C0 5.36 0 2.72 0 0 Z " fill="#091F96" transform="translate(90,113)"/>
<path d="M0 0 C2.64 0 5.28 0 8 0 C7.01 2.97 6.02 5.94 5 9 C2.36 8.67 -0.28 8.34 -3 8 C-3 7.34 -3 6.68 -3 6 C-2.01 5.67 -1.02 5.34 0 5 C0 4.34 0 3.68 0 3 C0.66 2.67 1.32 2.34 2 2 C1.34 2 0.68 2 0 2 C0 1.34 0 0.68 0 0 Z " fill="#344E86" transform="translate(43,54)"/>
<path d="M0 0 C0.99 0 1.98 0 3 0 C3 4.62 3 9.24 3 14 C2.01 14 1.02 14 0 14 C0 13.34 0 12.68 0 12 C-0.66 11.67 -1.32 11.34 -2 11 C-1.34 11 -0.68 11 0 11 C0 10.34 0 9.68 0 9 C-0.66 8.67 -1.32 8.34 -2 8 C-1.34 8 -0.68 8 0 8 C0 7.34 0 6.68 0 6 C-0.66 5.67 -1.32 5.34 -2 5 C-1.34 5 -0.68 5 0 5 C0 4.34 0 3.68 0 3 C-0.99 2.67 -1.98 2.34 -3 2 C-2.01 2 -1.02 2 0 2 C0 1.34 0 0.68 0 0 Z " fill="#2A4472" transform="translate(95,63)"/>
<path d="M0 0 C3.88 1.75 3.88 1.75 5 4 C-0.08 4.85 -4.85 5.09 -10 5 C-9.67 3.68 -9.34 2.36 -9 1 C-2.25 0.88 -2.25 0.88 0 2 C0 1.34 0 0.68 0 0 Z " fill="#D1E6FF" transform="translate(80,51)"/>
<path d="M0 0 C2.31 0.33 4.62 0.66 7 1 C6.38 1.74 5.76 2.48 5.12 3.25 C3.4 5.49 2.14 7.44 1 10 C0.01 9.67 -0.98 9.34 -2 9 C-1.51 5.88 -1 3 0 0 Z " fill="#BED9FA" transform="translate(50,55)"/>
<path d="M0 0 C4.29 0 8.58 0 13 0 C12.01 0.66 11.02 1.32 10 2 C10 2.66 10 3.32 10 4 C9.01 4 8.02 4 7 4 C6.67 4.99 6.34 5.98 6 7 C5.01 7 4.02 7 3 7 C3.02 6.2 3.04 5.39 3.06 4.56 C3.3 2.07 3.3 2.07 2 1 C2 1.99 2 2.98 2 4 C1.34 4 0.68 4 0 4 C0 2.68 0 1.36 0 0 Z " fill="#39498B" transform="translate(105,38)"/>
<path d="M0 0 C0.76 0.8 1.53 1.61 2.31 2.44 C4.79 5.17 4.79 5.17 8 6 C8 6.99 8 7.98 8 9 C5.03 9 2.06 9 -1 9 C-1.12 2.25 -1.12 2.25 0 0 Z " fill="#1A3983" transform="translate(47,94)"/>
<path d="M0 0 C4.29 0 8.58 0 13 0 C13 0.66 13 1.32 13 2 C12.22 2.12 11.43 2.25 10.62 2.38 C7.86 2.79 7.86 2.79 6 5 C2.88 5.12 2.88 5.12 0 5 C0 3.35 0 1.7 0 0 Z " fill="#97C7FF" transform="translate(55,84)"/>
<path d="M0 0 C0.72 0.19 1.44 0.37 2.19 0.56 C5.13 1.02 7.14 0.74 10 0 C10.66 1.32 11.32 2.64 12 4 C7.05 4.33 2.1 4.66 -3 5 C-3 4.34 -3 3.68 -3 3 C-2.34 3 -1.68 3 -1 3 C-0.67 2.01 -0.34 1.02 0 0 Z " fill="#D8EAFF" transform="translate(73,60)"/>
<path d="M0 0 C0.66 0.66 1.32 1.32 2 2 C3.32 3.01 4.66 4.01 6 5 C5.36 5.1 4.72 5.21 4.06 5.31 C3.38 5.54 2.7 5.77 2 6 C1.67 6.99 1.34 7.98 1 9 C0.67 8.34 0.34 7.68 0 7 C-0.66 7.66 -1.32 8.32 -2 9 C-3 9 -4 9 -5 9 C-5 7.68 -5 6.36 -5 5 C-3.68 4.67 -2.36 4.34 -1 4 C-0.67 2.68 -0.34 1.36 0 0 Z " fill="#2D3E77" transform="translate(142,44)"/>
<path d="M0 0 C-0.7 0.23 -1.4 0.46 -2.12 0.7 C-8.3 2.82 -13.65 5.26 -19 9 C-16.24 3.04 -11.84 0.72 -5.96 -1.68 C-3.39 -2.1 -2.18 -1.33 0 0 Z " fill="#0E0E0E" transform="translate(48,21)"/>
<path d="M0 0 C0.66 0.66 1.32 1.32 2 2 C3.99 2.4 5.99 2.74 8 3 C8 3.66 8 4.32 8 5 C6.35 5 4.7 5 3 5 C4.65 5.33 6.3 5.66 8 6 C8 6.66 8 7.32 8 8 C6.35 8 4.7 8 3 8 C2.67 8.66 2.34 9.32 2 10 C1.34 10 0.68 10 0 10 C-1.12 2.25 -1.12 2.25 0 0 Z " fill="#193470" transform="translate(98,78)"/>
<path d="M0 0 C1.65 0 3.3 0 5 0 C5 2.64 5 5.28 5 8 C3.35 8 1.7 8 0 8 C0 5.36 0 2.72 0 0 Z " fill="#091F97" transform="translate(122,113)"/>
<path d="M0 0 C1.32 0.33 2.64 0.66 4 1 C4 4.3 4 7.6 4 11 C3.01 11 2.02 11 1 11 C-0.1 7.71 0.2 6.29 1 3 C0.01 2.67 -0.98 2.34 -2 2 C-1.34 1.34 -0.68 0.68 0 0 Z " fill="#112D7A" transform="translate(94,92)"/>
<path d="M0 0 C1.32 0.33 2.64 0.66 4 1 C4 4.63 4 8.26 4 12 C3.67 11.01 3.34 10.02 3 9 C2.01 9 1.02 9 0 9 C0 6.03 0 3.06 0 0 Z " fill="#2F4F8B" transform="translate(43,82)"/>
<path d="M0 0 C1.79 0.02 1.79 0.02 3.62 0.04 C5.42 0.05 5.42 0.05 7.25 0.06 C8.18 0.07 9.1 0.09 10.06 0.1 C10.06 0.43 10.06 0.76 10.06 1.1 C6.43 1.1 2.8 1.1 -0.94 1.1 C-0.94 2.09 -0.94 3.08 -0.94 4.1 C3.02 4.1 6.98 4.1 11.06 4.1 C11.06 4.43 11.06 4.76 11.06 5.1 C6.44 5.1 1.82 5.1 -2.94 5.1 C-3.27 3.78 -3.6 2.46 -3.94 1.1 C-2.94 0.1 -2.94 0.1 0 0 Z " fill="#445077" transform="translate(73.94140625,63.90234375)"/>
<path d="M0 0 C1.98 0 3.96 0 6 0 C6.33 0.99 6.66 1.98 7 3 C6.34 3 5.68 3 5 3 C5 3.66 5 4.32 5 5 C5.66 5.33 6.32 5.66 7 6 C6.34 6 5.68 6 5 6 C5 6.66 5 7.32 5 8 C4.01 8 3.02 8 2 8 C0 2 0 2 0 0 Z " fill="#163476" transform="translate(41,95)"/>
<path d="M0 0 C0.66 0.33 1.32 0.66 2 1 C1.67 1.66 1.34 2.32 1 3 C2.98 2.67 4.96 2.34 7 2 C7.99 3.49 7.99 3.49 9 5 C9 4.34 9 3.68 9 3 C10.32 3.66 11.64 4.32 13 5 C13 5.33 13 5.66 13 6 C7.16 6.35 3.15 6.17 -2 3 C-1.34 2.67 -0.68 2.34 0 2 C0 1.34 0 0.68 0 0 Z " fill="#081C93" transform="translate(45,156)"/>
<path d="M0 0 C1.32 0.33 2.64 0.66 4 1 C4 2.65 4 4.3 4 6 C1.03 6 -1.94 6 -5 6 C-3.35 4.02 -1.7 2.04 0 0 Z " fill="#244494" transform="translate(91,94)"/>
<path d="M0 0 C0.99 0.5 0.99 0.5 2 1 C2 1.66 2 2.32 2 3 C5.88 4.19 8.92 5 13 5 C13 5.66 13 6.32 13 7 C8.71 7 4.42 7 0 7 C0 4.69 0 2.38 0 0 Z " fill="#0A22A9" transform="translate(93,137)"/>
<path d="M0 0 C2.97 0.33 5.94 0.66 9 1 C9 1.66 9 2.32 9 3 C8.01 3.33 7.02 3.66 6 4 C6 4.66 6 5.32 6 6 C4.35 6 2.7 6 1 6 C1 5.34 1 4.68 1 4 C0.34 3.67 -0.32 3.34 -1 3 C-0.34 3 0.32 3 1 3 C0.67 2.01 0.34 1.02 0 0 Z " fill="#162F5B" transform="translate(100,68)"/>
<path d="M0 0 C1.32 0 2.64 0 4 0 C4 2.64 4 5.28 4 8 C2.68 8 1.36 8 0 8 C0 5.36 0 2.72 0 0 Z " fill="#385488" transform="translate(43,63)"/>
<path d="M0 0 C2.64 0 5.28 0 8 0 C7.67 1.65 7.34 3.3 7 5 C4.69 5 2.38 5 0 5 C0 3.35 0 1.7 0 0 Z " fill="#091F96" transform="translate(134,116)"/>
<path d="M0 0 C0.99 0.5 0.99 0.5 2 1 C2.03 2.62 2.05 4.25 2.06 5.88 C2.07 6.78 2.09 7.68 2.1 8.62 C2 11 2 11 1 13 C1.66 13 2.32 13 3 13 C3.33 14.98 3.66 16.96 4 19 C2.02 18.01 2.02 18.01 0 16 C-0.3 13.13 -0.38 10.66 -0.25 7.81 C-0.23 7.06 -0.21 6.31 -0.2 5.54 C-0.15 3.69 -0.08 1.85 0 0 Z " fill="#07177A" transform="translate(37,137)"/>
<path d="M0 0 C0.66 0 1.32 0 2 0 C2 1.98 2 3.96 2 6 C3.98 6 5.96 6 8 6 C8 6.33 8 6.66 8 7 C6.02 7 4.04 7 2 7 C2.33 7.99 2.66 8.98 3 10 C2.34 10.66 1.68 11.32 1 12 C-0.47 7.59 -1.37 4.52 0 0 Z " fill="#102A5F" transform="translate(39,88)"/>
<path d="M0 0 C2.48 0.99 2.48 0.99 5 2 C2.75 4.5 2.75 4.5 0 7 C-1.32 7 -2.64 7 -4 7 C-2.8 4.51 -1.55 2.32 0 0 Z " fill="#C4DBF7" transform="translate(53,64)"/>
<path d="M0 0 C0.66 0 1.32 0 2 0 C2 0.66 2 1.32 2 2 C1.34 2 0.68 2 0 2 C0 1.34 0 0.68 0 0 Z M-1 2 C-0.01 2.33 0.98 2.66 2 3 C2 3.66 2 4.32 2 5 C4.97 5.49 4.97 5.49 8 6 C8 6.66 8 7.32 8 8 C3.38 7.34 -1.24 6.68 -6 6 C-4.68 5.67 -3.36 5.34 -2 5 C-1.67 4.01 -1.34 3.02 -1 2 Z " fill="#4E66A7" transform="translate(72,40)"/>
<path d="M0 0 C1.32 0 2.64 0 4 0 C4 0.66 4 1.32 4 2 C4.99 2.33 5.98 2.66 7 3 C7 4.32 7 5.64 7 7 C5.35 7 3.7 7 2 7 C1.67 6.34 1.34 5.68 1 5 C0.67 5 0.34 5 0 5 C0 3.35 0 1.7 0 0 Z " fill="#91C3FC" transform="translate(47,84)"/>
<path d="M0 0 C0.99 0.99 1.98 1.98 3 3 C2.34 4.98 1.68 6.96 1 9 C-0.32 8.67 -1.64 8.34 -3 8 C-3 6.35 -3 4.7 -3 3 C-2.34 3 -1.68 3 -1 3 C-0.67 3.99 -0.34 4.98 0 6 C0 4.02 0 2.04 0 0 Z " fill="#83BCFF" transform="translate(77,88)"/>
<path d="M0 0 C2.97 0.49 2.97 0.49 6 1 C6 2.32 6 3.64 6 5 C3.69 5 1.38 5 -1 5 C-0.67 3.35 -0.34 1.7 0 0 Z " fill="#2D407A" transform="translate(109,48)"/>
<path d="M0 0 C1.5 1.38 1.5 1.38 3 3 C3 3.66 3 4.32 3 5 C5.48 5.99 5.48 5.99 8 7 C8 7.66 8 8.32 8 9 C8.66 9.33 9.32 9.66 10 10 C7.35 9.85 5.56 9.5 3.55 7.7 C0 3.6 0 3.6 0 0 Z " fill="#041057" transform="translate(38,153)"/>
<path d="M0 0 C0 0.66 0 1.32 0 2 C-1.32 2 -2.64 2 -4 2 C-3.67 2.99 -3.34 3.98 -3 5 C-4.32 5 -5.64 5 -7 5 C-6.67 3.35 -6.34 1.7 -6 0 C-3 -1 -3 -1 0 0 Z " fill="#2C3D73" transform="translate(159,48)"/>
<path d="M0 0 C2.69 0.88 2.69 0.88 5 2 C5 3.32 5 4.64 5 6 C3.35 6 1.7 6 0 6 C-0.33 5.34 -0.66 4.68 -1 4 C-1.66 4 -2.32 4 -3 4 C-3 3.34 -3 2.68 -3 2 C-2.01 1.34 -1.02 0.68 0 0 Z " fill="#324483" transform="translate(128,44)"/>
<path d="M0 0 C2.97 0 5.94 0 9 0 C9.33 0.66 9.66 1.32 10 2 C9.67 2.66 9.34 3.32 9 4 C6.04 3.39 4.62 2.75 2 1 C1.67 1.99 1.34 2.98 1 4 C0.67 2.68 0.34 1.36 0 0 Z " fill="#374786" transform="translate(52,38)"/>
<path d="M0 0 C-0.99 1.49 -0.99 1.49 -2 3 C-2 2.34 -2 1.68 -2 1 C-2.99 1.33 -3.98 1.66 -5 2 C-5.66 1.67 -6.32 1.34 -7 1 C-7.33 1.66 -7.66 2.32 -8 3 C-8 2.01 -8 1.02 -8 0 C-4.71 -1.1 -3.29 -0.8 0 0 Z M-10 2 C-9.34 2.66 -8.68 3.32 -8 4 C-8.33 4.66 -8.66 5.32 -9 6 C-9.66 6 -10.32 6 -11 6 C-10.67 4.68 -10.34 3.36 -10 2 Z " fill="#081D9B" transform="translate(117,156)"/>
<path d="M0 0 C-0.33 1.32 -0.66 2.64 -1 4 C-2.98 4 -4.96 4 -7 4 C-6.62 2.06 -6.62 2.06 -6 0 C-3.51 -1.25 -2.59 -0.78 0 0 Z " fill="#365AAA" transform="translate(78,99)"/>
<path d="M0 0 C2.64 0 5.28 0 8 0 C7.01 0.33 6.02 0.66 5 1 C4.67 1.99 4.34 2.98 4 4 C3.34 4 2.68 4 2 4 C2 4.66 2 5.32 2 6 C1.34 5.67 0.68 5.34 0 5 C0 3.35 0 1.7 0 0 Z " fill="#384789" transform="translate(134,38)"/>
<path d="M0 0 C0.33 0.99 0.66 1.98 1 3 C-0.65 4.65 -2.3 6.3 -4 8 C-4.99 7.67 -5.98 7.34 -7 7 C-6.34 6.67 -5.68 6.34 -5 6 C-4.88 5.36 -4.75 4.72 -4.62 4.06 C-4 2 -4 2 -1.94 0.75 C-1.3 0.5 -0.66 0.25 0 0 Z " fill="#06177C" transform="translate(160,153)"/>
<path d="M0 0 C0.99 0 1.98 0 3 0 C3 2.97 3 5.94 3 9 C2.01 9 1.02 9 0 9 C0 6.03 0 3.06 0 0 Z " fill="#284791" transform="translate(92,85)"/>
<path d="M0 0 C0.66 0.66 1.32 1.32 2 2 C4.11 1.68 4.11 1.68 6 1 C5.01 1.5 5.01 1.5 4 2 C4.33 2.99 4.66 3.98 5 5 C2.69 5.62 2.69 5.62 0 6 C-0.99 5.34 -1.98 4.68 -3 4 C-2.01 4 -1.02 4 0 4 C0 3.34 0 2.68 0 2 C-0.66 1.67 -1.32 1.34 -2 1 C-1.34 0.67 -0.68 0.34 0 0 Z " fill="#0F244A" transform="translate(139,70)"/>
<path d="M0 0 C0.66 0.99 1.32 1.98 2 3 C0.75 5 0.75 5 -1 7 C-2.32 7 -3.64 7 -5 7 C-5 5.35 -5 3.7 -5 2 C-3.68 2.33 -2.36 2.66 -1 3 C-0.67 2.01 -0.34 1.02 0 0 Z " fill="#A7C9F1" transform="translate(52,61)"/>
<path d="M0 0 C0.66 0.33 1.32 0.66 2 1 C1.67 1.66 1.34 2.32 1 3 C3.31 3 5.62 3 8 3 C8 3.33 8 3.66 8 4 C6.02 4 4.04 4 2 4 C2.33 4.99 2.66 5.98 3 7 C1.68 7 0.36 7 -1 7 C-0.67 4.69 -0.34 2.38 0 0 Z " fill="#21355C" transform="translate(39,59)"/>
<path d="M0 0 C2.31 0 4.62 0 7 0 C7 0.99 7 1.98 7 3 C4.69 3.33 2.38 3.66 0 4 C0 2.68 0 1.36 0 0 Z " fill="#122D6D" transform="translate(108,84)"/>
<path d="M0 0 C0.66 0 1.32 0 2 0 C2 2.31 2 4.62 2 7 C0.02 7 -1.96 7 -4 7 C-4 6.34 -4 5.68 -4 5 C-3.01 4.67 -2.02 4.34 -1 4 C-0.27 1.98 -0.27 1.98 0 0 Z " fill="#2F457D" transform="translate(96,49)"/>
<path d="M0 0 C0.66 0.33 1.32 0.66 2 1 C1.67 1.66 1.34 2.32 1 3 C2.65 3 4.3 3 6 3 C6 3.66 6 4.32 6 5 C5.34 5 4.68 5 4 5 C3.67 5.66 3.34 6.32 3 7 C3 6.34 3 5.68 3 5 C0.03 4.51 0.03 4.51 -3 4 C-2.01 3.67 -1.02 3.34 0 3 C0 2.01 0 1.02 0 0 Z " fill="#2E427F" transform="translate(77,41)"/>
<path d="M0 0 C6.4 -0.49 6.4 -0.49 9.44 2 C10.21 2.99 10.21 2.99 11 4 C10.01 4.5 10.01 4.5 9 5 C6.84 4.22 6.84 4.22 4.38 3.06 C3.56 2.68 2.74 2.3 1.9 1.91 C1.27 1.61 0.65 1.31 0 1 C0 0.67 0 0.34 0 0 Z " fill="#272727" transform="translate(155,21)"/>
<path d="M0 0 C0.66 0 1.32 0 2 0 C2.33 0.99 2.66 1.98 3 3 C3.66 3 4.32 3 5 3 C5 4.32 5 5.64 5 7 C3.35 7 1.7 7 0 7 C0 4.69 0 2.38 0 0 Z " fill="#0921A8" transform="translate(78,131)"/>
<path d="M0 0 C0 0.66 0 1.32 0 2 C-0.99 2 -1.98 2 -3 2 C-3 2.99 -3 3.98 -3 5 C-4.65 5 -6.3 5 -8 5 C-8 3 -8 3 -6.81 1.38 C-4.44 -0.42 -2.9 -0.24 0 0 Z " fill="#091F8B" transform="translate(57,113)"/>
<path d="M0 0 C0 0.66 0 1.32 0 2 C-0.99 2 -1.98 2 -3 2 C-3 2.99 -3 3.98 -3 5 C-4.65 5 -6.3 5 -8 5 C-8 3 -8 3 -6.81 1.38 C-4.44 -0.42 -2.9 -0.24 0 0 Z " fill="#091F89" transform="translate(51,113)"/>
<path d="M0 0 C2.31 0 4.62 0 7 0 C7 0.99 7 1.98 7 3 C4.36 3 1.72 3 -1 3 C-0.67 2.01 -0.34 1.02 0 0 Z " fill="#24469F" transform="translate(79,100)"/>
<path d="M0 0 C0.66 1.32 1.32 2.64 2 4 C2.99 4 3.98 4 5 4 C5 4.99 5 5.98 5 7 C3.35 7 1.7 7 0 7 C0 4.69 0 2.38 0 0 Z " fill="#1D3D75" transform="translate(41,87)"/>
<path d="M0 0 C1.32 0 2.64 0 4 0 C4 0.66 4 1.32 4 2 C5.65 2 7.3 2 9 2 C9.33 2.66 9.66 3.32 10 4 C8.02 4.33 6.04 4.66 4 5 C2.68 3.35 1.36 1.7 0 0 Z " fill="#445F9F" transform="translate(82,49)"/>
<path d="M0 0 C0.66 0.33 1.32 0.66 2 1 C2 1.99 2 2.98 2 4 C1.01 4.33 0.02 4.66 -1 5 C-1.33 5.66 -1.66 6.32 -2 7 C-2.99 7 -3.98 7 -5 7 C-3.75 3.35 -3.33 2.22 0 0 Z " fill="#39498C" transform="translate(119,38)"/>
<path d="M0 0 C2.48 0.49 2.48 0.49 5 1 C4.67 2.65 4.34 4.3 4 6 C2.68 5.67 1.36 5.34 0 5 C0 3.35 0 1.7 0 0 Z " fill="#3E5798" transform="translate(52,45)"/>
<path d="M0 0 C2.02 1.3 4.02 2.64 6 4 C6 4.33 6 4.66 6 5 C3.36 5 0.72 5 -2 5 C-2 4.34 -2 3.68 -2 3 C-1.34 3 -0.68 3 0 3 C0 2.01 0 1.02 0 0 Z " fill="#17378A" transform="translate(57,101)"/>
<path d="M0 0 C0.99 0 1.98 0 3 0 C3 1.65 3 3.3 3 5 C2.01 5 1.02 5 0 5 C0 4.34 0 3.68 0 3 C-0.66 2.67 -1.32 2.34 -2 2 C-1.34 1.34 -0.68 0.68 0 0 Z M-2 5 C0 6 0 6 0 6 Z " fill="#29467F" transform="translate(95,78)"/>
<path d="M0 0 C0 1.98 0 3.96 0 6 C-1.32 6 -2.64 6 -4 6 C-4 4.35 -4 2.7 -4 1 C-2 0 -2 0 0 0 Z " fill="#BBDAFD" transform="translate(91,62)"/>
<path d="M0 0 C1.65 0 3.3 0 5 0 C4.67 0.99 4.34 1.98 4 3 C4.39 5.64 4.39 5.64 5 8 C2.75 5.31 1.12 3.35 0 0 Z " fill="#415D9B" transform="translate(87,54)"/>
<path d="M0 0 C0 0.99 0 1.98 0 3 C-2.31 3 -4.62 3 -7 3 C-7 2.34 -7 1.68 -7 1 C-4 0 -4 0 0 0 Z " fill="#25489E" transform="translate(71,100)"/>
<path d="M0 0 C1.69 1.65 3.35 3.31 5 5 C5 5.33 5 5.66 5 6 C3.02 6 1.04 6 -1 6 C-0.67 4.02 -0.34 2.04 0 0 Z " fill="#2A4A96" transform="translate(47,94)"/>
<path d="M0 0 C4.95 0.99 4.95 0.99 10 2 C10 2.33 10 2.66 10 3 C2.25 3.12 2.25 3.12 0 2 C0 1.34 0 0.68 0 0 Z " fill="#0F0F0F" transform="translate(149,18)"/>
<path d="M0 0 C2.31 0 4.62 0 7 0 C6.67 0.66 6.34 1.32 6 2 C4.68 2 3.36 2 2 2 C2 2.99 2 3.98 2 5 C1.34 5 0.68 5 0 5 C0 3.35 0 1.7 0 0 Z " fill="#092098" transform="translate(55,119)"/>
<path d="M0 0 C2.31 0 4.62 0 7 0 C6.01 0.33 5.02 0.66 4 1 C4 1.99 4 2.98 4 4 C2.68 4 1.36 4 0 4 C0 2.68 0 1.36 0 0 Z " fill="#081F7C" transform="translate(146,102)"/>
<path d="M0 0 C0.66 0 1.32 0 2 0 C2.33 1.32 2.66 2.64 3 4 C2.01 4.66 1.02 5.32 0 6 C-0.99 5.01 -1.98 4.02 -3 3 C-2.34 3 -1.68 3 -1 3 C-0.67 2.01 -0.34 1.02 0 0 Z " fill="#B3D2F7" transform="translate(87,93)"/>
<path d="M0 0 C1.32 0 2.64 0 4 0 C4 1.32 4 2.64 4 4 C3.01 4.33 2.02 4.66 1 5 C0.67 3.35 0.34 1.7 0 0 Z " fill="#99C9FF" transform="translate(64,93)"/>
<path d="M0 0 C2.36 2.36 2.49 3.78 3 7 C1.68 7 0.36 7 -1 7 C-1.04 5 -1.04 3 -1 1 C-0.67 0.67 -0.34 0.34 0 0 Z " fill="#9DC7F9" transform="translate(48,67)"/>
</svg>
