<?xml version="1.0" encoding="UTF-8"?>
<!-- Generator: visioncortex VTracer 0.6.5 -->
<svg version="1.1" xmlns="http://www.w3.org/2000/svg" width="225" height="224">
<path d="M0,0 L225,0 L225,224 L0,224 Z " fill="#FDFDFD" transform="translate(0,0)"/>
<path d="M0,0 L225,0 L225,224 L0,224 Z M23,21 L22,22 L22,203 L203,203 L203,21 Z " fill="#0E0E0E" transform="translate(0,0)"/>
<path d="M0,0 L11,0 L18,4 L22,9 L24,13 L24,23 L19,31 L13,35 L8,36 L8,138 L22,138 L22,69 L45,56 L47,43 L52,36 L57,33 L61,32 L69,32 L77,37 L81,42 L82,44 L82,56 L79,62 L73,67 L67,69 L60,69 L51,64 L49,61 L44,62 L28,71 L26,71 L26,138 L62,138 L62,142 L-52,142 L-52,138 L-16,138 L-16,108 L-21,106 L-37,97 L-45,103 L-49,105 L-57,105 L-65,101 L-70,95 L-71,92 L-71,80 L-67,74 L-62,70 L-58,68 L-50,68 L-43,71 L-38,75 L-35,81 L-35,93 L-12,106 L-12,138 L4,138 L3,71 L-24,56 L-28,57 L-34,60 L-45,60 L-52,56 L-56,51 L-58,46 L-58,38 L-54,30 L-45,24 L-35,24 L-27,28 L-23,33 L-21,37 L-21,47 L-22,51 L1,64 L3,65 L3,36 L-2,35 L-8,31 L-12,24 L-13,21 L-13,14 L-9,6 L-4,2 Z " fill="#080808" transform="translate(107,48)"/>
<path d="M0,0 L56,0 L56,224 L0,224 L1,207 L35,206 L37,204 L38,170 L55,170 L55,166 L38,166 L38,132 L55,132 L55,129 L38,129 L38,95 L55,95 L55,91 L38,91 L38,58 L54,57 L55,54 L38,54 L37,20 L35,18 L1,17 Z " fill="#FBFBFB" transform="translate(169,0)"/>
<path d="M0,0 L18,1 L18,35 L1,35 L1,38 L18,38 L18,72 L1,72 L1,75 L18,75 L18,109 L1,109 L1,112 L18,112 L19,149 L54,150 L54,166 L58,166 L58,150 L92,150 L93,167 L0,167 Z " fill="#FAFAFA" transform="translate(0,57)"/>
<path d="M0,0 L55,0 L54,17 L21,18 L19,21 L18,54 L0,55 Z " fill="#FEFEFE" transform="translate(0,0)"/>
<path d="M0,0 L1,0 L1,75 L0,72 L-17,72 L-17,38 L0,38 L0,35 L-17,35 L-17,1 Z " fill="#F5F5F5" transform="translate(224,94)"/>
<path d="M0,0 L11,0 L18,4 L22,9 L24,13 L24,23 L19,31 L13,35 L8,36 L8,138 L7,138 L7,36 L4,36 L4,66 L2,65 L3,36 L-2,35 L-8,31 L-12,24 L-13,21 L-13,14 L-9,6 L-4,2 Z " fill="#1DAFD5" transform="translate(107,48)"/>
<path d="M0,0 L10,0 L18,4 L22,9 L24,13 L24,23 L20,31 L14,35 L11,36 L0,36 L-7,32 L-11,27 L-13,22 L-13,14 L-9,6 Z " fill="#8B63A9" transform="translate(62,72)"/>
<path d="M0,0 L8,0 L16,5 L20,10 L21,12 L21,24 L18,30 L12,35 L6,37 L-1,37 L-10,32 L-14,27 L-15,24 L-15,15 L-12,8 L-7,3 Z " fill="#F38414" transform="translate(168,80)"/>
<path d="M0,0 L8,0 L15,3 L20,7 L23,13 L23,22 L20,29 L13,35 L9,37 L1,37 L-7,33 L-12,27 L-13,24 L-13,12 L-9,6 L-4,2 Z " fill="#029641" transform="translate(49,116)"/>
<path d="M0,0 L36,0 L35,17 L1,17 Z " fill="#FBFBFB" transform="translate(57,0)"/>
<path d="M0,0 L33,0 L34,17 L-1,17 Z " fill="#FEFEFE" transform="translate(133,207)"/>
<path d="M0,0 L33,0 L34,17 L-1,17 Z " fill="#FDFDFD" transform="translate(96,207)"/>
<path d="M0,0 L35,0 L34,17 L1,17 Z " fill="#FEFEFE" transform="translate(132,0)"/>
<path d="M0,0 L35,0 L34,17 L1,17 Z " fill="#FDFDFD" transform="translate(95,0)"/>
</svg>
