<?xml version="1.0" encoding="UTF-8"?>
<!-- Generator: visioncortex VTracer 0.6.5 -->
<svg version="1.1" xmlns="http://www.w3.org/2000/svg" width="496" height="496">
<path d="M0,0 L176,0 L181,5 L181,16 L177,24 L171,38 L170,41 L168,41 L166,50 L165,52 L163,52 L161,61 L157,69 L152,80 L147,91 L144,98 L140,108 L136,117 L132,125 L126,138 L199,138 L203,141 L205,145 L205,150 L203,150 L202,155 L195,164 L192,167 L187,173 L185,176 L183,176 L181,181 L172,191 L170,194 L168,194 L166,199 L163,200 L162,204 L158,206 L156,211 L147,221 L146,224 L141,229 L129,243 L125,249 L123,250 L120,255 L118,255 L116,260 L107,270 L100,279 L98,279 L96,284 L93,285 L92,289 L82,300 L76,309 L71,314 L69,314 L67,319 L57,331 L53,335 L51,339 L47,343 L46,345 L44,345 L42,349 L36,357 L34,357 L32,362 L29,364 L26,369 L24,369 L22,374 L12,385 L5,394 L1,399 L-1,399 L-2,403 L-13,415 L-16,417 L-23,417 L-23,415 L-27,414 L-29,409 L-28,398 L-26,388 L-24,382 L-21,366 L-19,366 L-18,354 L-16,345 L-14,338 L-11,323 L-9,317 L-6,301 L-4,295 L-1,279 L1,279 L2,268 L7,247 L9,236 L11,230 L13,219 L-55,218 L-59,213 L-60,207 L-56,190 L-54,185 L-51,172 L-49,166 L-46,153 L-44,153 L-43,143 L-41,134 L-39,134 L-38,124 L-34,110 L-31,97 L-28,88 L-26,78 L-24,78 L-23,69 L-21,60 L-19,55 L-16,42 L-14,36 L-11,23 L-9,17 L-6,5 L-4,5 L-3,1 Z " fill="#00A0DF" transform="translate(174,42)"/>
<path d="M0,0 L176,0 L181,5 L181,16 L177,24 L171,38 L170,41 L168,41 L166,50 L165,52 L163,52 L161,61 L157,69 L152,80 L147,91 L144,98 L140,108 L136,117 L132,125 L126,138 L199,138 L203,141 L205,145 L205,150 L203,150 L202,155 L195,164 L192,167 L187,173 L185,176 L183,176 L181,181 L172,191 L170,194 L168,194 L166,199 L163,200 L162,204 L158,206 L156,211 L147,221 L146,224 L141,229 L129,243 L125,249 L123,250 L120,255 L118,255 L116,260 L107,270 L100,279 L98,279 L96,284 L93,285 L92,289 L82,300 L76,309 L71,314 L69,314 L67,319 L57,331 L53,335 L51,339 L47,343 L46,345 L44,345 L42,349 L36,357 L34,357 L32,362 L29,364 L26,369 L24,369 L22,374 L12,385 L5,394 L1,399 L-1,399 L-2,403 L-13,415 L-16,417 L-23,417 L-23,415 L-27,414 L-29,409 L-28,398 L-26,388 L-24,382 L-21,366 L-19,366 L-18,354 L-16,345 L-14,338 L-11,323 L-9,317 L-6,301 L-4,295 L-1,279 L1,279 L2,268 L7,247 L9,236 L11,230 L13,219 L-55,218 L-59,213 L-60,207 L-56,190 L-54,185 L-51,172 L-49,166 L-46,153 L-44,153 L-43,143 L-41,134 L-39,134 L-38,124 L-34,110 L-31,97 L-28,88 L-26,78 L-24,78 L-23,69 L-21,60 L-19,55 L-16,42 L-14,36 L-11,23 L-9,17 L-6,5 L-4,5 L-3,1 Z M10,18 L6,31 L3,44 L1,51 L-1,61 L-1,65 L-3,65 L-7,82 L-10,92 L-12,103 L-12,107 L-14,107 L-18,123 L-20,130 L-22,137 L-24,143 L-26,152 L-29,161 L-32,175 L-34,180 L-36,191 L-36,195 L-38,195 L-38,200 L29,201 L34,202 L34,214 L33,223 L31,223 L29,236 L29,241 L27,241 L24,256 L24,263 L22,263 L17,287 L16,288 L14,301 L14,306 L12,306 L7,330 L4,344 L2,356 L0,360 L-1,370 L4,365 L15,352 L24,341 L36,326 L42,318 L46,314 L51,308 L51,306 L54,305 L60,297 L69,286 L75,279 L84,268 L95,255 L103,245 L109,238 L111,233 L115,231 L121,223 L121,221 L123,221 L134,207 L140,200 L145,194 L154,183 L168,166 L175,157 L175,156 L106,156 L104,152 L101,151 L103,142 L105,137 L107,137 L111,125 L111,122 L113,122 L118,108 L122,99 L126,91 L126,88 L128,88 L131,79 L131,77 L133,77 L138,63 L144,53 L146,43 L148,43 L151,34 L151,32 L153,32 L157,22 L158,18 Z " fill="#022F62" transform="translate(174,42)"/>
<path d="M0,0 L6,0 L11,4 L11,16 L7,33 L5,33 L4,44 L0,56 L-2,64 L-4,71 L-8,85 L-11,97 L-14,102 L-24,102 L-28,96 L-28,89 L-25,80 L-21,64 L-19,53 L-17,53 L-16,46 L-14,35 L-12,32 L-9,18 L-7,12 L-4,4 Z " fill="#F5FBFD" transform="translate(220,96)"/>
<path d="M0,0 L148,0 L147,4 L146,2 L1,2 L0,4 Z " fill="#0176B0" transform="translate(184,60)"/>
<path d="M0,0 L66,0 L64,4 L63,2 L0,2 Z " fill="#0091CE" transform="translate(283,198)"/>
<path d="M0,0 L1,4 L1,10 L-2,13 L-1,3 Z " fill="#008ECB" transform="translate(175,399)"/>
</svg>
