<?xml version="1.0" encoding="UTF-8"?>
<!-- Generator: visioncortex VTracer 0.6.5 -->
<svg version="1.1" xmlns="http://www.w3.org/2000/svg" width="474" height="474">
<path d="M0,0 L474,0 L474,474 L0,474 Z " fill="#FEFEFE" transform="translate(0,0)"/>
<path d="M0,0 L11,0 L26,4 L39,8 L52,17 L63,28 L70,39 L76,52 L79,66 L79,84 L75,100 L70,112 L63,123 L56,131 L45,139 L35,146 L29,156 L24,173 L23,194 L23,261 L32,264 L40,268 L51,275 L63,284 L73,296 L73,298 L75,298 L83,316 L86,334 L86,346 L84,358 L77,376 L65,392 L52,403 L32,412 L21,414 L10,415 L-9,413 L-25,407 L-44,393 L-54,380 L-57,375 L-64,358 L-67,333 L-71,324 L-76,316 L-89,303 L-100,296 L-114,287 L-136,275 L-152,267 L-157,264 L-162,265 L-174,275 L-200,289 L-223,292 L-234,291 L-251,287 L-269,276 L-277,270 L-289,253 L-292,249 L-298,228 L-298,206 L-297,196 L-285,171 L-277,164 L-266,153 L-251,146 L-242,142 L-230,141 L-210,141 L-187,149 L-174,152 L-165,152 L-148,149 L-129,140 L-115,133 L-99,123 L-80,111 L-73,107 L-74,97 L-76,89 L-76,68 L-74,58 L-70,45 L-64,35 L-57,28 L-48,17 L-32,8 L-22,3 Z " fill="#0D469B" transform="translate(344,30)"/>
<path d="M0,0 L11,0 L26,4 L39,8 L52,17 L63,28 L70,39 L76,52 L79,66 L79,84 L75,100 L70,112 L63,123 L56,131 L45,139 L35,146 L29,156 L24,173 L23,182 L21,181 L21,178 L18,178 L19,194 L21,194 L21,210 L19,210 L19,207 L17,207 L18,214 L20,211 L21,218 L21,258 L19,261 L18,266 L17,264 L14,264 L14,266 L12,266 L12,270 L7,271 L8,264 L10,264 L10,242 L13,242 L10,241 L10,203 L7,202 L6,226 L3,226 L3,242 L0,242 L0,226 L1,225 L1,210 L-1,210 L0,220 L0,225 L-3,226 L-5,203 L-7,183 L-12,165 L-18,153 L-21,149 L-32,145 L-41,140 L-42,139 L-62,139 L-80,145 L-96,153 L-115,164 L-141,180 L-142,177 L-139,177 L-139,174 L-134,174 L-134,172 L-129,170 L-128,167 L-133,166 L-133,164 L-128,162 L-125,164 L-119,164 L-118,162 L-120,161 L-111,158 L-106,156 L-107,152 L-101,152 L-102,148 L-107,148 L-108,146 L-103,146 L-104,145 L-116,144 L-115,140 L-106,137 L-107,134 L-115,137 L-119,137 L-120,140 L-128,141 L-128,143 L-136,144 L-134,142 L-125,138 L-112,131 L-99,123 L-80,111 L-73,107 L-74,97 L-76,89 L-76,68 L-74,58 L-70,45 L-64,35 L-57,28 L-48,17 L-32,8 L-22,3 Z " fill="#0D469A" transform="translate(344,30)"/>
<path d="M0,0 L20,0 L28,5 L38,9 L43,12 L49,22 L53,33 L56,45 L57,59 L57,98 L52,115 L45,128 L39,133 L27,140 L22,144 L18,145 L2,145 L-17,139 L-41,128 L-61,115 L-69,108 L-76,102 L-83,91 L-85,86 L-87,60 L-89,47 L-69,35 L-43,19 L-16,5 Z " fill="#FEFEFE" transform="translate(282,168)"/>
<path d="M0,0 L5,1 L3,5 L8,7 L9,10 L13,10 L14,14 L19,15 L18,12 L22,13 L30,16 L32,17 L32,20 L34,20 L34,18 L38,20 L46,30 L46,32 L48,32 L56,50 L59,68 L59,80 L57,92 L50,110 L38,126 L25,137 L5,146 L-6,148 L-17,149 L-36,147 L-52,141 L-54,139 L-54,136 L-56,136 L-57,134 L-63,131 L-65,127 L-69,126 L-71,123 L-71,120 L-73,120 L-74,114 L-78,112 L-79,109 L-79,105 L-79,101 L-81,99 L-81,93 L-79,92 L-78,83 L-82,82 L-82,83 L-81,84 L-81,92 L-84,93 L-84,96 L-86,96 L-85,72 L-88,72 L-87,63 L-85,58 L-82,59 L-81,48 L-79,48 L-77,61 L-77,78 L-76,79 L-74,94 L-70,95 L-68,98 L-68,82 L-65,70 L-60,58 L-56,55 L-41,55 L-35,52 L-31,48 L-29,39 L-14,31 L-6,29 L15,29 L15,32 L27,35 L27,29 L31,28 L31,24 L25,26 L20,25 L21,22 L28,21 L28,18 L21,17 L19,20 L10,19 L10,17 L1,14 L-10,11 L-10,10 L1,10 L1,6 L-3,6 L-3,2 L0,2 Z " fill="#0C469B" transform="translate(371,296)"/>
<path d="M0,0 L3,0 L5,4 L5,83 L14,86 L22,90 L33,97 L44,105 L43,108 L41,108 L41,105 L32,103 L28,101 L28,103 L23,103 L22,98 L18,98 L16,95 L11,93 L12,89 L9,88 L9,90 L6,90 L6,94 L10,94 L10,98 L2,99 L15,102 L19,105 L19,107 L25,106 L28,107 L30,104 L37,106 L37,109 L30,110 L30,113 L40,112 L40,116 L36,117 L36,123 L28,122 L23,120 L23,118 L3,118 L-7,121 L-18,127 L-20,127 L-21,136 L-27,142 L-32,144 L-47,144 L-51,148 L-56,160 L-58,170 L-58,187 L-62,183 L-65,182 L-67,176 L-68,167 L-69,166 L-69,149 L-70,136 L-72,136 L-72,151 L-73,147 L-75,147 L-78,155 L-79,160 L-76,160 L-76,180 L-77,184 L-75,183 L-75,180 L-73,179 L-73,172 L-74,171 L-74,163 L-72,162 L-72,170 L-69,171 L-69,180 L-72,181 L-71,187 L-69,187 L-70,192 L-68,194 L-69,198 L-65,202 L-64,208 L-62,208 L-60,214 L-55,215 L-53,219 L-47,222 L-47,224 L-45,224 L-46,227 L-62,215 L-72,202 L-75,197 L-82,180 L-85,155 L-89,146 L-94,138 L-107,125 L-118,118 L-132,109 L-154,97 L-155,95 L-149,95 L-149,97 L-147,97 L-147,99 L-142,101 L-141,98 L-134,96 L-133,94 L-125,93 L-121,92 L-121,90 L-129,88 L-131,83 L-135,81 L-142,77 L-142,80 L-146,80 L-145,75 L-148,72 L-148,70 L-144,72 L-127,83 L-113,91 L-92,100 L-78,104 L-62,104 L-55,101 L-45,94 L-37,89 L-32,81 L-27,69 L-24,58 L-23,25 L-22,25 L-21,48 L-19,47 L-19,32 L-17,32 L-16,47 L-17,48 L-18,64 L-15,64 L-15,48 L-12,48 L-12,24 L-10,23 L-10,25 L-8,25 L-8,63 L-6,63 L-6,49 L-5,49 L-5,64 L-8,64 L-7,82 L-8,86 L-10,86 L-10,92 L-6,92 L-6,88 L-4,88 L-4,86 L-1,86 L2,80 L2,40 L1,36 L-1,37 L-1,29 L1,29 L1,32 L3,32 L3,16 L1,16 L0,11 Z " fill="#0D479A" transform="translate(362,208)"/>
<path d="M0,0 L20,0 L43,8 L56,11 L65,11 L82,8 L92,3 L94,3 L94,5 L90,6 L89,10 L86,10 L85,12 L80,11 L74,14 L85,15 L94,19 L94,21 L87,21 L86,20 L66,19 L66,17 L61,17 L61,15 L59,16 L59,19 L46,19 L46,21 L41,21 L42,23 L46,25 L45,28 L36,25 L33,23 L16,23 L3,26 L-8,32 L-10,32 L-7,38 L-7,49 L-11,55 L-16,59 L-18,60 L-34,60 L-38,64 L-44,79 L-45,87 L-45,98 L-41,109 L-37,116 L-40,117 L-41,116 L-41,111 L-43,111 L-42,116 L-42,119 L-44,119 L-44,121 L-47,120 L-47,111 L-44,109 L-49,108 L-49,105 L-53,104 L-53,101 L-56,101 L-56,104 L-58,104 L-59,111 L-62,108 L-68,87 L-68,65 L-67,55 L-55,30 L-47,23 L-36,12 L-21,5 L-12,1 Z " fill="#0E4798" transform="translate(114,171)"/>
<path d="M0,0 L21,0 L29,2 L39,6 L48,12 L55,19 L52,19 L46,16 L28,16 L16,19 L3,26 L1,26 L0,35 L-6,41 L-11,43 L-26,43 L-30,47 L-35,59 L-37,69 L-37,86 L-41,82 L-44,75 L-46,61 L-46,53 L-43,38 L-37,27 L-28,15 L-19,8 L-10,3 Z " fill="#FDFDFC" transform="translate(341,309)"/>
<path d="M0,0 L13,0 L24,2 L36,8 L42,12 L40,13 L32,9 L18,9 L0,14 L-7,18 L-10,18 L-7,25 L-7,35 L-10,41 L-15,45 L-18,46 L-32,46 L-37,49 L-43,62 L-45,73 L-45,90 L-49,86 L-52,78 L-54,65 L-54,56 L-51,40 L-43,28 L-37,20 L-28,11 L-18,5 L-11,2 Z " fill="#FBFDFB" transform="translate(336,42)"/>
<path d="M0,0 L12,0 L26,2 L42,10 L45,13 L40,12 L35,9 L18,9 L5,12 L-6,18 L-8,18 L-5,24 L-5,35 L-9,41 L-14,45 L-16,46 L-32,46 L-36,50 L-42,65 L-43,73 L-43,90 L-47,85 L-49,82 L-52,67 L-52,55 L-49,39 L-38,23 L-33,18 L-23,9 L-16,5 Z " fill="#FDFDFC" transform="translate(112,185)"/>
<path d="M0,0 L2,0 L2,2 L0,3 L5,4 L4,7 L10,6 L11,3 L17,4 L24,3 L24,5 L11,8 L-1,14 L-11,23 L-16,29 L-26,44 L-29,60 L-30,60 L-30,46 L-29,41 L-29,39 L-30,33 L-33,33 L-34,42 L-36,43 L-38,42 L-40,53 L-37,53 L-37,58 L-41,58 L-40,84 L-38,84 L-38,99 L-40,99 L-43,83 L-44,81 L-44,60 L-42,50 L-38,37 L-32,27 L-25,20 L-16,9 Z " fill="#1A4A96" transform="translate(312,38)"/>
<path d="M0,0 L3,0 L5,2 L5,5 L10,4 L10,12 L12,12 L12,24 L7,26 L0,27 L3,29 L0,31 L-9,30 L-9,28 L-6,27 L-10,26 L-10,24 L-17,25 L-19,24 L-18,20 L-16,20 L-17,17 L-17,9 L-14,6 L-12,6 L-13,3 L-10,4 L-10,6 L-6,5 L-6,3 L-3,4 L0,3 Z " fill="#FDFDFD" transform="translate(315,56)"/>
<path d="M0,0 L2,4 L3,6 L4,20 L4,59 L-1,76 L-8,89 L-14,94 L-26,101 L-31,105 L-35,106 L-51,106 L-70,100 L-75,98 L-75,97 L-68,97 L-58,99 L-52,101 L-52,103 L-32,103 L-31,97 L-28,97 L-27,94 L-25,95 L-24,91 L-15,88 L-15,81 L-13,81 L-13,66 L-8,65 L-7,71 L-5,70 L-7,68 L-7,65 L0,65 L0,58 L1,57 L1,14 Z " fill="#FAFCFC" transform="translate(335,207)"/>
<path d="M0,0 L21,0 L29,2 L39,6 L48,12 L55,19 L52,19 L46,16 L28,16 L16,19 L3,26 L0,26 L1,21 L4,20 L5,18 L18,17 L19,14 L42,13 L42,11 L37,11 L33,13 L32,10 L35,8 L27,6 L27,9 L11,9 L2,8 L2,5 L26,5 L26,3 L7,3 L4,4 L-7,5 L-16,10 L-18,10 L-18,12 L-23,12 L-19,8 L-10,3 Z " fill="#F9FEFD" transform="translate(341,309)"/>
<path d="M0,0 L12,0 L26,2 L42,10 L45,13 L40,12 L35,9 L18,9 L5,12 L0,14 L1,10 L-7,9 L-8,7 L-15,7 L-20,9 L-21,12 L-25,11 L-19,6 Z " fill="#F9FCFD" transform="translate(112,185)"/>
<path d="M0,0 L2,0 L2,2 L0,2 L0,5 L-5,10 L-1,12 L-2,14 L-4,18 L-4,21 L-2,22 L-4,27 L-7,40 L-8,45 L-9,45 L-9,31 L-8,26 L-8,24 L-9,18 L-12,18 L-13,27 L-15,28 L-17,27 L-19,38 L-16,38 L-16,43 L-20,43 L-19,69 L-17,69 L-17,84 L-19,84 L-22,68 L-23,66 L-23,45 L-21,35 L-17,22 L-11,12 L-4,5 Z " fill="#174891" transform="translate(291,53)"/>
<path d="M0,0 L2,1 L-3,4 L-4,6 L0,5 L0,20 L-1,23 L-3,23 L-4,27 L-7,28 L-8,31 L-10,31 L-13,36 L-34,37 L-32,44 L-34,45 L-36,44 L-36,50 L-35,57 L-36,60 L-38,60 L-38,66 L-42,69 L-42,58 L-40,47 L-34,33 L-30,30 L-14,30 L-8,26 L-4,20 L-4,9 L-6,6 L-6,3 Z " fill="#0D4693" transform="translate(110,200)"/>
<path d="M0,0 L2,0 L2,3 L4,4 L0,5 L-1,12 L-3,13 L-5,12 L-5,15 L-1,16 L0,30 L1,17 L3,16 L3,32 L2,33 L1,49 L0,47 L-2,47 L-3,32 L-3,47 L2,51 L5,60 L4,62 L-3,52 L-6,45 L-8,19 L-10,6 Z " fill="#FDFDFE" transform="translate(203,209)"/>
<path d="M0,0 L2,0 L2,11 L5,1 L8,1 L5,17 L5,38 L8,51 L8,56 L-3,63 L-5,63 L-4,59 L1,59 L2,52 L1,50 L3,50 L2,34 L0,34 L-2,41 L-3,41 L-3,15 L-4,10 Z " fill="#FDFDFE" transform="translate(264,81)"/>
<path d="M0,0 L4,2 L5,5 L7,6 L9,13 L12,13 L13,11 L14,14 L14,20 L16,20 L16,29 L13,29 L12,54 L11,55 L10,63 L12,61 L12,69 L11,71 L6,69 L3,71 L6,61 L9,47 L9,29 L5,13 L0,2 Z " fill="#FCFCFE" transform="translate(413,67)"/>
<path d="M0,0 L13,0 L24,2 L36,8 L42,12 L40,13 L32,9 L18,9 L0,14 L-7,18 L-10,18 L-7,25 L-7,35 L-9,38 L-9,26 L-11,26 L-12,19 L-13,17 L-11,17 L-11,15 L-5,15 L-4,11 L1,8 L8,7 L25,6 L22,4 L11,3 L-1,3 L-16,7 L-17,11 L-22,11 L-20,10 L-20,8 L-22,7 L-11,2 Z " fill="#E2F0FA" transform="translate(336,42)"/>
<path d="M0,0 L3,3 L5,9 L8,34 L13,46 L13,48 L11,48 L10,51 L7,51 L4,45 L1,46 L1,37 L3,30 L1,30 L0,13 L-2,10 L-2,4 L0,4 L0,2 Z " fill="#FDFEF8" transform="translate(273,354)"/>
<path d="M0,0 L3,4 L8,17 L10,31 L10,43 L8,55 L2,71 L-1,69 L-1,67 L1,67 L2,57 L6,56 L5,38 L3,35 L1,19 L1,16 L4,15 L2,10 L0,4 Z " fill="#094999" transform="translate(420,333)"/>
<path d="M0,0 L3,1 L-2,9 L-7,13 L-19,20 L-24,24 L-28,25 L-44,25 L-63,19 L-68,17 L-68,16 L-61,16 L-51,18 L-45,20 L-45,22 L-25,22 L-24,16 L-21,16 L-20,13 L-18,14 L-16,10 L-6,9 L-3,5 L-1,5 Z " fill="#FCFDF8" transform="translate(328,288)"/>
<path d="M0,0 L3,2 L2,5 L1,3 L-1,3 L-1,6 L-6,8 L-7,10 L-8,9 L-10,11 L-10,9 L-13,9 L-13,11 L-11,11 L-10,14 L-14,14 L-14,11 L-15,12 L-15,19 L-16,22 L-18,23 L-19,25 L-21,27 L-21,32 L-25,30 L-24,23 L-22,21 L-26,20 L-24,16 L-20,14 L-20,11 L-18,11 L-19,8 L-13,4 L-5,2 Z " fill="#0D469E" transform="translate(311,44)"/>
<path d="M0,0 L4,1 L0,4 L-2,5 L-1,10 L-1,21 L-2,27 L-8,32 L-19,33 L-30,32 L-32,37 L-35,38 L-35,45 L-38,52 L-41,49 L-38,40 L-33,32 L-29,30 L-15,30 L-8,26 L-5,20 L-5,10 L-7,6 L-7,3 Z " fill="#1D4E91" transform="translate(333,57)"/>
<path d="M0,0 L5,2 L4,4 L-3,6 L-19,6 L-27,9 L-33,7 L-34,11 L-41,12 L-45,7 L-42,6 L-42,4 L-32,3 L-31,2 L-25,2 L-20,3 L-19,2 L-1,1 Z " fill="#0C469F" transform="translate(356,34)"/>
<path d="M0,0 L1,0 L1,15 L0,16 L0,28 L3,36 L3,20 L2,16 L9,15 L9,12 L11,12 L11,8 L13,8 L12,13 L7,26 L6,34 L6,51 L2,46 L0,43 L-3,28 L-3,16 Z " fill="#E8F5FB" transform="translate(63,224)"/>
<path d="M0,0 L2,0 L2,2 L5,4 L-1,6 L-1,8 L0,9 L0,14 L-3,17 L-3,21 L-6,21 L-6,18 L-9,18 L-11,21 L-12,31 L-15,30 L-15,53 L-17,53 L-17,32 L-11,13 L-4,3 Z " fill="#FDFDFA" transform="translate(384,171)"/>
<path d="M0,0 L3,0 L5,4 L5,84 L1,83 L2,80 L2,40 L1,36 L-1,37 L-1,29 L1,29 L1,32 L3,32 L3,16 L1,16 L0,11 Z " fill="#1C4C9C" transform="translate(362,208)"/>
<path d="M0,0 L7,1 L16,5 L17,3 L18,6 L48,7 L48,4 L40,4 L33,3 L33,2 L42,1 L42,0 L48,0 L51,3 L61,4 L59,6 L53,8 L34,10 L15,8 L-1,2 Z " fill="#174A93" transform="translate(320,435)"/>
<path d="M0,0 L5,3 L15,13 L22,24 L28,37 L31,51 L31,69 L29,71 L28,50 L26,46 L26,36 L23,36 L21,29 L19,28 L18,23 L19,21 L17,21 L17,19 L15,19 L12,15 L9,10 L4,6 L1,4 L1,2 L-1,1 Z " fill="#234C92" transform="translate(392,45)"/>
<path d="M0,0 L1,0 L2,32 L3,47 L3,66 L10,65 L17,67 L19,72 L21,74 L21,76 L17,74 L1,67 L0,40 Z " fill="#E9F3FA" transform="translate(366,224)"/>
<path d="M0,0 L10,0 L12,1 L12,4 L3,6 L3,8 L-4,9 L-4,13 L-7,14 L-8,11 L-12,13 L-15,11 L-18,10 Z " fill="#FDFCFB" transform="translate(164,307)"/>
<path d="M0,0 L9,3 L14,5 L19,6 L24,7 L24,3 L22,3 L22,1 L29,3 L34,7 L34,9 L36,9 L36,13 L34,13 L32,10 L24,9 L24,11 L30,12 L31,14 L26,15 L9,7 L0,1 Z " fill="#FDFEFA" transform="translate(232,289)"/>
<path d="M0,0 L3,0 L0,16 L0,37 L3,50 L3,55 L-8,62 L-10,62 L-9,58 L-4,58 L-3,51 L-4,49 L-2,49 L-2,5 Z " fill="#E1F1FA" transform="translate(269,82)"/>
<path d="M0,0 L6,2 L8,3 L8,5 L12,6 L13,9 L18,11 L17,17 L15,17 L17,23 L12,18 L6,11 L-4,4 L-1,3 Z " fill="#F9FBF9" transform="translate(399,302)"/>
<path d="M0,0 L2,0 L2,7 L-11,9 L-11,11 L-10,13 L-16,15 L-16,13 L-26,13 L-36,12 L-36,11 L-21,9 L-4,2 Z " fill="#E7F2F8" transform="translate(394,433)"/>
<path d="M0,0 L5,3 L12,10 L9,10 L3,7 L-15,7 L-27,10 L-40,17 L-43,17 L-42,12 L-39,11 L-38,9 L-25,8 L-24,5 L-1,4 Z " fill="#EFF9FE" transform="translate(384,318)"/>
<path d="M0,0 L6,0 L6,2 L14,3 L15,7 L20,9 L18,10 L19,15 L16,16 L6,9 L-1,6 L-4,4 L-1,3 Z " fill="#FDFBFA" transform="translate(380,32)"/>
<path d="M0,0 L10,0 L13,3 L31,2 L29,4 L12,7 L3,7 L-12,3 L-15,1 L0,2 Z " fill="#EDF4FA" transform="translate(167,176)"/>
<path d="M0,0 L2,4 L3,6 L4,20 L4,59 L1,70 L0,70 L0,58 L1,57 L1,14 Z " fill="#E5F2FA" transform="translate(335,207)"/>
<path d="M0,0 L2,1 L-1,5 L-1,9 L-4,12 L-13,14 L-15,13 L-16,16 L-23,18 L-27,17 L-11,7 Z " fill="#FDFDFA" transform="translate(237,188)"/>
<path d="M0,0 L9,0 L5,3 L-3,8 L-18,23 L-20,21 L-23,22 L-23,17 L-19,15 L-15,14 L-13,10 L-12,12 L-9,9 L-6,9 L-5,5 L-3,5 L-2,1 Z " fill="#DBEDF8" transform="translate(79,178)"/>
<path d="M0,0 L3,4 L2,8 L2,17 L3,13 L2,10 L8,10 L7,15 L5,19 L2,22 L-1,21 L-3,26 L-4,26 L-4,15 L-1,3 Z M1,22 Z " fill="#194E9E" transform="translate(307,363)"/>
<path d="M0,0 L4,1 L3,8 L-3,14 L-8,16 L-23,15 L-23,12 L-18,11 L-9,12 L-7,7 L-5,6 L1,7 Z " fill="#F3FAFE" transform="translate(338,336)"/>
<path d="M0,0 L1,0 L2,23 L4,22 L4,7 L6,7 L7,22 L6,23 L4,42 L1,38 L0,23 Z " fill="#19509C" transform="translate(339,233)"/>
<path d="M0,0 L12,6 L19,11 L19,12 L7,12 L0,14 L0,10 L3,8 L3,4 L-3,4 L-5,1 Z " fill="#FCFEFA" transform="translate(225,314)"/>
<path d="M0,0 L2,1 L0,7 L-1,9 L-1,17 L0,20 L-1,25 L-3,25 L-4,32 L-7,32 L-7,22 L-6,12 Z " fill="#194C9E" transform="translate(53,214)"/>
<path d="M0,0 L2,2 L3,28 L5,28 L5,43 L3,43 L0,27 L-1,25 L-1,4 Z " fill="#28559A" transform="translate(269,94)"/>
<path d="M0,0 L21,0 L27,1 L27,2 L7,3 L4,4 L-7,5 L-16,10 L-18,10 L-18,12 L-23,12 L-19,8 L-10,3 Z " fill="#E6F3FC" transform="translate(341,309)"/>
<path d="M0,0 L2,0 L2,32 L0,33 L0,31 L-2,31 L-2,27 L-9,27 L-9,13 L-8,13 L-8,26 L-4,26 L-4,21 L-3,21 L-1,2 Z " fill="#EAF3F9" transform="translate(45,229)"/>
<path d="M0,0 L16,8 L31,16 L31,17 L26,17 L26,15 L24,15 L24,17 L20,16 L15,14 L14,10 L14,8 L7,8 L7,5 L0,6 L0,2 Z " fill="#EEF6F8" transform="translate(193,297)"/>
<path d="M0,0 L7,0 L10,2 L-3,3 L-5,4 L-3,5 L8,6 L8,7 L14,8 L14,9 L6,9 L1,8 L-11,8 L-23,11 L-25,9 L-22,9 L-22,7 L-11,6 L-11,3 Z " fill="#1D4D95" transform="translate(123,178)"/>
<path d="M0,0 L7,0 L17,2 L23,4 L23,6 L39,7 L40,9 L24,9 L5,3 L0,1 Z " fill="#DCECF8" transform="translate(260,304)"/>
<path d="M0,0 L2,0 L2,3 L4,4 L0,5 L-1,12 L-3,13 L-5,12 L-6,27 L-7,27 L-10,6 Z " fill="#FCFBFE" transform="translate(203,209)"/>
<path d="M0,0 L1,4 L-2,7 L-4,7 L-6,9 L-18,10 L-22,12 L-22,9 L-26,9 L-26,12 L-24,12 L-24,14 L-22,14 L-23,18 L-25,18 L-27,15 L-29,16 L-31,20 L-32,17 L-28,9 L-25,7 L-10,7 L-4,4 Z " fill="#1D4B8E" transform="translate(340,344)"/>
<path d="M0,0 L4,0 L3,3 L2,2 L1,7 L-1,7 L-2,11 L0,11 L0,17 L-4,18 L-4,15 L-8,17 L-11,18 L-11,20 L-19,23 L-21,21 L-9,14 L-5,9 Z " fill="#184691" transform="translate(333,284)"/>
<path d="M0,0 L1,0 L1,17 L0,27 L2,25 L2,33 L1,35 L-4,33 L-7,35 L-4,25 L-1,11 Z " fill="#FDFDF9" transform="translate(423,103)"/>
<path d="M0,0 L14,5 L20,13 L20,15 L13,16 L13,13 L11,13 L10,10 L11,9 L4,8 L3,3 L0,2 Z " fill="#E8F3F9" transform="translate(309,173)"/>
<path d="M0,0 L5,1 L2,4 L-4,8 L-10,13 L-18,24 L-19,24 L-19,19 L-18,16 L-14,16 L-14,8 L-12,8 L-11,9 L-7,8 L-6,2 L-2,3 Z " fill="#16488E" transform="translate(322,313)"/>
<path d="M0,0 L3,3 L5,9 L8,34 L13,46 L13,48 L10,47 L5,36 L4,20 L0,2 Z " fill="#DEEEFB" transform="translate(273,354)"/>
<path d="M0,0 L2,1 L-3,4 L-4,6 L0,5 L0,20 L-1,23 L-3,23 L-4,27 L-7,28 L-8,31 L-12,29 L-6,24 L-4,20 L-4,9 L-6,6 L-6,3 Z " fill="#244B8A" transform="translate(110,200)"/>
<path d="M0,0 L5,5 L11,12 L11,14 L13,14 L14,18 L12,24 L9,25 L9,22 L5,21 L-1,18 L-2,14 L5,16 L12,22 L8,12 L6,11 L4,7 L0,3 Z " fill="#144892" transform="translate(406,314)"/>
<path d="M0,0 L8,0 L4,3 L0,4 L3,10 L3,21 L-1,27 L-4,29 L-4,25 L-1,25 L0,9 L-2,9 L-2,2 Z " fill="#E8F7FC" transform="translate(104,199)"/>
<path d="M0,0 L7,1 L13,4 L17,8 L20,15 L22,16 L23,26 L26,26 L26,38 L24,37 L20,21 L14,9 L11,5 L0,1 Z " fill="#184583" transform="translate(312,174)"/>
<path d="M0,0 L7,1 L2,7 L-12,16 L-19,27 L-20,24 L-17,15 L-15,15 L-14,11 L-9,11 L-7,8 L0,6 L1,3 Z " fill="#1C468C" transform="translate(392,159)"/>
<path d="M0,0 L20,0 L32,4 L30,5 L30,7 L24,7 L26,5 L19,5 L14,3 L-12,2 L-12,1 Z " fill="#294E95" transform="translate(114,171)"/>
<path d="M0,0 L2,3 L5,8 L15,21 L22,26 L18,27 L13,25 L11,20 L7,18 L4,12 L4,10 L1,10 L-1,5 Z " fill="#DCEEF7" transform="translate(286,402)"/>
<path d="M0,0 L1,2 L-1,8 L-4,11 L-5,17 L-7,17 L-8,26 L-8,50 L-9,50 L-11,37 L-11,28 L-8,12 Z " fill="#D7EBF6" transform="translate(293,70)"/>
<path d="M0,0 L2,1 L-1,16 L-1,33 L-5,29 L-7,25 L-6,17 L-4,18 L-2,2 L0,2 Z " fill="#E1F0FA" transform="translate(292,99)"/>
<path d="M0,0 L2,4 L8,15 L5,16 L4,15 L4,10 L2,10 L3,15 L3,18 L1,18 L1,20 L-2,19 L-2,10 L1,8 L-4,7 L-2,1 Z " fill="#0F46A0" transform="translate(69,272)"/>
<path d="M0,0 L5,0 L10,5 L10,7 L13,8 L4,7 L-15,7 L-15,5 L-5,5 L-5,2 Z " fill="#FBFBFE" transform="translate(351,24)"/>
<path d="M0,0 L27,0 L27,2 L-2,4 L-12,8 L-12,6 L-9,6 L-8,2 Z " fill="#E5F5FA" transform="translate(104,169)"/>
<path d="M0,0 L0,3 L-2,3 L-2,8 L-11,11 L-15,11 L-16,14 L-24,15 L-24,17 L-32,18 L-30,16 L-21,12 L-8,5 Z " fill="#204B8C" transform="translate(240,156)"/>
<path d="M0,0 L1,4 L-1,10 L-2,20 L-5,19 L-5,42 L-7,42 L-7,21 L-1,2 Z " fill="#DDEFF8" transform="translate(374,182)"/>
<path d="M0,0 L1,0 L1,5 L-1,12 L-4,13 L-5,17 L-2,17 L-2,19 L-6,19 L-7,22 L-14,22 L-12,18 L-6,11 Z " fill="#EDF5F9" transform="translate(415,138)"/>
<path d="M0,0 L2,1 L3,13 L5,14 L6,21 L8,21 L9,30 L11,30 L12,34 L14,34 L13,38 L8,32 L0,12 Z " fill="#1D468A" transform="translate(280,376)"/>
<path d="M0,0 L17,0 L22,4 L18,5 L11,5 L11,3 L0,4 L-6,2 L-6,1 Z " fill="#184790" transform="translate(130,193)"/>
<path d="M0,0 L2,3 L6,18 L11,25 L7,27 L4,27 L6,22 L1,21 L0,17 L1,13 Z " fill="#F9FBFE" transform="translate(47,261)"/>
<path d="M0,0 L12,1 L12,2 L-1,2 L-3,7 L-6,8 L-6,15 L-9,22 L-12,19 L-9,10 L-4,2 Z " fill="#2B5295" transform="translate(304,87)"/>
<path d="M0,0 L3,0 L2,5 L-5,16 L-12,22 L-13,12 L-12,14 L-7,15 L-6,7 L-5,9 L-2,9 L-1,1 Z " fill="#13448F" transform="translate(412,137)"/>
<path d="M0,0 L3,4 L6,18 L6,36 L4,38 L3,17 L1,13 L1,3 L-2,3 L-2,1 Z " fill="#2A528D" transform="translate(417,78)"/>
<path d="M0,0 L3,1 L7,5 L10,4 L10,3 L20,3 L21,5 L15,4 L15,6 L22,8 L22,11 L10,9 L-1,2 Z " fill="#104A96" transform="translate(83,308)"/>
<path d="M0,0 L1,4 L-2,16 L-7,18 L-10,26 L-16,27 L-10,18 L-3,8 Z " fill="#DEEEF8" transform="translate(424,396)"/>
<path d="M0,0 L12,0 L12,1 L1,2 L-4,3 L-3,7 L-4,9 L-8,8 L-8,7 L-15,7 L-20,9 L-21,12 L-25,11 L-19,6 Z " fill="#D6E7F4" transform="translate(112,185)"/>
<path d="M0,0 L6,0 L9,2 L9,4 L14,4 L15,6 L8,7 L6,5 L-5,6 L-8,9 L-8,4 Z " fill="#0A47A3" transform="translate(86,181)"/>
<path d="M0,0 L2,1 L1,17 L4,35 L5,37 L2,37 L0,31 L-1,22 L-2,21 L-2,8 Z " fill="#254E8E" transform="translate(295,353)"/>
<path d="M0,0 L1,0 L2,16 L2,44 L-2,43 L-1,40 Z " fill="#2D5595" transform="translate(365,248)"/>
<path d="M0,0 L4,1 L-7,8 L-20,16 L-21,13 L-16,10 L-15,4 L-13,4 L-13,6 L-5,5 L-5,2 L0,2 Z " fill="#EBF6FC" transform="translate(255,144)"/>
<path d="M0,0 L14,0 L20,3 L20,4 L0,4 L0,6 L-5,7 L-4,3 Z " fill="#07469E" transform="translate(354,50)"/>
<path d="M0,0 L9,1 L11,2 L11,4 L23,5 L25,10 L23,12 L16,8 L8,4 L-3,2 Z " fill="#204E95" transform="translate(352,41)"/>
<path d="M0,0 L7,6 L14,13 L15,17 L8,17 L7,12 L2,7 L3,6 L1,5 Z " fill="#ECF5FB" transform="translate(257,335)"/>
<path d="M0,0 L2,0 L3,16 L8,20 L11,29 L10,31 L3,21 L0,14 Z " fill="#EBFCFE" transform="translate(197,240)"/>
<path d="M0,0 L19,9 L20,11 L15,10 L10,7 L-13,7 L-9,4 L1,3 Z " fill="#B9D4F1" transform="translate(137,187)"/>
<path d="M0,0 L2,4 L2,8 L-2,8 L-2,12 L-7,12 L-12,10 L-9,7 L-1,1 Z " fill="#EEF5F7" transform="translate(398,161)"/>
<path d="M0,0 L1,4 L4,8 L4,13 L-7,20 L-9,20 L-8,16 L-3,16 L-2,9 L-3,7 L-1,7 Z " fill="#F7FBFD" transform="translate(268,124)"/>
<path d="M0,0 L8,4 L17,10 L16,12 L8,10 L8,8 L6,8 L6,10 L3,9 L2,5 L-1,4 Z " fill="#F2F9FA" transform="translate(69,302)"/>
<path d="M0,0 L6,1 L8,3 L1,2 L5,4 L6,9 L-4,10 L-4,7 L-7,6 Z " fill="#FDFDF5" transform="translate(183,293)"/>
<path d="M0,0 L4,2 L5,5 L7,6 L9,17 L9,20 L11,20 L10,29 L8,25 L5,13 L0,2 Z " fill="#E2F3FB" transform="translate(413,67)"/>
<path d="M0,0 L8,0 L7,4 L3,5 L6,8 L6,10 L8,10 L8,12 L3,10 L-6,5 L-6,4 L0,4 Z " fill="#114A93" transform="translate(197,291)"/>
<path d="M0,0 L4,4 L11,15 L9,17 L6,17 L6,15 L4,15 L4,13 L2,13 L1,6 L0,5 Z " fill="#F8FCFB" transform="translate(58,287)"/>
<path d="M0,0 L2,1 L-1,6 L4,7 L3,10 L-1,11 L-1,9 L-3,9 L-3,11 L-7,12 L-9,8 Z " fill="#FCFBFA" transform="translate(312,50)"/>
<path d="M0,0 L1,0 L1,13 L-1,22 L-6,36 L-9,34 L-9,32 L-7,32 L-6,22 L-2,21 L-2,10 Z " fill="#1B468B" transform="translate(428,368)"/>
<path d="M0,0 L1,0 L1,15 L0,16 L0,38 L-2,34 L-3,28 L-3,16 Z " fill="#D6E9F5" transform="translate(63,224)"/>
<path d="M0,0 L7,1 L3,8 L-3,15 L-4,12 L-6,11 L-2,11 L-2,7 L-4,5 L-1,2 Z " fill="#15458F" transform="translate(410,409)"/>
<path d="M0,0 L2,0 L2,2 L-2,3 L-3,7 L-6,7 L-7,9 L-12,8 L-19,8 L-19,10 L-27,9 L-27,8 L-10,5 Z " fill="#124487" transform="translate(206,174)"/>
<path d="M0,0 L1,3 L6,2 L7,18 L3,14 L0,7 Z " fill="#E2F0F9" transform="translate(297,377)"/>
<path d="M0,0 L20,0 L26,4 L25,6 L20,5 L18,3 L1,2 L-3,4 L-8,4 L-6,2 Z " fill="#DCEDF7" transform="translate(282,168)"/>
<path d="M0,0 L10,0 L5,5 L0,9 L-10,13 L-10,11 L-4,8 L-1,8 Z " fill="#1A4590" transform="translate(394,425)"/>
<path d="M0,0 L1,0 L2,20 L1,23 L-1,24 L-2,27 L-4,27 L-3,17 L-1,10 Z " fill="#124590" transform="translate(339,256)"/>
<path d="M0,0 L7,4 L14,8 L19,10 L15,11 L4,9 L4,11 L2,11 L1,8 L3,8 L3,4 L0,4 Z " fill="#F0F9FD" transform="translate(308,429)"/>
<path d="M0,0 L2,2 L0,14 L-3,20 L-4,16 L-8,16 L-8,14 L-2,14 L-4,8 L-4,2 L-3,5 L-1,4 Z " fill="#15478F" transform="translate(420,114)"/>
<path d="M0,0 L7,1 L16,5 L17,3 L18,6 L27,7 L28,9 L15,8 L-1,2 Z " fill="#255195" transform="translate(320,435)"/>
<path d="M0,0 L2,0 L3,9 L1,10 L-1,9 L-2,16 L-4,21 L-6,21 L-5,12 Z " fill="#1F4D92" transform="translate(75,235)"/>
<path d="M0,0 L12,3 L10,8 L5,8 L5,6 L-5,3 L-5,1 L0,2 Z " fill="#1D4E9D" transform="translate(358,31)"/>
<path d="M0,0 L1,4 L-3,8 L-3,12 L-7,13 L-8,15 L-11,16 L-12,18 L-14,17 L-5,4 Z " fill="#E3F1F9" transform="translate(317,321)"/>
<path d="M0,0 L1,0 L2,18 L7,28 L7,31 L3,27 L0,26 L0,30 L-2,30 L-1,23 Z " fill="#2D5897" transform="translate(196,236)"/>
<path d="M0,0 L4,1 L7,7 L10,4 L8,9 L7,12 L3,11 L3,9 L1,9 L1,4 L-2,3 L-1,1 Z " fill="#0E47A0" transform="translate(61,204)"/>
<path d="M0,0 L2,0 L2,3 L1,4 L3,4 L4,1 L8,1 L7,4 L1,8 L-4,8 L-8,4 Z " fill="#FCFDF7" transform="translate(260,176)"/>
<path d="M0,0 L4,1 L0,4 L-2,5 L-1,10 L-1,18 L-3,17 L-6,7 L-7,3 Z " fill="#214A87" transform="translate(333,57)"/>
<path d="M0,0 L13,3 L26,4 L26,6 L7,6 L0,2 Z " fill="#E0EFF7" transform="translate(328,440)"/>
<path d="M0,0 L1,4 L-3,12 L-4,21 L-5,38 L-6,38 L-7,31 L-7,23 L-4,8 Z " fill="#E0F2FC" transform="translate(302,339)"/>
<path d="M0,0 L4,0 L4,2 L6,2 L9,6 L10,10 L12,15 L5,9 L-2,2 Z " fill="#1A4C98" transform="translate(258,332)"/>
<path d="M0,0 L13,5 L19,9 L17,11 L10,11 L10,7 L-1,4 Z " fill="#1C478B" transform="translate(370,292)"/>
<path d="M0,0 L2,0 L2,2 L-2,5 L-3,13 L0,14 L-2,14 L-2,16 L-8,17 L-7,9 L-3,3 Z " fill="#F1F8FA" transform="translate(301,60)"/>
<path d="M0,0 L2,0 L3,4 L4,6 L4,11 L5,12 L5,17 L1,13 L-5,5 L0,5 L-2,1 Z " fill="#F3F9FA" transform="translate(406,47)"/>
<path d="M0,0 L2,1 L0,7 L-2,17 L-4,17 L-4,25 L-5,25 L-6,20 L-6,12 Z " fill="#214E91" transform="translate(53,214)"/>
<path d="M0,0 L5,1 L4,7 L8,8 L3,8 L2,4 L-4,5 L-4,7 L-7,7 L-8,4 Z " fill="#11499A" transform="translate(120,195)"/>
<path d="M0,0 L1,0 L1,8 L-5,13 L-6,11 L-9,12 L-9,7 L-5,5 L-1,4 Z " fill="#FCFBF9" transform="translate(65,188)"/>
<path d="M0,0 L2,0 L-1,9 L-3,19 L-4,19 L-5,13 L-5,2 L-3,1 L-3,3 Z " fill="#E9F6FC" transform="translate(307,359)"/>
<path d="M0,0 L11,0 L21,1 L21,2 L8,2 L1,1 L1,3 L-2,4 L-11,4 L-12,1 Z " fill="#1C4FA2" transform="translate(277,166)"/>
<path d="M0,0 L2,1 L0,4 L-1,8 L-6,8 L-8,14 L-11,17 L-14,16 L-6,5 Z " fill="#E0EFF6" transform="translate(83,199)"/>
<path d="M0,0 L4,2 L4,4 L9,5 L11,9 L17,12 L17,14 L19,14 L18,17 L2,5 Z " fill="#1B4686" transform="translate(298,418)"/>
<path d="M0,0 L2,2 L-3,6 L-17,13 L-16,9 L-11,7 L-6,2 Z " fill="#1D4886" transform="translate(171,300)"/>
<path d="M0,0 L5,3 L12,10 L9,10 L3,7 L-12,6 L-12,5 L-1,4 Z " fill="#D9E8F4" transform="translate(384,318)"/>
<path d="M0,0 L3,1 L2,4 L8,3 L9,1 L11,5 L11,9 L13,9 L12,12 L0,4 L-2,1 Z " fill="#19499B" transform="translate(69,298)"/>
<path d="M0,0 L3,4 L-2,21 L-3,21 L-3,11 L-1,3 Z " fill="#13438E" transform="translate(307,363)"/>
<path d="M0,0 L16,0 L16,1 L2,2 L-5,4 L-5,6 L-13,6 L-11,3 Z " fill="#164388" transform="translate(350,51)"/>
<path d="M0,0 L8,4 L12,8 L3,8 L0,6 Z M-1,7 Z " fill="#F4FCFD" transform="translate(232,318)"/>
<path d="M0,0 L6,0 L4,2 L-13,5 L-22,5 L-22,4 L-16,4 L-16,2 Z " fill="#CFE3F2" transform="translate(192,178)"/>
<path d="M0,0 L7,2 L4,5 L-3,6 L-9,4 L-7,1 Z " fill="#EEF6F9" transform="translate(145,169)"/>
<path d="M0,0 L5,1 L19,6 L18,9 L16,9 L16,7 L5,6 L5,4 L0,2 Z " fill="#1B478C" transform="translate(255,303)"/>
<path d="M0,0 L2,1 L2,26 L1,26 L0,13 L-2,7 L-2,4 Z " fill="#164390" transform="translate(194,227)"/>
<path d="M0,0 L1,0 L1,17 L0,26 L-2,26 L-3,28 L-4,25 L-1,11 Z " fill="#E2EFFA" transform="translate(423,103)"/>
<path d="M0,0 L10,0 L6,2 L-5,5 L-6,9 L-11,9 L-9,8 L-9,6 L-11,5 Z " fill="#E7F2FA" transform="translate(325,44)"/>
<path d="M0,0 L5,1 L6,3 L-3,4 L-12,7 L-16,6 L-5,1 Z " fill="#2A5193" transform="translate(365,325)"/>
<path d="M0,0 L12,0 L16,2 L18,3 L18,5 L23,6 L23,9 L15,5 L10,3 L0,2 Z " fill="#103F90" transform="translate(288,165)"/>
<path d="M0,0 L7,0 L7,2 L-3,4 L-12,4 L-17,3 L-17,2 Z " fill="#215299" transform="translate(344,30)"/>
<path d="M0,0 L11,4 L15,8 L8,10 L4,10 L4,8 L7,6 L6,3 L1,3 Z " fill="#EBF6FD" transform="translate(369,311)"/>
<path d="M0,0 L12,2 L16,5 L16,7 L18,7 L18,9 L13,7 L3,3 L-3,2 Z " fill="#214E90" transform="translate(365,308)"/>
<path d="M0,0 L2,1 L-2,5 L-4,5 L-5,9 L-12,11 L-16,10 Z " fill="#E3F3FA" transform="translate(237,188)"/>
<path d="M0,0 L2,0 L2,2 L0,2 L0,5 L-5,9 L-5,14 L-10,16 L-12,14 L-5,6 Z " fill="#235198" transform="translate(291,53)"/>
<path d="M0,0 L2,0 L3,3 L5,4 L4,8 L-4,19 L-6,16 L-5,14 L-3,12 L0,11 Z " fill="#184890" transform="translate(295,55)"/>
<path d="M0,0 L4,3 L6,6 L11,14 L10,16 L5,9 L5,7 L-2,9 L-3,6 L-1,6 Z " fill="#3263AE" transform="translate(300,391)"/>
<path d="M0,0 L2,2 L6,13 L6,19 L4,19 L1,11 Z " fill="#DAECF7" transform="translate(329,188)"/>
<path d="M0,0 L5,0 L1,4 L-10,10 L-12,9 L-11,4 L-8,4 L-4,3 L-1,1 Z " fill="#DFEEF8" transform="translate(228,160)"/>
<path d="M0,0 L2,4 L5,4 L4,8 L1,18 L0,18 L-1,11 L0,6 L-2,6 L-2,4 L0,4 Z " fill="#184894" transform="translate(296,336)"/>
<path d="M0,0 L9,6 L16,11 L15,14 L13,14 L13,11 L4,9 L1,3 Z " fill="#1A488B" transform="translate(390,302)"/>
<path d="M0,0 L8,0 L3,4 L-1,6 L-10,5 L-9,3 L0,1 Z " fill="#1D4C8C" transform="translate(145,313)"/>
<path d="M0,0 L3,1 L-2,9 L-7,13 L-12,15 L-13,13 L-8,12 L-8,10 L-3,5 L-1,5 Z " fill="#D9ECFA" transform="translate(328,288)"/>
<path d="M0,0 L1,4 L1,6 L3,7 L3,12 L-5,12 L-1,2 Z " fill="#1D4D92" transform="translate(59,201)"/>
<path d="M0,0 L2,0 L2,2 L5,4 L-4,6 L-4,10 L-9,11 L-5,4 Z " fill="#E2F0F7" transform="translate(384,171)"/>
<path d="M0,0 L12,3 L16,7 L16,9 L13,10 L3,3 Z " fill="#D9EAF7" transform="translate(383,38)"/>
<path d="M0,0 L2,0 L2,2 L6,4 L6,9 L9,10 L10,15 L8,19 L4,8 Z " fill="#16448A" transform="translate(270,347)"/>
<path d="M0,0 L1,0 L5,25 L6,28 L4,29 L2,26 L0,13 Z " fill="#355D92" transform="translate(281,99)"/>
<path d="M0,0 L5,3 L15,13 L16,17 L13,17 L10,11 L4,6 L1,4 L1,2 L-1,1 Z " fill="#194486" transform="translate(392,45)"/>
<path d="M0,0 L10,0 L13,3 L-10,3 L-10,1 Z " fill="#DDEFFB" transform="translate(346,28)"/>
<path d="M0,0 L1,0 L1,16 L-2,27 L-3,27 L-3,15 L-1,13 Z " fill="#C5D8EF" transform="translate(338,250)"/>
<path d="M0,0 L9,2 L20,3 L20,5 L0,4 L-1,2 Z " fill="#15428A" transform="translate(275,310)"/>
<path d="M0,0 L2,1 L1,3 L1,23 L0,23 L-3,2 Z " fill="#D5ECFA" transform="translate(196,213)"/>
<path d="M0,0 L2,1 L-3,4 L-4,6 L0,5 L0,12 L-1,17 L-2,17 L-5,7 L-6,3 Z " fill="#1B4489" transform="translate(110,200)"/>
<path d="M0,0 L2,2 L0,2 L0,6 L-6,8 L-10,5 Z " fill="#E7F3F9" transform="translate(251,181)"/>
<path d="M0,0 L5,2 L6,5 L6,12 L5,12 L5,7 L1,10 L1,8 L-1,8 Z " fill="#1F4E9E" transform="translate(342,335)"/>
<path d="M0,0 L3,0 L2,3 L-6,7 L-8,7 L-8,9 L-13,9 L-9,5 Z " fill="#DCEDF7" transform="translate(331,312)"/>
<path d="M0,0 L6,2 L10,6 L10,9 L14,10 L14,12 L9,10 L0,1 Z " fill="#DDEFFB" transform="translate(209,271)"/>
<path d="M0,0 L2,2 L-2,4 L-18,4 L-21,5 L-21,1 L-2,1 Z " fill="#CBE0F5" transform="translate(98,227)"/>
<path d="M0,0 L2,3 L4,9 L4,17 L3,24 L2,24 L0,5 Z " fill="#DDEEF9" transform="translate(428,351)"/>
<path d="M0,0 L2,0 L2,4 L-2,8 L-6,6 L-9,5 Z " fill="#E7F1F7" transform="translate(155,312)"/>
<path d="M0,0 L2,0 L2,5 L4,5 L3,8 L-5,8 L-1,1 Z " fill="#EEF6FA" transform="translate(69,216)"/>
<path d="M0,0 L12,1 L12,2 L0,3 L-10,7 L-10,5 L-7,5 L-6,1 Z " fill="#D7EAF9" transform="translate(102,170)"/>
<path d="M0,0 L3,4 L7,13 L7,19 L5,18 L3,11 L0,4 Z " fill="#1F4987" transform="translate(420,333)"/>
<path d="M0,0 L0,3 L-2,6 L0,7 L-4,11 L-7,11 L-8,13 L-8,8 Z " fill="#11438C" transform="translate(68,193)"/>
<path d="M0,0 L7,1 L14,3 L12,4 L12,6 L6,6 L8,4 L1,4 Z " fill="#1C4990" transform="translate(132,172)"/>
<path d="M0,0 L2,0 L6,4 L7,10 L9,10 L9,12 L6,13 L3,9 L3,4 L1,4 Z " fill="#164594" transform="translate(291,406)"/>
<path d="M0,0 L6,0 L6,4 L1,5 L0,8 L-3,5 Z " fill="#0B48A1" transform="translate(84,189)"/>
<path d="M0,0 L3,1 L3,3 L7,3 L8,1 L6,14 L4,10 Z " fill="#E4F0FA" transform="translate(422,336)"/>
<path d="M0,0 L18,0 L22,3 L22,5 L17,5 L16,2 L0,1 Z " fill="#295294" transform="translate(369,324)"/>
<path d="M0,0 L9,3 L15,6 L15,9 L9,7 L0,1 Z " fill="#DBEEF9" transform="translate(232,289)"/>
<path d="M0,0 L4,1 L-12,8 L-10,4 L-8,4 L-8,2 Z " fill="#E4F3FC" transform="translate(211,170)"/>
<path d="M0,0 L1,0 L1,5 L-1,12 L-7,14 L-5,9 Z " fill="#DDEDF7" transform="translate(415,138)"/>
<path d="M0,0 L6,1 L13,0 L13,2 L0,5 L-8,8 L-8,6 L-1,3 Z " fill="#224F8F" transform="translate(323,41)"/>
<path d="M0,0 L1,0 L4,15 L6,19 L2,19 L0,11 Z " fill="#264D92" transform="translate(60,252)"/>
<path d="M0,0 L2,1 L3,9 L3,21 L2,21 L0,11 Z " fill="#31579E" transform="translate(427,355)"/>
<path d="M0,0 L4,2 L13,8 L10,8 L6,7 L6,5 L3,5 L3,7 L1,7 Z " fill="#EFF7FC" transform="translate(244,326)"/>
<path d="M0,0 L6,2 L5,5 L8,6 L8,8 L11,9 L9,11 L2,4 L-2,1 Z " fill="#1D498E" transform="translate(385,316)"/>
<path d="M0,0 L7,1 L15,3 L16,5 L11,6 L0,1 Z " fill="#E3EFF9" transform="translate(247,298)"/>
<path d="M0,0 L3,1 L3,3 L-1,2 L-1,4 L-4,6 L-7,6 L-7,8 L-13,9 L-9,5 Z " fill="#1B488C" transform="translate(271,137)"/>
<path d="M0,0 L5,1 L6,3 L12,4 L12,5 L-3,4 L-3,1 Z " fill="#D8E7F6" transform="translate(318,347)"/>
<path d="M0,0 L5,2 L21,6 L21,7 L11,6 L3,5 L0,2 Z " fill="#CEE5F5" transform="translate(86,313)"/>
<path d="M0,0 L4,2 L8,5 L8,7 L6,7 L6,10 L2,10 L3,5 L0,2 Z " fill="#12448F" transform="translate(214,278)"/>
<path d="M0,0 L3,1 L-4,16 L-5,13 L-3,6 Z " fill="#E2F1FB" transform="translate(56,202)"/>
<path d="M0,0 L10,0 L10,1 L3,1 L3,5 L-7,4 L-4,2 Z " fill="#1A488F" transform="translate(100,173)"/>
<path d="M0,0 L1,0 L2,6 L2,14 L0,18 L-1,4 Z " fill="#2D5599" transform="translate(279,362)"/>
<path d="M0,0 L9,2 L9,3 L3,3 L2,4 L5,5 L-3,4 L-5,2 Z " fill="#1A4D9B" transform="translate(91,177)"/>
<path d="M0,0 L14,0 L15,2 L7,3 L0,1 Z " fill="#154388" transform="translate(347,442)"/>
<path d="M0,0 L16,0 L13,2 L8,3 L0,3 Z " fill="#E2F1FA" transform="translate(113,321)"/>
<path d="M0,0 L4,1 L-6,8 L-11,8 L-7,6 L-6,3 Z " fill="#E1F4FB" transform="translate(310,304)"/>
<path d="M0,0 L4,4 L9,12 L5,11 L0,5 Z " fill="#D9ECF8" transform="translate(58,287)"/>
<path d="M0,0 L2,4 L3,8 L-3,8 L-4,5 L-1,1 Z " fill="#2B60AB" transform="translate(69,272)"/>
<path d="M0,0 L4,4 L2,5 L3,14 L0,11 L-1,2 Z " fill="#16488D" transform="translate(52,268)"/>
<path d="M0,0 L2,1 L2,9 L-2,12 L-2,1 Z " fill="#1E539F" transform="translate(70,257)"/>
<path d="M0,0 L8,0 L4,3 L0,4 L1,8 L-1,8 L-2,2 Z " fill="#DCEAF5" transform="translate(104,199)"/>
<path d="M0,0 L1,4 L-2,15 L-4,15 L-5,18 L-4,11 Z " fill="#CEE1F2" transform="translate(374,182)"/>
<path d="M0,0 L4,2 L5,3 L5,13 L3,16 L3,4 L1,4 Z " fill="#E8F8FE" transform="translate(324,64)"/>
<path d="M0,0 L8,0 L5,5 L2,7 Z " fill="#E8F5FA" transform="translate(281,55)"/>
<path d="M0,0 L5,0 L8,9 L7,11 L0,1 Z " fill="#DFEEF7" transform="translate(200,260)"/>
<path d="M0,0 L4,1 L6,3 L6,6 L-3,6 L-3,4 L1,3 L-1,1 Z " fill="#094390" transform="translate(154,179)"/>
<path d="M0,0 L9,0 L6,2 L-2,6 L-4,6 L-4,3 L0,3 Z " fill="#20498B" transform="translate(260,172)"/>
<path d="M0,0 L7,4 L10,7 L5,8 L3,4 L0,4 Z " fill="#E2F2FA" transform="translate(308,429)"/>
<path d="M0,0 L1,4 L3,5 L1,5 L1,10 L-6,6 L-3,4 L0,4 Z " fill="#1F4F99" transform="translate(253,322)"/>
<path d="M0,0 L2,0 L2,3 L-14,3 L-10,1 Z " fill="#DCECF7" transform="translate(144,318)"/>
<path d="M0,0 L4,0 L5,3 L9,7 L10,12 L5,7 Z " fill="#D9ECF9" transform="translate(406,313)"/>
<path d="M0,0 L7,0 L7,1 L16,2 L16,3 L-1,3 Z " fill="#2B5A9B" transform="translate(342,306)"/>
<path d="M0,0 L6,1 L8,3 L1,2 L-1,6 L-7,7 L-2,2 Z " fill="#D6EBF8" transform="translate(183,293)"/>
<path d="M0,0 L3,3 L5,11 L4,16 L2,13 Z " fill="#DBE8F5" transform="translate(273,354)"/>
<path d="M0,0 L1,0 L1,17 L-1,17 L-2,12 L-2,3 L0,3 Z " fill="#164DA2" transform="translate(427,350)"/>
<path d="M0,0 L4,0 L4,3 L7,4 L8,8 L5,10 L3,3 L1,3 Z " fill="#E1EFF9" transform="translate(416,325)"/>
<path d="M0,0 L7,1 L3,3 L-3,5 L-7,4 Z " fill="#E6F2FA" transform="translate(164,307)"/>
<path d="M0,0 L6,0 L6,2 L8,2 L8,4 L11,5 L10,7 L1,2 Z " fill="#1E4990" transform="translate(207,303)"/>
<path d="M0,0 L8,1 L5,3 L9,5 L8,6 L2,6 Z " fill="#18509C" transform="translate(158,180)"/>
<path d="M0,0 L9,0 L5,3 L0,4 L-3,2 Z " fill="#E9F6F9" transform="translate(79,178)"/>
<path d="M0,0 L4,1 L-8,8 L-9,5 Z " fill="#DBECF8" transform="translate(243,152)"/>
<path d="M0,0 L2,0 L2,3 L-3,4 L-3,6 L-9,7 L-5,3 Z " fill="#224C88" transform="translate(256,146)"/>
<path d="M0,0 L2,1 L3,6 L3,14 L1,13 L0,9 Z " fill="#0E4489" transform="translate(329,61)"/>
<path d="M0,0 L8,0 L4,3 L1,3 L3,9 L-1,7 L-2,2 L0,2 Z " fill="#D5E7F5" transform="translate(325,57)"/>
<path d="M0,0 L3,1 L-5,8 L-6,5 L-5,1 Z " fill="#264E8E" transform="translate(401,425)"/>
<path d="M0,0 L1,0 L1,13 L0,19 L-1,19 L-2,10 Z " fill="#104387" transform="translate(428,368)"/>
<path d="M0,0 L6,1 L13,4 L14,8 L0,1 Z " fill="#244D8C" transform="translate(222,312)"/>
<path d="M0,0 L2,3 L5,16 L2,15 L1,13 Z " fill="#D4E3F3" transform="translate(47,261)"/>
<path d="M0,0 L8,0 L6,2 L1,2 L-1,6 L-2,4 L-4,3 Z " fill="#24518D" transform="translate(80,230)"/>
<path d="M0,0 L3,0 L3,2 L-8,8 L-8,5 L-5,5 L-5,2 L0,2 Z " fill="#204C91" transform="translate(210,202)"/>
<path d="M0,0 L20,1 L20,2 L7,3 L0,1 Z " fill="#104189" transform="translate(162,182)"/>
<path d="M0,0 L6,1 L6,6 L1,6 Z " fill="#1B4CA2" transform="translate(269,90)"/>
<path d="M0,0 L14,0 L20,3 L20,4 L14,4 L14,2 L0,1 Z " fill="#436AA6" transform="translate(354,50)"/>
<path d="M0,0 L4,2 L0,5 L-8,5 L-4,2 Z " fill="#1B4B8C" transform="translate(322,33)"/>
<path d="M0,0 L7,3 L7,4 L-3,4 L-5,1 Z " fill="#E6F2F3" transform="translate(225,314)"/>
<path d="M0,0 L1,2 L-1,2 L-2,6 L-3,7 L-11,7 L-7,5 Z " fill="#285292" transform="translate(311,306)"/>
<path d="M0,0 L3,0 L3,8 L2,11 L-1,10 Z " fill="#275098" transform="translate(107,212)"/>
<path d="M0,0 L2,1 L0,5 L-5,7 L-9,6 Z " fill="#DCF0F8" transform="translate(219,199)"/>
<path d="M0,0 L1,4 L-4,15 L-5,11 L-1,2 Z " fill="#D2E3F5" transform="translate(302,339)"/>
<path d="M0,0 L13,1 L14,4 L7,3 L0,1 Z " fill="#CEE5F6" transform="translate(267,307)"/>
<path d="M0,0 L7,4 L5,6 L-2,6 L-3,3 L0,3 Z " fill="#1E4E9A" transform="translate(382,297)"/>
<path d="M0,0 L3,1 L7,8 L9,10 L7,12 L0,2 Z " fill="#1B468A" transform="translate(56,282)"/>
<path d="M0,0 L5,5 L6,8 L-1,9 Z " fill="#E2ECF8" transform="translate(52,279)"/>
<path d="M0,0 L2,0 L2,3 L4,4 L0,5 L-1,7 L-3,6 L-5,3 Z " fill="#E6F3F6" transform="translate(203,209)"/>
<path d="M0,0 L2,0 L2,12 L0,11 L-1,4 Z " fill="#224F95" transform="translate(336,200)"/>
<path d="M0,0 L4,1 L-4,5 L-6,5 L-6,8 L-9,7 L-4,2 Z " fill="#1F4889" transform="translate(84,180)"/>
<path d="M0,0 L2,0 L2,3 L-5,6 L-8,4 Z " fill="#DBEDF7" transform="translate(260,176)"/>
<path d="M0,0 L4,1 L-6,7 L-8,7 L-7,3 L-2,3 L-2,1 Z " fill="#DCECF9" transform="translate(267,137)"/>
<path d="M0,0 L3,0 L2,5 L-2,9 L-1,1 Z " fill="#144287" transform="translate(412,137)"/>
<path d="M0,0 L2,1 L0,4 L-3,4 L-3,8 L-9,9 L-4,3 Z " fill="#DCEDF8" transform="translate(312,50)"/>
<path d="M0,0 L10,0 L7,2 L3,4 L-1,4 Z " fill="#E0EEF7" transform="translate(332,53)"/>
<path d="M0,0 L0,3 L-5,6 L-7,9 L-10,7 L-4,2 Z " fill="#224B8C" transform="translate(303,43)"/>
<path d="M0,0 L4,1 L-6,7 L-6,3 Z " fill="#DFF1FA" transform="translate(300,42)"/>
<path d="M0,0 L1,2 L-5,9 L-9,8 Z " fill="#DCEFF8" transform="translate(405,424)"/>
<path d="M0,0 L8,4 L11,7 L5,7 L0,2 Z " fill="#DEF2FB" transform="translate(69,302)"/>
<path d="M0,0 L2,0 L0,6 L-2,11 L-4,11 L-4,6 L-2,6 L-1,2 Z " fill="#EBF9FD" transform="translate(49,218)"/>
<path d="M0,0 L7,3 L7,7 L4,8 L3,3 L0,2 Z " fill="#EAF7FE" transform="translate(309,173)"/>
<path d="M0,0 L10,2 L12,4 L6,5 L4,4 L4,2 L0,2 Z " fill="#164286" transform="translate(369,35)"/>
<path d="M0,0 L4,1 L-7,6 L-6,2 Z " fill="#E1F3FC" transform="translate(316,34)"/>
<path d="M0,0 L6,0 L2,2 L3,6 L-4,5 L-1,3 Z " fill="#E5EFF7" transform="translate(380,32)"/>
<path d="M0,0 L1,0 L1,12 L-3,14 Z " fill="#BED7EC" transform="translate(428,381)"/>
<path d="M0,0 L1,4 L-2,7 L-4,7 L-6,8 L-8,6 L-3,3 Z " fill="#285392" transform="translate(340,344)"/>
<path d="M0,0 L6,0 L10,4 L6,5 L0,1 Z " fill="#E1EFFA" transform="translate(387,300)"/>
<path d="M0,0 L4,0 L3,3 L2,2 L1,7 L-3,7 L-1,1 Z " fill="#1A4B8F" transform="translate(333,284)"/>
<path d="M0,0 L5,1 L5,4 L-5,3 L-3,1 Z " fill="#285493" transform="translate(120,195)"/>
<path d="M0,0 L6,0 L8,2 L-1,4 L-3,2 L0,2 Z " fill="#1E4C90" transform="translate(101,185)"/>
<path d="M0,0 L4,1 L-2,2 L-2,4 L-10,3 L-10,2 Z " fill="#285290" transform="translate(189,180)"/>
<path d="M0,0 L4,1 L4,3 L0,4 L-7,4 L-3,1 Z " fill="#DCEAF7" transform="translate(269,172)"/>
<path d="M0,0 L3,1 L-3,11 L-4,11 L-4,5 L-1,2 Z " fill="#E6F3FD" transform="translate(278,64)"/>
<path d="M0,0 L1,0 L1,5 L-1,5 L-1,3 L-3,3 L-4,7 L-6,6 L-5,1 Z " fill="#164DA1" transform="translate(383,49)"/>
<path d="M0,0 L9,0 L8,3 L2,3 Z " fill="#FDFEF6" transform="translate(321,346)"/>
<path d="M0,0 L4,1 L5,3 L-1,7 L-2,3 L1,3 Z " fill="#224D98" transform="translate(174,295)"/>
<path d="M0,0 L7,6 L10,10 L7,10 L2,5 Z " fill="#254E8A" transform="translate(204,267)"/>
<path d="M0,0 L3,1 L3,3 L8,3 L4,5 L-2,3 L-3,1 Z " fill="#0C4495" transform="translate(325,38)"/>
<path d="M0,0 L14,0 L14,1 L0,3 Z " fill="#D5E4F4" transform="translate(320,31)"/>
<path d="M0,0 L3,2 L-1,6 L-2,8 L-4,8 L-4,3 L0,2 Z " fill="#EEF5FD" transform="translate(312,350)"/>
<path d="M0,0 L4,1 L9,7 L8,9 L0,1 Z " fill="#244D8F" transform="translate(261,338)"/>
<path d="M0,0 L4,1 L3,8 L1,8 Z " fill="#E9F6F9" transform="translate(338,336)"/>
<path d="M0,0 L3,1 L7,5 L11,8 L6,7 L-1,2 Z " fill="#1A4587" transform="translate(83,308)"/>
<path d="M0,0 L6,0 L8,4 L6,5 L0,1 Z " fill="#DAECF8" transform="translate(399,308)"/>
<path d="M0,0 L3,1 L2,4 L8,6 L6,8 L-2,2 Z " fill="#2C5598" transform="translate(69,298)"/>
<path d="M0,0 L7,1 L2,5 L-1,7 L-1,4 L1,4 L1,2 L-1,1 Z " fill="#16478B" transform="translate(180,290)"/>
<path d="M0,0 L10,6 L7,8 L4,5 L0,3 Z " fill="#254C8D" transform="translate(222,283)"/>
<path d="M0,0 L4,0 L4,2 L9,3 L9,6 L4,4 Z " fill="#DAEDF8" transform="translate(223,283)"/>
<path d="M0,0 L2,2 L3,8 L1,9 L1,7 L-1,7 Z " fill="#E8F8FD" transform="translate(44,253)"/>
<path d="M0,0 L1,2 L5,3 L1,9 L0,5 Z " fill="#1C4D92" transform="translate(406,144)"/>
<path d="M0,0 L5,1 L6,5 L3,6 L0,4 Z " fill="#E7F3FA" transform="translate(393,42)"/>
<path d="M0,0 L4,0 L4,5 L6,5 L6,7 L3,6 L2,3 L0,2 L-1,5 Z " fill="#134186" transform="translate(344,334)"/>
<path d="M0,0 L3,1 L1,5 L-2,6 L-2,1 Z " fill="#0A44A8" transform="translate(400,324)"/>
<path d="M0,0 L7,6 L8,8 L2,6 L0,3 Z " fill="#C7E3FA" transform="translate(388,321)"/>
<path d="M0,0 L5,5 L8,9 L6,10 L0,3 Z " fill="#254D8A" transform="translate(406,314)"/>
<path d="M0,0 L1,2 L-1,5 L-5,7 L-9,6 Z " fill="#D2E7F3" transform="translate(175,300)"/>
<path d="M0,0 L3,0 L2,6 L-2,4 L-3,2 Z " fill="#1A4B91" transform="translate(67,293)"/>
<path d="M0,0 L4,0 L4,2 L9,3 L9,6 L1,2 Z " fill="#234C83" transform="translate(302,168)"/>
<path d="M0,0 L1,4 L5,6 L-1,8 L-1,1 Z " fill="#0D4488" transform="translate(293,105)"/>
<path d="M0,0 L2,0 L2,2 L0,2 L0,5 L-5,9 L-7,8 Z " fill="#1F4888" transform="translate(291,53)"/>
<path d="M0,0 L3,1 L-4,5 L-7,5 L-7,2 Z " fill="#E4F2FB" transform="translate(348,330)"/>
<path d="M0,0 L4,1 L6,0 L7,4 L-1,3 Z " fill="#1A4F99" transform="translate(391,327)"/>
<path d="M0,0 L7,1 L5,4 L0,3 Z " fill="#0847A5" transform="translate(391,330)"/>
<path d="M0,0 L2,1 L6,3 L6,5 L1,6 L0,5 Z " fill="#0F4590" transform="translate(254,327)"/>
<path d="M0,0 L10,5 L10,6 L5,6 L5,4 L1,3 Z " fill="#D9ECFA" transform="translate(214,308)"/>
<path d="M0,0 L7,1 L7,4 L-3,2 Z " fill="#2A5494" transform="translate(365,308)"/>
<path d="M0,0 L4,0 L4,2 L0,4 L-1,6 L-4,5 Z " fill="#F0FCFC" transform="translate(316,298)"/>
<path d="M0,0 L3,0 L3,8 L1,8 Z " fill="#054394" transform="translate(362,232)"/>
<path d="M0,0 L2,0 L2,9 L0,8 L-1,2 Z " fill="#0D428A" transform="translate(365,203)"/>
<path d="M0,0 L5,0 L5,2 L8,3 L3,4 L-1,1 Z " fill="#225397" transform="translate(142,188)"/>
<path d="M0,0 L3,4 L1,8 L-2,7 Z " fill="#295596" transform="translate(307,363)"/>
<path d="M0,0 L8,5 L4,6 L0,2 Z " fill="#D9E7F6" transform="translate(236,320)"/>
<path d="M0,0 L5,1 L8,3 L7,6 L0,1 Z " fill="#23488A" transform="translate(237,320)"/>
<path d="M0,0 L2,2 L-2,5 L-6,4 L-6,2 Z " fill="#13478D" transform="translate(171,300)"/>
<path d="M0,0 L5,0 L0,6 L-1,2 Z " fill="#CEE1F1" transform="translate(61,195)"/>
<path d="M0,0 L2,0 L2,2 L-3,5 L-8,5 L-4,2 Z " fill="#2F558F" transform="translate(206,174)"/>
<path d="M0,0 L3,2 L2,8 L0,9 Z " fill="#084AA1" transform="translate(293,115)"/>
<path d="M0,0 L3,0 L1,4 L-4,7 L-3,3 Z " fill="#D8ECFB" transform="translate(324,80)"/>
<path d="M0,0 L5,0 L6,2 L5,4 L7,5 L4,5 Z " fill="#DCEDF8" transform="translate(401,52)"/>
<path d="M0,0 L9,1 L12,4 L6,3 L0,1 Z " fill="#D7EBF6" transform="translate(364,32)"/>
<path d="M0,0 L7,1 L7,3 L9,3 L9,5 L4,3 Z " fill="#2A4D8E" transform="translate(196,298)"/>
<path d="M0,0 L7,1 L10,2 L10,4 L2,2 Z " fill="#31568E" transform="translate(312,174)"/>
<path d="M0,0 L2,2 L4,9 L2,10 L0,7 Z " fill="#254C88" transform="translate(283,118)"/>
<path d="M0,0 L2,0 L2,2 L4,2 L2,6 L0,7 Z " fill="#E7F2FA" transform="translate(289,48)"/>
<path d="M0,0 L2,0 L1,3 L-5,4 L-4,1 Z " fill="#EEFBFF" transform="translate(307,38)"/>
<path d="M0,0 L3,1 L-2,6 L-2,3 L-4,2 L0,2 Z " fill="#28508D" transform="translate(408,418)"/>
<path d="M0,0 L7,4 L8,6 L1,4 Z " fill="#E1F3FC" transform="translate(249,329)"/>
<path d="M0,0 L8,0 L8,3 L1,2 Z " fill="#1F4988" transform="translate(97,316)"/>
<path d="M0,0 L7,1 L9,3 L9,5 L5,3 L0,1 Z " fill="#D8EDF8" transform="translate(378,295)"/>
<path d="M0,0 L4,4 L5,7 L2,8 L0,2 Z " fill="#2E67B0" transform="translate(72,280)"/>
<path d="M0,0 L10,1 L10,2 L0,4 Z " fill="#DFF0FB" transform="translate(77,228)"/>
<path d="M0,0 L5,1 L2,6 L0,4 Z " fill="#194686" transform="translate(63,216)"/>
<path d="M0,0 L3,3 L3,5 L-2,8 Z " fill="#DAE9F7" transform="translate(418,130)"/>
<path d="M0,0 L4,2 L9,5 L7,6 L-1,2 Z " fill="#AED5F8" transform="translate(369,49)"/>
<path d="M0,0 L2,1 L1,4 L-4,3 L-5,1 Z " fill="#2047A8" transform="translate(368,34)"/>
</svg>
