<?xml version="1.0" encoding="UTF-8"?>
<!-- Generator: visioncortex VTracer 0.6.5 -->
<svg version="1.1" xmlns="http://www.w3.org/2000/svg" width="200" height="200">
<path d="M0,0 L140,0 L151,3 L159,8 L159,10 L161,10 L165,15 L169,25 L170,33 L170,167 L167,181 L165,185 L163,185 L161,189 L155,195 L145,199 L137,200 L3,200 L-11,197 L-17,193 L-20,191 L-20,189 L-22,189 L-28,179 L-30,170 L-30,30 L-27,19 L-21,10 L-13,4 L-5,1 Z " fill="#D94444" transform="translate(30,0)"/>
<path d="M0,0 L32,0 L32,99 L27,105 L23,107 L1,107 L-5,103 L-8,97 L-8,9 L-4,3 Z " fill="#FEFEFE" transform="translate(60,49)"/>
<path d="M0,0 L8,0 L15,3 L21,7 L26,15 L27,19 L27,29 L24,37 L17,44 L11,47 L-4,47 L-13,42 L-19,33 L-20,31 L-20,17 L-14,7 L-5,1 Z " fill="#FEFCFC" transform="translate(132,49)"/>
<path d="M0,0 L1,0 L4,36 L7,45 L10,50 L17,56 L31,60 L74,61 L147,61 L167,60 L177,58 L186,53 L191,48 L195,48 L195,50 L193,50 L191,54 L185,60 L175,64 L167,65 L33,65 L19,62 L13,58 L10,56 L10,54 L8,54 L2,44 L0,35 Z " fill="#BB3636" transform="translate(0,135)"/>
<path d="M0,0 L4,0 L4,99 L-1,105 L-5,107 L-27,107 L-33,103 L-36,97 L-36,9 L-35,9 L-34,96 L-27,98 L-7,98 L-4,95 L-3,92 L-2,80 L-1,80 Z " fill="#FBE7E7" transform="translate(88,49)"/>
<path d="M0,0 L4,0 L4,2 L2,2 L0,6 L-6,12 L-16,16 L-24,17 L-158,17 L-165,16 L-165,15 L-90,15 L-56,14 L-52,13 L-24,12 L-14,10 L-5,5 Z " fill="#BE3434" transform="translate(191,183)"/>
<path d="M0,0 L5,5 L8,13 L8,23 L5,31 L-2,38 L-8,41 L-23,41 L-32,36 L-38,27 L-39,25 L-39,11 L-38,11 L-36,21 L-35,23 L-35,29 L-30,31 L-30,34 L-22,36 L-10,36 L-1,30 L3,20 L3,6 L0,2 Z " fill="#FAE2E2" transform="translate(151,55)"/>
<path d="M0,0 L1,0 L1,99 L-4,105 L-8,107 L-30,107 L-36,103 L-37,100 L-26,103 L-10,103 L-5,100 L-2,93 L-1,89 Z " fill="#F9DADA" transform="translate(91,49)"/>
<path d="M0,0 L1,0 L2,8 L2,142 L-1,156 L-3,157 L-1,137 L0,113 Z " fill="#C03A3A" transform="translate(198,25)"/>
<path d="M0,0 L15,3 L55,4 L120,4 L117,6 L35,6 L9,5 L0,2 Z " fill="#C93939" transform="translate(18,192)"/>
<path d="M0,0 L1,0 L1,99 L-2,104 L-6,108 L-10,109 L-30,109 L-33,108 L-32,106 L-10,106 L-4,102 L-1,96 Z " fill="#AE3737" transform="translate(93,49)"/>
<path d="M0,0 L7,0 L3,2 L-7,4 L-141,4 L-148,3 L-148,2 L-11,2 L-2,1 Z " fill="#A62F2F" transform="translate(174,196)"/>
<path d="M0,0 L5,3 L9,9 L9,23 L6,29 L5,33 L-3,39 L-5,40 L-17,40 L-17,39 L-5,38 L-5,36 L2,31 L5,25 L6,20 L6,11 L3,5 L3,3 L0,2 Z " fill="#FCF1F1" transform="translate(146,52)"/>
<path d="M0,0 L1,0 L1,10 L-2,18 L-9,25 L-15,28 L-30,28 L-36,25 L-32,24 L-32,26 L-14,24 L-6,17 L-4,14 L-2,14 Z " fill="#F8D6D6" transform="translate(158,68)"/>
<path d="M0,0 L1,0 L4,36 L5,44 L1,40 L0,35 Z " fill="#BE3A3A" transform="translate(0,135)"/>
<path d="M0,0 L4,2 L8,9 L16,16 L18,19 L22,21 L20,22 L12,18 L8,15 L8,13 L6,13 L0,3 Z " fill="#9F2F2F" transform="translate(2,176)"/>
<path d="M0,0 L2,0 L0,6 L-6,13 L-13,17 L-17,18 L-25,18 L-28,16 L-15,14 L-7,9 L-2,3 Z " fill="#C14444" transform="translate(158,81)"/>
<path d="M0,0 L2,1 L0,7 L-5,12 L-9,13 L-29,13 L-32,12 L-31,10 L-9,10 L-3,6 Z " fill="#B53F3F" transform="translate(92,145)"/>
<path d="M0,0 L1,3 L-4,9 L-7,10 L-23,10 L-27,8 L-9,8 L-9,6 L-4,4 L-3,2 L0,2 Z " fill="#FBE8E8" transform="translate(88,143)"/>
<path d="M0,0 L1,0 L1,17 L-2,31 L-4,32 L-2,12 L0,12 Z " fill="#9F2C2C" transform="translate(199,150)"/>
<path d="M0,0 L4,0 L4,2 L2,2 L0,6 L-6,12 L-10,13 L-11,11 L-7,11 L-5,5 Z " fill="#9C2B2B" transform="translate(191,183)"/>
<path d="M0,0 L1,0 L3,10 L4,12 L4,18 L9,20 L9,21 L4,21 L0,14 Z " fill="#FBE8E8" transform="translate(112,66)"/>
<path d="M0,0 L2,1 L-5,9 L-9,13 L-9,9 L-4,3 Z " fill="#BA3E3E" transform="translate(15,5)"/>
<path d="M0,0 L1,0 L1,10 L-2,18 L-5,20 L-4,14 L-2,14 Z " fill="#F5CDCD" transform="translate(158,68)"/>
<path d="M0,0 L7,0 L3,2 L-7,4 L-13,4 L-11,2 L-2,1 Z " fill="#7C2222" transform="translate(174,196)"/>
<path d="M0,0 L2,0 L0,6 L-6,13 L-8,12 L-3,6 Z " fill="#BC3D3D" transform="translate(158,81)"/>
<path d="M0,0 L1,0 L1,8 L-1,15 L-4,15 L-1,6 Z " fill="#C33636" transform="translate(196,168)"/>
<path d="M0,0 L4,0 L4,2 L8,4 L3,5 L0,2 Z " fill="#F8D7D7" transform="translate(117,87)"/>
</svg>
