<?xml version="1.0" encoding="UTF-8"?>
<!-- Generator: visioncortex VTracer 0.6.5 -->
<svg version="1.1" xmlns="http://www.w3.org/2000/svg" width="128" height="128">
<path d="M0,0 L128,0 L128,128 L0,128 Z " fill="#FDFDFD" transform="translate(0,0)"/>
<path d="M0,0 L13,0 L25,6 L29,9 L38,9 L41,5 L42,1 L60,2 L58,13 L53,22 L46,28 L41,30 L28,30 L17,24 L12,21 L4,21 L1,25 L0,29 L-16,29 L-18,28 L-17,21 L-13,11 L-7,4 Z " fill="#030303" transform="translate(43,49)"/>
<path d="M0,0 L8,0 L8,1 L14,2 L14,3 L2,3 L0,8 L-3,10 L-3,7 Z " fill="#1F1F1F" transform="translate(85,50)"/>
<path d="M0,0 L5,1 L11,5 L18,6 L18,9 L11,8 L0,1 Z " fill="#1B1B1B" transform="translate(61,53)"/>
<path d="M0,0 L14,2 L16,4 L3,4 L0,2 Z " fill="#151515" transform="translate(68,75)"/>
<path d="M0,0 L13,0 L15,3 L-1,3 L-2,1 Z " fill="#171818" transform="translate(43,49)"/>
<path d="M0,0 L1,4 L-3,17 L-1,18 L-4,18 L-4,9 Z " fill="#DDDDDD" transform="translate(28,60)"/>
<path d="M0,0 L1,2 L8,2 L9,5 L2,5 L0,4 Z " fill="#2A2A2A" transform="translate(25,73)"/>
<path d="M0,0 L3,2 L2,7 L-1,8 Z " fill="#D7D7D7" transform="translate(102,54)"/>
</svg>
