<?xml version="1.0" encoding="UTF-8"?>
<!-- Generator: visioncortex VTracer 0.6.5 -->
<svg version="1.1" xmlns="http://www.w3.org/2000/svg" width="1028" height="1028">
<path d="M0,0 L1028,0 L1028,1028 L0,1028 Z " fill="#30363B" transform="translate(0,0)"/>
<path d="M0,0 L1028,0 L1028,514 L0,514 Z " fill="#FEFEFE" transform="translate(0,0)"/>
<path d="M0,0 L37,0 L56,3 L72,8 L88,15 L102,24 L112,32 L128,48 L139,63 L148,79 L156,97 L162,118 L166,143 L166,187 L163,212 L157,234 L151,250 L143,266 L133,281 L122,294 L112,304 L97,315 L83,323 L68,329 L59,332 L42,335 L33,336 L3,336 L-13,334 L-34,328 L-49,321 L-61,314 L-74,304 L-90,288 L-101,273 L-110,257 L-116,243 L-121,228 L-125,212 L-128,189 L-128,143 L-124,118 L-118,97 L-109,76 L-98,58 L-89,47 L-80,37 L-70,28 L-57,19 L-40,10 L-30,6 L-10,1 Z " fill="#FEFEFE" transform="translate(442,573)"/>
<path d="M0,0 L104,0 L126,66 L130,79 L164,181 L170,203 L174,215 L178,229 L180,226 L187,202 L198,167 L221,98 L235,55 L253,1 L254,0 L357,0 L357,327 L294,327 L294,95 L295,75 L295,59 L282,103 L258,176 L244,219 L227,271 L213,314 L209,327 L149,327 L129,267 L119,236 L106,198 L101,181 L84,130 L72,92 L66,73 L63,61 L63,327 L0,327 Z " fill="#FDFDFD" transform="translate(645,577)"/>
<path d="M0,0 L123,0 L144,3 L165,10 L180,18 L190,26 L200,35 L210,48 L218,63 L223,78 L225,89 L225,122 L222,136 L217,150 L209,165 L201,175 L188,188 L172,198 L160,203 L162,209 L177,234 L194,266 L206,289 L218,311 L225,325 L225,327 L155,327 L151,317 L132,279 L121,256 L108,230 L100,213 L62,212 L62,326 L0,326 Z " fill="#000000" transform="translate(775,144)"/>
<path d="M0,0 L22,0 L44,3 L61,8 L76,14 L91,22 L103,31 L115,42 L125,53 L135,68 L136,72 L127,78 L101,93 L86,102 L83,102 L77,92 L69,82 L57,73 L43,66 L28,62 L21,61 L1,61 L-15,65 L-29,72 L-42,83 L-50,93 L-59,109 L-66,130 L-69,150 L-69,190 L-66,207 L-59,228 L-51,243 L-43,253 L-35,261 L-21,270 L-14,273 L-1,276 L26,276 L41,273 L57,265 L66,258 L74,250 L84,235 L98,243 L114,252 L136,265 L135,269 L128,280 L120,290 L110,301 L99,310 L84,320 L67,328 L56,332 L36,336 L29,337 L-7,337 L-28,333 L-48,326 L-63,318 L-77,308 L-90,296 L-99,286 L-111,268 L-119,253 L-127,231 L-131,214 L-134,197 L-135,188 L-135,150 L-132,126 L-127,106 L-120,87 L-112,71 L-102,56 L-93,45 L-79,31 L-65,21 L-51,13 L-33,6 L-16,2 Z " fill="#FDFDFD" transform="translate(161,572)"/>
<path d="M0,0 L34,0 L57,4 L74,10 L93,19 L107,29 L119,40 L128,49 L140,66 L142,72 L121,84 L94,100 L89,101 L81,89 L72,79 L62,72 L50,66 L42,63 L31,61 L3,61 L-13,66 L-24,72 L-37,83 L-46,95 L-54,110 L-58,121 L-62,137 L-64,153 L-64,181 L-60,208 L-53,228 L-45,243 L-36,254 L-26,263 L-12,271 L1,275 L7,276 L29,276 L41,274 L57,268 L69,260 L80,249 L87,238 L89,235 L95,237 L119,251 L141,264 L141,268 L134,279 L126,289 L115,301 L101,312 L83,323 L62,331 L40,336 L29,337 L6,337 L-20,333 L-38,327 L-54,319 L-68,310 L-83,297 L-92,287 L-104,270 L-113,253 L-120,234 L-124,221 L-128,196 L-129,187 L-129,146 L-126,124 L-120,101 L-112,81 L-103,65 L-93,51 L-82,39 L-74,31 L-59,20 L-40,10 L-29,6 L-8,1 Z " fill="#010101" transform="translate(156,139)"/>
<path d="M0,0 L21,0 L38,4 L54,12 L64,20 L73,30 L81,43 L88,58 L92,72 L95,91 L95,121 L92,145 L84,169 L75,185 L64,197 L55,205 L45,211 L31,216 L24,217 L-3,217 L-17,213 L-30,206 L-40,198 L-49,188 L-57,175 L-65,157 L-68,145 L-71,126 L-71,90 L-67,68 L-61,50 L-54,37 L-46,26 L-35,15 L-22,7 L-9,2 Z " fill="#30363B" transform="translate(449,632)"/>
<path d="M0,0 L5,1 L41,17 L86,37 L126,55 L167,73 L172,76 L172,99 L158,106 L117,124 L77,142 L36,160 L3,175 L0,175 L-8,138 L-8,136 L34,117 L61,105 L100,88 L101,87 L89,82 L49,64 L8,46 L-8,39 L-5,23 L-1,4 Z " fill="#010101" transform="translate(580,228)"/>
<path d="M0,0 L57,0 L66,2 L78,7 L87,14 L93,21 L97,29 L99,38 L99,57 L95,72 L88,82 L77,90 L67,94 L58,96 L0,96 Z " fill="#FEFEFE" transform="translate(837,202)"/>
<path d="M0,0 L143,0 L143,39 L0,39 Z " fill="#030303" transform="translate(405,326)"/>
<path d="M0,0 L143,0 L143,39 L0,39 Z " fill="#030303" transform="translate(233,326)"/>
<path d="M0,0 L143,0 L143,39 L0,39 Z " fill="#030303" transform="translate(405,249)"/>
<path d="M0,0 L143,0 L143,39 L0,39 Z " fill="#030303" transform="translate(233,249)"/>
</svg>
