<?xml version="1.0" encoding="UTF-8"?>
<!-- Generator: visioncortex VTracer 0.6.5 -->
<svg version="1.1" xmlns="http://www.w3.org/2000/svg" width="512" height="512">
<path d="M0,0 L44,0 L67,3 L90,8 L117,17 L141,28 L160,39 L177,51 L188,60 L200,71 L215,86 L224,97 L235,112 L246,130 L255,147 L265,172 L272,196 L276,216 L278,234 L278,278 L275,301 L270,324 L261,351 L250,375 L239,394 L227,411 L218,422 L207,434 L192,449 L181,458 L166,469 L148,480 L131,489 L106,499 L82,506 L62,510 L45,512 L-1,512 L-23,509 L-46,504 L-73,495 L-97,484 L-116,473 L-133,461 L-144,452 L-156,441 L-171,426 L-180,415 L-191,400 L-202,382 L-211,365 L-221,340 L-228,316 L-232,296 L-234,278 L-234,234 L-231,211 L-226,188 L-217,161 L-206,137 L-195,118 L-183,101 L-174,90 L-163,78 L-148,63 L-137,54 L-122,43 L-104,32 L-87,23 L-62,13 L-38,6 L-18,2 Z " fill="#90DEAA" transform="translate(234,0)"/>
<path d="M0,0 L101,0 L102,1 L102,20 L101,21 L96,21 L96,37 L102,39 L116,48 L128,59 L135,69 L141,82 L143,89 L143,108 L137,126 L129,138 L125,143 L117,150 L107,156 L254,157 L252,161 L236,173 L217,185 L198,195 L173,205 L149,212 L129,216 L112,218 L66,218 L44,215 L21,210 L-6,201 L-30,190 L-49,179 L-66,167 L-76,159 L-76,157 L-6,156 L-14,151 L-24,142 L-32,132 L-38,120 L-40,115 L-41,109 L-41,88 L-37,76 L-30,64 L-19,52 L-7,43 L4,37 L6,37 L6,21 L0,21 L-1,20 L-1,1 Z " fill="#324A5E" transform="translate(167,294)"/>
<path d="M0,0 L152,1 L150,5 L134,17 L115,29 L96,39 L71,49 L47,56 L27,60 L10,62 L-36,62 L-58,59 L-81,54 L-108,45 L-132,34 L-151,23 L-168,11 L-178,3 L-178,1 Z " fill="#2D9984" transform="translate(269,450)"/>
<path d="M0,0 L4,0 L3,7 L-2,23 L-16,61 L-34,71 L-52,83 L-32,77 L-23,75 L-25,81 L-34,100 L-45,109 L-56,117 L-69,128 L-57,123 L-47,119 L-45,119 L-47,124 L-57,142 L-62,148 L-85,160 L-100,169 L-72,162 L-72,165 L-83,181 L-99,202 L-111,216 L-120,226 L-121,227 L-135,227 L-139,214 L-142,195 L-142,159 L-137,134 L-134,137 L-125,154 L-121,161 L-123,151 L-127,132 L-129,116 L-128,109 L-120,92 L-112,79 L-111,79 L-108,106 L-104,83 L-98,59 L-89,49 L-80,40 L-74,36 L-74,69 L-68,48 L-59,24 L-50,18 L-34,10 L-22,5 L-8,1 Z " fill="#FDFEFE" transform="translate(346,67)"/>
<path d="M0,0 L2,0 L1,3 L-6,9 L-21,24 L-30,35 L-39,45 L-53,64 L-63,78 L-75,97 L-85,115 L-97,138 L-109,167 L-119,196 L-124,213 L-127,225 L-128,226 L-134,226 L-133,216 L-126,189 L-117,163 L-106,137 L-96,117 L-84,96 L-72,78 L-60,62 L-52,52 L-40,38 L-15,13 L-4,4 Z " fill="#E6E9EE" transform="translate(348,68)"/>
<path d="M0,0 L89,0 L89,15 L0,15 Z " fill="#2B3B4E" transform="translate(173,315)"/>
<path d="M0,0 L2,1 L1,4 L-5,7 L-7,6 Z " fill="#A7E5BB" transform="translate(281,190)"/>
</svg>
