<?xml version="1.0" encoding="UTF-8"?>
<!-- Generator: visioncortex VTracer 0.6.5 -->
<svg version="1.1" xmlns="http://www.w3.org/2000/svg" width="240" height="240">
<path d="M0,0 L12,0 L22,4 L31,10 L36,14 L43,22 L51,33 L51,35 L55,31 L62,20 L74,7 L83,1 L85,0 L98,0 L102,1 L102,21 L94,21 L84,24 L76,30 L68,39 L62,49 L69,58 L78,68 L86,75 L93,78 L101,78 L107,73 L112,62 L115,52 L128,52 L139,50 L138,59 L134,71 L128,83 L120,93 L109,101 L98,104 L87,103 L76,99 L66,90 L57,80 L50,71 L49,70 L40,85 L29,97 L19,103 L14,104 L2,104 L-8,101 L-18,95 L-27,85 L-34,73 L-36,67 L-11,67 L-7,75 L-1,80 L4,82 L13,82 L25,76 L32,69 L39,58 L37,53 L29,43 L20,33 L12,27 L9,26 L2,26 L-4,31 L-10,44 L-11,47 L-22,44 L-29,44 L-36,47 L-35,38 L-29,23 L-20,11 L-11,4 Z " fill="#2D8454" transform="translate(66,68)"/>
<path d="M0,0 L7,0 L15,4 L20,12 L20,22 L17,28 L12,32 L7,34 L-1,34 L-7,31 L-12,25 L-13,23 L-13,11 L-9,5 L-3,1 Z " fill="#2D8454" transform="translate(190,70)"/>
</svg>
