<?xml version="1.0" encoding="UTF-8"?>
<!-- Generator: visioncortex VTracer 0.6.5 -->
<svg version="1.1" xmlns="http://www.w3.org/2000/svg" width="280" height="280">
<path d="M0,0 L3,0 L5,22 L8,40 L13,59 L18,70 L26,83 L32,90 L32,92 L34,92 L44,105 L56,120 L68,137 L77,153 L83,168 L84,173 L84,192 L81,211 L76,224 L70,236 L62,246 L55,253 L53,253 L53,255 L39,264 L24,270 L10,273 L1,274 L-4,272 L-23,272 L-34,269 L-46,264 L-57,257 L-71,245 L-79,234 L-87,218 L-91,206 L-93,195 L-94,184 L-94,168 L-92,151 L-87,130 L-76,101 L-69,85 L-58,65 L-52,54 L-44,40 L-34,26 L-23,14 L-21,14 L-21,12 L-11,5 Z M-35,259 L-30,264 L-24,267 L-12,267 L-12,265 L-14,265 L-14,263 L-24,260 Z " fill="#340C47" transform="translate(146,3)"/>
<path d="M0,0 L5,2 L7,4 L6,12 L8,28 L12,31 L11,33 L9,32 L11,36 L10,39 L11,41 L11,50 L16,56 L20,58 L21,60 L23,59 L23,62 L28,64 L30,66 L34,69 L40,72 L42,75 L47,79 L50,80 L54,79 L57,88 L59,90 L56,91 L58,97 L60,99 L55,100 L53,122 L52,126 L69,120 L80,114 L87,109 L93,100 L95,98 L94,111 L90,127 L84,140 L78,150 L69,160 L66,163 L64,163 L64,165 L50,174 L35,180 L21,183 L12,184 L8,182 L8,180 L12,179 L22,174 L33,164 L34,162 L28,161 L21,167 L19,167 L19,169 L15,168 L7,162 L5,155 L1,149 L-6,143 L-8,139 L-10,138 L-12,133 L19,132 L21,131 L36,129 L43,129 L41,124 L38,124 L36,127 L33,122 L31,121 L31,119 L27,117 L25,117 L23,117 L17,110 L14,107 L11,103 L11,101 L6,101 L6,97 L2,96 L3,100 L-5,98 L-4,93 L-1,90 L-8,78 L-11,75 L-14,70 L-14,63 L-8,41 L-3,17 Z " fill="#30103E" transform="translate(135,93)"/>
<path d="M0,0 L7,1 L9,5 L12,6 L13,13 L14,16 L17,16 L17,18 L20,19 L20,21 L23,23 L22,49 L24,49 L24,51 L32,51 L39,57 L39,59 L43,60 L44,64 L48,66 L52,68 L51,72 L44,72 L49,75 L51,81 L53,83 L52,85 L54,85 L58,93 L60,94 L62,97 L70,103 L72,106 L72,109 L74,114 L66,114 L56,113 L61,117 L67,120 L79,121 L80,124 L62,124 L46,118 L36,112 L26,104 L18,97 L11,87 L3,71 L-1,59 L-3,48 L-4,37 L-4,21 L-2,4 Z " fill="#390653" transform="translate(56,150)"/>
<path d="M0,0 L9,0 L9,4 L14,6 L15,0 L19,1 L32,11 L34,12 L34,14 L46,14 L42,21 L33,31 L30,34 L28,34 L28,36 L14,45 L-1,51 L-15,54 L-24,55 L-28,53 L-28,51 L-24,50 L-14,45 L-3,35 L-2,33 L-8,32 L-15,38 L-17,38 L-17,40 L-21,39 L-29,33 L-31,26 L-35,20 L-42,14 L-44,10 L-46,9 L-48,4 L-17,3 L-15,2 Z " fill="#291630" transform="translate(171,222)"/>
<path d="M0,0 L1,0 L1,9 L-1,9 L-2,12 L-4,12 L-5,21 L-9,31 L-10,35 L-12,35 L-13,41 L-21,73 L-24,69 L-28,63 L-29,79 L-34,77 L-38,73 L-35,63 L-27,47 L-19,32 L-13,21 L-5,7 Z " fill="#2F0F3D" transform="translate(107,36)"/>
<path d="M0,0 L3,0 L4,14 L4,26 L2,23 L0,25 L-7,27 L-12,25 L-14,26 L-15,14 L-13,8 L-7,3 Z " fill="#390355" transform="translate(146,3)"/>
<path d="M0,0 L5,5 L15,17 L30,37 L31,40 L25,40 L10,26 L0,16 Z " fill="#2B1333" transform="translate(180,97)"/>
<path d="M0,0 L2,3 L1,8 L0,15 L1,17 L-2,18 L5,23 L5,25 L10,27 L19,34 L19,37 L10,35 L-1,32 L-4,29 L-5,23 L-7,22 L-7,19 L-9,19 L-7,15 L-6,10 L-5,2 L-3,1 L-4,7 L-2,6 Z " fill="#390651" transform="translate(154,53)"/>
<path d="M0,0 L1,0 L1,9 L-1,9 L-2,12 L-4,12 L-7,21 L-12,33 L-16,42 L-21,37 L-19,32 L-13,21 L-5,7 Z " fill="#291133" transform="translate(107,36)"/>
<path d="M0,0 L4,2 L9,10 L12,16 L8,14 L7,18 L10,18 L12,22 L16,24 L16,26 L18,28 L-1,28 L-1,27 L11,26 L9,25 L-1,24 L-1,23 L10,23 L10,21 L8,21 L8,19 L2,18 L5,16 L2,9 L2,7 L0,4 Z " fill="#320A45" transform="translate(124,247)"/>
<path d="M0,0 L3,0 L4,2 L4,10 L2,16 L-1,19 L-3,18 L-2,9 L-3,7 L-1,1 Z " fill="#380651" transform="translate(149,35)"/>
<path d="M0,0 L4,0 L6,4 L10,6 L10,8 L12,10 L-7,10 L-7,9 L5,8 L3,7 L-7,6 L-7,5 L4,5 L4,3 L2,3 L2,1 Z " fill="#220330" transform="translate(130,265)"/>
<path d="M0,0 L6,3 L6,5 L-3,6 L-7,4 L-7,2 L-3,1 Z " fill="#1C161D" transform="translate(150,271)"/>
<path d="M0,0 L1,3 L-9,15 L-11,15 L-9,11 Z " fill="#1E1023" transform="translate(119,21)"/>
<path d="M0,0 L1,0 L1,9 L-2,9 L-2,7 L-6,5 L-4,2 Z " fill="#3F015F" transform="translate(147,4)"/>
<path d="M0,0 L2,3 L5,13 L4,17 L0,14 L1,9 Z " fill="#2D0642" transform="translate(155,52)"/>
<path d="M0,0 L4,1 L4,3 L7,6 L5,6 L6,10 L2,8 L1,5 L2,3 L0,3 Z " fill="#310447" transform="translate(109,261)"/>
<path d="M0,0 L6,2 L5,7 L-2,6 L2,5 Z " fill="#2D0341" transform="translate(116,267)"/>
<path d="M0,0 L5,5 L5,7 L7,8 L5,9 L1,7 L-2,2 L0,2 Z " fill="#2B073D" transform="translate(173,88)"/>
<path d="M0,0 L2,3 L0,11 L0,14 L-3,14 L-1,4 Z " fill="#2A063B" transform="translate(59,133)"/>
<path d="M0,0 L5,5 L6,7 L0,6 Z " fill="#1D1323" transform="translate(180,97)"/>
<path d="M0,0 L6,0 L3,6 L1,3 Z " fill="#200F26" transform="translate(211,236)"/>
<path d="M0,0 L9,1 L6,3 L0,3 Z " fill="#1B171B" transform="translate(157,272)"/>
<path d="M0,0 L4,5 L0,6 L-1,2 Z " fill="#220C2C" transform="translate(211,137)"/>
</svg>
