<?xml version="1.0" encoding="UTF-8"?>
<!-- Generator: visioncortex VTracer 0.6.5 -->
<svg version="1.1" xmlns="http://www.w3.org/2000/svg" width="136" height="136">
<path d="M0,0 L136,0 L136,136 L0,136 Z " fill="#4C9ED6" transform="translate(0,0)"/>
<path d="M0,0 L7,1 L9,4 L9,10 L5,14 L0,14 L-3,11 L-3,3 Z " fill="#ECF5F9" transform="translate(64,65)"/>
<path d="M0,0 L3,0 L6,6 L6,16 L3,22 L0,22 L1,17 L1,4 Z " fill="#EFEFF3" transform="translate(78,60)"/>
<path d="M0,0 L3,0 L3,25 L0,25 Z " fill="#EAF0F4" transform="translate(22,60)"/>
<path d="M0,0 L3,0 L3,5 L8,5 L8,8 L3,8 L3,13 L0,13 L0,8 L-5,8 L-5,5 L0,5 Z " fill="#E6F8FC" transform="translate(108,94)"/>
<path d="M0,0 L3,0 L3,5 L8,5 L8,8 L3,8 L3,13 L0,13 L0,8 L-5,8 L-5,5 L0,5 Z " fill="#F5F7F8" transform="translate(22,94)"/>
<path d="M0,0 L3,0 L3,5 L8,5 L8,8 L3,8 L3,13 L0,13 L0,8 L-5,8 L-5,5 L0,5 Z " fill="#E6F8FC" transform="translate(108,36)"/>
<path d="M0,0 L3,0 L3,5 L8,5 L8,8 L3,8 L3,13 L0,13 L0,8 L-5,8 L-5,5 L0,5 Z " fill="#F5F7F8" transform="translate(22,36)"/>
<path d="M0,0 L2,0 L1,5 L1,16 L2,22 L-1,21 L-3,17 L-3,5 Z " fill="#F3F8FA" transform="translate(53,60)"/>
<path d="M0,0 L3,1 L-5,19 L-8,20 L-7,15 Z " fill="#E6F4F7" transform="translate(55,32)"/>
<path d="M0,0 L3,1 L10,17 L10,20 L8,20 L0,3 Z " fill="#EBF2F5" transform="translate(76,32)"/>
<path d="M0,0 L2,1 L2,9 L5,11 L5,13 L0,12 L-2,10 L-2,2 Z " fill="#F7FBFC" transform="translate(63,66)"/>
<path d="M0,0 L4,1 L4,7 L0,8 L-1,7 L-1,1 Z " fill="#5AA3D9" transform="translate(65,68)"/>
<path d="M0,0 L8,0 L8,4 L0,4 Z " fill="#DDEDF7" transform="translate(77,99)"/>
<path d="M0,0 L8,0 L8,4 L0,4 Z " fill="#DDEDF7" transform="translate(48,99)"/>
<path d="M0,0 L8,0 L8,4 L0,4 Z " fill="#DEEDF6" transform="translate(34,99)"/>
<path d="M0,0 L8,0 L8,4 L0,4 Z " fill="#DEEDF6" transform="translate(34,41)"/>
<path d="M0,0 L1,0 L2,13 L1,15 L-2,15 Z " fill="#CDF1FB" transform="translate(80,67)"/>
<path d="M0,0 L2,0 L0,15 L-1,15 L-2,3 Z " fill="#F6F2F2" transform="translate(53,60)"/>
<path d="M0,0 L7,0 L7,3 L0,3 Z " fill="#FBFFFE" transform="translate(92,100)"/>
<path d="M0,0 L7,0 L7,3 L0,3 Z " fill="#FBFFFE" transform="translate(63,100)"/>
<path d="M0,0 L7,0 L7,3 L0,3 Z " fill="#FBFFFE" transform="translate(92,42)"/>
<path d="M0,0 L2,1 L2,7 L-1,6 Z " fill="#EEE9F0" transform="translate(71,68)"/>
</svg>
