<svg version="1.1" id="icons" xmlns="http://www.w3.org/2000/svg" x="0" y="0" viewBox="0 0 64 64" style="enable-background:new 0 0 64 64" xml:space="preserve"><!--
  /qompassai/svg/assets/icons/edu/edu.svg
  Qompass AI Edu SVG
  Copyright (C) 2025 Qompass AI, All rights reserved
--><style>.st0{display:none}.st1{fill:none;stroke:#414042;stroke-miterlimit:10;stroke-dasharray:2}.st1,.st2{display:inline}.st3{fill:none;stroke:#414042;stroke-miterlimit:10}.st6{fill:#f5ab35}.st6,.st7,.st8{display:inline}.st7{fill:none;stroke:#414042;stroke-miterlimit:10}.st8{fill:#29a189}.st10,.st11,.st9{display:inline;fill:#5edfc5}.st10,.st11{fill:#36d7b7}.st11{fill:#f7bc5d}.st12,.st13,.st14{display:inline;fill:#fff}.st13,.st14{fill:#f1f2f2}.st14{fill:#e6e7e8}.st16,.st17,.st18{display:inline;fill:#86e7d4}.st17,.st18{fill:#d1d3d4}.st18{fill:#6d6e71}.st19{fill:#36d7b7}.st20{fill:#a7a9ac}.st21{fill:#5edfc5}.st23{fill:#e6e7e8}.st24{fill:#d1d3d4}.st25{fill:#f1f2f2}.st26{fill:#86e7d4}.st27{fill:#f5ab35}.st29,.st30,.st31{display:inline;fill:#bcbec0}.st30,.st31{fill:#f9cd86}.st31{fill:#414042}.st32{fill:#f9cd86}.st34{fill:#fff}.st35{fill:#414042}.st36{fill:none;stroke:#bcbec0;stroke-linecap:round;stroke-miterlimit:10}.st38{fill:#f7bc5d}.st43,.st44{fill:none;stroke-miterlimit:10}.st43{stroke:#414042;stroke-linecap:round}.st44{stroke:#f5ab35}.st44,.st45,.st46{display:inline}.st45{fill:none;stroke:#414042;stroke-linecap:round;stroke-miterlimit:10}.st46{opacity:.26;fill:#231f20}.st50{fill:none;stroke:#bcbec0;stroke-miterlimit:10}</style><g id="XMLID_859_"><g id="XMLID_858_"><circle id="XMLID_868_" class="st36" cx="32" cy="32" r="13"/><path id="XMLID_867_" class="st36" d="M36.6 19.8c2 3.2 3.2 7.5 3.2 12.2 0 4.7-1.2 9-3.2 12.2"/><path id="XMLID_866_" class="st36" d="M27.8 19.8c-2 3.2-3.2 7.5-3.2 12.2 0 4.7 1.2 9 3.2 12.2"/><path id="XMLID_865_" class="st36" d="M32 19v26"/><path id="XMLID_864_" class="st36" d="M19 32h26"/><path id="XMLID_863_" class="st36" d="M21 25.8h22.5"/><path id="XMLID_862_" class="st36" d="M20.6 38.2h22.7"/></g><g id="XMLID_880_"><path id="XMLID_890_" transform="rotate(45.001 32 32)" class="st27" d="M12.7 28h38.7v8H12.7z"/><path id="XMLID_889_" transform="rotate(45.001 33.577 30.424)" class="st32" d="M14.2 28.6h38.7v3.6H14.2z"/><path id="XMLID_888_" class="st3" d="m25.3 19.6-1.7 1.8"/><path id="XMLID_887_" class="st3" d="m21.5 15.8-1.7 1.8"/><path id="XMLID_886_" class="st3" d="m29.1 23.4-1.7 1.8"/><path id="XMLID_885_" class="st3" d="M32.9 27.3 31.2 29"/><path id="XMLID_884_" class="st3" d="M36.7 31.1 35 32.8"/><path id="XMLID_883_" class="st3" d="m44.4 38.7-1.8 1.7"/><path id="XMLID_882_" class="st3" d="m40.6 34.9-1.8 1.7"/><path id="XMLID_881_" class="st3" d="m48.2 42.5-1.8 1.7"/></g><g id="XMLID_872_"><path id="XMLID_879_" class="st34" d="m19.1 42.3 25.1-25.1 2.7 2.7-25.2 25-4.6 2.1c-.1 0-.2-.1-.1-.1l2.1-4.6z"/><path id="XMLID_878_" transform="rotate(134.999 32.942 31.058)" class="st19" d="M15.2 29.2h35.5V33H15.2z"/><path id="XMLID_877_" transform="rotate(134.999 33.609 31.725)" class="st26" d="M15.9 30.8h35.5v1.9H15.9z"/><path id="XMLID_876_" transform="rotate(134.999 43.938 20.062)" class="st34" d="M41.7 18.1h4.4v4h-4.4z"/><path id="XMLID_875_" class="st3" d="m19.1 42.3 25.1-25.1 2.7 2.7-25.2 25-4.6 2.1c-.1 0-.2-.1-.1-.1l2.1-4.6z"/><path id="XMLID_874_" class="st3" d="m43.7 23-2.3-2.4"/><path id="XMLID_873_" class="st3" d="m21.6 44.8-2.4-2.4"/></g></g></svg>
