<?xml version="1.0" encoding="UTF-8"?>
<!-- Generator: visioncortex VTracer 0.6.5 -->
<svg version="1.1" xmlns="http://www.w3.org/2000/svg" width="600" height="600">
<path d="M0,0 L46,0 L72,3 L96,8 L120,15 L141,23 L168,36 L188,48 L206,61 L217,70 L229,81 L239,90 L246,98 L261,101 L273,107 L284,118 L290,129 L294,142 L295,149 L295,171 L305,194 L313,219 L319,245 L323,276 L323,324 L319,355 L313,381 L303,411 L294,431 L283,452 L271,471 L261,484 L253,494 L242,506 L233,516 L225,523 L214,533 L198,545 L183,555 L162,567 L139,578 L111,588 L83,595 L57,599 L46,600 L0,600 L-26,597 L-50,592 L-74,585 L-95,577 L-122,564 L-142,552 L-160,539 L-171,530 L-183,519 L-193,510 L-200,502 L-210,491 L-222,475 L-232,460 L-243,441 L-255,416 L-264,391 L-271,365 L-275,342 L-277,324 L-277,276 L-273,245 L-267,219 L-257,189 L-248,169 L-237,148 L-225,129 L-215,116 L-207,106 L-196,94 L-189,86 L-188,80 L-247,80 L-247,60 L-157,59 L-142,48 L-118,34 L-93,22 L-65,12 L-37,5 L-11,1 Z " fill="#676CC2" transform="translate(277,0)"/>
<path d="M0,0 L22,0 L59,93 L60,94 L72,63 L97,1 L98,0 L119,0 L116,10 L101,47 L64,139 L56,155 L49,163 L43,167 L41,167 L42,182 L48,174 L55,168 L66,163 L74,162 L90,162 L103,167 L111,173 L118,180 L126,194 L130,209 L131,215 L131,238 L127,255 L122,267 L115,276 L108,283 L96,289 L89,291 L70,291 L58,287 L49,280 L43,273 L42,271 L41,335 L21,335 L21,170 L11,170 L11,153 L27,152 L35,149 L41,140 L48,123 L47,116 L31,77 L12,31 L0,2 Z " fill="#FDFDFE" transform="translate(176,102)"/>
<path d="M0,0 L89,0 L140,1 L140,20 L82,20 L82,163 L95,164 L112,167 L124,171 L124,193 L110,188 L101,185 L89,182 L69,182 L57,185 L49,190 L44,196 L42,201 L42,214 L46,223 L54,228 L63,231 L95,238 L111,244 L122,252 L129,261 L133,271 L134,275 L134,293 L129,309 L122,318 L114,324 L106,328 L92,332 L86,333 L57,333 L42,330 L30,327 L19,323 L19,300 L24,302 L40,309 L53,313 L60,314 L81,314 L93,311 L102,306 L108,298 L110,291 L110,280 L105,270 L99,265 L85,259 L59,254 L44,249 L32,242 L25,235 L21,227 L19,221 L19,197 L23,188 L29,179 L39,171 L50,166 L59,164 L59,20 L0,20 Z " fill="#FDFCFE" transform="translate(30,60)"/>
<path d="M0,0 L19,0 L31,4 L41,11 L49,20 L57,36 L61,53 L61,74 L58,89 L53,102 L46,113 L38,121 L24,128 L18,129 L3,129 L-10,126 L-19,120 L-26,113 L-28,110 L-29,173 L-49,173 L-49,3 L-29,3 L-28,19 L-19,9 L-10,3 Z " fill="#FDFDFE" transform="translate(372,99)"/>
<path d="M0,0 L24,0 L37,4 L46,10 L55,19 L61,30 L65,43 L66,50 L66,70 L-27,69 L-25,83 L-18,97 L-13,102 L-4,108 L2,110 L10,111 L28,111 L47,106 L59,101 L61,101 L61,120 L40,127 L28,129 L6,129 L-7,127 L-19,122 L-30,114 L-38,105 L-46,89 L-48,79 L-48,51 L-45,38 L-38,24 L-27,12 L-16,5 Z " fill="#FDFDFE" transform="translate(506,99)"/>
<path d="M0,0 L20,0 L31,3 L42,9 L51,17 L58,28 L63,43 L64,49 L64,69 L-29,69 L-27,82 L-22,94 L-13,104 L-3,109 L6,111 L26,111 L43,107 L57,101 L59,101 L59,120 L41,126 L26,129 L4,129 L-11,126 L-20,122 L-31,115 L-39,106 L-44,98 L-49,84 L-50,76 L-50,55 L-48,42 L-43,30 L-36,19 L-26,10 L-15,4 L-5,1 Z " fill="#FCFCFD" transform="translate(382,264)"/>
<path d="M0,0 L14,0 L23,3 L33,12 L40,26 L42,35 L42,57 L40,69 L33,83 L25,91 L15,95 L-1,95 L-11,90 L-18,83 L-23,73 L-26,63 L-27,57 L-27,38 L-24,24 L-18,12 L-11,5 L-3,1 Z " fill="#6C6EC4" transform="translate(244,281)"/>
<path d="M0,0 L14,0 L25,4 L33,11 L38,19 L42,31 L43,37 L43,57 L40,70 L36,80 L27,90 L19,94 L16,95 L0,95 L-10,90 L-15,85 L-19,80 L-24,68 L-26,59 L-26,35 L-23,23 L-17,12 L-9,4 Z " fill="#726EC5" transform="translate(369,116)"/>
<path d="M0,0 L23,0 L42,5 L47,7 L47,26 L27,19 L22,18 L4,18 L-7,22 L-16,28 L-23,38 L-27,50 L-27,78 L-22,93 L-15,102 L-6,108 L5,111 L22,111 L34,108 L47,103 L47,122 L32,127 L21,129 L0,129 L-13,126 L-26,119 L-35,111 L-44,97 L-48,86 L-50,73 L-50,53 L-46,37 L-40,25 L-32,15 L-19,6 L-5,1 Z " fill="#FCFDFE" transform="translate(520,264)"/>
<path d="M0,0 L16,0 L26,4 L34,11 L39,18 L42,27 L42,37 L-30,37 L-29,29 L-26,20 L-20,11 L-13,5 L-7,2 Z " fill="#646FC3" transform="translate(509,116)"/>
<path d="M0,0 L12,0 L23,3 L32,10 L38,20 L40,27 L40,36 L-31,36 L-30,25 L-25,15 L-19,8 L-11,3 Z " fill="#5C6BC0" transform="translate(385,281)"/>
</svg>
