<?xml version="1.0" encoding="UTF-8"?>
<!-- Generator: visioncortex VTracer 0.6.5 -->
<svg version="1.1" xmlns="http://www.w3.org/2000/svg" width="250" height="250">
<path d="M0,0 L196,0 L203,3 L203,5 L205,5 L206,10 L206,171 L204,177 L195,188 L185,199 L178,207 L163,222 L152,231 L142,240 L136,244 L129,246 L1,246 L-7,243 L-7,241 L-9,241 L-10,236 L-10,10 L-9,5 L-7,5 L-6,2 Z " fill="#F1F1F0" transform="translate(27,3)"/>
<path d="M0,0 L196,0 L203,3 L203,5 L205,5 L206,10 L206,171 L204,177 L195,188 L185,199 L178,207 L163,222 L152,231 L142,240 L136,244 L129,246 L1,246 L-7,243 L-7,241 L-9,241 L-10,236 L-10,10 L-9,5 L-7,5 L-6,2 Z M4,12 L4,232 L128,232 L138,223 L149,214 L156,207 L164,200 L173,190 L182,180 L191,169 L192,168 L192,12 Z " fill="#000000" transform="translate(27,3)"/>
<path d="M0,0 L11,0 L14,11 L20,41 L29,0 L42,0 L51,40 L59,0 L70,0 L69,8 L62,38 L58,55 L44,55 L37,24 L35,15 L32,31 L27,54 L26,55 L13,55 L2,11 Z " fill="#C06308" transform="translate(87,93)"/>
<path d="M0,0 L10,1 L15,0 L9,8 L-3,22 L-17,37 L-25,44 L-35,53 L-44,60 L-45,58 L-45,47 L-43,41 L-46,41 L-46,37 L-47,39 L-52,39 L-50,38 L-51,33 L-50,31 L-48,31 L-47,33 L-46,31 L-40,31 L-39,24 L-44,23 L-43,18 L-41,18 L-41,16 L-36,12 L-35,10 L-26,6 L-13,3 L-8,1 Z " fill="#DEDEDE" transform="translate(202,172)"/>
<path d="M0,0 L13,0 L29,47 L31,52 L31,55 L20,55 L16,42 L-4,41 L-7,52 L-8,55 L-19,55 L-16,44 L-1,1 Z " fill="#C06208" transform="translate(58,93)"/>
<path d="M0,0 L10,0 L11,24 L25,9 L33,0 L46,0 L40,7 L25,23 L31,32 L45,50 L48,55 L35,55 L22,38 L17,31 L11,35 L10,55 L0,55 Z " fill="#C06105" transform="translate(163,93)"/>
<path d="M0,0 L186,0 L186,103 L185,103 L185,2 L2,2 L2,216 L30,216 L29,218 L0,218 Z " fill="#FCFCFC" transform="translate(32,16)"/>
<path d="M0,0 L2,1 L-10,15 L-21,27 L-30,37 L-38,44 L-48,53 L-55,58 L-56,55 L-52,51 L-47,46 L-42,41 L-37,36 L-35,36 L-35,33 L-30,31 L-26,27 L-18,15 L-15,12 L-14,10 L-11,9 L-7,4 L-3,3 L-3,1 Z " fill="#C4C4C4" transform="translate(215,172)"/>
<path d="M0,0 L9,0 L7,2 L1,4 L-9,4 L-9,11 L-14,28 L-17,34 L-18,34 L-18,26 L-16,15 L-19,31 L-25,30 L-25,26 L-26,28 L-31,28 L-29,27 L-30,22 L-29,20 L-27,20 L-26,22 L-25,20 L-19,20 L-18,13 L-23,12 L-22,7 L-20,7 L-20,5 L-18,5 L-17,11 L-16,7 L-13,7 L-11,3 L-8,1 Z " fill="#AFAFAF" transform="translate(181,183)"/>
<path d="M0,0 L4,0 L3,3 L-1,5 L-5,10 L-9,14 L-16,22 L-21,27 L-25,31 L-26,28 L-21,11 L-20,4 L-7,2 Z " fill="#F3F3F3" transform="translate(192,183)"/>
<path d="M0,0 L2,4 L7,19 L7,23 L-7,23 L-4,11 L-1,1 Z " fill="#F2ECE5" transform="translate(64,102)"/>
<path d="M0,0 L2,0 L2,7 L4,7 L2,19 L1,26 L-5,25 L-5,21 L-6,23 L-11,23 L-9,22 L-10,17 L-9,15 L-7,15 L-6,17 L-5,15 L1,15 L2,8 L-3,7 L-2,2 L0,2 Z " fill="#BBBBBC" transform="translate(161,188)"/>
<path d="M0,0 L14,0 L10,3 L1,6 L-8,6 L-18,8 L-22,12 L-22,7 L-15,3 L-13,2 L-2,1 Z " fill="#D2D2D2" transform="translate(189,178)"/>
<path d="M0,0 L4,0 L2,4 L-11,17 L-12,17 L-11,8 L-10,1 Z " fill="#FCFCFC" transform="translate(182,186)"/>
<path d="M0,0 L2,1 L-8,15 L-14,16 L-14,19 L-18,21 L-24,29 L-28,31 L-27,26 L-22,21 L-17,16 L-9,9 L-2,1 Z " fill="#D6D6D6" transform="translate(194,189)"/>
<path d="M0,0 L1,4 L-1,13 L-1,22 L-3,26 L-1,27 L-4,31 L-6,31 L-5,34 L-8,36 L-8,23 L-6,17 L-5,8 L-3,11 L-1,2 Z " fill="#D5D5D5" transform="translate(165,196)"/>
<path d="M0,0 L2,1 L-10,15 L-15,18 L-21,21 L-19,16 L-15,12 L-14,10 L-11,9 L-7,4 L-3,3 L-3,1 Z " fill="#C9C9C9" transform="translate(215,172)"/>
<path d="M0,0 L5,0 L3,2 L-10,5 L-14,7 L-17,7 L-19,11 L-23,13 L-21,7 L-17,2 Z " fill="#E6E6E6" transform="translate(184,175)"/>
<path d="M0,0 L2,0 L0,4 L-7,11 L-12,16 L-13,13 L-7,4 Z " fill="#BBBBBB" transform="translate(200,189)"/>
<path d="M0,0 L4,0 L4,2 L2,2 L2,6 L4,6 L4,8 L-6,7 L-7,2 L-2,1 Z " fill="#B4B5B5" transform="translate(65,63)"/>
<path d="M0,0 L2,0 L2,6 L3,9 L-2,21 L-3,21 L-3,13 Z " fill="#BDBDBD" transform="translate(166,196)"/>
<path d="M0,0 L4,0 L3,6 L3,17 L1,20 L-1,14 L-1,5 Z " fill="#E0E0E1" transform="translate(155,213)"/>
<path d="M0,0 L10,0 L10,6 L7,7 L5,6 L5,4 L1,4 L0,6 Z " fill="#AFB0B0" transform="translate(94,64)"/>
<path d="M0,0 L10,0 L7,1 L7,5 L10,5 L10,7 L0,6 Z " fill="#9E9F9F" transform="translate(47,64)"/>
<path d="M0,0 L2,1 L-6,10 L-11,15 L-15,19 L-16,16 L-14,10 L-12,12 L-6,7 Z " fill="#E8E8E8" transform="translate(182,195)"/>
<path d="M0,0 L4,2 L6,0 L11,1 L10,6 L5,4 L4,6 L1,6 Z " fill="#A2A3A3" transform="translate(128,49)"/>
<path d="M0,0 L2,0 L3,2 L5,0 L6,2 L6,9 L4,10 L4,6 L3,8 L-2,8 L0,7 L-1,2 Z " fill="#E1E1E2" transform="translate(152,203)"/>
<path d="M0,0 L3,1 L-5,5 L-6,10 L-8,12 L-6,14 L-10,15 L-10,7 L-6,2 Z " fill="#D8D8D8" transform="translate(173,180)"/>
<path d="M0,0 L2,1 L7,0 L11,1 L11,5 L6,4 L1,5 Z " fill="#9D9D9D" transform="translate(140,190)"/>
<path d="M0,0 L13,0 L9,3 L-2,3 L-12,4 L-11,2 Z " fill="#C1C1C1" transform="translate(183,181)"/>
<path d="M0,0 L4,1 L1,1 L1,5 L5,5 L5,0 L9,0 L10,0 L10,6 L7,6 L0,7 Z " fill="#969696" transform="translate(47,189)"/>
<path d="M0,0 L4,0 L3,3 L-1,5 L-5,10 L-8,11 L-6,6 L-2,3 L-4,1 Z " fill="#EAEAEA" transform="translate(192,183)"/>
<path d="M0,0 L2,0 L3,5 L2,7 L-5,7 L-6,2 L0,2 Z " fill="#9D9D9D" transform="translate(123,24)"/>
<path d="M0,0 L1,4 L-1,13 L-1,22 L-4,25 L-3,11 L-1,2 Z " fill="#CBCBCB" transform="translate(165,196)"/>
<path d="M0,0 L3,1 L3,5 L6,6 L5,12 L3,12 L2,14 L3,6 L-1,5 L-1,2 Z " fill="#979797" transform="translate(165,190)"/>
<path d="M0,0 L8,0 L8,2 L11,1 L11,5 L6,4 L1,5 Z " fill="#979797" transform="translate(121,159)"/>
<path d="M0,0 L2,0 L3,9 L-3,7 L-2,2 L0,2 Z " fill="#A6A6A6" transform="translate(161,188)"/>
<path d="M0,0 L7,1 L7,2 L1,2 L2,3 L7,3 L7,5 L-1,5 L-4,2 Z " fill="#B4B4B4" transform="translate(126,80)"/>
<path d="M0,0 L3,1 L2,6 L0,6 L0,8 L-2,8 L-2,1 Z " fill="#AFAFAF" transform="translate(64,205)"/>
<path d="M0,0 L3,0 L1,9 L-2,13 L-1,2 Z " fill="#B0B0B0" transform="translate(166,202)"/>
<path d="M0,0 L8,0 L4,3 L1,4 L-6,3 L-5,1 Z " fill="#C9C9CA" transform="translate(195,178)"/>
<path d="M0,0 L5,0 L5,6 L0,7 Z " fill="#9F9F9F" transform="translate(70,64)"/>
<path d="M0,0 L2,0 L2,7 L-3,6 L-2,1 Z " fill="#ABABAB" transform="translate(155,48)"/>
<path d="M0,0 L2,0 L2,2 L5,3 L5,7 L0,7 Z " fill="#A3A4A4" transform="translate(88,24)"/>
<path d="M0,0 L2,0 L3,2 L5,0 L5,7 L0,7 Z " fill="#989898" transform="translate(134,79)"/>
<path d="M0,0 L4,1 L3,7 L-1,7 Z " fill="#ADAEAE" transform="translate(48,24)"/>
<path d="M0,0 L1,4 L-1,3 Z M-7,2 L-2,2 L-1,5 L-2,6 L-7,6 Z " fill="#B7B7B7" transform="translate(112,63)"/>
<path d="M0,0 L4,0 L4,6 L1,6 L0,8 Z " fill="#9C9C9C" transform="translate(47,49)"/>
<path d="M0,0 L4,1 L3,6 L-1,5 Z " fill="#ADAEAE" transform="translate(112,49)"/>
<path d="M0,0 L2,1 L-4,9 L-6,8 L-4,4 Z " fill="#CDCDCD" transform="translate(190,195)"/>
<path d="M0,0 L3,0 L1,5 L-1,5 L-1,8 L-4,9 L-2,4 L-1,2 L-3,1 Z " fill="#DDDDDD" transform="translate(197,181)"/>
<path d="M0,0 L4,2 L3,7 L1,8 L-1,7 L0,4 Z " fill="#959595" transform="translate(146,157)"/>
<path d="M0,0 L4,2 L3,6 L-1,5 Z " fill="#B3B3B3" transform="translate(122,205)"/>
<path d="M0,0 L7,0 L5,1 L5,6 L1,6 Z " fill="#E0E0E0" transform="translate(47,188)"/>
<path d="M0,0 L8,0 L8,1 L1,2 L-3,8 L-4,8 L-4,3 Z " fill="#CACACB" transform="translate(171,182)"/>
<path d="M0,0 L4,2 L3,6 L-1,5 Z " fill="#AAABAB" transform="translate(65,80)"/>
<path d="M0,0 L5,1 L5,3 L8,2 L7,6 L3,5 L3,1 L1,1 L0,5 Z " fill="#9C9C9C" transform="translate(100,26)"/>
<path d="M0,0 L1,0 L1,7 L-3,7 L-3,2 Z " fill="#9B9B9B" transform="translate(136,204)"/>
<path d="M0,0 L3,0 L2,7 L-2,6 Z " fill="#E0E0E1" transform="translate(160,196)"/>
<path d="M0,0 L2,0 L0,4 L-5,8 L-4,4 Z " fill="#B4B4B4" transform="translate(200,189)"/>
<path d="M0,0 L2,0 L0,4 L-5,8 L-4,4 Z " fill="#B7B7B7" transform="translate(207,181)"/>
<path d="M0,0 L5,1 L4,5 L0,4 Z " fill="#ADADAD" transform="translate(69,159)"/>
<path d="M0,0 L1,0 L1,7 L-3,7 L-3,2 L0,2 Z " fill="#9A9A9A" transform="translate(84,157)"/>
<path d="M0,0 L2,0 L3,8 L-2,8 L0,7 L-1,2 Z " fill="#A5A5A5" transform="translate(152,203)"/>
<path d="M0,0 L4,0 L4,5 L0,5 Z " fill="#AEAEAE" transform="translate(88,190)"/>
<path d="M0,0 L4,0 L4,5 L0,5 Z " fill="#ADADAD" transform="translate(116,159)"/>
<path d="M0,0 L4,0 L4,5 L0,5 Z " fill="#A0A1A1" transform="translate(71,26)"/>
<path d="M0,0 L3,1 L-2,6 L-4,6 L-3,2 Z " fill="#B7B7B7" transform="translate(169,219)"/>
<path d="M0,0 L3,1 L-5,7 L-6,4 L-1,3 Z " fill="#ABABAB" transform="translate(185,205)"/>
<path d="M0,0 L2,0 L2,6 L0,8 L-2,7 Z " fill="#A7A8A8" transform="translate(170,188)"/>
<path d="M0,0 L5,0 L2,1 L2,3 L4,4 L2,4 L2,7 L0,7 Z " fill="#A2A2A2" transform="translate(140,79)"/>
<path d="M0,0 L2,0 L3,6 L-2,6 Z " fill="#939393" transform="translate(148,64)"/>
<path d="M0,0 L2,1 L1,3 L-1,3 L-2,8 L-5,6 L-3,6 L-2,2 Z " fill="#B6B6B6" transform="translate(171,185)"/>
<path d="M0,0 L2,1 L3,7 L-2,7 L0,6 L-1,1 Z " fill="#A4A4A4" transform="translate(89,79)"/>
<path d="M0,0 L5,0 L6,2 L4,5 L1,5 Z " fill="#D2D2D2" transform="translate(53,63)"/>
<path d="M0,0 L1,0 L2,7 L-1,10 L-1,3 Z " fill="#C4C4C5" transform="translate(162,211)"/>
<path d="M0,0 L2,1 L3,7 L-1,6 L-1,1 Z " fill="#A9A9A9" transform="translate(99,204)"/>
<path d="M0,0 L1,0 L1,6 L3,6 L3,8 L-2,8 L-2,6 L0,6 L-1,2 Z " fill="#A5A5A5" transform="translate(125,188)"/>
<path d="M0,0 L8,0 L4,3 L-1,2 Z " fill="#BABABB" transform="translate(188,181)"/>
<path d="M0,0 L4,0 L4,5 L2,4 L1,5 L0,5 Z " fill="#8E8E8E" transform="translate(129,65)"/>
</svg>
