<?xml version="1.0" encoding="UTF-8"?>
<!-- Generator: visioncortex VTracer 0.6.5 -->
<svg version="1.1" xmlns="http://www.w3.org/2000/svg" width="960" height="960">
<path d="M0,0 L724,0 L742,2 L756,6 L765,13 L770,21 L771,30 L773,30 L774,37 L777,38 L777,649 L774,653 L770,670 L765,679 L758,688 L746,702 L734,716 L721,731 L710,743 L703,751 L694,761 L685,771 L674,783 L660,798 L628,830 L620,837 L608,848 L597,857 L585,868 L574,877 L564,886 L553,895 L538,908 L527,917 L513,928 L501,934 L486,938 L479,939 L461,940 L9,940 L-10,939 L-27,935 L-37,930 L-39,926 L-42,925 L-46,918 L-47,916 L-47,909 L-49,909 L-49,902 L-53,902 L-53,38 L-50,37 L-49,30 L-47,30 L-46,21 L-41,13 L-32,6 L-13,1 Z " fill="#F5F6F6" transform="translate(118,14)"/>
<path d="M0,0 L724,0 L742,2 L756,6 L765,13 L770,21 L771,30 L773,30 L774,37 L777,38 L777,649 L774,653 L770,670 L765,679 L758,688 L746,702 L734,716 L721,731 L710,743 L703,751 L694,761 L685,771 L674,783 L660,798 L628,830 L620,837 L608,848 L597,857 L585,868 L574,877 L564,886 L553,895 L538,908 L527,917 L513,928 L501,934 L486,938 L479,939 L461,940 L9,940 L-10,939 L-27,935 L-37,930 L-39,926 L-42,925 L-46,918 L-47,916 L-47,909 L-49,909 L-49,902 L-53,902 L-53,38 L-50,37 L-49,30 L-47,30 L-46,21 L-41,13 L-32,6 L-13,1 Z M2,46 L2,886 L477,886 L487,877 L498,868 L513,855 L524,846 L536,835 L547,826 L561,813 L569,806 L581,795 L594,783 L603,774 L609,769 L616,761 L627,750 L634,742 L647,728 L654,720 L663,710 L672,699 L683,687 L692,676 L701,666 L710,655 L722,641 L722,46 Z " fill="#000000" transform="translate(118,14)"/>
<path d="M0,0 L42,0 L51,43 L59,81 L67,119 L73,148 L77,164 L84,126 L91,95 L98,61 L106,26 L111,2 L112,0 L159,0 L167,37 L176,76 L184,112 L191,150 L193,164 L195,158 L204,114 L209,90 L218,47 L224,16 L228,0 L270,0 L265,23 L259,48 L252,75 L247,96 L239,129 L231,163 L226,182 L221,203 L219,210 L170,210 L168,204 L159,162 L150,123 L144,94 L138,66 L135,46 L128,82 L122,110 L114,145 L108,174 L100,210 L50,210 L42,178 L37,157 L30,127 L24,102 L18,79 L13,58 L6,28 L1,9 Z " fill="#BF5F01" transform="translate(335,358)"/>
<path d="M0,0 L49,0 L53,10 L76,78 L91,121 L116,195 L120,206 L120,210 L79,210 L63,160 L62,157 L-13,157 L-29,206 L-30,210 L-72,210 L-69,199 L-54,155 L-39,112 L-19,53 L-4,10 Z " fill="#BF5F01" transform="translate(222,358)"/>
<path d="M0,0 L2,1 L-10,15 L-21,28 L-33,42 L-45,56 L-54,66 L-61,74 L-70,84 L-77,92 L-88,104 L-99,116 L-108,125 L-113,131 L-121,138 L-132,149 L-140,156 L-155,170 L-163,177 L-173,186 L-184,195 L-196,206 L-207,215 L-222,228 L-235,239 L-240,242 L-238,235 L-230,222 L-226,214 L-229,201 L-229,172 L-228,162 L-235,162 L-235,159 L-227,159 L-227,129 L-234,129 L-234,127 L-224,127 L-223,153 L-222,150 L-220,150 L-219,139 L-216,133 L-214,133 L-213,126 L-210,121 L-207,108 L-205,92 L-205,89 L-193,91 L-194,87 L-204,83 L-205,77 L-205,74 L-207,74 L-205,69 L-207,69 L-205,64 L-198,55 L-196,49 L-188,42 L-185,41 L-182,38 L-176,34 L-174,35 L-174,37 L-169,35 L-169,33 L-166,34 L-164,34 L-160,34 L-160,32 L-157,33 L-158,34 L-151,33 L-152,35 L-147,34 L-136,29 L-130,27 L-126,28 L-122,28 L-110,25 L-103,23 L-98,23 L-93,22 L-87,21 L-76,20 L-55,21 L-47,22 L-41,22 L-20,11 Z M-177,38 Z M-178,39 Z M-196,51 Z M-196,57 Z M-197,58 L-201,62 L-201,65 L-198,64 L-196,58 Z M-202,65 Z M-203,66 Z M-67,19 Z M-207,100 Z " fill="#DCDCDC" transform="translate(836,656)"/>
<path d="M0,0 L42,0 L43,93 L54,82 L61,74 L68,67 L75,59 L82,52 L89,44 L97,36 L104,28 L111,21 L118,13 L130,0 L178,0 L172,8 L158,22 L151,30 L139,42 L132,50 L120,62 L113,70 L102,81 L96,88 L98,93 L110,108 L124,127 L140,148 L154,167 L170,188 L185,208 L186,210 L137,210 L127,197 L114,179 L102,163 L88,144 L74,125 L67,115 L62,117 L53,125 L43,133 L42,210 L0,210 Z " fill="#BF5F02" transform="translate(624,358)"/>
<path d="M0,0 L8,1 L8,3 L17,3 L19,5 L-7,17 L-36,28 L-59,35 L-83,40 L-100,42 L-109,42 L-109,51 L-111,68 L-117,96 L-128,129 L-140,157 L-142,160 L-144,160 L-144,150 L-141,132 L-136,117 L-131,90 L-130,87 L-128,87 L-127,77 L-126,72 L-135,72 L-138,91 L-143,109 L-144,115 L-146,115 L-147,123 L-153,151 L-154,154 L-155,175 L-157,176 L-158,173 L-158,151 L-158,148 L-160,148 L-161,140 L-168,140 L-168,137 L-160,137 L-160,107 L-167,107 L-167,105 L-157,105 L-156,131 L-155,128 L-153,128 L-152,117 L-149,111 L-147,111 L-146,104 L-143,99 L-140,86 L-138,70 L-138,67 L-126,69 L-127,65 L-137,61 L-138,55 L-138,52 L-140,52 L-138,47 L-140,47 L-138,42 L-131,33 L-129,27 L-121,20 L-118,19 L-115,16 L-109,12 L-107,13 L-107,15 L-102,13 L-102,11 L-99,12 L-97,12 L-93,12 L-93,10 L-90,11 L-91,12 L-84,11 L-85,13 L-72,12 L-66,10 L-58,9 L-50,6 L-45,7 L-22,4 L-16,2 Z M-110,16 Z M-111,17 Z M-129,29 Z M-129,35 Z M-130,36 L-134,40 L-134,43 L-131,42 L-129,36 Z M-135,43 Z M-136,44 Z M-140,78 Z M-159,155 Z " fill="#D4D4D4" transform="translate(769,678)"/>
<path d="M0,0 L8,0 L8,2 L-11,9 L-36,16 L-58,20 L-69,21 L-78,21 L-78,30 L-80,47 L-86,75 L-97,108 L-109,136 L-111,139 L-113,139 L-113,129 L-110,111 L-105,96 L-100,69 L-99,66 L-97,66 L-96,56 L-95,51 L-104,51 L-107,70 L-112,88 L-113,94 L-115,94 L-116,102 L-122,130 L-123,133 L-124,154 L-126,155 L-127,152 L-127,130 L-127,127 L-129,127 L-130,119 L-137,119 L-137,116 L-129,116 L-129,86 L-136,86 L-136,84 L-126,84 L-125,110 L-124,107 L-122,107 L-121,96 L-118,90 L-116,90 L-115,83 L-112,78 L-109,65 L-107,49 L-107,46 L-95,48 L-96,44 L-106,40 L-107,34 L-104,31 L-95,31 L-92,34 L-92,36 L-95,36 L-95,34 L-103,34 L-102,38 L-93,39 L-89,40 L-87,30 L-83,20 L-78,14 L-67,11 L-64,9 L-32,6 L-18,3 Z M-109,57 Z M-128,134 Z " fill="#ACADAD" transform="translate(738,699)"/>
<path d="M0,0 L2,2 L5,13 L16,48 L28,85 L28,90 L-28,90 L-25,79 L-7,23 Z " fill="#F4F3F2" transform="translate(246,391)"/>
<path d="M0,0 L10,1 L9,10 L8,16 L6,16 L4,31 L0,49 L-4,61 L-7,79 L-8,89 L-6,89 L-8,95 L-16,111 L-18,112 L-19,101 L-19,83 L-13,58 L-10,44 L-8,44 L-8,38 L-5,26 L-3,20 L0,2 Z " fill="#C5C6C6" transform="translate(633,749)"/>
<path d="M0,0 L14,0 L11,3 L-7,10 L-7,8 L-40,13 L-47,15 L-79,18 L-82,20 L-93,22 L-95,26 L-98,29 L-102,40 L-104,48 L-113,48 L-118,46 L-119,42 L-118,41 L-112,41 L-110,42 L-110,44 L-107,44 L-110,40 L-117,39 L-117,38 L-111,38 L-108,29 L-102,20 L-93,14 L-77,10 L-41,7 L-32,5 Z " fill="#B9B9B9" transform="translate(753,691)"/>
<path d="M0,0 L24,0 L24,3 L14,8 L-2,8 L-41,14 L-51,16 L-79,18 L-95,22 L-105,29 L-113,45 L-117,45 L-116,40 L-109,26 L-102,19 L-97,19 L-93,16 L-86,15 L-76,15 L-63,13 L-61,12 L-39,9 L-23,4 Z " fill="#CBCBCB" transform="translate(755,684)"/>
<path d="M0,0 L1,0 L1,15 L-4,36 L-6,47 L-8,52 L-8,65 L-19,90 L-22,91 L-22,81 L-19,63 L-14,48 L-9,21 L-8,18 L-6,18 L-5,8 L-4,4 L-2,4 Z " fill="#B7B7B7" transform="translate(647,747)"/>
<path d="M0,0 L2,3 L-2,25 L-4,31 L-7,44 L-9,44 L-10,52 L-16,80 L-17,83 L-18,104 L-20,105 L-21,102 L-21,80 L-21,77 L-23,77 L-24,69 L-31,69 L-31,66 L-23,66 L-23,36 L-30,36 L-30,34 L-20,34 L-19,60 L-18,57 L-16,57 L-15,46 L-12,40 L-10,40 L-9,33 L-6,28 L-3,15 L-1,1 Z M-3,7 Z M-22,84 Z " fill="#D3D3D4" transform="translate(632,749)"/>
<path d="M0,0 L1,4 L-1,11 L-2,22 L-4,22 L-4,34 L-6,42 L-11,65 L-9,66 L-16,85 L-18,87 L-18,75 L-15,67 L-12,50 L-9,38 L-9,24 L-11,27 L-22,26 L-25,24 L-25,21 L-13,23 L-14,19 L-24,15 L-25,9 L-22,6 L-13,6 L-10,9 L-10,11 L-13,11 L-13,9 L-21,9 L-20,13 L-11,16 L-8,20 L-5,13 L-2,3 Z " fill="#A7A7A7" transform="translate(656,724)"/>
<path d="M0,0 L4,1 L3,12 L-5,48 L-9,64 L-11,72 L-13,72 L-14,79 L-14,102 L-13,105 L-16,111 L-18,112 L-19,101 L-19,83 L-13,58 L-10,44 L-8,44 L-8,38 L-5,26 L-3,20 L0,2 Z " fill="#CCCDCD" transform="translate(633,749)"/>
<path d="M0,0 L12,0 L17,4 L16,9 L14,12 L18,15 L18,21 L13,25 L0,25 Z " fill="#545454" transform="translate(180,245)"/>
<path d="M0,0 L9,0 L15,3 L18,8 L18,16 L15,22 L10,25 L0,25 Z " fill="#5C5C5C" transform="translate(225,725)"/>
<path d="M0,0 L14,0 L11,3 L3,6 L3,4 L-17,6 L-30,8 L-39,10 L-52,12 L-84,14 L-94,18 L-99,20 L-101,25 L-107,34 L-109,37 L-111,36 L-104,22 L-93,14 L-77,10 L-41,7 L-32,5 Z " fill="#C2C2C2" transform="translate(753,691)"/>
<path d="M0,0 L7,1 L10,5 L10,16 L6,21 L0,21 L-2,20 L-3,29 L-7,29 L-7,1 L-2,2 Z " fill="#696A6A" transform="translate(187,189)"/>
<path d="M0,0 L4,0 L4,28 L-1,27 L-2,28 L-9,28 L-13,23 L-13,13 L-9,8 L-2,8 L0,9 Z " fill="#575757" transform="translate(620,722)"/>
<path d="M0,0 L3,0 L4,2 L6,0 L13,0 L17,5 L17,13 L14,19 L12,20 L6,20 L4,18 L3,27 L0,27 Z " fill="#595959" transform="translate(240,790)"/>
<path d="M0,0 L3,0 L3,27 L-10,27 L-13,24 L-13,10 L-10,7 L-3,7 L-1,9 Z " fill="#4F4F4F" transform="translate(523,783)"/>
<path d="M0,0 L3,0 L3,27 L0,27 L-1,25 L-3,27 L-10,27 L-13,22 L-13,11 L-10,7 L-2,7 L-1,8 Z " fill="#575757" transform="translate(323,603)"/>
<path d="M0,0 L3,0 L3,27 L0,27 L-1,25 L-3,27 L-10,27 L-13,22 L-13,11 L-10,7 L-2,7 L-1,8 Z " fill="#545454" transform="translate(598,183)"/>
<path d="M0,0 L3,0 L4,8 L5,7 L13,7 L16,10 L16,23 L12,27 L6,27 L4,25 L3,27 L0,27 Z " fill="#555555" transform="translate(340,93)"/>
<path d="M0,0 L9,0 L13,4 L14,6 L14,13 L11,18 L8,20 L1,20 L-4,15 L-4,5 Z " fill="#555555" transform="translate(431,190)"/>
<path d="M0,0 L9,0 L13,4 L14,6 L14,13 L11,18 L8,20 L1,20 L-3,16 L-4,14 L-4,5 Z " fill="#555555" transform="translate(566,730)"/>
<path d="M0,0 L8,0 L12,4 L13,6 L13,13 L10,18 L7,20 L0,20 L-5,15 L-5,5 Z " fill="#5B5B5B" transform="translate(342,730)"/>
<path d="M0,0 L8,0 L13,5 L13,13 L10,18 L7,20 L0,20 L-4,16 L-5,13 L-5,5 Z " fill="#5D5D5D" transform="translate(469,790)"/>
<path d="M0,0 L8,0 L12,4 L13,6 L13,13 L10,18 L7,20 L0,20 L-4,16 L-5,13 L-5,5 Z " fill="#575757" transform="translate(522,190)"/>
<path d="M0,0 L9,0 L13,4 L13,15 L8,20 L1,20 L-4,15 L-4,5 Z " fill="#4E4E4E" transform="translate(250,310)"/>
<path d="M0,0 L9,0 L13,5 L13,14 L10,19 L8,20 L0,20 L-4,15 L-4,4 Z " fill="#545454" transform="translate(269,610)"/>
<path d="M0,0 L9,0 L13,5 L13,14 L10,19 L8,20 L1,20 L-4,15 L-4,4 Z " fill="#555555" transform="translate(449,610)"/>
<path d="M0,0 L9,0 L13,5 L13,14 L10,19 L8,20 L1,20 L-4,15 L-4,4 Z " fill="#545454" transform="translate(404,610)"/>
<path d="M0,0 L2,0 L2,2 L7,3 L10,6 L10,8 L6,7 L2,5 L3,12 L9,15 L11,17 L10,24 L7,26 L2,26 L2,29 L0,29 L0,26 L-5,26 L-9,22 L-9,20 L-6,19 L-3,23 L0,24 L0,15 L-6,13 L-8,11 L-7,4 L-4,2 L0,2 Z " fill="#545454" transform="translate(565,603)"/>
<path d="M0,0 L2,3 L0,19 L-3,32 L-6,37 L-8,44 L-10,45 L-12,50 L-14,61 L-16,61 L-17,65 L-18,65 L-18,56 L-16,56 L-14,44 L-12,37 L-10,37 L-9,30 L-6,24 L-7,23 L-9,25 L-8,21 L-6,16 L-7,11 L-2,2 L0,2 Z M-1,11 Z M-4,19 L-5,21 L-3,21 Z M-8,15 Z " fill="#D8D8D9" transform="translate(630,745)"/>
<path d="M0,0 L3,1 L2,2 L9,1 L7,4 L-5,6 L-10,9 L-23,14 L-28,18 L-30,18 L-32,22 L-37,27 L-40,30 L-43,35 L-47,37 L-45,32 L-38,23 L-36,17 L-28,10 L-25,9 L-22,6 L-16,2 L-14,3 L-14,5 L-9,3 L-9,1 L-6,2 L-4,2 L0,2 Z M-17,6 Z M-18,7 Z M-36,19 Z " fill="#DBDBDB" transform="translate(676,688)"/>
<path d="M0,0 L4,1 L3,18 L-2,44 L-8,65 L-9,67 L-11,67 L-12,69 L-10,56 L-7,44 L-5,36 L-4,24 L-2,24 L-2,13 L0,6 Z " fill="#A0A0A1" transform="translate(656,722)"/>
<path d="M0,0 L1,0 L1,15 L-4,36 L-6,47 L-8,52 L-8,65 L-13,76 L-14,76 L-14,65 L-10,47 L-5,19 L-1,1 Z " fill="#AEAEAE" transform="translate(647,747)"/>
<path d="M0,0 L5,1 L13,23 L13,25 L9,24 L7,19 L-4,18 L-5,24 L-9,25 L-8,20 L-1,1 Z " fill="#585858" transform="translate(569,245)"/>
<path d="M0,0 L5,0 L13,17 L14,0 L17,0 L17,25 L12,24 L5,9 L4,25 L0,25 Z " fill="#666666" transform="translate(516,305)"/>
<path d="M0,0 L5,1 L12,16 L13,0 L17,0 L17,25 L12,25 L4,8 L3,25 L0,25 Z " fill="#646464" transform="translate(270,245)"/>
<path d="M0,0 L5,0 L13,17 L14,0 L17,0 L17,25 L12,24 L5,9 L4,25 L0,25 Z " fill="#525252" transform="translate(202,725)"/>
<path d="M0,0 L6,0 L5,9 L4,15 L2,15 L0,30 L-4,48 L-8,60 L-11,78 L-12,88 L-10,88 L-11,91 L-14,90 L-14,75 L-10,54 L-6,39 L-1,21 L3,1 Z " fill="#BFBFBF" transform="translate(637,750)"/>
<path d="M0,0 L9,0 L12,3 L13,17 L15,18 L15,20 L10,20 L8,17 L5,20 L-2,20 L-4,17 L-4,11 L-1,8 L9,8 L7,3 L2,3 L0,5 L-3,5 L-2,1 Z " fill="#5B5B5B" transform="translate(433,100)"/>
<path d="M0,0 L9,0 L12,3 L13,17 L15,18 L15,20 L10,19 L7,19 L5,20 L-1,20 L-3,18 L-3,10 L0,8 L9,8 L7,3 L2,3 L1,5 L-2,5 L-1,1 Z " fill="#5A5A5A" transform="translate(498,250)"/>
<path d="M0,0 L2,0 L1,7 L7,6 L9,0 L11,0 L10,7 L14,7 L14,10 L9,11 L8,15 L12,15 L12,17 L7,17 L6,25 L4,25 L5,17 L-2,17 L-2,24 L-5,25 L-4,19 L-3,17 L-7,17 L-7,15 L-3,15 L-2,10 L-6,10 L-6,7 L-1,7 Z " fill="#6A6A6A" transform="translate(187,95)"/>
<path d="M0,0 L9,0 L13,5 L13,10 L-1,10 L1,16 L8,16 L12,15 L10,19 L8,20 L0,20 L-4,15 L-4,4 Z " fill="#4E4E4E" transform="translate(364,190)"/>
<path d="M0,0 L9,0 L13,5 L13,10 L-1,10 L1,16 L8,16 L12,15 L10,19 L8,20 L1,20 L-4,15 L-4,4 Z " fill="#545454" transform="translate(494,610)"/>
<path d="M0,0 L17,0 L17,3 L4,3 L4,11 L16,11 L16,13 L4,13 L4,22 L18,22 L18,25 L0,25 Z " fill="#555555" transform="translate(202,245)"/>
<path d="M0,0 L4,0 L6,13 L9,5 L13,5 L15,11 L17,4 L18,0 L21,0 L20,13 L18,20 L14,20 L12,14 L12,9 L10,9 L8,18 L7,20 L3,20 L0,3 Z " fill="#616161" transform="translate(240,610)"/>
<path d="M0,0 L9,0 L13,4 L13,6 L9,5 L8,4 L1,4 L0,6 L0,17 L2,21 L9,21 L10,15 L4,15 L4,12 L13,12 L13,23 L8,25 L1,25 L-3,21 L-5,16 L-5,7 L-2,2 Z " fill="#555656" transform="translate(229,245)"/>
<path d="M0,0 L3,0 L5,11 L7,8 L8,5 L13,6 L15,13 L18,0 L21,0 L20,10 L18,20 L13,19 L10,10 L7,20 L3,20 L1,12 Z " fill="#595959" transform="translate(450,100)"/>
<path d="M0,0 L4,0 L6,15 L9,5 L13,5 L16,12 L18,0 L22,0 L19,19 L15,20 L13,17 L12,9 L10,9 L8,20 L3,20 Z " fill="#5D5D5D" transform="translate(465,610)"/>
<path d="M0,0 L10,0 L13,3 L13,6 L10,6 L7,3 L2,3 L1,8 L13,13 L14,15 L14,21 L11,24 L9,25 L0,25 L-5,20 L-5,18 L-1,18 L1,21 L9,21 L10,16 L-1,12 L-4,9 L-3,2 Z " fill="#555555" transform="translate(386,245)"/>
<path d="M0,0 L3,0 L5,11 L6,12 L9,5 L13,6 L15,14 L17,1 L21,0 L19,14 L18,20 L13,19 L10,10 L7,20 L2,20 L0,6 Z " fill="#5A5A5A" transform="translate(493,190)"/>
<path d="M0,0 L3,0 L6,12 L9,5 L13,6 L15,12 L18,0 L21,0 L20,11 L18,20 L14,20 L11,10 L7,20 L3,20 L0,5 Z " fill="#5B5B5B" transform="translate(440,790)"/>
<path d="M0,0 L3,0 L5,13 L9,5 L13,6 L15,14 L18,0 L21,0 L19,16 L18,20 L13,19 L10,10 L7,20 L2,20 Z " fill="#585858" transform="translate(538,730)"/>
<path d="M0,0 L17,0 L17,3 L3,3 L3,11 L16,11 L16,13 L3,13 L3,22 L18,22 L18,25 L0,25 Z " fill="#515151" transform="translate(180,725)"/>
<path d="M0,0 L11,0 L11,3 L4,3 L4,33 L11,33 L11,36 L0,36 Z " fill="#686868" transform="translate(559,782)"/>
<path d="M0,0 L18,0 L17,4 L5,20 L4,21 L19,22 L19,25 L-1,25 L0,20 L13,4 L0,3 Z " fill="#595959" transform="translate(607,245)"/>
<path d="M0,0 L17,0 L17,3 L4,3 L4,12 L16,12 L16,15 L4,15 L4,25 L0,25 Z " fill="#5A5B5B" transform="translate(539,305)"/>
<path d="M0,0 L3,0 L3,11 L13,11 L13,0 L16,0 L16,25 L13,25 L13,13 L3,13 L3,25 L0,25 Z " fill="#494949" transform="translate(338,185)"/>
<path d="M0,0 L7,1 L10,4 L10,13 L7,18 L0,19 Z " fill="#F7F7F7" transform="translate(229,728)"/>
<path d="M0,0 L4,0 L4,22 L10,22 L10,25 L-8,25 L-8,22 L0,22 L0,5 L-5,7 L-8,7 L-8,4 L-1,1 Z " fill="#636464" transform="translate(389,305)"/>
<path d="M0,0 L15,0 L15,3 L10,3 L10,22 L15,22 L15,25 L0,25 L0,22 L6,22 L6,3 L0,3 Z " fill="#575858" transform="translate(248,245)"/>
<path d="M0,0 L3,0 L4,15 L11,7 L15,8 L9,16 L16,26 L12,27 L6,19 L4,19 L3,27 L0,27 Z " fill="#4D4E4E" transform="translate(476,93)"/>
<path d="M0,0 L10,0 L10,2 L2,3 L1,7 L10,7 L10,10 L1,10 L1,27 L-3,27 L-3,10 L-8,10 L-8,7 L-3,7 L-2,2 Z " fill="#626262" transform="translate(231,303)"/>
<path d="M0,0 L9,0 L9,2 L3,3 L2,13 L0,18 L2,21 L3,31 L9,32 L9,34 L0,34 L-2,31 L-3,20 L-7,18 L-7,16 L-3,14 L-2,3 Z " fill="#616161" transform="translate(278,723)"/>
<path d="M0,0 L3,0 L4,16 L10,16 L11,15 L12,0 L16,0 L16,20 L11,19 L9,20 L3,20 L0,17 Z " fill="#626262" transform="translate(250,100)"/>
<path d="M0,0 L10,0 L10,2 L3,3 L1,7 L10,7 L10,10 L1,10 L1,27 L-3,27 L-3,10 L-7,10 L-7,7 L-2,7 L-2,2 Z " fill="#646464" transform="translate(322,723)"/>
<path d="M0,0 L8,0 L8,2 L3,3 L2,13 L0,18 L2,20 L3,31 L8,32 L8,34 L0,34 L-2,31 L-3,20 L-7,18 L-7,16 L-3,14 L-2,3 Z " fill="#5D5D5D" transform="translate(323,243)"/>
<path d="M0,0 L4,1 L5,0 L13,0 L16,4 L16,20 L12,20 L11,4 L6,3 L4,5 L3,20 L0,20 Z " fill="#686868" transform="translate(308,790)"/>
<path d="M0,0 L4,1 L6,0 L13,0 L16,3 L16,20 L12,20 L12,3 L6,3 L4,6 L3,20 L0,20 Z " fill="#616161" transform="translate(385,100)"/>
<path d="M0,0 L10,0 L10,2 L3,3 L1,7 L10,7 L10,10 L1,10 L1,27 L-3,27 L-3,9 L-7,9 L-7,7 L-2,7 L-2,2 Z " fill="#5E5E5E" transform="translate(549,93)"/>
<path d="M0,0 L16,0 L16,3 L3,3 L3,12 L16,12 L16,15 L3,15 L3,25 L0,25 Z " fill="#4E4E4E" transform="translate(361,245)"/>
<path d="M0,0 L3,0 L4,2 L6,0 L13,0 L16,3 L16,20 L12,20 L11,3 L6,3 L4,5 L3,20 L0,20 Z " fill="#606161" transform="translate(248,190)"/>
<path d="M0,0 L16,0 L15,4 L5,16 L17,17 L17,20 L0,20 L1,15 L10,5 L11,3 L0,3 Z " fill="#616161" transform="translate(540,250)"/>
<path d="M0,0 L10,0 L10,3 L3,3 L3,33 L10,33 L10,36 L0,36 Z " fill="#595959" transform="translate(455,242)"/>
<path d="M0,0 L9,0 L12,2 L12,5 L9,5 L9,3 L0,3 L2,7 L11,10 L13,12 L12,18 L9,20 L0,20 L-3,18 L-3,15 L0,15 L0,17 L9,17 L7,12 L-2,9 L-3,3 Z " fill="#636363" transform="translate(536,790)"/>
<path d="M0,0 L9,0 L12,3 L12,5 L8,4 L7,3 L1,3 L2,7 L11,10 L12,11 L12,17 L8,20 L-1,20 L-4,17 L-4,15 L0,16 L8,16 L8,13 L-2,9 L-3,8 L-3,2 Z " fill="#535454" transform="translate(276,100)"/>
<path d="M0,0 L3,0 L3,5 L11,5 L11,8 L3,8 L3,22 L11,22 L11,24 L9,25 L2,25 L-1,22 L-1,8 L-4,8 L-4,5 L0,5 Z " fill="#646464" transform="translate(334,785)"/>
<path d="M0,0 L9,0 L9,25 L16,25 L16,28 L8,28 L5,26 L5,3 L0,3 Z " fill="#676767" transform="translate(407,182)"/>
<path d="M0,0 L5,0 L8,3 L8,12 L6,15 L-1,15 L-3,11 L-3,4 Z " fill="#E9EAEA" transform="translate(252,312)"/>
<path d="M0,0 L10,0 L10,17 L17,17 L17,20 L-2,20 L-2,17 L6,17 L6,3 L0,3 Z " fill="#686868" transform="translate(450,310)"/>
<path d="M0,0 L9,0 L12,3 L12,5 L9,5 L9,3 L1,3 L2,7 L11,10 L13,12 L12,17 L8,20 L0,20 L-3,18 L-3,15 L9,17 L8,13 L-2,9 L-3,3 Z " fill="#484848" transform="translate(634,730)"/>
<path d="M0,0 L5,0 L8,4 L8,11 L6,15 L-1,15 L-3,11 L-3,3 Z " fill="#F5F5F5" transform="translate(451,612)"/>
<path d="M0,0 L5,0 L8,4 L8,11 L6,15 L-1,15 L-3,11 L-3,3 Z " fill="#F4F4F4" transform="translate(406,612)"/>
<path d="M0,0 L5,0 L8,4 L8,11 L6,15 L-1,15 L-3,11 L-3,3 Z " fill="#F1F1F1" transform="translate(271,612)"/>
<path d="M0,0 L4,1 L5,0 L13,0 L15,2 L15,20 L12,20 L11,4 L6,3 L4,5 L3,20 L0,20 Z " fill="#565656" transform="translate(496,730)"/>
<path d="M0,0 L9,0 L12,2 L12,4 L2,3 L1,7 L10,9 L13,12 L13,17 L9,20 L0,20 L-3,17 L-3,15 L1,16 L9,16 L9,13 L0,10 L-2,8 L-2,2 Z " fill="#585858" transform="translate(336,610)"/>
<path d="M0,0 L3,1 L-6,6 L-13,14 L-19,26 L-20,30 L-25,32 L-26,30 L-29,31 L-27,26 L-25,26 L-23,22 L-20,19 L-14,10 L-9,5 L-3,1 Z " fill="#D5D5D5" transform="translate(658,699)"/>
<path d="M0,0 L8,0 L8,2 L2,2 L1,15 L-2,16 L-2,18 L1,19 L2,32 L8,32 L8,34 L0,34 L-2,31 L-3,20 L-7,18 L-7,16 L-3,14 L-2,2 Z " fill="#4E4E4E" transform="translate(187,303)"/>
<path d="M0,0 L5,0 L7,2 L7,13 L4,16 L-1,15 L-3,11 L-3,4 Z " fill="#EEEEEE" transform="translate(246,792)"/>
<path d="M0,0 L8,0 L10,2 L11,14 L15,16 L15,18 L11,20 L10,31 L8,34 L0,34 L0,32 L6,31 L7,19 L10,18 L10,16 L7,15 L6,3 L0,2 Z " fill="#8F8F8F" transform="translate(698,243)"/>
<path d="M0,0 L7,1 L8,3 L8,13 L6,15 L0,15 L-2,13 L-2,2 Z " fill="#EDEEEE" transform="translate(433,192)"/>
<path d="M0,0 L8,0 L10,2 L11,15 L15,16 L15,18 L11,21 L10,32 L8,34 L0,34 L0,32 L6,31 L7,20 L9,16 L7,14 L6,3 L0,2 Z " fill="#505050" transform="translate(180,843)"/>
<path d="M0,0 L7,1 L8,3 L8,13 L6,15 L0,15 L-2,13 L-2,3 Z " fill="#ECECEC" transform="translate(568,732)"/>
<path d="M0,0 L8,0 L10,2 L11,15 L15,16 L15,18 L11,21 L10,32 L8,34 L0,34 L0,32 L6,31 L7,20 L9,16 L7,14 L6,3 L0,2 Z " fill="#505050" transform="translate(180,663)"/>
<path d="M0,0 L2,0 L2,5 L10,5 L10,8 L3,8 L3,22 L11,22 L11,24 L9,25 L2,25 L-1,22 L-1,7 L-4,7 L-4,5 L-1,4 Z " fill="#5F5F5F" transform="translate(382,605)"/>
<path d="M0,0 L7,1 L8,3 L8,13 L6,15 L0,15 L-2,13 L-2,3 Z " fill="#EFF0F0" transform="translate(523,192)"/>
<path d="M0,0 L6,1 L7,3 L7,13 L5,15 L-1,15 L-3,13 L-3,3 Z " fill="#F9F9F9" transform="translate(471,792)"/>
<path d="M0,0 L5,0 L8,3 L8,12 L6,15 L0,15 L-2,13 L-2,2 Z " fill="#F9F9F9" transform="translate(343,732)"/>
<path d="M0,0 L9,0 L9,17 L16,17 L16,20 L-2,20 L-2,17 L5,17 L5,2 L0,2 Z " fill="#5E5E5E" transform="translate(227,190)"/>
<path d="M0,0 L9,0 L9,17 L16,17 L16,20 L-2,20 L-2,17 L5,17 L5,2 L0,2 Z " fill="#5E5E5E" transform="translate(364,100)"/>
<path d="M0,0 L5,0 L8,4 L8,11 L5,15 L-1,15 L-2,13 L-2,2 Z " fill="#EDEDED" transform="translate(515,792)"/>
<path d="M0,0 L10,0 L10,34 L0,34 L0,32 L7,32 L7,2 L0,2 Z " fill="#494949" transform="translate(602,783)"/>
<path d="M0,0 L5,1 L7,3 L7,11 L5,15 L-1,15 L-3,12 L-3,3 Z " fill="#F2F2F2" transform="translate(316,612)"/>
<path d="M0,0 L10,0 L10,34 L0,34 L0,32 L7,32 L7,2 L0,2 Z " fill="#4A4A4A" transform="translate(627,603)"/>
<path d="M0,0 L10,0 L10,34 L0,34 L0,32 L7,32 L7,2 L0,2 Z " fill="#4B4B4B" transform="translate(632,243)"/>
<path d="M0,0 L5,1 L7,3 L7,12 L5,15 L-1,15 L-3,12 L-3,3 Z " fill="#EDEDED" transform="translate(591,192)"/>
<path d="M0,0 L3,0 L3,5 L11,5 L11,8 L3,8 L4,21 L12,22 L11,25 L2,25 L0,23 L0,7 L-3,7 L-3,5 L0,5 Z " fill="#545454" transform="translate(274,185)"/>
<path d="M0,0 L5,1 L7,3 L7,12 L5,15 L-1,15 L-3,12 L-3,4 Z " fill="#E5E6E6" transform="translate(346,102)"/>
<path d="M0,0 L3,0 L1,5 L-2,11 L-2,25 L2,33 L3,36 L-1,35 L-6,27 L-7,23 L-7,13 L-3,4 Z " fill="#5F5F5F" transform="translate(415,722)"/>
<path d="M0,0 L3,0 L1,4 L-2,12 L-2,24 L1,32 L2,35 L-2,34 L-6,26 L-7,23 L-7,12 L-2,2 Z " fill="#5C5C5C" transform="translate(324,302)"/>
<path d="M0,0 L9,0 L9,2 L3,2 L3,32 L9,32 L9,34 L0,34 Z " fill="#4E4E4E" transform="translate(360,603)"/>
<path d="M0,0 L9,0 L9,17 L16,17 L16,20 L-2,20 L-2,17 L6,17 L6,3 L0,3 Z " fill="#5D5D5D" transform="translate(376,790)"/>
<path d="M0,0 L9,0 L9,17 L16,17 L16,20 L-2,20 L-2,17 L6,17 L6,3 L0,3 Z " fill="#5B5B5B" transform="translate(286,790)"/>
<path d="M0,0 L6,1 L7,2 L7,13 L5,15 L-1,15 L-2,13 L-2,2 Z " fill="#E3E3E3" transform="translate(613,732)"/>
<path d="M0,0 L9,0 L9,17 L16,17 L16,20 L-2,20 L-2,17 L6,17 L6,3 L0,3 Z " fill="#5A5A5A" transform="translate(429,730)"/>
<path d="M0,0 L4,1 L9,11 L9,22 L5,32 L3,34 L0,34 L2,29 L4,24 L4,9 L0,2 Z " fill="#5B5B5B" transform="translate(607,603)"/>
<path d="M0,0 L5,1 L6,2 L6,14 L5,15 L-1,15 L-3,13 L-3,3 Z " fill="#E8E9E9" transform="translate(187,192)"/>
<path d="M0,0 L4,1 L3,18 L-1,39 L-3,42 L-3,33 L-1,20 L-1,15 L-2,13 L0,6 Z " fill="#9C9C9D" transform="translate(656,722)"/>
<path d="M0,0 L9,0 L9,17 L16,17 L16,20 L-2,20 L-2,17 L6,17 L6,2 L0,2 Z " fill="#505050" transform="translate(579,790)"/>
<path d="M0,0 L9,0 L9,17 L16,17 L16,20 L-2,20 L-2,17 L6,17 L6,2 L0,2 Z " fill="#565656" transform="translate(474,730)"/>
<path d="M0,0 L5,0 L7,4 L7,8 L5,8 L4,25 L0,25 Z " fill="#6A6A6A" transform="translate(202,725)"/>
<path d="M0,0 L9,0 L9,17 L16,17 L16,20 L-2,20 L-2,17 L6,17 L6,2 L0,2 Z " fill="#5A5A5A" transform="translate(582,610)"/>
<path d="M0,0 L9,0 L9,17 L16,17 L16,20 L-2,20 L-2,17 L6,17 L6,2 L0,2 Z " fill="#555555" transform="translate(608,310)"/>
<path d="M0,0 L9,0 L9,17 L16,17 L16,20 L-2,20 L-2,17 L6,17 L6,2 L0,2 Z " fill="#535353" transform="translate(338,310)"/>
<path d="M0,0 L3,0 L1,5 L-2,11 L-2,24 L2,33 L3,35 L-1,35 L-6,25 L-6,10 Z " fill="#545454" transform="translate(545,602)"/>
<path d="M0,0 L9,0 L12,3 L13,17 L15,18 L15,20 L10,20 L9,16 L7,15 L9,10 L1,11 L2,8 L9,8 L7,3 L2,3 L0,5 L-3,5 L-2,1 Z " fill="#515151" transform="translate(433,100)"/>
<path d="M0,0 L4,1 L8,7 L9,10 L9,24 L5,32 L3,34 L0,33 L4,25 L5,22 L5,12 L2,4 Z " fill="#7E7E7E" transform="translate(678,303)"/>
<path d="M0,0 L8,0 L9,23 L15,24 L15,27 L7,27 L5,25 L5,2 L0,2 Z " fill="#515151" transform="translate(425,603)"/>
<path d="M0,0 L8,0 L9,23 L15,24 L15,27 L7,27 L5,25 L5,2 L0,2 Z " fill="#4F4F4F" transform="translate(565,183)"/>
<path d="M0,0 L8,0 L9,23 L15,24 L15,27 L7,27 L5,25 L5,2 L0,2 Z " fill="#4E4E4E" transform="translate(385,183)"/>
<path d="M0,0 L3,0 L4,2 L6,0 L14,0 L14,3 L7,4 L5,6 L4,20 L0,20 Z " fill="#606060" transform="translate(271,310)"/>
<path d="M0,0 L3,0 L4,3 L7,0 L14,0 L14,3 L7,4 L5,6 L4,20 L0,20 Z " fill="#656565" transform="translate(362,730)"/>
<path d="M0,0 L3,0 L4,3 L7,0 L14,0 L14,3 L7,4 L5,6 L4,20 L0,20 Z " fill="#626363" transform="translate(542,190)"/>
<path d="M0,0 L3,0 L3,8 L11,8 L11,11 L3,11 L3,19 L0,19 L0,11 L-8,11 L-8,8 L0,8 Z " fill="#616161" transform="translate(677,608)"/>
<path d="M0,0 L2,0 L2,3 L-12,9 L2,16 L2,19 L-7,16 L-16,12 L-16,7 Z " fill="#585858" transform="translate(487,308)"/>
<path d="M0,0 L3,0 L3,8 L11,8 L11,11 L3,11 L3,19 L0,19 L0,11 L-8,11 L-8,8 L0,8 Z " fill="#757575" transform="translate(658,308)"/>
<path d="M0,0 L9,0 L12,3 L13,17 L15,18 L15,20 L10,19 L10,16 L8,16 L9,10 L2,10 L3,8 L9,8 L7,3 L2,3 L1,5 L-2,5 L-1,1 Z " fill="#4F4F4F" transform="translate(498,250)"/>
<path d="M0,0 L3,0 L3,8 L11,8 L11,11 L3,11 L3,18 L0,18 L0,11 L-8,11 L-8,8 L0,8 Z " fill="#666666" transform="translate(636,308)"/>
<path d="M0,0 L5,0 L5,2 L-15,6 L-26,6 L-22,2 L-17,1 Z " fill="#A0A1A1" transform="translate(695,713)"/>
<path d="M0,0 L4,0 L5,2 L7,0 L15,0 L15,3 L8,4 L5,8 L4,20 L1,20 Z " fill="#575757" transform="translate(514,610)"/>
<path d="M0,0 L1,2 L11,5 L12,10 L3,10 L-1,7 L-6,13 L-7,10 L-3,5 L-2,2 L0,2 Z " fill="#CBCBCB" transform="translate(631,737)"/>
<path d="M0,0 L4,0 L5,2 L7,0 L15,0 L15,3 L8,4 L5,7 L4,20 L1,20 Z " fill="#545454" transform="translate(289,610)"/>
<path d="M0,0 L2,0 L2,8 L10,8 L10,11 L3,11 L3,18 L-1,18 L-1,11 L-8,11 L-8,8 L0,8 Z " fill="#646464" transform="translate(655,608)"/>
<path d="M0,0 L2,0 L2,26 L0,26 L-2,22 L-2,11 L-8,10 L-13,12 L-11,8 L-10,7 L-3,7 L-1,9 Z " fill="#4C4C4C" transform="translate(621,723)"/>
<path d="M0,0 L8,0 L12,3 L11,7 L9,9 L0,9 Z " fill="#DFE0E0" transform="translate(183,258)"/>
<path d="M0,0 L4,1 L6,1 L7,0 L15,0 L15,3 L6,5 L5,7 L4,20 L1,20 Z " fill="#484949" transform="translate(296,100)"/>
<path d="M0,0 L3,0 L1,6 L-11,28 L-15,27 L-2,3 Z " fill="#555555" transform="translate(241,92)"/>
<path d="M0,0 L4,0 L10,14 L10,17 L7,16 L2,4 L-2,13 L-4,17 L-7,17 L-4,8 Z " fill="#5F5F5F" transform="translate(479,245)"/>
<path d="M0,0 L3,0 L5,2 L7,0 L15,0 L15,3 L6,5 L5,7 L4,20 L1,20 Z " fill="#4A4A4A" transform="translate(204,190)"/>
<path d="M0,0 L4,1 L6,1 L7,0 L14,0 L14,3 L7,4 L5,7 L4,20 L1,20 Z " fill="#4E4E4E" transform="translate(489,790)"/>
<path d="M0,0 L3,0 L5,2 L7,0 L14,0 L14,3 L7,4 L5,7 L4,20 L1,20 Z " fill="#525252" transform="translate(264,790)"/>
<path d="M0,0 L3,0 L1,6 L-11,28 L-14,28 L-12,22 Z " fill="#595A5A" transform="translate(331,92)"/>
<path d="M0,0 L3,0 L4,3 L7,0 L14,0 L14,3 L7,4 L5,7 L4,20 L1,20 Z " fill="#4E4E4E" transform="translate(587,730)"/>
<path d="M0,0 L2,0 L2,8 L10,8 L10,11 L2,11 L2,18 L-1,18 L-1,11 L-8,11 L-8,8 L0,8 Z " fill="#6B6B6B" transform="translate(660,248)"/>
<path d="M0,0 L5,1 L6,7 L4,8 L3,25 L0,25 Z " fill="#4B4B4B" transform="translate(270,245)"/>
<path d="M0,0 L3,0 L1,6 L-11,28 L-14,28 L-12,22 Z " fill="#545555" transform="translate(421,92)"/>
<path d="M0,0 L3,0 L4,9 L6,10 L4,13 L4,24 L3,27 L0,27 Z " fill="#494949" transform="translate(340,93)"/>
<path d="M0,0 L3,0 L4,6 L4,16 L3,27 L0,27 Z " fill="#515151" transform="translate(240,790)"/>
<path d="M0,0 L2,1 L1,4 L1,17 L9,15 L10,19 L7,20 L0,20 L-3,17 L-3,3 Z " fill="#5B5B5B" transform="translate(513,790)"/>
<path d="M0,0 L3,0 L3,27 L0,27 L-1,20 L-1,10 Z " fill="#4E4E4E" transform="translate(323,603)"/>
<path d="M0,0 L2,0 L1,7 L5,7 L5,10 L0,11 L-1,15 L3,15 L3,17 L-2,17 L-3,25 L-5,25 L-4,17 L-11,17 L-11,16 L-3,16 L-3,8 L-1,8 L-1,1 Z " fill="#595A5A" transform="translate(196,95)"/>
<path d="M0,0 L4,0 L6,15 L8,9 L10,8 L9,15 L8,20 L3,20 Z " fill="#5C5C5C" transform="translate(465,610)"/>
<path d="M0,0 L3,0 L3,27 L0,27 L-1,21 L-1,10 Z " fill="#4B4B4B" transform="translate(598,183)"/>
<path d="M0,0 L2,1 L1,5 L1,15 L7,17 L3,18 L3,20 L-2,18 L-4,14 L-4,5 Z " fill="#5F5F5F" transform="translate(566,730)"/>
<path d="M0,0 L19,0 L19,4 L0,4 Z " fill="#868686" transform="translate(404,260)"/>
<path d="M0,0 L3,1 L2,4 L2,14 L8,16 L4,17 L4,19 L-1,17 L-3,12 L-3,4 Z " fill="#5F5F5F" transform="translate(520,191)"/>
<path d="M0,0 L2,1 L1,2 L1,15 L7,17 L3,18 L3,20 L-2,18 L-4,15 L-4,5 Z " fill="#606161" transform="translate(431,190)"/>
<path d="M0,0 L2,1 L2,14 L8,16 L4,17 L4,19 L-1,17 L-3,14 L-3,4 Z " fill="#636363" transform="translate(340,731)"/>
<path d="M0,0 L18,0 L17,4 L13,8 L10,9 L12,5 L13,4 L0,3 Z " fill="#525252" transform="translate(607,245)"/>
<path d="M0,0 L4,1 L8,0 L4,6 L3,20 L0,20 Z " fill="#4B4B4B" transform="translate(385,100)"/>
<path d="M0,0 L2,1 L0,6 L0,13 L1,16 L7,17 L3,18 L3,20 L-2,18 L-4,15 L-4,5 Z " fill="#565656" transform="translate(250,310)"/>
<path d="M0,0 L2,0 L2,3 L4,3 L2,27 L0,27 Z " fill="#494A4A" transform="translate(181,190)"/>
<path d="M0,0 L9,0 L12,2 L12,5 L9,5 L9,3 L0,3 L2,7 L6,9 L5,11 L0,10 L-3,7 L-2,2 Z " fill="#585858" transform="translate(536,790)"/>
<path d="M0,0 L3,0 L4,2 L8,0 L4,5 L3,20 L0,20 Z " fill="#494949" transform="translate(248,190)"/>
<path d="M0,0 L4,0 L4,17 L0,17 Z " fill="#6F6F6F" transform="translate(614,185)"/>
<path d="M0,0 L3,0 L2,10 L0,20 L-4,20 L-4,17 L-2,17 L-2,8 Z " fill="#545555" transform="translate(468,100)"/>
<path d="M0,0 L4,0 L5,6 L3,6 L2,24 L0,24 Z " fill="#4C4C4C" transform="translate(517,305)"/>
<path d="M0,0 L1,4 L-1,16 L-3,20 L-5,20 L-6,12 L-13,12 L-12,9 L-12,11 L-2,11 L-2,4 Z " fill="#CDCDCD" transform="translate(614,806)"/>
<path d="M0,0 L7,0 L9,1 L9,6 L8,7 L0,7 Z " fill="#E9E9E9" transform="translate(184,248)"/>
<path d="M0,0 L2,0 L2,3 L4,3 L3,20 L0,20 Z " fill="#505050" transform="translate(308,790)"/>
<path d="M0,0 L4,1 L3,18 L-1,15 L-2,13 L0,6 Z " fill="#919191" transform="translate(656,722)"/>
<path d="M0,0 L6,0 L10,5 L10,14 L8,16 L6,16 L6,6 L4,3 L-1,2 Z " fill="#515151" transform="translate(272,610)"/>
<path d="M0,0 L3,0 L4,16 L5,19 L1,18 L0,17 Z " fill="#474747" transform="translate(250,100)"/>
<path d="M0,0 L2,1 L-10,13 L-15,19 L-23,26 L-25,27 L-23,23 Z " fill="#B0B0B0" transform="translate(738,768)"/>
<path d="M0,0 L9,0 L9,11 L3,12 L5,9 L6,3 L0,3 Z " fill="#505050" transform="translate(233,257)"/>
<path d="M0,0 L4,0 L4,28 L-2,27 L-7,26 L-7,25 L0,24 L1,27 L3,27 L3,1 L1,1 L1,11 L-1,9 Z " fill="#797979" transform="translate(620,722)"/>
<path d="M0,0 L19,0 L19,3 L0,3 Z " fill="#616161" transform="translate(404,251)"/>
<path d="M0,0 L5,1 L8,12 L6,12 L5,14 L2,5 L1,10 L0,8 L-2,8 Z " fill="#666767" transform="translate(458,105)"/>
<path d="M0,0 L1,0 L3,12 L8,14 L8,16 L1,15 L-2,11 L-2,2 Z " fill="#515151" transform="translate(447,614)"/>
<path d="M0,0 L1,0 L3,12 L8,14 L8,16 L1,15 L-2,11 L-2,2 Z " fill="#515151" transform="translate(402,614)"/>
<path d="M0,0 L7,0 L6,6 L5,7 L-1,7 L-2,2 Z " fill="#EDEEEE" transform="translate(500,260)"/>
<path d="M0,0 L18,0 L18,3 L0,3 Z " fill="#5D5E5E" transform="translate(493,311)"/>
<path d="M0,0 L18,0 L18,3 L0,3 Z " fill="#5C5C5C" transform="translate(358,311)"/>
<path d="M0,0 L7,0 L6,5 L4,7 L-2,7 L-2,1 Z " fill="#E6E7E7" transform="translate(435,110)"/>
<path d="M0,0 L2,0 L5,11 L-3,11 L-2,6 Z " fill="#E8E8E8" transform="translate(570,249)"/>
<path d="M0,0 L5,0 L8,4 L8,6 L-3,6 L-2,2 Z " fill="#E7E7E7" transform="translate(366,192)"/>
<path d="M0,0 L5,0 L8,5 L8,6 L-3,6 L-2,2 Z " fill="#F4F4F4" transform="translate(496,612)"/>
<path d="M0,0 L3,0 L3,17 L0,17 Z " fill="#515152" transform="translate(211,95)"/>
<path d="M0,0 L4,0 L6,3 L14,4 L14,7 L5,7 L0,2 Z " fill="#5C5C5C" transform="translate(381,263)"/>
<path d="M0,0 L4,0 L3,5 L-1,13 L-3,13 L-2,5 Z " fill="#5F5F5F" transform="translate(455,204)"/>
<path d="M0,0 L4,1 L6,3 L5,10 L0,12 L1,3 Z " fill="#626262" transform="translate(570,617)"/>
<path d="M0,0 L5,0 L0,12 L-3,12 Z " fill="#5F5F5F" transform="translate(402,804)"/>
<path d="M0,0 L4,1 L3,3 L-1,12 L-3,16 L-6,16 L-3,7 Z " fill="#5F6060" transform="translate(478,246)"/>
<path d="M0,0 L4,0 L4,9 L3,12 L0,12 Z " fill="#666666" transform="translate(430,242)"/>
<path d="M0,0 L4,0 L4,12 L1,12 L0,9 Z " fill="#626363" transform="translate(317,182)"/>
<path d="M0,0 L4,1 L6,9 L3,10 L2,5 L-1,9 L-3,9 Z " fill="#686868" transform="translate(449,795)"/>
<path d="M0,0 L5,0 L-1,13 L-3,13 L-2,7 Z " fill="#5E5E5E" transform="translate(568,324)"/>
<path d="M0,0 L5,0 L3,6 L0,12 L-2,12 L-1,3 Z " fill="#5A5A5A" transform="translate(410,324)"/>
<path d="M0,0 L1,3 L-7,12 L-12,14 L-10,10 L-2,1 Z " fill="#5A5A5A" transform="translate(552,254)"/>
<path d="M0,0 L3,1 L10,11 L6,12 L-1,2 Z " fill="#5B5B5B" transform="translate(482,108)"/>
<path d="M0,0 L4,1 L5,6 L1,5 L-1,13 L-4,12 L-1,1 Z " fill="#636363" transform="translate(547,735)"/>
<path d="M0,0 L4,1 L5,6 L1,5 L-1,13 L-4,12 L-1,1 Z " fill="#636363" transform="translate(502,195)"/>
<path d="M0,0 L2,0 L1,7 L5,7 L5,10 L0,11 L-2,14 L-3,8 L-1,8 L-1,1 Z " fill="#696969" transform="translate(196,95)"/>
<path d="M0,0 L2,2 L7,14 L4,16 L-1,5 Z " fill="#5A5A5A" transform="translate(522,309)"/>
<path d="M0,0 L4,0 L7,7 L8,11 L4,12 L3,4 L-1,4 Z " fill="#6E6E6E" transform="translate(474,615)"/>
<path d="M0,0 L4,0 L4,11 L1,11 L0,7 Z " fill="#5F5F5F" transform="translate(438,243)"/>
<path d="M0,0 L5,2 L5,7 L3,9 L0,9 Z " fill="#E7E7E7" transform="translate(567,618)"/>
<path d="M0,0 L8,0 L9,1 L9,11 L7,12 L6,3 L0,2 Z " fill="#888888" transform="translate(698,243)"/>
<path d="M0,0 L8,0 L8,3 L-4,5 L-3,1 L-1,1 Z " fill="#5B5B5B" transform="translate(303,100)"/>
<path d="M0,0 L8,0 L10,3 L7,3 L2,4 L-3,6 L-1,1 Z " fill="#5D5D5D" transform="translate(588,190)"/>
<path d="M0,0 L6,0 L6,4 L5,5 L0,5 L-1,1 Z " fill="#C4C4C4" transform="translate(635,732)"/>
<path d="M0,0 L7,0 L7,3 L0,4 L-4,5 L-3,1 L-1,1 Z " fill="#5F5F5F" transform="translate(496,790)"/>
<path d="M0,0 L11,0 L11,3 L0,3 Z " fill="#636363" transform="translate(588,258)"/>
<path d="M0,0 L3,0 L3,11 L0,11 Z " fill="#797979" transform="translate(686,243)"/>
<path d="M0,0 L3,0 L3,11 L0,11 Z " fill="#747474" transform="translate(678,243)"/>
<path d="M0,0 L3,0 L3,11 L0,11 Z " fill="#4F4F4F" transform="translate(641,183)"/>
<path d="M0,0 L3,0 L3,11 L0,11 Z " fill="#4E4E4E" transform="translate(633,183)"/>
<path d="M0,0 L3,0 L3,11 L0,11 Z " fill="#4A4B4B" transform="translate(326,183)"/>
<path d="M0,0 L3,0 L1,6 L-2,10 L-5,11 L-3,5 Z " fill="#5D5D5D" transform="translate(421,92)"/>
<path d="M0,0 L7,0 L6,5 L-1,5 Z " fill="#E3E4E4" transform="translate(187,105)"/>
<path d="M0,0 L8,0 L8,3 L1,4 L-2,4 Z " fill="#616161" transform="translate(521,610)"/>
<path d="M0,0 L8,0 L8,3 L1,4 L-2,4 Z " fill="#606060" transform="translate(296,610)"/>
<path d="M0,0 L8,0 L8,3 L1,4 L-2,4 Z " fill="#5A5A5A" transform="translate(277,310)"/>
<path d="M0,0 L7,0 L10,3 L10,6 L7,6 L4,3 L-1,2 Z " fill="#4F5050" transform="translate(389,245)"/>
<path d="M0,0 L7,0 L7,3 L0,4 L-2,5 L-4,4 L-3,2 Z " fill="#5D5D5D" transform="translate(271,790)"/>
<path d="M0,0 L4,0 L4,7 L-1,5 Z " fill="#E8E8E8" transform="translate(561,608)"/>
<path d="M0,0 L10,0 L10,3 L0,3 Z " fill="#595959" transform="translate(521,258)"/>
<path d="M0,0 L8,0 L8,1 L0,1 Z M-5,1 L0,1 L0,9 L-3,10 L-2,4 L-1,2 Z " fill="#646465" transform="translate(185,110)"/>
<path d="M0,0 L10,0 L10,3 L0,3 Z " fill="#575757" transform="translate(523,108)"/>
<path d="M0,0 L7,0 L7,3 L0,4 L-3,4 L-2,1 Z " fill="#555555" transform="translate(594,730)"/>
<path d="M0,0 L7,0 L7,3 L0,4 L-3,4 L-2,1 Z " fill="#5A5A5A" transform="translate(369,730)"/>
<path d="M0,0 L7,0 L7,3 L0,4 L-3,4 L-2,1 Z " fill="#575757" transform="translate(549,190)"/>
<path d="M0,0 L8,0 L8,3 L0,4 L-2,2 Z " fill="#5B5B5B" transform="translate(211,190)"/>
<path d="M0,0 L5,1 L9,3 L9,6 L0,3 Z " fill="#626262" transform="translate(480,321)"/>
<path d="M0,0 L3,0 L1,6 L-1,8 L-4,9 L-2,3 Z " fill="#5E5E5E" transform="translate(241,92)"/>
<path d="M0,0 L3,0 L4,2 L10,3 L10,5 L3,5 L0,3 Z " fill="#545454" transform="translate(533,805)"/>
<path d="M0,0 L7,2 L5,3 L5,5 L1,4 L0,12 L-1,12 L-1,2 Z " fill="#6F7070" transform="translate(184,205)"/>
<path d="M0,0 L7,0 L10,2 L10,4 L-1,2 Z " fill="#505050" transform="translate(338,610)"/>
<path d="M0,0 L4,0 L4,6 L0,6 Z " fill="#616161" transform="translate(568,310)"/>
<path d="M0,0 L11,2 L7,5 L2,4 Z " fill="#6B6B6B" transform="translate(272,115)"/>
<path d="M0,0 L2,1 L1,5 L-4,11 L-5,8 L-1,3 Z " fill="#DCDCDD" transform="translate(629,739)"/>
<path d="M0,0 L3,1 L-1,5 L-4,9 L-3,2 Z " fill="#656666" transform="translate(386,245)"/>
<path d="M0,0 L2,0 L0,4 L-4,6 L-4,4 L-8,3 L-2,1 Z " fill="#666666" transform="translate(479,804)"/>
<path d="M0,0 L5,2 L5,6 L1,6 Z " fill="#BEBEBE" transform="translate(638,741)"/>
<path d="M0,0 L11,2 L11,3 L5,3 L5,5 L1,3 Z " fill="#6F6F6F" transform="translate(333,625)"/>
<path d="M0,0 L4,0 L6,4 L6,8 L4,8 L3,2 L0,2 Z " fill="#515151" transform="translate(479,245)"/>
<path d="M0,0 L4,4 L4,7 L0,5 L-2,1 Z " fill="#5A5A5A" transform="translate(558,622)"/>
<path d="M0,0 L1,2 L-2,8 L-5,8 L-3,2 Z " fill="#4E4E4E" transform="translate(322,112)"/>
<path d="M0,0 L2,0 L1,7 L-3,7 L-3,3 L-1,3 Z " fill="#525353" transform="translate(456,113)"/>
<path d="M0,0 L1,2 L-2,8 L-5,8 L-3,2 Z " fill="#4E4E4E" transform="translate(412,112)"/>
<path d="M0,0 L10,2 L10,3 L5,4 L3,5 L0,3 Z " fill="#5B5B5B" transform="translate(631,745)"/>
<path d="M0,0 L4,0 L4,5 L0,5 Z " fill="#4A4B4B" transform="translate(410,310)"/>
<path d="M0,0 L6,0 L6,3 L-2,3 L0,2 Z " fill="#7A7A7A" transform="translate(664,256)"/>
<path d="M0,0 L3,0 L1,5 L-3,6 L-1,1 Z " fill="#676767" transform="translate(415,722)"/>
<path d="M0,0 L3,0 L1,4 L-2,5 L-2,3 L-6,2 Z " fill="#676767" transform="translate(503,625)"/>
<path d="M0,0 L1,3 L-4,5 L-4,3 L-8,2 Z " fill="#6B6B6B" transform="translate(459,625)"/>
<path d="M0,0 L1,3 L-4,5 L-4,3 L-8,2 Z " fill="#6A6A6A" transform="translate(414,625)"/>
<path d="M0,0 L1,3 L-4,5 L-4,3 L-8,2 Z " fill="#6A6A6A" transform="translate(279,625)"/>
<path d="M0,0 L3,0 L1,5 L-3,6 L-1,1 Z " fill="#676767" transform="translate(545,602)"/>
<path d="M0,0 L3,1 L1,1 L0,7 L-3,6 L-2,1 Z " fill="#5E5E5E" transform="translate(569,248)"/>
<path d="M0,0 L3,0 L1,4 L-2,5 L-2,3 L-6,2 Z " fill="#626262" transform="translate(373,205)"/>
<path d="M0,0 L2,0 L2,3 L-4,5 L-5,2 Z " fill="#616161" transform="translate(487,308)"/>
<path d="M0,0 L3,0 L1,6 L-2,6 Z " fill="#676767" transform="translate(474,256)"/>
<path d="M0,0 L3,1 L-1,5 L-4,6 L-2,2 Z " fill="#575757" transform="translate(364,190)"/>
<path d="M0,0 L5,0 L7,3 L4,3 L-1,3 Z " fill="#5F5F5F" transform="translate(316,610)"/>
<path d="M0,0 L2,0 L2,3 L-4,4 L-4,1 Z " fill="#5D5E5E" transform="translate(385,308)"/>
<path d="M0,0 L1,4 L-2,7 L-3,4 L-2,1 Z " fill="#525252" transform="translate(567,253)"/>
<path d="M0,0 L1,3 L-5,7 L-5,4 Z " fill="#5B5B5B" transform="translate(619,252)"/>
<path d="M0,0 L6,0 L4,4 L0,3 Z " fill="#727272" transform="translate(181,102)"/>
</svg>
