<?xml version="1.0" encoding="UTF-8"?><svg id="Layer_1" xmlns="http://www.w3.org/2000/svg" viewBox="0 0 568.05 194.01"><defs><style>.cls-1,.cls-2{stroke-width:0px;}.cls-2{fill:#1eb8d1;}</style></defs><circle class="cls-2" cx="505.13" cy="69.17" r="3.88"/><circle class="cls-2" cx="478.81" cy="69.94" r="5.39"/><circle class="cls-2" cx="452.5" cy="71.56" r="7.12"/><circle class="cls-2" cx="487.5" cy="96.57" r="3.88"/><circle class="cls-2" cx="461.14" cy="96.57" r="5.39"/><circle class="cls-2" cx="434.77" cy="96.57" r="7.12"/><circle class="cls-2" cx="469.79" cy="124.27" r="3.88"/><circle class="cls-2" cx="443.37" cy="124.03" r="5.39"/><circle class="cls-2" cx="416.95" cy="122.31" r="7.12"/><path class="cls-1" d="m105.72,129.15l-25.88-42.04h-.27l.36,42.04h-15.07v-64.29h17.71l25.79,41.95h.27l-.36-41.95h15.07v64.29h-17.62Z"/><path class="cls-1" d="m277.69,110.44c0,3.51-.7,6.46-2.09,8.85-1.39,2.39-3.24,4.31-5.54,5.77-2.3,1.45-4.92,2.5-7.86,3.13-2.94.64-5.95.95-9.04.95h-25.61v-64.29h25.61c2.48,0,5.02.26,7.63.77,2.6.52,4.96,1.39,7.08,2.63,2.12,1.24,3.84,2.92,5.18,5.04,1.33,2.12,2,4.81,2,8.08,0,3.57-.97,6.52-2.91,8.85-1.94,2.33-4.48,4.01-7.63,5.04v.18c1.82.3,3.53.86,5.13,1.68,1.6.82,3,1.86,4.18,3.13,1.18,1.27,2.12,2.76,2.82,4.45.7,1.7,1.04,3.6,1.04,5.72Zm-17.62-26.97c0-2.18-.83-3.77-2.5-4.77-1.67-1-4.13-1.5-7.4-1.5h-7.63v13.26h8.35c2.91,0,5.16-.59,6.77-1.77,1.6-1.18,2.41-2.92,2.41-5.22Zm2.09,25.52c0-2.66-1-4.51-3-5.54-2-1.03-4.66-1.54-7.99-1.54h-8.63v14.71h8.72c1.21,0,2.47-.1,3.77-.32,1.3-.21,2.48-.59,3.54-1.14,1.06-.54,1.92-1.32,2.59-2.32.67-1,1-2.28,1-3.86Z"/><path class="cls-1" d="m298.85,129.15v-64.29h15.62v50.76h24.88v13.53h-40.5Z"/><path class="cls-1" d="m403.97,85.21c0,3.89-.68,7.43-2.04,10.61-1.36,3.18-3.12,6.41-5.28,9.69l-15.84,23.64h-18.8l16.33-22.62.19-.28c-.68.25-1.44.43-2.27.56-.83.12-1.62.19-2.36.19-2.9,0-5.65-.51-8.24-1.53-2.59-1.02-4.87-2.47-6.85-4.36-1.97-1.88-3.55-4.14-4.72-6.77-1.17-2.63-1.76-5.55-1.76-8.76,0-3.71.68-7.05,2.04-10.01,1.36-2.97,3.21-5.47,5.55-7.51,2.34-2.04,5.09-3.6,8.24-4.68,3.15-1.08,6.48-1.62,9.99-1.62s6.94.54,10.09,1.62c3.15,1.08,5.88,2.64,8.19,4.68,2.31,2.04,4.15,4.51,5.51,7.42,1.36,2.91,2.04,6.15,2.04,9.73Zm-15.48-.19c0-2.84-.92-5.3-2.75-7.37-1.83-2.07-4.33-3.11-7.5-3.11s-5.7.97-7.59,2.92c-1.89,1.95-2.84,4.5-2.84,7.65,0,2.97.93,5.42,2.79,7.37,1.86,1.95,4.35,2.92,7.45,2.92s5.62-.96,7.54-2.87c1.92-1.92,2.89-4.42,2.89-7.51Z"/><path class="cls-1" d="m175.44,63.5c-18.55,0-33.59,15.04-33.59,33.59s15.04,33.59,33.59,33.59,33.59-15.04,33.59-33.59-15.04-33.59-33.59-33.59Zm0,52.12c-10.24,0-18.53-8.3-18.53-18.53s8.3-18.53,18.53-18.53,18.53,8.3,18.53,18.53-8.3,18.53-18.53,18.53Z"/></svg>