<?xml version="1.0" encoding="UTF-8"?>
<!-- Generator: visioncortex VTracer 0.6.5 -->
<svg version="1.1" xmlns="http://www.w3.org/2000/svg" width="444" height="670">
<path d="M0,0 L15,0 L29,4 L39,10 L49,18 L58,28 L64,37 L63,40 L51,26 L41,18 L25,10 L20,9 L9,9 L-3,13 L-13,21 L-22,31 L-32,47 L-43,67 L-51,85 L-56,96 L-67,124 L-77,152 L-89,193 L-98,229 L-106,267 L-112,302 L-118,345 L-122,383 L-125,428 L-125,450 L-116,419 L-104,388 L-92,363 L-79,341 L-69,328 L-66,324 L-64,324 L-62,320 L-51,310 L-40,303 L-35,302 L-36,305 L-41,310 L-52,324 L-61,339 L-69,355 L-77,374 L-84,395 L-88,410 L-93,432 L-97,455 L-101,491 L-103,533 L-103,572 L-101,612 L-99,628 L-98,632 L-99,636 L-119,640 L-127,641 L-171,641 L-176,640 L-175,645 L-183,645 L-190,644 L-191,643 L-192,635 L-194,633 L-193,628 L-192,627 L-192,589 L-190,590 L-186,605 L-185,600 L-185,553 L-187,527 L-192,498 L-198,477 L-208,453 L-217,438 L-228,424 L-237,415 L-251,405 L-267,397 L-281,393 L-287,391 L-287,390 L-261,390 L-244,394 L-232,399 L-221,406 L-208,417 L-199,427 L-189,442 L-180,458 L-176,467 L-176,469 L-174,469 L-174,453 L-170,394 L-164,336 L-159,299 L-152,258 L-143,216 L-133,179 L-121,144 L-111,120 L-103,104 L-94,87 L-76,60 L-62,42 L-50,29 L-38,18 L-23,8 L-12,3 Z " fill="#82AA3C" transform="translate(380,0)"/>
<path d="M0,0 L15,0 L27,5 L40,15 L50,26 L56,35 L55,38 L43,24 L33,16 L17,8 L12,7 L1,7 L-11,11 L-21,19 L-30,29 L-40,45 L-51,65 L-59,83 L-64,94 L-75,122 L-85,150 L-97,191 L-106,227 L-114,265 L-120,300 L-126,343 L-130,381 L-133,426 L-135,457 L-137,469 L-139,469 L-140,480 L-142,487 L-145,505 L-149,526 L-153,530 L-153,537 L-152,544 L-156,571 L-157,591 L-154,591 L-153,593 L-150,591 L-148,595 L-145,623 L-145,633 L-139,633 L-142,635 L-154,636 L-155,638 L-164,637 L-165,636 L-166,622 L-166,597 L-169,555 L-170,543 L-166,543 L-166,541 L-161,536 L-161,530 L-166,525 L-167,524 L-167,517 L-163,517 L-162,518 L-162,502 L-163,497 L-162,475 L-161,426 L-158,371 L-154,327 L-150,298 L-141,250 L-136,227 L-126,190 L-113,150 L-102,122 L-93,102 L-84,83 L-72,62 L-62,47 L-53,35 L-31,13 L-20,6 L-13,2 Z " fill="#6E8A1B" transform="translate(388,2)"/>
<path d="M0,0 L2,1 L-5,9 L-15,22 L-24,37 L-32,53 L-40,72 L-47,93 L-51,108 L-56,130 L-60,153 L-64,189 L-66,231 L-66,270 L-64,310 L-62,326 L-61,330 L-62,334 L-82,338 L-90,339 L-134,339 L-139,338 L-138,343 L-146,343 L-153,342 L-154,341 L-155,333 L-157,331 L-156,326 L-155,325 L-155,287 L-153,288 L-149,303 L-148,298 L-148,251 L-149,236 L-149,225 L-146,229 L-143,225 L-144,235 L-145,241 L-145,279 L-143,279 L-145,289 L-146,305 L-146,313 L-142,329 L-142,332 L-131,334 L-119,336 L-110,338 L-109,335 L-97,334 L-100,333 L-104,295 L-106,292 L-109,294 L-109,291 L-112,291 L-112,271 L-108,244 L-109,230 L-106,226 L-104,226 L-103,215 L-100,201 L-97,181 L-95,175 L-94,169 L-92,169 L-91,157 L-90,136 L-89,136 L-88,148 L-79,117 L-67,86 L-55,61 L-42,39 L-32,26 L-29,22 L-27,22 L-25,18 L-14,8 L-3,1 Z " fill="#A4B828" transform="translate(343,302)"/>
<path d="M0,0 L2,2 L12,53 L22,113 L30,173 L35,223 L36,229 L39,228 L40,225 L49,220 L61,217 L74,217 L78,218 L78,220 L65,222 L59,224 L59,226 L54,231 L49,239 L45,249 L42,270 L42,302 L52,304 L55,305 L64,281 L66,280 L61,310 L60,312 L49,312 L39,314 L28,315 L9,315 L6,314 L6,316 L-5,315 L-5,313 L-12,311 L-14,309 L-13,304 L-8,302 L-9,285 L-10,274 L-7,277 L0,297 L-1,272 L-3,255 L-7,227 L-14,201 L-22,183 L-30,170 L-36,164 L-36,162 L-31,164 L-26,168 L-26,170 L-22,172 L-15,179 L-10,186 L-10,188 L-8,188 L-2,199 L4,211 L4,214 L6,214 L5,195 L3,100 L1,34 Z M53,310 Z " fill="#8BB120" transform="translate(36,354)"/>
<path d="M0,0 L8,0 L5,2 L-4,4 L-4,6 L-15,13 L-32,30 L-38,39 L-46,50 L-53,62 L-61,78 L-73,106 L-84,136 L-96,173 L-105,202 L-120,262 L-125,285 L-129,308 L-131,316 L-136,354 L-139,389 L-140,415 L-140,432 L-139,461 L-146,491 L-149,502 L-152,502 L-154,499 L-153,474 L-152,425 L-149,370 L-145,326 L-141,297 L-132,249 L-127,226 L-117,189 L-104,149 L-93,121 L-84,101 L-75,82 L-63,61 L-53,46 L-44,34 L-22,12 L-11,5 L-4,1 Z " fill="#7CA018" transform="translate(379,3)"/>
<path d="M0,0 L2,2 L12,53 L22,113 L30,173 L34,212 L34,234 L30,238 L25,252 L22,257 L20,271 L18,271 L17,257 L15,255 L9,227 L9,223 L7,223 L5,195 L3,100 L1,34 Z " fill="#81AF1A" transform="translate(36,354)"/>
<path d="M0,0 L1,0 L2,8 L0,10 L-1,14 L6,13 L6,15 L8,15 L9,17 L16,20 L19,28 L19,51 L18,61 L19,69 L19,74 L18,78 L18,114 L17,132 L37,132 L36,127 L36,120 L37,120 L39,129 L38,133 L18,137 L10,138 L-34,138 L-39,137 L-38,142 L-46,142 L-53,141 L-54,140 L-55,132 L-57,130 L-56,125 L-55,124 L-55,86 L-53,87 L-49,102 L-48,97 L-48,50 L-49,35 L-49,24 L-46,28 L-43,24 L-44,34 L-45,40 L-45,78 L-43,78 L-45,88 L-46,104 L-46,112 L-42,128 L-42,131 L-31,133 L-19,135 L-10,137 L-9,134 L3,133 L0,132 L-4,94 L-6,91 L-9,93 L-9,90 L-12,90 L-12,70 L-8,43 L-9,29 L-6,25 L-4,25 L-3,14 Z " fill="#9ABD1E" transform="translate(243,503)"/>
<path d="M0,0 L26,0 L43,4 L55,9 L66,16 L79,27 L88,37 L98,52 L107,68 L111,77 L111,79 L113,79 L113,83 L108,82 L106,81 L112,97 L115,107 L116,114 L118,120 L114,123 L112,123 L109,124 L107,129 L101,137 L100,137 L95,108 L89,87 L79,63 L70,48 L59,34 L50,25 L36,15 L20,7 L6,3 L0,1 Z M113,111 Z " fill="#A0CC31" transform="translate(93,390)"/>
<path d="M0,0 L0,3 L-2,9 L-12,25 L-20,41 L-29,64 L-37,92 L-43,119 L-48,150 L-51,172 L-53,191 L-56,211 L-58,210 L-60,204 L-61,202 L-67,200 L-67,198 L-76,197 L-75,192 L-74,190 L-74,175 L-72,163 L-70,157 L-69,151 L-67,151 L-66,139 L-65,118 L-64,118 L-63,130 L-54,99 L-42,68 L-30,43 L-17,21 L-7,8 L-4,4 L-2,4 Z " fill="#B9CB2D" transform="translate(318,320)"/>
<path d="M0,0 L7,2 L12,14 L14,20 L16,31 L16,36 L18,36 L18,41 L15,44 L13,53 L10,54 L9,59 L8,61 L7,72 L11,74 L11,76 L13,76 L15,79 L19,80 L21,86 L24,128 L24,167 L8,165 L2,163 L-3,144 L-3,130 L-1,115 L0,111 L-2,110 L-2,72 L0,62 L0,58 L-2,67 L-3,67 L-4,58 L-5,54 L3,43 L8,40 L10,40 L11,38 L11,34 L9,33 L10,30 L8,29 L6,19 L0,2 Z M7,30 Z " fill="#7AAC1B" transform="translate(199,471)"/>
<path d="M0,0 L2,1 L4,12 L10,61 L12,82 L12,104 L8,108 L3,122 L0,127 L-2,141 L-4,141 L-5,127 L-7,125 L-13,97 L-13,93 L-15,93 L-16,79 L-16,63 L-15,63 L-15,73 L-8,73 L-7,56 L-1,56 L3,55 L-1,21 L-2,4 Z " fill="#75A11B" transform="translate(58,484)"/>
<path d="M0,0 L1,0 L2,27 L2,40 L4,40 L4,55 L7,55 L8,57 L11,55 L13,59 L16,87 L16,97 L22,97 L19,99 L7,100 L6,102 L-3,101 L-4,100 L-5,86 L-5,61 L-8,19 L-9,7 L-5,7 L-5,5 Z " fill="#679516" transform="translate(227,538)"/>
<path d="M0,0 L5,2 L10,6 L10,8 L14,10 L21,17 L26,24 L26,26 L28,26 L34,37 L40,49 L40,52 L42,52 L42,47 L43,47 L43,61 L45,61 L50,83 L52,93 L54,95 L54,100 L51,103 L45,103 L43,101 L43,94 L46,91 L46,89 L39,92 L37,98 L36,110 L35,110 L33,93 L29,65 L22,39 L14,21 L6,8 L0,2 Z " fill="#ACCA39" transform="translate(0,516)"/>
<path d="M0,0 L2,2 L12,53 L19,94 L19,98 L16,100 L15,107 L11,109 L7,110 L6,111 L5,144 L4,144 L2,64 L0,11 Z " fill="#B5D639" transform="translate(36,354)"/>
<path d="M0,0 L13,0 L17,1 L17,3 L4,5 L-2,7 L-2,9 L-7,14 L-12,22 L-16,32 L-18,43 L-20,43 L-20,52 L-21,49 L-23,49 L-24,40 L-25,48 L-29,50 L-40,50 L-41,54 L-40,40 L-37,35 L-32,21 L-29,17 L-27,17 L-27,6 L-26,6 L-25,12 L-22,11 L-21,8 L-12,3 Z " fill="#B7CB38" transform="translate(97,571)"/>
<path d="M0,0 L3,4 L6,0 L5,10 L4,16 L4,54 L6,54 L4,64 L3,80 L3,88 L7,104 L7,107 L18,109 L30,111 L39,113 L40,110 L52,109 L55,108 L86,108 L85,103 L85,96 L86,96 L88,105 L87,109 L67,113 L59,114 L15,114 L10,113 L11,118 L3,118 L-4,117 L-5,116 L-6,108 L-8,106 L-7,101 L-6,100 L-6,62 L-4,63 L0,78 L1,73 L1,26 L0,11 Z " fill="#A2CB37" transform="translate(194,527)"/>
<path d="M0,0 L3,0 L3,2 L7,3 L1,5 L1,12 L2,13 L8,13 L11,11 L12,20 L12,60 L-4,58 L-6,53 L-7,41 L-7,9 L-4,2 Z " fill="#8BB519" transform="translate(43,605)"/>
<path d="M0,0 L2,0 L2,4 L0,5 L-1,10 L3,9 L5,17 L5,39 L1,43 L-4,57 L-7,62 L-9,76 L-11,76 L-12,62 L-13,32 L-13,13 L-8,10 L-2,10 L-2,1 Z M-5,8 Z M-6,9 Z " fill="#4B7B0D" transform="translate(65,549)"/>
<path d="M0,0 L3,0 L4,4 L5,36 L7,67 L7,96 L-1,95 L-2,87 L-3,87 L-3,3 Z " fill="#87BB35" transform="translate(44,462)"/>
<path d="M0,0 L2,2 L3,9 L2,11 L4,11 L5,5 L6,5 L5,41 L4,41 L4,28 L-2,30 L-3,32 L-4,43 L-7,45 L-14,46 L-17,47 L-17,16 L-15,16 L-15,12 L-4,11 L-1,10 Z " fill="#9FBF24" transform="translate(72,609)"/>
<path d="M0,0 L2,1 L5,13 L7,18 L9,27 L10,31 L12,32 L11,33 L11,41 L16,45 L17,47 L17,53 L13,58 L11,58 L11,60 L7,60 L8,68 L7,66 L2,65 L1,62 L-1,62 L-5,58 L-5,47 L-2,40 L1,37 L2,30 L5,27 L6,22 L4,22 L0,3 Z " fill="#73A21C" transform="translate(211,485)"/>
<path d="M0,0 L3,0 L1,16 L8,15 L11,14 L11,11 L13,11 L12,23 L8,27 L8,34 L9,41 L4,73 L2,73 L1,60 L0,27 L-5,22 L-6,21 L-6,14 L-2,14 L-1,15 Z " fill="#48720D" transform="translate(227,505)"/>
<path d="M0,0 L3,3 L9,38 L9,42 L6,44 L5,51 L1,53 L-1,30 L-2,27 L-5,30 L-6,23 L-6,13 L-5,13 L-4,19 L-3,18 L-2,2 Z " fill="#A5C730" transform="translate(46,410)"/>
<path d="M0,0 L1,0 L1,10 L8,10 L10,8 L11,34 L11,63 L9,62 L3,34 L3,30 L1,30 L0,16 Z " fill="#5B9F33" transform="translate(42,547)"/>
<path d="M0,0 L3,3 L15,38 L29,39 L29,41 L19,41 L16,40 L16,42 L5,41 L5,39 L-2,37 L-4,35 L-3,30 L2,28 L1,11 Z " fill="#ACCF4C" transform="translate(26,628)"/>
<path d="M0,0 L2,2 L5,0 L7,4 L10,32 L10,42 L3,42 L1,41 L0,23 Z " fill="#8AAF19" transform="translate(233,593)"/>
<path d="M0,0 L5,5 L13,14 L26,35 L33,50 L33,52 L35,52 L35,56 L30,55 L26,51 L18,33 L9,18 L0,6 Z " fill="#9BC13B" transform="translate(171,417)"/>
<path d="M0,0 L1,0 L3,9 L2,13 L-18,17 L-26,18 L-70,18 L-75,17 L-74,22 L-82,22 L-82,21 L-76,21 L-77,12 L-67,13 L-55,15 L-46,17 L-45,14 L-33,13 L-30,12 L1,12 L0,7 Z " fill="#C4C8B9" transform="translate(279,623)"/>
<path d="M0,0 L0,3 L-5,14 L-1,14 L-1,16 L6,17 L7,22 L10,22 L9,35 L8,32 L6,32 L5,23 L4,31 L0,33 L-11,33 L-12,37 L-11,23 L-8,18 L-3,4 Z " fill="#A0BA22" transform="translate(68,588)"/>
<path d="M0,0 L2,4 L4,4 L9,26 L11,36 L13,38 L13,43 L10,46 L4,46 L2,44 L2,37 L5,34 L5,32 L-4,35 L-5,38 L-6,35 L-4,31 L2,28 L4,28 L-1,9 Z " fill="#96BB29" transform="translate(41,573)"/>
<path d="M0,0 L4,1 L-4,5 L-9,10 L-11,10 L-13,14 L-18,25 L-19,32 L-25,31 L-25,29 L-29,29 L-26,20 L-23,15 L-22,4 L-21,4 L-20,10 L-17,9 L-16,6 L-7,1 Z " fill="#B3CA2C" transform="translate(92,573)"/>
<path d="M0,0 L7,0 L13,5 L13,13 L11,13 L10,16 L7,18 L0,18 L-5,12 L-5,5 Z " fill="#F7F9F2" transform="translate(239,527)"/>
<path d="M0,0 L6,0 L11,4 L12,6 L12,12 L8,17 L6,18 L-1,18 L-6,13 L-6,5 Z " fill="#F7F9F4" transform="translate(216,526)"/>
<path d="M0,0 L1,2 L-4,30 L-5,32 L-16,32 L-26,34 L-37,34 L-37,33 L-27,31 L-22,31 L-24,23 L-24,16 L-23,16 L-23,22 L-13,24 L-10,25 L-1,1 Z M-12,30 Z " fill="#C2C4BD" transform="translate(101,634)"/>
<path d="M0,0 L2,2 L2,7 L-3,12 L-5,16 L-7,16 L-8,24 L-8,36 L-12,43 L-13,43 L-13,33 L-11,23 L-11,19 L-13,28 L-14,28 L-15,19 L-16,15 L-8,4 L-3,1 L-1,1 Z " fill="#89B921" transform="translate(210,510)"/>
<path d="M0,0 L1,0 L2,21 L3,26 L6,24 L7,28 L8,50 L3,53 L2,86 L1,86 L0,42 Z " fill="#A1CB3E" transform="translate(39,412)"/>
<path d="M0,0 L3,0 L5,20 L6,28 L-3,29 L-5,14 L-5,4 L-3,1 Z " fill="#819D1D" transform="translate(73,637)"/>
<path d="M0,0 L1,3 L-11,38 L-12,40 L-22,40 L-14,25 L-1,1 Z " fill="#ABD045" transform="translate(301,604)"/>
<path d="M0,0 L3,1 L4,5 L5,25 L1,29 L-4,39 L-7,39 L-5,26 L-2,17 L-1,1 Z " fill="#406D05" transform="translate(65,563)"/>
<path d="M0,0 L7,2 L12,14 L14,20 L15,32 L13,34 L11,38 L11,34 L9,33 L10,30 L8,29 L6,19 L0,2 Z M7,30 Z " fill="#88B524" transform="translate(199,471)"/>
<path d="M0,0 L2,2 L4,21 L4,29 L3,29 L3,24 L-1,25 L-1,20 L2,19 L2,15 L-2,16 L-2,25 L-9,27 L-13,28 L-13,16 L-3,17 L-3,5 Z M-5,23 Z M-6,24 Z " fill="#60910F" transform="translate(65,534)"/>
<path d="M0,0 L11,2 L16,7 L17,10 L17,18 L15,24 L8,27 L0,27 L-3,26 L-4,28 L-3,20 L0,22 L7,22 L11,18 L13,18 L12,10 L7,6 L0,5 Z " fill="#93B320" transform="translate(239,522)"/>
<path d="M0,0 L2,0 L2,4 L0,5 L-1,10 L3,9 L5,17 L5,33 L4,33 L3,19 L1,16 L0,15 L-5,20 L-10,22 L-12,22 L-12,32 L-13,32 L-13,13 L-8,10 L-2,10 L-2,1 Z M-5,8 Z M-6,9 Z " fill="#54860E" transform="translate(65,549)"/>
<path d="M0,0 L3,4 L5,12 L6,22 L3,24 L2,31 L-2,33 L-3,26 L-3,14 L-2,13 L-1,1 Z M0,7 Z " fill="#96C21F" transform="translate(49,430)"/>
<path d="M0,0 L2,0 L5,15 L7,33 L2,37 L-1,12 L-2,11 L-2,2 Z " fill="#86B125" transform="translate(53,452)"/>
<path d="M0,0 L2,2 L3,9 L2,11 L4,11 L5,5 L6,5 L5,41 L4,41 L4,16 L0,18 L-4,18 L-4,16 L-15,16 L-15,12 L-4,11 L-1,10 Z M-16,16 Z " fill="#ADC43F" transform="translate(72,609)"/>
<path d="M0,0 L1,0 L2,14 L8,21 L9,24 L9,35 L1,34 L0,24 Z " fill="#6BAC34" transform="translate(42,523)"/>
<path d="M0,0 L1,0 L3,9 L2,13 L-18,17 L-26,18 L-45,18 L-45,16 L-29,14 L-20,12 L1,12 L0,7 Z " fill="#B9BBAE" transform="translate(279,623)"/>
<path d="M0,0 L1,0 L1,16 L3,16 L6,32 L5,35 L1,37 L1,34 L-2,34 L-2,14 Z " fill="#90B51F" transform="translate(233,559)"/>
<path d="M0,0 L1,0 L2,6 L7,1 L9,9 L9,19 L2,19 L0,18 Z " fill="#80A315" transform="translate(234,616)"/>
<path d="M0,0 L3,0 L1,16 L8,15 L11,14 L11,11 L13,11 L12,23 L11,23 L11,17 L6,19 L2,19 L1,27 L-6,21 L-6,14 L-2,14 L-1,15 Z " fill="#507B0F" transform="translate(227,505)"/>
<path d="M0,0 L1,2 L-4,30 L-5,32 L-12,32 L-5,12 Z " fill="#ACD148" transform="translate(101,634)"/>
<path d="M0,0 L3,0 L3,2 L7,3 L1,5 L1,12 L7,14 L7,19 L-3,16 L-3,13 L-6,13 L-7,17 L-7,9 L-4,2 Z " fill="#8EB221" transform="translate(43,605)"/>
<path d="M0,0 L2,1 L9,37 L8,41 L5,42 L4,35 L4,23 L2,23 L0,9 Z " fill="#AECD3D" transform="translate(39,370)"/>
<path d="M0,0 L2,1 L-3,6 L-5,6 L-7,10 L-16,19 L-18,19 L-20,24 L-31,36 L-40,48 L-40,45 L-31,33 L-23,23 L-12,11 Z " fill="#BBD283" transform="translate(342,18)"/>
<path d="M0,0 L2,1 L5,13 L7,18 L9,27 L10,31 L12,32 L11,33 L10,41 L4,41 L3,38 L9,37 L8,32 L6,31 L6,22 L4,22 L0,3 Z " fill="#6B9B2D" transform="translate(211,485)"/>
<path d="M0,0 L2,3 L4,13 L-5,14 L-6,10 L-6,2 Z " fill="#779619" transform="translate(75,652)"/>
<path d="M0,0 L1,0 L1,22 L0,22 L0,15 L-5,16 L-9,12 L-9,7 L-5,7 L-5,5 Z " fill="#67921F" transform="translate(227,538)"/>
<path d="M0,0 L7,1 L9,3 L9,8 L6,11 L0,11 L-2,9 L-2,2 Z " fill="#F4F7F0" transform="translate(45,608)"/>
<path d="M0,0 L6,0 L9,3 L8,9 L6,11 L0,11 L-2,9 L-2,2 Z " fill="#F8FAF1" transform="translate(60,608)"/>
<path d="M0,0 L2,0 L3,12 L3,30 L0,29 L-1,18 L-1,1 Z " fill="#7EA612" transform="translate(52,635)"/>
<path d="M0,0 L1,0 L2,9 L2,31 L1,31 L1,19 L-2,20 L-4,4 Z " fill="#83A817" transform="translate(53,616)"/>
<path d="M0,0 L15,0 L20,1 L20,2 L-1,4 L-8,6 L-8,4 L-20,9 L-23,8 L-12,3 Z M-8,3 Z " fill="#C0D471" transform="translate(380,0)"/>
<path d="M0,0 L7,6 L17,19 L19,22 L18,25 L6,11 L0,6 Z " fill="#A0A962" transform="translate(425,15)"/>
<path d="M0,0 L5,5 L16,17 L16,19 L10,20 L1,4 Z " fill="#BDDA6B" transform="translate(157,614)"/>
<path d="M0,0 L3,4 L6,0 L5,10 L3,31 L2,31 L1,26 L0,11 Z " fill="#A2C951" transform="translate(194,527)"/>
<path d="M0,0 L2,1 L-5,9 L-9,13 L-8,7 L-15,12 L-18,16 L-24,18 L-20,13 L-8,4 Z " fill="#C8D15F" transform="translate(343,302)"/>
<path d="M0,0 L1,3 L-7,27 L-8,23 L-9,22 L-12,23 L-10,18 Z " fill="#B4D55A" transform="translate(301,604)"/>
<path d="M0,0 L6,1 L11,1 L11,8 L3,8 L1,7 L1,12 L0,12 Z " fill="#6B9D15" transform="translate(51,543)"/>
<path d="M0,0 L1,0 L2,5 L2,18 L0,25 L-3,28 L-4,21 L-4,11 L-3,11 L-2,17 L-1,16 Z " fill="#A9D12D" transform="translate(44,412)"/>
<path d="M0,0 L1,0 L2,15 L-5,13 L-7,11 L-6,6 L-1,4 Z " fill="#D5D5D5" transform="translate(29,652)"/>
<path d="M0,0 L1,0 L3,19 L3,27 L2,27 L2,22 L-2,23 L-2,18 L1,17 L1,13 L-3,14 L-3,7 L-1,5 Z " fill="#729929" transform="translate(66,536)"/>
<path d="M0,0 L7,0 L7,8 L1,10 L-1,12 L-1,1 Z " fill="#92AC20" transform="translate(69,629)"/>
<path d="M0,0 L1,2 L-5,15 L-14,15 L-8,8 Z " fill="#ABD145" transform="translate(320,620)"/>
<path d="M0,0 L8,0 L16,2 L20,2 L25,6 L16,6 L16,4 L2,4 Z " fill="#96A76D" transform="translate(39,663)"/>
<path d="M0,0 L4,1 L16,11 L14,12 L14,14 L10,12 L0,3 Z " fill="#A3C643" transform="translate(155,405)"/>
<path d="M0,0 L11,0 L8,2 L-11,5 L-30,5 L-30,4 L-9,2 Z " fill="#D1D1D1" transform="translate(264,636)"/>
<path d="M0,0 L2,1 L2,10 L-1,11 L-12,11 L-13,15 L-12,1 L-11,1 L-9,8 L-3,8 L-1,5 Z " fill="#9DB72D" transform="translate(69,610)"/>
<path d="M0,0 L2,2 L4,18 L0,20 L-1,18 L-2,8 L-1,7 Z " fill="#96BD31" transform="translate(51,434)"/>
<path d="M0,0 L3,0 L3,6 L-3,10 L-5,14 L-5,4 L-3,1 Z " fill="#8AA41E" transform="translate(73,637)"/>
<path d="M0,0 L2,0 L2,18 L17,19 L14,21 L1,22 L0,10 Z " fill="#627738" transform="translate(232,616)"/>
<path d="M0,0 L1,0 L1,9 L4,10 L2,12 L1,45 L0,45 Z M5,3 L7,3 L7,9 L4,8 Z " fill="#A3C760" transform="translate(40,453)"/>
<path d="M0,0 L2,2 L4,12 L2,34 L1,34 Z " fill="#BAD36F" transform="translate(36,354)"/>
<path d="M0,0 L1,0 L1,12 L-3,16 L-6,7 L-5,3 L0,5 Z " fill="#9DBF26" transform="translate(42,563)"/>
<path d="M0,0 L3,1 L10,9 L11,12 L13,12 L14,15 L8,15 L0,1 Z " fill="#B9D766" transform="translate(7,647)"/>
<path d="M0,0 L1,0 L1,36 L0,36 L-1,28 L-3,26 L-2,21 L-1,20 Z " fill="#B4D45D" transform="translate(189,607)"/>
<path d="M0,0 L1,2 L-1,20 L-3,20 L-3,1 Z " fill="#3C6708" transform="translate(57,605)"/>
<path d="M0,0 L10,0 L7,2 L-3,4 L-15,4 L-15,6 L-18,5 L-16,5 L-15,2 L-3,1 Z " fill="#90928C" transform="translate(249,635)"/>
<path d="M0,0 L1,0 L2,14 L8,21 L9,26 L5,24 L5,20 L1,20 L0,16 Z " fill="#76B435" transform="translate(42,523)"/>
<path d="M0,0 L5,2 L5,12 L-1,8 L-1,1 Z " fill="#568326" transform="translate(222,518)"/>
<path d="M0,0 L2,1 L-3,6 L-5,6 L-7,10 L-16,19 L-20,20 L-14,13 L-6,5 Z " fill="#C0D57E" transform="translate(342,18)"/>
<path d="M0,0 L7,1 L10,4 L8,8 L0,9 L2,7 L3,2 L0,1 Z " fill="#D2D2D2" transform="translate(81,657)"/>
<path d="M0,0 L0,3 L-2,9 L-6,13 L-12,16 L-10,12 L-4,4 L-2,4 Z " fill="#C8D350" transform="translate(318,320)"/>
<path d="M0,0 L1,0 L1,13 L0,14 L-1,21 L-3,21 L-3,13 L-1,1 Z " fill="#A0B923" transform="translate(247,482)"/>
<path d="M0,0 L1,3 L-3,13 L-8,13 L-6,8 Z " fill="#B9D863" transform="translate(114,646)"/>
<path d="M0,0 L1,0 L3,11 L3,22 L0,21 Z " fill="#6D970A" transform="translate(52,643)"/>
<path d="M0,0 L2,0 L0,4 L-10,14 L-13,15 L-12,11 L-8,7 L-4,5 Z " fill="#AFBB25" transform="translate(330,311)"/>
<path d="M0,0 L2,0 L-1,10 L-6,24 L-7,24 L-6,14 L-4,9 L-2,9 L-2,4 L0,4 Z " fill="#CCD470" transform="translate(304,364)"/>
<path d="M0,0 L2,0 L4,8 L4,24 L3,24 L2,10 L0,7 L-2,6 L-2,1 Z " fill="#56801A" transform="translate(66,558)"/>
<path d="M0,0 L2,1 L-17,20 L-17,17 L-10,9 L-8,9 L-7,6 Z " fill="#AAC130" transform="translate(354,16)"/>
<path d="M0,0 L1,2 L4,2 L4,5 L5,8 L4,11 L3,23 L2,23 L0,6 Z " fill="#ACC94C" transform="translate(33,603)"/>
<path d="M0,0 L10,0 L12,1 L12,13 L11,13 L10,5 L6,3 L0,2 Z " fill="#A5BC33" transform="translate(60,606)"/>
<path d="M0,0 L1,0 L2,6 L2,18 L0,19 L-1,15 L-1,5 Z " fill="#A2CA24" transform="translate(46,425)"/>
<path d="M0,0 L26,0 L26,1 L11,1 L11,3 L1,2 Z " fill="#B9D765" transform="translate(93,390)"/>
<path d="M0,0 L4,2 L7,5 L7,7 L1,8 L-1,5 Z " fill="#B0D350" transform="translate(166,626)"/>
<path d="M0,0 L13,0 L17,1 L17,3 L4,3 Z " fill="#C5D45C" transform="translate(97,571)"/>
<path d="M0,0 L1,0 L1,22 L0,22 L-2,8 L-2,3 Z " fill="#56812A" transform="translate(227,538)"/>
<path d="M0,0 L1,0 L0,13 L-2,26 L-3,26 L-3,11 L-2,10 L-1,1 Z " fill="#D3DB7C" transform="translate(284,438)"/>
<path d="M0,0 L1,4 L0,11 L-3,16 L-4,22 L-6,22 L-4,12 Z " fill="#D4DD77" transform="translate(265,417)"/>
<path d="M0,0 L10,1 L22,3 L22,4 L9,4 L0,1 Z " fill="#989F8D" transform="translate(202,635)"/>
<path d="M0,0 L4,2 L4,4 L14,6 L14,7 L5,8 L0,4 Z " fill="#739F26" transform="translate(208,538)"/>
<path d="M0,0 L2,1 L5,12 L4,16 L0,12 Z " fill="#C8E185" transform="translate(188,589)"/>
<path d="M0,0 L1,0 L0,13 L-1,20 L-4,22 L-3,12 L-1,12 Z " fill="#A2B623" transform="translate(252,459)"/>
<path d="M0,0 L7,0 L7,4 L-1,5 Z " fill="#99B422" transform="translate(69,629)"/>
<path d="M0,0 L2,1 L3,11 L1,14 L0,8 L-2,8 L-1,3 Z M0,14 Z " fill="#A0C338" transform="translate(49,423)"/>
<path d="M0,0 L2,0 L0,13 L-1,19 L-2,19 L-2,8 L-1,1 Z " fill="#A3B465" transform="translate(274,254)"/>
<path d="M0,0 L8,0 L16,2 L16,3 L5,3 L0,1 Z " fill="#6C7161" transform="translate(39,663)"/>
<path d="M0,0 L1,0 L2,8 L-6,9 L-3,4 L0,4 Z " fill="#79942E" transform="translate(77,657)"/>
<path d="M0,0 L1,0 L1,9 L-1,17 L-3,17 L-2,9 Z " fill="#AEC979" transform="translate(237,216)"/>
<path d="M0,0 L3,2 L10,3 L10,5 L0,5 L-1,8 Z " fill="#89AC1F" transform="translate(236,542)"/>
<path d="M0,0 L1,0 L2,6 L5,5 L6,2 L8,2 L6,6 L2,10 L0,10 Z " fill="#B7CB5E" transform="translate(70,577)"/>
<path d="M0,0 L3,0 L4,2 L4,10 L3,10 L3,5 L-1,6 L-1,1 Z " fill="#648C24" transform="translate(65,553)"/>
<path d="M0,0 L6,1 L11,5 L7,6 L0,2 Z " fill="#A7CA45" transform="translate(142,398)"/>
<path d="M0,0 L8,0 L5,2 L-5,5 L-6,2 Z " fill="#ABBB26" transform="translate(379,3)"/>
<path d="M0,0 L1,2 L-1,13 L-5,14 L-2,4 Z " fill="#C2DE76" transform="translate(101,634)"/>
<path d="M0,0 L1,0 L3,7 L8,9 L8,10 L0,10 L-1,14 Z " fill="#91AD2B" transform="translate(57,611)"/>
<path d="M0,0 L5,2 L10,6 L9,8 L5,7 L0,2 Z " fill="#D0E17C" transform="translate(0,516)"/>
<path d="M0,0 L2,0 L1,9 L-1,17 L-3,15 L-2,11 Z " fill="#A9B96C" transform="translate(280,225)"/>
<path d="M0,0 L1,2 L-5,15 L-6,15 L-6,9 L-5,7 L-3,7 L-2,1 Z " fill="#B0BD6C" transform="translate(334,70)"/>
<path d="M0,0 L1,0 L2,12 L3,16 L0,19 Z " fill="#C4CF99" transform="translate(253,438)"/>
<path d="M0,0 L1,4 L-3,15 L-5,15 L-2,5 Z " fill="#B5CE81" transform="translate(265,129)"/>
<path d="M0,0 L2,1 L-6,11 L-7,8 Z M-8,11 Z " fill="#B1CB6A" transform="translate(322,38)"/>
<path d="M0,0 L4,4 L6,7 L5,10 L-2,2 Z " fill="#C5CA9F" transform="translate(438,30)"/>
<path d="M0,0 L2,0 L3,5 L-3,5 L-4,1 Z " fill="#5F8B14" transform="translate(222,544)"/>
<path d="M0,0 L4,0 L4,4 L-2,4 L-3,1 Z " fill="#679316" transform="translate(217,522)"/>
<path d="M0,0 L6,5 L4,7 L5,9 L1,7 L0,2 Z " fill="#ADB374" transform="translate(425,15)"/>
<path d="M0,0 L1,0 L2,13 L-1,12 Z " fill="#C2C9B0" transform="translate(29,652)"/>
<path d="M0,0 L3,1 L2,5 L-3,7 L-5,8 L-3,4 Z M0,2 Z " fill="#CCD75E" transform="translate(311,328)"/>
<path d="M0,0 L1,0 L1,12 L0,10 L-2,10 L-2,5 L0,5 Z " fill="#A1C562" transform="translate(42,563)"/>
<path d="M0,0 L5,1 L6,5 L4,7 L0,6 L2,5 L2,2 Z " fill="#D9DAD8" transform="translate(85,658)"/>
<path d="M0,0 L1,0 L3,7 L8,8 L8,9 L0,9 L-1,6 Z " fill="#A5C05B" transform="translate(42,611)"/>
<path d="M0,0 L1,3 L-2,11 L-4,7 Z " fill="#CBE28B" transform="translate(301,604)"/>
<path d="M0,0 L2,1 L-3,7 L-4,4 L-6,3 Z " fill="#D2DA7C" transform="translate(343,302)"/>
<path d="M0,0 L1,0 L1,6 L-2,9 L-4,9 L-2,4 Z " fill="#B2D454" transform="translate(293,618)"/>
<path d="M0,0 L1,0 L1,6 L-4,6 L-2,2 Z " fill="#789F28" transform="translate(53,616)"/>
<path d="M0,0 L1,2 L4,2 L2,11 L1,11 Z " fill="#C4D974" transform="translate(33,603)"/>
<path d="M0,0 L1,2 L-2,8 L-6,6 Z " fill="#C1DD74" transform="translate(320,620)"/>
<path d="M0,0 L3,0 L2,8 L0,8 Z " fill="#527B0E" transform="translate(54,617)"/>
<path d="M0,0 L5,2 L5,5 L1,3 L-5,2 L-5,1 Z " fill="#99B532" transform="translate(245,525)"/>
<path d="M0,0 L1,4 L-1,13 L-3,9 L-3,6 L-1,6 Z " fill="#D5DC83" transform="translate(287,424)"/>
<path d="M0,0 L1,0 L1,8 L-2,6 L-1,1 Z " fill="#DBDBDB" transform="translate(188,627)"/>
<path d="M0,0 L2,0 L1,8 L-2,5 Z " fill="#BAD965" transform="translate(296,613)"/>
<path d="M0,0 L2,1 L-4,8 L-5,5 Z " fill="#BCC929" transform="translate(322,318)"/>
<path d="M0,0 L5,0 L5,5 L4,3 L0,3 Z " fill="#86AA22" transform="translate(46,604)"/>
<path d="M0,0 L5,1 L5,6 L0,1 Z " fill="#979E4E" transform="translate(428,21)"/>
</svg>
