<?xml version="1.0" encoding="UTF-8"?>
<!-- Generator: visioncortex VTracer 0.6.5 -->
<svg version="1.1" xmlns="http://www.w3.org/2000/svg" width="200" height="200">
<path d="M0,0 L29,0 L40,4 L47,10 L53,22 L55,33 L55,58 L51,74 L47,80 L42,85 L35,89 L28,91 L-4,91 L-4,33 L-1,26 L4,21 L7,20 L23,20 L29,24 L33,31 L34,37 L34,54 L32,62 L28,68 L22,71 L8,71 L8,78 L24,77 L33,74 L38,68 L41,56 L41,34 L37,21 L30,15 L26,14 L3,14 L-5,18 L-9,24 L-11,31 L-12,81 L-15,97 L-20,107 L-29,115 L-38,118 L-67,118 L-78,114 L-85,108 L-91,96 L-93,85 L-93,60 L-89,44 L-85,38 L-80,33 L-73,29 L-66,27 L-34,27 L-34,85 L-37,92 L-42,97 L-45,98 L-61,98 L-67,94 L-71,87 L-72,81 L-72,64 L-70,56 L-66,50 L-60,47 L-46,47 L-46,40 L-62,41 L-71,44 L-76,50 L-79,62 L-79,84 L-75,97 L-68,103 L-64,104 L-41,104 L-33,100 L-29,94 L-27,87 L-26,37 L-23,21 L-18,11 L-9,3 Z M12,33 L9,35 L8,39 L8,57 L19,57 L21,54 L21,37 L20,34 Z M-57,61 L-59,64 L-59,81 L-58,84 L-50,85 L-47,83 L-46,79 L-46,61 Z " fill="#494A4A" transform="translate(119,41)"/>
</svg>
