<?xml version="1.0" encoding="UTF-8"?>
<!-- Generator: visioncortex VTracer 0.6.5 -->
<svg version="1.1" xmlns="http://www.w3.org/2000/svg" width="256" height="256">
<path d="M0,0 L256,0 L256,256 L0,256 Z " fill="#2D2D2D" transform="translate(0,0)"/>
<path d="M0,0 L22,0 L22,107 L21,108 L20,116 L18,122 L16,122 L14,128 L11,132 L8,132 L8,134 L4,134 L4,136 L-3,138 L-16,138 L-26,134 L-26,132 L-30,130 L-36,122 L-40,107 L-40,100 L-18,100 L-17,110 L-14,115 L-4,115 L-1,110 Z " fill="#FDFDFD" transform="translate(120,60)"/>
<path d="M0,0 L53,0 L57,4 L57,10 L53,14 L0,14 L-4,11 L-4,5 L-2,1 Z " fill="#F9F9F9" transform="translate(154,80)"/>
<path d="M0,0 L43,0 L47,4 L47,10 L43,14 L0,14 L-4,11 L-4,5 L-2,1 Z " fill="#F8F8F8" transform="translate(154,160)"/>
<path d="M0,0 L33,0 L37,4 L37,10 L33,14 L0,14 L-4,11 L-4,5 L-2,1 Z " fill="#F8F8F8" transform="translate(154,120)"/>
<path d="M0,0 L22,0 L22,107 L21,108 L20,116 L19,116 L19,106 L20,103 L21,1 L1,1 L1,111 L-1,110 Z " fill="#CDCDCD" transform="translate(120,60)"/>
<path d="M0,0 L28,0 L27,2 L20,3 L14,8 L10,8 L10,10 L8,10 L7,15 L3,21 L2,26 L0,26 Z " fill="#F5F5F5" transform="translate(0,0)"/>
<path d="M0,0 L2,1 L5,11 L16,21 L16,23 L20,23 L20,25 L0,25 Z " fill="#ECECEC" transform="translate(0,231)"/>
<path d="M0,0 L25,0 L25,20 L23,20 L23,16 L19,14 L11,5 L1,2 Z " fill="#ECECEC" transform="translate(231,0)"/>
<path d="M0,0 L1,0 L1,18 L-17,18 L-16,16 L-13,15 L-9,10 L-7,10 L-5,6 L-2,4 Z " fill="#FEFEFE" transform="translate(255,238)"/>
<path d="M0,0 L1,3 L3,3 L3,6 L6,6 L6,8 L57,8 L57,9 L4,9 L0,6 Z " fill="#CBCBCB" transform="translate(150,85)"/>
<path d="M0,0 L0,3 L-4,4 L-4,6 L-8,6 L-8,8 L-15,10 L-28,10 L-38,6 L-36,5 L-24,7 L-24,9 L-16,9 L-16,7 L-9,7 L-9,5 L-5,5 L-5,3 Z " fill="#B2B2B2" transform="translate(132,188)"/>
<path d="M0,0 L1,3 L3,3 L3,6 L6,6 L6,8 L47,8 L47,9 L4,9 L0,6 Z " fill="#CBCBCB" transform="translate(150,165)"/>
<path d="M0,0 L1,3 L3,3 L3,6 L6,6 L6,8 L37,8 L37,9 L4,9 L0,6 Z " fill="#CBCBCB" transform="translate(150,125)"/>
<path d="M0,0 L10,0 L9,2 L2,3 L-4,8 L-6,7 L-2,5 L-2,3 L0,3 Z " fill="#C1C1C1" transform="translate(18,0)"/>
<path d="M0,0 L3,1 L3,10 L1,12 L-3,11 L0,10 Z " fill="#666666" transform="translate(200,162)"/>
<path d="M0,0 L3,3 L9,4 L10,0 L11,2 L13,2 L14,0 L13,4 L12,5 L2,5 L0,3 Z " fill="#737373" transform="translate(104,171)"/>
<path d="M0,0 L3,1 L3,10 L1,12 L-3,11 L0,10 Z " fill="#666666" transform="translate(190,122)"/>
<path d="M0,0 L3,1 L3,10 L1,12 L-3,11 L0,10 Z " fill="#666666" transform="translate(210,82)"/>
<path d="M0,0 L0,3 L-2,7 L-3,15 L-6,16 L-6,11 L-4,11 L-4,6 Z " fill="#5A5A5A" transform="translate(6,15)"/>
<path d="M0,0 L1,3 L-2,6 L-5,6 L-5,8 L-7,7 L-6,3 L-4,3 L-4,1 Z " fill="#535353" transform="translate(14,7)"/>
<path d="M0,0 L1,2 L-2,7 L-8,9 L-5,5 L-3,5 L-1,1 Z " fill="#A4A4A4" transform="translate(251,243)"/>
<path d="M0,0 L1,0 L3,10 L3,14 L0,14 Z " fill="#5A5A5A" transform="translate(79,160)"/>
<path d="M0,0 L1,3 L3,3 L3,6 L6,6 L6,9 L2,7 L0,6 Z " fill="#BCBCBC" transform="translate(150,165)"/>
<path d="M0,0 L1,3 L3,3 L3,6 L6,6 L6,9 L2,7 L0,6 Z " fill="#BCBCBC" transform="translate(150,125)"/>
<path d="M0,0 L1,3 L3,3 L3,6 L6,6 L6,9 L2,7 L0,6 Z " fill="#BCBCBC" transform="translate(150,85)"/>
<path d="M0,0 L1,2 L0,7 L-2,7 L-2,11 L-5,11 L-3,6 L-1,6 L-1,1 Z " fill="#737373" transform="translate(139,176)"/>
<path d="M0,0 L3,0 L2,3 L-9,4 L-8,2 L-1,1 Z " fill="#5D5D5D" transform="translate(28,0)"/>
<path d="M0,0 L3,0 L3,9 L1,5 Z " fill="#555555" transform="translate(0,227)"/>
<path d="M0,0 L5,1 L9,3 L0,3 Z " fill="#555555" transform="translate(227,0)"/>
<path d="M0,0 L0,3 L-2,5 L-7,5 L-6,3 Z " fill="#E5E5E5" transform="translate(245,251)"/>
<path d="M0,0 L1,0 L1,5 L-2,8 L-4,7 Z " fill="#E5E5E5" transform="translate(255,238)"/>
</svg>
