<?xml version="1.0" encoding="UTF-8"?>
<!-- Generator: visioncortex VTracer 0.6.5 -->
<svg version="1.1" xmlns="http://www.w3.org/2000/svg" width="960" height="315">
<path d="M0,0 L960,0 L960,315 L0,315 Z " fill="#FEFEFE" transform="translate(0,0)"/>
<path d="M0,0 L15,0 L29,3 L39,7 L49,14 L55,19 L64,31 L69,42 L72,53 L72,72 L67,89 L60,101 L52,110 L39,119 L23,125 L19,126 L-1,126 L-17,121 L-27,115 L-37,106 L-44,98 L-51,83 L-54,70 L-54,54 L-50,40 L-45,30 L-38,21 L-30,13 L-19,6 L-12,3 Z " fill="#FDFDFD" transform="translate(528,95)"/>
<path d="M0,0 L18,0 L35,5 L47,12 L57,21 L64,31 L70,44 L72,53 L72,72 L70,81 L65,93 L58,104 L50,112 L39,119 L26,124 L18,126 L3,126 L-9,124 L-20,119 L-31,112 L-40,103 L-47,92 L-51,82 L-53,73 L-53,50 L-48,36 L-42,26 L-33,16 L-22,8 L-11,3 Z " fill="#FDFDFD" transform="translate(686,95)"/>
<path d="M0,0 L12,0 L22,2 L33,6 L43,12 L53,21 L61,32 L66,43 L68,50 L68,73 L66,82 L61,94 L53,105 L45,113 L31,121 L24,124 L15,126 L-3,126 L-15,123 L-31,115 L-43,104 L-50,93 L-55,81 L-57,72 L-57,53 L-54,41 L-46,26 L-37,16 L-24,7 L-12,2 Z " fill="#FEFEFE" transform="translate(848,95)"/>
<path d="M0,0 L1,0 L1,106 L-105,106 L-99,99 Z " fill="#FDFDFD" transform="translate(441,49)"/>
<path d="M0,0 L24,0 L36,3 L52,11 L62,19 L70,28 L75,36 L76,1 L77,0 L82,0 L83,1 L83,126 L80,139 L75,152 L66,165 L59,172 L49,179 L36,185 L23,188 L1,188 L-15,183 L-26,177 L-38,167 L-47,155 L-48,150 L-47,149 L-42,149 L-34,160 L-26,168 L-12,176 L0,180 L24,180 L36,177 L49,170 L56,164 L58,164 L60,160 L67,151 L72,139 L75,128 L75,102 L66,115 L58,123 L44,132 L31,137 L24,138 L-1,138 L-13,134 L-25,128 L-36,119 L-43,111 L-51,97 L-55,86 L-56,80 L-56,56 L-51,41 L-45,30 L-36,19 L-26,11 L-11,3 Z M4,6 L-10,10 L-20,15 L-29,22 L-37,30 L-44,41 L-47,48 L-50,60 L-50,76 L-46,92 L-39,105 L-30,115 L-22,122 L-8,129 L3,132 L23,132 L41,126 L52,119 L60,112 L69,99 L74,86 L76,78 L76,59 L72,45 L66,34 L57,23 L46,15 L36,10 L25,7 L19,6 Z " fill="#0A0A0A" transform="translate(524,89)"/>
<path d="M0,0 L5,1 L5,189 L4,190 L-1,190 L-2,189 L-3,154 L-10,165 L-21,176 L-34,184 L-47,189 L-52,190 L-77,190 L-89,187 L-104,179 L-115,170 L-124,158 L-130,146 L-132,141 L-134,129 L-134,111 L-131,98 L-123,82 L-112,70 L-104,63 L-88,55 L-78,52 L-53,52 L-36,57 L-24,64 L-14,73 L-7,81 L-3,88 L-2,2 Z M-74,58 L-88,62 L-101,69 L-113,80 L-120,90 L-125,101 L-127,108 L-127,131 L-123,146 L-117,157 L-106,169 L-96,176 L-86,181 L-79,183 L-71,184 L-56,184 L-42,180 L-28,173 L-16,162 L-9,151 L-3,137 L-2,130 L-2,111 L-5,99 L-13,84 L-23,73 L-37,64 L-51,59 L-56,58 Z " fill="#0A0A0A" transform="translate(760,37)"/>
<path d="M0,0 L4,1 L5,2 L5,189 L4,190 L-1,190 L-2,189 L-2,124 L-115,125 L-180,190 L-185,190 L-186,185 L-62,61 L-54,54 Z M-3,12 L-108,117 L-108,118 L-2,118 L-2,12 Z " fill="#0A0A0A" transform="translate(444,37)"/>
<path d="M0,0 L23,0 L31,2 L44,7 L55,14 L67,26 L73,35 L74,38 L75,1 L80,0 L81,1 L81,137 L80,138 L75,138 L74,100 L69,109 L60,120 L48,129 L35,135 L24,138 L-2,138 L-17,133 L-28,127 L-40,116 L-48,106 L-54,93 L-58,79 L-58,59 L-54,44 L-46,29 L-35,17 L-23,8 L-9,2 Z M6,6 L-9,9 L-23,16 L-34,25 L-42,35 L-49,50 L-51,59 L-51,78 L-47,93 L-40,106 L-29,118 L-18,125 L-9,129 L3,132 L21,132 L32,129 L48,121 L58,112 L66,102 L71,91 L73,86 L74,79 L74,56 L69,42 L63,32 L54,22 L43,14 L35,10 L25,7 L18,6 Z " fill="#070707" transform="translate(842,89)"/>
<path d="M0,0 L5,1 L4,6 L-62,72 L-63,74 L-33,74 L-32,75 L-31,120 L-27,137 L-19,153 L-10,164 L0,172 L16,180 L28,183 L49,183 L60,180 L72,175 L83,168 L93,158 L101,145 L106,133 L108,124 L109,75 L147,37 L152,38 L151,43 L117,77 L116,122 L112,138 L107,150 L100,161 L92,170 L80,179 L66,186 L57,189 L51,190 L24,190 L6,184 L-7,176 L-17,167 L-24,159 L-32,145 L-37,130 L-38,126 L-38,80 L-74,80 L-75,75 Z " fill="#060606" transform="translate(112,37)"/>
<path d="M0,0 L4,1 L4,6 L-70,80 L-75,79 L-76,76 L-69,68 L-2,1 Z " fill="#101010" transform="translate(223,37)"/>
<path d="M0,0 L5,1 L5,6 L-32,43 L-37,43 L-38,38 Z " fill="#111111" transform="translate(259,37)"/>
<path d="M0,0 L4,1 L4,6 L-33,43 L-38,43 L-39,39 L-32,31 L-2,1 Z " fill="#101010" transform="translate(131,37)"/>
<path d="M0,0 L5,1 L4,6 L-33,43 L-38,42 L-37,37 Z " fill="#030303" transform="translate(149,37)"/>
<path d="M0,0 L5,0 L5,5 L-33,43 L-37,42 L-38,38 Z " fill="#040404" transform="translate(259,56)"/>
<path d="M0,0 L5,1 L7,3 L6,8 L4,10 L-2,9 L-3,3 Z " fill="#0D0D0D" transform="translate(101,85)"/>
<path d="M0,0 L6,1 L7,2 L7,8 L4,10 L-1,9 L-2,8 L-2,2 Z " fill="#0A0A0A" transform="translate(82,85)"/>
</svg>
