<?xml version="1.0" encoding="UTF-8" standalone="no"?>
<!-- Created with Inkscape (http://www.inkscape.org/) -->

<svg
   version="1.1"
   id="svg1"
   width="458.28134"
   height="34.109333"
   viewBox="0 0 458.28134 34.109333"
   sodipodi:docname="attention.pdf"
   xmlns:inkscape="http://www.inkscape.org/namespaces/inkscape"
   xmlns:sodipodi="http://sodipodi.sourceforge.net/DTD/sodipodi-0.dtd"
   xmlns="http://www.w3.org/2000/svg"
   xmlns:svg="http://www.w3.org/2000/svg">
  <defs
     id="defs1" />
  <sodipodi:namedview
     id="namedview1"
     pagecolor="#505050"
     bordercolor="#eeeeee"
     borderopacity="1"
     inkscape:showpageshadow="0"
     inkscape:pageopacity="0"
     inkscape:pagecheckerboard="0"
     inkscape:deskcolor="#505050">
    <inkscape:page
       x="0"
       y="0"
       inkscape:label="1"
       id="page1"
       width="458.28134"
       height="34.109333"
       margin="0"
       bleed="0" />
  </sodipodi:namedview>
  <g
     id="g1"
     inkscape:groupmode="layer"
     inkscape:label="1">
    <g
       id="g2"
       aria-label="Attention(Q,K,V)=softmax&#10;&#10;QK&#10;T"
       transform="matrix(1.3333333,0,0,1.3333333,107.608,21.489333)">
      <path
         id="path2"
         d="m 3.9619687,-6.9382891 c -0.046875,-0.1289062 -0.070312,-0.1992187 -0.2226562,-0.1992187 -0.1640625,0 -0.1875,0.058594 -0.2460938,0.1992187 l -2.0625,5.96484379 C 1.2549375,-0.46953906 0.8565,-0.31719531 0.3174375,-0.30547656 V -7.890625e-4 C 0.5518125,-0.01250781 0.9736875,-0.03594531 1.3369687,-0.03594531 c 0.3046875,0 0.8203125,0.0234375 1.1484375,0.0351562475 V -0.30547656 c -0.5039062,0 -0.75,-0.2578125 -0.75,-0.515625 0,-0.0234375 0.011719,-0.12890625 0.023437,-0.140625 L 2.215875,-2.2742266 h 2.4609375 l 0.5273437,1.52343754 c 0.011719,0.046875 0.023437,0.10546875 0.023437,0.140625 0,0.3046875 -0.5507812,0.3046875 -0.8203125,0.3046875 V -7.890625e-4 C 4.7588437,-0.03594531 5.4619687,-0.03594531 5.8369687,-0.03594531 c 0.4335938,0 0.890625,0.01171875 1.3007813,0.0351562475 V -0.30547656 H 6.9619687 c -0.5976562,0 -0.7382812,-0.0703125 -0.84375,-0.3984375 z m -0.5273437,1.125 1.125,3.234375 H 2.3213437 Z m 5.4814453,1.828125 H 10.345758 V -4.2898516 H 8.9160703 V -6.1296953 H 8.6699766 c -0.011719,0.8203125 -0.3164063,1.8867187 -1.2890625,1.921875 v 0.2226562 h 0.84375 v 2.7539063 c 0,1.21874999 0.9257812,1.33593749 1.2890625,1.33593749 0.7031254,0 0.9843754,-0.703125 0.9843754,-1.33593749 v -0.5742188 h -0.246094 v 0.5507813 c 0,0.73828124 -0.3046877,1.11328124 -0.6679689,1.11328124 -0.6679688,0 -0.6679688,-0.90234374 -0.6679688,-1.07812504 z m 3.8730467,0 h 1.429688 v -0.3046875 h -1.429688 v -1.8398437 h -0.246094 c -0.01172,0.8203125 -0.316406,1.8867187 -1.289062,1.921875 v 0.2226562 h 0.84375 v 2.7539063 c 0,1.21874999 0.925781,1.33593749 1.289062,1.33593749 0.703125,0 0.984375,-0.703125 0.984375,-1.33593749 v -0.5742188 h -0.246093 v 0.5507813 c 0,0.73828124 -0.304688,1.11328124 -0.667969,1.11328124 -0.667969,0 -0.667969,-0.90234374 -0.667969,-1.07812504 z m 3.266602,1.4765625 c 0.05859,-1.4882812 0.902343,-1.734375 1.242187,-1.734375 1.019531,0 1.125,1.3476563 1.125,1.734375 z M 16.044,-2.2976641 h 2.789062 c 0.210938,0 0.246094,0 0.246094,-0.2109375 0,-0.984375 -0.539062,-1.9570312 -1.78125,-1.9570312 -1.160156,0 -2.074219,1.03125 -2.074219,2.2734375 0,1.33593749 1.042969,2.29687499 2.191407,2.29687499 1.21875,0 1.664062,-1.1015625 1.664062,-1.28906249 0,-0.1054688 -0.08203,-0.1171875 -0.128906,-0.1171875 -0.09375,0 -0.117188,0.058594 -0.128906,0.140625 -0.351563,1.01953124 -1.253907,1.01953124 -1.347657,1.01953124 -0.503906,0 -0.902343,-0.29296875 -1.125,-0.66796875 C 16.044,-1.2898516 16.044,-1.9461016 16.044,-2.2976641 Z m 4.426758,-1.125 v 2.66015629 c 0,0.45703125 -0.117188,0.45703125 -0.785156,0.45703125 v 0.3046874975 c 0.351562,-0.0117187475 0.855468,-0.0351562475 1.125,-0.0351562475 0.257812,0 0.785156,0.0234375 1.113281,0.0351562475 V -0.30547656 c -0.65625,0 -0.773438,0 -0.773438,-0.45703125 V -2.5906328 c 0,-1.03125 0.714844,-1.59375 1.347657,-1.59375 0.621093,0 0.738281,0.5390625 0.738281,1.1015625 v 2.32031249 c 0,0.45703125 -0.117188,0.45703125 -0.773438,0.45703125 v 0.3046874975 c 0.339844,-0.0117187475 0.855469,-0.0351562475 1.125,-0.0351562475 0.257813,0 0.773438,0.0234375 1.113282,0.0351562475 V -0.30547656 c -0.515625,0 -0.773438,0 -0.785157,-0.3046875 V -2.5086016 c 0,-0.8554687 0,-1.171875 -0.304687,-1.5234375 -0.140625,-0.1757812 -0.46875,-0.375 -1.042969,-0.375 -0.726562,0 -1.195312,0.4335938 -1.476562,1.0546875 v -1.0546875 l -1.40625,0.1171875 v 0.3046875 c 0.703125,0 0.785156,0.070312 0.785156,0.5625 z m 5.876953,-0.5625 h 1.429687 v -0.3046875 h -1.429687 v -1.8398437 h -0.246094 c -0.01172,0.8203125 -0.316406,1.8867187 -1.289062,1.921875 v 0.2226562 h 0.84375 v 2.7539063 c 0,1.21874999 0.925781,1.33593749 1.289062,1.33593749 0.703125,0 0.984375,-0.703125 0.984375,-1.33593749 v -0.5742188 h -0.246094 v 0.5507813 c 0,0.73828124 -0.304687,1.11328124 -0.667968,1.11328124 -0.667969,0 -0.667969,-0.90234374 -0.667969,-1.07812504 z m 3.911133,-0.421875 -1.394532,0.1171875 v 0.3046875 c 0.65625,0 0.738282,0.058594 0.738282,0.5507813 v 2.67187499 c 0,0.45703125 -0.105469,0.45703125 -0.773438,0.45703125 V -7.890625e-4 C 29.145562,-0.01250781 29.684625,-0.03594531 29.930719,-0.03594531 c 0.339843,0 0.691406,0.0234375 1.03125,0.0351562475 V -0.30547656 c -0.65625,0 -0.703125,-0.0585938 -0.703125,-0.4453125 z m 0.04687,-1.734375 c 0,-0.3164062 -0.246094,-0.5273437 -0.527344,-0.5273437 -0.316406,0 -0.527344,0.2695312 -0.527344,0.5273437 0,0.2695313 0.210938,0.5273438 0.527344,0.5273438 0.28125,0 0.527344,-0.1992188 0.527344,-0.5273438 z m 5.648437,4.0078125 c 0,-1.2773437 -0.996094,-2.3320312 -2.191406,-2.3320312 -1.253906,0 -2.214844,1.0898437 -2.214844,2.3320312 0,1.28906254 1.03125,2.23828129 2.203125,2.23828129 1.207031,0 2.203125,-0.97265625 2.203125,-2.23828129 z m -2.191406,1.99218754 c -0.433594,0 -0.867188,-0.2109375 -1.136719,-0.66796875 -0.257812,-0.43359379 -0.257812,-1.04296879 -0.257812,-1.40624999 0,-0.3867188 0,-0.9257813 0.246093,-1.359375 0.269532,-0.4570313 0.738282,-0.6679688 1.136719,-0.6679688 0.433594,0 0.867188,0.2226563 1.125,0.6445313 0.257813,0.4335937 0.257813,1.0078125 0.257813,1.3828125 0,0.3632812 0,0.9023437 -0.222657,1.33593749 -0.222656,0.4453125 -0.65625,0.73828125 -1.148437,0.73828125 z m 3.588867,-3.28125004 v 2.66015629 c 0,0.45703125 -0.117187,0.45703125 -0.785156,0.45703125 v 0.3046874975 c 0.351562,-0.0117187475 0.855469,-0.0351562475 1.125,-0.0351562475 0.257812,0 0.785156,0.0234375 1.113281,0.0351562475 V -0.30547656 c -0.65625,0 -0.773437,0 -0.773437,-0.45703125 V -2.5906328 c 0,-1.03125 0.714843,-1.59375 1.347656,-1.59375 0.621094,0 0.738281,0.5390625 0.738281,1.1015625 v 2.32031249 c 0,0.45703125 -0.117187,0.45703125 -0.773437,0.45703125 v 0.3046874975 c 0.339843,-0.0117187475 0.855468,-0.0351562475 1.125,-0.0351562475 0.257812,0 0.773437,0.0234375 1.113281,0.0351562475 V -0.30547656 c -0.515625,0 -0.773438,0 -0.785156,-0.3046875 V -2.5086016 c 0,-0.8554687 0,-1.171875 -0.304688,-1.5234375 -0.140625,-0.1757812 -0.46875,-0.375 -1.042969,-0.375 -0.726562,0 -1.195312,0.4335938 -1.476562,1.0546875 v -1.0546875 l -1.40625,0.1171875 v 0.3046875 c 0.703125,0 0.785156,0.070312 0.785156,0.5625 z m 7.725586,5.8125 c 0,-0.035156 0,-0.046875 -0.164062,-0.2226562 -1.242188,-1.25390626 -1.570313,-3.12890626 -1.570313,-4.6640625 0,-1.7226563 0.386719,-3.4570313 1.605469,-4.7109375 0.128906,-0.1171875 0.128906,-0.1289063 0.128906,-0.1640625 0,-0.070312 -0.03516,-0.1054688 -0.09375,-0.1054688 -0.105469,0 -0.996094,0.6796875 -1.582031,1.9453125 -0.515625,1.1015625 -0.632813,2.203125 -0.632813,3.0351563 0,0.7851562 0.117188,1.99218749 0.65625,3.11718749 0.597657,1.21875001 1.453125,1.87500001 1.558594,1.87500001 0.05859,0 0.09375,-0.035156 0.09375,-0.1054688 z m 0,0"
         style="fill:#000000;fill-opacity:1;fill-rule:nonzero;stroke:none" />
      <path
         id="path3"
         d="m 50.016656,-0.05938281 c 1.546875,-0.5859375 3.011719,-2.36718749 3.011719,-4.28906249 0,-1.59375 -1.054688,-2.671875 -2.542969,-2.671875 -2.144531,0 -4.335937,2.2617187 -4.335937,4.5820312 0,1.65234379 1.113281,2.66015629 2.542968,2.66015629 0.257813,0 0.585938,-0.046875 0.984375,-0.15234375 -0.04687,0.62109375 -0.04687,0.6328125 -0.04687,0.76171875 0,0.32812501 0,1.10156251 0.832032,1.10156251 1.183593,0 1.664062,-1.82812501 1.664062,-1.9335937625 0,-0.0703124975 -0.07031,-0.1054687475 -0.117187,-0.1054687475 -0.07031,0 -0.09375,0.05859375 -0.117188,0.1171875 -0.234375,0.703125 -0.820312,0.94921875 -1.160156,0.94921875 -0.457031,0 -0.609375,-0.2578125 -0.714844,-1.01953125 z m -1.875,-0.08203125 c -0.785156,-0.3046875 -1.125,-1.08984374 -1.125,-1.98046874 0,-0.6914063 0.269531,-2.0976563 1.019531,-3.1757813 0.726563,-1.0195312 1.664063,-1.4765625 2.390625,-1.4765625 0.996094,0 1.722657,0.7734375 1.722657,2.109375 0,0.9960938 -0.503907,3.328125 -2.179688,4.26562504 -0.04687,-0.3515625 -0.152344,-1.07812504 -0.878906,-1.07812504 -0.527344,0 -1.007813,0.50390629 -1.007813,1.01953129 0,0.19921875 0.05859,0.3046875 0.05859,0.31640625 z m 0.609375,0.10546875 c -0.140625,0 -0.457031,0 -0.457031,-0.421875 0,-0.3984375 0.386719,-0.79687499 0.796875,-0.79687499 0.421875,0 0.609375,0.234375 0.609375,0.84374999 0,0.15234375 -0.01172,0.1640625 -0.105469,0.19921875 -0.257812,0.10546875 -0.5625,0.17578125 -0.84375,0.17578125 z m 6.811524,0.0234375 c 0,-0.65625 -0.257813,-1.04296879 -0.644532,-1.04296879 -0.328125,0 -0.527343,0.24609379 -0.527343,0.52734379 0,0.26953125 0.199218,0.5273437475 0.527343,0.5273437475 0.117188,0 0.246094,-0.0351562475 0.351563,-0.1289062475 0.02344,-0.0234375 0.03516,-0.0351563 0.04687,-0.0351563 0.01172,0 0.02344,0.0117188 0.02344,0.15234375 0,0.73828125 -0.351562,1.33593746 -0.679687,1.66406246 -0.105469,0.1054688 -0.105469,0.1289063 -0.105469,0.1640625 0,0.070312 0.04687,0.1054687 0.09375,0.1054687 0.117188,0 0.914063,-0.7617187 0.914063,-1.93359366 z m 7.479492,-4.00781249 c -0.01172,-0.035156 -0.05859,-0.1171875 -0.05859,-0.140625 0,-0.011719 0.1875,-0.1523438 0.292969,-0.234375 l 1.746094,-1.3476563 c 0.9375,-0.6796875 1.324218,-0.7265625 1.617187,-0.75 0.08203,-0.011719 0.1875,-0.023437 0.1875,-0.1992187 0,-0.046875 -0.03516,-0.1171875 -0.117187,-0.1171875 -0.210938,0 -0.46875,0.035156 -0.703125,0.035156 -0.363282,0 -0.75,-0.035156 -1.101563,-0.035156 -0.07031,0 -0.199219,0 -0.199219,0.1992187 0,0.070312 0.05859,0.1054688 0.128907,0.1171875 0.210937,0.011719 0.304687,0.070312 0.304687,0.2109375 0,0.1757813 -0.292969,0.3984375 -0.363281,0.4570313 l -3.878906,2.9882812 0.796875,-3.1992187 c 0.09375,-0.3632813 0.105468,-0.4570313 0.832031,-0.4570313 0.257812,0 0.339844,0 0.339844,-0.1992187 0,-0.09375 -0.08203,-0.1171875 -0.140625,-0.1171875 -0.269532,0 -0.996094,0.035156 -1.265625,0.035156 -0.292969,0 -0.996094,-0.035156 -1.289063,-0.035156 -0.07031,0 -0.199219,0 -0.199219,0.1992187 0,0.1171875 0.09375,0.1171875 0.292969,0.1171875 0.128906,0 0.304688,0.011719 0.421875,0.011719 0.164063,0.023437 0.222656,0.058594 0.222656,0.1640625 0,0.035156 -0.01172,0.070312 -0.04687,0.1875 l -1.335937,5.35546874 c -0.09375,0.38671875 -0.117188,0.46875 -0.902344,0.46875 -0.164062,0 -0.28125,0 -0.28125,0.1875 0,0.1171874975 0.128906,0.1171874975 0.152344,0.1171874975 0.28125,0 0.984375,-0.0351562475 1.265625,-0.0351562475 0.210937,0 0.433594,0.01171875 0.632812,0.01171875 0.222657,0 0.445313,0.0234374975 0.65625,0.0234374975 0.07031,0 0.199219,0 0.199219,-0.1992187475 0,-0.10546875 -0.09375,-0.10546875 -0.28125,-0.10546875 -0.375,0 -0.644531,0 -0.644531,-0.1875 0,-0.0703125 0.05859,-0.28125 0.08203,-0.43359375 0.140625,-0.51562499 0.269531,-1.04296879 0.398438,-1.57031249 l 1.488281,-1.1484375 1.160156,2.68359374 c 0.117188,0.2578125 0.117188,0.28125 0.117188,0.33984375 0,0.3046875 -0.433594,0.31640625 -0.515625,0.31640625 -0.117188,0 -0.222657,0 -0.222657,0.19921875 0,0.1054687475 0.117188,0.1054687475 0.140625,0.1054687475 0.398438,0 0.808594,-0.0351562475 1.207032,-0.0351562475 0.222656,0 0.761718,0.0351562475 0.984375,0.0351562475 0.04687,0 0.175781,0 0.175781,-0.1992187475 0,-0.10546875 -0.105469,-0.10546875 -0.199219,-0.10546875 -0.410156,-0.0117188 -0.539062,-0.10546875 -0.691406,-0.45703125 z m 5.572265,4.00781249 c 0,-0.65625 -0.257812,-1.04296879 -0.644531,-1.04296879 -0.328125,0 -0.527344,0.24609379 -0.527344,0.52734379 0,0.26953125 0.199219,0.5273437475 0.527344,0.5273437475 0.117188,0 0.246094,-0.0351562475 0.351563,-0.1289062475 0.02344,-0.0234375 0.03516,-0.0351563 0.04687,-0.0351563 0.01172,0 0.02344,0.0117188 0.02344,0.15234375 0,0.73828125 -0.351562,1.33593756 -0.679687,1.66406256 C 67.6065,1.7570234 67.6065,1.7804609 67.6065,1.8156172 c 0,0.070312 0.04687,0.1054687 0.09375,0.1054687 0.117187,0 0.914062,-0.7617187 0.914062,-1.93359371 z m 8.663086,-5.66015629 c 0.480469,-0.7734375 0.902344,-0.8085937 1.277344,-0.8203125 0.117188,-0.011719 0.128906,-0.1875 0.128906,-0.1875 0,-0.082031 -0.05859,-0.1289062 -0.128906,-0.1289062 -0.257812,0 -0.550781,0.035156 -0.820312,0.035156 -0.328125,0 -0.667969,-0.035156 -0.984375,-0.035156 -0.05859,0 -0.1875,0 -0.1875,0.1992187 0,0.1054688 0.08203,0.1171875 0.152343,0.1171875 0.269532,0.011719 0.457032,0.1171875 0.457032,0.328125 0,0.1523438 -0.140625,0.3632813 -0.140625,0.375 l -3.058594,4.86328129 -0.679688,-5.27343749 c 0,-0.1640625 0.222657,-0.2929688 0.679688,-0.2929688 0.140625,0 0.257812,0 0.257812,-0.1992187 0,-0.09375 -0.08203,-0.1171875 -0.140625,-0.1171875 -0.398437,0 -0.832031,0.035156 -1.242187,0.035156 -0.175781,0 -0.363281,-0.011719 -0.539063,-0.011719 -0.1875,0 -0.375,-0.023437 -0.539062,-0.023437 -0.07031,0 -0.1875,0 -0.1875,0.1992187 0,0.1171875 0.08203,0.1171875 0.246094,0.1171875 0.550781,0 0.5625,0.082031 0.597656,0.3398438 l 0.785156,6.14062499 c 0.03516,0.19921875 0.07031,0.234375 0.199219,0.234375 0.164062,0 0.199219,-0.0585938 0.28125,-0.1875 z m 0,0"
         style="fill:#000000;fill-opacity:1;fill-rule:nonzero;stroke:none" />
      <path
         id="path4"
         d="m 81.923883,-2.4968828 c 0,-0.7734375 -0.117188,-1.9804688 -0.65625,-3.1054688 -0.597656,-1.21875 -1.464844,-1.875 -1.558594,-1.875 -0.05859,0 -0.105469,0.046875 -0.105469,0.1054688 0,0.035156 0,0.046875 0.199219,0.234375 0.972656,0.984375 1.535156,2.5664062 1.535156,4.640625 0,1.71093749 -0.363281,3.45703124 -1.59375,4.7226562 -0.140625,0.1171875 -0.140625,0.1289063 -0.140625,0.1640625 0,0.058594 0.04687,0.1054688 0.105469,0.1054688 0.09375,0 0.996094,-0.6796875 1.582031,-1.94531251 0.503907,-1.1015625 0.632813,-2.20312499 0.632813,-3.04687499 z m 10.605469,-0.7617188 c 0.152343,0 0.339843,0 0.339843,-0.1992187 0,-0.1992188 -0.1875,-0.1992188 -0.328125,-0.1992188 h -5.964843 c -0.140625,0 -0.328125,0 -0.328125,0.1992188 0,0.1992187 0.1875,0.1992187 0.339843,0.1992187 z m 0.01172,1.9335938 c 0.140625,0 0.328125,0 0.328125,-0.1992188 0,-0.1992187 -0.1875,-0.1992187 -0.339843,-0.1992187 h -5.941407 c -0.152343,0 -0.339843,0 -0.339843,0.1992187 0,0.1992188 0.1875,0.1992188 0.328125,0.1992188 z m 5.727539,-0.609375 c 0.222657,0.035156 1.03125,0.1992187 1.03125,0.9140625 0,0.51562499 -0.351562,0.91406249 -1.125,0.91406249 -0.832031,0 -1.195312,-0.57421875 -1.382812,-1.41796879 -0.03516,-0.1289062 -0.03516,-0.1757812 -0.140625,-0.1757812 -0.128906,0 -0.128906,0.070312 -0.128906,0.2578125 v 1.31249999 c 0,0.1640625 0,0.234375 0.105468,0.234375 0.05859,0 0.07031,0 0.257813,-0.19921875 0.01172,-0.01171875 0.01172,-0.03515625 0.199219,-0.22265625 0.433593,0.421875 0.878906,0.421875 1.089843,0.421875 1.148438,0 1.605469,-0.66796875 1.605469,-1.38281249 0,-0.5273438 -0.292969,-0.8203125 -0.421875,-0.9492188 -0.328125,-0.3164062 -0.714844,-0.3984375 -1.136719,-0.46875 -0.550781,-0.1171875 -1.21875,-0.2460937 -1.21875,-0.8203125 0,-0.3515625 0.257813,-0.7617187 1.113282,-0.7617187 1.101562,0 1.148437,0.9023437 1.171875,1.2070312 0,0.09375 0.09375,0.09375 0.117187,0.09375 0.128906,0 0.128906,-0.046875 0.128906,-0.2460937 v -0.9960938 c 0,-0.1757812 0,-0.2460937 -0.117187,-0.2460937 -0.04687,0 -0.07031,0 -0.199219,0.1171875 -0.02344,0.046875 -0.128906,0.1289062 -0.164062,0.1640625 -0.375,-0.28125 -0.785157,-0.28125 -0.9375,-0.28125 -1.21875,0 -1.59375,0.6679687 -1.59375,1.2304687 0,0.3398438 0.164062,0.6210938 0.433593,0.84375 0.316407,0.2578125 0.597657,0.3164063 1.3125,0.4570313 z m 6.541989,-0.1992188 c 0,-1.2773437 -0.99609,-2.3320312 -2.1914,-2.3320312 -1.25391,0 -2.21485,1.0898437 -2.21485,2.3320312 0,1.28906254 1.03125,2.23828129 2.20313,2.23828129 1.20703,0 2.20312,-0.97265625 2.20312,-2.23828129 z m -2.1914,1.99218754 c -0.4336,0 -0.86719,-0.2109375 -1.13672,-0.66796875 -0.25782,-0.43359379 -0.25782,-1.04296879 -0.25782,-1.40624999 0,-0.3867188 0,-0.9257813 0.2461,-1.359375 0.26953,-0.4570313 0.73828,-0.6679688 1.13672,-0.6679688 0.43359,0 0.86718,0.2226563 1.125,0.6445313 0.25781,0.4335937 0.25781,1.0078125 0.25781,1.3828125 0,0.3632812 0,0.9023437 -0.22266,1.33593749 -0.22265,0.4453125 -0.65625,0.73828125 -1.14843,0.73828125 z m 4.23046,-4.14843754 v -1.1601562 c 0,-0.8789063 0.48047,-1.359375 0.91407,-1.359375 0.0352,0 0.17578,0 0.32812,0.070312 -0.11719,0.046875 -0.29297,0.1757812 -0.29297,0.421875 0,0.234375 0.15235,0.4335937 0.42188,0.4335937 0.29297,0 0.43359,-0.1992187 0.43359,-0.4453125 0,-0.3632812 -0.36328,-0.6914062 -0.89062,-0.6914062 -0.70313,0 -1.54688,0.5273437 -1.54688,1.5820312 v 1.1484375 h -0.78515 v 0.3046875 h 0.78515 v 3.22265629 c 0,0.45703125 -0.10547,0.45703125 -0.77344,0.45703125 v 0.3046874975 c 0.38672,-0.0117187475 0.85547,-0.0351562475 1.13672,-0.0351562475 0.39844,0 0.86719,0 1.26563,0.0351562475 V -0.30547656 h -0.21094 c -0.73828,0 -0.76172,-0.1171875 -0.76172,-0.46875 V -3.9851641 h 1.13672 v -0.3046875 z m 3.02344,0.3046875 h 1.42969 v -0.3046875 h -1.42969 v -1.8398437 h -0.24609 c -0.0117,0.8203125 -0.31641,1.8867187 -1.28906,1.921875 v 0.2226562 h 0.84375 v 2.7539063 c 0,1.21874999 0.92578,1.33593749 1.28906,1.33593749 0.70312,0 0.98437,-0.703125 0.98437,-1.33593749 v -0.5742188 h -0.24609 v 0.5507813 c 0,0.73828124 -0.30469,1.11328124 -0.66797,1.11328124 -0.66797,0 -0.66797,-0.90234374 -0.66797,-1.07812504 z m 3.25195,0.5625 v 2.66015629 c 0,0.45703125 -0.11718,0.45703125 -0.78515,0.45703125 v 0.3046874975 c 0.35156,-0.0117187475 0.85547,-0.0351562475 1.125,-0.0351562475 0.25781,0 0.78515,0.0234375 1.11328,0.0351562475 V -0.30547656 c -0.65625,0 -0.77344,0 -0.77344,-0.45703125 V -2.5906328 c 0,-1.03125 0.71485,-1.59375 1.34766,-1.59375 0.62109,0 0.73828,0.5390625 0.73828,1.1015625 v 2.32031249 c 0,0.45703125 -0.11719,0.45703125 -0.77344,0.45703125 v 0.3046874975 c 0.33985,-0.0117187475 0.85547,-0.0351562475 1.125,-0.0351562475 0.25781,0 0.77344,0.0234375 1.11328,0.0351562475 V -0.30547656 c -0.66797,0 -0.78515,0 -0.78515,-0.45703125 V -2.5906328 c 0,-1.03125 0.71484,-1.59375 1.34765,-1.59375 0.63282,0 0.73828,0.5390625 0.73828,1.1015625 v 2.32031249 c 0,0.45703125 -0.10546,0.45703125 -0.77343,0.45703125 v 0.3046874975 c 0.35156,-0.0117187475 0.85547,-0.0351562475 1.125,-0.0351562475 0.25781,0 0.77343,0.0234375 1.11328,0.0351562475 V -0.30547656 c -0.51563,0 -0.76172,0 -0.77344,-0.3046875 V -2.5086016 c 0,-0.8554687 0,-1.171875 -0.31641,-1.5234375 -0.1289,-0.1757812 -0.46875,-0.375 -1.04296,-0.375 -0.83204,0 -1.27735,0.5976563 -1.44141,0.984375 -0.14063,-0.8671875 -0.87891,-0.984375 -1.32422,-0.984375 -0.72656,0 -1.19531,0.4335938 -1.47656,1.0546875 v -1.0546875 l -1.40625,0.1171875 v 0.3046875 c 0.70312,0 0.78515,0.070312 0.78515,0.5625 z m 10.51758,2.66015629 c 0.0352,0.3984375 0.30469,0.8203125 0.77344,0.8203125 0.21094,0 0.82031,-0.140625 0.82031,-0.94921875 V -1.4421953 h -0.24609 v 0.55078124 c 0,0.5859375 -0.24609,0.64453125 -0.36328,0.64453125 -0.32813,0 -0.36328,-0.45703125 -0.36328,-0.50390625 V -2.7429766 c 0,-0.4101562 0,-0.8085937 -0.36328,-1.171875 -0.38672,-0.3867187 -0.87891,-0.5507812 -1.35938,-0.5507812 -0.82031,0 -1.51172,0.46875 -1.51172,1.125 0,0.3046875 0.19922,0.46875 0.45703,0.46875 0.28125,0 0.46875,-0.1992188 0.46875,-0.4570313 0,-0.1171875 -0.0586,-0.4453125 -0.51562,-0.4570312 0.26953,-0.3515625 0.76172,-0.4570313 1.07812,-0.4570313 0.49219,0 1.05469,0.3867188 1.05469,1.2773438 v 0.3632812 c -0.50391,0.035156 -1.20703,0.058594 -1.82812,0.3632813 -0.75,0.3398437 -0.9961,0.8554687 -0.9961,1.28906249 0,0.80859375 0.96094,1.0546875 1.59375,1.0546875 0.65625,0 1.11328,-0.3984375 1.30078,-0.8671875 z m -0.0703,-1.62890629 v 0.9960938 c 0,0.94921874 -0.71484,1.28906249 -1.16016,1.28906249 -0.49218,0 -0.90234,-0.3515625 -0.90234,-0.85546875 0,-0.53906254 0.42188,-1.37109374 2.0625,-1.42968754 z m 4.59375,0.046875 c 0.29297,-0.375 0.67969,-0.8671875 0.91406,-1.125 0.31641,-0.3515625 0.71485,-0.5039062 1.1836,-0.515625 v -0.3046875 c -0.25782,0.011719 -0.55078,0.023437 -0.8086,0.023437 -0.30468,0 -0.83203,-0.023437 -0.96093,-0.023437 v 0.3046875 c 0.21093,0.023437 0.29296,0.1523438 0.29296,0.3046875 0,0.1640625 -0.10546,0.2929688 -0.15234,0.3515625 l -0.62109,0.7734375 -0.77344,-0.9960937 c -0.0937,-0.1054688 -0.0937,-0.1289063 -0.0937,-0.1875 0,-0.1523438 0.15234,-0.234375 0.35156,-0.2460938 v -0.3046875 c -0.25781,0 -0.91406,0.023437 -1.07812,0.023437 -0.21094,0 -0.67969,-0.011719 -0.94922,-0.023437 v 0.3046875 c 0.70312,0 0.71484,0.011719 1.18359,0.609375 l 0.98438,1.2773438 -0.9375,1.19531249 c -0.48047,0.57421875 -1.06641,0.59765625 -1.27735,0.59765625 v 0.3046874975 c 0.25782,-0.0234374975 0.57422,-0.0351562475 0.83203,-0.0351562475 0.28125,0 0.70313,0.0234375 0.94922,0.0351562475 V -0.30547656 c -0.22265,-0.0351563 -0.29297,-0.1640625 -0.29297,-0.31640625 0,-0.2109375 0.29297,-0.53906249 0.89063,-1.26562499 l 0.76172,0.99609374 c 0.082,0.1171875 0.21094,0.26953125 0.21094,0.328125 0,0.09375 -0.0937,0.24609375 -0.36329,0.2578125 v 0.3046874975 c 0.30469,-0.0117187475 0.85547,-0.0351562475 1.07813,-0.0351562475 0.26953,0 0.65625,0.01171875 0.96094,0.0351562475 V -0.30547656 c -0.53907,0 -0.72657,-0.0234375 -0.94922,-0.31640625 z m 0,0"
         style="fill:#000000;fill-opacity:1;fill-rule:nonzero;stroke:none" />
      <path
         id="path5"
         d="m 145.11724,-6.7976641 c 1.54688,-0.5859375 3.01172,-2.3671875 3.01172,-4.2890629 0,-1.59375 -1.05469,-2.671875 -2.54297,-2.671875 -2.14453,0 -4.33594,2.261719 -4.33594,4.5820317 0,1.6523437 1.11329,2.6601562 2.54297,2.6601562 0.25782,0 0.58594,-0.046875 0.98438,-0.1523437 -0.0469,0.6210937 -0.0469,0.6328125 -0.0469,0.7617187 0,0.328125 0,1.1015625 0.83203,1.1015625 1.1836,0 1.66407,-1.828125 1.66407,-1.9335937 0,-0.070312 -0.0703,-0.1054688 -0.11719,-0.1054688 -0.0703,0 -0.0937,0.058594 -0.11719,0.1171875 -0.23437,0.703125 -0.82031,0.9492188 -1.16015,0.9492188 -0.45704,0 -0.60938,-0.2578125 -0.71485,-1.0195313 z m -1.875,-0.082031 c -0.78515,-0.3046875 -1.125,-1.0898438 -1.125,-1.9804688 0,-0.6914062 0.26953,-2.0976561 1.01953,-3.1757811 0.72657,-1.019532 1.66407,-1.476563 2.39063,-1.476563 0.99609,0 1.72265,0.773438 1.72265,2.109375 0,0.996094 -0.5039,3.3281254 -2.17968,4.2656254 -0.0469,-0.3515625 -0.15235,-1.078125 -0.87891,-1.078125 -0.52734,0 -1.00781,0.5039062 -1.00781,1.0195312 0,0.1992188 0.0586,0.3046875 0.0586,0.3164063 z m 0.60938,0.1054687 c -0.14063,0 -0.45703,0 -0.45703,-0.421875 0,-0.3984375 0.38671,-0.796875 0.79687,-0.796875 0.42188,0 0.60938,0.234375 0.60938,0.84375 0,0.1523438 -0.0117,0.1640625 -0.10547,0.1992188 -0.25782,0.1054687 -0.5625,0.1757812 -0.84375,0.1757812 z m 9.8584,-3.9843756 c -0.0117,-0.03516 -0.0586,-0.117187 -0.0586,-0.140625 0,-0.01172 0.1875,-0.152343 0.29297,-0.234375 l 1.74609,-1.347656 c 0.9375,-0.679687 1.32422,-0.726562 1.61719,-0.75 0.082,-0.01172 0.1875,-0.02344 0.1875,-0.199219 0,-0.04687 -0.0352,-0.117187 -0.11719,-0.117187 -0.21093,0 -0.46875,0.03516 -0.70312,0.03516 -0.36328,0 -0.75,-0.03516 -1.10156,-0.03516 -0.0703,0 -0.19922,0 -0.19922,0.199219 0,0.07031 0.0586,0.105468 0.1289,0.117187 0.21094,0.01172 0.30469,0.07031 0.30469,0.210938 0,0.175781 -0.29297,0.398437 -0.36328,0.457031 l -3.87891,2.9882814 0.79688,-3.1992194 c 0.0937,-0.363281 0.10547,-0.457031 0.83203,-0.457031 0.25781,0 0.33984,0 0.33984,-0.199219 0,-0.09375 -0.082,-0.117187 -0.14062,-0.117187 -0.26953,0 -0.99609,0.03516 -1.26563,0.03516 -0.29296,0 -0.99609,-0.03516 -1.28906,-0.03516 -0.0703,0 -0.19922,0 -0.19922,0.199219 0,0.117187 0.0937,0.117187 0.29297,0.117187 0.12891,0 0.30469,0.01172 0.42188,0.01172 0.16406,0.02344 0.22265,0.05859 0.22265,0.164062 0,0.03516 -0.0117,0.07031 -0.0469,0.1875 l -1.33594,5.3554694 c -0.0937,0.3867187 -0.11719,0.46875 -0.90234,0.46875 -0.16407,0 -0.28125,0 -0.28125,0.1875 0,0.1171875 0.1289,0.1171875 0.15234,0.1171875 0.28125,0 0.98438,-0.035156 1.26563,-0.035156 0.21093,0 0.43359,0.011719 0.63281,0.011719 0.22265,0 0.44531,0.023437 0.65625,0.023437 0.0703,0 0.19922,0 0.19922,-0.1992188 0,-0.1054687 -0.0937,-0.1054687 -0.28125,-0.1054687 -0.375,0 -0.64453,0 -0.64453,-0.1875 0,-0.070312 0.0586,-0.28125 0.082,-0.4335938 0.14062,-0.515625 0.26953,-1.0429687 0.39843,-1.5703125 l 1.48829,-1.1484381 1.16015,2.6835944 c 0.11719,0.2578125 0.11719,0.28125 0.11719,0.3398437 0,0.3046875 -0.43359,0.3164063 -0.51563,0.3164063 -0.11718,0 -0.22265,0 -0.22265,0.1992187 0,0.1054688 0.11719,0.1054688 0.14062,0.1054688 0.39844,0 0.8086,-0.035156 1.20703,-0.035156 0.22266,0 0.76172,0.035156 0.98438,0.035156 0.0469,0 0.17578,0 0.17578,-0.1992188 0,-0.1054687 -0.10547,-0.1054687 -0.19922,-0.1054687 -0.41015,-0.011719 -0.53906,-0.1054688 -0.6914,-0.4570313 z m 0,0"
         style="fill:#000000;fill-opacity:1;fill-rule:nonzero;stroke:none" />
      <path
         id="path6"
         d="m 161.19537,-14.573055 c 0.0469,-0.199218 0.0703,-0.222656 0.22265,-0.234375 0.0352,-0.01172 0.26953,-0.01172 0.41016,-0.01172 0.43359,0 0.60937,0 0.78516,0.05859 0.3164,0.09375 0.32812,0.304688 0.32812,0.550782 0,0.105468 0,0.199218 -0.0469,0.5625 l -0.0117,0.08203 c 0,0.07031 0.0469,0.105469 0.11718,0.105469 0.10547,0 0.11719,-0.07031 0.12891,-0.175782 l 0.1875,-1.335937 c 0,-0.09375 -0.082,-0.09375 -0.21094,-0.09375 h -4.28906 c -0.17578,0 -0.1875,0 -0.23437,0.140625 l -0.4336,1.242187 c -0.0117,0.02344 -0.0352,0.08203 -0.0352,0.117188 0,0.03516 0.0117,0.105469 0.11718,0.105469 0.082,0 0.10547,-0.03516 0.14063,-0.175782 0.41015,-1.113281 0.63281,-1.183593 1.69922,-1.183593 h 0.29297 c 0.21093,0 0.21093,0.01172 0.21093,0.07031 0,0.01172 0,0.04687 -0.0234,0.152344 l -0.92579,3.667969 c -0.0586,0.257812 -0.082,0.328125 -0.80859,0.328125 -0.25781,0 -0.31641,0 -0.31641,0.152343 0,0.01172 0.0117,0.09375 0.11719,0.09375 0.19922,0 0.41016,-0.02344 0.59766,-0.02344 0.19922,0 0.41015,0 0.59765,0 0.19922,0 0.4336,0 0.63282,0 0.1875,0.01172 0.39843,0.02344 0.58593,0.02344 0.0586,0 0.16407,0 0.16407,-0.152343 0,-0.09375 -0.0703,-0.09375 -0.29297,-0.09375 -0.12891,0 -0.26953,-0.01172 -0.39844,-0.02344 -0.24609,-0.01172 -0.25781,-0.04687 -0.25781,-0.128906 0,-0.04687 0,-0.05859 0.0351,-0.164063 z m 0,0"
         style="fill:#000000;fill-opacity:1;fill-rule:nonzero;stroke:none" />
    </g>
    <path
       id="path7"
       d="M 0,0 H 23.326"
       style="fill:none;stroke:#000000;stroke-width:0.398;stroke-linecap:butt;stroke-linejoin:miter;stroke-miterlimit:10;stroke-dasharray:none;stroke-opacity:1"
       transform="matrix(1.3333333,0,0,-1.3333333,295.28533,18.169333)" />
    <path
       id="path8"
       d="M 3.8775703,8.5189141 2.1197578,4.6400078 C 2.0494453,4.4876641 2.0025703,4.4876641 1.9674141,4.4876641 c -0.011719,0 -0.058594,0 -0.1640625,0.070312 l -0.94921879,0.726563 c -0.12890625,0.09375 -0.12890625,0.1289062 -0.12890625,0.1523437 0,0.046875 0.0351563,0.1054688 0.10546875,0.1054688 0.0585938,0 0.22265629,-0.1289063 0.32812499,-0.2109375 0.070312,-0.046875 0.2109375,-0.1640625 0.328125,-0.2460938 l 1.9570313,4.3125 c 0.070312,0.1640625 0.1171875,0.1640625 0.2109375,0.1640625 0.1523437,0 0.1757812,-0.058594 0.2460937,-0.1992187 L 8.4244453,-6.171875e-4 C 8.4947578,-0.14124219 8.4947578,-0.17639844 8.4947578,-0.19983594 c 0,-0.10546875 -0.082031,-0.19921875 -0.1992187,-0.19921875 -0.082031,0 -0.1523438,0.046875 -0.2226563,0.2109375 z m 0,0"
       style="fill:#000000;fill-opacity:1;fill-rule:nonzero;stroke:none"
       aria-label="√"
       transform="matrix(1.3333333,0,0,1.3333333,298.576,21.090667)" />
    <path
       id="path9"
       d="M 0,0 H 10.087"
       style="fill:none;stroke:#000000;stroke-width:0.398;stroke-linecap:butt;stroke-linejoin:miter;stroke-miterlimit:10;stroke-dasharray:none;stroke-opacity:1"
       transform="matrix(1.3333333,0,0,-1.3333333,309.64667,20.825333)" />
    <g
       id="g9"
       aria-label="d&#10;k&#10;&#10;V"
       transform="matrix(1.3333333,0,0,1.3333333,309.64667,31.416)">
      <path
         id="path10"
         d="m 5.1458594,-6.8100469 c 0,0 0,-0.1054687 -0.1289063,-0.1054687 -0.1523437,0 -1.1015625,0.09375 -1.265625,0.1054687 -0.082031,0.011719 -0.140625,0.070312 -0.140625,0.1992188 0,0.1171875 0.082031,0.1171875 0.234375,0.1171875 0.4804688,0 0.5039063,0.070312 0.5039063,0.1640625 l -0.035156,0.1992187 -0.5976562,2.3671875 c -0.1757813,-0.375 -0.46875,-0.6445312 -0.9140625,-0.6445312 -1.171875,0 -2.40234377,1.4648437 -2.40234377,2.9179687 0,0.93750003 0.55078125,1.59375003 1.32421877,1.59375003 0.1992187,0 0.703125,-0.03515625 1.3007812,-0.73828125 0.070312,0.41015625 0.421875,0.73828125 0.9023438,0.73828125 0.3515625,0 0.5742187,-0.22265625 0.7382812,-0.5390625 0.1640625,-0.36328125 0.2929688,-0.97265623 0.2929688,-0.99609373 0,-0.09375 -0.082031,-0.09375 -0.1171875,-0.09375 -0.09375,0 -0.1054688,0.035156 -0.140625,0.1757812 -0.1640625,0.64453128 -0.3515625,1.24218753 -0.75,1.24218753 -0.2695313,0 -0.3046875,-0.2578125 -0.3046875,-0.45703125 0,-0.24609375 0.023437,-0.31640625 0.058594,-0.48046878 z m -2.0742188,5.625 c -0.046875,0.1757813 -0.046875,0.19921878 -0.1992187,0.36328128 -0.4453125,0.55078125 -0.84375,0.71484375 -1.125,0.71484375 -0.5039063,0 -0.6445313,-0.55078125 -0.6445313,-0.93750003 0,-0.5039062 0.328125,-1.7226562 0.5507813,-2.1796875 0.3046875,-0.5976562 0.7617187,-0.9609375 1.1601562,-0.9609375 0.6445313,0 0.7851563,0.8203125 0.7851563,0.8789063 0,0.058594 -0.023437,0.1171875 -0.035156,0.1640625 z m 0,0"
         style="fill:#000000;fill-opacity:1;fill-rule:nonzero;stroke:none" />
      <path
         id="path11"
         d="m 7.3636328,-3.1362187 c 0.011719,-0.011719 0.035156,-0.1054688 0.035156,-0.1171875 0,-0.035156 -0.035156,-0.09375 -0.1171875,-0.09375 -0.140625,0 -0.7148438,0.058594 -0.890625,0.070312 -0.058594,0.011719 -0.1523438,0.011719 -0.1523438,0.1640625 0,0.09375 0.09375,0.09375 0.1757813,0.09375 0.3398437,0 0.3398437,0.046875 0.3398437,0.1054687 0,0.046875 -0.011719,0.09375 -0.035156,0.1523438 L 5.7464453,1.188 c -0.035156,0.1289063 -0.035156,0.140625 -0.035156,0.1523438 0,0.1054687 0.082031,0.2226562 0.234375,0.2226562 0.1875,0 0.28125,-0.140625 0.3164062,-0.2929687 0.011719,-0.023437 0.3164063,-1.2539063 0.3398438,-1.3476563 0.5039062,0.046875 0.9023437,0.19921875 0.9023437,0.5625 0,0.0351562 0,0.0703125 -0.023437,0.140625 C 7.457384,0.73096875 7.457384,0.766125 7.457384,0.84815625 7.457384,1.3403438 7.8558215,1.563 8.1956653,1.563 c 0.6796875,0 0.890625,-1.0546875 0.890625,-1.06640625 0,-0.09375 -0.09375,-0.09375 -0.1171875,-0.09375 -0.09375,0 -0.1054688,0.0351563 -0.140625,0.1640625 C 8.7464468,0.87159375 8.5589465,1.3637813 8.2191028,1.3637813 8.0316028,1.3637813 7.973009,1.188 7.973009,1.0005 c 0,-0.1171875 0,-0.12890625 0.046875,-0.3046875 0,-0.0234375 0.035156,-0.140625 0.035156,-0.22265625 C 8.05504,-0.1479375 7.21129,-0.2416875 6.9183212,-0.265125 7.1175391,-0.39403125 7.3753516,-0.6166875 7.5042578,-0.72215625 7.8558203,-1.062 8.2073828,-1.390125 8.5941016,-1.390125 c 0.082031,0 0.1757812,0.023437 0.234375,0.09375 -0.3046875,0.046875 -0.3632813,0.28125 -0.3632813,0.38671875 0,0.15234375 0.1171875,0.2578125 0.2695313,0.2578125 0.1992187,0 0.3984375,-0.15234375 0.3984375,-0.44531245 0,-0.2226563 -0.1640625,-0.4804688 -0.5273438,-0.4804688 -0.3984375,0 -0.7617187,0.28125 -1.125,0.609375 -0.2929687,0.28125 -0.515625,0.4921875 -0.8085937,0.609375 z m 0,0"
         style="fill:#000000;fill-opacity:1;fill-rule:nonzero;stroke:none" />
      <path
         id="path12"
         d="m 29.002305,-13.117664 c 0.480468,-0.773438 0.902343,-0.808594 1.277343,-0.820313 0.117188,-0.01172 0.128907,-0.1875 0.128907,-0.1875 0,-0.08203 -0.05859,-0.128906 -0.128907,-0.128906 -0.257812,0 -0.550781,0.03516 -0.820312,0.03516 -0.328125,0 -0.667969,-0.03516 -0.984375,-0.03516 -0.05859,0 -0.1875,0 -0.1875,0.199219 0,0.105469 0.08203,0.117187 0.152344,0.117187 0.269531,0.01172 0.457031,0.117188 0.457031,0.328125 0,0.152344 -0.140625,0.363282 -0.140625,0.375 l -3.058594,4.8632817 -0.679687,-5.2734377 c 0,-0.164062 0.222656,-0.292969 0.679687,-0.292969 0.140625,0 0.257813,0 0.257813,-0.199218 0,-0.09375 -0.08203,-0.117188 -0.140625,-0.117188 -0.398438,0 -0.832032,0.03516 -1.242188,0.03516 -0.175781,0 -0.363281,-0.01172 -0.539062,-0.01172 -0.1875,0 -0.375,-0.02344 -0.539063,-0.02344 -0.07031,0 -0.1875,0 -0.1875,0.199219 0,0.117187 0.08203,0.117187 0.246094,0.117187 0.550781,0 0.5625,0.08203 0.597656,0.339844 l 0.785156,6.1406252 c 0.03516,0.1992187 0.07031,0.234375 0.199219,0.234375 0.164063,0 0.199219,-0.058594 0.28125,-0.1875 z m 0,0"
         style="fill:#000000;fill-opacity:1;fill-rule:nonzero;stroke:none" />
    </g>
  </g>
</svg>
