<?xml version="1.0" encoding="UTF-8"?>
<!-- Generator: visioncortex VTracer 0.6.5 -->
<svg version="1.1" xmlns="http://www.w3.org/2000/svg" width="934" height="934">
<path d="M0,0 L9,1 L25,9 L36,16 L47,26 L51,28 L55,25 L61,27 L74,38 L82,47 L85,52 L87,48 L93,49 L102,58 L111,72 L116,84 L116,87 L121,82 L125,83 L129,88 L137,104 L142,119 L145,133 L148,131 L153,131 L156,135 L159,149 L159,177 L156,191 L155,193 L160,194 L161,195 L161,203 L157,220 L149,242 L136,274 L127,304 L127,322 L131,347 L132,350 L139,324 L147,303 L157,285 L173,259 L180,248 L182,241 L183,186 L186,168 L192,148 L202,127 L207,121 L214,122 L216,122 L223,110 L231,100 L243,88 L248,87 L251,91 L262,78 L274,69 L282,65 L286,66 L287,68 L295,61 L310,51 L316,48 L321,48 L324,51 L347,41 L363,36 L370,36 L374,41 L373,54 L367,85 L363,97 L368,97 L369,98 L369,107 L365,123 L359,139 L356,145 L360,146 L359,154 L353,165 L342,178 L333,186 L338,191 L332,199 L321,209 L307,218 L297,222 L299,225 L299,230 L288,237 L274,243 L249,250 L207,257 L199,261 L194,265 L182,281 L171,300 L162,319 L153,344 L147,365 L142,389 L139,416 L137,445 L148,424 L159,408 L170,395 L179,384 L184,374 L192,342 L204,317 L211,306 L217,299 L224,299 L232,287 L242,275 L253,266 L263,260 L269,258 L271,260 L271,265 L277,261 L288,253 L304,245 L315,241 L326,239 L327,240 L327,246 L342,238 L355,234 L373,232 L375,236 L374,240 L389,236 L396,235 L423,234 L424,235 L423,242 L440,243 L460,247 L478,253 L490,259 L493,262 L493,268 L483,281 L472,293 L462,303 L466,307 L464,313 L455,322 L439,333 L429,339 L434,344 L433,348 L431,351 L429,351 L428,354 L417,361 L402,368 L389,373 L393,377 L394,381 L384,387 L369,393 L355,396 L346,396 L349,401 L349,405 L339,408 L327,410 L295,410 L294,415 L276,415 L246,410 L219,403 L213,402 L202,402 L193,404 L185,410 L174,423 L164,438 L155,455 L147,477 L141,501 L138,527 L138,569 L139,581 L151,558 L164,540 L171,525 L177,506 L185,490 L195,476 L209,461 L218,453 L227,449 L232,450 L233,454 L246,446 L261,439 L278,434 L284,433 L292,433 L293,438 L292,440 L312,436 L334,436 L346,438 L348,439 L347,444 L345,447 L368,450 L385,455 L399,463 L398,467 L396,470 L401,471 L417,479 L431,489 L438,495 L446,505 L446,510 L436,516 L418,524 L398,531 L398,533 L400,535 L399,540 L394,544 L379,550 L361,554 L354,555 L358,559 L357,564 L351,568 L335,573 L323,575 L310,575 L312,581 L310,583 L301,585 L282,586 L264,584 L259,583 L259,587 L257,588 L250,588 L232,582 L203,568 L187,561 L181,560 L174,564 L166,572 L158,585 L153,598 L149,615 L156,614 L162,617 L165,621 L165,632 L163,637 L174,645 L188,658 L199,667 L210,675 L224,682 L240,687 L243,691 L243,698 L241,703 L237,707 L230,709 L222,709 L210,706 L195,698 L179,686 L167,675 L153,661 L154,673 L160,702 L167,726 L174,746 L182,765 L187,775 L187,784 L182,789 L179,790 L172,790 L165,786 L159,778 L154,768 L145,742 L138,716 L136,707 L135,708 L129,762 L126,774 L121,780 L116,782 L106,781 L99,773 L98,766 L105,728 L109,696 L111,666 L106,665 L100,661 L96,656 L95,654 L93,638 L93,629 L96,623 L101,620 L99,614 L92,603 L86,596 L86,594 L82,592 L77,588 L69,587 L54,590 L28,597 L10,600 L5,599 L5,593 L1,594 L-24,594 L-41,590 L-46,587 L-47,583 L-44,580 L-63,577 L-78,571 L-88,565 L-90,561 L-85,555 L-100,549 L-113,541 L-124,532 L-125,527 L-122,524 L-122,522 L-132,514 L-142,505 L-152,495 L-151,490 L-142,484 L-125,476 L-108,471 L-102,471 L-105,467 L-104,464 L-93,461 L-78,461 L-66,462 L-68,458 L-68,455 L-66,454 L-48,454 L-35,457 L-24,462 L-25,455 L-17,455 L-2,460 L9,466 L21,475 L32,486 L34,483 L40,484 L47,491 L52,496 L59,504 L68,518 L76,534 L83,552 L88,568 L92,574 L100,582 L109,593 L111,595 L110,579 L105,546 L100,522 L95,504 L85,479 L76,462 L66,447 L57,437 L50,434 L-18,434 L-23,432 L-24,428 L-23,426 L-43,422 L-64,415 L-74,410 L-76,406 L-71,402 L-79,399 L-98,391 L-113,382 L-120,376 L-122,371 L-119,367 L-132,358 L-145,347 L-158,334 L-158,329 L-155,326 L-153,326 L-153,324 L-157,322 L-172,307 L-183,292 L-187,285 L-186,280 L-179,279 L-186,272 L-197,258 L-206,244 L-216,225 L-215,220 L-210,216 L-198,213 L-178,211 L-155,211 L-143,213 L-143,208 L-142,207 L-132,207 L-116,211 L-100,218 L-101,212 L-98,210 L-85,214 L-72,221 L-60,230 L-56,233 L-55,225 L-52,224 L-36,232 L-20,244 L-8,255 L-5,259 L-1,253 L3,254 L13,263 L24,275 L36,292 L39,298 L39,300 L42,298 L48,298 L54,307 L62,324 L68,345 L71,365 L73,391 L74,410 L77,421 L86,437 L98,457 L105,471 L113,495 L114,460 L114,391 L111,360 L107,338 L103,324 L97,313 L83,299 L69,288 L51,278 L35,270 L31,266 L32,261 L35,257 L29,255 L16,246 L6,237 L-4,226 L-12,213 L-15,208 L-14,204 L-12,203 L-8,203 L-15,193 L-23,177 L-27,161 L-28,152 L-27,151 L-19,151 L-26,135 L-29,124 L-30,118 L-30,98 L-28,96 L-19,96 L-22,80 L-22,59 L-20,52 L-17,49 L-12,49 L-12,31 L-8,15 L-3,3 Z M-19,96 Z M112,597 Z " fill="#486F14" transform="translate(329,72)"/>
<path d="M0,0 L13,0 L27,8 L52,22 L75,37 L91,47 L101,54 L97,55 L71,50 L49,43 L48,44 L69,55 L82,59 L111,63 L121,68 L132,75 L151,89 L162,98 L158,99 L129,94 L101,90 L85,85 L67,77 L49,67 L54,72 L65,81 L76,87 L87,92 L104,97 L145,105 L174,111 L184,115 L197,125 L206,133 L206,135 L151,135 L134,134 L110,129 L91,122 L89,122 L103,131 L113,135 L130,139 L142,141 L154,142 L206,143 L217,147 L223,152 L232,163 L242,173 L239,174 L229,170 L210,168 L190,168 L167,170 L194,173 L213,174 L227,177 L245,183 L251,187 L261,198 L259,199 L252,197 L220,197 L210,198 L195,198 L195,190 L169,188 L155,185 L145,182 L145,178 L146,173 L141,168 L122,161 L102,152 L93,147 L94,145 L102,143 L97,138 L81,129 L70,119 L62,112 L61,108 L66,107 L66,102 L54,89 L40,74 L34,69 L35,65 L39,64 L39,58 L35,53 L27,46 L19,36 L5,12 L0,2 Z " fill="#507C17" transform="translate(127,297)"/>
<path d="M0,0 L3,0 L10,10 L19,26 L34,62 L44,88 L43,90 L30,80 L16,66 L7,53 L2,44 L8,62 L14,72 L25,84 L33,92 L48,103 L58,127 L64,145 L63,148 L52,138 L41,129 L27,117 L17,108 L8,97 L-3,77 L-3,75 L-5,75 L-1,88 L6,102 L18,118 L26,126 L34,133 L51,147 L61,155 L69,164 L73,172 L82,200 L81,204 L69,193 L59,185 L45,174 L31,163 L18,151 L7,138 L-5,120 L3,136 L12,150 L24,164 L37,176 L51,188 L64,198 L76,209 L85,216 L89,226 L95,249 L97,260 L90,254 L79,242 L67,231 L48,217 L34,205 L30,203 L21,192 L15,185 L13,182 L22,198 L33,210 L45,222 L58,232 L71,243 L78,249 L85,257 L97,272 L102,283 L104,293 L104,298 L100,294 L93,286 L86,279 L72,269 L55,261 L44,256 L44,254 L48,252 L48,247 L30,236 L13,222 L2,211 L-4,203 L-3,201 L7,201 L7,197 L-3,187 L-10,176 L-15,166 L-19,155 L-18,152 L-9,153 L-7,152 L-8,144 L-16,129 L-21,114 L-23,102 L-23,97 L-17,99 L-12,98 L-13,87 L-15,71 L-15,50 L-7,50 L-6,24 L-1,3 Z " fill="#85A92A" transform="translate(332,81)"/>
<path d="M0,0 L3,0 L3,2 L1,2 L-1,7 L-12,19 L-16,24 L-24,31 L-34,39 L-34,43 L-25,44 L-26,47 L-41,58 L-53,65 L-64,70 L-64,75 L-60,77 L-53,78 L-54,81 L-79,93 L-104,101 L-105,102 L-105,108 L-99,112 L-99,114 L-107,118 L-117,121 L-136,122 L-147,124 L-151,128 L-152,134 L-145,134 L-147,136 L-184,136 L-193,133 L-197,134 L-196,139 L-195,141 L-211,140 L-237,133 L-255,128 L-259,127 L-277,126 L-273,122 L-263,115 L-253,112 L-244,111 L-227,111 L-187,118 L-184,118 L-196,115 L-214,109 L-227,106 L-250,106 L-250,104 L-235,94 L-224,89 L-214,89 L-195,93 L-163,100 L-152,101 L-136,101 L-122,99 L-147,98 L-168,94 L-191,88 L-204,84 L-214,82 L-211,79 L-179,63 L-176,62 L-169,62 L-131,69 L-123,70 L-96,70 L-80,67 L-67,62 L-64,61 L-64,59 L-73,62 L-90,65 L-110,65 L-127,63 L-155,57 L-161,56 L-157,53 L-137,44 L-115,36 L-104,33 L-93,33 L-82,37 L-74,39 L-53,39 L-44,37 L-44,36 L-49,37 L-67,37 L-88,30 L-87,28 L-43,17 L-20,12 L-6,7 L-3,5 L-13,7 L-13,5 Z " fill="#85A92A" transform="translate(806,336)"/>
<path d="M0,0 L8,1 L22,7 L34,14 L41,14 L41,8 L46,9 L67,22 L75,28 L77,29 L83,29 L84,22 L89,24 L108,38 L121,50 L126,55 L133,56 L133,52 L136,52 L146,65 L159,83 L164,93 L165,97 L173,97 L176,96 L182,109 L186,123 L188,134 L189,146 L190,150 L192,166 L192,190 L189,188 L187,180 L186,169 L182,149 L174,127 L166,109 L164,107 L173,138 L178,170 L177,172 L165,159 L161,154 L153,122 L148,107 L139,85 L132,72 L138,85 L145,109 L151,138 L152,144 L148,142 L133,129 L128,123 L123,107 L115,87 L108,74 L97,58 L89,49 L80,43 L84,48 L93,59 L103,75 L111,92 L120,116 L119,118 L105,107 L91,96 L81,89 L75,84 L69,69 L55,42 L47,31 L40,24 L30,18 L30,20 L34,22 L42,30 L51,44 L60,64 L63,72 L63,76 L59,74 L47,65 L31,55 L17,46 L-5,34 L-16,26 L-38,13 L-49,9 L-57,7 L-56,5 L-52,4 L-34,4 L0,7 Z " fill="#507C17" transform="translate(199,288)"/>
<path d="M0,0 L5,2 L21,15 L30,26 L35,25 L38,19 L42,21 L50,28 L58,37 L64,48 L69,49 L71,45 L74,45 L81,55 L87,67 L92,83 L96,84 L101,78 L103,78 L110,94 L115,113 L116,129 L125,127 L129,125 L130,132 L130,153 L125,175 L123,181 L124,188 L131,187 L128,198 L115,230 L106,251 L100,269 L99,275 L97,275 L95,267 L95,257 L109,214 L115,189 L118,170 L110,196 L104,214 L95,239 L93,246 L90,246 L86,229 L84,224 L84,217 L97,179 L103,154 L104,141 L104,129 L99,154 L88,185 L83,200 L82,207 L80,207 L74,187 L74,173 L79,155 L82,138 L82,119 L78,84 L76,75 L77,78 L77,114 L74,140 L70,159 L69,168 L67,168 L52,126 L52,114 L55,101 L55,74 L52,59 L48,51 L47,57 L50,66 L50,88 L47,108 L45,106 L24,53 L15,28 L7,13 L4,7 Z " fill="#84A82A" transform="translate(349,90)"/>
<path d="M0,0 L6,0 L5,7 L6,9 L13,8 L30,3 L41,1 L54,1 L54,7 L57,8 L85,11 L101,14 L115,19 L116,21 L100,25 L77,32 L57,37 L42,41 L6,50 L4,49 L15,39 L32,26 L40,20 L21,29 L10,37 L0,46 L-11,55 L-31,63 L-54,72 L-52,66 L-43,52 L-34,41 L-21,28 L-11,22 L-27,30 L-36,37 L-48,49 L-58,64 L-64,75 L-73,81 L-98,93 L-101,94 L-99,88 L-87,63 L-79,50 L-70,39 L-70,38 L-79,46 L-90,60 L-98,73 L-108,92 L-112,100 L-123,108 L-135,115 L-137,115 L-134,103 L-124,78 L-118,67 L-109,55 L-113,58 L-116,63 L-126,76 L-134,89 L-141,108 L-146,121 L-151,126 L-163,136 L-164,136 L-163,126 L-157,104 L-149,84 L-143,72 L-138,67 L-137,71 L-131,68 L-119,50 L-108,38 L-99,30 L-97,30 L-94,39 L-89,38 L-81,30 L-66,19 L-54,12 L-44,8 L-41,8 L-41,17 L-34,17 L-26,10 L-18,6 Z " fill="#85A92A" transform="translate(687,314)"/>
<path d="M0,0 L12,0 L34,1 L51,3 L75,5 L88,9 L88,12 L59,24 L39,30 L38,34 L41,37 L46,38 L43,41 L17,48 L-1,50 L-4,52 L-3,57 L4,62 L3,64 L-12,66 L-13,67 L-23,68 L-44,68 L-49,69 L-47,74 L-45,76 L-41,77 L-41,79 L-47,80 L-66,79 L-91,74 L-98,72 L-97,77 L-101,78 L-117,70 L-144,56 L-151,52 L-160,51 L-160,49 L-154,44 L-145,44 L-129,50 L-108,60 L-96,65 L-76,71 L-71,71 L-84,65 L-96,60 L-129,43 L-136,40 L-145,38 L-145,36 L-131,28 L-121,24 L-113,24 L-88,35 L-68,44 L-47,51 L-37,53 L-16,53 L-31,51 L-47,47 L-55,43 L-68,38 L-84,30 L-98,23 L-108,20 L-107,17 L-97,13 L-80,8 L-70,8 L-57,13 L-43,21 L-26,29 L-5,35 L0,36 L18,36 L17,34 L-2,32 L-24,23 L-40,15 L-58,5 L-58,4 L-45,2 L-8,2 L14,12 L22,14 L36,14 L19,9 L6,4 L0,1 Z " fill="#649920" transform="translate(670,569)"/>
<path d="M0,0 L2,0 L-2,16 L-5,31 L-11,52 L-12,59 L-4,59 L-7,68 L-13,83 L-19,95 L-23,99 L-23,102 L-17,104 L-19,109 L-30,121 L-43,133 L-44,139 L-38,141 L-43,146 L-59,156 L-76,164 L-83,167 L-85,172 L-80,174 L-77,176 L-85,180 L-115,189 L-141,193 L-158,195 L-156,190 L-144,178 L-126,168 L-90,156 L-77,151 L-66,144 L-64,141 L-81,150 L-99,155 L-120,160 L-136,167 L-139,166 L-126,150 L-119,141 L-107,135 L-72,123 L-53,113 L-39,103 L-26,91 L-17,79 L-22,84 L-33,94 L-44,101 L-62,111 L-81,120 L-108,129 L-106,125 L-99,117 L-88,105 L-81,97 L-74,90 L-62,84 L-46,76 L-32,67 L-19,57 L-14,49 L-14,46 L-21,53 L-36,63 L-59,76 L-65,79 L-68,78 L-55,63 L-45,50 L-32,36 L-23,25 L-16,17 L-9,9 Z " fill="#8D873B" transform="translate(690,123)"/>
<path d="M0,0 L15,0 L19,3 L16,4 L19,9 L32,10 L42,13 L56,16 L69,20 L71,24 L62,26 L66,30 L89,40 L103,48 L113,54 L114,56 L99,54 L71,49 L50,47 L16,45 L17,43 L24,39 L32,34 L48,28 L51,28 L51,26 L34,29 L22,33 L6,45 L0,46 L-18,47 L-37,49 L-35,45 L-20,30 L-1,19 L-13,22 L-27,31 L-38,41 L-45,49 L-51,52 L-75,59 L-85,63 L-89,62 L-83,54 L-76,43 L-67,33 L-57,23 L-69,29 L-78,37 L-88,50 L-98,67 L-117,78 L-119,78 L-117,72 L-104,47 L-100,40 L-109,50 L-120,68 L-128,84 L-136,90 L-138,90 L-136,84 L-126,60 L-117,44 L-109,33 L-100,23 L-95,18 L-92,18 L-91,22 L-84,21 L-70,13 L-56,6 L-46,2 L-36,2 L-35,7 L-27,7 L-16,3 Z " fill="#649920" transform="translate(645,515)"/>
<path d="M0,0 L11,1 L27,5 L63,13 L87,18 L88,21 L74,26 L63,28 L45,28 L38,25 L41,28 L50,31 L71,31 L88,26 L97,23 L108,25 L136,36 L145,41 L143,43 L123,47 L104,52 L91,53 L95,54 L108,54 L123,52 L140,49 L144,48 L156,48 L168,54 L186,65 L187,68 L161,71 L148,74 L134,76 L134,78 L151,78 L165,75 L178,73 L188,73 L199,77 L204,81 L204,83 L193,84 L167,93 L158,94 L156,90 L147,90 L139,91 L110,91 L108,90 L110,86 L111,80 L106,78 L92,77 L77,73 L65,68 L65,66 L70,63 L69,58 L60,54 L44,47 L28,37 L27,34 L33,32 L33,28 L23,22 L10,11 L2,4 Z " fill="#749B1E" transform="translate(189,565)"/>
<path d="M0,0 L2,1 L-20,23 L-27,31 L-37,42 L-44,51 L-47,52 L-46,35 L-48,35 L-51,45 L-53,49 L-54,61 L-62,72 L-71,83 L-80,94 L-87,102 L-89,102 L-88,88 L-84,71 L-77,55 L-70,46 L-61,36 L-60,34 L-68,38 L-76,47 L-84,60 L-90,74 L-93,81 L-99,113 L-102,120 L-111,131 L-119,140 L-121,139 L-121,110 L-118,94 L-111,75 L-118,86 L-122,97 L-125,109 L-126,117 L-127,149 L-139,165 L-144,170 L-142,143 L-140,110 L-140,107 L-144,119 L-147,140 L-149,156 L-152,174 L-155,185 L-158,186 L-159,184 L-159,138 L-156,118 L-149,97 L-144,87 L-141,86 L-140,92 L-136,91 L-127,74 L-117,61 L-110,53 L-108,53 L-109,59 L-103,58 L-96,46 L-87,37 L-77,29 L-68,30 L-60,23 L-50,15 L-39,8 L-37,8 L-36,12 L-28,12 L-7,3 Z " fill="#8D873B" transform="translate(681,121)"/>
<path d="M0,0 L10,1 L23,5 L38,12 L45,13 L43,5 L49,6 L70,17 L76,22 L85,33 L88,37 L93,38 L94,32 L98,34 L108,46 L115,57 L126,77 L135,102 L136,109 L131,107 L117,97 L110,76 L100,59 L90,45 L81,35 L78,34 L88,47 L99,66 L107,82 L108,90 L96,83 L86,76 L83,74 L77,60 L69,48 L54,33 L44,26 L35,23 L45,30 L55,39 L64,49 L72,63 L75,68 L74,70 L51,59 L37,53 L34,51 L31,46 L22,36 L9,26 L-3,20 L-12,19 L1,27 L15,38 L25,47 L21,48 L-15,40 L-42,34 L-67,29 L-76,28 L-73,25 L-58,19 L-48,16 L-35,14 L-29,14 L-31,9 L-32,7 L-14,7 L-2,9 L3,9 L2,4 Z " fill="#749B1E" transform="translate(272,533)"/>
<path d="M0,0 L2,3 L6,29 L14,61 L23,88 L34,113 L37,119 L37,126 L32,131 L24,132 L16,129 L10,121 L5,111 L-4,85 L-11,59 L-13,50 L-14,51 L-20,105 L-23,117 L-28,123 L-33,125 L-43,124 L-50,116 L-51,109 L-44,71 L-40,39 L-38,9 L-37,8 L-21,7 L-9,4 Z " fill="#466D12" transform="translate(478,729)"/>
<path d="M0,0 L1,4 L8,3 L14,6 L17,10 L17,21 L15,26 L26,34 L40,47 L51,56 L62,64 L76,71 L92,76 L95,80 L95,87 L93,92 L89,96 L82,98 L74,98 L62,95 L47,87 L31,75 L19,64 L5,50 L6,62 L12,91 L19,115 L26,135 L34,154 L39,164 L39,173 L34,178 L31,179 L24,179 L20,177 L22,176 L30,177 L36,175 L37,172 L37,165 L28,146 L18,120 L11,96 L5,69 L2,49 L1,47 L-11,52 L-20,54 L-40,55 L-48,50 L-52,45 L-53,43 L-55,27 L-55,18 L-52,12 L-47,9 L-49,1 L-46,4 L-43,9 L-30,14 L-19,14 L-11,12 L-5,9 L-1,5 Z " fill="#997838" transform="translate(477,683)"/>
<path d="M0,0 L6,2 L11,7 L21,17 L32,26 L49,40 L53,43 L76,51 L75,55 L64,54 L52,49 L40,42 L24,29 L14,20 L3,8 L0,2 Z " fill="#B39E71" transform="translate(486,717)"/>
<path d="M0,0 L5,0 L4,4 L-4,11 L-17,16 L-22,17 L-39,17 L-49,13 L-50,12 L-50,6 L-49,5 L-40,6 L-36,7 L-21,7 L-8,4 Z " fill="#B59F74" transform="translate(480,696)"/>
<path d="M0,0 L6,0 L12,9 L20,26 L26,47 L29,67 L31,93 L32,112 L35,123 L44,139 L56,159 L63,173 L71,197 L72,162 L73,94 L74,94 L74,163 L73,200 L72,205 L70,203 L65,186 L59,170 L50,153 L34,127 L30,115 L27,69 L23,45 L17,25 L9,8 L4,2 L-1,2 Z " fill="#8BA369" transform="translate(371,370)"/>
<path d="M0,0 L4,2 L25,23 L42,36 L56,44 L69,49 L81,49 L88,46 L92,42 L91,46 L87,50 L80,52 L72,52 L60,49 L45,41 L29,29 L17,18 L3,4 L4,16 L10,45 L17,69 L24,89 L32,108 L37,118 L37,127 L32,132 L29,133 L22,133 L18,131 L20,130 L28,131 L34,129 L35,126 L35,119 L26,100 L16,74 L9,50 L3,23 L0,3 Z " fill="#ACAF80" transform="translate(479,729)"/>
<path d="M0,0 L5,1 L5,10 L1,26 L-5,42 L-8,48 L-4,49 L-5,57 L-11,68 L-22,81 L-31,89 L-26,94 L-32,102 L-43,112 L-57,121 L-67,125 L-65,128 L-65,133 L-76,140 L-90,146 L-102,149 L-102,147 L-86,142 L-70,134 L-67,131 L-69,127 L-70,124 L-56,118 L-43,109 L-31,98 L-29,93 L-34,91 L-32,87 L-21,77 L-11,64 L-7,56 L-6,51 L-11,50 L-9,45 L-4,34 L1,18 L3,1 Z " fill="#98AD77" transform="translate(693,169)"/>
<path d="M0,0 L3,0 L1,4 L-6,10 L-17,14 L-29,14 L-39,9 L-43,5 L-43,3 L-35,4 L-13,4 Z " fill="#B49E72" transform="translate(476,717)"/>
<path d="M0,0 L2,1 L-3,6 L-21,24 L-26,29 L-33,39 L-41,55 L-50,82 L-57,93 L-68,109 L-77,126 L-81,135 L-82,135 L-82,129 L-79,125 L-69,106 L-56,88 L-49,73 L-43,54 L-35,38 L-25,24 L-11,9 L-2,1 Z " fill="#92A86F" transform="translate(549,524)"/>
<path d="M0,0 L6,0 L12,9 L20,26 L26,47 L29,67 L31,93 L32,112 L35,123 L39,131 L36,130 L32,122 L30,115 L27,69 L23,45 L17,25 L9,8 L4,2 L-1,2 Z " fill="#99AD76" transform="translate(371,370)"/>
<path d="M0,0 L2,1 L1,5 L-1,8 L-3,8 L-4,11 L-15,18 L-30,25 L-41,29 L-45,28 L-35,24 L-20,18 L-7,10 L-1,4 Z " fill="#A5BB83" transform="translate(761,415)"/>
<path d="M0,0 L2,4 L-8,10 L-23,16 L-37,19 L-48,20 L-49,18 L-30,15 L-12,9 L-1,3 Z " fill="#A4B881" transform="translate(721,449)"/>
<path d="M0,0 L2,4 L12,13 L28,22 L43,28 L43,30 L33,27 L17,19 L6,11 L-1,5 Z " fill="#A3B781" transform="translate(205,598)"/>
<path d="M0,0 L2,1 L0,3 L1,8 L9,16 L17,23 L30,34 L28,38 L26,37 L27,34 L17,26 L7,17 L-3,7 L-2,2 Z " fill="#A4B981" transform="translate(180,560)"/>
<path d="M0,0 L2,1 L-3,6 L-19,22 L-20,18 L-6,4 Z M-21,22 Z M-22,23 Z " fill="#6F8C45" transform="translate(549,524)"/>
<path d="M0,0 L4,2 L15,21 L13,23 L0,1 Z " fill="#3B640F" transform="translate(409,506)"/>
<path d="M0,0 L2,1 L-5,9 L-13,17 L-15,17 L-13,13 Z " fill="#66853A" transform="translate(572,160)"/>
<path d="M0,0 L3,2 L7,14 L7,21 L4,17 L0,3 Z " fill="#3A630E" transform="translate(433,551)"/>
<path d="M0,0 L3,3 L9,18 L10,26 L7,22 L3,9 L0,3 Z " fill="#3B6410" transform="translate(382,383)"/>
<path d="M0,0 L4,2 L10,15 L9,19 L0,2 Z " fill="#3A630E" transform="translate(423,530)"/>
<path d="M0,0 L4,4 L12,16 L9,19 L0,2 Z " fill="#507813" transform="translate(326,200)"/>
<path d="M0,0 L2,1 L4,3 L-5,11 L-7,8 Z M-9,9 L-7,10 Z " fill="#5D7E2F" transform="translate(516,474)"/>
<path d="M0,0 L22,0 L22,1 L0,3 Z " fill="#799353" transform="translate(637,645)"/>
<path d="M0,0 L3,0 L3,2 L1,2 L-1,6 L-5,5 L-13,7 L-13,5 Z " fill="#7BA026" transform="translate(806,336)"/>
<path d="M0,0 L2,1 L-9,13 L-11,14 L-9,10 Z M-12,14 Z " fill="#6D9220" transform="translate(625,344)"/>
<path d="M0,0 L2,1 L-12,9 L-11,5 Z " fill="#4E7512" transform="translate(676,335)"/>
<path d="M0,0 L3,1 L4,9 L1,9 L1,2 L-4,2 Z " fill="#87A261" transform="translate(653,311)"/>
<path d="M0,0 L8,6 L8,10 L5,10 L6,7 L0,2 Z " fill="#9CB17A" transform="translate(201,587)"/>
<path d="M0,0 L2,0 L0,10 L-2,13 L-1,1 Z " fill="#67873C" transform="translate(475,543)"/>
<path d="M0,0 L2,1 L1,5 L-1,8 L-3,8 L-3,10 L-6,9 L-1,4 Z " fill="#98AA74" transform="translate(761,415)"/>
<path d="M0,0 L6,0 L9,4 L8,7 L4,2 L-1,2 Z " fill="#8DA26F" transform="translate(371,370)"/>
<path d="M0,0 L3,1 L1,5 L-1,6 L-1,4 L-3,3 Z " fill="#5F7F32" transform="translate(503,489)"/>
</svg>
