<?xml version="1.0" encoding="UTF-8"?>
<!-- Generator: visioncortex VTracer 0.6.5 -->
<svg version="1.1" xmlns="http://www.w3.org/2000/svg" width="256" height="256">
<path d="M0,0 L13,1 L23,5 L33,14 L38,25 L39,30 L39,43 L36,55 L30,66 L19,78 L11,85 L-5,94 L-22,100 L-40,104 L-47,105 L-60,105 L-72,102 L-80,98 L-89,90 L-95,78 L-96,75 L-96,60 L-92,49 L-85,41 L-77,35 L-67,32 L-48,30 L-39,27 L-33,22 L-24,11 L-16,4 L-8,1 Z " fill="#018042" transform="translate(157,40)"/>
<path d="M0,0 L13,1 L23,5 L33,14 L38,25 L39,30 L39,43 L36,55 L30,66 L19,78 L11,85 L-5,94 L-22,100 L-40,104 L-47,105 L-60,105 L-72,102 L-80,98 L-89,90 L-95,78 L-96,75 L-96,60 L-92,49 L-85,41 L-77,35 L-67,32 L-48,30 L-39,27 L-33,22 L-24,11 L-16,4 L-8,1 Z M-5,6 L-14,9 L-24,19 L-31,28 L-39,33 L-44,35 L-65,37 L-75,40 L-85,48 L-90,58 L-91,61 L-91,72 L-87,83 L-78,93 L-68,98 L-64,99 L-45,99 L-28,96 L-10,90 L7,81 L19,70 L26,62 L31,53 L33,46 L33,27 L28,17 L19,9 L10,6 Z " fill="#F7FBF9" transform="translate(157,40)"/>
<path d="M0,0 L9,0 L10,13 L17,11 L25,14 L28,20 L28,31 L25,37 L19,42 L15,43 L0,43 Z M14,19 L9,22 L9,35 L16,34 L19,30 L20,25 L18,20 Z " fill="#979797" transform="translate(77,184)"/>
<path d="M0,0 L13,0 L19,3 L22,6 L23,9 L23,23 L27,24 L27,31 L15,31 L14,28 L10,31 L1,31 L-4,27 L-5,20 L-2,14 L4,11 L14,11 L14,9 L-1,8 L-1,2 Z M7,18 L4,20 L4,23 L10,24 L14,21 L14,18 Z " fill="#979797" transform="translate(147,196)"/>
<path d="M0,0 L10,2 L14,6 L15,9 L15,20 L-2,21 L1,23 L13,23 L14,25 L14,31 L13,32 L-2,32 L-9,28 L-12,22 L-12,10 L-8,3 Z M0,8 L-4,12 L-4,14 L7,14 L6,10 L3,8 Z " fill="#979797" transform="translate(122,195)"/>
<path d="M0,0 L7,2 L10,5 L11,7 L11,32 L3,32 L2,13 L1,10 L-4,10 L-5,11 L-6,31 L-7,32 L-15,32 L-15,1 L-7,1 L-6,3 L-4,1 Z " fill="#979797" transform="translate(193,195)"/>
<path d="M0,0 L3,0 L3,8 L-15,14 L-7,17 L3,21 L3,29 L-7,26 L-26,19 L-27,18 L-27,10 Z " fill="#008040" transform="translate(34,192)"/>
<path d="M0,0 L6,1 L27,9 L29,10 L29,19 L2,29 L0,29 L0,20 L18,14 L0,8 Z " fill="#008040" transform="translate(219,192)"/>
<path d="M0,0 L4,2 L4,7 L-3,15 L-13,22 L-26,27 L-39,27 L-43,25 L-43,20 L-42,19 L-26,18 L-17,15 L-8,8 L-2,1 Z " fill="#F2F8F5" transform="translate(140,65)"/>
<path d="M0,0 L7,1 L8,8 L5,11 L0,11 L-3,8 L-2,2 Z " fill="#979797" transform="translate(54,216)"/>
</svg>
