<?xml version="1.0" encoding="UTF-8"?>
<!-- Generator: visioncortex VTracer 0.6.5 -->
<svg version="1.1" xmlns="http://www.w3.org/2000/svg" width="512" height="512">
<path d="M0,0 L4,1 L28,14 L51,27 L53,28 L53,281 L-269,281 L-289,268 L-314,252 L-334,239 L-351,228 L-376,212 L-388,204 L-389,203 L-389,144 L-295,97 L-290,98 L-271,110 L-252,122 L-245,126 L-219,111 L-193,96 L-188,94 L-146,122 L-140,120 L-112,104 L-97,95 L-86,101 L-43,130 L-38,133 L-37,23 L-16,10 Z " fill="#030203" transform="translate(421,188)"/>
<path d="M0,0 L2,0 L2,241 L-313,241 L-313,186 L-286,171 L-263,158 L-240,145 L-231,140 L-228,141 L-222,167 L-218,183 L-218,187 L-211,184 L-188,172 L-166,160 L-140,146 L-129,140 L-127,140 L-124,155 L-121,177 L-121,187 L-114,185 L-89,170 L-60,153 L-35,138 L-33,138 L-33,20 L-17,10 Z " fill="#FCFCFC" transform="translate(469,224)"/>
<path d="M0,0 L5,1 L24,13 L43,25 L62,37 L81,49 L100,61 L109,67 L109,69 L81,85 L59,98 L35,112 L28,116 L23,114 L0,99 L-18,88 L-43,72 L-67,57 L-86,45 L-86,43 Z " fill="#A01E3F" transform="translate(126,290)"/>
<path d="M0,0 L5,2 L20,12 L64,41 L107,70 L104,73 L77,88 L53,102 L31,114 L26,117 L22,117 L18,102 L12,74 L10,70 L-8,59 L-30,45 L-49,33 L-52,30 L-28,16 Z " fill="#FDBB3E" transform="translate(231,287)"/>
<path d="M0,0 L5,2 L48,31 L68,44 L101,66 L107,70 L104,73 L77,88 L56,100 L31,114 L27,116 L21,73 L18,68 L2,58 L-41,29 L-44,27 L-44,25 L-17,10 Z " fill="#1B0941" transform="translate(324,288)"/>
<path d="M0,0 L6,2 L25,14 L53,31 L79,47 L107,64 L114,69 L114,84 L106,86 L100,85 L100,87 L91,89 L76,92 L67,92 L52,82 L30,68 L10,55 L0,49 Z " fill="#004265" transform="translate(35,340)"/>
<path d="M0,0 L12,7 L32,20 L44,28 L45,29 L45,95 L41,97 L34,99 L25,102 L20,105 L7,110 L0,109 Z " fill="#0078B7" transform="translate(386,215)"/>
<path d="M0,0 L2,0 L2,39 L-2,41 L-9,43 L-18,46 L-23,49 L-36,54 L-43,53 L-43,15 L-23,9 L-12,4 Z " fill="#00253A" transform="translate(429,271)"/>
<path d="M0,0 L5,1 L32,16 L36,19 L38,26 L37,31 L14,46 L9,45 L-14,30 L-30,20 L-30,18 L-13,8 Z " fill="#636363" transform="translate(421,193)"/>
<path d="M0,0 L8,4 L29,17 L57,34 L61,38 L61,40 L57,40 L57,42 L45,45 L37,45 L27,47 L19,47 L7,49 L6,48 L0,48 Z " fill="#0076B5" transform="translate(36,340)"/>
<path d="M0,0 L14,8 L21,13 L21,28 L13,30 L7,29 L7,31 L-2,33 L-17,36 L-26,36 L-41,26 L-58,15 L-55,13 L-43,11 L-35,9 L-30,10 L-17,7 L-5,5 L1,3 Z " fill="#002D45" transform="translate(128,396)"/>
<path d="M0,0 L4,2 L7,10 L7,24 L4,36 L-3,49 L-11,60 L-22,72 L-29,81 L-32,90 L-32,103 L-28,116 L-19,133 L-19,138 L-24,136 L-34,126 L-42,113 L-45,105 L-46,93 L-44,81 L-38,69 L-27,57 L-17,47 L-8,35 L-3,24 L-1,13 Z " fill="#E32B2C" transform="translate(455,43)"/>
<path d="M0,0 L9,0 L8,4 L-7,12 L-14,19 L-20,30 L-21,34 L-21,43 L-17,53 L-13,61 L-12,66 L-12,73 L-15,83 L-20,89 L-26,90 L-26,77 L-30,67 L-35,55 L-36,50 L-36,38 L-32,27 L-25,16 L-18,9 L-9,3 Z " fill="#E22B2C" transform="translate(471,96)"/>
<path d="M0,0 L24,0 L27,3 L27,27 L24,30 L0,30 L-3,27 L-3,3 Z " fill="#B9B9B9" transform="translate(199,405)"/>
<path d="M0,0 L25,0 L27,2 L27,27 L24,30 L1,30 L-3,26 L-3,3 Z " fill="#BABABA" transform="translate(392,404)"/>
<path d="M0,0 L25,0 L28,3 L28,26 L24,30 L1,30 L-2,27 L-2,2 Z " fill="#B9B9B9" transform="translate(293,404)"/>
<path d="M0,0 L14,8 L18,12 L18,14 L14,14 L14,16 L2,19 L-6,19 L-16,21 L-24,21 L-36,23 L-37,22 L-43,22 L-43,12 L-36,10 L-27,9 L-27,7 L-15,4 L-9,3 L-1,2 Z " fill="#005785" transform="translate(79,366)"/>
<path d="M0,0 L3,0 L4,4 L6,4 L7,11 L9,11 L9,13 L11,13 L13,22 L13,26 L15,26 L16,34 L18,34 L19,41 L15,40 L-4,28 L-21,17 L-23,16 L-23,14 L-6,4 Z " fill="#747474" transform="translate(414,197)"/>
<path d="M0,0 L2,0 L2,16 L-15,22 L-24,26 L-37,31 L-43,32 L-43,15 L-23,9 L-12,4 Z " fill="#004D76" transform="translate(429,271)"/>
<path d="M0,0 L1,0 L1,13 L-7,15 L-13,14 L-13,16 L-22,18 L-37,21 L-46,21 L-61,11 L-59,10 L-49,10 L-12,3 Z " fill="#001B2A" transform="translate(148,411)"/>
<path d="M0,0 L1,0 L1,48 L8,47 L8,49 L21,46 L31,46 L39,44 L46,44 L55,42 L58,42 L58,40 L61,38 L64,38 L74,44 L73,48 L64,49 L52,52 L39,54 L35,55 L31,54 L21,56 L12,56 L0,49 Z " fill="#004C74" transform="translate(35,340)"/>
<path d="M0,0 L4,2 L7,10 L7,24 L4,36 L-3,49 L-11,60 L-22,72 L-29,81 L-32,90 L-32,103 L-28,116 L-19,133 L-19,138 L-24,136 L-34,126 L-42,113 L-45,105 L-46,93 L-44,81 L-38,69 L-27,57 L-17,47 L-8,35 L-3,24 L-1,13 Z M1,2 L-1,22 L-5,33 L-14,46 L-32,64 L-39,74 L-43,83 L-44,87 L-44,103 L-40,114 L-31,127 L-22,136 L-20,135 L-29,118 L-33,105 L-34,101 L-34,92 L-31,82 L-25,73 L-17,65 L-6,51 L2,37 L5,28 L5,8 L2,2 Z " fill="#140303" transform="translate(455,43)"/>
<path d="M0,0 L3,0 L3,10 L-16,17 L-26,21 L-38,25 L-42,25 L-42,15 L-29,10 L-24,8 L-15,6 L-4,1 Z " fill="#00679E" transform="translate(428,261)"/>
<path d="M0,0 L2,0 L2,71 L1,77 L-16,83 L-22,86 L-24,88 L-33,88 L-41,83 L-37,81 L-21,75 L-17,72 L-9,69 L1,67 Z " fill="#001A28" transform="translate(430,243)"/>
<path d="M0,0 L9,5 L12,10 L-2,13 L-17,16 L-22,17 L-26,16 L-38,19 L-46,20 L-51,19 L-56,15 L-43,13 L-8,6 L-5,6 L-5,4 L-1,3 Z " fill="#003755" transform="translate(118,390)"/>
<path d="M0,0 L11,6 L15,9 L14,12 L6,13 L0,14 L-10,16 L-12,16 L-12,18 L-24,21 L-28,21 L-28,7 L-26,6 L-18,8 L-5,5 L0,3 Z " fill="#0068A0" transform="translate(64,357)"/>
<path d="M0,0 L3,0 L3,9 L-2,11 L-8,14 L-15,16 L-18,18 L-27,20 L-33,23 L-39,26 L-42,26 L-42,16 L-28,11 L-18,7 Z " fill="#003F60" transform="translate(428,287)"/>
<path d="M0,0 L1,0 L1,17 L0,25 L-13,27 L-25,30 L-34,31 L-45,24 L-45,23 L-16,18 L-14,18 L-14,16 L-11,15 L-6,16 L0,15 Z " fill="#000B11" transform="translate(149,409)"/>
<path d="M0,0 L8,5 L8,9 L-37,18 L-38,19 L-43,19 L-43,12 L-36,10 L-27,9 L-27,7 L-15,4 L-9,3 L-1,2 Z " fill="#006093" transform="translate(79,366)"/>
<path d="M0,0 L8,5 L7,8 L-5,11 L-42,18 L-52,18 L-59,15 L-55,13 L-47,14 L-47,12 L-34,9 L-22,7 L-8,3 L0,3 Z " fill="#002437" transform="translate(141,404)"/>
<path d="M0,0 L24,0 L27,3 L27,27 L24,30 L0,30 L-3,27 L-3,3 Z M1,4 L0,5 L0,26 L1,27 L23,27 L23,4 Z " fill="#111111" transform="translate(199,405)"/>
<path d="M0,0 L25,0 L27,2 L27,27 L24,30 L1,30 L-3,26 L-3,3 Z M2,3 L1,4 L1,26 L24,26 L24,4 L23,3 Z " fill="#111111" transform="translate(392,404)"/>
<path d="M0,0 L25,0 L28,3 L28,26 L24,30 L1,30 L-2,27 L-2,2 Z M2,3 L1,4 L1,25 L2,26 L24,26 L24,3 Z " fill="#121212" transform="translate(293,404)"/>
<path d="M0,0 L9,0 L8,4 L-7,12 L-14,19 L-20,30 L-21,34 L-21,43 L-17,53 L-13,61 L-12,66 L-12,73 L-15,83 L-20,89 L-26,90 L-26,77 L-30,67 L-35,55 L-36,50 L-36,38 L-32,27 L-25,16 L-18,9 L-9,3 Z M1,1 L-11,6 L-21,15 L-29,24 L-34,36 L-35,41 L-35,48 L-31,61 L-25,74 L-25,89 L-20,87 L-15,79 L-14,76 L-14,63 L-21,48 L-22,45 L-22,32 L-18,22 L-9,12 L0,6 L8,2 L8,1 Z " fill="#140304" transform="translate(471,96)"/>
<path d="M0,0 L2,0 L2,7 L-7,9 L-18,16 L-31,19 L-35,22 L-40,24 L-43,24 L-43,15 L-23,9 L-12,4 Z " fill="#005684" transform="translate(429,271)"/>
<path d="M0,0 L11,6 L20,11 L23,19 L22,24 L11,31 L9,27 L7,12 L5,12 L3,8 L2,8 L2,3 L0,3 Z " fill="#383838" transform="translate(436,200)"/>
<path d="M0,0 L4,0 L4,8 L-13,12 L-24,18 L-27,20 L-34,22 L-41,23 L-41,17 L-32,13 L-23,9 L-15,7 L-13,5 L-6,3 L-1,1 Z " fill="#00304A" transform="translate(427,296)"/>
<path d="M0,0 L5,2 L10,5 L10,8 L14,9 L15,17 L17,17 L20,32 L20,37 L14,40 L13,25 L11,25 L10,17 L8,17 L7,10 L5,10 L5,8 L1,7 Z " fill="#4C4C4C" transform="translate(426,195)"/>
<path d="M0,0 L5,0 L5,5 L-7,9 L-16,13 L-26,15 L-37,20 L-40,20 L-40,16 L-35,13 L-23,9 L-13,5 Z " fill="#0070AC" transform="translate(426,256)"/>
<path d="M0,0 L5,1 L6,9 L10,10 L10,12 L12,12 L13,19 L15,19 L16,27 L18,27 L20,39 L17,44 L15,42 L13,32 L13,28 L11,28 L10,21 L8,21 L7,13 L5,13 L4,6 L0,5 L0,2 L-2,1 Z " fill="#555555" transform="translate(421,193)"/>
<path d="M0,0 L3,1 L3,5 L-5,7 L-11,6 L-11,8 L-20,10 L-35,13 L-44,13 L-47,10 L-34,7 L-22,5 L-9,2 Z " fill="#00141E" transform="translate(146,419)"/>
<path d="M0,0 L4,0 L4,7 L-3,10 L-16,13 L-18,15 L-24,15 L-29,11 L-21,10 L-18,7 L-1,1 Z " fill="#000B12" transform="translate(427,320)"/>
<path d="M0,0 L3,0 L3,5 L-14,11 L-23,15 L-36,20 L-42,21 L-41,18 L-37,15 L-25,11 L-15,7 L-10,5 L-8,3 Z " fill="#00466C" transform="translate(428,282)"/>
<path d="M0,0 L5,0 L1,2 L-1,4 L-6,6 L-13,8 L-16,10 L-25,12 L-31,15 L-37,18 L-40,18 L-40,13 L-32,10 L-21,7 L-14,3 Z " fill="#003856" transform="translate(426,295)"/>
<path d="M0,0 L4,0 L4,3 L-15,10 L-25,14 L-37,18 L-41,18 L-40,15 L-26,10 L-18,7 L-13,5 L-3,1 Z " fill="#005F91" transform="translate(427,268)"/>
<path d="M0,0 L3,0 L4,4 L6,4 L7,11 L9,11 L9,13 L11,13 L13,22 L13,26 L15,26 L16,34 L18,34 L19,41 L15,40 L12,37 L11,24 L9,24 L8,16 L6,16 L5,9 L3,9 L1,2 L-1,1 Z " fill="#6D6D6D" transform="translate(414,197)"/>
<path d="M0,0 L5,3 L4,7 L-2,9 L-28,14 L-28,7 L-26,6 L-18,8 L-5,5 L0,3 Z " fill="#006FAA" transform="translate(64,357)"/>
<path d="M0,0 L1,0 L1,18 L-3,29 L-10,41 L-17,50 L-26,60 L-32,67 L-36,75 L-38,82 L-39,90 L-40,90 L-40,81 L-37,71 L-31,62 L-23,54 L-12,40 L-4,26 L-1,17 Z " fill="#270707" transform="translate(460,54)"/>
<path d="M0,0 L8,0 L5,1 L5,23 L-1,23 L-1,1 Z " fill="#7F7F7F" transform="translate(394,407)"/>
<path d="M0,0 L5,0 L5,22 L8,23 L0,23 L-1,22 L-1,1 Z " fill="#747474" transform="translate(200,409)"/>
<path d="M0,0 L8,0 L5,1 L5,23 L0,23 L-1,22 L-1,1 Z " fill="#757575" transform="translate(295,407)"/>
<path d="M0,0 L2,0 L2,4 L-15,10 L-21,13 L-23,15 L-32,15 L-34,13 L-21,8 L-9,3 Z " fill="#00131E" transform="translate(429,316)"/>
<path d="M0,0 L5,0 L5,22 L0,22 Z " fill="#BFBFBF" transform="translate(217,409)"/>
<path d="M0,0 L5,0 L5,22 L0,22 Z " fill="#B7B7B7" transform="translate(411,408)"/>
<path d="M0,0 L5,0 L5,22 L0,22 Z " fill="#BFBFBF" transform="translate(312,408)"/>
<path d="M0,0 L4,2 L4,5 L8,6 L9,14 L11,14 L14,29 L14,34 L11,35 L7,14 L7,11 L5,11 L5,9 L3,9 L2,2 L0,2 Z " fill="#434343" transform="translate(432,198)"/>
<path d="M0,0 L4,0 L4,22 L17,22 L17,23 L3,23 L0,22 Z " fill="#9A9A9A" transform="translate(205,409)"/>
<path d="M0,0 L14,0 L14,1 L1,1 L1,23 L-3,23 L-3,1 Z " fill="#9A9A9A" transform="translate(303,407)"/>
<path d="M0,0 L13,0 L13,1 L1,1 L1,23 L-3,23 L-3,1 Z " fill="#9D9D9D" transform="translate(402,407)"/>
<path d="M0,0 L6,2 L9,7 L10,15 L5,18 L4,11 L2,11 Z " fill="#262626" transform="translate(449,208)"/>
<path d="M0,0 L4,0 L4,22 L0,22 Z " fill="#ADADAD" transform="translate(209,409)"/>
<path d="M0,0 L4,0 L4,22 L0,22 Z " fill="#AFAFAF" transform="translate(403,408)"/>
<path d="M0,0 L4,0 L4,22 L0,22 Z " fill="#ADADAD" transform="translate(304,408)"/>
<path d="M0,0 L6,3 L8,10 L8,15 L10,15 L11,22 L8,24 L6,12 L4,12 L3,4 L1,4 Z " fill="#2E2E2E" transform="translate(443,204)"/>
<path d="M0,0 L5,1 L6,9 L8,9 L10,21 L8,21 L7,13 L5,13 L4,6 L0,5 L0,2 L-2,1 Z " fill="#595959" transform="translate(421,193)"/>
<path d="M0,0 L10,5 L6,9 L2,11 Z " fill="#161616" transform="translate(457,212)"/>
<path d="M0,0 L4,2 L6,9 L5,14 L3,15 Z " fill="#1F1F1F" transform="translate(453,210)"/>
<path d="M0,0 L3,1 L-5,8 L-10,12 L-9,8 Z " fill="#260707" transform="translate(456,103)"/>
<path d="M0,0 L5,3 L7,12 L5,12 L3,8 L2,8 L2,3 L0,3 Z " fill="#3B3B3B" transform="translate(436,200)"/>
<path d="M0,0 L2,1 L-7,11 L-7,8 Z " fill="#270708" transform="translate(444,83)"/>
<path d="M0,0 L6,3 L2,7 L0,3 Z " fill="#0D0D0D" transform="translate(461,214)"/>
</svg>
