<?xml version="1.0" encoding="UTF-8"?>
<!-- Generator: visioncortex VTracer 0.6.5 -->
<svg version="1.1" xmlns="http://www.w3.org/2000/svg" width="400" height="400">
<path d="M0,0 L339,0 L339,6 L345,6 L345,21 L340,22 L339,32 L334,33 L334,43 L329,44 L328,54 L323,55 L323,65 L318,66 L317,76 L312,77 L312,87 L307,88 L306,98 L301,99 L301,109 L296,110 L295,120 L290,121 L290,131 L284,131 L285,140 L284,142 L279,143 L279,153 L273,153 L274,162 L272,164 L268,164 L268,175 L262,175 L263,185 L258,186 L257,196 L251,197 L252,207 L247,208 L246,218 L241,219 L241,229 L236,230 L235,240 L230,241 L230,251 L225,252 L224,262 L219,263 L219,273 L214,274 L213,284 L208,285 L208,295 L202,295 L202,306 L197,307 L197,317 L191,317 L191,328 L186,329 L186,339 L180,339 L180,345 L154,345 L153,344 L153,333 L148,333 L147,323 L142,322 L142,313 L137,311 L136,301 L131,300 L131,291 L126,290 L126,279 L121,279 L120,278 L120,269 L115,268 L115,257 L110,257 L109,256 L109,247 L104,246 L104,235 L99,235 L98,234 L98,225 L93,224 L93,213 L88,213 L87,212 L87,203 L82,202 L82,191 L77,191 L76,190 L76,181 L71,180 L71,169 L66,169 L65,168 L65,159 L60,158 L60,147 L55,147 L54,142 L54,137 L49,136 L49,127 L44,125 L43,115 L38,114 L38,105 L33,103 L32,93 L27,92 L27,83 L22,82 L22,71 L16,71 L16,61 L11,60 L11,49 L5,49 L5,39 L0,38 L0,27 L-6,27 L-6,6 L0,6 Z M60,43 L60,45 L64,47 L65,55 L70,56 L70,65 L74,67 L76,66 L76,77 L81,78 L81,87 L82,88 L87,88 L87,99 L93,99 L92,109 L93,110 L98,110 L98,121 L104,121 L103,131 L104,132 L109,132 L109,143 L115,143 L114,153 L115,154 L120,154 L120,165 L125,166 L125,175 L126,176 L131,176 L131,186 L136,188 L136,197 L137,198 L142,198 L141,207 L143,209 L147,210 L147,219 L148,220 L153,220 L152,229 L154,231 L158,231 L158,241 L164,242 L163,251 L165,253 L168,253 L169,263 L173,264 L175,263 L174,273 L178,275 L180,274 L180,285 L186,285 L187,283 L186,274 L190,275 L192,274 L192,265 L197,263 L198,261 L198,253 L203,252 L203,243 L208,241 L208,231 L213,231 L214,226 L213,220 L218,220 L219,219 L219,209 L224,209 L225,204 L224,198 L229,198 L230,197 L230,187 L235,187 L236,182 L235,176 L240,176 L241,175 L241,165 L246,165 L247,161 L246,154 L252,154 L252,143 L257,143 L258,139 L257,132 L263,132 L263,121 L268,121 L269,117 L268,110 L274,110 L274,99 L279,99 L280,96 L279,88 L285,88 L285,77 L288,78 L291,76 L290,66 L294,67 L296,66 L297,56 L301,55 L302,52 L302,47 L306,45 L306,43 Z " fill="#3232FE" transform="translate(31,34)"/>
<path d="M0,0 L339,0 L339,6 L345,6 L345,21 L340,22 L339,32 L334,33 L334,43 L329,44 L328,54 L323,55 L323,65 L318,66 L317,76 L312,77 L312,87 L307,88 L306,98 L301,99 L301,109 L296,110 L295,120 L290,121 L290,131 L284,131 L285,140 L284,142 L279,143 L279,153 L273,153 L274,162 L272,164 L268,164 L268,175 L262,175 L263,185 L258,186 L257,196 L251,197 L252,207 L247,208 L246,218 L241,219 L241,229 L236,230 L235,240 L230,241 L230,251 L225,252 L224,262 L219,263 L219,273 L214,274 L213,284 L208,285 L208,295 L202,295 L202,306 L197,307 L197,317 L191,317 L191,328 L186,329 L186,339 L180,339 L180,345 L154,345 L153,344 L153,333 L148,333 L147,323 L142,322 L142,313 L137,311 L136,301 L131,300 L131,291 L126,290 L126,279 L121,279 L120,278 L120,269 L115,268 L115,257 L110,257 L109,256 L109,247 L104,246 L104,235 L99,235 L98,234 L98,225 L93,224 L93,213 L88,213 L87,212 L87,203 L82,202 L82,191 L77,191 L76,190 L76,181 L71,180 L71,169 L66,169 L65,168 L65,159 L60,158 L60,147 L55,147 L54,142 L54,137 L49,136 L49,127 L44,125 L43,115 L38,114 L38,105 L33,103 L32,93 L27,92 L27,83 L22,82 L22,71 L16,71 L16,61 L11,60 L11,49 L5,49 L5,39 L0,38 L0,27 L-6,27 L-6,6 L0,6 Z M-1,10 L0,15 L2,19 L3,27 L6,30 L10,39 L16,51 L19,58 L21,63 L24,68 L30,80 L34,85 L37,94 L40,99 L43,106 L48,116 L51,121 L54,127 L58,136 L60,143 L63,152 L65,153 L68,162 L71,165 L75,174 L79,184 L82,187 L86,196 L90,206 L93,209 L97,218 L100,227 L104,229 L107,239 L110,244 L114,251 L117,256 L119,256 L121,260 L123,269 L127,273 L131,281 L135,291 L138,293 L142,303 L144,305 L145,312 L149,315 L153,325 L158,335 L162,339 L165,340 L175,340 L179,335 L182,330 L183,323 L187,318 L187,309 L191,308 L192,307 L192,300 L194,300 L194,298 L198,296 L199,289 L202,286 L202,275 L197,274 L197,285 L191,285 L190,296 L187,299 L177,299 L175,287 L172,283 L169,274 L166,273 L166,266 L162,258 L159,251 L155,244 L150,234 L144,222 L142,218 L140,217 L139,208 L136,205 L134,194 L130,189 L127,183 L124,179 L121,172 L118,165 L115,160 L111,152 L108,149 L106,140 L102,137 L101,128 L98,123 L95,116 L93,114 L90,105 L86,104 L85,96 L81,93 L78,86 L75,82 L72,74 L68,67 L63,62 L60,55 L56,54 L56,42 L57,41 L309,41 L308,48 L305,51 L304,58 L300,63 L296,72 L294,75 L292,81 L288,88 L285,94 L285,107 L287,109 L290,109 L290,99 L297,99 L300,92 L302,88 L303,80 L307,77 L309,70 L311,66 L313,66 L316,57 L318,55 L320,47 L325,44 L327,37 L330,32 L332,26 L335,23 L337,16 L339,14 L339,10 Z M60,43 L60,45 L64,47 L65,55 L70,56 L70,65 L74,67 L76,66 L76,77 L81,78 L81,87 L82,88 L87,88 L87,99 L93,99 L92,109 L93,110 L98,110 L98,121 L104,121 L103,131 L104,132 L109,132 L109,143 L115,143 L114,153 L115,154 L120,154 L120,165 L125,166 L125,175 L126,176 L131,176 L131,186 L136,188 L136,197 L137,198 L142,198 L141,207 L143,209 L147,210 L147,219 L148,220 L153,220 L152,229 L154,231 L158,231 L158,241 L164,242 L163,251 L165,253 L168,253 L169,263 L173,264 L175,263 L174,273 L178,275 L180,274 L180,285 L186,285 L187,283 L186,274 L190,275 L192,274 L192,265 L197,263 L198,261 L198,253 L203,252 L203,243 L208,241 L208,231 L213,231 L214,226 L213,220 L218,220 L219,219 L219,209 L224,209 L225,204 L224,198 L229,198 L230,197 L230,187 L235,187 L236,182 L235,176 L240,176 L241,175 L241,165 L246,165 L247,161 L246,154 L252,154 L252,143 L257,143 L258,139 L257,132 L263,132 L263,121 L268,121 L269,117 L268,110 L274,110 L274,99 L279,99 L280,96 L279,88 L285,88 L285,77 L288,78 L291,76 L290,66 L294,67 L296,66 L297,56 L301,55 L302,52 L302,47 L306,45 L306,43 Z " fill="#3E3EFE" transform="translate(31,34)"/>
<path d="M0,0 L339,0 L339,6 L345,6 L345,21 L340,22 L339,32 L334,33 L334,43 L329,44 L328,54 L323,55 L323,65 L318,66 L317,76 L312,77 L312,87 L307,88 L306,98 L301,99 L301,109 L296,110 L295,120 L290,121 L290,131 L284,131 L285,140 L284,142 L279,143 L279,153 L273,153 L274,162 L272,164 L268,164 L268,175 L262,175 L263,185 L258,186 L257,196 L251,197 L252,207 L247,208 L246,218 L241,219 L241,229 L236,230 L235,240 L230,241 L230,251 L225,252 L224,262 L219,263 L219,273 L214,274 L213,284 L208,285 L208,295 L202,295 L202,306 L197,307 L197,317 L191,317 L191,328 L186,329 L186,339 L180,339 L180,345 L154,345 L153,344 L153,333 L148,333 L147,323 L142,322 L142,313 L137,311 L136,301 L131,300 L131,291 L126,290 L126,279 L121,279 L120,278 L120,269 L115,268 L115,257 L110,257 L109,256 L109,247 L104,246 L104,235 L99,235 L98,234 L98,225 L93,224 L93,213 L88,213 L87,212 L87,203 L82,202 L82,191 L77,191 L76,190 L76,181 L71,180 L71,169 L66,169 L65,168 L65,159 L60,158 L60,147 L55,147 L54,142 L54,137 L49,136 L49,127 L44,125 L43,115 L38,114 L38,105 L33,103 L32,93 L27,92 L27,83 L22,82 L22,71 L16,71 L16,61 L11,60 L11,49 L5,49 L5,39 L0,38 L0,27 L-6,27 L-6,6 L0,6 Z M-3,7 L-4,8 L-4,16 L-3,18 L1,20 L4,28 L7,33 L10,39 L16,51 L19,58 L21,63 L24,68 L30,80 L34,85 L37,94 L40,99 L43,106 L48,116 L51,121 L54,127 L58,136 L60,143 L63,152 L65,153 L68,162 L71,165 L75,174 L79,184 L82,187 L86,196 L90,206 L93,209 L97,218 L100,227 L104,229 L107,239 L110,244 L114,251 L117,256 L119,256 L121,260 L123,269 L127,273 L131,281 L135,291 L138,293 L142,303 L144,305 L145,312 L149,315 L153,325 L158,335 L162,339 L165,340 L175,340 L179,335 L182,330 L183,323 L187,318 L189,311 L194,306 L196,301 L200,294 L203,289 L208,281 L211,275 L213,269 L216,265 L219,258 L222,254 L225,247 L230,236 L233,232 L236,225 L239,221 L240,214 L246,202 L252,193 L255,188 L258,181 L262,172 L266,167 L269,160 L273,151 L276,147 L279,138 L283,130 L287,122 L290,114 L292,111 L294,104 L298,100 L301,93 L304,89 L307,80 L310,79 L313,72 L314,71 L316,61 L320,56 L322,51 L326,46 L329,39 L332,36 L335,29 L338,25 L339,18 L341,16 L341,8 L339,7 Z " fill="#D8D8FE" transform="translate(31,34)"/>
<path d="M0,0 L250,0 L252,1 L252,8 L249,11 L248,18 L244,23 L240,32 L238,35 L236,41 L232,48 L228,56 L226,58 L224,65 L222,67 L220,77 L216,81 L215,88 L211,92 L208,99 L205,108 L200,114 L198,121 L195,124 L191,133 L189,135 L187,142 L184,145 L182,151 L177,157 L173,166 L170,171 L167,176 L165,186 L161,190 L159,197 L156,200 L153,209 L150,212 L148,219 L144,222 L143,225 L138,229 L134,240 L129,250 L128,251 L123,251 L119,241 L115,232 L112,229 L108,220 L105,217 L103,211 L98,207 L95,200 L88,186 L85,179 L82,177 L81,168 L78,165 L76,154 L72,149 L69,143 L66,139 L63,132 L60,125 L57,120 L53,112 L50,109 L48,100 L44,97 L43,88 L40,83 L37,76 L35,74 L32,65 L29,64 L28,62 L28,56 L24,54 L19,44 L17,42 L14,34 L11,30 L11,27 L8,26 L4,19 L3,16 L-1,14 L-2,2 Z M3,3 L3,5 L7,7 L8,15 L13,16 L13,25 L17,27 L19,26 L19,37 L24,38 L24,47 L25,48 L30,48 L30,59 L36,59 L35,69 L36,70 L41,70 L41,81 L47,81 L46,91 L47,92 L52,92 L52,103 L58,103 L57,113 L58,114 L63,114 L63,125 L68,126 L68,135 L69,136 L74,136 L74,146 L79,148 L79,157 L80,158 L85,158 L84,167 L86,169 L90,170 L90,179 L91,180 L96,180 L95,189 L97,191 L101,191 L101,201 L107,202 L106,211 L108,213 L111,213 L112,223 L116,224 L118,223 L117,233 L121,235 L123,234 L123,245 L129,245 L130,243 L129,234 L133,235 L135,234 L135,225 L140,223 L141,221 L141,213 L146,212 L146,203 L151,201 L151,191 L156,191 L157,186 L156,180 L161,180 L162,179 L162,169 L167,169 L168,164 L167,158 L172,158 L173,157 L173,147 L178,147 L179,142 L178,136 L183,136 L184,135 L184,125 L189,125 L190,121 L189,114 L195,114 L195,103 L200,103 L201,99 L200,92 L206,92 L206,81 L211,81 L212,77 L211,70 L217,70 L217,59 L222,59 L223,56 L222,48 L228,48 L228,37 L231,38 L234,36 L233,26 L237,27 L239,26 L240,16 L244,15 L245,12 L245,7 L249,5 L249,3 Z " fill="#B0B0FE" transform="translate(88,74)"/>
<path d="M0,0 L2,3 L2,10 L-3,11 L-4,21 L-9,22 L-9,32 L-14,33 L-15,43 L-20,44 L-20,54 L-25,55 L-26,65 L-31,66 L-31,76 L-36,77 L-37,87 L-42,88 L-42,98 L-48,98 L-47,107 L-48,109 L-53,110 L-53,120 L-59,120 L-58,129 L-60,131 L-64,131 L-64,142 L-70,142 L-69,152 L-74,153 L-75,163 L-81,164 L-80,174 L-85,175 L-86,185 L-91,186 L-91,196 L-96,197 L-97,207 L-102,208 L-102,218 L-107,219 L-108,229 L-113,230 L-113,240 L-118,241 L-119,251 L-124,252 L-124,262 L-130,262 L-130,273 L-135,274 L-135,284 L-141,284 L-141,295 L-146,296 L-146,306 L-152,306 L-152,312 L-178,312 L-179,311 L-179,300 L-184,300 L-185,290 L-190,289 L-190,280 L-195,278 L-196,268 L-201,267 L-201,256 L-202,251 L-205,250 L-208,241 L-210,238 L-213,229 L-214,223 L-210,227 L-208,236 L-204,240 L-200,248 L-197,255 L-197,258 L-193,260 L-189,270 L-187,272 L-186,279 L-182,282 L-178,292 L-173,302 L-170,305 L-167,306 L-157,306 L-151,297 L-150,290 L-146,285 L-143,277 L-139,273 L-137,268 L-133,261 L-130,256 L-125,248 L-122,242 L-120,236 L-117,232 L-114,225 L-111,221 L-108,214 L-103,203 L-100,199 L-97,192 L-94,188 L-93,181 L-87,169 L-81,160 L-78,155 L-75,148 L-71,139 L-67,134 L-64,127 L-60,118 L-57,114 L-54,105 L-50,97 L-46,89 L-43,81 L-41,78 L-39,71 L-36,70 L-33,61 L-29,56 L-25,47 L-23,46 L-20,39 L-19,38 L-17,28 L-13,23 L-11,18 L-7,13 L-4,6 L-1,3 Z " fill="#C9C9FE" transform="translate(363,67)"/>
<path d="M0,0 L342,0 L344,1 L344,9 L342,11 L341,18 L337,23 L334,30 L331,33 L327,42 L324,45 L321,52 L318,57 L317,64 L314,69 L312,73 L310,73 L307,82 L303,87 L299,96 L296,98 L294,105 L291,111 L288,119 L284,127 L280,135 L278,142 L275,145 L272,153 L267,163 L264,166 L261,174 L256,185 L253,188 L251,192 L250,190 L253,183 L255,183 L257,173 L261,168 L263,162 L267,157 L269,151 L276,138 L277,137 L278,127 L281,125 L281,115 L277,114 L276,123 L273,122 L274,121 L275,114 L280,108 L281,100 L284,96 L286,90 L288,89 L289,100 L293,102 L293,92 L300,92 L301,86 L304,81 L305,73 L309,70 L311,63 L314,59 L316,59 L317,51 L320,48 L323,39 L328,37 L328,31 L331,28 L334,19 L337,16 L339,9 L341,7 L342,3 L2,3 L4,8 L6,12 L5,16 L3,12 L0,11 L-1,9 L-1,1 Z " fill="#5E5EFE" transform="translate(28,41)"/>
<path d="M0,0 L6,1 L6,12 L12,12 L12,22 L17,23 L17,34 L23,34 L23,44 L28,45 L28,56 L33,56 L34,57 L34,66 L39,67 L40,77 L45,79 L45,88 L50,89 L50,98 L56,101 L56,110 L61,111 L61,120 L66,122 L67,127 L66,132 L72,133 L72,142 L77,143 L77,154 L83,154 L83,164 L88,165 L88,176 L94,175 L94,165 L100,165 L99,156 L101,154 L105,153 L105,143 L111,143 L110,134 L115,132 L116,122 L121,121 L121,111 L126,110 L127,100 L132,99 L132,89 L137,88 L138,78 L143,77 L143,67 L148,66 L149,56 L154,55 L154,45 L160,45 L160,34 L165,33 L165,23 L171,23 L171,12 L177,11 L176,15 L173,19 L171,26 L168,31 L166,38 L163,43 L160,51 L154,62 L152,66 L150,73 L147,76 L144,82 L141,87 L140,90 L138,90 L136,95 L132,105 L126,115 L123,122 L121,127 L115,137 L114,138 L112,148 L109,153 L108,156 L103,160 L99,171 L94,181 L93,182 L88,182 L84,172 L80,163 L77,160 L73,151 L70,148 L68,142 L63,138 L60,131 L53,117 L50,110 L47,108 L46,99 L43,96 L41,85 L37,80 L34,74 L31,70 L28,63 L25,56 L22,51 L18,43 L15,40 L13,31 L9,28 L8,19 L5,14 L2,7 L0,5 Z " fill="#D6D6FE" transform="translate(123,143)"/>
<path d="M0,0 L339,0 L339,6 L0,5 Z " fill="#F9F9FE" transform="translate(31,34)"/>
<path d="M0,0 L335,0 L336,2 L333,10 L330,10 L329,5 L9,4 L9,11 L5,12 L2,4 L0,3 Z " fill="#2828FE" transform="translate(31,45)"/>
<path d="M0,0 L249,0 L249,5 L246,8 L243,18 L240,23 L235,30 L232,40 L229,45 L224,52 L220,61 L218,63 L216,71 L212,75 L210,78 L209,75 L209,68 L215,68 L215,57 L220,56 L220,46 L226,46 L226,35 L231,34 L231,24 L237,24 L237,13 L242,12 L242,5 L247,3 L247,1 L244,2 L5,2 L1,1 L1,3 L6,5 L6,13 L11,13 L12,14 L12,23 L17,24 L17,35 L22,35 L23,36 L23,45 L28,46 L28,57 L34,57 L34,64 L32,67 L30,63 L27,62 L26,60 L26,54 L22,52 L17,42 L15,40 L12,32 L8,25 L5,18 L1,10 L-1,7 L-1,1 Z " fill="#EAEAFE" transform="translate(90,76)"/>
<path d="M0,0 L5,1 L5,11 L2,13 L1,23 L-3,30 L-8,38 L-10,45 L-14,49 L-16,56 L-19,59 L-22,69 L-24,70 L-27,80 L-30,85 L-33,91 L-35,92 L-37,98 L-42,102 L-44,109 L-49,109 L-50,98 L-48,95 L-46,95 L-45,87 L-41,84 L-38,75 L-36,73 L-34,64 L-30,59 L-28,53 L-25,49 L-22,42 L-19,38 L-17,32 L-13,27 L-10,18 L-6,10 L-1,9 Z " fill="#3232FE" transform="translate(305,155)"/>
<path d="M0,0 L4,2 L6,5 L8,14 L12,16 L13,25 L18,27 L20,37 L24,47 L29,50 L30,56 L34,56 L35,59 L35,66 L40,67 L41,79 L44,80 L46,90 L51,92 L53,103 L55,109 L59,110 L62,114 L63,122 L67,122 L68,133 L72,135 L73,143 L77,147 L79,156 L81,156 L85,164 L89,168 L91,180 L97,191 L104,206 L110,217 L113,223 L115,225 L115,233 L111,228 L107,221 L103,214 L100,205 L97,204 L94,195 L89,185 L86,182 L83,173 L78,163 L75,160 L72,151 L67,141 L64,138 L62,130 L59,128 L56,119 L54,111 L51,104 L46,94 L43,90 L40,83 L35,72 L33,70 L30,61 L26,54 L21,45 L18,40 L15,32 L9,20 L4,10 L1,5 Z " fill="#5A5AFE" transform="translate(34,57)"/>
<path d="M0,0 L1,3 L5,3 L9,11 L12,14 L15,23 L18,28 L19,33 L23,36 L25,42 L29,47 L30,53 L32,53 L36,66 L39,68 L42,77 L45,80 L49,89 L53,99 L56,102 L60,111 L64,121 L67,124 L71,133 L73,137 L73,142 L77,143 L80,152 L84,159 L88,166 L91,171 L95,181 L97,188 L100,193 L101,198 L104,201 L105,206 L99,205 L99,194 L94,194 L93,193 L93,184 L88,183 L88,172 L83,172 L82,171 L82,162 L77,161 L77,150 L72,150 L71,149 L71,140 L66,139 L66,128 L61,128 L60,127 L60,118 L55,117 L55,106 L50,106 L49,105 L49,96 L44,95 L44,84 L39,84 L38,83 L38,74 L33,73 L33,62 L28,62 L27,57 L27,52 L22,51 L22,42 L17,40 L16,30 L11,29 L11,20 L6,18 L5,8 L0,7 Z " fill="#EDEDFE" transform="translate(58,119)"/>
<path d="M0,0 L251,0 L253,1 L253,11 L249,15 L247,24 L246,25 L248,26 L249,16 L253,16 L254,18 L254,27 L250,32 L248,39 L245,41 L243,52 L240,57 L239,60 L232,60 L232,70 L228,69 L227,68 L227,55 L232,45 L235,41 L237,35 L241,27 L245,20 L246,19 L247,12 L250,9 L251,2 L0,1 Z " fill="#3636FE" transform="translate(89,73)"/>
<path d="M0,0 L3,4 L7,11 L9,16 L13,22 L15,27 L18,29 L19,37 L23,38 L27,48 L30,53 L33,60 L34,61 L35,70 L39,73 L41,82 L45,86 L48,93 L51,98 L54,105 L59,115 L62,120 L66,126 L68,130 L69,138 L72,141 L73,150 L76,152 L80,161 L80,163 L77,162 L74,155 L70,154 L69,143 L65,140 L64,132 L59,130 L58,121 L54,118 L53,110 L48,108 L46,100 L43,99 L41,89 L37,88 L36,78 L32,78 L30,66 L28,65 L26,55 L21,53 L19,41 L17,41 L14,33 L12,32 L9,23 L5,22 L2,8 L0,4 Z " fill="#5050FE" transform="translate(98,101)"/>
<path d="M0,0 L4,4 L6,13 L10,17 L14,25 L17,32 L17,35 L21,37 L25,47 L27,49 L28,56 L32,59 L36,69 L41,79 L44,82 L47,83 L57,83 L63,74 L64,67 L68,62 L71,54 L76,50 L76,56 L73,59 L70,68 L68,70 L68,83 L62,83 L62,89 L36,89 L35,88 L35,77 L30,77 L29,67 L24,66 L24,57 L19,55 L18,45 L13,44 L13,33 L12,28 L9,27 L6,18 L4,15 L1,6 Z " fill="#BFBFFE" transform="translate(149,290)"/>
<path d="M0,0 L342,0 L344,2 L2,2 L4,8 L6,12 L5,16 L3,12 L0,11 L-1,9 L-1,1 Z " fill="#9393FE" transform="translate(28,41)"/>
<path d="M0,0 L6,1 L6,12 L12,12 L12,22 L17,23 L17,34 L23,34 L23,44 L28,45 L28,56 L33,56 L34,57 L34,66 L39,67 L40,77 L45,79 L45,88 L50,89 L50,98 L56,101 L55,109 L54,105 L49,103 L46,95 L43,92 L40,84 L36,78 L33,73 L28,63 L25,56 L22,51 L18,43 L15,40 L13,31 L9,28 L8,19 L5,14 L2,7 L0,5 Z " fill="#EEEEFE" transform="translate(123,143)"/>
<path d="M0,0 L1,0 L2,11 L6,13 L6,3 L12,3 L12,7 L9,9 L7,16 L4,22 L1,30 L-3,38 L-7,46 L-9,53 L-12,56 L-15,64 L-20,74 L-23,77 L-26,85 L-31,96 L-34,99 L-36,103 L-37,101 L-34,94 L-32,94 L-30,84 L-26,79 L-24,73 L-20,68 L-18,62 L-11,49 L-10,48 L-9,38 L-6,36 L-6,26 L-10,25 L-11,34 L-14,33 L-13,32 L-12,25 L-7,19 L-6,11 L-3,7 L-1,1 Z " fill="#3636FE" transform="translate(315,130)"/>
<path d="M0,0 L1,0 L0,7 L-4,11 L-5,18 L-9,22 L-12,29 L-15,38 L-20,44 L-22,51 L-25,54 L-29,63 L-31,65 L-33,72 L-36,75 L-38,81 L-43,87 L-47,96 L-50,101 L-53,106 L-55,116 L-59,120 L-61,127 L-64,130 L-67,139 L-70,142 L-72,149 L-76,151 L-74,147 L-72,137 L-67,130 L-64,125 L-61,115 L-56,108 L-51,97 L-47,89 L-45,89 L-44,83 L-40,78 L-37,73 L-35,71 L-33,62 L-30,58 L-26,50 L-23,42 L-20,37 L-15,27 L-13,25 L-10,16 L-6,10 L-3,5 L-1,5 Z " fill="#7575FE" transform="translate(308,144)"/>
<path d="M0,0 L340,0 L339,5 L337,7 L335,14 L332,17 L331,22 L330,22 L330,12 L335,12 L335,5 L336,2 L1,1 L0,4 Z " fill="#3E3EFE" transform="translate(30,44)"/>
<path d="M0,0 L67,0 L67,5 L64,8 L61,18 L58,23 L53,30 L50,40 L47,45 L42,52 L38,61 L36,63 L34,71 L30,75 L28,78 L27,75 L27,68 L33,68 L33,57 L38,56 L38,46 L44,46 L44,35 L49,34 L49,24 L55,24 L55,13 L60,12 L60,5 L65,3 L65,1 L0,1 Z " fill="#CDCDFE" transform="translate(272,76)"/>
<path d="M0,0 L2,3 L2,10 L-3,11 L-4,21 L-9,22 L-9,32 L-14,33 L-15,43 L-20,44 L-20,54 L-25,55 L-26,65 L-31,66 L-31,76 L-36,77 L-37,87 L-43,88 L-42,83 L-40,80 L-38,74 L-35,71 L-32,64 L-29,61 L-26,53 L-23,50 L-21,40 L-19,38 L-17,28 L-13,23 L-11,18 L-7,13 L-4,6 L-1,3 Z " fill="#B8B8FE" transform="translate(363,67)"/>
<path d="M0,0 L251,0 L253,1 L253,11 L249,15 L247,24 L244,27 L242,33 L238,35 L240,30 L243,23 L246,19 L247,12 L250,9 L251,2 L0,1 Z " fill="#6565FE" transform="translate(89,73)"/>
<path d="M0,0 L3,2 L6,12 L9,15 L12,22 L15,29 L15,32 L19,34 L23,44 L28,54 L31,59 L34,66 L39,76 L41,78 L41,81 L43,81 L52,98 L57,108 L59,110 L59,118 L55,113 L51,106 L47,99 L44,90 L41,89 L38,80 L33,70 L30,67 L27,58 L22,48 L19,45 L16,36 L11,26 L8,23 L6,15 L3,13 L0,4 Z " fill="#BFBFFE" transform="translate(90,172)"/>
<path d="M0,0 L250,0 L250,1 L1,2 L0,6 L5,13 L9,22 L10,27 L5,22 L3,16 L-1,14 L-2,2 Z " fill="#8989FE" transform="translate(88,74)"/>
<path d="M0,0 L4,0 L5,2 L5,12 L0,12 L0,22 L-4,24 L-5,33 L-9,39 L-10,44 L-15,44 L-16,41 L-16,33 L-12,33 L-11,22 L-8,19 L-5,10 L-2,9 Z " fill="#3131FE" transform="translate(250,264)"/>
<path d="M0,0 L5,5 L8,12 L11,15 L14,24 L20,35 L23,40 L24,45 L30,50 L44,50 L51,42 L52,37 L54,39 L54,47 L48,47 L48,53 L22,53 L21,52 L21,41 L16,41 L15,31 L10,30 L10,21 L5,19 L4,9 L-1,8 L-1,1 Z " fill="#F5F5FE" transform="translate(163,326)"/>
<path d="M0,0 L257,0 L257,10 L256,10 L256,2 L3,2 L1,4 L0,8 L-3,7 L-2,2 Z " fill="#4646FE" transform="translate(86,72)"/>
<path d="M0,0 L1,4 L-3,8 L-6,16 L-9,19 L-12,26 L-15,29 L-17,36 L-19,39 L-19,52 L-25,52 L-24,61 L-25,63 L-30,64 L-30,74 L-36,74 L-38,81 L-42,84 L-40,80 L-37,72 L-34,68 L-31,59 L-27,51 L-23,43 L-20,35 L-18,32 L-16,25 L-13,24 L-10,15 L-6,10 L-2,1 Z " fill="#BFBFFE" transform="translate(340,113)"/>
<path d="M0,0 L0,3 L-1,4 L-2,11 L-6,16 L-9,23 L-12,26 L-16,35 L-19,38 L-22,45 L-25,50 L-26,57 L-29,62 L-31,66 L-33,66 L-36,75 L-40,80 L-43,87 L-44,85 L-41,78 L-39,74 L-38,66 L-34,63 L-32,56 L-29,52 L-27,52 L-26,44 L-23,41 L-20,32 L-15,30 L-15,24 L-12,21 L-9,12 L-6,9 L-4,9 L-3,3 Z " fill="#8989FE" transform="translate(371,48)"/>
<path d="M0,0 L6,1 L6,12 L12,12 L12,22 L17,23 L17,34 L23,34 L23,49 L26,52 L30,62 L32,66 L31,70 L28,63 L25,56 L22,51 L18,43 L15,40 L13,31 L9,28 L8,19 L5,14 L2,7 L0,5 Z " fill="#CCCCFE" transform="translate(123,143)"/>
<path d="M0,0 L5,4 L7,10 L11,15 L14,22 L18,27 L20,33 L23,42 L28,42 L35,28 L38,20 L42,17 L41,22 L39,24 L37,30 L33,37 L30,45 L28,47 L22,47 L20,46 L18,38 L14,35 L11,26 L9,25 L7,15 L4,10 L1,3 Z " fill="#8686FE" transform="translate(188,282)"/>
<path d="M0,0 L1,2 L-2,4 L-4,11 L-7,17 L-10,25 L-14,33 L-18,41 L-20,48 L-23,51 L-26,59 L-31,69 L-34,72 L-37,80 L-42,91 L-45,94 L-47,98 L-48,96 L-45,89 L-43,89 L-41,79 L-37,74 L-35,68 L-31,63 L-29,57 L-22,44 L-21,43 L-20,33 L-16,30 L-14,22 L-9,20 L-8,13 L-5,9 L-3,2 Z " fill="#8484FE" transform="translate(326,135)"/>
<path d="M0,0 L1,3 L-2,6 L-5,15 L-8,17 L-10,25 L-13,28 L-13,39 L-8,39 L-7,32 L-2,28 L-4,32 L-7,41 L-11,48 L-15,54 L-18,63 L-23,66 L-23,63 L-20,61 L-19,51 L-14,51 L-15,39 L-19,39 L-20,48 L-24,50 L-26,53 L-25,48 L-22,44 L-20,38 L-17,35 L-15,25 L-10,16 L-7,12 L-4,5 Z " fill="#4242FE" transform="translate(269,225)"/>
<path d="M0,0 L4,1 L4,12 L1,14 L0,22 L-5,23 L-6,33 L-11,32 L-11,21 L-9,19 L-6,11 L-1,11 L-1,1 Z " fill="#2B2BFE" transform="translate(278,209)"/>
<path d="M0,0 L104,0 L104,15 L99,16 L98,26 L92,27 L93,23 L96,19 L97,12 L99,10 L100,2 L0,1 Z " fill="#C6C6FE" transform="translate(272,40)"/>
<path d="M0,0 L6,1 L6,12 L11,12 L12,13 L12,22 L17,23 L17,34 L23,34 L23,41 L21,44 L19,40 L16,39 L15,37 L15,31 L11,29 L7,21 L3,9 L1,7 Z " fill="#CFCFFE" transform="translate(101,99)"/>
<path d="M0,0 L3,0 L4,2 L4,10 L0,11 L0,22 L-6,22 L-6,32 L-10,31 L-11,30 L-11,19 L-8,18 L-8,16 L-6,16 L-6,11 L-3,8 L-2,5 L0,5 Z " fill="#2D2DFE" transform="translate(327,111)"/>
<path d="M0,0 L4,3 L8,13 L10,17 L10,20 L14,22 L16,24 L18,33 L20,33 L24,41 L28,45 L30,57 L36,68 L37,73 L33,68 L28,58 L23,47 L20,43 L17,36 L12,25 L10,24 L6,14 L2,6 L0,4 Z " fill="#6E6EFE" transform="translate(95,180)"/>
<path d="M0,0 L2,1 L1,2 L0,9 L-4,14 L-8,23 L-11,28 L-14,35 L-19,45 L-22,50 L-25,56 L-27,58 L-30,68 L-33,71 L-35,74 L-34,67 L-31,65 L-29,55 L-26,51 L-23,44 L-19,42 L-18,34 L-14,29 L-11,23 L-9,20 L-6,11 L-3,7 Z " fill="#8383FE" transform="translate(270,246)"/>
<path d="M0,0 L4,1 L5,2 L7,11 L10,14 L14,24 L18,31 L23,34 L36,34 L38,30 L39,29 L41,20 L44,21 L42,23 L41,30 L34,40 L24,40 L19,37 L15,32 L12,25 L7,14 L4,12 L3,5 L0,2 Z " fill="#4D4DFE" transform="translate(172,334)"/>
<path d="M0,0 L1,4 L-3,9 L-7,18 L-9,21 L-11,27 L-15,34 L-19,42 L-21,44 L-23,51 L-26,56 L-28,61 L-31,63 L-35,71 L-38,76 L-40,82 L-43,87 L-45,90 L-44,83 L-41,79 L-39,72 L-36,69 L-33,62 L-29,57 L-27,50 L-23,43 L-19,36 L-14,28 L-11,18 L-6,11 L-2,4 Z " fill="#A4A4FE" transform="translate(335,88)"/>
<path d="M0,0 L1,0 L1,10 L-4,11 L-4,21 L-9,22 L-10,32 L-15,33 L-15,43 L-20,44 L-21,54 L-27,55 L-26,50 L-24,47 L-22,41 L-19,38 L-16,31 L-13,28 L-10,20 L-7,17 L-6,10 L-2,6 Z " fill="#ECECFE" transform="translate(347,100)"/>
<path d="M0,0 L4,2 L6,7 L10,9 L11,20 L15,21 L16,30 L21,32 L23,44 L25,46 L29,56 L34,66 L37,71 L36,75 L33,68 L31,67 L27,57 L22,48 L19,45 L17,36 L14,32 L13,24 L9,19 L6,12 Z " fill="#4E4EFE" transform="translate(135,258)"/>
<path d="M0,0 L1,0 L1,6 L-2,9 L-5,18 L-8,23 L-10,29 L-17,35 L-19,36 L-30,36 L-36,30 L-35,28 L-31,32 L-28,33 L-18,33 L-12,24 L-11,17 L-7,12 L-4,4 Z " fill="#9E9EFE" transform="translate(224,340)"/>
<path d="M0,0 L2,1 L-1,4 L-3,11 L-6,14 L-7,21 L-11,26 L-12,37 L-15,38 L-16,41 L-26,41 L-27,40 L-29,26 L-27,27 L-26,35 L-18,35 L-16,33 L-13,23 L-9,18 L-7,12 L-5,10 L-2,2 Z " fill="#3A3AFE" transform="translate(234,293)"/>
<path d="M0,0 L1,3 L-3,12 L-6,17 L-8,27 L-12,31 L-14,38 L-17,41 L-20,50 L-23,53 L-25,60 L-29,62 L-27,58 L-25,48 L-20,41 L-17,36 L-14,26 L-9,19 L-4,8 Z " fill="#9696FE" transform="translate(261,233)"/>
<path d="M0,0 L2,2 L2,9 L-4,9 L-4,20 L-9,21 L-9,31 L-15,31 L-15,42 L-21,43 L-20,39 L-18,37 L-15,28 L-13,26 L-11,17 L-7,12 L-4,7 L-1,3 Z " fill="#C3C3FE" transform="translate(237,320)"/>
<path d="M0,0 L0,3 L-1,4 L-1,17 L-6,18 L-7,28 L-13,30 L-16,36 L-19,39 L-23,46 L-26,50 L-25,45 L-21,38 L-18,33 L-13,25 L-10,19 L-8,13 L-5,9 L-2,2 Z " fill="#B0B0FE" transform="translate(251,290)"/>
<path d="M0,0 L5,3 L6,11 L10,12 L14,22 L17,27 L20,34 L21,35 L22,44 L26,47 L27,54 L25,53 L24,50 L21,48 L17,38 L12,27 L8,15 L4,11 L1,5 Z " fill="#C2C2FE" transform="translate(111,127)"/>
<path d="M0,0 L5,4 L7,11 L11,13 L14,24 L20,37 L22,43 L21,47 L17,39 L10,25 L7,18 L4,16 L3,7 L0,4 Z " fill="#A2A2FE" transform="translate(166,235)"/>
<path d="M0,0 L0,3 L-6,14 L-8,18 L-10,25 L-13,28 L-16,34 L-19,39 L-21,42 L-20,35 L-17,29 L-17,19 L-12,18 L-11,8 L-4,7 L-3,3 Z " fill="#BBBBFE" transform="translate(283,191)"/>
<path d="M0,0 L2,3 L1,9 L-4,9 L-4,20 L-10,20 L-9,30 L-14,31 L-15,41 L-21,42 L-19,38 L-17,34 L-16,27 L-13,22 L-11,17 L-7,12 L-4,7 L-1,3 Z " fill="#EBEBFE" transform="translate(303,189)"/>
<path d="M0,0 L4,2 L6,5 L8,14 L12,16 L13,25 L18,27 L20,37 L24,47 L28,51 L29,58 L27,57 L23,49 L19,41 L17,39 L14,29 L10,23 L7,16 L2,6 L0,4 Z " fill="#6C6CFE" transform="translate(34,57)"/>
<path d="M0,0 L5,1 L5,11 L2,13 L1,21 L-1,22 L-6,21 L-6,10 L-1,9 Z " fill="#2F2FFE" transform="translate(305,155)"/>
<path d="M0,0 L3,3 L7,10 L11,20 L14,25 L17,32 L22,42 L25,47 L28,53 L32,62 L32,64 L30,64 L27,57 L23,52 L21,46 L18,44 L15,35 L12,30 L11,23 L8,20 L6,12 L1,7 Z " fill="#B1B1FE" transform="translate(58,108)"/>
<path d="M0,0 L1,4 L-2,9 L-3,10 L-3,22 L-8,23 L-9,33 L-16,35 L-16,29 L-10,17 L-4,8 L-1,3 Z " fill="#B4B4FE" transform="translate(286,219)"/>
<path d="M0,0 L1,0 L1,10 L8,10 L6,15 L0,26 L-4,35 L-7,38 L-8,43 L-9,43 L-9,33 L-4,33 L-4,22 L1,22 L0,11 L-4,11 L-3,7 Z " fill="#4343FE" transform="translate(298,166)"/>
<path d="M0,0 L3,4 L7,11 L9,16 L13,22 L14,30 L17,35 L18,39 L22,41 L25,51 L23,51 L19,43 L19,41 L17,41 L14,33 L12,32 L9,23 L5,22 L2,8 L0,4 Z " fill="#6161FE" transform="translate(98,101)"/>
<path d="M0,0 L1,0 L2,10 L7,11 L5,15 L2,24 L-1,27 L-3,33 L-4,33 L-4,25 L-1,23 L-1,12 L-4,12 L-5,22 L-10,22 L-11,25 L-10,20 L-7,16 L-5,10 L-2,6 Z " fill="#4242FE" transform="translate(282,198)"/>
<path d="M0,0 L1,0 L0,25 L-3,30 L-5,33 L-5,22 L-1,21 L-2,11 L-5,11 L-5,16 L-7,16 L-8,20 L-10,22 L-11,27 L-13,27 L-13,29 L-16,30 L-14,25 L-11,18 L-8,14 L-6,8 L-1,5 Z " fill="#3030FE" transform="translate(332,100)"/>
<path d="M0,0 L6,1 L6,12 L12,12 L12,22 L17,23 L17,33 L15,29 L11,27 L7,18 L2,7 L0,5 Z " fill="#EFEFFE" transform="translate(123,143)"/>
<path d="M0,0 L6,0 L5,5 L0,15 L-2,17 L-4,25 L-8,29 L-10,32 L-11,29 L-11,22 L-5,22 L-5,11 L0,10 Z " fill="#E3E3FE" transform="translate(310,122)"/>
<path d="M0,0 L2,4 L2,6 L6,8 L6,12 L12,12 L13,13 L13,24 L15,30 L19,39 L18,41 L16,39 L13,31 L9,24 L6,17 L2,9 L0,6 Z " fill="#C9C9FE" transform="translate(89,77)"/>
<path d="M0,0 L3,1 L4,3 L4,11 L0,16 L-1,21 L-6,21 L-7,10 L-2,9 L-2,3 Z " fill="#2E2EFE" transform="translate(262,243)"/>
<path d="M0,0 L1,2 L-1,11 L-4,14 L-5,24 L0,24 L0,19 L3,16 L5,17 L2,25 L-3,27 L-4,35 L-5,35 L-6,26 L-10,25 L-11,34 L-14,33 L-13,32 L-12,25 L-7,19 L-6,11 L-3,7 L-1,1 Z " fill="#3E3EFE" transform="translate(315,130)"/>
<path d="M0,0 L6,1 L6,10 L11,12 L12,17 L11,22 L17,23 L17,30 L15,32 L14,29 L11,26 L8,18 L5,15 L0,2 Z " fill="#EFEFFE" transform="translate(178,253)"/>
<path d="M0,0 L5,4 L8,11 L11,16 L14,23 L19,33 L22,38 L26,44 L28,48 L27,52 L24,47 L19,38 L15,35 L12,24 L10,24 L7,15 L5,13 L2,4 Z " fill="#8484FE" transform="translate(138,183)"/>
<path d="M0,0 L3,2 L4,8 L8,8 L9,11 L9,18 L14,19 L15,31 L18,32 L20,41 L17,38 L13,30 L10,23 L7,20 L4,13 L2,8 Z " fill="#4A4AFE" transform="translate(60,105)"/>
<path d="M0,0 L3,3 L10,17 L15,27 L17,29 L17,37 L13,32 L9,25 L5,18 L2,9 L0,4 Z " fill="#8989FE" transform="translate(132,253)"/>
<path d="M0,0 L0,3 L-1,4 L-2,11 L-6,16 L-9,23 L-12,26 L-16,35 L-19,37 L-17,32 L-14,23 L-11,18 L-9,12 L-6,9 L-4,9 L-3,3 Z " fill="#A7A7FE" transform="translate(371,48)"/>
<path d="M0,0 L3,1 L6,11 L9,12 L9,15 L16,16 L18,32 L20,36 L16,33 L12,24 L9,21 L7,15 L4,12 L1,2 Z " fill="#CFCFFE" transform="translate(184,270)"/>
<path d="M0,0 L1,2 L-2,4 L-4,11 L-7,17 L-10,25 L-14,33 L-18,41 L-20,41 L-20,33 L-16,30 L-14,22 L-9,20 L-8,13 L-5,9 L-3,2 Z " fill="#6060FE" transform="translate(326,135)"/>
<path d="M0,0 L1,4 L-3,8 L-6,16 L-9,19 L-12,26 L-15,29 L-17,36 L-21,43 L-22,39 L-18,32 L-16,25 L-13,24 L-10,15 L-6,10 L-2,1 Z " fill="#A1A1FE" transform="translate(340,113)"/>
<path d="M0,0 L2,1 L2,4 L4,4 L8,12 L12,16 L14,28 L20,39 L21,44 L17,39 L12,29 L9,22 L6,13 L0,2 Z " fill="#5454FE" transform="translate(111,209)"/>
<path d="M0,0 L4,3 L7,11 L9,13 L10,22 L13,24 L17,33 L17,35 L14,34 L11,27 L7,26 L6,15 L3,11 Z " fill="#5050FE" transform="translate(161,229)"/>
<path d="M0,0 L4,1 L5,2 L7,11 L10,14 L14,24 L18,31 L23,36 L24,39 L20,38 L15,32 L12,25 L7,14 L4,12 L3,5 L0,2 Z " fill="#7777FE" transform="translate(172,334)"/>
<path d="M0,0 L5,0 L5,15 L0,16 L-1,26 L-7,27 L-6,23 L-3,19 L-1,13 L2,8 L3,1 Z " fill="#EDEDFE" transform="translate(371,40)"/>
<path d="M0,0 L1,3 L-2,5 L-4,14 L-7,17 L-11,26 L-13,28 L-16,35 L-19,37 L-21,40 L-21,35 L-17,33 L-16,26 L-14,26 L-14,24 L-11,22 L-10,15 L-6,11 L-4,4 Z " fill="#5A5AFE" transform="translate(239,308)"/>
<path d="M0,0 L2,3 L2,11 L-3,12 L-4,22 L-10,23 L-9,18 L-7,15 L-5,9 L-2,6 Z " fill="#D0D0FE" transform="translate(330,132)"/>
<path d="M0,0 L1,4 L-2,8 L-4,17 L-7,20 L-9,26 L-14,32 L-18,41 L-20,42 L-18,37 L-14,27 L-11,23 L-8,18 L-6,16 L-4,7 L-1,3 Z " fill="#8181FE" transform="translate(279,199)"/>
<path d="M0,0 L2,3 L2,10 L-3,11 L-4,21 L-10,22 L-9,18 L-7,16 L-5,7 L-1,3 Z " fill="#D6D6FE" transform="translate(363,67)"/>
<path d="M0,0 L5,2 L8,9 L11,12 L12,19 L6,18 L6,7 L0,7 Z " fill="#FDFDFE" transform="translate(36,76)"/>
<path d="M0,0 L1,2 L-5,13 L-7,15 L-10,25 L-14,30 L-13,25 L-11,20 L-11,10 L-4,9 L-4,3 Z " fill="#D6D6FE" transform="translate(255,244)"/>
<path d="M0,0 L6,1 L6,12 L11,12 L12,13 L12,19 L8,17 L5,14 L2,8 L0,2 Z " fill="#E8E8FE" transform="translate(101,99)"/>
<path d="M0,0 L2,1 L-1,4 L-3,11 L-6,14 L-7,21 L-11,26 L-13,34 L-18,36 L-15,29 L-11,20 L-9,18 L-7,12 L-5,10 L-2,2 Z " fill="#6969FE" transform="translate(234,293)"/>
<path d="M0,0 L5,1 L5,9 L10,10 L11,22 L13,22 L15,25 L14,29 L11,24 L6,14 L1,3 Z " fill="#4848FE" transform="translate(157,300)"/>
<path d="M0,0 L2,2 L2,10 L-4,10 L-4,15 L-25,15 L-26,10 L-22,13 L-8,13 L-1,5 Z " fill="#E9E9FE" transform="translate(215,363)"/>
<path d="M0,0 L2,1 L6,10 L11,20 L14,25 L17,32 L19,38 L17,37 L13,29 L11,23 L8,21 L4,13 L2,12 Z " fill="#5A5AFE" transform="translate(178,264)"/>
<path d="M0,0 L6,1 L6,12 L11,12 L12,13 L12,18 L11,16 L6,16 L2,7 L0,5 Z " fill="#F2F2FE" transform="translate(145,187)"/>
<path d="M0,0 L5,5 L7,13 L10,16 L11,21 L5,20 L5,9 L0,9 L-1,8 L-1,2 Z " fill="#FAFAFE" transform="translate(152,304)"/>
<path d="M0,0 L6,0 L6,10 L11,11 L11,21 L6,16 L2,6 Z " fill="#F8F8FE" transform="translate(200,297)"/>
<path d="M0,0 L4,4 L7,11 L11,16 L13,22 L15,26 L15,31 L13,27 L11,23 L8,21 L5,14 L3,12 L1,3 Z " fill="#AEAEFE" transform="translate(195,293)"/>
<path d="M0,0 L3,2 L7,12 L10,17 L13,25 L16,30 L18,36 L15,34 L12,27 L9,25 L6,16 L1,5 Z " fill="#BDBDFE" transform="translate(40,72)"/>
<path d="M0,0 L1,0 L1,6 L-2,9 L-7,18 L-9,22 L-11,22 L-11,17 L-7,12 L-4,4 Z " fill="#6F6FFE" transform="translate(224,340)"/>
<path d="M0,0 L5,4 L7,11 L11,13 L13,23 L10,23 L7,16 L4,12 L2,6 L0,4 Z " fill="#C7C7FE" transform="translate(166,235)"/>
<path d="M0,0 L1,4 L-3,9 L-7,18 L-9,21 L-11,27 L-15,34 L-17,37 L-16,30 L-14,28 L-11,18 L-6,11 L-2,4 Z " fill="#8A8AFE" transform="translate(335,88)"/>
<path d="M0,0 L4,3 L7,10 L9,12 L10,19 L14,22 L15,29 L13,28 L12,25 L9,23 L5,13 L0,2 Z " fill="#8383FE" transform="translate(123,152)"/>
<path d="M0,0 L1,4 L-3,8 L-5,17 L-8,20 L-10,26 L-14,28 L-12,23 L-9,16 L-6,12 L-5,5 L-2,2 L0,2 Z " fill="#5E5EFE" transform="translate(341,80)"/>
<path d="M0,0 L1,0 L0,7 L-3,10 L-6,18 L-11,28 L-14,30 L-12,26 L-10,17 L-5,9 Z " fill="#9595FE" transform="translate(306,176)"/>
<path d="M0,0 L1,4 L-2,7 L-4,13 L-8,20 L-11,26 L-13,28 L-19,28 L-18,25 L-13,25 L-6,11 L-3,3 Z " fill="#A6A6FE" transform="translate(229,299)"/>
<path d="M0,0 L4,5 L6,7 L10,17 L15,27 L18,32 L17,36 L14,29 L12,28 L8,18 L3,9 L0,6 Z " fill="#7C7CFE" transform="translate(154,297)"/>
<path d="M0,0 L0,3 L-2,7 L-4,14 L-6,16 L-9,26 L-12,29 L-14,32 L-13,25 L-10,23 L-8,13 L-5,9 L-2,2 Z " fill="#6767FE" transform="translate(249,288)"/>
<path d="M0,0 L1,3 L-2,6 L-5,15 L-8,17 L-10,25 L-15,29 L-14,24 L-10,16 L-7,12 L-4,5 Z " fill="#6161FE" transform="translate(269,225)"/>
<path d="M0,0 L2,4 L7,11 L11,20 L12,25 L7,20 L5,14 L1,12 Z " fill="#7575FE" transform="translate(86,76)"/>
<path d="M0,0 L2,2 L2,9 L-4,9 L-4,20 L-10,21 L-9,17 L-6,14 L-4,7 L-1,3 Z " fill="#EBEBFE" transform="translate(237,320)"/>
<path d="M0,0 L2,1 L-2,8 L-5,15 L-7,19 L-9,26 L-12,31 L-14,35 L-15,33 L-12,26 L-10,22 L-9,14 L-5,11 L-3,4 Z " fill="#6666FE" transform="translate(342,100)"/>
<path d="M0,0 L1,2 L-2,6 L-4,13 L-8,17 L-9,22 L-10,22 L-10,12 L-5,12 L-5,1 Z " fill="#4C4CFE" transform="translate(299,187)"/>
<path d="M0,0 L3,3 L7,10 L11,20 L14,25 L17,32 L17,35 L14,32 L10,22 L8,20 L6,12 L1,7 Z " fill="#A8A8FE" transform="translate(58,108)"/>
<path d="M0,0 L31,0 L31,1 L1,1 L1,3 L6,5 L6,13 L4,9 L0,5 Z " fill="#D8D8FE" transform="translate(90,76)"/>
<path d="M0,0 L2,3 L2,9 L-3,10 L-4,20 L-10,21 L-8,17 L-4,7 L0,5 Z " fill="#EDEDFE" transform="translate(281,232)"/>
<path d="M0,0 L1,4 L-2,9 L-5,15 L-7,16 L-9,22 L-10,22 L-9,15 L-6,11 L-4,1 Z " fill="#5555FE" transform="translate(277,231)"/>
<path d="M0,0 L2,3 L2,10 L-3,11 L-4,21 L-8,20 L-6,17 L-5,8 L-1,3 Z " fill="#E3E3FE" transform="translate(248,297)"/>
<path d="M0,0 L5,0 L1,12 L-3,15 L-4,21 L-5,21 L-6,12 L-1,10 Z " fill="#F0F0FE" transform="translate(239,265)"/>
<path d="M0,0 L2,3 L1,9 L-4,9 L-4,20 L-10,20 L-8,16 L-6,13 L-4,7 L-1,3 Z " fill="#F0F0FE" transform="translate(303,189)"/>
<path d="M0,0 L1,2 L-1,11 L-4,14 L-5,24 L-10,24 L-7,19 L-6,11 L-3,7 L-1,1 Z " fill="#4D4DFE" transform="translate(315,130)"/>
<path d="M0,0 L2,1 L0,3 L-2,11 L-6,15 L-8,18 L-9,15 L-9,8 L-3,7 L-1,1 Z " fill="#D4D4FE" transform="translate(308,136)"/>
<path d="M0,0 L3,4 L7,11 L9,16 L13,22 L12,26 L11,21 L6,19 L3,10 L0,4 Z " fill="#8383FE" transform="translate(98,101)"/>
<path d="M0,0 L5,0 L4,5 L2,7 L0,14 L-3,17 L-4,22 L-5,22 L-5,12 L0,12 L0,5 L1,2 Z " fill="#4747FE" transform="translate(365,44)"/>
<path d="M0,0 L1,0 L0,7 L-4,11 L-5,18 L-9,22 L-11,26 L-10,18 L-7,15 L-4,6 L-1,5 Z " fill="#6363FE" transform="translate(308,144)"/>
<path d="M0,0 L3,0 L4,2 L4,11 L-1,11 L-1,1 Z " fill="#2929FE" transform="translate(311,143)"/>
<path d="M0,0 L5,4 L9,14 L15,25 L17,29 L16,33 L13,26 L10,22 L7,15 L2,4 Z " fill="#8383FE" transform="translate(67,125)"/>
<path d="M0,0 L2,3 L6,10 L10,19 L10,21 L6,20 L4,12 L1,11 Z " fill="#4F4FFE" transform="translate(91,90)"/>
<path d="M0,0 L0,3 L-3,6 L-4,13 L-11,18 L-11,12 L-6,11 L-5,1 Z " fill="#F3F3FE" transform="translate(277,198)"/>
<path d="M0,0 L4,0 L5,11 L9,13 L9,21 L7,18 L3,10 L0,3 Z " fill="#5252FE" transform="translate(97,179)"/>
<path d="M0,0 L1,2 L-1,11 L-4,14 L-5,19 L-7,19 L-7,21 L-10,22 L-8,17 L-5,10 L-2,6 Z " fill="#5454FE" transform="translate(326,108)"/>
<path d="M0,0 L2,1 L1,16 L6,16 L6,21 L0,21 Z " fill="#FBFBFE" transform="translate(25,40)"/>
<path d="M0,0 L2,1 L5,8 L8,11 L12,20 L13,21 L13,27 L11,24 L8,20 L5,11 L2,8 Z " fill="#CBCBFE" transform="translate(167,329)"/>
<path d="M0,0 L4,0 L5,2 L5,10 L1,9 L0,8 Z " fill="#2828FE" transform="translate(294,177)"/>
<path d="M0,0 L6,5 L9,14 L11,18 L6,14 L4,10 L4,7 L0,7 Z " fill="#DBDBFE" transform="translate(59,115)"/>
<path d="M0,0 L4,3 L7,12 L11,16 L12,23 L10,22 L6,14 L2,6 L0,4 Z " fill="#8383FE" transform="translate(51,92)"/>
<path d="M0,0 L2,3 L2,6 L6,8 L10,18 L12,20 L11,24 L8,19 L5,14 L0,4 Z " fill="#A3A3FE" transform="translate(164,319)"/>
<path d="M0,0 L4,2 L5,5 L12,5 L10,10 L9,11 L4,11 L1,2 Z " fill="#E9E9FE" transform="translate(206,313)"/>
<path d="M0,0 L5,3 L7,11 L10,14 L11,21 L9,18 L7,14 L4,11 L1,5 Z " fill="#9B9BFE" transform="translate(111,127)"/>
<path d="M0,0 L1,4 L-3,9 L-5,18 L-10,20 L-8,16 L-5,8 L-1,3 Z " fill="#C9C9FE" transform="translate(297,198)"/>
<path d="M0,0 L3,3 L7,4 L8,15 L6,14 L6,11 L4,11 L0,4 Z " fill="#5151FF" transform="translate(149,286)"/>
<path d="M0,0 L0,3 L-3,8 L-5,15 L-8,20 L-10,22 L-9,14 L-6,11 L-4,4 Z " fill="#5454FE" transform="translate(266,253)"/>
<path d="M0,0 L0,3 L-3,8 L-5,15 L-7,16 L-9,22 L-10,22 L-10,14 L-6,11 L-3,3 Z " fill="#5151FE" transform="translate(288,209)"/>
<path d="M0,0 L4,0 L5,6 L4,10 L1,10 L0,8 Z " fill="#2828FE" transform="translate(338,89)"/>
<path d="M0,0 L3,2 L6,10 L9,15 L10,20 L8,19 L5,12 L1,9 Z " fill="#B8B8FE" transform="translate(30,52)"/>
<path d="M0,0 L2,1 L3,9 L11,10 L9,11 L9,14 L4,14 L2,12 Z " fill="#4A4AFE" transform="translate(205,319)"/>
<path d="M0,0 L1,4 L-2,9 L-4,11 L-6,18 L-10,21 L-8,17 L-5,7 L-2,3 L0,3 Z " fill="#7B7BFE" transform="translate(253,253)"/>
<path d="M0,0 L1,0 L2,10 L6,12 L3,15 L1,22 L0,22 L-1,11 Z " fill="#3636FE" transform="translate(282,198)"/>
<path d="M0,0 L2,1 L10,18 L12,20 L11,24 L8,19 L3,9 Z " fill="#8181FE" transform="translate(120,229)"/>
<path d="M0,0 L1,0 L1,8 L6,8 L2,9 L1,19 L0,19 L-1,9 L-4,7 L-2,5 Z " fill="#3636FE" transform="translate(271,223)"/>
<path d="M0,0 L4,3 L8,13 L11,20 L10,24 L6,14 L2,6 L0,4 Z " fill="#8989FE" transform="translate(95,180)"/>
<path d="M0,0 L6,0 L6,7 L4,10 L2,6 L0,5 Z " fill="#F6F6FE" transform="translate(118,133)"/>
<path d="M0,0 L1,4 L-2,9 L-5,14 L-9,19 L-8,14 L-5,9 L-3,3 Z " fill="#7C7CFE" transform="translate(365,57)"/>
<path d="M0,0 L5,5 L8,8 L19,8 L23,6 L21,10 L7,10 L0,4 Z " fill="#C5C5FE" transform="translate(186,367)"/>
<path d="M0,0 L0,3 L-3,8 L-4,13 L-9,16 L-9,13 L-6,11 L-5,1 Z " fill="#4747FE" transform="translate(255,275)"/>
<path d="M0,0 L0,3 L-2,7 L-4,14 L-7,19 L-9,22 L-8,15 L-5,9 L-3,3 Z " fill="#D0D0FE" transform="translate(271,211)"/>
<path d="M0,0 L2,2 L2,10 L-4,10 L-3,6 Z " fill="#E8E8FE" transform="translate(319,155)"/>
<path d="M0,0 L6,1 L6,12 L4,8 L0,5 Z " fill="#FCFCFE" transform="translate(112,121)"/>
<path d="M0,0 L4,1 L4,11 L1,11 L0,8 Z " fill="#2828FE" transform="translate(344,77)"/>
<path d="M0,0 L3,0 L3,10 L-1,9 L-1,1 Z " fill="#2727FE" transform="translate(224,320)"/>
<path d="M0,0 L5,4 L6,10 L10,12 L11,19 L7,14 L3,7 L0,2 Z " fill="#AFAFFE" transform="translate(138,271)"/>
<path d="M0,0 L4,3 L8,11 L11,16 L10,20 L7,15 L3,7 L0,2 Z " fill="#A7A7FE" transform="translate(155,215)"/>
<path d="M0,0 L2,3 L5,8 L8,13 L10,18 L10,21 L6,18 L3,9 L0,4 Z " fill="#CFCFFE" transform="translate(70,134)"/>
<path d="M0,0 L4,1 L4,10 L0,9 Z " fill="#2727FE" transform="translate(273,221)"/>
<path d="M0,0 L1,2 L-2,8 L-3,12 L-9,16 L-7,12 L-3,2 Z " fill="#6161FE" transform="translate(354,78)"/>
<path d="M0,0 L1,0 L1,11 L-5,12 L-4,8 L-2,6 Z " fill="#E5E5FE" transform="translate(221,351)"/>
<path d="M0,0 L6,2 L7,13 L4,10 L0,2 Z " fill="#4646FE" transform="translate(183,352)"/>
<path d="M0,0 L3,1 L4,9 L-1,8 L-1,1 Z " fill="#2727FF" transform="translate(240,287)"/>
<path d="M0,0 L1,4 L-3,12 L-6,17 L-10,22 L-9,17 L-3,7 Z " fill="#ABABFE" transform="translate(246,263)"/>
<path d="M0,0 L4,1 L4,10 L0,8 Z " fill="#2727FF" transform="translate(289,188)"/>
<path d="M0,0 L1,0 L2,9 L1,11 L-5,12 L-4,8 L-1,5 Z " fill="#EDEDFE" transform="translate(314,165)"/>
<path d="M0,0 L3,0 L4,2 L4,10 L1,10 L0,8 Z " fill="#2727FE" transform="translate(300,166)"/>
<path d="M0,0 L1,3 L-3,11 L-7,19 L-8,19 L-8,13 L-4,9 L-2,1 Z " fill="#7F7FFE" transform="translate(315,157)"/>
<path d="M0,0 L1,4 L-3,8 L-6,16 L-9,18 L-7,14 L-4,4 Z " fill="#C5C5FE" transform="translate(340,113)"/>
<path d="M0,0 L4,1 L5,2 L6,9 L10,13 L9,17 L6,12 L3,7 L0,2 Z " fill="#6262FE" transform="translate(63,115)"/>
<path d="M0,0 L3,0 L4,2 L4,10 L1,10 L0,8 Z " fill="#2727FE" transform="translate(327,111)"/>
<path d="M0,0 L3,0 L4,2 L4,10 L1,10 L0,7 Z " fill="#2727FF" transform="translate(245,276)"/>
<path d="M0,0 L3,1 L4,3 L4,10 L0,9 Z " fill="#2727FE" transform="translate(262,243)"/>
<path d="M0,0 L4,2 L4,10 L1,10 L0,8 Z " fill="#2727FF" transform="translate(333,100)"/>
<path d="M0,0 L2,0 L3,2 L3,10 L0,10 L-1,1 Z " fill="#2626FE" transform="translate(235,298)"/>
<path d="M0,0 L2,1 L1,2 L0,9 L-4,14 L-6,20 L-7,16 L-4,11 L-1,1 Z " fill="#9090FE" transform="translate(270,246)"/>
<path d="M0,0 L6,4 L6,8 L0,8 Z " fill="#FCFCFE" transform="translate(47,97)"/>
<path d="M0,0 L2,4 L2,6 L6,8 L7,17 L5,16 L2,9 L0,6 Z " fill="#C7C7FE" transform="translate(89,77)"/>
<path d="M0,0 L1,3 L5,4 L6,10 L0,9 Z " fill="#FCFCFE" transform="translate(135,271)"/>
<path d="M0,0 L1,0 L2,5 L5,7 L6,12 L0,11 Z " fill="#FCFCFE" transform="translate(124,247)"/>
<path d="M0,0 L1,0 L2,5 L5,7 L6,12 L0,11 Z " fill="#FCFCFE" transform="translate(113,225)"/>
<path d="M0,0 L3,1 L4,3 L4,10 L0,8 Z " fill="#2727FE" transform="translate(316,133)"/>
<path d="M0,0 L3,4 L5,9 L8,18 L6,17 L3,10 L0,8 Z " fill="#DBDBFE" transform="translate(37,68)"/>
<path d="M0,0 L4,2 L4,9 L0,8 Z " fill="#2626FE" transform="translate(229,309)"/>
<path d="M0,0 L2,3 L2,10 L-4,11 L-3,7 L-1,5 Z " fill="#EDEDFF" transform="translate(259,275)"/>
<path d="M0,0 L4,3 L7,11 L9,13 L8,17 L6,13 L3,11 Z " fill="#7979FE" transform="translate(161,229)"/>
<path d="M0,0 L4,3 L8,13 L8,16 L5,13 L1,5 Z " fill="#B2B2FE" transform="translate(116,225)"/>
<path d="M0,0 L1,3 L-3,8 L-5,11 L-5,1 Z " fill="#ECECFE" transform="translate(299,154)"/>
<path d="M0,0 L2,3 L2,10 L-4,11 L-3,7 L-1,5 Z " fill="#EFEFFE" transform="translate(352,89)"/>
<path d="M0,0 L6,0 L2,9 L0,9 Z " fill="#F3F3FE" transform="translate(217,308)"/>
<path d="M0,0 L6,1 L6,11 L5,7 L1,6 Z " fill="#F8F8FE" transform="translate(194,285)"/>
<path d="M0,0 L5,5 L9,15 L9,18 L5,15 L3,6 L0,4 Z " fill="#4343FE" transform="translate(185,282)"/>
<path d="M0,0 L6,1 L6,11 L4,7 L1,5 Z " fill="#F9F9FE" transform="translate(156,209)"/>
<path d="M0,0 L1,3 L5,4 L6,9 L0,8 Z " fill="#FCFCFE" transform="translate(91,184)"/>
<path d="M0,0 L5,0 L4,4 L1,11 L0,11 Z " fill="#4B4BFE" transform="translate(327,122)"/>
<path d="M0,0 L1,0 L1,6 L-2,9 L-4,13 L-5,9 Z " fill="#9393FE" transform="translate(224,340)"/>
<path d="M0,0 L4,4 L6,9 L6,16 L8,17 L5,17 L4,7 L0,6 Z " fill="#3C3CFE" transform="translate(174,260)"/>
<path d="M0,0 L5,4 L6,13 L4,12 L2,6 L0,4 Z " fill="#B4B4FE" transform="translate(166,235)"/>
<path d="M0,0 L3,2 L7,12 L9,16 L5,14 L1,5 Z " fill="#AFAFFE" transform="translate(40,72)"/>
<path d="M0,0 L4,2 L8,9 L4,8 L0,4 Z " fill="#6464FE" transform="translate(188,364)"/>
<path d="M0,0 L6,1 L6,9 L1,5 Z " fill="#FAFAFE" transform="translate(178,253)"/>
<path d="M0,0 L1,3 L-2,6 L-4,12 L-8,14 L-6,9 L-3,4 Z " fill="#4F4FFE" transform="translate(335,94)"/>
<path d="M0,0 L1,2 L6,4 L6,12 L4,8 L0,4 Z " fill="#F6F6FE" transform="translate(90,77)"/>
<path d="M0,0 L5,5 L8,12 L7,16 L5,14 L2,5 L0,4 Z " fill="#6363FE" transform="translate(197,303)"/>
<path d="M0,0 L0,3 L-3,6 L-4,12 L-5,12 L-6,3 L-4,1 Z " fill="#F4F4FE" transform="translate(228,296)"/>
<path d="M0,0 L1,2 L6,3 L6,7 L1,7 L0,6 Z " fill="#FDFDFE" transform="translate(140,284)"/>
<path d="M0,0 L1,2 L5,3 L6,7 L1,7 L0,6 Z " fill="#FDFDFE" transform="translate(129,262)"/>
<path d="M0,0 L5,4 L5,8 L0,8 Z " fill="#FDFDFE" transform="translate(80,162)"/>
<path d="M0,0 L6,0 L5,3 L2,5 L1,11 L0,11 Z " fill="#4242FE" transform="translate(321,133)"/>
<path d="M0,0 L6,0 L6,2 L4,2 L2,7 L0,8 Z " fill="#F2F2FE" transform="translate(310,122)"/>
<path d="M0,0 L5,0 L6,1 L6,7 L2,5 Z " fill="#FAFAFE" transform="translate(107,111)"/>
<path d="M0,0 L4,0 L5,2 L6,11 L9,13 L8,15 L4,13 L3,4 L2,1 Z " fill="#4141FE" transform="translate(168,321)"/>
<path d="M0,0 L3,3 L3,9 L-1,9 Z " fill="#2929FE" transform="translate(163,300)"/>
<path d="M0,0 L6,0 L1,9 L0,9 Z " fill="#F4F4FE" transform="translate(228,286)"/>
<path d="M0,0 L3,3 L3,9 L-1,9 Z " fill="#2929FE" transform="translate(152,278)"/>
<path d="M0,0 L5,2 L6,6 L1,6 L0,5 Z " fill="#FDFDFE" transform="translate(118,241)"/>
<path d="M0,0 L1,0 L1,6 L-3,10 L-5,13 L-4,6 Z " fill="#A9A9FE" transform="translate(273,209)"/>
<path d="M0,0 L5,5 L7,9 L7,12 L9,12 L9,14 L6,13 L3,6 L0,4 Z " fill="#DDDDFE" transform="translate(81,160)"/>
<path d="M0,0 L1,0 L1,9 L-5,10 L-5,7 L-1,3 Z " fill="#EEEEFE" transform="translate(325,145)"/>
<path d="M0,0 L1,0 L1,7 L-5,8 L-4,4 L0,2 Z " fill="#F3F3FE" transform="translate(364,70)"/>
<path d="M0,0 L1,3 L6,4 L5,8 L0,7 Z " fill="#FCFCFE" transform="translate(173,349)"/>
<path d="M0,0 L1,4 L-2,10 L-6,15 L-5,8 L-2,6 Z " fill="#8989FE" transform="translate(241,305)"/>
<path d="M0,0 L4,3 L9,13 L8,15 L4,10 L1,3 Z " fill="#8484FE" transform="translate(111,213)"/>
<path d="M0,0 L1,0 L1,8 L-5,9 L-3,5 Z " fill="#F5F5FE" transform="translate(331,135)"/>
<path d="M0,0 L3,1 L3,7 L-1,7 Z " fill="#2929FE" transform="translate(185,346)"/>
<path d="M0,0 L1,3 L5,4 L6,9 L0,7 Z " fill="#FCFCFE" transform="translate(168,338)"/>
<path d="M0,0 L6,3 L6,6 L1,6 L0,5 Z " fill="#FEFEFE" transform="translate(107,219)"/>
<path d="M0,0 L5,0 L6,11 L4,10 L1,2 Z " fill="#E3E3FE" transform="translate(151,203)"/>
<path d="M0,0 L4,2 L7,11 L9,12 L8,14 L5,12 L3,4 L0,3 Z " fill="#3D3DFE" transform="translate(141,197)"/>
<path d="M0,0 L6,3 L6,6 L1,6 L0,5 Z " fill="#FEFEFE" transform="translate(96,197)"/>
<path d="M0,0 L1,0 L1,9 L-5,9 Z " fill="#F3F3FE" transform="translate(309,178)"/>
<path d="M0,0 L5,0 L1,11 L0,11 Z " fill="#EEEEFE" transform="translate(316,111)"/>
<path d="M0,0 L5,2 L6,7 L0,6 Z " fill="#FDFDFE" transform="translate(53,110)"/>
<path d="M0,0 L3,1 L3,7 L-1,6 Z " fill="#2929FE" transform="translate(174,324)"/>
<path d="M0,0 L0,3 L-3,5 L-4,11 L-5,11 L-5,1 Z " fill="#F4F4FE" transform="translate(255,242)"/>
<path d="M0,0 L6,0 L6,6 L4,7 L3,4 L0,1 Z " fill="#FCFCFE" transform="translate(140,177)"/>
<path d="M0,0 L6,0 L6,7 L1,3 Z " fill="#FDFDFE" transform="translate(129,155)"/>
<path d="M0,0 L3,2 L6,12 L4,12 L0,4 Z " fill="#7777FE" transform="translate(117,140)"/>
<path d="M0,0 L2,1 L3,9 L7,11 L6,13 L2,12 Z " fill="#4B4BFE" transform="translate(101,111)"/>
<path d="M0,0 L0,3 L-3,6 L-4,12 L-5,12 L-5,1 Z " fill="#EDEDFE" transform="translate(332,88)"/>
<path d="M0,0 L5,0 L6,1 L6,8 L5,5 L1,4 Z " fill="#FBFBFE" transform="translate(96,89)"/>
<path d="M0,0 L2,1 L-1,5 L-10,5 L-11,3 L-4,4 L-4,2 L0,2 Z " fill="#4848FE" transform="translate(206,368)"/>
<path d="M0,0 L1,0 L1,7 L-5,7 Z " fill="#F3F3FE" transform="translate(227,344)"/>
<path d="M0,0 L2,3 L2,6 L6,7 L6,13 L2,8 L0,5 Z " fill="#4B4BFE" transform="translate(177,338)"/>
<path d="M0,0 L4,1 L4,6 L0,6 Z " fill="#2929FF" transform="translate(180,279)"/>
<path d="M0,0 L3,0 L4,6 L1,7 L0,6 Z " fill="#2929FE" transform="translate(175,268)"/>
<path d="M0,0 L4,1 L4,5 L-1,5 Z " fill="#2929FE" transform="translate(141,260)"/>
<path d="M0,0 L4,1 L4,6 L0,6 Z " fill="#2929FE" transform="translate(169,257)"/>
<path d="M0,0 L1,2 L-4,11 L-5,9 L-3,2 Z " fill="#D1D1FE" transform="translate(255,244)"/>
<path d="M0,0 L6,2 L6,5 L1,5 Z " fill="#FEFEFE" transform="translate(85,176)"/>
<path d="M0,0 L5,0 L3,4 L2,7 L0,7 Z " fill="#F5F5FE" transform="translate(288,166)"/>
<path d="M0,0 L6,0 L3,5 L1,5 L0,8 Z " fill="#F3F3FE" transform="translate(321,100)"/>
<path d="M0,0 L4,1 L2,3 L1,7 L-2,6 L-1,1 Z " fill="#5151FE" transform="translate(85,73)"/>
<path d="M0,0 L3,1 L4,6 L-2,5 L-1,1 Z " fill="#FEFEFE" transform="translate(33,67)"/>
<path d="M0,0 L2,4 L2,9 L-1,9 L-1,1 Z " fill="#2929FE" transform="translate(180,333)"/>
<path d="M0,0 L1,0 L1,7 L-5,10 L-7,10 L-7,8 L-2,5 L0,5 Z " fill="#4545FE" transform="translate(221,322)"/>
<path d="M0,0 L1,0 L1,7 L-5,8 L-3,4 L-1,4 Z " fill="#F4F4FE" transform="translate(249,300)"/>
<path d="M0,0 L4,4 L5,11 L3,10 L0,4 Z " fill="#B1B1FE" transform="translate(149,290)"/>
<path d="M0,0 L4,1 L3,6 L0,6 Z " fill="#2929FF" transform="translate(186,290)"/>
<path d="M0,0 L5,5 L7,13 L5,12 L3,6 L0,4 Z " fill="#7E7EFE" transform="translate(170,247)"/>
<path d="M0,0 L5,3 L6,11 L3,8 L1,3 Z " fill="#5353FE" transform="translate(129,245)"/>
<path d="M0,0 L5,0 L5,9 L3,5 L2,2 L0,2 Z " fill="#3C3CFE" transform="translate(113,211)"/>
<path d="M0,0 L3,0 L3,7 L0,7 Z " fill="#2929FE" transform="translate(126,169)"/>
<path d="M0,0 L5,1 L6,6 L0,4 Z " fill="#FDFDFE" transform="translate(75,155)"/>
<path d="M0,0 L6,1 L6,9 L5,9 L5,4 L1,4 Z " fill="#FCFCFE" transform="translate(123,143)"/>
<path d="M0,0 L3,3 L5,7 L4,11 L1,7 Z " fill="#B4B4FE" transform="translate(58,108)"/>
<path d="M0,0 L3,4 L5,7 L4,11 L0,6 Z " fill="#8989FE" transform="translate(93,90)"/>
<path d="M0,0 L2,4 L5,9 L4,13 L0,6 Z " fill="#7575FE" transform="translate(29,44)"/>
<path d="M0,0 L3,0 L3,7 L0,7 Z " fill="#2929FE" transform="translate(197,311)"/>
<path d="M0,0 L4,1 L3,6 L0,6 Z " fill="#2929FE" transform="translate(191,301)"/>
<path d="M0,0 L1,0 L1,10 L-4,10 L-1,5 Z " fill="#F1F1FE" transform="translate(254,286)"/>
<path d="M0,0 L1,0 L1,10 L-4,10 L-1,5 Z " fill="#F2F2FE" transform="translate(265,264)"/>
<path d="M0,0 L2,3 L2,9 L-3,9 L-1,6 Z " fill="#F3F3FE" transform="translate(270,254)"/>
<path d="M0,0 L1,2 L-3,11 L-4,11 L-4,4 Z " fill="#D8D8FE" transform="translate(260,233)"/>
<path d="M0,0 L4,0 L5,9 L2,6 Z " fill="#5656FE" transform="translate(124,235)"/>
<path d="M0,0 L0,3 L-3,4 L-4,7 L-5,7 L-5,1 Z " fill="#F8F8FE" transform="translate(260,231)"/>
<path d="M0,0 L5,0 L6,1 L6,6 L5,4 L1,3 Z " fill="#FDFDFE" transform="translate(151,199)"/>
<path d="M0,0 L1,0 L1,10 L-4,10 L-1,5 Z " fill="#3E3EFE" transform="translate(287,188)"/>
<path d="M0,0 L2,2 L5,7 L6,12 L1,7 L0,6 Z " fill="#BBBBFE" transform="translate(132,165)"/>
<path d="M0,0 L3,1 L3,7 L0,7 Z " fill="#2929FE" transform="translate(115,147)"/>
<path d="M0,0 L2,3 L2,5 L4,5 L5,9 L0,8 Z " fill="#3F3FFE" transform="translate(113,137)"/>
<path d="M0,0 L4,5 L6,7 L5,11 L4,8 L0,6 Z " fill="#EFEFFE" transform="translate(64,126)"/>
<path d="M0,0 L4,5 L6,6 L5,10 L4,8 L0,6 Z " fill="#EEEEFF" transform="translate(53,104)"/>
<path d="M0,0 L2,0 L3,8 L0,8 Z " fill="#2828FF" transform="translate(64,104)"/>
<path d="M0,0 L6,1 L6,6 L1,5 Z " fill="#FBFBFE" transform="translate(101,99)"/>
<path d="M0,0 L2,0 L3,8 L0,8 Z " fill="#2828FE" transform="translate(53,82)"/>
<path d="M0,0 L2,0 L3,8 L0,8 Z " fill="#2828FE" transform="translate(42,60)"/>
<path d="M0,0 L5,0 L6,11 L4,10 L2,1 Z " fill="#4141FE" transform="translate(36,58)"/>
<path d="M0,0 L2,3 L2,8 L-1,8 L-1,1 Z " fill="#2828FE" transform="translate(191,356)"/>
<path d="M0,0 L1,0 L1,8 L-5,12 L-3,8 L-1,5 Z " fill="#4B4BFE" transform="translate(232,297)"/>
<path d="M0,0 L5,0 L6,5 L0,4 Z " fill="#FDFDFE" transform="translate(146,298)"/>
<path d="M0,0 L0,3 L-5,7 L-5,1 Z " fill="#F8F8FE" transform="translate(249,253)"/>
<path d="M0,0 L3,0 L3,7 L0,6 Z " fill="#2929FE" transform="translate(164,246)"/>
<path d="M0,0 L3,2 L5,10 L2,8 L0,4 Z " fill="#B2B2FE" transform="translate(90,172)"/>
<path d="M0,0 L2,0 L3,8 L0,8 Z " fill="#2828FE" transform="translate(86,147)"/>
<path d="M0,0 L3,1 L3,7 L0,7 Z " fill="#2929FF" transform="translate(93,103)"/>
<path d="M0,0 L1,3 L-4,9 L-5,9 L-5,4 L0,2 Z " fill="#F3F3FE" transform="translate(337,77)"/>
<path d="M0,0 L4,0 L4,5 L0,5 Z " fill="#2828FE" transform="translate(47,74)"/>
<path d="M0,0 L0,3 L-2,5 L-3,11 L-4,11 L-4,2 Z " fill="#5353FE" transform="translate(359,67)"/>
<path d="M0,0 L1,0 L0,11 L-4,10 L-2,8 Z " fill="#3A3AFF" transform="translate(244,275)"/>
<path d="M0,0 L3,0 L3,5 L-1,5 Z " fill="#2828FE" transform="translate(130,238)"/>
<path d="M0,0 L4,0 L6,11 L4,10 L1,2 Z " fill="#E8E8FE" transform="translate(168,236)"/>
<path d="M0,0 L2,1 L3,8 L0,8 Z " fill="#2828FE" transform="translate(119,213)"/>
<path d="M0,0 L1,0 L1,6 L-1,7 L-4,6 L-4,4 Z " fill="#F7F7FE" transform="translate(293,213)"/>
<path d="M0,0 L5,0 L1,7 L0,7 Z " fill="#F8F8FE" transform="translate(277,188)"/>
<path d="M0,0 L4,1 L4,5 L0,5 Z " fill="#2828FE" transform="translate(102,183)"/>
<path d="M0,0 L4,1 L5,10 L3,7 L0,2 Z " fill="#7676FE" transform="translate(90,170)"/>
<path d="M0,0 L5,3 L6,10 L4,6 L0,3 Z " fill="#EEEEFE" transform="translate(112,123)"/>
<path d="M0,0 L4,4 L5,8 L0,7 Z " fill="#F0F0FE" transform="translate(42,82)"/>
<path d="M0,0 L1,0 L1,10 L-4,10 L-2,7 L0,7 Z " fill="#F5F5FE" transform="translate(358,78)"/>
<path d="M0,0 L1,0 L3,6 L4,9 L0,9 Z " fill="#3F3FFE" transform="translate(201,312)"/>
<path d="M0,0 L3,3 L5,7 L4,11 L0,4 Z " fill="#7373FE" transform="translate(149,286)"/>
<path d="M0,0 L3,1 L5,7 L4,11 L0,2 Z " fill="#8989FE" transform="translate(177,260)"/>
<path d="M0,0 L3,2 L4,9 L2,8 L0,4 Z " fill="#9191FE" transform="translate(134,172)"/>
<path d="M0,0 L2,0 L2,5 L-3,5 L-2,2 L0,2 Z " fill="#3D3DFE" transform="translate(319,127)"/>
<path d="M0,0 L3,0 L3,6 L0,6 Z " fill="#2929FE" transform="translate(104,126)"/>
<path d="M0,0 L3,0 L3,6 L0,6 Z " fill="#2929FE" transform="translate(82,82)"/>
<path d="M0,0 L4,1 L5,6 L0,2 Z " fill="#6767FE" transform="translate(172,334)"/>
<path d="M0,0 L7,1 L5,2 L5,4 L0,3 Z " fill="#5A5AFE" transform="translate(209,328)"/>
<path d="M0,0 L3,1 L3,6 L0,6 Z " fill="#2727FE" transform="translate(168,314)"/>
<path d="M0,0 L4,0 L5,5 L0,3 Z " fill="#FCFCFE" transform="translate(185,265)"/>
<path d="M0,0 L4,5 L4,8 L0,6 Z " fill="#F0F0FE" transform="translate(108,214)"/>
<path d="M0,0 L4,5 L4,8 L0,6 Z " fill="#F0F0FE" transform="translate(97,192)"/>
<path d="M0,0 L5,0 L1,7 L0,7 Z " fill="#F9F9FE" transform="translate(299,144)"/>
<path d="M0,0 L2,0 L2,6 L-1,6 L-1,1 Z " fill="#2929FE" transform="translate(110,137)"/>
<path d="M0,0 L1,0 L1,8 L-5,9 L-5,7 L-1,5 Z " fill="#F9F9FE" transform="translate(342,113)"/>
<path d="M0,0 L1,0 L1,5 L-4,5 L-3,2 Z " fill="#3C3CFE" transform="translate(331,105)"/>
<path d="M0,0 L2,3 L2,8 L-1,8 Z " fill="#2828FE" transform="translate(59,92)"/>
<path d="M0,0 L4,0 L4,3 L0,3 Z " fill="#FEFEFE" transform="translate(212,304)"/>
<path d="M0,0 L3,0 L3,3 L0,2 Z " fill="#FEFEFF" transform="translate(104,226)"/>
<path d="M0,0 L3,1 L2,3 L0,3 Z " fill="#FEFEFE" transform="translate(212,379)"/>
<path d="M0,0 L3,0 L2,3 L0,2 Z " fill="#FEFEFF" transform="translate(217,374)"/>
<path d="M0,0 L2,0 L2,3 L-1,2 Z " fill="#FEFEFE" transform="translate(176,368)"/>
<path d="M0,0 L3,1 L2,3 L0,3 Z " fill="#FFFFFE" transform="translate(223,363)"/>
<path d="M0,0 L3,0 L2,3 L0,2 Z " fill="#FFFFFF" transform="translate(228,352)"/>
<path d="M0,0 L3,1 L2,3 L0,3 Z " fill="#FFFFFF" transform="translate(234,341)"/>
<path d="M0,0 L3,0 L2,3 L0,2 Z " fill="#FFFFFF" transform="translate(239,330)"/>
<path d="M0,0 L3,1 L2,3 L0,3 Z " fill="#FFFFFE" transform="translate(245,319)"/>
<path d="M0,0 L2,0 L2,3 L-1,2 Z " fill="#FFFFFE" transform="translate(251,308)"/>
<path d="M0,0 L3,1 L2,3 L0,3 Z " fill="#FFFFFF" transform="translate(256,297)"/>
<path d="M0,0 L3,0 L2,3 L0,2 Z " fill="#FEFEFF" transform="translate(137,292)"/>
<path d="M0,0 L2,1 L2,3 L-1,3 Z " fill="#FFFFFE" transform="translate(262,286)"/>
<path d="M0,0 L3,0 L2,3 L0,2 Z " fill="#FEFEFE" transform="translate(126,270)"/>
<path d="M0,0 L2,1 L2,3 L-1,3 Z " fill="#FEFEFF" transform="translate(273,264)"/>
<path d="M0,0 L3,0 L2,3 L0,2 Z " fill="#FEFEFF" transform="translate(241,250)"/>
<path d="M0,0 L3,0 L2,3 L0,2 Z " fill="#FEFEFE" transform="translate(115,248)"/>
<path d="M0,0 L3,0 L2,3 L0,2 Z " fill="#FEFEFE" transform="translate(252,228)"/>
<path d="M0,0 L3,1 L2,3 L0,3 Z " fill="#FEFEFE" transform="translate(168,217)"/>
<path d="M0,0 L3,0 L2,3 L0,2 Z " fill="#FEFEFF" transform="translate(263,206)"/>
<path d="M0,0 L2,0 L2,3 L-1,2 Z " fill="#FEFEFF" transform="translate(94,204)"/>
<path d="M0,0 L3,1 L2,3 L0,3 Z " fill="#FEFEFF" transform="translate(157,195)"/>
<path d="M0,0 L2,1 L2,3 L-1,3 Z " fill="#FEFEFE" transform="translate(275,184)"/>
<path d="M0,0 L2,0 L2,3 L-1,2 Z " fill="#FEFEFE" transform="translate(83,182)"/>
<path d="M0,0 L3,0 L2,3 L0,2 Z " fill="#FEFEFE" transform="translate(316,177)"/>
<path d="M0,0 L2,1 L2,3 L-1,3 Z " fill="#FEFEFE" transform="translate(147,173)"/>
<path d="M0,0 L2,0 L2,3 L-1,2 Z " fill="#FEFEFE" transform="translate(280,173)"/>
<path d="M0,0 L2,1 L2,3 L-1,3 Z " fill="#FEFEFE" transform="translate(286,162)"/>
<path d="M0,0 L3,0 L2,3 L0,2 Z " fill="#FEFEFE" transform="translate(327,155)"/>
<path d="M0,0 L2,1 L2,3 L-1,3 Z " fill="#FEFEFE" transform="translate(136,151)"/>
<path d="M0,0 L2,0 L2,3 L-1,2 Z " fill="#FEFEFE" transform="translate(291,151)"/>
<path d="M0,0 L2,1 L2,3 L-1,3 Z " fill="#FEFEFE" transform="translate(297,140)"/>
<path d="M0,0 L3,1 L2,3 L0,3 Z " fill="#FEFEFE" transform="translate(338,133)"/>
<path d="M0,0 L2,1 L2,3 L-1,3 Z " fill="#FEFEFE" transform="translate(125,129)"/>
<path d="M0,0 L2,0 L2,3 L-1,2 Z " fill="#FEFEFE" transform="translate(302,129)"/>
<path d="M0,0 L2,0 L2,3 L-1,2 Z " fill="#FEFEFF" transform="translate(344,122)"/>
<path d="M0,0 L2,1 L2,3 L-1,3 Z " fill="#FEFEFE" transform="translate(308,118)"/>
<path d="M0,0 L3,1 L2,3 L0,3 Z " fill="#FEFEFF" transform="translate(349,111)"/>
<path d="M0,0 L2,1 L2,3 L-1,3 Z " fill="#FEFEFE" transform="translate(114,107)"/>
<path d="M0,0 L2,0 L2,3 L-1,2 Z " fill="#FEFEFF" transform="translate(355,100)"/>
<path d="M0,0 L3,1 L2,3 L0,3 Z " fill="#FEFEFE" transform="translate(360,89)"/>
<path d="M0,0 L3,0 L2,3 L0,2 Z " fill="#FEFEFE" transform="translate(33,84)"/>
<path d="M0,0 L3,1 L2,3 L0,3 Z " fill="#FEFEFE" transform="translate(371,67)"/>
<path d="M0,0 L3,0 L2,3 L0,2 Z " fill="#FEFEFE" transform="translate(22,62)"/>
<path d="M0,0 L2,1 L2,3 L-1,3 Z " fill="#FEFEFE" transform="translate(377,56)"/>
<path d="M0,0 L2,1 L2,3 L-1,3 Z " fill="#FEFEFE" transform="translate(377,36)"/>
<path d="M0,0 L2,1 L2,3 L-1,3 Z " fill="#FEFEFE" transform="translate(23,36)"/>
<path d="M0,0 L3,1 L2,3 L0,3 Z " fill="#FFFFFE" transform="translate(371,31)"/>
<path d="M0,0 L2,0 L2,3 L-1,2 Z " fill="#FFFFFE" transform="translate(28,31)"/>
<path d="M0,0 L2,2 L-1,3 Z " fill="#FEFEFE" transform="translate(182,379)"/>
<path d="M0,0 L2,2 L-1,3 Z " fill="#FEFEFF" transform="translate(171,357)"/>
<path d="M0,0 L3,0 L3,2 L0,2 Z " fill="#FEFEFE" transform="translate(159,336)"/>
<path d="M0,0 L3,0 L3,2 L0,2 Z " fill="#FEFEFE" transform="translate(148,314)"/>
<path d="M0,0 L3,0 L3,2 L0,2 Z " fill="#FEFEFF" transform="translate(219,294)"/>
<path d="M0,0 L3,0 L3,2 L0,2 Z " fill="#FEFEFF" transform="translate(201,283)"/>
<path d="M0,0 L2,0 L2,3 L0,3 Z " fill="#FFFFFE" transform="translate(267,275)"/>
<path d="M0,0 L3,0 L3,2 L0,2 Z " fill="#FEFEFE" transform="translate(230,272)"/>
<path d="M0,0 L3,0 L3,2 L0,2 Z " fill="#FEFEFE" transform="translate(190,261)"/>
<path d="M0,0 L2,0 L2,3 L0,3 Z " fill="#FEFEFE" transform="translate(121,259)"/>
<path d="M0,0 L3,0 L3,2 L0,2 Z " fill="#FEFEFE" transform="translate(283,243)"/>
<path d="M0,0 L3,1 L1,3 Z " fill="#FEFEFE" transform="translate(179,239)"/>
<path d="M0,0 L2,0 L2,3 L0,3 Z " fill="#FEFEFF" transform="translate(110,237)"/>
<path d="M0,0 L2,0 L2,3 L0,3 Z " fill="#FEFEFF" transform="translate(174,228)"/>
<path d="M0,0 L3,0 L3,2 L0,2 Z " fill="#FEFEFF" transform="translate(294,221)"/>
<path d="M0,0 L2,0 L2,3 L0,3 Z " fill="#FEFEFE" transform="translate(258,217)"/>
<path d="M0,0 L2,0 L2,3 L0,3 Z " fill="#FEFEFE" transform="translate(99,215)"/>
<path d="M0,0 L2,0 L2,3 L0,3 Z " fill="#FEFEFF" transform="translate(163,206)"/>
<path d="M0,0 L3,0 L3,2 L0,2 Z " fill="#FEFEFE" transform="translate(305,199)"/>
<path d="M0,0 L2,0 L2,3 L0,3 Z " fill="#FEFEFF" transform="translate(269,195)"/>
<path d="M0,0 L2,0 L2,3 L0,3 Z " fill="#FEFEFF" transform="translate(88,193)"/>
<path d="M0,0 L2,0 L2,3 L0,3 Z " fill="#FEFEFE" transform="translate(152,184)"/>
<path d="M0,0 L2,0 L2,3 L0,3 Z " fill="#FEFEFF" transform="translate(141,162)"/>
<path d="M0,0 L2,1 L2,3 L-1,2 Z " fill="#FEFEFE" transform="translate(72,160)"/>
<path d="M0,0 L2,2 L-1,3 Z " fill="#FEFEFF" transform="translate(67,149)"/>
<path d="M0,0 L2,0 L2,3 L0,3 Z " fill="#FEFEFE" transform="translate(130,140)"/>
<path d="M0,0 L3,0 L3,2 L0,2 Z " fill="#FFFFFF" transform="translate(312,108)"/>
<path d="M0,0 L3,0 L3,2 L0,2 Z " fill="#FEFEFF" transform="translate(44,106)"/>
<path d="M0,0 L3,0 L3,2 L0,2 Z " fill="#FFFFFE" transform="translate(323,86)"/>
<path d="M0,0 L3,0 L3,2 L0,2 Z " fill="#FEFEFE" transform="translate(102,86)"/>
<path d="M0,0 L2,1 L2,3 L-1,2 Z " fill="#FEFEFF" transform="translate(366,78)"/>
<path d="M0,0 L3,0 L3,2 L0,1 Z " fill="#FEFEFE" transform="translate(164,347)"/>
<path d="M0,0 L3,0 L3,2 L0,1 Z " fill="#FEFEFF" transform="translate(153,325)"/>
<path d="M0,0 L2,0 L2,2 L-1,1 Z " fill="#FEFEFF" transform="translate(207,294)"/>
<path d="M0,0 L2,0 L1,3 Z " fill="#FEFEFE" transform="translate(132,281)"/>
<path d="M0,0 L2,1 L2,3 L0,3 Z " fill="#FEFEFE" transform="translate(278,253)"/>
<path d="M0,0 L2,0 L1,3 Z " fill="#FEFEFF" transform="translate(185,250)"/>
<path d="M0,0 L2,0 L1,3 Z " fill="#FEFEFE" transform="translate(247,239)"/>
<path d="M0,0 L2,0 L1,3 Z " fill="#FEFEFF" transform="translate(311,188)"/>
<path d="M0,0 L1,3 L-1,3 Z " fill="#FEFEFE" transform="translate(78,171)"/>
<path d="M0,0 L2,0 L1,3 Z " fill="#FEFEFE" transform="translate(322,166)"/>
<path d="M0,0 L2,0 L1,3 Z " fill="#FEFEFE" transform="translate(333,144)"/>
<path d="M0,0 L3,0 L3,2 L0,1 Z " fill="#FEFEFE" transform="translate(60,139)"/>
<path d="M0,0 L3,1 L0,2 Z " fill="#FEFEFE" transform="translate(55,128)"/>
<path d="M0,0 L3,0 L3,2 L0,1 Z " fill="#FEFEFF" transform="translate(49,117)"/>
<path d="M0,0 L3,1 L0,2 Z " fill="#FFFFFE" transform="translate(318,97)"/>
<path d="M0,0 L3,1 L0,2 Z " fill="#FEFEFE" transform="translate(108,97)"/>
<path d="M0,0 L3,0 L3,2 L0,1 Z " fill="#FEFEFE" transform="translate(38,95)"/>
<path d="M0,0 L2,0 L1,3 Z " fill="#FEFEFF" transform="translate(28,73)"/>
<path d="M0,0 L2,0 L2,2 L0,2 Z " fill="#FEFEFE" transform="translate(143,303)"/>
<path d="M0,0 L2,0 L2,2 L0,2 Z " fill="#FEFEFF" transform="translate(225,283)"/>
<path d="M0,0 L2,0 L2,2 L0,2 Z " fill="#FEFEFE" transform="translate(196,272)"/>
<path d="M0,0 L2,0 L2,2 L0,2 Z " fill="#FEFEFE" transform="translate(236,261)"/>
<path d="M0,0 L2,0 L2,2 L0,2 Z " fill="#FEFEFF" transform="translate(289,232)"/>
<path d="M0,0 L2,0 L2,2 L0,2 Z " fill="#FEFEFE" transform="translate(300,210)"/>
<path d="M0,0 L2,0 L2,2 L0,2 Z " fill="#FEFEFE" transform="translate(119,119)"/>
</svg>
