<?xml version="1.0" encoding="UTF-8"?>
<!-- Generator: visioncortex VTracer 0.6.4 -->
<svg version="1.1" xmlns="http://www.w3.org/2000/svg" width="200" height="200">
<path d="M0 0 C66 0 132 0 200 0 C200 66 200 132 200 200 C134 200 68 200 0 200 C0 134 0 68 0 0 Z " fill="#1A1B1B" transform="translate(0,0)"/>
<path d="M0 0 C2.98 3.64 5.74 7.4 8.44 11.25 C11.83 16.05 15.33 20.75 18.94 25.39 C40.51 53.14 40.51 53.14 41 70 C41.06 70.97 41.12 71.95 41.19 72.95 C41.7 86.43 37.17 97.95 28.19 108.03 C16.74 118.89 4.2 120.49 -10.8 120.27 C-23.34 119.82 -31.7 113.64 -40.19 104.88 C-49.66 93.84 -52.03 81.14 -51 67 C-48.37 52.95 -40.68 40.6 -31.86 29.61 C-28.32 25.19 -24.98 20.62 -21.62 16.06 C-21.03 15.26 -20.43 14.45 -19.82 13.62 C-17.35 10.27 -14.92 6.92 -12.65 3.43 C-11.83 2.23 -11.83 2.23 -11 1 C-10.67 1 -10.34 1 -10 1 C-8.48 13.39 -10.36 20.58 -18.05 30.43 C-19.03 31.62 -20.01 32.81 -21 34 C-21.74 34.9 -22.47 35.8 -23.23 36.73 C-24.52 38.3 -25.8 39.87 -27.09 41.45 C-36.93 54.58 -41.44 67.55 -40 84 C-38.1 93.38 -31.87 100.26 -24.45 105.96 C-15.55 111.32 -5.07 111.58 5 110 C13.3 107.32 20.78 102.74 25.19 95.06 C25.68 94.23 26.16 93.39 26.67 92.54 C29.64 86.87 30.36 82.58 30.31 76.25 C30.31 75.44 30.3 74.64 30.3 73.8 C30.18 68.03 29.54 63.24 27 58 C26.52 56.86 26.52 56.86 26.04 55.7 C23.75 50.61 20.86 46.34 17.44 41.94 C17.02 41.4 16.6 40.86 16.17 40.3 C14.27 37.85 12.36 35.43 10.37 33.05 C2.2 23.24 -1.54 16.3 -0.42 3.34 C-0.28 2.24 -0.14 1.14 0 0 Z " fill="#00C0DB" transform="translate(105,40)"/>
</svg>
