<?xml version="1.0" encoding="UTF-8"?>
<!-- Generator: visioncortex VTracer 0.6.5 -->
<svg version="1.1" xmlns="http://www.w3.org/2000/svg" width="568" height="568">
<path d="M0,0 L20,0 L41,2 L62,7 L78,15 L87,22 L93,31 L96,38 L97,43 L97,55 L93,71 L83,90 L74,102 L62,116 L49,129 L41,136 L25,149 L18,154 L12,178 L6,196 L-3,216 L-12,231 L-24,247 L-35,259 L-46,269 L-60,279 L-81,290 L-102,297 L-116,300 L-124,301 L-157,301 L-176,298 L-197,292 L-216,284 L-237,273 L-244,268 L-280,273 L-291,274 L-338,274 L-358,271 L-375,266 L-390,258 L-400,248 L-405,238 L-405,235 L-382,234 L-359,231 L-330,225 L-298,216 L-258,203 L-219,188 L-189,175 L-151,156 L-127,142 L-100,124 L-88,115 L-77,106 L-64,94 L-55,84 L-46,70 L-43,63 L-43,53 L-48,47 L-58,43 L-77,40 L-103,40 L-133,43 L-168,49 L-178,50 L-174,47 L-142,33 L-109,21 L-74,11 L-45,5 L-25,2 Z " fill="#1EBAC5" transform="translate(453,210)"/>
<path d="M0,0 L32,0 L51,3 L72,9 L92,17 L109,26 L118,25 L148,20 L167,18 L184,17 L203,17 L225,19 L244,23 L257,28 L269,35 L276,42 L282,52 L283,58 L259,58 L236,61 L208,67 L182,74 L144,86 L106,100 L71,115 L42,129 L16,143 L-10,159 L-28,172 L-42,183 L-54,194 L-59,199 L-66,206 L-75,219 L-79,227 L-80,231 L-80,238 L-76,244 L-65,249 L-55,251 L-45,252 L-20,252 L10,249 L45,243 L55,242 L51,245 L29,255 L-2,267 L-30,276 L-62,284 L-90,289 L-121,292 L-144,292 L-164,290 L-185,285 L-201,277 L-209,271 L-216,261 L-219,253 L-220,240 L-218,228 L-212,213 L-203,198 L-194,187 L-185,177 L-166,158 L-155,149 L-140,137 L-135,118 L-128,99 L-120,83 L-112,69 L-103,57 L-94,47 L-81,34 L-66,23 L-48,13 L-29,6 L-8,1 Z " fill="#F86331" transform="translate(239,66)"/>
<path d="M0,0 L1,3 L-4,24 L-10,42 L-19,62 L-28,77 L-40,93 L-51,105 L-62,115 L-76,125 L-97,136 L-118,143 L-132,146 L-140,147 L-173,147 L-192,144 L-213,138 L-232,130 L-253,119 L-260,114 L-260,112 L-223,104 L-195,96 L-155,82 L-130,72 L-101,59 L-76,47 L-52,34 L-24,17 L-4,3 Z " fill="#1BA4B0" transform="translate(469,364)"/>
<path d="M0,0 L32,0 L51,3 L72,9 L92,17 L109,26 L109,28 L94,32 L64,40 L39,48 L5,60 L-30,75 L-55,87 L-79,99 L-106,115 L-127,129 L-137,136 L-139,136 L-138,128 L-129,101 L-121,84 L-110,66 L-99,52 L-81,34 L-66,23 L-48,13 L-29,6 L-8,1 Z " fill="#FE8032" transform="translate(239,66)"/>
<path d="M0,0 L3,1 L-2,6 L-9,10 L-25,23 L-30,27 L-39,33 L-45,39 L-52,43 L-58,49 L-65,53 L-71,59 L-76,62 L-85,71 L-92,70 L-111,62 L-132,51 L-139,46 L-139,44 L-102,36 L-74,28 L-34,14 L-9,4 Z M-31,27 Z M-32,28 Z M-33,29 Z " fill="#15778D" transform="translate(348,432)"/>
<path d="M0,0 L3,1 L-2,6 L-9,10 L-25,23 L-30,27 L-39,33 L-45,39 L-52,43 L-58,49 L-65,53 L-71,59 L-76,62 L-85,71 L-92,70 L-94,68 L-87,62 L-80,58 L-74,53 L-72,53 L-70,49 L-59,39 L-54,36 L-41,24 L-35,20 L-33,16 L-34,14 L-9,4 Z M-31,27 Z M-32,28 Z M-33,29 Z " fill="#178498" transform="translate(348,432)"/>
</svg>
