<?xml version="1.0" encoding="UTF-8"?>
<!-- Generator: visioncortex VTracer 0.6.4 -->
<svg version="1.1" xmlns="http://www.w3.org/2000/svg" width="152" height="152">
<path d="M0 0 C3.99 3.45 6.16 7.66 7.38 12.73 C7.44 13.93 7.51 15.13 7.57 16.36 C7.62 17.12 7.67 17.88 7.72 18.67 C7.96 24.8 7.41 30.83 4.57 36.36 C3.57 37.14 2.56 37.93 1.53 38.74 C-1.45 41.68 -1.9 43.85 -2.11 48 C-2.11 50.25 -2.08 52.5 -2.02 54.76 C-2.01 55.95 -2 57.14 -1.99 58.36 C-1.96 62.16 -1.88 65.94 -1.8 69.73 C-1.77 72.31 -1.75 74.88 -1.72 77.46 C-1.66 83.76 -1.56 90.06 -1.43 96.36 C2.61 94.14 6.65 91.91 10.69 89.69 C12.06 88.93 13.43 88.18 14.8 87.42 C16.78 86.33 18.76 85.24 20.74 84.15 C21.35 83.82 21.96 83.48 22.58 83.14 C25.22 81.69 27.81 80.21 30.37 78.62 C32.57 77.36 32.57 77.36 34.57 77.36 C34.55 72.32 34.5 67.29 34.42 62.25 C34.39 60.54 34.38 58.83 34.37 57.12 C34.37 54.65 34.32 52.19 34.28 49.72 C34.28 48.96 34.29 48.2 34.29 47.41 C34.18 43.4 33.8 41.63 31.14 38.55 C30.29 37.83 29.44 37.1 28.57 36.36 C24.4 28.59 24.39 19.36 26.07 10.79 C27.92 5.25 31.34 2.09 35.82 -1.39 C41.25 -3.86 46.5 -4.21 52.26 -2.64 C57.83 -0.52 60.97 3.34 63.71 8.5 C64.94 12.57 64.94 16.44 64.95 20.67 C64.98 21.9 64.98 21.9 65.02 23.15 C65.05 30.29 63.07 35.42 58.45 40.86 C56.57 42.36 56.57 42.36 54.57 42.36 C54.9 59.85 55.23 77.34 55.57 95.36 C62.04 91.77 62.04 91.77 68.63 88.11 C69.98 87.36 71.32 86.62 72.71 85.85 C73.79 85.25 74.87 84.65 75.98 84.03 C77.71 83.07 77.71 83.07 79.47 82.1 C81.94 80.71 84.38 79.31 86.82 77.88 C89.57 76.36 89.57 76.36 91.57 76.36 C91.55 71.47 91.5 66.57 91.42 61.68 C91.39 60.02 91.38 58.35 91.37 56.69 C91.37 54.29 91.32 51.9 91.28 49.5 C91.28 48.76 91.29 48.02 91.29 47.26 C91.18 43.29 90.77 41.59 88.14 38.56 C86.87 37.47 86.87 37.47 85.57 36.36 C82.69 31.07 82.1 26.73 82.2 20.86 C82.18 20.14 82.17 19.42 82.16 18.68 C82.2 11.45 84.44 5.63 89.57 0.36 C94.93 -3.13 100.64 -4.25 106.94 -3.27 C112.87 -1.66 116.16 1.31 119.57 6.36 C121.67 10.55 120.84 16 120.88 20.61 C120.91 21.74 120.94 22.88 120.97 24.04 C121.02 30.45 121.03 34.58 116.57 39.36 C115.87 39.8 115.17 40.23 114.44 40.68 C112.34 42.21 112.34 42.21 112.19 44.73 C112.25 45.66 112.3 46.6 112.36 47.56 C112.43 49.15 112.43 49.15 112.5 50.78 C112.57 51.93 112.63 53.08 112.7 54.26 C112.77 56.7 112.83 59.15 112.89 61.59 C113 65.44 113.13 69.28 113.36 73.12 C114.54 93.86 114.54 93.86 109.65 99.63 C104.67 103.59 99.08 106.02 93.18 108.31 C89.71 109.7 86.64 111.46 83.42 113.36 C81.35 114.5 79.27 115.65 77.2 116.8 C70.43 120.54 63.66 124.29 56.95 128.13 C55.9 128.73 54.86 129.33 53.78 129.94 C51.82 131.06 49.86 132.19 47.9 133.32 C47.02 133.83 46.14 134.33 45.24 134.85 C44.48 135.29 43.72 135.73 42.93 136.18 C40.57 137.36 40.57 137.36 34.57 139.36 C34.24 129.79 33.91 120.22 33.57 110.36 C30.35 112.19 27.14 114.03 23.82 115.92 C14.43 121.25 4.96 126.44 -4.55 131.55 C-5.47 132.04 -5.47 132.04 -6.4 132.54 C-8.14 133.48 -9.88 134.41 -11.62 135.34 C-12.63 135.88 -13.63 136.41 -14.66 136.96 C-17.21 138.25 -19.77 139.32 -22.43 140.36 C-22.43 139.15 -22.42 137.94 -22.42 136.69 C-22.4 125.28 -22.41 113.86 -22.46 102.44 C-22.48 96.57 -22.49 90.7 -22.47 84.83 C-22.46 79.17 -22.47 73.5 -22.51 67.83 C-22.52 65.67 -22.52 63.51 -22.5 61.35 C-22.48 58.32 -22.51 55.29 -22.54 52.26 C-22.52 50.93 -22.52 50.93 -22.5 49.57 C-22.63 43.37 -24.41 40.39 -28.83 36.05 C-32.62 32.03 -31.65 26.22 -31.68 21.05 C-31.7 20.11 -31.72 19.17 -31.74 18.21 C-31.78 11.88 -31.13 7.48 -26.85 2.53 C-18.9 -4.23 -9.07 -5.82 0 0 Z M-19.43 19.36 C-19.09 21.93 -18.83 23.05 -16.74 24.67 C-13.57 25.61 -11.6 25.28 -8.43 24.36 C-6.07 22.42 -6.07 22.42 -4.43 20.36 C-6.36 17.75 -7.59 17.32 -10.8 16.48 C-14.8 16.35 -16.3 16.98 -19.43 19.36 Z M38.57 19.36 C38.57 20.35 38.57 21.34 38.57 22.36 C41.43 24.71 42.97 25.38 46.7 25.23 C49.57 24.36 50.75 23.69 52.57 21.36 C51.9 18.31 51.9 18.31 49.76 17.17 C45.15 15.46 42.32 16.55 38.57 19.36 Z M94.57 21.36 C96.39 23.69 97.57 24.36 100.45 25.23 C104.17 25.38 105.71 24.71 108.57 22.36 C108.57 21.37 108.57 20.38 108.57 19.36 C106.49 17.28 105.02 16.45 102.13 15.86 C98.48 16.57 96.97 18.62 94.57 21.36 Z " fill="#FCFCFC" transform="translate(31.4296875,7.640625)"/>
<path d="M0 0 C0 3.3 0 6.6 0 10 C-12.54 17.22 -25.14 24.33 -37.8 31.33 C-43.43 34.45 -49.04 37.58 -54.62 40.77 C-55.67 41.37 -56.71 41.97 -57.79 42.58 C-59.75 43.7 -61.71 44.83 -63.67 45.96 C-68.03 48.46 -72.11 50.67 -77 52 C-77.64 48.81 -77.77 46.18 -77 43 C-75.16 41.44 -75.16 41.44 -72.68 40.1 C-71.77 39.6 -70.86 39.09 -69.92 38.57 C-68.47 37.79 -68.47 37.79 -67 37 C-65.14 35.95 -63.29 34.9 -61.43 33.84 C-59.44 32.73 -57.44 31.61 -55.44 30.5 C-53.23 29.27 -51.02 28.03 -48.81 26.8 C-47.13 25.86 -47.13 25.86 -45.41 24.9 C-39.91 21.84 -34.43 18.76 -28.94 15.69 C-27.9 15.11 -26.87 14.53 -25.8 13.93 C-21.16 11.34 -16.53 8.74 -11.91 6.12 C-10.78 5.48 -10.78 5.48 -9.62 4.83 C-8.25 4.05 -6.88 3.27 -5.5 2.49 C-1.11 0 -1.11 0 0 0 Z " fill="#020202" transform="translate(143,95)"/>
<path d="M0 0 C0.22 1.39 0.37 2.79 0.5 4.19 C0.59 4.96 0.69 5.74 0.78 6.54 C-0.55 10.73 -4.28 12 -8 14 C-8.86 14.48 -9.73 14.96 -10.62 15.45 C-13.53 17.05 -16.45 18.62 -19.38 20.19 C-21.5 21.33 -23.63 22.48 -25.76 23.63 C-26.81 24.19 -27.86 24.76 -28.94 25.34 C-33.37 27.74 -37.78 30.18 -42.19 32.62 C-42.91 33.03 -43.63 33.43 -44.38 33.84 C-47.24 35.44 -50.07 37.05 -52.86 38.77 C-55 40 -55 40 -57 40 C-57 36.7 -57 33.4 -57 30 C-56.33 29.64 -55.67 29.29 -54.98 28.92 C-41.69 21.82 -28.47 14.65 -15.39 7.18 C-2.81 0 -2.81 0 0 0 Z " fill="#020202" transform="translate(66,108)"/>
<path d="M0 0 C0.44 0.59 0.88 1.19 1.34 1.8 C5.05 7.12 5.05 7.12 10 11 C10.33 43.34 10.66 75.68 11 109 C10.34 109 9.68 109 9 109 C9 107.92 9.01 106.83 9.01 105.71 C9.03 95.47 9.02 85.23 8.97 74.99 C8.95 69.73 8.94 64.47 8.96 59.2 C8.97 54.12 8.96 49.03 8.92 43.95 C8.91 42.02 8.91 40.08 8.93 38.14 C9.51 26.22 9.51 26.22 4.51 15.94 C3.88 15.41 3.25 14.88 2.6 14.34 C1 13 1 13 0 10 C-0.07 8.27 -0.08 6.54 -0.06 4.81 C-0.05 3.91 -0.04 3.01 -0.04 2.08 C-0.02 1.39 -0.01 0.71 0 0 Z " fill="#E3E3E3" transform="translate(0,29)"/>
<path d="M0 0 C2.5 1.56 2.5 1.56 4 4 C5.39 10.21 5.39 10.21 4 13 C3.48 12.69 2.97 12.38 2.44 12.06 C-0.77 10.67 -3.51 10.19 -7 10 C-9.31 11.33 -9.31 11.33 -11 13 C-11.66 13 -12.32 13 -13 13 C-14.15 8.56 -14.36 6.66 -12.12 2.56 C-8.67 -1.05 -4.68 -1.01 0 0 Z " fill="#050505" transform="translate(138,15)"/>
<path d="M0 0 C3.55 0.87 4.95 2.49 6.94 5.48 C7.34 8.28 7.18 10.62 6.94 13.48 C6.42 13.17 5.91 12.86 5.38 12.54 C2.14 11.13 -0.54 10.66 -4.06 10.48 C-7.43 11.78 -7.43 11.78 -10.06 13.48 C-11.06 12.48 -11.06 12.48 -11.44 9.23 C-11.06 5.48 -11.06 5.48 -9.06 2.54 C-5.73 0.25 -3.96 -0.29 0 0 Z " fill="#020202" transform="translate(21.0625,14.5234375)"/>
<path d="M0 0 C3.5 2.19 3.9 3.6 4.88 7.62 C4.92 8.74 4.96 9.85 5 11 C4.34 11.66 3.68 12.32 3 13 C2.32 12.48 1.64 11.97 0.94 11.44 C-2.87 9.57 -4.93 10.04 -9 11 C-10.35 11.64 -11.68 12.3 -13 13 C-13.61 5.09 -13.61 5.09 -11.56 1.44 C-7.73 -0.71 -4.28 -0.76 0 0 Z " fill="#030303" transform="translate(81,15)"/>
<path d="M0 0 C0.33 0 0.66 0 1 0 C1.56 6.67 0.73 11.38 -3 17 C-5.12 19.5 -5.12 19.5 -7 21 C-7.66 21 -8.32 21 -9 21 C-9.36 17.6 -9.52 14.39 -9 11 C-6.19 8.25 -6.19 8.25 -3 6 C-1.13 2.85 -1.13 2.85 0 0 Z " fill="#000000" transform="translate(95,29)"/>
<path d="M0 0 C0.33 0 0.66 0 1 0 C1.62 9.71 1.62 9.71 -0.69 14.5 C-2.97 16.97 -5 18.5 -8 20 C-8.29 16.62 -8.44 13.37 -8 10 C-5.69 7.75 -5.69 7.75 -3 6 C-1.19 2.88 -1.19 2.88 0 0 Z " fill="#030303" transform="translate(151,30)"/>
<path d="M0 0 C2.34 3.96 2.06 6.26 0.98 10.61 C-0.73 14.8 -3.7 17.96 -7 21 C-7.33 21 -7.66 21 -8 21 C-8.58 16.49 -9.04 12.59 -6.48 8.66 C-5.23 7.3 -3.95 5.97 -2.63 4.69 C-0.76 2.99 -0.76 2.99 0 0 Z " fill="#030303" transform="translate(37,29)"/>
<path d="M0 0 C0.43 0.6 0.86 1.19 1.3 1.8 C2.9 3.97 2.9 3.97 4.61 5.57 C7.24 8.16 8.85 9.94 9.39 13.68 C9.38 16.14 9.27 18.55 9 21 C4.68 17.73 1.79 15.28 0 10 C-0.23 6.65 -0.18 3.35 0 0 Z " fill="#020202" transform="translate(0,29)"/>
<path d="M0 0 C0.66 0 1.32 0 2 0 C2.94 1.76 3.89 3.52 4.83 5.27 C6.05 7.31 6.05 7.31 9 9 C9.29 11.38 9.29 11.38 9.19 14.12 C9.16 15.04 9.13 15.95 9.11 16.88 C9.07 17.58 9.04 18.28 9 19 C5.09 17.37 3.46 15.47 1.69 11.75 C0 7.61 -0.38 4.43 0 0 Z " fill="#050505" transform="translate(114,30)"/>
<path d="M0 0 C2.25 2.69 3.88 4.65 5 8 C5.99 8.33 6.98 8.66 8 9 C8 12.3 8 15.6 8 19 C3.5 16.75 1.79 14.55 0 10 C-0.63 7.01 -1.03 4.06 -1 1 C-0.67 0.67 -0.34 0.34 0 0 Z " fill="#040404" transform="translate(58,30)"/>
</svg>
