<?xml version="1.0" encoding="UTF-8"?>
<!-- Generator: visioncortex VTracer 0.6.5 -->
<svg version="1.1" xmlns="http://www.w3.org/2000/svg" width="200" height="200">
<path d="M0,0 L200,0 L200,200 L0,200 Z " fill="#E8C092" transform="translate(0,0)"/>
<path d="M0,0 L11,0 L21,5 L28,13 L29,17 L32,16 L43,16 L53,20 L59,25 L63,32 L64,36 L64,46 L58,57 L47,66 L45,66 L45,111 L37,116 L-35,152 L-42,151 L-58,143 L-74,135 L-86,129 L-87,128 L-88,82 L-94,73 L-97,65 L-97,55 L-92,47 L-83,41 L-3,1 Z " fill="#453931" transform="translate(116,26)"/>
<path d="M0,0 L9,0 L15,4 L19,9 L22,15 L22,17 L31,16 L42,16 L50,21 L53,26 L53,34 L49,41 L39,49 L34,51 L34,41 L29,31 L20,25 L16,24 L5,24 L-1,26 L-2,28 L0,27 L14,27 L22,32 L26,38 L26,48 L23,53 L16,60 L11,63 L9,63 L8,52 L3,44 L-3,39 L-9,37 L-21,37 L-27,39 L-12,40 L-4,44 L0,49 L1,52 L1,60 L-5,69 L-15,76 L-16,72 L-16,65 L-21,55 L-28,49 L-34,47 L-50,46 L-56,38 L-56,36 L-60,34 L-62,31 L-32,16 L-24,17 L-16,24 L-12,31 L-10,32 L-16,20 L-24,13 L-20,10 Z " fill="#E6BE91" transform="translate(117,36)"/>
<path d="M0,0 L9,0 L15,4 L20,11 L23,17 L40,16 L47,19 L53,26 L53,34 L47,43 L36,51 L35,90 L30,89 L14,81 L0,74 L-1,30 L-7,22 L-10,16 L-10,8 L-6,3 Z " fill="#E6BF91" transform="translate(39,75)"/>
<path d="M0,0 L2,0 L2,33 L-17,43 L-65,67 L-67,67 L-67,34 L-55,27 L-32,16 L-16,8 Z " fill="#E6BE91" transform="translate(150,98)"/>
<path d="M0,0 L3,1 L8,2 L8,3 L-4,4 L-3,1 Z " fill="#58493C" transform="translate(119,60)"/>
<path d="M0,0 L9,2 L9,3 L-4,3 L-3,1 Z " fill="#6A5847" transform="translate(93,73)"/>
</svg>
