<?xml version="1.0" encoding="UTF-8"?>
<!-- Generator: visioncortex VTracer 0.6.4 -->
<svg version="1.1" xmlns="http://www.w3.org/2000/svg" width="779" height="1024">
<path d="M0 0 C1.71 -0.01 1.71 -0.01 3.46 -0.02 C5.87 -0.03 8.28 -0.03 10.69 -0.04 C14.28 -0.05 17.87 -0.08 21.46 -0.11 C85.64 -0.4 149.19 18.68 200.84 57.2 C201.45 57.65 202.05 58.1 202.67 58.56 C209.26 63.45 215.56 68.58 221.6 74.14 C223.54 75.93 225.52 77.63 227.53 79.33 C236.92 87.51 245.94 96.58 253.84 106.2 C254.28 106.73 254.72 107.25 255.18 107.8 C272.61 128.66 287.72 150.91 300.59 174.87 C301.87 177.26 303.18 179.64 304.49 182.02 C321.4 213.14 333.77 246.73 342.26 281.08 C342.78 283.23 342.78 283.23 343.84 285.2 C343.94 287.95 343.97 290.67 343.96 293.42 C343.96 294.28 343.97 295.13 343.97 296.02 C343.97 298.92 343.96 301.81 343.96 304.71 C343.96 306.78 343.96 308.85 343.96 310.92 C343.96 316.55 343.95 322.18 343.95 327.81 C343.94 333.69 343.94 339.57 343.94 345.45 C343.93 356.59 343.93 367.74 343.92 378.88 C343.9 391.56 343.9 404.24 343.89 416.92 C343.88 443.02 343.87 469.11 343.84 495.2 C348.79 494.54 353.74 493.88 358.84 493.2 C371.05 493.2 383.26 493.2 395.84 493.2 C395.84 668.43 395.84 843.66 395.84 1024.2 C138.77 1024.2 -118.3 1024.2 -383.16 1024.2 C-383.16 850.95 -383.16 677.7 -383.16 499.2 C-366 499.2 -348.84 499.2 -331.16 499.2 C-331.17 489.46 -331.17 489.46 -331.19 479.52 C-331.22 458.05 -331.24 436.57 -331.26 415.1 C-331.27 402.08 -331.28 389.06 -331.31 376.05 C-331.33 364.7 -331.34 353.35 -331.34 341.99 C-331.35 335.99 -331.35 329.98 -331.37 323.98 C-331.38 318.31 -331.39 312.65 -331.38 306.99 C-331.38 304.92 -331.39 302.85 -331.39 300.78 C-331.45 285.18 -330.53 270.55 -326.22 255.45 C-325.92 254.4 -325.62 253.35 -325.31 252.26 C-309.79 199.67 -279.08 151.96 -242.41 111.68 C-240.81 109.92 -239.23 108.16 -237.66 106.39 C-233.44 101.67 -229.24 97.2 -224.39 93.13 C-222.09 91.15 -219.89 89.08 -217.68 87 C-210.51 80.26 -203.03 74.1 -195.16 68.2 C-194.45 67.68 -193.75 67.15 -193.03 66.6 C-183.07 59.18 -172.96 52.34 -162.16 46.2 C-161.48 45.81 -160.8 45.42 -160.1 45.01 C-111.82 17.16 -56 0.22 0 0 Z M-35.16 160.2 C-36.01 160.41 -36.86 160.62 -37.73 160.84 C-68.34 168.62 -95.82 184.99 -118.16 207.2 C-118.65 207.69 -119.13 208.17 -119.64 208.67 C-137.56 226.7 -150.76 248.85 -159.27 272.74 C-159.8 274.21 -160.36 275.68 -160.97 277.12 C-164.4 286.34 -163.55 296.3 -163.5 305.98 C-163.5 308.13 -163.5 310.27 -163.5 312.41 C-163.5 318.14 -163.48 323.86 -163.46 329.58 C-163.44 334.96 -163.44 340.33 -163.44 345.71 C-163.42 361.42 -163.38 377.12 -163.34 392.83 C-163.28 427.93 -163.22 463.04 -163.16 499.2 C-51.95 499.2 59.26 499.2 173.84 499.2 C173.99 463.98 174.13 428.75 174.28 392.45 C174.38 375.81 174.38 375.81 174.47 358.83 C174.5 348.83 174.5 348.83 174.51 338.82 C174.52 334.39 174.54 329.96 174.58 325.52 C174.63 319.85 174.65 314.17 174.64 308.49 C174.64 306.43 174.65 304.36 174.68 302.29 C174.86 287.97 172.45 276.38 166.84 263.2 C166.52 262.43 166.19 261.65 165.85 260.85 C156.82 239.72 143.27 221.22 126.84 205.2 C126.27 204.58 125.7 203.97 125.11 203.33 C113.87 191.48 100.3 182.6 85.84 175.2 C85.16 174.85 84.48 174.5 83.78 174.14 C47.63 155.79 4.33 150.35 -35.16 160.2 Z " fill="#FEFEFE" transform="translate(383.15625,-0.203125)"/>
<path d="M0 0 C1.71 -0.01 1.71 -0.01 3.46 -0.02 C5.87 -0.03 8.28 -0.03 10.69 -0.04 C14.28 -0.05 17.87 -0.08 21.46 -0.11 C85.64 -0.4 149.19 18.68 200.84 57.2 C201.45 57.65 202.05 58.1 202.67 58.56 C209.26 63.45 215.56 68.58 221.6 74.14 C223.54 75.93 225.52 77.63 227.53 79.33 C236.92 87.51 245.94 96.58 253.84 106.2 C254.28 106.73 254.72 107.25 255.18 107.8 C272.61 128.66 287.72 150.91 300.59 174.87 C301.87 177.26 303.18 179.64 304.49 182.02 C321.4 213.14 333.77 246.73 342.26 281.08 C342.78 283.23 342.78 283.23 343.84 285.2 C343.94 287.96 343.97 290.7 343.96 293.45 C343.96 294.32 343.97 295.18 343.97 296.07 C343.97 298.98 343.96 301.89 343.96 304.8 C343.96 306.88 343.96 308.96 343.96 311.04 C343.96 316.7 343.95 322.35 343.95 328.01 C343.94 333.92 343.94 339.83 343.94 345.74 C343.93 356.93 343.93 368.13 343.92 379.32 C343.9 392.07 343.9 404.81 343.89 417.55 C343.88 443.77 343.87 469.99 343.84 496.2 C340.36 498.11 336.87 500.02 333.38 501.92 C332.4 502.46 331.43 502.99 330.42 503.54 C322.79 507.71 315.09 511.74 307.34 515.69 C297.41 520.74 287.53 525.86 277.78 531.27 C247.02 548.22 215.76 562.67 181.84 572.2 C180.73 572.52 179.62 572.85 178.47 573.18 C167.81 576.16 157.05 578.15 146.16 580.08 C144.22 580.43 142.29 580.77 140.35 581.12 C123.74 584.09 107.09 586.9 90.43 589.61 C87.27 590.13 84.12 590.66 80.96 591.2 C31.51 599.43 -18.45 604.24 -68.34 608.98 C-88.46 610.9 -108.54 612.93 -128.59 615.45 C-129.55 615.57 -130.5 615.69 -131.48 615.81 C-143.11 617.27 -154.63 619.07 -166.16 621.2 C-168.08 621.55 -170 621.89 -171.92 622.23 C-180.55 623.81 -189.04 625.52 -197.45 628.08 C-200.33 628.95 -203.21 629.78 -206.12 630.58 C-233.48 638.12 -258.02 649.61 -281.16 666.2 C-281.93 666.75 -282.7 667.3 -283.49 667.86 C-295.12 676.17 -306.24 684.99 -317.16 694.2 C-318.07 694.97 -318.07 694.97 -319.01 695.76 C-327.69 703.04 -336.02 710.64 -344.26 718.42 C-346.15 720.19 -348.04 721.95 -349.95 723.71 C-366.17 738.66 -366.17 738.66 -381.02 754.95 C-381.39 755.36 -381.77 755.78 -382.16 756.2 C-382.49 756.2 -382.82 756.2 -383.16 756.2 C-383.16 671.39 -383.16 586.58 -383.16 499.2 C-366 499.2 -348.84 499.2 -331.16 499.2 C-331.17 489.46 -331.17 489.46 -331.19 479.52 C-331.22 458.05 -331.24 436.57 -331.26 415.1 C-331.27 402.08 -331.28 389.06 -331.31 376.05 C-331.33 364.7 -331.34 353.35 -331.34 341.99 C-331.35 335.99 -331.35 329.98 -331.37 323.98 C-331.38 318.31 -331.39 312.65 -331.38 306.99 C-331.38 304.92 -331.39 302.85 -331.39 300.78 C-331.45 285.18 -330.53 270.55 -326.22 255.45 C-325.92 254.4 -325.62 253.35 -325.31 252.26 C-309.79 199.67 -279.08 151.96 -242.41 111.68 C-240.81 109.92 -239.23 108.16 -237.66 106.39 C-233.44 101.67 -229.24 97.2 -224.39 93.13 C-222.09 91.15 -219.89 89.08 -217.68 87 C-210.51 80.26 -203.03 74.1 -195.16 68.2 C-194.45 67.68 -193.75 67.15 -193.03 66.6 C-183.07 59.18 -172.96 52.34 -162.16 46.2 C-161.48 45.81 -160.8 45.42 -160.1 45.01 C-111.82 17.16 -56 0.22 0 0 Z M-35.16 160.2 C-36.01 160.41 -36.86 160.62 -37.73 160.84 C-68.34 168.62 -95.82 184.99 -118.16 207.2 C-118.65 207.69 -119.13 208.17 -119.64 208.67 C-137.56 226.7 -150.76 248.85 -159.27 272.74 C-159.8 274.21 -160.36 275.68 -160.97 277.12 C-164.4 286.34 -163.55 296.3 -163.5 305.98 C-163.5 308.13 -163.5 310.27 -163.5 312.41 C-163.5 318.14 -163.48 323.86 -163.46 329.58 C-163.44 334.96 -163.44 340.33 -163.44 345.71 C-163.42 361.42 -163.38 377.12 -163.34 392.83 C-163.28 427.93 -163.22 463.04 -163.16 499.2 C-51.95 499.2 59.26 499.2 173.84 499.2 C173.99 463.98 174.13 428.75 174.28 392.45 C174.38 375.81 174.38 375.81 174.47 358.83 C174.5 348.83 174.5 348.83 174.51 338.82 C174.52 334.39 174.54 329.96 174.58 325.52 C174.63 319.85 174.65 314.17 174.64 308.49 C174.64 306.43 174.65 304.36 174.68 302.29 C174.86 287.97 172.45 276.38 166.84 263.2 C166.52 262.43 166.19 261.65 165.85 260.85 C156.82 239.72 143.27 221.22 126.84 205.2 C126.27 204.58 125.7 203.97 125.11 203.33 C113.87 191.48 100.3 182.6 85.84 175.2 C85.16 174.85 84.48 174.5 83.78 174.14 C47.63 155.79 4.33 150.35 -35.16 160.2 Z " fill="#0093DD" transform="translate(383.15625,-0.203125)"/>
<path d="M0 0 C0 151.47 0 302.94 0 459 C-215.82 459 -431.64 459 -654 459 C-631.08 440.67 -603.26 431.2 -574.07 431.68 C-572.29 431.69 -570.51 431.7 -568.72 431.71 C-564.97 431.74 -561.23 431.77 -557.48 431.81 C-548.71 431.91 -539.94 431.94 -531.18 431.97 C-529.26 431.97 -527.34 431.98 -525.42 431.99 C-504.56 432.06 -483.8 431.56 -463 430 C-462.08 429.93 -461.17 429.86 -460.23 429.79 C-439.36 428.23 -418.53 426.3 -397.75 423.88 C-397.06 423.79 -396.36 423.71 -395.65 423.63 C-388.89 422.84 -382.23 421.92 -375.58 420.5 C-372.51 419.9 -369.43 419.47 -366.32 419.05 C-358.78 418 -351.3 416.67 -343.81 415.25 C-343.13 415.12 -342.44 414.99 -341.74 414.86 C-322.6 411.24 -303.5 407.42 -284.9 401.58 C-282.41 400.82 -279.91 400.13 -277.41 399.43 C-255.62 393.27 -234.09 385.66 -213.54 376.17 C-211.1 375.05 -208.66 373.96 -206.21 372.87 C-187.78 364.55 -170.06 354.31 -154 342 C-152.86 341.14 -151.72 340.29 -150.57 339.43 C-130.43 324.16 -113.88 306.08 -100 285 C-100.61 285.25 -101.22 285.5 -101.85 285.76 C-158.42 308.88 -216.42 325.05 -277.22 331.58 C-279.82 331.87 -282.42 332.18 -285.01 332.51 C-285.69 332.6 -286.37 332.69 -287.07 332.78 C-288.94 333.02 -290.8 333.27 -292.67 333.52 C-304.43 334.91 -316.19 335.17 -328.02 335.2 C-328.81 335.21 -329.6 335.21 -330.42 335.21 C-334.64 335.23 -338.87 335.24 -343.09 335.24 C-346.49 335.24 -349.9 335.26 -353.31 335.28 C-376.38 335.43 -399.06 334.55 -422 332 C-422.94 331.9 -423.88 331.8 -424.84 331.69 C-429.66 331.15 -434.45 330.52 -439.25 329.81 C-439.94 329.71 -440.63 329.61 -441.33 329.51 C-453.39 327.76 -465.33 325.45 -477.25 322.94 C-478.43 322.69 -478.43 322.69 -479.63 322.44 C-489.84 320.26 -499.94 317.79 -510 315 C-510 314.67 -510 314.34 -510 314 C-508.98 313.99 -507.96 313.98 -506.91 313.97 C-460.34 313.48 -413.24 311.06 -367.33 302.77 C-363.12 302.02 -358.89 301.3 -354.67 300.61 C-336.33 297.55 -318.12 294.18 -300 290 C-298.99 289.77 -297.98 289.54 -296.94 289.3 C-280.03 285.38 -263.5 280.38 -247 275 C-246.36 274.79 -245.71 274.58 -245.05 274.37 C-207.13 262.04 -170.2 246.66 -136 226 C-135.2 225.52 -134.39 225.03 -133.57 224.54 C-116.31 214.1 -100.15 202.3 -85 189 C-84.29 188.39 -83.58 187.78 -82.85 187.15 C-80.88 185.45 -78.94 183.73 -77 182 C-76.12 181.23 -75.24 180.45 -74.34 179.66 C-62.15 168.73 -51.15 156.82 -41.31 143.74 C-40.02 142.02 -38.69 140.33 -37.37 138.63 C-26.07 123.98 -17.09 107.6 -9 91 C-25.9 95.99 -41.45 103.83 -56.81 112.38 C-112.52 143.26 -171.21 168.4 -234.2 179.5 C-236.74 179.95 -239.27 180.42 -241.8 180.9 C-267.89 185.77 -294.43 187.4 -320.94 187.31 C-322.03 187.31 -323.12 187.31 -324.25 187.31 C-338.52 187.29 -352.71 186.91 -366.94 185.62 C-367.65 185.56 -368.35 185.5 -369.08 185.43 C-381 184.34 -381 184.34 -385 182 C-381.41 179.89 -377.89 179.32 -373.81 178.62 C-360.08 176.17 -346.75 172.74 -333.39 168.76 C-328.41 167.28 -323.44 165.83 -318.42 164.52 C-298.12 159.18 -278.44 152.04 -258.7 144.97 C-256.11 144.04 -253.51 143.11 -250.92 142.19 C-218.92 130.74 -187.59 117.97 -156.89 103.37 C-154.32 102.15 -151.75 100.95 -149.16 99.77 C-107.74 80.68 -67.37 56.86 -32 28 C-30.58 26.87 -30.58 26.87 -29.13 25.71 C-19.72 18.15 -10.82 10.04 -2.43 1.36 C-1 0 -1 0 0 0 Z " fill="#0093DD" transform="translate(779,565)"/>
<path d="M0 0 C1.16 0 1.16 0 2.34 0 C49.55 0.15 96.53 10.02 140.12 28.19 C140.12 28.52 140.12 28.85 140.12 29.19 C130.61 28.62 121.3 27.2 111.9 25.72 C85.71 21.61 59.97 18.93 33.44 18.88 C32.47 18.87 31.51 18.87 30.52 18.86 C-16.35 18.77 -62.46 28.9 -103.88 51.19 C-104.59 51.56 -105.3 51.94 -106.03 52.33 C-122.49 61.04 -137.5 71.37 -151.88 83.19 C-152.44 83.65 -153 84.11 -153.59 84.58 C-162.25 91.7 -170.3 99.41 -178.25 107.31 C-179.17 108.22 -180.08 109.12 -181.02 110.06 C-187.07 116.13 -192.53 122.5 -197.88 129.19 C-198.74 130.21 -199.61 131.24 -200.48 132.25 C-226.52 162.61 -247.24 198.46 -264.88 234.19 C-265.2 234.19 -265.53 234.19 -265.88 234.19 C-265.44 226.66 -264.25 219.56 -262.39 212.26 C-261.8 209.9 -261.25 207.53 -260.7 205.16 C-250.53 162.88 -230.11 121.45 -201.26 88.76 C-200.25 87.62 -199.26 86.47 -198.26 85.31 C-187.58 72.96 -176.03 61.86 -162.88 52.19 C-161.77 51.35 -160.66 50.52 -159.56 49.68 C-114.04 15.72 -56.3 -0.1 0 0 Z " fill="#FBFDFE" transform="translate(380.875,43.8125)"/>
<path d="M0 0 C0.66 0.66 1.32 1.32 2 2 C-1.96 1.67 -5.92 1.34 -10 1 C-5.64 -1.18 -4.53 -1.18 0 0 Z " fill="#B4DFF5" transform="translate(519,71)"/>
</svg>
