<?xml version="1.0" encoding="UTF-8"?>
<!-- Generator: visioncortex VTracer 0.6.4 -->
<svg version="1.1" xmlns="http://www.w3.org/2000/svg" width="200" height="200">
<path d="M0 0 C66 0 132 0 200 0 C200 66 200 132 200 200 C134 200 68 200 0 200 C0 134 0 68 0 0 Z " fill="#FEFEFE" transform="translate(0,0)"/>
<path d="M0 0 C1.77 0.01 1.77 0.01 3.57 0.03 C4.48 0.04 5.38 0.05 6.31 0.06 C6.31 2.04 6.31 4.02 6.31 6.06 C1.69 6.39 -2.93 6.72 -7.69 7.06 C-7.69 8.38 -7.69 9.7 -7.69 11.06 C-6.88 11.29 -6.07 11.52 -5.24 11.76 C6.31 15.29 6.31 15.29 9.31 20.06 C9.24 24.35 8.7 26.49 6.31 30.06 C2.04 32.46 -2.23 32.3 -7 32.19 C-7.74 32.18 -8.48 32.17 -9.24 32.16 C-11.06 32.14 -12.87 32.1 -14.69 32.06 C-14.69 30.41 -14.69 28.76 -14.69 27.06 C-6.27 26.57 -6.27 26.57 2.31 26.06 C1.82 23.59 1.82 23.59 1.31 21.06 C0.21 20.82 0.21 20.82 -0.92 20.58 C-11.38 18.08 -11.38 18.08 -14.69 13.06 C-15.31 9.56 -15.31 9.56 -14.69 6.06 C-10.23 0.52 -6.87 -0.07 0 0 Z " fill="#2F2C2D" transform="translate(137.6875,77.9375)"/>
<path d="M0 0 C1.63 0.01 1.63 0.01 3.29 0.03 C4.12 0.04 4.96 0.05 5.81 0.06 C5.81 2.04 5.81 4.02 5.81 6.06 C-0.62 6.56 -0.62 6.56 -7.19 7.06 C-6.86 8.71 -6.53 10.36 -6.19 12.06 C-5.44 12.24 -4.69 12.43 -3.92 12.61 C-2.94 12.86 -1.95 13.12 -0.94 13.38 C0.04 13.62 1.01 13.86 2.02 14.11 C4.88 15.09 6.67 15.93 8.81 18.06 C9.63 21.13 9.47 23.97 8.81 27.06 C6.22 29.86 4.41 30.86 0.81 32.06 C-1.76 32.13 -4.3 32.16 -6.88 32.12 C-7.58 32.12 -8.28 32.12 -9 32.11 C-10.73 32.1 -12.46 32.08 -14.19 32.06 C-14.19 30.41 -14.19 28.76 -14.19 27.06 C-9.24 26.73 -4.29 26.4 0.81 26.06 C1.89 22.43 1.89 22.43 1.81 20.06 C0.82 19.9 0.82 19.9 -0.2 19.73 C-9.31 18.1 -9.31 18.1 -13.19 15.06 C-15.19 12.06 -15.19 12.06 -15.12 8.62 C-14.01 4.4 -12.84 3.32 -9.19 1.06 C-5.9 -0.03 -3.45 -0.04 0 0 Z " fill="#2C2829" transform="translate(163.1875,77.9375)"/>
<path d="M0 0 C5.48 4.48 5.48 4.48 6.07 8.29 C6.35 13.76 5.47 17.03 1.75 21.25 C-1.96 24.18 -4.58 24.58 -9.25 24.25 C-9.25 22.27 -9.25 20.29 -9.25 18.25 C-8.14 17.98 -7.02 17.71 -5.88 17.44 C-2.03 16.59 -2.03 16.59 -0.25 13.25 C-0.02 10.14 -0.25 8.24 -1.25 5.25 C-2.69 5.17 -4.12 5.11 -5.56 5.06 C-6.36 5.03 -7.16 4.99 -7.99 4.96 C-10.27 5.07 -10.27 5.07 -11.86 6.39 C-13.82 9.01 -13.68 10.98 -13.76 14.23 C-13.8 15.39 -13.83 16.56 -13.87 17.76 C-13.89 18.97 -13.91 20.19 -13.94 21.44 C-13.97 22.66 -14.01 23.89 -14.04 25.15 C-14.12 28.19 -14.19 31.22 -14.25 34.25 C-15.9 34.25 -17.55 34.25 -19.25 34.25 C-19.4 29.71 -19.48 25.17 -19.56 20.62 C-19.6 19.34 -19.65 18.05 -19.69 16.73 C-19.83 6.07 -19.83 6.07 -16.85 2.44 C-11.44 -2.11 -6.63 -3.57 0 0 Z " fill="#5E1B1B" transform="translate(59.25,87.75)"/>
<path d="M0 0 C2.8 2.36 4.31 3.96 5.75 7.31 C5.75 9.29 5.75 11.27 5.75 13.31 C0.8 13.31 -4.15 13.31 -9.25 13.31 C-9.25 11.99 -9.25 10.67 -9.25 9.31 C-4.8 8.82 -4.8 8.82 -0.25 8.31 C-2.96 4.97 -2.96 4.97 -6.75 4.94 C-10.11 5.08 -10.11 5.08 -12.25 6.38 C-13.88 9.54 -13.1 11.96 -12.25 15.31 C-11.26 15.97 -10.27 16.63 -9.25 17.31 C-9.06 20.44 -9.06 20.44 -9.25 23.31 C-13.09 22.44 -14.95 21.64 -17.62 18.69 C-19.52 14.75 -20.21 11.57 -19.25 7.31 C-17.54 3.87 -15.42 1.21 -12.38 -1.12 C-7.67 -2.37 -4.34 -2.25 0 0 Z " fill="#5D1A1A" transform="translate(87.25,87.6875)"/>
<path d="M0 0 C3.48 2.32 4.28 4 5.81 7.88 C6.02 10.59 6.1 13.05 6 15.75 C5.98 16.78 5.98 16.78 5.96 17.84 C5.92 19.52 5.87 21.2 5.81 22.88 C3.83 22.88 1.85 22.88 -0.19 22.88 C-0.25 21.73 -0.31 20.59 -0.37 19.41 C-0.46 17.92 -0.54 16.43 -0.62 14.94 C-0.66 14.18 -0.7 13.43 -0.74 12.65 C-0.63 8.96 -0.63 8.96 -2.19 5.88 C-5.65 5.54 -5.65 5.54 -9.19 5.88 C-11.61 9.51 -11.57 11.73 -11.81 16.06 C-11.92 17.97 -11.92 17.97 -12.04 19.92 C-12.09 20.89 -12.14 21.87 -12.19 22.88 C-13.84 22.88 -15.49 22.88 -17.19 22.88 C-17.27 20.31 -17.33 17.75 -17.38 15.19 C-17.4 14.47 -17.43 13.75 -17.45 13 C-17.51 8.4 -17.04 5.53 -14.19 1.88 C-9.43 -1.85 -5.61 -1.98 0 0 Z " fill="#5F1C1C" transform="translate(113.1875,87.125)"/>
<path d="M0 0 C4.3 0.72 7.58 1.45 10.59 4.74 C13.15 8.84 12.74 13.34 12 18 C10.12 21.65 7.4 23.73 4 26 C-2.58 26.88 -2.58 26.88 -6.01 24.76 C-8.86 22.36 -10.92 20.12 -13 17 C-13 15.68 -13 14.36 -13 13 C-11.02 13 -9.04 13 -7 13 C-6.34 14.65 -5.68 16.3 -5 18 C0.05 18.94 0.05 18.94 5 18 C6.4 15.2 6.25 13.1 6 10 C4.15 7.44 3.06 7.02 0 6 C0 4.02 0 2.04 0 0 Z " fill="#601E1F" transform="translate(24,86)"/>
<path d="M0 0 C1.98 0 3.96 0 6 0 C6.01 0.58 6.02 1.16 6.03 1.76 C6.08 4.4 6.17 7.04 6.25 9.69 C6.26 10.6 6.28 11.51 6.29 12.45 C6.45 16.72 6.62 19.36 8.84 23.09 C11.52 25.46 13.48 25.76 17 26 C17 27.98 17 29.96 17 32 C15.76 32.04 14.53 32.08 13.25 32.12 C12.55 32.15 11.86 32.17 11.14 32.2 C7.93 31.9 5.76 30.8 3.53 28.46 C-0.47 22.53 -0.61 17.51 -0.31 10.5 C-0.29 9.49 -0.27 8.47 -0.24 7.43 C-0.19 4.95 -0.1 2.48 0 0 Z " fill="#2D2A2B" transform="translate(175,78)"/>
<path d="M0 0 C0 1.65 0 3.3 0 5 C-1.45 5.62 -1.45 5.62 -2.94 6.25 C-6.12 7.65 -6.12 7.65 -6.88 10.19 C-6.92 10.79 -6.96 11.38 -7 12 C-8.65 12 -10.3 12 -12 12 C-11.63 5.62 -11.63 5.62 -8.56 2.62 C-5.04 0.39 -4.36 0 0 0 Z " fill="#2A2728" transform="translate(20,82)"/>
<path d="M0 0 C2.47 0.5 2.47 0.5 5 1 C5 2.98 5 4.96 5 7 C3.35 7.33 1.7 7.66 0 8 C0 5.36 0 2.72 0 0 Z " fill="#7E7D7E" transform="translate(126,114)"/>
<path d="M0 0 C2.47 0.5 2.47 0.5 5 1 C5 3.31 5 5.62 5 8 C4.34 7.67 3.68 7.34 3 7 C3 6.34 3 5.68 3 5 C2.34 5 1.68 5 1 5 C0.67 5.66 0.34 6.32 0 7 C0 4.69 0 2.38 0 0 Z " fill="#7B7B7C" transform="translate(141,114)"/>
<path d="M0 0 C1.65 0 3.3 0 5 0 C4.67 1.98 4.34 3.96 4 6 C3.01 5.67 2.02 5.34 1 5 C0.67 5.66 0.34 6.32 0 7 C0 4.69 0 2.38 0 0 Z " fill="#7F7E7F" transform="translate(171,114)"/>
<path d="M0 0 C0.66 0 1.32 0 2 0 C2.66 2.64 3.32 5.28 4 8 C1.03 7.5 1.03 7.5 -2 7 C-1.12 1.12 -1.12 1.12 0 0 Z " fill="#828283" transform="translate(158,114)"/>
</svg>
