<?xml version="1.0" encoding="UTF-8"?>
<!-- Generator: visioncortex VTracer 0.6.5 -->
<svg version="1.1" xmlns="http://www.w3.org/2000/svg" width="2560" height="1576">
<path d="M0,0 L2230,0 L2249,3 L2268,8 L2288,16 L2309,27 L2323,37 L2336,48 L2351,63 L2364,80 L2373,95 L2383,116 L2390,137 L2394,157 L2395,165 L2395,1410 L2391,1434 L2384,1457 L2375,1477 L2364,1495 L2355,1507 L2346,1517 L2339,1525 L2331,1532 L2314,1545 L2297,1555 L2280,1563 L2259,1570 L2240,1574 L2222,1576 L8,1576 L-16,1573 L-39,1567 L-59,1559 L-78,1549 L-92,1539 L-102,1531 L-115,1519 L-122,1511 L-132,1498 L-142,1482 L-150,1466 L-156,1451 L-161,1434 L-165,1410 L-165,165 L-162,146 L-157,127 L-149,107 L-138,86 L-128,72 L-117,59 L-102,44 L-85,31 L-70,22 L-49,12 L-28,5 L-8,1 Z M205,370 L205,1206 L450,1206 L450,726 L452,726 L454,730 L467,746 L478,760 L491,776 L502,790 L515,806 L526,820 L539,836 L550,850 L563,866 L574,880 L587,896 L598,910 L611,926 L622,940 L635,956 L646,970 L659,986 L670,1000 L683,1016 L694,1030 L697,1033 L710,1017 L721,1003 L734,987 L745,973 L758,957 L769,943 L782,927 L793,913 L806,897 L817,883 L830,867 L841,853 L854,837 L865,823 L878,807 L889,793 L902,777 L913,763 L926,747 L937,733 L942,727 L943,1206 L1188,1206 L1188,370 L943,370 L935,379 L924,393 L911,409 L900,423 L887,439 L876,453 L863,469 L852,483 L839,499 L828,513 L815,529 L804,543 L791,559 L780,573 L767,589 L756,603 L743,619 L732,633 L719,649 L708,663 L698,676 L695,677 L693,673 L680,657 L669,643 L656,627 L645,613 L632,597 L621,583 L608,567 L597,553 L584,537 L573,523 L560,507 L549,493 L536,477 L525,463 L512,447 L501,433 L488,417 L477,403 L464,387 L453,373 L451,370 Z M1620,370 L1620,800 L1375,800 L1381,808 L1397,825 L1404,833 L1416,846 L1425,856 L1436,868 L1445,878 L1456,890 L1465,900 L1476,912 L1485,922 L1496,934 L1505,944 L1516,956 L1525,966 L1536,978 L1545,988 L1556,1000 L1565,1010 L1576,1022 L1585,1032 L1596,1044 L1605,1054 L1616,1066 L1625,1076 L1636,1088 L1645,1098 L1656,1110 L1665,1120 L1676,1132 L1685,1142 L1696,1154 L1705,1164 L1716,1176 L1725,1186 L1736,1198 L1742,1205 L1749,1199 L1760,1187 L1769,1177 L1780,1165 L1789,1155 L1800,1143 L1809,1133 L1820,1121 L1829,1111 L1840,1099 L1849,1089 L1860,1077 L1869,1067 L1880,1055 L1889,1045 L1900,1033 L1909,1023 L1920,1011 L1929,1001 L1940,989 L1949,979 L1960,967 L1969,957 L1980,945 L1989,935 L2000,923 L2009,913 L2020,901 L2029,891 L2040,879 L2049,869 L2060,857 L2069,847 L2080,835 L2089,825 L2100,813 L2109,803 L2111,800 L1865,800 L1865,370 Z " fill="#54669E" transform="translate(165,0)"/>
</svg>
