<?xml version="1.0" encoding="UTF-8"?>
<!-- Generator: visioncortex VTracer 0.6.5 -->
<svg version="1.1" xmlns="http://www.w3.org/2000/svg" width="209" height="241">
<path d="M0,0 L209,0 L209,241 L0,241 Z " fill="#01A818" transform="translate(0,0)"/>
<path d="M0,0 L209,0 L209,241 L0,241 L0,113 L1,113 L4,132 L10,150 L19,166 L28,177 L37,186 L51,196 L68,204 L85,209 L85,239 L101,236 L121,229 L137,221 L149,214 L163,203 L177,189 L188,174 L198,155 L204,137 L207,123 L207,96 L203,76 L197,60 L188,44 L177,31 L167,22 L154,14 L140,8 L135,6 L118,3 L89,3 L70,8 L56,14 L42,23 L30,34 L21,44 L13,57 L6,73 L2,89 L1,96 L0,96 Z " fill="#FDFEFD" transform="translate(0,0)"/>
<path d="M0,0 L7,0 L12,3 L16,7 L16,18 L11,28 L4,34 L-2,37 L-7,37 L-10,33 L-12,26 L-12,17 L-6,5 Z " fill="#F9FCF9" transform="translate(122,40)"/>
<path d="M0,0 L10,0 L21,4 L20,11 L16,17 L8,24 L1,27 L-9,27 L-15,23 L-17,20 L-17,11 L-13,6 L-4,1 Z " fill="#FAFDFA" transform="translate(55,111)"/>
<path d="M0,0 L16,0 L26,5 L31,11 L31,19 L26,25 L24,26 L12,26 L3,21 L-2,17 L-8,7 L-7,3 Z " fill="#FBFDFB" transform="translate(139,111)"/>
<path d="M0,0 L11,0 L23,6 L29,13 L32,19 L31,23 L23,26 L8,26 L0,22 L-5,18 L-7,14 L-7,7 L-2,1 Z " fill="#FBFDFB" transform="translate(45,72)"/>
<path d="M0,0 L8,0 L14,4 L19,13 L20,17 L20,26 L16,36 L14,37 L4,33 L-1,29 L-8,18 L-8,7 L-4,2 Z " fill="#FAFDFA" transform="translate(77,41)"/>
<path d="M0,0 L5,1 L8,8 L8,21 L4,31 L-1,36 L-3,37 L-11,37 L-17,33 L-19,29 L-19,20 L-14,10 L-6,3 Z " fill="#FAFDFB" transform="translate(89,131)"/>
<path d="M0,0 L7,1 L16,7 L22,16 L23,18 L23,29 L19,34 L14,36 L7,36 L1,32 L-3,25 L-4,21 L-4,7 L-1,1 Z " fill="#FAFDFB" transform="translate(116,132)"/>
</svg>
