<?xml version="1.0" encoding="utf-8"?>
<svg width="800px" height="800px" viewBox="0 0 64 64" xmlns="http://www.w3.org/2000/svg">
  <g id="compass" transform="translate(-868 -496)">
    <path id="Path_3" data-name="Path 3" d="M900,512a20,20,0,1,0,20,20A20,20,0,0,0,900,512Zm0,25a4.933,4.933,0,0,1-4.757-6.463l-.237.2-4.095-9.6,8.7,5.764-.2.165A4.876,4.876,0,0,1,900,527a4.938,4.938,0,0,1,4.912,5.868l.014-.012,4.512,9.414-8.869-5.328A4.856,4.856,0,0,1,900,537Z" fill="#1b8cff" opacity="0.3"/>
    <line id="Line_16" data-name="Line 16" y1="5" transform="translate(900 522)" fill="none" stroke="#ffffff" stroke-linecap="round" stroke-linejoin="round" stroke-width="2" opacity="0.5"/>
    <line id="Line_17" data-name="Line 17" y1="5" transform="translate(900 537)" fill="none" stroke="#ffffff" stroke-linecap="round" stroke-linejoin="round" stroke-width="2" opacity="0.5"/>
    <line id="Line_18" data-name="Line 18" x1="5" transform="translate(890 532)" fill="none" stroke="#ffffff" stroke-linecap="round" stroke-linejoin="round" stroke-width="2" opacity="0.5"/>
    <line id="Line_19" data-name="Line 19" x1="5" transform="translate(905 532)" fill="none" stroke="#ffffff" stroke-linecap="round" stroke-linejoin="round" stroke-width="2" opacity="0.5"/>
    <circle id="Ellipse_3" data-name="Ellipse 3" cx="26" cy="26" r="26" transform="translate(874 506)" fill="none" stroke="#1b8cff" stroke-linecap="round" stroke-linejoin="round" stroke-width="4"/>
    <circle id="Ellipse_4" data-name="Ellipse 4" cx="20" cy="20" r="20" transform="translate(880 512)" fill="none" stroke="#1b8cff" stroke-linecap="round" stroke-linejoin="round" stroke-width="2"/>
    <path id="Path_4" data-name="Path 4" d="M916,532a16,16,0,0,0-16-16" fill="none" stroke="#ffffff" stroke-linecap="round" stroke-linejoin="round" stroke-width="2" opacity="0.5"/>
    <circle id="Ellipse_5" data-name="Ellipse 5" cx="5" cy="5" r="5" transform="translate(895 527)" fill="none" stroke="#1b8cff" stroke-linecap="round" stroke-linejoin="round" stroke-width="2"/>
    <circle id="Ellipse_6" data-name="Ellipse 6" cx="4" cy="4" r="4" transform="translate(896 498)" fill="none" stroke="#1b8cff" stroke-linecap="round" stroke-linejoin="round" stroke-width="4"/>
    <line id="Line_20" data-name="Line 20" x1="5" transform="translate(891 502)" fill="none" stroke="#1b8cff" stroke-linecap="round" stroke-linejoin="round" stroke-width="2"/>
    <line id="Line_21" data-name="Line 21" x1="5" transform="translate(904 502)" fill="none" stroke="#1b8cff" stroke-linecap="round" stroke-linejoin="round" stroke-width="2"/>
    <line id="Line_22" data-name="Line 22" x2="60" transform="translate(870 558)" fill="none" stroke="#1b8cff" stroke-linecap="round" stroke-linejoin="round" stroke-width="4" opacity="0.3"/>
    <line id="Line_23" data-name="Line 23" y1="6" transform="translate(900 506)" fill="none" stroke="#1b8cff" stroke-linejoin="round" stroke-width="2"/>
    <line id="Line_24" data-name="Line 24" y1="6" transform="translate(900 552)" fill="none" stroke="#1b8cff" stroke-linejoin="round" stroke-width="2"/>
    <line id="Line_25" data-name="Line 25" x1="6" transform="translate(874 532)" fill="none" stroke="#1b8cff" stroke-linejoin="round" stroke-width="2"/>
    <line id="Line_26" data-name="Line 26" x1="6" transform="translate(920 532)" fill="none" stroke="#1b8cff" stroke-linejoin="round" stroke-width="2"/>
    <path id="Path_5" data-name="Path 5" d="M895.006,530.734l-4.095-9.6,8.7,5.764" fill="none" stroke="#1b8cff" stroke-miterlimit="10" stroke-width="2"/>
    <path id="Path_6" data-name="Path 6" d="M900.487,536.894l8.951,5.376-4.513-9.413" fill="none" stroke="#1b8cff" stroke-miterlimit="10" stroke-width="2"/>
  </g>
</svg>
