<?xml version="1.0" encoding="UTF-8"?>
<!-- Generator: visioncortex VTracer 0.6.5 -->
<svg version="1.1" xmlns="http://www.w3.org/2000/svg" width="200" height="132">
<path d="M0,0 L15,0 L27,3 L29,4 L27,11 L39,17 L48,25 L48,27 L42,32 L47,39 L46,42 L41,43 L42,38 L35,30 L25,24 L16,21 L2,20 L1,24 L-10,28 L-18,34 L-24,41 L-28,51 L-29,57 L-29,65 L-27,74 L-23,82 L-15,91 L-5,96 L2,98 L2,102 L5,101 L5,95 L20,92 L29,87 L34,82 L38,84 L38,88 L36,91 L40,86 L40,81 L45,83 L46,85 L42,90 L48,94 L47,98 L39,105 L31,110 L19,114 L6,115 L-10,112 L-16,111 L-20,107 L-29,100 L-36,92 L-43,78 L-45,70 L-45,52 L-41,39 L-37,34 L-36,32 L-41,31 L-43,30 L-41,25 L-30,13 L-19,6 L-6,1 Z M-2,8 L-9,10 L-5,11 L-1,10 L17,9 L17,8 Z M17,9 L21,10 Z M21,10 Z M-12,11 L-14,13 L-9,12 Z M-16,13 Z M-18,14 L-24,18 L-25,20 L-21,18 L-16,15 Z M-2,16 L-5,18 L17,17 L17,16 Z M17,17 L21,18 Z M-8,18 L-18,23 L-28,32 L-34,42 L-37,52 L-37,69 L-34,79 L-32,81 L-33,76 L-35,68 L-35,54 L-32,44 L-26,34 L-21,28 L-10,21 L-5,19 Z M21,18 Z M24,19 L28,22 L32,23 L29,20 Z M-27,20 L-32,25 L-31,27 L-25,20 Z M32,23 L33,25 L35,24 Z M35,25 Z M36,26 L41,31 L39,27 Z M-33,27 Z M-34,28 L-34,31 Z M-36,31 Z M-32,81 L-30,87 L-22,96 L-20,95 L-28,86 L-31,81 Z M40,91 L37,95 L41,93 Z M33,92 Z M32,93 Z M30,94 Z M29,95 Z M36,95 Z M-20,96 L-18,99 L-16,98 Z M27,96 Z M35,96 Z M25,97 Z M34,97 Z M22,98 Z M32,98 Z M-16,99 Z M19,99 Z M30,99 Z M-14,100 Z M15,100 L19,101 Z M29,100 Z M-12,101 Z M27,101 Z M-10,102 Z M24,102 Z M-8,103 Z M21,103 Z M-5,104 L-1,105 Z M18,104 Z M-1,105 L-1,106 L7,106 L7,105 Z M9,105 L9,106 L17,106 L17,105 Z " fill="#8AC04F" transform="translate(58,5)"/>
<path d="M0,0 L22,0 L36,4 L49,11 L61,22 L65,28 L58,33 L54,31 L48,24 L37,17 L35,16 L36,10 L29,7 L19,5 L3,5 L-10,8 L-24,15 L-32,22 L-34,22 L-36,26 L-38,30 L-40,32 L-44,38 L-39,40 L-43,53 L-43,79 L-41,83 L-40,86 L-38,92 L-31,103 L-22,111 L-9,118 L-12,126 L-8,126 L-7,120 L-6,118 L5,120 L17,120 L30,117 L42,111 L51,103 L58,92 L59,90 L66,92 L67,95 L65,99 L67,99 L66,104 L55,116 L44,124 L31,130 L22,132 L-1,132 L-14,128 L-24,123 L-33,116 L-41,108 L-48,97 L-53,85 L-55,76 L-55,56 L-51,41 L-43,27 L-34,17 L-24,9 L-11,3 Z M-45,58 L-45,73 L-44,73 L-44,58 Z M63,100 Z M62,102 Z M61,103 Z M60,104 L61,106 Z M59,106 Z M58,107 Z M57,108 Z M56,109 Z M55,110 Z M54,111 Z M53,112 Z M52,113 Z M51,114 Z M50,115 Z M49,116 Z M47,117 Z M46,118 Z M44,119 Z M43,120 Z M41,121 Z M39,122 Z M37,123 Z M34,124 Z M32,125 Z M29,126 Z M-6,127 L-2,128 Z M25,127 Z M-1,128 L3,129 Z M20,128 L24,129 Z M5,129 L5,130 L17,130 L17,129 Z " fill="#89C04E" transform="translate(55,0)"/>
<path d="M0,0 L18,0 L29,4 L38,10 L45,17 L48,22 L47,25 L42,26 L43,21 L36,13 L26,7 L17,4 L3,3 L2,7 L-9,11 L-17,17 L-23,24 L-27,34 L-28,40 L-28,48 L-26,57 L-22,65 L-14,74 L-4,79 L3,81 L3,85 L6,84 L6,78 L21,75 L30,70 L35,65 L39,67 L39,71 L37,74 L41,69 L41,64 L46,66 L47,68 L40,76 L33,82 L25,86 L19,88 L8,89 L-4,87 L-16,81 L-25,73 L-31,64 L-35,51 L-35,37 L-32,27 L-26,17 L-20,10 L-9,3 Z M34,75 Z M33,76 Z M31,77 Z M30,78 Z M28,79 Z M26,80 Z M23,81 Z M20,82 Z M16,83 L20,84 Z " fill="#23A8CD" transform="translate(57,22)"/>
<path d="M0,0 L11,0 L22,4 L31,10 L36,15 L35,18 L31,20 L24,13 L19,10 L18,11 L21,14 L17,16 L8,13 L-1,13 L-11,17 L-18,23 L-22,32 L-23,36 L-23,44 L-19,55 L-14,61 L-4,66 L5,67 L17,64 L22,62 L24,66 L13,71 L9,72 L-1,72 L-3,71 L-4,74 L-13,71 L-21,65 L-27,57 L-28,52 L-28,36 L-25,26 L-19,18 L-12,12 L-1,8 L8,7 L0,6 Z M10,7 L9,9 L16,10 L16,8 Z M-27,49 L-26,51 Z " fill="#1BA3CB" transform="translate(63,26)"/>
<path d="M0,0 L21,0 L23,4 L22,14 L21,15 L1,15 L0,14 Z M18,5 L20,7 L22,5 Z M20,7 Z M19,8 L18,10 L22,9 Z M4,9 Z " fill="#296390" transform="translate(158,59)"/>
<path d="M0,0 L18,0 L19,5 L1,6 L1,9 L19,10 L18,15 L0,15 L-5,10 L-4,3 Z " fill="#165787" transform="translate(55,59)"/>
<path d="M0,0 L5,1 L19,11 L19,14 L15,15 L11,12 L-7,12 L-12,15 L-15,14 L-14,10 L-3,2 Z M1,5 L0,7 L4,6 Z " fill="#27608E" transform="translate(114,59)"/>
<path d="M0,0 L18,0 L21,3 L21,9 L18,12 L3,12 L2,15 L-1,14 L-1,1 Z M3,5 L3,7 L17,7 L16,5 Z " fill="#205B89" transform="translate(135,59)"/>
<path d="M0,0 L5,1 L17,1 L21,1 L22,2 L22,11 L20,15 L17,14 L17,10 L3,10 L2,15 L-2,13 L-2,2 Z M3,2 L4,5 Z M5,3 L5,4 L15,4 L15,3 Z " fill="#37679E" transform="translate(77,59)"/>
<path d="M0,0 L10,0 L21,4 L30,10 L35,15 L34,18 L30,20 L23,13 L18,10 L15,10 L15,8 L10,6 L0,5 Z " fill="#25A6CD" transform="translate(64,26)"/>
<path d="M0,0 L18,0 L29,4 L38,10 L45,17 L48,22 L47,25 L42,26 L43,21 L36,13 L26,7 L17,4 L3,3 L2,7 L-1,6 L2,5 L2,2 L-4,2 Z " fill="#32ADD1" transform="translate(57,22)"/>
<path d="M0,0 L5,2 L6,4 L-1,12 L-8,18 L-16,22 L-22,23 L-26,21 L-35,20 L-35,14 L-24,13 L-28,15 L-34,15 L-34,19 L-21,19 L-18,17 L-15,16 L-10,14 L-1,7 Z " fill="#2FAAD0" transform="translate(98,86)"/>
<path d="M0,0 L2,0 L1,5 L-10,17 L-21,25 L-34,31 L-37,30 L-36,27 L-26,24 L-22,21 L-18,19 L-16,17 L-9,11 L-3,4 L-4,1 Z " fill="#94C85B" transform="translate(120,99)"/>
<path d="M0,0 L15,5 L15,9 L33,9 L31,10 L31,12 L20,13 L8,11 L3,9 L4,4 L0,2 Z " fill="#2EA8CE" transform="translate(45,98)"/>
<path d="M0,0 L3,2 L3,10 L16,10 L15,15 L-1,15 L-2,13 L-2,2 Z " fill="#195888" transform="translate(184,59)"/>
<path d="M0,0 L6,1 L4,13 L4,21 L6,32 L4,31 L4,28 L2,28 L1,12 L-1,13 L-2,24 L-3,24 L-3,10 Z " fill="#27A8CC" transform="translate(25,49)"/>
<path d="M0,0 L2,1 L2,17 L4,17 L6,21 L6,27 L8,27 L7,29 L4,27 L4,25 L2,25 L-2,13 L-2,2 Z " fill="#029EC9" transform="translate(25,60)"/>
<path d="M0,0 L11,2 L9,4 L1,3 L1,7 L9,8 L9,10 L11,12 L9,14 L1,13 L-6,11 L-3,8 L-2,5 Z M0,9 L4,10 Z " fill="#90C556" transform="translate(49,118)"/>
<path d="M0,0 L2,0 L4,4 L-7,9 L-11,10 L-21,10 L-23,9 L-24,11 L-24,8 L-8,7 L-11,7 L-19,7 L-23,5 L-15,5 L-3,2 Z " fill="#3EAED3" transform="translate(83,88)"/>
<path d="M0,0 L8,0 L11,2 L16,2 L24,6 L22,10 L15,9 L15,7 L10,5 L0,4 Z " fill="#0DA0CC" transform="translate(64,27)"/>
<path d="M0,0 L5,1 L12,6 L9,6 L6,5 L7,9 L-4,9 L-4,6 L-7,5 Z M1,5 L0,7 L4,6 Z " fill="#275E8B" transform="translate(114,59)"/>
<path d="M0,0 L2,1 L3,4 L19,5 L19,1 L21,1 L21,12 L19,12 L19,8 L2,8 L1,12 Z " fill="#054E81" transform="translate(76,60)"/>
<path d="M0,0 L2,0 L3,4 L1,4 L1,6 L-2,7 L-15,7 L-15,3 Z " fill="#07A0CA" transform="translate(79,98)"/>
<path d="M0,0 L16,0 L24,2 L24,5 L21,6 L12,3 L3,3 L-5,4 L-5,2 Z " fill="#1AA6CF" transform="translate(59,36)"/>
<path d="M0,0 L18,0 L19,2 L0,2 L2,11 L18,11 L18,12 L3,12 L2,15 L-1,14 L-1,1 Z " fill="#346691" transform="translate(135,59)"/>
<path d="M0,0 L3,1 L2,4 L-6,10 L-8,11 L-8,8 L-12,11 L-15,10 L-9,3 L-5,5 L-4,6 L-3,2 Z " fill="#1EA7CE" transform="translate(46,29)"/>
<path d="M0,0 L4,1 L9,3 L11,8 L6,6 L-13,5 L-13,1 L-10,1 L-10,4 L1,4 Z " fill="#014D81" transform="translate(120,64)"/>
<path d="M0,0 L8,0 L23,4 L23,6 L13,4 L-6,3 L-6,1 Z " fill="#91C665" transform="translate(62,18)"/>
<path d="M0,0 L7,1 L7,4 L26,3 L24,4 L24,6 L13,7 L-1,3 Z " fill="#10A9D4" transform="translate(52,104)"/>
<path d="M0,0 L5,1 L10,6 L9,9 L5,11 L-1,2 Z " fill="#17A3CB" transform="translate(89,35)"/>
<path d="M0,0 L19,0 L19,7 L17,3 L2,2 L3,9 L1,10 L0,7 Z " fill="#004D80" transform="translate(135,61)"/>
<path d="M0,0 L15,0 L21,1 L19,3 L-4,3 L-6,1 Z " fill="#90C656" transform="translate(58,5)"/>
<path d="M0,0 L9,0 L8,5 L-10,5 L-10,3 L7,3 L7,1 L0,1 Z " fill="#29618D" transform="translate(65,69)"/>
<path d="M0,0 L9,2 L14,2 L14,5 L9,6 L-2,3 Z " fill="#9ACC64" transform="translate(45,126)"/>
<path d="M0,0 L4,1 L4,3 L9,5 L8,9 L3,8 L0,4 Z " fill="#079EC8" transform="translate(41,97)"/>
<path d="M0,0 L4,1 L7,3 L6,7 L-1,13 L-1,10 L4,4 L0,4 L-1,2 Z " fill="#91C751" transform="translate(99,96)"/>
<path d="M0,0 L18,0 L18,3 L0,3 Z M1,1 L1,2 L17,2 L17,1 Z " fill="#082867" transform="translate(56,65)"/>
<path d="M0,0 L11,0 L19,1 L19,2 L6,3 L-2,2 Z " fill="#91C65B" transform="translate(58,117)"/>
<path d="M0,0 L7,6 L11,12 L7,14 L6,9 L0,2 Z " fill="#8EC655" transform="translate(109,16)"/>
<path d="M0,0 L6,0 L4,4 L1,6 L1,4 L-2,4 Z " fill="#0BA0CA" transform="translate(91,90)"/>
<path d="M0,0 L5,2 L6,4 L2,8 L0,7 Z " fill="#3CB2D5" transform="translate(98,86)"/>
<path d="M0,0 L2,1 L1,21 L0,21 L-1,3 Z " fill="#8FC55F" transform="translate(20,53)"/>
<path d="M0,0 L3,1 L2,6 L0,11 L-2,7 L-3,5 Z " fill="#31ABD0" transform="translate(41,47)"/>
<path d="M0,0 L11,0 L15,4 L15,5 L10,5 L10,3 L0,1 Z " fill="#98CC62" transform="translate(62,127)"/>
<path d="M0,0 L7,1 L8,5 L-1,3 Z " fill="#019FCA" transform="translate(52,104)"/>
<path d="M0,0 L5,2 L7,5 L1,3 L1,6 L-7,6 L-5,4 L-1,5 Z " fill="#507CA0" transform="translate(119,61)"/>
<path d="M0,0 L4,0 L4,3 L2,4 L-4,4 L-6,2 Z " fill="#019FCA" transform="translate(55,24)"/>
<path d="M0,0 L4,4 L9,10 L11,12 L8,12 L1,5 Z " fill="#8FC658" transform="translate(27,90)"/>
<path d="M0,0 L6,1 L8,3 L6,6 L0,2 Z " fill="#009DC8" transform="translate(80,31)"/>
<path d="M0,0 L2,0 L2,5 L0,9 L-2,9 L-2,2 Z " fill="#87BC50" transform="translate(17,21)"/>
<path d="M0,0 L3,0 L1,4 L-2,7 L-5,6 Z " fill="#13A4CE" transform="translate(97,93)"/>
<path d="M0,0 L2,1 L2,7 L-4,7 L-2,6 Z " fill="#089EC8" transform="translate(30,43)"/>
<path d="M0,0 L5,1 L5,5 L-1,3 Z " fill="#145787" transform="translate(114,59)"/>
<path d="M0,0 L2,0 L0,12 L-2,10 L-1,3 Z " fill="#8FC556" transform="translate(11,46)"/>
<path d="M0,0 L4,2 L11,8 L9,10 L0,1 Z " fill="#92C759" transform="translate(16,109)"/>
<path d="M0,0 L11,6 L13,8 L7,7 L-1,2 Z " fill="#32A0D1" transform="translate(43,93)"/>
<path d="M0,0 L7,1 L3,4 L0,5 L-1,3 L-3,2 Z " fill="#42B2D4" transform="translate(51,38)"/>
<path d="M0,0 L2,0 L1,5 L-1,6 L-5,4 Z " fill="#0F9FC9" transform="translate(36,37)"/>
<path d="M0,0 L4,1 L11,8 L9,10 L3,3 Z " fill="#92C858" transform="translate(100,21)"/>
<path d="M0,0 L4,1 L3,4 L1,4 L0,7 L-2,3 Z " fill="#96CA61" transform="translate(20,18)"/>
<path d="M0,0 L2,0 L1,3 L-5,6 L-8,5 L-6,3 Z " fill="#93CA5C" transform="translate(93,113)"/>
<path d="M0,0 L3,4 L4,7 L3,9 L1,9 L-1,4 Z " fill="#8BC856" transform="translate(11,79)"/>
<path d="M0,0 L21,0 L21,1 L0,1 Z " fill="#3B4798" transform="translate(158,57)"/>
<path d="M0,0 L19,0 L19,1 L-1,2 Z " fill="#445195" transform="translate(54,57)"/>
<path d="M0,0 L5,2 L3,4 L-3,4 L-4,2 L0,2 Z " fill="#8FC455" transform="translate(79,127)"/>
<path d="M0,0 L3,0 L6,10 L2,6 Z " fill="#20A6CD" transform="translate(35,79)"/>
<path d="M0,0 L20,0 L20,1 L0,1 Z " fill="#5555AA" transform="translate(159,75)"/>
<path d="M0,0 L2,1 L1,5 L-3,5 L-5,4 Z " fill="#37ADD2" transform="translate(92,97)"/>
<path d="M0,0 L19,0 L19,1 L0,1 Z " fill="#35649A" transform="translate(54,75)"/>
<path d="M0,0 L4,2 L5,6 L0,4 Z " fill="#0F5485" transform="translate(126,66)"/>
<path d="M0,0 L3,1 L0,3 L-6,5 L-5,2 Z " fill="#97CA62" transform="translate(46,14)"/>
<path d="M0,0 L2,0 L0,6 L2,6 L2,8 L-2,7 L-1,1 Z " fill="#92CB56" transform="translate(92,9)"/>
<path d="M0,0 L4,0 L4,2 L-3,3 L-6,1 Z " fill="#94C65A" transform="translate(78,119)"/>
<path d="M0,0 L7,2 L6,4 L-1,4 Z " fill="#96CA60" transform="translate(114,90)"/>
<path d="M0,0 L1,0 L1,6 L12,6 L12,7 L0,7 Z " fill="#0E2E4B" transform="translate(188,61)"/>
<path d="M0,0 L18,0 L18,1 L0,1 Z " fill="#4659A5" transform="translate(135,57)"/>
<path d="M0,0 L4,1 L2,4 L-5,2 L-1,1 Z " fill="#47B7D7" transform="translate(80,38)"/>
<path d="M0,0 L3,1 L2,6 L0,6 L-1,1 Z " fill="#09A0CA" transform="translate(86,94)"/>
<path d="M0,0 L2,1 L1,9 L-1,8 Z " fill="#8EC552" transform="translate(2,47)"/>
<path d="M0,0 L16,0 L16,1 L0,1 Z " fill="#08526C" transform="translate(183,75)"/>
<path d="M0,0 L16,0 L16,1 L0,1 Z " fill="#00001F" transform="translate(108,72)"/>
<path d="M0,0 L12,0 L11,3 L11,1 L1,1 L0,3 Z " fill="#0F7884" transform="translate(81,70)"/>
<path d="M0,0 L15,0 L15,1 L0,1 Z " fill="#68C6E4" transform="translate(59,91)"/>
<path d="M0,0 L14,0 L14,1 L0,1 Z " fill="#4B5999" transform="translate(139,72)"/>
<path d="M0,0 L1,0 L0,13 L-1,13 Z " fill="#2682B4" transform="translate(30,56)"/>
<path d="M0,0 L1,0 L1,10 L0,10 Z " fill="#00C7D4" transform="translate(33,61)"/>
<path d="M0,0 L1,0 L1,9 L-1,7 Z " fill="#06437E" transform="translate(132,60)"/>
<path d="M0,0 L2,1 L0,6 L-2,5 Z " fill="#87C14B" transform="translate(46,119)"/>
<path d="M0,0 L1,0 L2,6 L0,7 Z " fill="#085ABF" transform="translate(100,61)"/>
<path d="M0,0 L5,0 L1,2 L-2,1 Z " fill="#225BAF" transform="translate(58,40)"/>
<path d="M0,0 L8,0 L8,1 L0,1 Z " fill="#0075BC" transform="translate(63,39)"/>
<path d="M0,0 L5,0 L1,2 L-2,1 Z " fill="#287EDA" transform="translate(57,33)"/>
<path d="M0,0 L4,4 L0,2 Z " fill="#85B01E" transform="translate(17,112)"/>
<path d="M0,0 L3,2 L3,4 L1,4 Z " fill="#4392E2" transform="translate(32,79)"/>
<path d="M0,0 L2,1 L-1,4 L-2,2 L0,2 Z " fill="#79C555" transform="translate(19,38)"/>
<path d="M0,0 L1,0 L1,6 L0,6 Z " fill="#2AA1C6" transform="translate(61,100)"/>
<path d="M0,0 L2,3 L0,4 L-1,1 Z " fill="#4AA3E1" transform="translate(37,86)"/>
<path d="M0,0 L2,3 L0,4 L-1,1 Z " fill="#16ABC3" transform="translate(35,83)"/>
<path d="M0,0 L1,0 L1,6 L0,6 Z " fill="#58DBF4" transform="translate(30,69)"/>
<path d="M0,0 L1,0 L1,5 L-1,1 Z " fill="#00465C" transform="translate(156,68)"/>
<path d="M0,0 L1,0 L1,6 L0,6 Z " fill="#0071AD" transform="translate(40,63)"/>
<path d="M0,0 L1,0 L1,6 L0,6 Z " fill="#009CBB" transform="translate(61,26)"/>
<path d="M0,0 L1,2 L4,3 L0,3 Z " fill="#7F9B39" transform="translate(86,14)"/>
<path d="M0,0 L3,3 L0,2 Z " fill="#547D2A" transform="translate(26,103)"/>
<path d="M0,0 L2,1 L-2,2 Z " fill="#1470B7" transform="translate(79,88)"/>
<path d="M0,0 L3,3 L0,2 Z " fill="#6666CC" transform="translate(47,83)"/>
<path d="M0,0 L2,1 L-2,2 Z " fill="#112A6E" transform="translate(131,74)"/>
<path d="M0,0 L4,2 L0,1 Z " fill="#111155" transform="translate(75,74)"/>
<path d="M0,0 L1,0 L1,5 L0,5 Z " fill="#37AEE5" transform="translate(41,69)"/>
<path d="M0,0 L1,0 L1,5 L0,5 Z " fill="#1166CC" transform="translate(48,64)"/>
<path d="M0,0 L1,0 L1,5 L0,5 Z " fill="#37AEBB" transform="translate(41,58)"/>
<path d="M0,0 L5,0 L5,1 L0,1 Z " fill="#2A5AA8" transform="translate(55,30)"/>
<path d="M0,0 L2,1 L1,4 Z " fill="#66902A" transform="translate(87,11)"/>
<path d="M0,0 L2,0 L1,3 Z " fill="#62A44B" transform="translate(88,9)"/>
<path d="M0,0 L3,1 L-1,2 Z " fill="#4C9919" transform="translate(36,4)"/>
<path d="M0,0 L4,1 Z " fill="#7F9F20" transform="translate(82,131)"/>
<path d="M0,0 L4,1 Z " fill="#7F9F20" transform="translate(46,131)"/>
<path d="M0,0 L3,1 L0,1 Z " fill="#5DAA3D" transform="translate(32,109)"/>
<path d="M0,0 L0,3 Z " fill="#66922C" transform="translate(120,105)"/>
<path d="M0,0 L2,1 L1,3 Z " fill="#509D22" transform="translate(11,105)"/>
<path d="M0,0 L4,1 Z " fill="#12AFD7" transform="translate(56,101)"/>
<path d="M0,0 L2,1 L1,3 Z " fill="#60AF38" transform="translate(21,97)"/>
<path d="M0,0 L3,1 L0,1 Z " fill="#3FB415" transform="translate(102,95)"/>
<path d="M0,0 L2,1 L1,3 Z " fill="#7CA62A" transform="translate(19,94)"/>
<path d="M0,0 L0,3 Z " fill="#15AAC9" transform="translate(96,86)"/>
<path d="M0,0 L1,4 Z " fill="#60BF40" transform="translate(0,81)"/>
<path d="M0,0 L1,4 Z " fill="#83C045" transform="translate(12,75)"/>
<path d="M0,0 L1,4 Z " fill="#15BBF2" transform="translate(34,71)"/>
<path d="M0,0 L3,1 L0,1 Z " fill="#152E50" transform="translate(125,63)"/>
<path d="M0,0 L2,1 L-1,1 Z " fill="#152E50" transform="translate(109,60)"/>
<path d="M0,0 L1,4 Z " fill="#10B0CD" transform="translate(34,57)"/>
<path d="M0,0 L2,0 L1,3 Z " fill="#001079" transform="translate(155,59)"/>
<path d="M0,0 L4,1 Z " fill="#2A8AB4" transform="translate(114,57)"/>
<path d="M0,0 L1,4 Z " fill="#83BB40" transform="translate(12,53)"/>
<path d="M0,0 L0,3 Z " fill="#4F95A2" transform="translate(46,48)"/>
<path d="M0,0 L1,4 Z " fill="#BFDF5F" transform="translate(0,47)"/>
<path d="M0,0 L2,0 L1,3 Z " fill="#0C86E2" transform="translate(96,45)"/>
<path d="M0,0 L2,1 L-1,1 Z " fill="#158AE9" transform="translate(50,44)"/>
<path d="M0,0 L0,3 Z " fill="#00CFCF" transform="translate(42,43)"/>
<path d="M0,0 L0,3 Z " fill="#1590B2" transform="translate(37,42)"/>
<path d="M0,0 L2,1 L1,3 Z " fill="#15509D" transform="translate(103,39)"/>
<path d="M0,0 L2,1 L-1,1 Z " fill="#0060AF" transform="translate(45,40)"/>
<path d="M0,0 L3,1 L0,1 Z " fill="#108FAA" transform="translate(85,39)"/>
<path d="M0,0 L4,1 Z " fill="#30DFEF" transform="translate(71,40)"/>
<path d="M0,0 L2,1 L-1,1 Z " fill="#7F9F20" transform="translate(103,34)"/>
<path d="M0,0 L2,1 L1,3 Z " fill="#358A35" transform="translate(119,24)"/>
<path d="M0,0 L3,1 L0,1 Z " fill="#89BA44" transform="translate(97,21)"/>
<path d="M0,0 L3,1 L0,1 Z " fill="#618E34" transform="translate(94,19)"/>
<path d="M0,0 L2,1 L-1,1 Z " fill="#839022" transform="translate(25,11)"/>
<path d="M0,0 L3,1 L0,1 Z " fill="#509D22" transform="translate(105,11)"/>
<path d="M0,0 L3,1 Z " fill="#AAD42A" transform="translate(86,130)"/>
<path d="M0,0 L3,1 Z " fill="#AAD42A" transform="translate(43,130)"/>
<path d="M0,0 L3,1 Z " fill="#477815" transform="translate(91,128)"/>
<path d="M0,0 L3,1 Z " fill="#55E915" transform="translate(38,128)"/>
<path d="M0,0 L1,2 L-1,1 Z " fill="#63E931" transform="translate(113,113)"/>
<path d="M0,0 L3,1 Z " fill="#47CD15" transform="translate(118,90)"/>
<path d="M0,0 L3,1 Z " fill="#1CC0DD" transform="translate(74,90)"/>
<path d="M0,0 L3,1 Z " fill="#4094D4" transform="translate(56,90)"/>
<path d="M0,0 Z " fill="#9CCD15" transform="translate(2,88)"/>
<path d="M0,0 Z " fill="#85C058" transform="translate(1,85)"/>
<path d="M0,0 Z " fill="#60D334" transform="translate(13,80)"/>
<path d="M0,0 Z " fill="#1CA3B8" transform="translate(31,76)"/>
<path d="M0,0 Z " fill="#6AB1CD" transform="translate(42,74)"/>
<path d="M0,0 L1,2 L-1,1 Z " fill="#00556A" transform="translate(181,72)"/>
<path d="M0,0 Z " fill="#00CDE9" transform="translate(35,54)"/>
<path d="M0,0 Z " fill="#40B1CD" transform="translate(31,53)"/>
<path d="M0,0 Z " fill="#8ABE4A" transform="translate(13,49)"/>
<path d="M0,0 L3,1 Z " fill="#15BFBF" transform="translate(99,49)"/>
<path d="M0,0 Z " fill="#15BFBF" transform="translate(33,48)"/>
<path d="M0,0 Z " fill="#8AB851" transform="translate(14,46)"/>
<path d="M0,0 Z " fill="#80D455" transform="translate(1,44)"/>
<path d="M0,0 Z " fill="#63CD15" transform="translate(2,41)"/>
<path d="M0,0 L3,1 Z " fill="#15AAD4" transform="translate(75,41)"/>
<path d="M0,0 L2,2 L0,2 Z " fill="#5BD634" transform="translate(107,30)"/>
<path d="M0,0 L3,1 Z " fill="#4094D4" transform="translate(52,31)"/>
<path d="M0,0 L2,0 L1,2 Z " fill="#619230" transform="translate(103,26)"/>
<path d="M0,0 L3,1 Z " fill="#639431" transform="translate(86,1)"/>
<path d="M0,0 L3,1 Z " fill="#639431" transform="translate(43,1)"/>
<path d="M0,0 L3,1 Z " fill="#88B52D" transform="translate(82,0)"/>
<path d="M0,0 L3,1 Z " fill="#88B52D" transform="translate(47,0)"/>
<path d="M0,0 L2,1 Z " fill="#88A144" transform="translate(89,129)"/>
<path d="M0,0 L2,1 Z " fill="#88A144" transform="translate(41,129)"/>
<path d="M0,0 L2,1 Z " fill="#33CC19" transform="translate(94,127)"/>
<path d="M0,0 L2,1 Z " fill="#CCE519" transform="translate(36,127)"/>
<path d="M0,0 L2,1 Z " fill="#40DF20" transform="translate(97,125)"/>
<path d="M0,0 L2,1 Z " fill="#405F20" transform="translate(33,125)"/>
<path d="M0,0 L2,1 Z " fill="#80DF60" transform="translate(99,124)"/>
<path d="M0,0 L2,1 Z " fill="#7FAA55" transform="translate(31,124)"/>
<path d="M0,0 L2,1 Z " fill="#95D42A" transform="translate(102,122)"/>
<path d="M0,0 L2,1 Z " fill="#D4FF2A" transform="translate(28,122)"/>
<path d="M0,0 L2,1 Z " fill="#BFDF9F" transform="translate(105,120)"/>
<path d="M0,0 L2,1 Z " fill="#809F60" transform="translate(25,120)"/>
<path d="M0,0 L2,1 Z " fill="#80BF40" transform="translate(46,117)"/>
<path d="M0,0 L2,1 Z " fill="#405515" transform="translate(44,116)"/>
<path d="M0,0 L2,1 Z " fill="#95DF4A" transform="translate(38,113)"/>
<path d="M0,0 L2,1 Z " fill="#87E22A" transform="translate(36,112)"/>
<path d="M0,0 Z " fill="#D4D42A" transform="translate(122,102)"/>
<path d="M0,0 Z " fill="#80DF60" transform="translate(9,102)"/>
<path d="M0,0 Z " fill="#AAD455" transform="translate(123,100)"/>
<path d="M0,0 Z " fill="#CCE519" transform="translate(7,99)"/>
<path d="M0,0 Z " fill="#80DF60" transform="translate(108,97)"/>
<path d="M0,0 Z " fill="#95B44A" transform="translate(6,97)"/>
<path d="M0,0 Z " fill="#CCE519" transform="translate(122,95)"/>
<path d="M0,0 Z " fill="#7FAA55" transform="translate(5,95)"/>
<path d="M0,0 Z " fill="#95B44A" transform="translate(110,94)"/>
<path d="M0,0 Z " fill="#95956A" transform="translate(123,93)"/>
<path d="M0,0 Z " fill="#95DF4A" transform="translate(4,93)"/>
<path d="M0,0 Z " fill="#8CA659" transform="translate(111,92)"/>
<path d="M0,0 Z " fill="#89B04F" transform="translate(18,92)"/>
<path d="M0,0 Z " fill="#6AB44A" transform="translate(3,91)"/>
<path d="M0,0 Z " fill="#4080BF" transform="translate(104,90)"/>
<path d="M0,0 Z " fill="#93BB44" transform="translate(17,90)"/>
<path d="M0,0 L2,1 Z " fill="#77BB44" transform="translate(116,89)"/>
<path d="M0,0 Z " fill="#00BFFF" transform="translate(86,88)"/>
<path d="M0,0 L2,1 Z " fill="#2A95DF" transform="translate(54,89)"/>
<path d="M0,0 Z " fill="#93BB5D" transform="translate(16,88)"/>
<path d="M0,0 L2,1 Z " fill="#40BF40" transform="translate(114,88)"/>
<path d="M0,0 L2,1 Z " fill="#208AB4" transform="translate(52,88)"/>
<path d="M0,0 L2,1 Z " fill="#7FD4FF" transform="translate(81,87)"/>
<path d="M0,0 Z " fill="#80CA5A" transform="translate(15,86)"/>
<path d="M0,0 L2,1 Z " fill="#2A7FAA" transform="translate(101,86)"/>
<path d="M0,0 L2,1 Z " fill="#2AD4FF" transform="translate(83,86)"/>
<path d="M0,0 L2,1 Z " fill="#0040BF" transform="translate(92,85)"/>
<path d="M0,0 L2,1 Z " fill="#00BFBF" transform="translate(98,84)"/>
<path d="M0,0 Z " fill="#2A95DF" transform="translate(44,79)"/>
<path d="M0,0 Z " fill="#2AA1BB" transform="translate(43,77)"/>
<path d="M0,0 L2,1 Z " fill="#2A6A6A" transform="translate(135,75)"/>
<path d="M0,0 L2,1 Z " fill="#2A6A95" transform="translate(100,75)"/>
<path d="M0,0 L2,1 Z " fill="#2AAAD4" transform="translate(95,75)"/>
<path d="M0,0 L2,1 Z " fill="#2A2A6A" transform="translate(102,74)"/>
<path d="M0,0 L2,1 Z " fill="#006080" transform="translate(126,73)"/>
<path d="M0,0 L2,1 Z " fill="#404060" transform="translate(105,72)"/>
<path d="M0,0 Z " fill="#2A4A95" transform="translate(49,69)"/>
<path d="M0,0 L2,1 Z " fill="#40406A" transform="translate(129,66)"/>
<path d="M0,0 L2,1 Z " fill="#404080" transform="translate(102,65)"/>
<path d="M0,0 L2,1 Z " fill="#40407F" transform="translate(105,63)"/>
<path d="M0,0 Z " fill="#004A6A" transform="translate(49,62)"/>
<path d="M0,0 L2,1 Z " fill="#0099B2" transform="translate(122,61)"/>
<path d="M0,0 Z " fill="#00002A" transform="translate(187,59)"/>
<path d="M0,0 Z " fill="#007FBF" transform="translate(181,59)"/>
<path d="M0,0 L2,1 Z " fill="#40406A" transform="translate(119,59)"/>
<path d="M0,0 L2,1 Z " fill="#000000" transform="translate(185,58)"/>
<path d="M0,0 L2,1 Z " fill="#002A55" transform="translate(153,58)"/>
<path d="M0,0 L2,1 Z " fill="#002040" transform="translate(112,58)"/>
<path d="M0,0 L2,1 Z " fill="#000000" transform="translate(75,58)"/>
<path d="M0,0 L2,1 Z " fill="#2A2A2A" transform="translate(183,57)"/>
<path d="M0,0 L2,1 Z " fill="#2A2AAA" transform="translate(95,57)"/>
<path d="M0,0 L2,1 Z " fill="#2A2A2A" transform="translate(77,57)"/>
<path d="M0,0 Z " fill="#2AB4DF" transform="translate(42,55)"/>
<path d="M0,0 Z " fill="#99CCE5" transform="translate(43,53)"/>
<path d="M0,0 Z " fill="#2AA1BB" transform="translate(36,52)"/>
<path d="M0,0 Z " fill="#7FBFD4" transform="translate(44,51)"/>
<path d="M0,0 Z " fill="#598CA6" transform="translate(32,51)"/>
<path d="M0,0 Z " fill="#4080DF" transform="translate(37,50)"/>
<path d="M0,0 Z " fill="#00CCE5" transform="translate(38,48)"/>
<path d="M0,0 L2,1 Z " fill="#008CA6" transform="translate(102,48)"/>
<path d="M0,0 Z " fill="#00D4EA" transform="translate(35,45)"/>
<path d="M0,0 Z " fill="#0095B4" transform="translate(106,44)"/>
<path d="M0,0 Z " fill="#92C849" transform="translate(15,44)"/>
<path d="M0,0 Z " fill="#2A55FF" transform="translate(105,42)"/>
<path d="M0,0 L2,1 Z " fill="#00BFFF" transform="translate(80,43)"/>
<path d="M0,0 L2,1 Z " fill="#00D4EA" transform="translate(52,43)"/>
<path d="M0,0 Z " fill="#95C13E" transform="translate(16,42)"/>
<path d="M0,0 L2,1 Z " fill="#40DFDF" transform="translate(78,42)"/>
<path d="M0,0 L2,1 Z " fill="#19CCE5" transform="translate(54,42)"/>
<path d="M0,0 Z " fill="#73CC59" transform="translate(3,39)"/>
<path d="M0,0 Z " fill="#95B44A" transform="translate(4,37)"/>
<path d="M0,0 Z " fill="#55CC90" transform="translate(101,36)"/>
<path d="M0,0 L2,1 Z " fill="#00CCE5" transform="translate(49,37)"/>
<path d="M0,0 L2,1 Z " fill="#4CE519" transform="translate(17,37)"/>
<path d="M0,0 L2,1 Z " fill="#7FAA2A" transform="translate(13,37)"/>
<path d="M0,0 L2,1 Z " fill="#0095B4" transform="translate(51,36)"/>
<path d="M0,0 L2,1 Z " fill="#40BFDF" transform="translate(43,36)"/>
<path d="M0,0 Z " fill="#95B44A" transform="translate(5,35)"/>
<path d="M0,0 L2,1 Z " fill="#0095B4" transform="translate(53,35)"/>
<path d="M0,0 Z " fill="#95B44A" transform="translate(13,34)"/>
<path d="M0,0 L2,1 Z " fill="#80DF60" transform="translate(111,34)"/>
<path d="M0,0 L2,1 Z " fill="#2A95B4" transform="translate(46,34)"/>
<path d="M0,0 Z " fill="#80DF60" transform="translate(6,33)"/>
<path d="M0,0 L2,1 Z " fill="#40CCE5" transform="translate(48,33)"/>
<path d="M0,0 L2,1 Z " fill="#95D42A" transform="translate(114,32)"/>
<path d="M0,0 L2,1 Z " fill="#2AA1A1" transform="translate(50,32)"/>
<path d="M0,0 Z " fill="#CCE519" transform="translate(7,31)"/>
<path d="M0,0 L2,1 Z " fill="#95D46A" transform="translate(117,30)"/>
<path d="M0,0 Z " fill="#738C59" transform="translate(9,28)"/>
<path d="M0,0 Z " fill="#80BF40" transform="translate(12,24)"/>
<path d="M0,0 L2,1 Z " fill="#80BF50" transform="translate(92,18)"/>
<path d="M0,0 L2,1 Z " fill="#C6E22A" transform="translate(90,17)"/>
<path d="M0,0 L2,1 Z " fill="#80DF60" transform="translate(102,9)"/>
<path d="M0,0 L2,1 Z " fill="#95D46A" transform="translate(28,9)"/>
<path d="M0,0 L2,1 Z " fill="#8CA659" transform="translate(99,7)"/>
<path d="M0,0 L2,1 Z " fill="#73CC59" transform="translate(31,7)"/>
<path d="M0,0 L2,1 Z " fill="#7FAA2A" transform="translate(97,6)"/>
<path d="M0,0 L2,1 Z " fill="#95FF2A" transform="translate(33,6)"/>
<path d="M0,0 L2,1 Z " fill="#809F20" transform="translate(95,5)"/>
<path d="M0,0 L2,1 Z " fill="#80DF20" transform="translate(93,4)"/>
<path d="M0,0 L2,1 Z " fill="#95DF4A" transform="translate(91,3)"/>
<path d="M0,0 L2,1 Z " fill="#80BF40" transform="translate(39,3)"/>
<path d="M0,0 L2,1 Z " fill="#8CE559" transform="translate(89,2)"/>
<path d="M0,0 L2,1 Z " fill="#8CE559" transform="translate(41,2)"/>
<path d="M0,0 Z " fill="#80BF40" transform="translate(96,126)"/>
<path d="M0,0 Z " fill="#669933" transform="translate(35,126)"/>
<path d="M0,0 Z " fill="#99CC66" transform="translate(101,123)"/>
<path d="M0,0 Z " fill="#99CC66" transform="translate(30,123)"/>
<path d="M0,0 Z " fill="#99CC66" transform="translate(104,121)"/>
<path d="M0,0 Z " fill="#99CC66" transform="translate(27,121)"/>
<path d="M0,0 Z " fill="#AAFF55" transform="translate(107,119)"/>
<path d="M0,0 Z " fill="#80BF40" transform="translate(24,119)"/>
<path d="M0,0 Z " fill="#99CC66" transform="translate(108,118)"/>
<path d="M0,0 Z " fill="#99CC66" transform="translate(23,118)"/>
<path d="M0,0 Z " fill="#80AA55" transform="translate(109,117)"/>
<path d="M0,0 Z " fill="#80AA55" transform="translate(22,117)"/>
<path d="M0,0 Z " fill="#99CC33" transform="translate(110,116)"/>
<path d="M0,0 Z " fill="#66CC33" transform="translate(21,116)"/>
<path d="M0,0 Z " fill="#80BF40" transform="translate(111,115)"/>
<path d="M0,0 Z " fill="#80B34D" transform="translate(40,114)"/>
<path d="M0,0 Z " fill="#80BF40" transform="translate(114,112)"/>
<path d="M0,0 Z " fill="#99CC33" transform="translate(115,111)"/>
<path d="M0,0 Z " fill="#80B34D" transform="translate(35,111)"/>
<path d="M0,0 Z " fill="#80BF40" transform="translate(16,111)"/>
<path d="M0,0 Z " fill="#99CC66" transform="translate(116,110)"/>
<path d="M0,0 Z " fill="#99CC33" transform="translate(15,110)"/>
<path d="M0,0 Z " fill="#99CC66" transform="translate(117,109)"/>
<path d="M0,0 Z " fill="#80AA55" transform="translate(14,109)"/>
<path d="M0,0 Z " fill="#80BF40" transform="translate(118,108)"/>
<path d="M0,0 Z " fill="#8EC655" transform="translate(31,108)"/>
<path d="M0,0 Z " fill="#999933" transform="translate(13,108)"/>
<path d="M0,0 Z " fill="#8EC655" transform="translate(30,107)"/>
<path d="M0,0 Z " fill="#9FBF60" transform="translate(29,106)"/>
<path d="M0,0 Z " fill="#80BF40" transform="translate(121,104)"/>
<path d="M0,0 Z " fill="#99CC33" transform="translate(10,104)"/>
<path d="M0,0 Z " fill="#9FBF60" transform="translate(25,102)"/>
<path d="M0,0 Z " fill="#8EC655" transform="translate(24,101)"/>
<path d="M0,0 Z " fill="#80BF40" transform="translate(8,101)"/>
<path d="M0,0 Z " fill="#8EC655" transform="translate(23,100)"/>
<path d="M0,0 Z " fill="#92DB49" transform="translate(107,99)"/>
<path d="M0,0 Z " fill="#008080" transform="translate(62,99)"/>
<path d="M0,0 Z " fill="#80FF80" transform="translate(106,98)"/>
<path d="M0,0 Z " fill="#0080BF" transform="translate(61,98)"/>
<path d="M0,0 Z " fill="#99CC66" transform="translate(121,97)"/>
<path d="M0,0 Z " fill="#80BF40" transform="translate(105,97)"/>
<path d="M0,0 Z " fill="#99CC66" transform="translate(109,96)"/>
<path d="M0,0 Z " fill="#55AAAA" transform="translate(101,94)"/>
<path d="M0,0 Z " fill="#0080AA" transform="translate(102,93)"/>
<path d="M0,0 Z " fill="#00AAD5" transform="translate(41,93)"/>
<path d="M0,0 Z " fill="#808000" transform="translate(122,92)"/>
<path d="M0,0 Z " fill="#40BFBF" transform="translate(103,92)"/>
<path d="M0,0 Z " fill="#0099CC" transform="translate(42,92)"/>
<path d="M0,0 Z " fill="#2BAAD5" transform="translate(40,92)"/>
<path d="M0,0 Z " fill="#808000" transform="translate(121,91)"/>
<path d="M0,0 Z " fill="#99CC33" transform="translate(112,91)"/>
<path d="M0,0 Z " fill="#0099CC" transform="translate(41,91)"/>
<path d="M0,0 Z " fill="#00AAD5" transform="translate(39,91)"/>
<path d="M0,0 Z " fill="#3399CC" transform="translate(87,90)"/>
<path d="M0,0 Z " fill="#0099CC" transform="translate(40,90)"/>
<path d="M0,0 Z " fill="#00AAD5" transform="translate(38,90)"/>
<path d="M0,0 Z " fill="#00FF00" transform="translate(113,89)"/>
<path d="M0,0 Z " fill="#80FFFF" transform="translate(105,89)"/>
<path d="M0,0 Z " fill="#0099CC" transform="translate(97,89)"/>
<path d="M0,0 Z " fill="#3399CC" transform="translate(88,89)"/>
<path d="M0,0 Z " fill="#0099CC" transform="translate(39,89)"/>
<path d="M0,0 Z " fill="#008080" transform="translate(104,88)"/>
<path d="M0,0 Z " fill="#3399CC" transform="translate(89,88)"/>
<path d="M0,0 Z " fill="#00FFFF" transform="translate(103,87)"/>
<path d="M0,0 Z " fill="#4080BF" transform="translate(90,87)"/>
<path d="M0,0 Z " fill="#00FFFF" transform="translate(85,87)"/>
<path d="M0,0 Z " fill="#2BAAD5" transform="translate(51,87)"/>
<path d="M0,0 Z " fill="#55AAAA" transform="translate(94,86)"/>
<path d="M0,0 Z " fill="#55AAAA" transform="translate(91,86)"/>
<path d="M0,0 Z " fill="#40BFBF" transform="translate(50,86)"/>
<path d="M0,0 Z " fill="#3399CC" transform="translate(100,85)"/>
<path d="M0,0 Z " fill="#00FFFF" transform="translate(97,85)"/>
<path d="M0,0 Z " fill="#55AAFF" transform="translate(46,82)"/>
<path d="M0,0 Z " fill="#2BAAAA" transform="translate(45,81)"/>
<path d="M0,0 Z " fill="#008080" transform="translate(199,74)"/>
<path d="M0,0 Z " fill="#00FFFF" transform="translate(182,74)"/>
<path d="M0,0 Z " fill="#008080" transform="translate(179,74)"/>
<path d="M0,0 Z " fill="#000080" transform="translate(158,74)"/>
<path d="M0,0 Z " fill="#008080" transform="translate(137,74)"/>
<path d="M0,0 Z " fill="#555555" transform="translate(134,74)"/>
<path d="M0,0 Z " fill="#408080" transform="translate(128,74)"/>
<path d="M0,0 Z " fill="#008080" transform="translate(99,74)"/>
<path d="M0,0 Z " fill="#000080" transform="translate(97,74)"/>
<path d="M0,0 Z " fill="#008080" transform="translate(94,74)"/>
<path d="M0,0 Z " fill="#00FFFF" transform="translate(79,74)"/>
<path d="M0,0 Z " fill="#008080" transform="translate(73,74)"/>
<path d="M0,0 Z " fill="#404080" transform="translate(53,74)"/>
<path d="M0,0 Z " fill="#0000FF" transform="translate(138,73)"/>
<path d="M0,0 Z " fill="#5555AA" transform="translate(133,73)"/>
<path d="M0,0 Z " fill="#006699" transform="translate(104,73)"/>
<path d="M0,0 Z " fill="#000000" transform="translate(98,73)"/>
<path d="M0,0 Z " fill="#008080" transform="translate(93,73)"/>
<path d="M0,0 Z " fill="#00FFFF" transform="translate(80,73)"/>
<path d="M0,0 Z " fill="#008080" transform="translate(74,73)"/>
<path d="M0,0 Z " fill="#004080" transform="translate(52,73)"/>
<path d="M0,0 Z " fill="#336699" transform="translate(125,72)"/>
<path d="M0,0 Z " fill="#004080" transform="translate(51,72)"/>
<path d="M0,0 Z " fill="#004080" transform="translate(153,71)"/>
<path d="M0,0 Z " fill="#000000" transform="translate(124,71)"/>
<path d="M0,0 Z " fill="#000000" transform="translate(107,71)"/>
<path d="M0,0 Z " fill="#004080" transform="translate(50,71)"/>
<path d="M0,0 Z " fill="#000000" transform="translate(154,70)"/>
<path d="M0,0 Z " fill="#2B5580" transform="translate(128,65)"/>
<path d="M0,0 Z " fill="#336699" transform="translate(104,64)"/>
<path d="M0,0 Z " fill="#408080" transform="translate(124,62)"/>
<path d="M0,0 Z " fill="#2B5580" transform="translate(107,62)"/>
<path d="M0,0 Z " fill="#004080" transform="translate(50,61)"/>
<path d="M0,0 Z " fill="#336699" transform="translate(121,60)"/>
<path d="M0,0 Z " fill="#0055AA" transform="translate(99,60)"/>
<path d="M0,0 Z " fill="#004080" transform="translate(51,60)"/>
<path d="M0,0 Z " fill="#000080" transform="translate(133,59)"/>
<path d="M0,0 Z " fill="#404080" transform="translate(111,59)"/>
<path d="M0,0 Z " fill="#00FFFF" transform="translate(93,59)"/>
<path d="M0,0 Z " fill="#008080" transform="translate(74,59)"/>
<path d="M0,0 Z " fill="#004080" transform="translate(52,59)"/>
<path d="M0,0 Z " fill="#00FFFF" transform="translate(182,58)"/>
<path d="M0,0 Z " fill="#000000" transform="translate(179,58)"/>
<path d="M0,0 Z " fill="#000000" transform="translate(157,58)"/>
<path d="M0,0 Z " fill="#008080" transform="translate(134,58)"/>
<path d="M0,0 Z " fill="#004080" transform="translate(118,58)"/>
<path d="M0,0 Z " fill="#008080" transform="translate(97,58)"/>
<path d="M0,0 Z " fill="#008080" transform="translate(94,58)"/>
<path d="M0,0 Z " fill="#0000FF" transform="translate(79,58)"/>
<path d="M0,0 Z " fill="#008080" transform="translate(73,58)"/>
<path d="M0,0 Z " fill="#00FFFF" transform="translate(98,48)"/>
<path d="M0,0 Z " fill="#00AAAA" transform="translate(104,47)"/>
<path d="M0,0 Z " fill="#8080FF" transform="translate(94,47)"/>
<path d="M0,0 Z " fill="#00AAD5" transform="translate(47,47)"/>
<path d="M0,0 Z " fill="#55AAFF" transform="translate(39,47)"/>
<path d="M0,0 Z " fill="#3399CC" transform="translate(34,47)"/>
<path d="M0,0 Z " fill="#008080" transform="translate(105,46)"/>
<path d="M0,0 Z " fill="#00BFBF" transform="translate(95,46)"/>
<path d="M0,0 Z " fill="#000000" transform="translate(92,46)"/>
<path d="M0,0 Z " fill="#0092B6" transform="translate(48,46)"/>
<path d="M0,0 Z " fill="#0099CC" transform="translate(40,46)"/>
<path d="M0,0 Z " fill="#3399CC" transform="translate(98,44)"/>
<path d="M0,0 Z " fill="#00AAD5" transform="translate(91,44)"/>
<path d="M0,0 Z " fill="#2BAAD5" transform="translate(99,43)"/>
<path d="M0,0 Z " fill="#2BAAD5" transform="translate(90,43)"/>
<path d="M0,0 Z " fill="#2BAAD5" transform="translate(89,42)"/>
<path d="M0,0 Z " fill="#55AAAA" transform="translate(82,42)"/>
<path d="M0,0 Z " fill="#808080" transform="translate(43,42)"/>
<path d="M0,0 Z " fill="#00AAD5" transform="translate(88,41)"/>
<path d="M0,0 Z " fill="#0080FF" transform="translate(83,41)"/>
<path d="M0,0 Z " fill="#2492B6" transform="translate(38,41)"/>
<path d="M0,0 Z " fill="#008080" transform="translate(84,40)"/>
<path d="M0,0 Z " fill="#2BAAD5" transform="translate(39,40)"/>
<path d="M0,0 Z " fill="#0099CC" transform="translate(47,39)"/>
<path d="M0,0 Z " fill="#2BAAD5" transform="translate(40,39)"/>
<path d="M0,0 Z " fill="#FFFF00" transform="translate(16,39)"/>
<path d="M0,0 Z " fill="#3399CC" transform="translate(102,38)"/>
<path d="M0,0 Z " fill="#00AAD5" transform="translate(84,38)"/>
<path d="M0,0 Z " fill="#40BFBF" transform="translate(48,38)"/>
<path d="M0,0 Z " fill="#2BAAD5" transform="translate(41,38)"/>
<path d="M0,0 Z " fill="#00FF00" transform="translate(15,38)"/>
<path d="M0,0 Z " fill="#00AAD5" transform="translate(42,37)"/>
<path d="M0,0 Z " fill="#0080AA" transform="translate(81,36)"/>
<path d="M0,0 Z " fill="#80BF40" transform="translate(16,36)"/>
<path d="M0,0 Z " fill="#80B34D" transform="translate(12,36)"/>
<path d="M0,0 Z " fill="#3399CC" transform="translate(45,35)"/>
<path d="M0,0 Z " fill="#000080" transform="translate(76,34)"/>
<path d="M0,0 Z " fill="#99CC33" transform="translate(113,33)"/>
<path d="M0,0 Z " fill="#80FF80" transform="translate(110,33)"/>
<path d="M0,0 Z " fill="#AAAA55" transform="translate(105,33)"/>
<path d="M0,0 Z " fill="#55AA00" transform="translate(109,32)"/>
<path d="M0,0 Z " fill="#80FF80" transform="translate(106,32)"/>
<path d="M0,0 Z " fill="#80FFFF" transform="translate(62,32)"/>
<path d="M0,0 Z " fill="#99CC66" transform="translate(116,31)"/>
<path d="M0,0 Z " fill="#66CC00" transform="translate(15,31)"/>
<path d="M0,0 Z " fill="#80BF40" transform="translate(8,30)"/>
<path d="M0,0 Z " fill="#FFFF00" transform="translate(119,29)"/>
<path d="M0,0 Z " fill="#92B649" transform="translate(106,29)"/>
<path d="M0,0 Z " fill="#FFFF00" transform="translate(120,28)"/>
<path d="M0,0 Z " fill="#92DB49" transform="translate(105,28)"/>
<path d="M0,0 Z " fill="#6DB624" transform="translate(17,28)"/>
<path d="M0,0 Z " fill="#FFFF00" transform="translate(121,27)"/>
<path d="M0,0 Z " fill="#80BF00" transform="translate(18,27)"/>
<path d="M0,0 Z " fill="#80BF40" transform="translate(10,27)"/>
<path d="M0,0 Z " fill="#99CC33" transform="translate(11,26)"/>
<path d="M0,0 Z " fill="#9FBF60" transform="translate(102,25)"/>
<path d="M0,0 Z " fill="#80BF60" transform="translate(101,24)"/>
<path d="M0,0 Z " fill="#80BF40" transform="translate(118,23)"/>
<path d="M0,0 Z " fill="#9FBF60" transform="translate(100,23)"/>
<path d="M0,0 Z " fill="#80BF40" transform="translate(13,23)"/>
<path d="M0,0 Z " fill="#99CC66" transform="translate(117,22)"/>
<path d="M0,0 Z " fill="#99CC66" transform="translate(14,22)"/>
<path d="M0,0 Z " fill="#80AA55" transform="translate(116,21)"/>
<path d="M0,0 Z " fill="#80AA55" transform="translate(15,21)"/>
<path d="M0,0 Z " fill="#80AA55" transform="translate(115,20)"/>
<path d="M0,0 Z " fill="#99CC33" transform="translate(16,20)"/>
<path d="M0,0 Z " fill="#66CC33" transform="translate(114,19)"/>
<path d="M0,0 Z " fill="#99CC33" transform="translate(17,19)"/>
<path d="M0,0 Z " fill="#99CC33" transform="translate(113,18)"/>
<path d="M0,0 Z " fill="#669933" transform="translate(18,18)"/>
<path d="M0,0 Z " fill="#99CC33" transform="translate(112,17)"/>
<path d="M0,0 Z " fill="#66CC33" transform="translate(19,17)"/>
<path d="M0,0 Z " fill="#99CC33" transform="translate(111,16)"/>
<path d="M0,0 Z " fill="#99CC33" transform="translate(20,16)"/>
<path d="M0,0 Z " fill="#80AA55" transform="translate(110,15)"/>
<path d="M0,0 Z " fill="#80AA55" transform="translate(21,15)"/>
<path d="M0,0 Z " fill="#99CC66" transform="translate(109,14)"/>
<path d="M0,0 Z " fill="#99CC66" transform="translate(22,14)"/>
<path d="M0,0 Z " fill="#80BF40" transform="translate(108,13)"/>
<path d="M0,0 Z " fill="#99CC33" transform="translate(23,13)"/>
<path d="M0,0 Z " fill="#99CC66" transform="translate(104,10)"/>
<path d="M0,0 Z " fill="#99CC66" transform="translate(27,10)"/>
<path d="M0,0 Z " fill="#99CC33" transform="translate(101,8)"/>
<path d="M0,0 Z " fill="#99CC33" transform="translate(30,8)"/>
</svg>
