<?xml version="1.0" encoding="UTF-8"?>
<!-- Generator: visioncortex VTracer 0.6.5 -->
<svg version="1.1" xmlns="http://www.w3.org/2000/svg" width="129" height="129">
<path d="M0,0 L25,0 L38,4 L48,9 L59,18 L68,29 L74,41 L77,52 L77,77 L73,90 L68,100 L59,111 L48,120 L36,126 L25,129 L0,129 L-13,125 L-23,120 L-34,111 L-43,100 L-49,88 L-52,77 L-52,52 L-48,39 L-43,29 L-34,18 L-23,9 L-11,3 Z " fill="#FBFBF9" transform="translate(52,0)"/>
<path d="M0,0 L25,0 L38,4 L48,9 L59,18 L68,29 L74,41 L77,52 L77,77 L73,90 L68,100 L59,111 L48,120 L36,126 L25,129 L0,129 L-13,125 L-23,120 L-34,111 L-43,100 L-49,88 L-52,77 L-52,52 L-48,39 L-43,29 L-34,18 L-23,9 L-11,3 Z M3,4 L-13,9 L-24,16 L-34,25 L-43,39 L-48,55 L-48,71 L-44,87 L-38,99 L-27,111 L-17,118 L-5,123 L3,125 L19,125 L35,121 L47,115 L59,104 L66,94 L71,81 L73,71 L73,55 L68,39 L62,29 L53,19 L40,10 L25,5 L19,4 Z " fill="#B7CAB5" transform="translate(52,0)"/>
<path d="M0,0 L11,0 L16,3 L17,7 L12,4 L0,4 L-12,9 L-17,13 L-1,15 L14,20 L24,27 L27,32 L27,41 L22,46 L13,51 L5,53 L-8,54 L-19,62 L-30,66 L-38,66 L-43,63 L-44,61 L-39,62 L-30,62 L-20,58 L-15,55 L-24,53 L-36,50 L-40,48 L-38,47 L-32,48 L-30,39 L-28,20 L-25,20 L-22,35 L-21,20 L-18,20 L-18,45 L-9,44 L-11,33 L-13,29 L-13,22 L-12,18 L-7,17 L-30,17 L-42,20 L-51,25 L-53,28 L-54,34 L-56,34 L-56,27 L-51,22 L-45,18 L-31,14 L-22,13 L-13,6 Z " fill="#C7DBC7" transform="translate(78,31)"/>
<path d="M0,0 L23,0 L30,1 L30,2 L19,3 L18,6 L18,13 L21,20 L21,28 L16,28 L15,31 L15,29 L12,29 L12,4 L9,4 L9,19 L7,20 L5,10 L5,4 L2,4 L1,23 L-1,32 L-4,33 L-14,31 L-14,29 L-20,27 L-24,23 L-26,18 L-24,18 L-24,12 L-20,7 L-10,2 Z " fill="#D0E6D1" transform="translate(48,47)"/>
<path d="M0,0 L3,0 L6,15 L7,0 L10,0 L10,25 L19,24 L17,13 L15,9 L15,2 L17,0 L21,0 L21,3 L17,3 L20,12 L23,21 L26,0 L29,0 L32,24 L33,27 L36,27 L36,29 L45,26 L52,21 L54,14 L55,14 L55,21 L50,26 L41,31 L33,33 L20,34 L9,42 L-2,46 L-10,46 L-15,43 L-16,41 L-11,42 L-2,42 L8,38 L13,35 L4,33 L-8,30 L-12,28 L-10,27 L-4,28 L-2,19 Z " fill="#B3C3B3" transform="translate(50,51)"/>
<path d="M0,0 L18,0 L34,4 L46,10 L58,21 L64,29 L70,41 L73,52 L73,70 L71,80 L68,89 L62,99 L53,109 L43,117 L31,122 L26,124 L18,125 L0,125 L-14,121 L-25,115 L-37,104 L-45,93 L-51,78 L-52,70 L-52,52 L-47,36 L-41,26 L-32,16 L-23,9 L-11,3 Z M1,2 L-15,7 L-26,14 L-36,23 L-45,37 L-50,53 L-50,69 L-46,85 L-40,97 L-29,109 L-19,116 L-7,121 L1,123 L17,123 L33,119 L45,113 L57,102 L64,92 L69,79 L71,69 L71,53 L66,37 L60,27 L51,17 L38,8 L23,3 L17,2 Z " fill="#1B1C1C" transform="translate(54,2)"/>
<path d="M0,0 L11,0 L16,3 L17,7 L12,4 L0,4 L-12,9 L-17,13 L-1,15 L5,17 L1,18 L-7,17 L-30,17 L-42,20 L-51,25 L-53,28 L-54,34 L-56,34 L-56,27 L-51,22 L-45,18 L-31,14 L-22,13 L-13,6 Z " fill="#5C605C" transform="translate(78,31)"/>
<path d="M0,0 L6,1 L10,7 L8,16 L3,20 L-2,23 L-5,23 L-2,14 L-1,1 Z " fill="#C1D6C1" transform="translate(95,56)"/>
<path d="M0,0 L1,0 L1,7 L-4,12 L-13,17 L-21,19 L-34,20 L-45,28 L-56,32 L-64,32 L-69,29 L-70,27 L-65,28 L-56,28 L-46,24 L-41,21 L-47,19 L-47,18 L-20,16 L-9,12 L-2,7 Z " fill="#545854" transform="translate(104,65)"/>
<path d="M0,0 L3,0 L5,17 L5,27 L3,27 L3,24 L0,24 L0,27 L-2,27 L-2,14 Z " fill="#191A19" transform="translate(76,51)"/>
<path d="M0,0 L3,0 L4,6 L4,19 L2,17 L1,21 L6,22 L6,28 L3,27 L3,24 L0,24 L0,27 L-2,27 L-1,8 Z " fill="#1F201F" transform="translate(50,51)"/>
<path d="M0,0 L3,0 L3,25 L6,25 L6,28 L0,28 Z " fill="#2A2D2B" transform="translate(57,51)"/>
<path d="M0,0 L1,0 L1,7 L-4,12 L-13,17 L-21,19 L-37,20 L-47,19 L-47,18 L-20,16 L-9,12 L-2,7 Z " fill="#404340" transform="translate(104,65)"/>
<path d="M0,0 L4,0 L4,3 L0,3 L3,12 L5,17 L5,23 L2,27 L-2,27 L-2,25 L1,24 L1,16 L-2,9 L-2,2 Z " fill="#242625" transform="translate(67,51)"/>
<path d="M0,0 L3,1 L1,10 L-6,23 L-11,29 L-13,27 L-6,17 L-1,4 Z " fill="#202121" transform="translate(123,77)"/>
<path d="M0,0 L11,3 L21,9 L27,14 L25,16 L12,7 L-3,2 Z " fill="#1D1F1E" transform="translate(80,4)"/>
<path d="M0,0 L18,0 L26,2 L26,3 L-3,3 L-3,1 Z " fill="#151615" transform="translate(54,2)"/>
<path d="M0,0 L2,3 L2,11 L-3,11 L-4,14 L-4,12 L-7,12 L-5,8 L-1,3 Z " fill="#C8DDC8" transform="translate(67,64)"/>
<path d="M0,0 L1,4 L-2,4 L-2,6 L10,7 L7,9 L-5,7 L-12,4 L-10,3 L-4,4 L-2,2 L0,3 Z " fill="#939C93" transform="translate(50,75)"/>
<path d="M0,0 L8,0 L7,2 L1,3 L-13,3 L-16,1 Z " fill="#101111" transform="translate(71,124)"/>
<path d="M0,0 L2,0 L3,7 L5,5 L5,15 L3,15 L3,12 L0,11 Z " fill="#454A45" transform="translate(76,63)"/>
<path d="M0,0 L1,3 L0,23 L-2,20 L-2,2 Z " fill="#111111" transform="translate(4,52)"/>
<path d="M0,0 L1,0 L1,7 L-4,12 L-11,16 L-15,15 L-3,8 L-1,5 Z " fill="#303331" transform="translate(104,65)"/>
<path d="M0,0 L3,0 L3,4 L5,5 L4,6 L-7,6 L-5,2 L-4,4 L0,4 Z " fill="#C4D9C5" transform="translate(76,75)"/>
<path d="M0,0 L1,0 L5,18 L2,17 L-1,9 Z " fill="#202121" transform="translate(4,71)"/>
<path d="M0,0 L6,0 L8,2 L-2,9 L-4,8 L-3,5 L2,2 Z " fill="#6F7670" transform="translate(61,84)"/>
<path d="M0,0 L2,0 L2,11 L1,17 L-1,17 Z " fill="#121313" transform="translate(125,61)"/>
<path d="M0,0 L2,0 L3,6 L13,6 L13,7 L2,7 L-3,6 L-3,4 L0,4 Z " fill="#C7DCC7" transform="translate(51,75)"/>
<path d="M0,0 L2,1 L0,8 L-5,12 L-7,12 L-5,8 L-1,4 Z " fill="#A9B6A8" transform="translate(103,64)"/>
<path d="M0,0 L2,1 L-3,6 L-5,8 L-9,7 Z " fill="#5E625E" transform="translate(65,37)"/>
<path d="M0,0 L5,0 L5,2 L-5,6 L-7,5 L-2,1 Z " fill="#464946" transform="translate(73,33)"/>
<path d="M0,0 L8,1 L8,3 L11,4 L2,3 L-1,1 Z " fill="#2D2F2E" transform="translate(47,123)"/>
<path d="M0,0 L11,0 L15,2 L16,6 L10,2 L0,1 Z " fill="#424542" transform="translate(79,32)"/>
<path d="M0,0 L8,2 L9,5 L-3,2 Z " fill="#282928" transform="translate(80,4)"/>
<path d="M0,0 L3,0 L3,2 L-6,5 L-7,2 Z " fill="#2C2E2C" transform="translate(84,121)"/>
<path d="M0,0 L3,1 L1,10 L-2,9 Z " fill="#363836" transform="translate(123,77)"/>
<path d="M0,0 L1,0 L1,9 L-3,9 L-3,2 L-1,5 Z " fill="#737B73" transform="translate(54,63)"/>
<path d="M0,0 L1,3 L-2,10 L-4,9 L-2,2 Z " fill="#181919" transform="translate(122,85)"/>
<path d="M0,0 L1,0 L2,7 L4,9 L2,9 L2,13 L0,13 Z " fill="#222423" transform="translate(74,65)"/>
<path d="M0,0 L3,1 L3,7 L0,6 L0,2 L-2,1 Z " fill="#2A2D2B" transform="translate(53,72)"/>
<path d="M0,0 L1,0 L1,6 L-1,8 L-5,8 L-5,6 L-2,5 Z " fill="#0A0A0B" transform="translate(70,70)"/>
<path d="M0,0 L4,1 L-1,4 L-5,3 Z " fill="#3B3D3B" transform="translate(54,91)"/>
<path d="M0,0 L3,3 L3,9 L0,8 Z " fill="#2D2F2D" transform="translate(69,65)"/>
<path d="M0,0 L4,1 L-1,5 L-3,4 L-2,1 Z " fill="#60635F" transform="translate(60,88)"/>
<path d="M0,0 L1,0 L2,9 L-1,9 Z " fill="#373937" transform="translate(4,71)"/>
<path d="M0,0 L3,1 L2,7 L-1,4 Z M0,7 Z " fill="#CADBC9" transform="translate(99,57)"/>
<path d="M0,0 L2,1 L3,3 L0,3 L0,5 L-3,5 L-1,1 Z M4,0 Z M3,1 Z " fill="#C2D6C3" transform="translate(28,54)"/>
</svg>
