<?xml version="1.0" encoding="UTF-8"?>
<!-- Generator: visioncortex VTracer 0.6.5 -->
<svg version="1.1" xmlns="http://www.w3.org/2000/svg" width="225" height="225">
<path d="M0,0 L225,0 L225,225 L0,225 Z " fill="#FEFEFF" transform="translate(0,0)"/>
<path d="M0,0 L10,2 L44,11 L74,19 L105,27 L126,33 L145,38 L143,48 L134,82 L126,112 L118,143 L112,164 L107,183 L99,182 L82,177 L43,167 L25,162 L2,156 L-15,151 L-38,145 L-37,137 L-32,120 L-23,85 L-18,68 L-9,33 L-2,7 Z " fill="#01A2FF" transform="translate(59,21)"/>
<path d="M0,0 L11,2 L29,7 L28,16 L22,37 L5,33 L-6,30 L-7,25 L-1,2 Z " fill="#FAFCFF" transform="translate(152,65)"/>
<path d="M0,0 L10,0 L16,4 L18,8 L17,15 L14,26 L13,33 L7,31 L7,29 L5,30 L-2,30 L-8,26 L-9,24 L-9,17 L-4,12 L8,12 L12,13 L10,6 L3,5 L0,7 L-5,6 L-3,2 Z " fill="#F1F8FF" transform="translate(111,141)"/>
<path d="M0,0 L5,1 L1,19 L1,26 L3,27 L9,27 L11,26 L14,16 L17,5 L22,6 L21,15 L15,35 L10,34 L10,32 L1,32 L-5,28 L-6,26 L-6,19 L-1,1 Z " fill="#EFF7FF" transform="translate(138,147)"/>
<path d="M0,0 L5,1 L4,8 L1,21 L2,26 L3,27 L10,27 L12,25 L17,6 L21,5 L23,6 L20,19 L16,34 L11,34 L10,32 L1,32 L-5,27 L-5,18 Z " fill="#F2F9FF" transform="translate(78,131)"/>
<path d="M0,0 L5,1 L2,14 L-3,33 L-4,36 L3,37 L14,40 L13,44 L4,43 L-10,39 L-9,30 L-4,12 L-1,2 Z " fill="#F0F8FF" transform="translate(54,114)"/>
<path d="M0,0 L9,0 L12,1 L11,8 L7,10 L2,10 L-2,6 L-1,1 Z " fill="#0BA3FF" transform="translate(109,157)"/>
</svg>
