<?xml version="1.0" encoding="UTF-8"?>
<!-- Generator: visioncortex VTracer 0.6.5 -->
<svg version="1.1" xmlns="http://www.w3.org/2000/svg" width="200" height="200">
<path d="M0,0 L200,0 L200,200 L0,200 Z " fill="#010101" transform="translate(0,0)"/>
<path d="M0,0 L5,0 L6,13 L11,10 L20,11 L25,16 L26,18 L26,30 L21,36 L18,37 L9,37 L6,35 L5,37 L0,37 Z " fill="#EDECEB" transform="translate(82,135)"/>
<path d="M0,0 L8,0 L12,2 L13,0 L19,0 L19,27 L13,27 L12,25 L8,27 L0,27 L-5,24 L-8,19 L-8,8 L-5,3 Z " fill="#E7E6E5" transform="translate(79,100)"/>
<path d="M0,0 L6,0 L10,2 L11,1 L17,1 L17,27 L11,27 L8,27 L-2,27 L-8,22 L-9,20 L-9,8 L-6,3 Z " fill="#EAE9E9" transform="translate(59,145)"/>
<path d="M0,0 L11,0 L16,3 L19,6 L18,10 L14,11 L9,6 L2,6 L0,8 L1,12 L13,16 L18,19 L20,23 L20,29 L17,34 L10,37 L1,37 L-5,33 L-8,29 L-8,25 L-2,24 L1,30 L3,31 L9,31 L12,29 L12,24 L5,21 L-4,17 L-7,13 L-7,6 L-2,1 Z " fill="#EBEAE9" transform="translate(31,90)"/>
<path d="M0,0 L6,0 L7,19 L17,10 L24,10 L18,17 L15,20 L17,25 L25,35 L25,37 L18,37 L10,26 L7,27 L6,37 L0,37 Z " fill="#ECEBEA" transform="translate(131,90)"/>
<path d="M0,0 L10,0 L15,3 L17,6 L17,9 L11,9 L9,6 L1,6 L-1,9 L-1,18 L2,21 L9,21 L11,17 L17,18 L16,22 L12,26 L9,27 L0,27 L-5,24 L-8,20 L-8,7 L-3,2 Z " fill="#EBEAE9" transform="translate(110,100)"/>
<path d="M0,0 L9,1 L14,6 L10,9 L7,6 L0,6 L0,9 L10,12 L14,16 L14,23 L9,27 L-1,27 L-7,22 L-7,19 L-2,18 L2,22 L7,22 L8,18 L-3,14 L-6,11 L-6,4 L-3,1 Z " fill="#E9E8E7" transform="translate(117,145)"/>
<path d="M0,0 L8,0 L13,3 L14,7 L10,8 L6,5 L1,6 L2,9 L12,12 L15,15 L15,22 L11,26 L9,27 L1,27 L-5,23 L-6,19 L-1,18 L1,21 L8,21 L8,17 L-3,13 L-5,10 L-5,4 Z " fill="#EBEAE9" transform="translate(162,100)"/>
<path d="M0,0 L5,0 L15,15 L14,20 L-22,20 L-22,14 L6,13 L-1,2 Z " fill="#E5E4E3" transform="translate(45,29)"/>
<path d="M0,0 L37,0 L36,6 L28,18 L26,20 L21,19 L23,14 L28,7 L0,6 Z " fill="#E7E6E5" transform="translate(23,54)"/>
<path d="M0,0 L6,0 L6,31 L24,31 L24,36 L0,36 Z " fill="#EFEEED" transform="translate(24,136)"/>
<path d="M0,0 L5,0 L5,7 L12,7 L12,12 L5,12 L6,27 L12,29 L12,34 L4,34 L0,30 L0,12 L-5,12 L-5,7 L0,7 Z " fill="#F3F2F1" transform="translate(57,93)"/>
<path d="M0,0 L7,1 L10,4 L10,13 L7,17 L-1,17 L-5,12 L-5,5 Z " fill="#060606" transform="translate(92,150)"/>
<path d="M0,0 L6,0 L11,4 L11,12 L7,17 L0,17 L-4,12 L-4,4 Z " fill="#050505" transform="translate(81,105)"/>
<path d="M0,0 L7,1 L11,5 L11,12 L7,17 L-1,17 L-4,13 L-4,4 Z " fill="#070707" transform="translate(60,150)"/>
<path d="M0,0 L4,1 L8,4 L17,7 L18,11 L16,13 L9,12 L7,8 L2,9 L2,11 L-2,13 Z " fill="#0D0D0D" transform="translate(108,155)"/>
</svg>
