<?xml version="1.0" encoding="UTF-8"?>
<!-- Generator: visioncortex VTracer 0.6.5 -->
<svg version="1.1" xmlns="http://www.w3.org/2000/svg" width="1194" height="1194">
<path d="M0,0 L86,0 L86,1008 L7,1008 L-248,753 L-247,749 L-210,712 L-201,701 L-194,693 L-180,674 L-169,656 L-157,634 L-146,608 L-137,581 L-131,555 L-127,528 L-126,515 L-126,475 L-129,447 L-135,418 L-142,394 L-149,375 L-158,355 L-168,336 L-180,317 L-193,299 L-205,285 L-214,275 L-231,258 L-242,249 L-260,235 L-279,223 L-295,214 L-320,202 L-344,193 L-369,186 L-393,181 L-418,178 L-436,177 L-452,177 L-480,179 L-510,184 L-534,190 L-560,199 L-566,201 L-571,191 L-590,145 L-599,123 L-598,120 L-571,110 L-547,103 L-521,97 L-497,93 L-478,91 L-462,90 L-426,90 L-400,92 L-372,96 L-344,102 L-320,109 L-294,118 L-267,130 L-242,143 L-221,156 L-204,168 L-191,178 L-180,187 L-168,198 L-158,207 L-149,216 L-142,224 L-133,234 L-122,248 L-111,263 L-101,278 L-88,300 L-78,319 L-67,344 L-56,375 L-48,405 L-43,431 L-39,466 L-39,524 L-42,552 L-46,576 L-53,605 L-65,641 L-75,665 L-88,691 L-98,708 L-112,729 L-124,745 L-127,750 L-1,876 Z " fill="#2A6F66" transform="translate(1041,102)"/>
<path d="M0,0 L79,0 L334,255 L332,259 L313,278 L306,286 L290,302 L281,313 L269,329 L256,349 L243,373 L233,396 L222,429 L216,456 L212,487 L211,516 L213,548 L217,574 L225,606 L235,634 L249,663 L260,682 L268,694 L280,710 L289,721 L301,734 L316,749 L327,758 L342,770 L357,780 L374,790 L397,802 L425,813 L448,820 L475,826 L496,829 L508,830 L551,830 L578,827 L607,821 L631,814 L650,807 L653,808 L670,849 L685,885 L685,887 L664,895 L643,902 L615,909 L587,914 L559,917 L524,918 L500,917 L472,914 L444,909 L416,902 L386,892 L360,881 L343,873 L320,860 L301,848 L282,834 L271,825 L258,814 L242,799 L234,791 L227,783 L214,768 L199,748 L185,727 L174,708 L162,685 L151,659 L144,639 L137,616 L131,590 L127,565 L125,546 L124,529 L124,496 L126,469 L130,441 L135,417 L143,388 L152,363 L162,340 L174,316 L184,299 L198,278 L212,259 L210,255 L87,132 L86,1008 L0,1008 Z " fill="#2A6F66" transform="translate(68,85)"/>
<path d="M0,0 L427,0 L427,164 L378,213 L384,220 L427,263 L427,427 L0,427 Z M86,86 L86,170 L298,170 L341,127 L341,86 Z M86,256 L86,341 L341,341 L341,299 L298,256 Z " fill="#2A6F67" transform="translate(384,384)"/>
</svg>
