<?xml version="1.0" encoding="UTF-8"?>
<!-- Generator: visioncortex VTracer 0.6.5 -->
<svg version="1.1" xmlns="http://www.w3.org/2000/svg" width="768" height="768">
<path d="M0,0 L17,0 L29,4 L39,10 L363,334 L369,344 L373,356 L373,373 L369,386 L362,396 L39,719 L31,724 L18,728 L1,728 L-11,724 L-21,718 L-345,394 L-351,384 L-355,372 L-355,355 L-351,342 L-344,332 L-124,112 L-120,114 L-40,194 L-43,206 L-44,219 L-42,231 L-37,243 L-30,253 L-21,261 L-10,267 L-10,468 L-24,477 L-33,486 L-39,497 L-43,509 L-44,521 L-42,534 L-37,546 L-29,557 L-21,564 L-7,571 L0,573 L12,574 L25,572 L37,567 L46,561 L54,553 L61,541 L65,525 L65,513 L62,501 L55,487 L47,478 L35,470 L35,271 L42,277 L111,346 L109,355 L108,360 L108,376 L112,390 L118,400 L127,410 L140,418 L149,421 L155,422 L170,422 L181,419 L193,413 L203,404 L209,396 L214,385 L216,377 L216,359 L212,346 L208,338 L199,327 L185,318 L172,314 L153,314 L143,316 L63,236 L64,228 L65,222 L65,211 L63,201 L58,189 L50,178 L40,170 L29,165 L17,162 L5,162 L-8,164 L-91,81 L-89,77 L-21,9 L-13,4 Z " fill="#F05032" transform="translate(375,20)"/>
</svg>
