<?xml version="1.0" encoding="UTF-8"?>
<!-- Generator: visioncortex VTracer 0.6.4 -->
<svg version="1.1" xmlns="http://www.w3.org/2000/svg" width="1500" height="1500">
<path d="M0 0 C1.31 0.53 1.31 0.53 2.66 1.06 C9.55 4.12 14.7 8.71 20 14 C20.65 14.64 21.3 15.28 21.97 15.94 C30.02 24.43 34.35 36.04 38 47 C41.25 48.61 44.55 49.45 48.09 50.2 C49.11 50.42 50.13 50.64 51.18 50.86 C52.31 51.1 53.43 51.34 54.6 51.58 C55.82 51.84 57.04 52.1 58.3 52.36 C75.95 56.08 93.65 59.59 111.35 63.12 C116.71 64.19 122.08 65.27 127.44 66.34 C137.91 68.44 148.37 70.53 158.84 72.62 C167.34 74.32 175.84 76.02 184.34 77.72 C185.56 77.97 186.77 78.21 188.03 78.46 C190.5 78.95 192.97 79.45 195.44 79.94 C217.85 84.43 240.27 88.91 262.68 93.39 C283.13 97.48 303.58 101.57 324.02 105.66 C347.05 110.26 370.08 114.87 393.11 119.48 C395.56 119.97 398.01 120.46 400.47 120.95 C401.67 121.19 402.88 121.43 404.12 121.68 C412.63 123.38 421.13 125.08 429.63 126.78 C439.97 128.85 450.32 130.92 460.67 132.99 C465.94 134.04 471.22 135.1 476.5 136.15 C481.33 137.12 486.15 138.08 490.98 139.05 C492.73 139.4 494.48 139.75 496.22 140.1 C498.6 140.57 500.97 141.05 503.35 141.52 C504.36 141.72 504.36 141.72 505.4 141.93 C519.01 144.63 525.16 143.49 536.86 135.97 C550.4 127.49 566.43 125.69 582.06 128.65 C598.63 132.96 611.17 142.82 620.01 157.24 C625.48 167 627.19 176.18 627.25 187.12 C627.27 188.12 627.29 189.12 627.31 190.14 C627.34 195.12 627.06 199.38 625.48 204.12 C623.1 211.37 622.88 217.25 626.2 224.23 C627.2 226.08 628.21 227.92 629.25 229.75 C629.79 230.75 630.33 231.74 630.89 232.77 C632.02 234.84 633.16 236.91 634.31 238.97 C635.9 241.82 637.46 244.68 639.01 247.54 C640.98 251.17 642.95 254.79 644.94 258.41 C648.12 264.22 651.28 270.05 654.44 275.88 C654.98 276.87 655.52 277.87 656.07 278.9 C657.17 280.92 658.26 282.94 659.36 284.97 C662.07 289.98 664.79 294.99 667.5 300 C668.58 302 669.67 304 670.75 306 C671.29 306.99 671.82 307.98 672.38 309 C682.67 328 692.96 347 703.25 366 C703.79 366.99 704.32 367.98 704.87 369 C705.96 371 707.04 373 708.13 375 C710.82 379.98 713.52 384.96 716.21 389.93 C721.85 400.32 727.46 410.72 733.06 421.12 C737.35 429.1 741.66 437.06 746 445 C750.94 454.04 755.84 463.11 760.72 472.19 C764.63 479.47 768.56 486.74 772.5 494 C777.61 503.42 782.69 512.85 787.77 522.29 C791.67 529.53 795.58 536.77 799.5 544 C807.56 558.86 815.57 573.76 823.57 588.65 C829.47 599.62 835.39 610.57 841.37 621.5 C844.26 626.78 847.11 632.07 849.94 637.38 C850.45 638.33 850.45 638.33 850.96 639.3 C852.62 642.41 854.28 645.52 855.93 648.64 C856.53 649.77 857.13 650.9 857.75 652.06 C858.28 653.06 858.81 654.07 859.36 655.1 C863.16 662.22 863.16 662.22 869.71 666.49 C872.66 667.15 875.54 667.28 878.56 667.44 C895.03 668.36 909.67 674.9 921 687 C923.57 690.2 925.84 693.51 928 697 C928.39 697.61 928.78 698.22 929.18 698.85 C937.13 712.84 937.85 730.02 933.83 745.24 C930.67 756.15 924.95 764.02 917 772 C916.46 772.56 915.92 773.13 915.36 773.71 C904.04 784.51 887.97 788.17 872.82 788.5 C867.45 789.46 864.34 791.13 861.19 795.53 C859.19 798.85 857.33 802.22 855.5 805.62 C854.8 806.89 854.1 808.15 853.4 809.41 C851.96 812.01 850.53 814.61 849.1 817.21 C845.99 822.86 842.74 828.43 839.5 834 C834.31 842.98 829.14 851.99 824 861 C815.76 875.43 807.46 889.82 799.15 904.21 C797.28 907.43 795.42 910.65 793.56 913.88 C792.64 915.47 792.64 915.47 791.7 917.11 C786.75 925.69 781.83 934.3 776.92 942.9 C771.77 951.94 766.54 960.95 761.29 969.93 C756.83 977.55 752.44 985.21 748.06 992.88 C739.81 1007.35 731.48 1021.78 723.15 1036.21 C721.28 1039.43 719.42 1042.65 717.56 1045.88 C716.95 1046.94 716.33 1048.01 715.7 1049.11 C710.75 1057.69 705.83 1066.3 700.92 1074.9 C695.77 1083.94 690.54 1092.95 685.29 1101.93 C680.83 1109.55 676.44 1117.21 672.06 1124.88 C665.03 1137.2 657.96 1149.5 650.86 1161.78 C647.74 1167.19 644.62 1172.59 641.5 1178 C640.25 1180.17 639 1182.33 637.75 1184.5 C637.13 1185.57 636.51 1186.64 635.88 1187.75 C585.25 1275.5 585.25 1275.5 583.37 1278.76 C582.13 1280.9 580.89 1283.05 579.66 1285.2 C576.71 1290.3 573.77 1295.39 570.83 1300.49 C569.43 1302.91 568.03 1305.33 566.64 1307.75 C565.64 1309.47 564.65 1311.19 563.66 1312.9 C563.06 1313.93 562.47 1314.97 561.85 1316.03 C561.06 1317.4 561.06 1317.4 560.25 1318.8 C557.72 1323.25 557.12 1326.93 558 1332 C559.31 1334.96 560.77 1337.79 562.28 1340.64 C569.32 1354.07 570.37 1370.66 566.03 1385.21 C559.92 1401.76 549.55 1414.01 533.62 1421.81 C517.38 1428.64 501.5 1428.5 485 1423 C476.68 1419.56 470.34 1414.31 464 1408 C463.46 1407.48 462.92 1406.96 462.36 1406.43 C458 1401.85 455.23 1396.21 452.42 1390.6 C452.07 1389.92 451.71 1389.24 451.34 1388.55 C451.04 1387.94 450.73 1387.33 450.41 1386.7 C446.66 1382.19 441.14 1381.52 435.61 1380.99 C434.88 1380.91 434.16 1380.84 433.41 1380.76 C431 1380.52 428.58 1380.3 426.16 1380.07 C424.42 1379.9 422.69 1379.73 420.95 1379.56 C416.21 1379.1 411.47 1378.64 406.73 1378.2 C401.66 1377.71 396.59 1377.22 391.52 1376.72 C382.97 1375.89 374.42 1375.06 365.87 1374.24 C353.66 1373.07 341.45 1371.87 329.24 1370.67 C325.31 1370.28 321.38 1369.9 317.45 1369.51 C315.99 1369.37 315.99 1369.37 314.49 1369.22 C303.29 1368.12 292.1 1367.03 280.9 1365.93 C279.34 1365.78 279.34 1365.78 277.76 1365.63 C273.51 1365.21 269.27 1364.8 265.03 1364.39 C253.84 1363.3 242.65 1362.2 231.46 1361.11 C211.41 1359.15 191.37 1357.2 171.33 1355.24 C152.14 1353.37 132.95 1351.5 113.76 1349.63 C112.58 1349.51 111.39 1349.4 110.17 1349.28 C108.99 1349.16 107.81 1349.05 106.59 1348.93 C84.35 1346.76 62.12 1344.59 39.88 1342.42 C33.26 1341.77 26.64 1341.12 20.02 1340.48 C15.77 1340.06 11.52 1339.65 7.27 1339.23 C5.18 1339.03 3.09 1338.83 1 1338.62 C-10.1 1337.54 -21.2 1336.46 -32.3 1335.38 C-35.22 1335.09 -38.14 1334.81 -41.06 1334.53 C-42.99 1334.34 -44.91 1334.15 -46.84 1333.96 C-58.55 1332.83 -70.27 1331.68 -81.98 1330.52 C-89.75 1329.75 -97.52 1328.98 -105.29 1328.22 C-110.68 1327.69 -116.07 1327.16 -121.46 1326.62 C-124.77 1326.29 -128.07 1325.97 -131.37 1325.65 C-132.88 1325.5 -134.38 1325.35 -135.88 1325.19 C-143.47 1324.42 -151.05 1323.85 -158.68 1323.74 C-159.95 1323.73 -161.22 1323.71 -162.54 1323.69 C-168.07 1324.19 -171.69 1326.69 -176 1330 C-189.83 1339.67 -205.98 1341.75 -222.43 1339.54 C-238.44 1335.93 -251.85 1326.55 -261 1313 C-270.83 1296.75 -272.14 1279.12 -267.89 1260.93 C-266.1 1252.61 -269.46 1245.42 -272.58 1237.84 C-272.94 1236.95 -273.3 1236.07 -273.67 1235.16 C-274.86 1232.23 -276.05 1229.3 -277.25 1226.38 C-278.1 1224.3 -278.94 1222.22 -279.79 1220.14 C-282.05 1214.57 -284.32 1209.01 -286.59 1203.45 C-288.94 1197.7 -291.28 1191.94 -293.62 1186.19 C-296.91 1178.13 -300.19 1170.07 -303.48 1162.01 C-308.21 1150.41 -312.92 1138.8 -317.62 1127.19 C-323.35 1113.05 -329.11 1098.93 -334.88 1084.81 C-341.41 1068.81 -347.92 1052.8 -354.4 1036.77 C-360.02 1022.86 -365.68 1008.96 -371.35 995.06 C-381.43 970.35 -391.44 945.62 -401.42 920.87 C-405.23 911.43 -409.05 902 -412.88 892.56 C-413.33 891.45 -413.33 891.45 -413.78 890.32 C-415.27 886.67 -416.75 883.01 -418.23 879.36 C-421.28 871.85 -424.33 864.33 -427.38 856.81 C-427.68 856.05 -427.99 855.3 -428.31 854.52 C-432.27 844.75 -436.23 834.98 -440.18 825.2 C-441.95 820.83 -443.72 816.46 -445.5 812.09 C-448.87 803.79 -452.21 795.49 -455.48 787.15 C-457 783.26 -458.54 779.38 -460.08 775.5 C-460.81 773.64 -461.54 771.78 -462.25 769.92 C-463.25 767.34 -464.27 764.77 -465.29 762.2 C-465.58 761.44 -465.87 760.68 -466.16 759.9 C-468.23 754.79 -470.41 752.1 -475 749 C-477.38 748.01 -477.38 748.01 -479.79 747.63 C-480.67 747.45 -481.54 747.27 -482.44 747.09 C-483.34 746.91 -484.25 746.74 -485.19 746.56 C-493.29 744.82 -500.12 742.79 -507 738 C-507.78 737.48 -508.56 736.95 -509.37 736.41 C-522.57 726.93 -529.61 713.09 -532.53 697.33 C-534.9 680.49 -530.35 665.05 -521 651 C-511.77 638.79 -498.15 630.53 -483 628 C-481.23 627.97 -479.46 627.98 -477.69 628.04 C-476.7 628.06 -475.7 628.09 -474.68 628.11 C-472.6 628.16 -470.53 628.23 -468.46 628.3 C-462.43 628.41 -458.55 628.37 -454 624 C-451.35 620.69 -448.98 617.22 -446.62 613.69 C-445.2 611.6 -443.78 609.51 -442.35 607.42 C-441.63 606.35 -440.91 605.28 -440.16 604.18 C-436.82 599.26 -433.41 594.38 -430 589.5 C-428.67 587.58 -427.33 585.67 -426 583.75 C-407.33 556.92 -388.67 530.08 -370 503.25 C-369.34 502.3 -368.68 501.35 -368 500.37 C-366.67 498.46 -365.34 496.55 -364 494.63 C-360.65 489.8 -357.29 484.97 -353.93 480.14 C-347.06 470.27 -340.19 460.4 -333.28 450.55 C-326.84 441.36 -320.44 432.14 -314.03 422.92 C-310.02 417.16 -306.01 411.4 -302 405.63 C-298.65 400.8 -295.29 395.97 -291.93 391.14 C-285.06 381.27 -278.19 371.4 -271.28 361.55 C-264.16 351.39 -257.08 341.19 -250 331 C-241.78 319.17 -233.55 307.35 -225.29 295.56 C-220.85 289.21 -216.42 282.86 -212 276.5 C-206.45 268.51 -200.87 260.53 -195.29 252.56 C-190.85 246.22 -186.42 239.86 -182 233.5 C-176.45 225.51 -170.87 217.53 -165.29 209.56 C-160.85 203.22 -156.42 196.86 -152 190.5 C-144.12 179.17 -136.21 167.86 -128.29 156.56 C-120.84 145.92 -113.4 135.27 -105.99 124.6 C-102.69 119.85 -99.38 115.11 -96.05 110.38 C-95.42 109.48 -94.79 108.59 -94.14 107.66 C-92.96 105.99 -91.79 104.32 -90.6 102.64 C-82.2 91.42 -82.2 91.42 -80 78 C-80.43 76.22 -80.91 74.45 -81.44 72.69 C-85.89 56.69 -83.68 39.43 -76 24.88 C-66.83 10.19 -53.47 0.85 -36.8 -3.59 C-24.45 -5.41 -11.53 -4.92 0 0 Z M-79 158 C-78.34 158.66 -77.68 159.32 -77 160 C-77 159.34 -77 158.68 -77 158 C-77.66 158 -78.32 158 -79 158 Z M511.42 227.99 C509.59 228.7 509.59 228.7 507.72 229.44 C502.46 231.62 497.26 233.93 492.1 236.33 C479.05 242.38 465.86 248.11 452.62 253.75 C438.3 259.86 424 266.04 409.75 272.31 C406.33 273.82 402.91 275.32 399.49 276.83 C398.67 277.19 397.86 277.55 397.02 277.92 C389.65 281.16 382.26 284.37 374.88 287.56 C363.6 292.44 352.33 297.34 341.06 302.25 C340.24 302.61 339.42 302.97 338.57 303.34 C333.54 305.53 328.51 307.72 323.48 309.92 C316.3 313.05 309.12 316.18 301.94 319.31 C301.15 319.66 300.35 320 299.54 320.36 C285.05 326.68 270.56 332.98 256.06 339.28 C237.96 347.15 219.86 355.03 201.76 362.92 C194.49 366.09 187.22 369.26 179.94 372.43 C175.88 374.21 171.81 375.98 167.75 377.75 C166.13 378.46 164.5 379.17 162.88 379.88 C162.07 380.23 161.27 380.58 160.44 380.94 C145 387.67 129.56 394.4 114.12 401.12 C113.32 401.48 112.52 401.83 111.69 402.19 C110.06 402.9 108.44 403.6 106.81 404.31 C102.75 406.08 98.68 407.86 94.62 409.63 C87.33 412.81 80.03 415.99 72.74 419.16 C54.25 427.21 35.78 435.29 17.32 443.4 C5.19 448.73 -6.96 454.03 -19.13 459.29 C-25.63 462.1 -32.12 464.92 -38.61 467.77 C-39.33 468.09 -40.05 468.4 -40.8 468.73 C-44.29 470.26 -47.78 471.8 -51.27 473.33 C-52.54 473.89 -53.81 474.45 -55.08 475 C-56.26 475.52 -57.45 476.04 -58.67 476.58 C-62.45 478.19 -66.27 479.66 -70.14 481.06 C-72.34 481.98 -72.34 481.98 -74 485 C-73.5 486.49 -73.5 486.49 -73 488 C-72.19 487.65 -72.19 487.65 -71.36 487.29 C-60.79 482.69 -50.22 478.09 -39.64 473.51 C-22.59 466.13 -5.56 458.71 11.47 451.29 C17.21 448.78 22.96 446.27 28.71 443.77 C45.51 436.46 62.29 429.12 79.06 421.75 C91.93 416.1 104.8 410.47 117.7 404.89 C127.79 400.53 137.86 396.14 147.94 391.75 C149.17 391.21 149.17 391.21 150.43 390.66 C155.46 388.47 160.49 386.28 165.52 384.08 C172.7 380.95 179.88 377.82 187.06 374.69 C187.85 374.34 188.65 374 189.46 373.64 C203.95 367.32 218.44 361.02 232.94 354.72 C251.04 346.85 269.14 338.97 287.24 331.08 C294.51 327.91 301.78 324.74 309.06 321.57 C313.12 319.79 317.19 318.02 321.25 316.25 C322.87 315.54 324.5 314.83 326.12 314.12 C326.93 313.77 327.73 313.42 328.56 313.06 C335.88 309.87 335.88 309.87 338.31 308.81 C339.94 308.1 341.56 307.4 343.19 306.69 C347.26 304.91 351.33 303.14 355.41 301.36 C362.59 298.23 369.77 295.1 376.95 291.97 C395.45 283.9 413.95 275.85 432.47 267.82 C455.35 257.89 455.35 257.89 478.21 247.93 C480.14 247.08 482.07 246.24 484 245.4 C489.23 243.12 494.44 240.81 499.61 238.41 C500.44 238.03 501.27 237.65 502.13 237.25 C503.57 236.59 505.01 235.91 506.44 235.22 C512.19 232.56 518.15 231.07 524.25 233.06 C526.92 234.94 528.55 236.89 530.52 239.45 C533.42 242.49 537.27 244.16 541 246 C542.18 246.6 543.35 247.2 544.56 247.81 C545.37 248.2 546.17 248.6 547 249 C547.33 248.34 547.66 247.68 548 247 C545.13 242.93 542.75 241.12 538.19 239.19 C533.04 236.78 530.02 234.39 526.79 229.73 C522.15 225.25 517.01 225.79 511.42 227.99 Z M-109.56 549.06 C-110.69 549.62 -110.69 549.62 -111.85 550.19 C-117.15 552.96 -119.65 555.46 -122 561 C-121.67 561.66 -121.34 562.32 -121 563 C-120.32 562.25 -119.63 561.51 -118.93 560.74 C-116.01 557.82 -112.82 556.04 -109.12 554.19 C-107.95 553.58 -106.78 552.98 -105.57 552.36 C-101.73 550.9 -99.07 550.59 -95 551 C-92.69 552.94 -92.69 552.94 -91.49 554.32 C-86.51 559.93 -80.44 564.68 -74.62 569.38 C-70.07 573.06 -65.76 576.93 -61.48 580.91 C-58.25 583.9 -54.93 586.74 -51.5 589.5 C-46.98 593.13 -42.72 596.97 -38.48 600.91 C-35.25 603.9 -31.93 606.74 -28.5 609.5 C-24.52 612.7 -20.73 616.03 -17 619.5 C-12.39 623.79 -7.62 627.8 -2.71 631.75 C1.07 634.88 4.64 638.21 8.25 641.54 C10.92 643.93 13.65 646.19 16.44 648.44 C20.97 652.1 25.26 655.95 29.52 659.91 C32.75 662.9 36.07 665.74 39.5 668.5 C44.02 672.13 48.28 675.97 52.52 679.91 C55.75 682.9 59.07 685.74 62.5 688.5 C67.02 692.13 71.28 695.97 75.52 699.91 C78.75 702.9 82.07 705.74 85.5 708.5 C89.48 711.7 93.27 715.03 97 718.5 C101.61 722.79 106.38 726.8 111.29 730.75 C115.07 733.88 118.64 737.21 122.25 740.54 C124.92 742.93 127.65 745.19 130.44 747.44 C134.97 751.1 139.26 754.95 143.52 758.91 C146.75 761.9 150.07 764.74 153.5 767.5 C158.02 771.13 162.28 774.97 166.52 778.91 C169.75 781.9 173.07 784.74 176.5 787.5 C181.02 791.13 185.28 794.97 189.52 798.91 C192.75 801.9 196.07 804.74 199.5 807.5 C203.48 810.7 207.27 814.03 211 817.5 C215.61 821.79 220.38 825.8 225.29 829.75 C229.07 832.88 232.64 836.21 236.25 839.54 C238.92 841.93 241.65 844.19 244.44 846.44 C248.97 850.1 253.26 853.95 257.52 857.91 C260.75 860.9 264.07 863.74 267.5 866.5 C272.02 870.13 276.28 873.97 280.52 877.91 C283.75 880.9 287.07 883.74 290.5 886.5 C295.02 890.13 299.28 893.97 303.52 897.91 C306.75 900.9 310.07 903.74 313.5 906.5 C318.02 910.13 322.28 913.97 326.52 917.91 C329.75 920.9 333.07 923.74 336.5 926.5 C341.02 930.13 345.28 933.97 349.52 937.91 C352.75 940.9 356.07 943.74 359.5 946.5 C364.02 950.13 368.28 953.97 372.52 957.91 C375.75 960.9 379.07 963.74 382.5 966.5 C387.6 970.6 392.39 974.96 397.18 979.42 C400.05 982.05 403 984.52 406 987 C407.02 987.98 408.03 988.97 409 990 C406.69 981.18 400.87 976.96 394.03 971.49 C390.91 968.93 387.95 966.25 385 963.5 C381.29 960.05 377.51 956.73 373.56 953.56 C368.78 949.72 364.31 945.63 359.84 941.44 C355.63 937.52 351.24 933.88 346.75 930.28 C343.74 927.78 340.86 925.16 338 922.5 C334.27 919.03 330.48 915.7 326.5 912.5 C322.52 909.3 318.73 905.97 315 902.5 C310.39 898.21 305.62 894.2 300.71 890.25 C296.93 887.12 293.36 883.79 289.75 880.46 C287.08 878.07 284.35 875.81 281.56 873.56 C277.03 869.9 272.74 866.05 268.48 862.09 C265.25 859.1 261.93 856.26 258.5 853.5 C253.98 849.87 249.72 846.03 245.48 842.09 C242.25 839.1 238.93 836.26 235.5 833.5 C230.98 829.87 226.72 826.03 222.48 822.09 C219.25 819.1 215.93 816.26 212.5 813.5 C207.98 809.87 203.72 806.03 199.48 802.09 C196.25 799.1 192.93 796.26 189.5 793.5 C184.98 789.87 180.72 786.03 176.48 782.09 C173.25 779.1 169.93 776.26 166.5 773.5 C161.98 769.87 157.72 766.03 153.48 762.09 C150.25 759.1 146.93 756.26 143.5 753.5 C139.52 750.3 135.73 746.97 132 743.5 C127.39 739.21 122.62 735.2 117.71 731.25 C113.93 728.12 110.36 724.79 106.75 721.46 C104.08 719.07 101.35 716.81 98.56 714.56 C94.03 710.9 89.74 707.05 85.48 703.09 C82.25 700.1 78.93 697.26 75.5 694.5 C70.98 690.87 66.72 687.03 62.48 683.09 C59.25 680.1 55.93 677.26 52.5 674.5 C48.52 671.3 44.73 667.97 41 664.5 C36.39 660.21 31.62 656.2 26.71 652.25 C22.93 649.12 19.36 645.79 15.75 642.46 C13.08 640.07 10.35 637.81 7.56 635.56 C3.03 631.9 -1.26 628.05 -5.52 624.09 C-8.75 621.1 -12.07 618.26 -15.5 615.5 C-19.48 612.3 -23.27 608.97 -27 605.5 C-31.61 601.21 -36.38 597.2 -41.29 593.25 C-45.07 590.12 -48.64 586.79 -52.25 583.46 C-54.92 581.07 -57.65 578.81 -60.44 576.56 C-64.97 572.91 -69.25 569.07 -73.5 565.1 C-77.71 561.2 -82.11 557.6 -86.62 554.07 C-89.1 551.91 -90.96 549.57 -93 547 C-99.14 542.9 -103.65 545.93 -109.56 549.06 Z M409 991 C410 993 410 993 410 993 Z " fill="#343433" transform="translate(550,42)"/>
<path d="M0 0 C1.72 1.68 3.4 3.4 5 5.19 C8.47 8.35 12.2 10.23 16.39 12.32 C18.81 13.75 18.81 13.75 20.81 16.75 C21.26 27.42 19.09 38.31 17.53 48.83 C16.01 59.12 14.7 69.43 13.44 79.75 C11.67 94.14 9.79 108.51 7.81 122.88 C7.3 126.59 6.79 130.3 6.28 134.02 C6.09 135.38 6.09 135.38 5.9 136.76 C4.68 145.71 3.49 154.67 2.31 163.62 C2.21 164.39 2.11 165.16 2.01 165.94 C1.27 171.55 0.54 177.15 -0.19 182.75 C-0.3 183.61 -0.41 184.47 -0.53 185.35 C-1.12 189.93 -1.72 194.51 -2.32 199.08 C-2.5 200.5 -2.5 200.5 -2.69 201.94 C-2.94 203.86 -3.19 205.78 -3.44 207.7 C-5.49 223.41 -7.55 239.11 -9.62 254.81 C-9.77 255.92 -9.92 257.02 -10.07 258.16 C-11.54 269.34 -13.02 280.52 -14.5 291.69 C-15.23 297.19 -15.96 302.69 -16.69 308.19 C-16.9 309.82 -16.9 309.82 -17.12 311.49 C-18.75 323.76 -20.36 336.02 -21.94 348.29 C-22.08 349.41 -22.23 350.53 -22.38 351.69 C-22.67 353.95 -22.96 356.22 -23.25 358.48 C-23.47 360.16 -23.47 360.16 -23.69 361.88 C-23.83 362.99 -23.98 364.11 -24.12 365.26 C-26.49 383.6 -28.96 401.92 -31.53 420.23 C-33.28 432.77 -34.9 445.33 -36.49 457.89 C-39.02 477.85 -41.65 497.8 -44.35 517.74 C-44.53 519.09 -44.72 520.44 -44.9 521.79 C-46.39 532.8 -47.89 543.81 -49.38 554.81 C-50.69 564.42 -51.99 574.02 -53.29 583.62 C-53.47 584.92 -53.64 586.23 -53.83 587.58 C-56.16 604.83 -58.4 622.09 -60.42 639.38 C-61.34 647.25 -62.49 655.09 -63.65 662.92 C-64.67 669.89 -65.59 676.86 -66.45 683.85 C-66.55 684.72 -66.66 685.6 -66.77 686.5 C-67.31 690.84 -67.84 695.18 -68.35 699.52 C-70.8 719.76 -70.8 719.76 -76.19 724.25 C-81.81 727.06 -86.98 728 -93.19 726.75 C-97 724.23 -99.99 721 -103.19 717.75 C-104.96 716.27 -106.75 714.81 -108.56 713.38 C-113.12 709.69 -117.42 705.82 -121.71 701.84 C-124.94 698.85 -128.25 696.01 -131.69 693.25 C-136.21 689.62 -140.47 685.78 -144.71 681.84 C-147.94 678.85 -151.25 676.01 -154.69 673.25 C-159.21 669.62 -163.47 665.78 -167.71 661.84 C-170.94 658.85 -174.25 656.01 -177.69 653.25 C-182.21 649.62 -186.47 645.78 -190.71 641.84 C-193.94 638.85 -197.25 636.01 -200.69 633.25 C-205.21 629.62 -209.47 625.78 -213.71 621.84 C-216.94 618.85 -220.25 616.01 -223.69 613.25 C-228.21 609.62 -232.47 605.78 -236.71 601.84 C-239.94 598.85 -243.25 596.01 -246.69 593.25 C-251.21 589.62 -255.47 585.78 -259.71 581.84 C-262.94 578.85 -266.25 576.01 -269.69 573.25 C-274.21 569.62 -278.47 565.78 -282.71 561.84 C-285.94 558.85 -289.25 556.01 -292.69 553.25 C-297.21 549.62 -301.47 545.78 -305.71 541.84 C-308.94 538.85 -312.25 536.01 -315.69 533.25 C-320.21 529.62 -324.47 525.78 -328.71 521.84 C-331.94 518.85 -335.25 516.01 -338.69 513.25 C-343.21 509.62 -347.47 505.78 -351.71 501.84 C-354.94 498.85 -358.25 496.01 -361.69 493.25 C-366.21 489.62 -370.47 485.78 -374.71 481.84 C-377.94 478.85 -381.25 476.01 -384.69 473.25 C-389.21 469.62 -393.47 465.78 -397.71 461.84 C-400.94 458.85 -404.25 456.01 -407.69 453.25 C-412.21 449.62 -416.47 445.78 -420.71 441.84 C-423.94 438.85 -427.25 436.01 -430.69 433.25 C-435.21 429.62 -439.47 425.78 -443.71 421.84 C-446.94 418.85 -450.25 416.01 -453.69 413.25 C-458.21 409.62 -462.47 405.78 -466.71 401.84 C-469.94 398.85 -473.25 396.01 -476.69 393.25 C-481.21 389.62 -485.47 385.78 -489.71 381.84 C-492.94 378.85 -496.25 376.01 -499.69 373.25 C-504.21 369.62 -508.47 365.78 -512.71 361.84 C-515.94 358.85 -519.25 356.01 -522.69 353.25 C-527.21 349.62 -531.47 345.78 -535.71 341.84 C-538.94 338.85 -542.25 336.01 -545.69 333.25 C-550.21 329.62 -554.47 325.78 -558.71 321.84 C-561.94 318.85 -565.25 316.01 -568.69 313.25 C-573.26 309.57 -577.61 305.7 -581.9 301.7 C-584.74 299.06 -587.63 296.53 -590.62 294.06 C-594.41 290.75 -596.94 287.24 -599.19 282.75 C-599.51 282.13 -599.83 281.51 -600.16 280.88 C-602.4 275.55 -602.53 270.14 -602.62 264.44 C-602.66 263.25 -602.66 263.25 -602.69 262.05 C-602.69 261.29 -602.69 260.54 -602.68 259.76 C-602.69 259.09 -602.69 258.41 -602.69 257.71 C-601.95 254.82 -600.46 253.64 -598.19 251.75 C-595.78 250.46 -595.78 250.46 -593.04 249.33 C-591.47 248.67 -591.47 248.67 -589.87 248 C-588.71 247.52 -587.56 247.05 -586.38 246.56 C-584.49 245.77 -582.6 244.98 -580.72 244.19 C-579.37 243.62 -578.01 243.05 -576.66 242.48 C-569.02 239.27 -561.42 235.96 -553.83 232.64 C-551.35 231.55 -548.86 230.47 -546.38 229.38 C-543 227.91 -539.62 226.43 -536.24 224.96 C-528.87 221.74 -521.49 218.52 -514.11 215.31 C-510.06 213.54 -506 211.77 -501.94 210 C-500.31 209.29 -498.69 208.58 -497.06 207.88 C-496.26 207.52 -495.45 207.17 -494.62 206.81 C-414.19 171.75 -333.75 136.69 -211.87 83.56 C-210.25 82.85 -208.63 82.15 -207 81.44 C-202.93 79.66 -198.87 77.89 -194.8 76.12 C-187.55 72.96 -180.3 69.8 -173.05 66.64 C-141.82 53.02 -110.58 39.41 -79.31 25.88 C-69.01 21.42 -58.72 16.93 -48.44 12.44 C-47.76 12.14 -47.08 11.84 -46.38 11.54 C-40.02 8.76 -33.65 5.97 -27.31 3.12 C-26.47 2.75 -25.63 2.37 -24.76 1.98 C-23.28 1.31 -21.79 0.64 -20.31 -0.03 C-13.07 -3.29 -6.88 -4.85 0 0 Z " fill="#FDFDFD" transform="translate(1077.1875,276.25)"/>
<path d="M0 0 C2.31 1.94 2.31 1.94 3.51 3.32 C8.49 8.93 14.56 13.68 20.38 18.38 C24.93 22.06 29.24 25.93 33.52 29.91 C36.75 32.9 40.07 35.74 43.5 38.5 C48.02 42.13 52.28 45.97 56.52 49.91 C59.75 52.9 63.07 55.74 66.5 58.5 C70.48 61.7 74.27 65.03 78 68.5 C82.61 72.79 87.38 76.8 92.29 80.75 C96.07 83.88 99.64 87.21 103.25 90.54 C105.92 92.93 108.65 95.19 111.44 97.44 C115.97 101.1 120.26 104.95 124.52 108.91 C127.75 111.9 131.07 114.74 134.5 117.5 C139.02 121.13 143.28 124.97 147.52 128.91 C150.75 131.9 154.07 134.74 157.5 137.5 C162.02 141.13 166.28 144.97 170.52 148.91 C173.75 151.9 177.07 154.74 180.5 157.5 C184.48 160.7 188.27 164.03 192 167.5 C196.61 171.79 201.38 175.8 206.29 179.75 C210.07 182.88 213.64 186.21 217.25 189.54 C219.92 191.93 222.65 194.19 225.44 196.44 C229.97 200.1 234.26 203.95 238.52 207.91 C241.75 210.9 245.07 213.74 248.5 216.5 C253.02 220.13 257.28 223.97 261.52 227.91 C264.75 230.9 268.07 233.74 271.5 236.5 C276.02 240.13 280.28 243.97 284.52 247.91 C287.75 250.9 291.07 253.74 294.5 256.5 C298.48 259.7 302.27 263.03 306 266.5 C310.61 270.79 315.38 274.8 320.29 278.75 C324.07 281.88 327.64 285.21 331.25 288.54 C333.92 290.93 336.65 293.19 339.44 295.44 C343.97 299.1 348.26 302.95 352.52 306.91 C355.75 309.9 359.07 312.74 362.5 315.5 C367.02 319.13 371.28 322.97 375.52 326.91 C378.75 329.9 382.07 332.74 385.5 335.5 C390.02 339.13 394.28 342.97 398.52 346.91 C401.75 349.9 405.07 352.74 408.5 355.5 C413.02 359.13 417.28 362.97 421.52 366.91 C424.75 369.9 428.07 372.74 431.5 375.5 C436.02 379.13 440.28 382.97 444.52 386.91 C447.75 389.9 451.07 392.74 454.5 395.5 C459.02 399.13 463.28 402.97 467.52 406.91 C470.75 409.9 474.07 412.74 477.5 415.5 C482.1 419.2 486.47 423.09 490.78 427.12 C493.43 429.59 496.13 431.91 499 434.12 C503.55 438.03 505.51 442.82 506.41 448.67 C506.78 455.56 505.3 461.52 501 467 C495.85 471.47 490.53 474.39 484.21 476.86 C483.37 477.19 482.53 477.53 481.67 477.88 C478.91 479 476.14 480.09 473.38 481.19 C471.41 481.98 469.45 482.76 467.5 483.55 C464.44 484.79 461.38 486.02 458.31 487.25 C448.37 491.24 438.47 495.33 428.57 499.43 C423.76 501.43 418.94 503.42 414.12 505.41 C413.19 505.79 412.25 506.18 411.28 506.58 C401.92 510.45 392.56 514.29 383.19 518.12 C369.94 523.55 356.72 529.01 343.5 534.5 C330.28 539.99 317.06 545.45 303.81 550.88 C283.81 559.07 263.84 567.32 243.86 575.58 C233.29 579.95 222.71 584.32 212.13 588.68 C209.27 589.87 206.4 591.05 203.53 592.24 C202.58 592.63 201.63 593.02 200.66 593.42 C194.84 595.83 189.02 598.23 183.2 600.64 C164.2 608.49 145.21 616.33 126.19 624.12 C111.38 630.19 96.59 636.3 81.82 642.44 C68.99 647.76 56.15 653.07 43.31 658.38 C42.36 658.77 41.41 659.16 40.42 659.57 C36.55 661.17 32.68 662.76 28.81 664.36 C20.9 667.63 12.99 670.9 5.08 674.16 C0.22 676.17 -4.64 678.18 -9.51 680.18 C-17.59 683.52 -25.67 686.85 -33.73 690.26 C-36.89 691.6 -40.06 692.93 -43.23 694.26 C-44.68 694.87 -46.13 695.48 -47.58 696.11 C-49.55 696.95 -51.52 697.78 -53.5 698.61 C-54.59 699.07 -55.69 699.54 -56.81 700.02 C-60.42 701.13 -63.25 701.32 -67 701 C-70.54 698.59 -72.65 696.46 -75.25 693.06 C-80.71 686.3 -89.54 683.17 -97.43 680.18 C-100 679 -101.26 678.18 -103 676 C-103.24 674.14 -103.24 674.14 -103.05 671.95 C-102.98 671.08 -102.91 670.22 -102.83 669.33 C-102.73 668.34 -102.63 667.36 -102.53 666.35 C-102.38 664.74 -102.38 664.74 -102.23 663.09 C-100.42 643.92 -98.1 624.8 -95.88 605.68 C-95.27 600.37 -94.66 595.06 -94.05 589.75 C-93.13 581.78 -92.21 573.82 -91.29 565.85 C-89.83 553.19 -88.37 540.53 -86.92 527.87 C-81.88 484.03 -76.83 440.2 -71.77 396.37 C-71.52 394.2 -71.26 392.02 -71.01 389.85 C-67.91 362.98 -64.8 336.11 -61.7 309.24 C-59.47 289.98 -57.24 270.71 -55.02 251.45 C-54.93 250.72 -54.85 250 -54.76 249.25 C-49.59 204.49 -44.43 159.72 -39.3 114.96 C-39.15 113.7 -39.01 112.44 -38.86 111.14 C-38.72 109.91 -38.58 108.67 -38.43 107.4 C-38.22 105.58 -38.22 105.58 -38.01 103.72 C-37.73 101.31 -37.46 98.91 -37.18 96.5 C-36.52 90.78 -35.87 85.05 -35.2 79.33 C-34.08 69.64 -32.98 59.95 -31.97 50.25 C-31.54 46.14 -31.1 42.02 -30.66 37.91 C-30.46 36 -30.27 34.09 -30.08 32.18 C-29.82 29.58 -29.54 26.98 -29.26 24.38 C-29.16 23.25 -29.16 23.25 -29.05 22.1 C-28.4 16.32 -26.68 11.28 -22.1 7.38 C-21.45 7.04 -20.8 6.7 -20.14 6.35 C-19.41 5.96 -18.69 5.58 -17.95 5.19 C-17.2 4.81 -16.46 4.44 -15.69 4.06 C-14.95 3.66 -14.22 3.27 -13.46 2.86 C-8.84 0.47 -5.31 -0.64 0 0 Z " fill="#F3F4F5" transform="translate(455,592)"/>
<path d="M0 0 C2.33 2.95 4.14 5.95 5.9 9.27 C6.45 10.31 7.01 11.35 7.58 12.42 C8.17 13.54 8.76 14.66 9.38 15.81 C13.89 24.28 18.48 32.68 23.25 41 C29.56 52.04 35.48 63.27 41.41 74.52 C46.09 83.41 50.83 92.27 55.66 101.08 C59.48 108.03 63.25 115.01 67 122 C71.31 130.01 75.64 138.02 80 146 C87.33 159.41 94.56 172.87 101.79 186.33 C107.83 197.57 113.88 208.8 120 220 C127.33 233.41 134.56 246.87 141.79 260.33 C148.31 272.47 154.86 284.59 161.46 296.68 C165.92 304.83 170.32 313 174.72 321.18 C178.65 328.5 182.6 335.82 186.56 343.12 C187.1 344.11 187.63 345.09 188.18 346.11 C189.78 349.07 191.39 352.04 193 355 C199.11 366.27 205.22 377.53 211.29 388.82 C216.34 398.22 221.4 407.62 226.5 417 C227.2 418.3 227.2 418.3 227.92 419.62 C230.74 424.8 233.69 429.86 236.78 434.87 C239.85 440.24 239.88 446 239 452 C237.5 455.2 235.71 458.06 233.82 461.05 C227.59 471.13 227.64 480.73 228.06 492.28 C228.09 493.33 228.12 494.38 228.15 495.46 C228.19 496.41 228.23 497.35 228.28 498.33 C227.71 503.82 224.24 507.03 220.19 510.35 C216.7 512.98 213.06 515.36 209.41 517.75 C205.72 520.17 202.08 522.68 198.44 525.19 C197.07 526.13 195.7 527.08 194.33 528.02 C193.62 528.51 192.92 528.99 192.19 529.49 C188.36 532.13 184.53 534.75 180.69 537.38 C179.89 537.92 179.1 538.46 178.28 539.02 C176.66 540.13 175.04 541.24 173.42 542.34 C169.45 545.06 165.47 547.78 161.5 550.5 C156.72 553.77 151.93 557.05 147.14 560.32 C139.76 565.37 132.37 570.43 125 575.5 C116.82 581.13 108.62 586.74 100.42 592.34 C96.45 595.06 92.47 597.78 88.5 600.5 C83.72 603.77 78.93 607.05 74.14 610.32 C66.76 615.37 59.37 620.43 52 625.5 C42.2 632.24 32.38 638.95 22.56 645.67 C14.37 651.27 6.18 656.87 -2 662.5 C-10.18 668.13 -18.38 673.74 -26.58 679.34 C-28.97 680.98 -31.37 682.62 -33.76 684.26 C-34.54 684.79 -35.33 685.33 -36.13 685.88 C-37.71 686.96 -39.29 688.04 -40.86 689.12 C-44.88 691.87 -48.9 694.61 -52.93 697.36 C-61.46 703.17 -69.94 709.04 -78.31 715.07 C-84.81 719.73 -84.81 719.73 -90 719 C-92.69 716.9 -92.69 716.9 -95 714 C-95.38 710.84 -95.38 710.84 -95.01 707.17 C-94.91 706.13 -94.91 706.13 -94.81 705.08 C-94.58 702.71 -94.29 700.36 -94 698 C-93.9 697.14 -93.8 696.29 -93.69 695.41 C-92.84 688.37 -91.87 681.36 -90.9 674.34 C-90.59 672.04 -90.28 669.74 -89.96 667.45 C-89.3 662.6 -88.64 657.75 -87.97 652.9 C-86.41 641.53 -84.86 630.16 -83.32 618.79 C-82.98 616.29 -82.63 613.79 -82.29 611.28 C-79.64 591.78 -77.05 572.27 -74.56 552.75 C-72.08 533.26 -69.5 513.78 -66.83 494.31 C-63.33 468.7 -59.98 443.07 -56.62 417.44 C-52.9 389.01 -49.16 360.58 -45.3 332.18 C-41.27 302.54 -37.33 272.9 -33.44 243.25 C-33.23 241.65 -33.23 241.65 -33.01 240.03 C-29.31 211.83 -25.65 183.63 -22.05 155.41 C-19.02 131.75 -15.91 108.09 -12.75 84.44 C-12.65 83.67 -12.54 82.9 -12.44 82.11 C-11.27 73.32 -10.09 64.53 -8.91 55.74 C-8.27 51 -7.63 46.25 -7 41.5 C-6.55 38.14 -6.1 34.77 -5.65 31.41 C-5.44 29.81 -5.23 28.21 -5.02 26.61 C-1.72 1.72 -1.72 1.72 0 0 Z " fill="#DDDEDE" transform="translate(1139,285)"/>
<path d="M0 0 C7.31 1.87 14.68 3.35 22.07 4.82 C23.6 5.13 25.12 5.43 26.64 5.74 C30.8 6.57 34.96 7.4 39.12 8.23 C43.62 9.13 48.12 10.03 52.62 10.93 C61.44 12.7 70.27 14.46 79.09 16.22 C89.44 18.29 99.79 20.36 110.14 22.43 C128.69 26.14 147.24 29.84 165.8 33.55 C183.63 37.11 201.46 40.67 219.29 44.24 C220.37 44.46 221.46 44.68 222.59 44.9 C224.78 45.34 226.98 45.78 229.17 46.22 C230.26 46.43 231.34 46.65 232.46 46.87 C234.08 47.2 234.08 47.2 235.73 47.53 C252.92 50.96 270.1 54.4 287.28 57.83 C293.41 59.06 299.55 60.28 305.68 61.51 C316.37 63.65 327.07 65.78 337.76 67.92 C341.49 68.66 345.21 69.41 348.94 70.15 C368.05 73.97 387.16 77.77 406.28 81.52 C409.01 82.05 411.73 82.59 414.45 83.12 C416.22 83.47 417.99 83.82 419.76 84.16 C420.62 84.33 421.48 84.5 422.37 84.68 C427.4 85.66 432.43 86.64 437.46 87.62 C440.52 88.21 443.57 88.81 446.63 89.41 C448.04 89.69 449.44 89.96 450.85 90.23 C452.77 90.6 454.68 90.98 456.6 91.36 C457.67 91.57 458.73 91.77 459.83 91.99 C462.61 92.65 465.1 93.55 467.71 94.68 C467.71 95.34 467.71 96 467.71 96.68 C447.72 105.6 427.7 114.45 407.63 123.18 C396.8 127.89 385.99 132.62 375.19 137.37 C354.85 146.32 334.47 155.19 314.08 164.04 C304.64 168.14 295.21 172.25 285.78 176.36 C284.98 176.71 284.19 177.06 283.38 177.41 C279.41 179.14 275.44 180.87 271.48 182.6 C262.57 186.48 253.67 190.36 244.77 194.24 C242.32 195.31 239.88 196.37 237.44 197.44 C236.63 197.79 235.82 198.14 234.99 198.5 C230.19 200.6 225.39 202.69 220.58 204.79 C201.32 213.19 182.05 221.58 162.78 229.95 C149.44 235.75 136.11 241.55 122.78 247.36 C121.98 247.71 121.19 248.06 120.37 248.41 C114.82 250.83 109.27 253.26 103.71 255.68 C97.36 258.45 91.01 261.22 84.65 263.99 C83.86 264.34 83.06 264.68 82.25 265.04 C67.76 271.35 53.27 277.65 38.78 283.95 C25.44 289.75 12.11 295.55 -1.22 301.36 C-2.02 301.71 -2.81 302.06 -3.63 302.41 C-9.18 304.83 -14.73 307.26 -20.29 309.68 C-26.64 312.45 -32.99 315.22 -39.35 317.99 C-40.14 318.33 -40.93 318.68 -41.74 319.03 C-51.52 323.3 -61.3 327.55 -71.09 331.81 C-72.08 332.24 -73.08 332.67 -74.11 333.12 C-75.11 333.55 -76.11 333.99 -77.14 334.43 C-98.85 343.87 -98.85 343.87 -120.54 353.36 C-121.54 353.8 -122.53 354.24 -123.56 354.7 C-127.96 356.62 -127.96 356.62 -132.29 358.68 C-136.64 359.17 -138.63 359.13 -142.29 356.61 C-144.29 353.68 -144.29 353.68 -144 350.4 C-143.34 346.96 -142.62 343.54 -141.81 340.13 C-141.67 339.5 -141.52 338.88 -141.37 338.23 C-141.04 336.86 -140.72 335.49 -140.39 334.12 C-139.85 331.85 -139.31 329.59 -138.78 327.32 C-137.98 323.95 -137.18 320.58 -136.38 317.21 C-134.11 307.65 -131.86 298.09 -129.61 288.54 C-129.36 287.5 -129.12 286.46 -128.86 285.38 C-122.49 258.36 -116.2 231.31 -109.92 204.27 C-108.79 199.43 -107.67 194.6 -106.55 189.76 C-100.07 161.92 -93.6 134.08 -87.19 106.22 C-85.58 99.25 -83.97 92.28 -82.37 85.32 C-80.87 78.85 -79.39 72.39 -77.91 65.92 C-77.01 61.99 -76.1 58.06 -75.19 54.13 C-74.77 52.32 -74.36 50.52 -73.95 48.72 C-73.39 46.28 -72.83 43.84 -72.26 41.4 C-72.1 40.7 -71.95 40 -71.79 39.27 C-70.6 34.24 -69.16 29.52 -65.41 25.83 C-62.88 24.46 -61.16 24.31 -58.29 24.24 C-44.94 23.32 -32.71 17.08 -23.29 7.68 C-22.23 6.44 -21.19 5.19 -20.16 3.93 C-14.58 -2.74 -7.93 -2.1 0 0 Z " fill="#D0D0D0" transform="translate(592.2862243652344,131.3229637145996)"/>
<path d="M0 0 C7.27 4.19 12.95 10.22 15.69 18.25 C19.26 32.51 20.48 47.45 21.96 62.04 C22.48 67.16 23.02 72.28 23.56 77.39 C23.73 79.03 23.73 79.03 23.91 80.71 C25.31 94 26.81 107.28 28.31 120.56 C28.46 121.84 28.6 123.11 28.75 124.43 C29.59 131.8 30.43 139.17 31.27 146.55 C31.95 152.56 32.63 158.57 33.31 164.59 C34.03 170.9 34.75 177.21 35.46 183.51 C35.89 187.31 36.33 191.1 36.75 194.89 C37.24 199.14 37.72 203.38 38.2 207.62 C38.28 208.29 38.36 208.96 38.43 209.65 C39.55 219.38 40.75 229.09 42.12 238.78 C44 252.39 44 252.39 41.06 257.12 C38.83 259.49 36.38 261.06 33.62 262.75 C29 265.66 26.57 269.13 23.62 273.66 C20.39 278.32 16.44 281.31 11 283 C8.04 283.3 5.11 283.29 2.13 283.25 C1.26 283.25 0.38 283.24 -0.52 283.24 C-11.12 283.08 -21.62 282.02 -32.16 280.95 C-34.38 280.73 -36.61 280.51 -38.84 280.29 C-44.81 279.7 -50.79 279.1 -56.76 278.5 C-63.12 277.86 -69.48 277.24 -75.85 276.61 C-90.04 275.2 -104.24 273.78 -118.44 272.36 C-123.88 271.81 -129.32 271.27 -134.76 270.72 C-142.62 269.94 -150.48 269.15 -158.35 268.36 C-159.31 268.27 -160.27 268.17 -161.26 268.07 C-166.19 267.58 -171.11 267.08 -176.04 266.59 C-213.93 262.78 -251.84 259.09 -289.75 255.41 C-351.59 249.42 -413.41 243.33 -475.23 237.17 C-490.09 235.69 -504.95 234.21 -519.81 232.74 C-525.58 232.18 -531.34 231.6 -537.1 231.03 C-541.43 230.6 -545.76 230.17 -550.1 229.75 C-553.97 229.37 -557.84 228.99 -561.71 228.6 C-563.09 228.46 -564.47 228.33 -565.85 228.19 C-567.7 228.01 -569.55 227.83 -571.39 227.64 C-572.41 227.54 -573.43 227.44 -574.48 227.34 C-577 227 -577 227 -580 226 C-579.7 224.11 -579.7 224.11 -579 222 C-576.45 220.62 -574.06 219.54 -571.38 218.49 C-570.58 218.16 -569.78 217.84 -568.96 217.5 C-566.31 216.43 -563.66 215.37 -561 214.31 C-559.13 213.56 -557.26 212.8 -555.4 212.04 C-551.52 210.46 -547.63 208.89 -543.75 207.33 C-535.91 204.16 -528.11 200.91 -520.31 197.66 C-516.06 195.9 -511.82 194.14 -507.57 192.38 C-506.28 191.85 -506.28 191.85 -504.97 191.3 C-478.76 180.44 -452.53 169.61 -426.27 158.88 C-405.46 150.38 -384.68 141.8 -363.91 133.2 C-355.13 129.57 -346.35 125.94 -337.56 122.31 C-336.13 121.72 -336.13 121.72 -334.66 121.11 C-321.51 115.68 -308.35 110.27 -295.19 104.88 C-280.38 98.81 -265.59 92.7 -250.82 86.56 C-237.99 81.24 -225.15 75.93 -212.31 70.62 C-210.88 70.03 -210.88 70.03 -209.41 69.43 C-204.55 67.42 -199.69 65.41 -194.83 63.41 C-189.05 61.02 -183.26 58.63 -177.48 56.24 C-176.53 55.85 -175.58 55.46 -174.61 55.06 C-171.74 53.87 -168.87 52.69 -166 51.5 C-155.42 47.13 -144.83 42.76 -134.25 38.39 C-116.38 31.01 -98.52 23.64 -80.67 16.23 C-77.23 14.8 -73.78 13.38 -70.34 11.96 C-63.37 9.08 -56.4 6.19 -49.49 3.18 C-46.84 2.02 -44.18 0.88 -41.52 -0.27 C-39.77 -1.03 -38.02 -1.81 -36.28 -2.6 C-22.83 -8.36 -12.68 -6.31 0 0 Z " fill="#D0D0D0" transform="translate(990,1099)"/>
<path d="M0 0 C3.47 1.49 5.74 3.4 8.48 5.99 C9.43 6.86 10.37 7.73 11.34 8.63 C14.14 11.6 15.69 13.51 15.8 17.65 C15.7 18.62 15.61 19.58 15.52 20.58 C15.4 21.74 15.29 22.9 15.18 24.1 C15.03 25.46 14.88 26.82 14.73 28.18 C14.65 28.93 14.57 29.68 14.49 30.45 C13.78 36.9 13.01 43.34 12.24 49.78 C11.99 51.94 11.73 54.1 11.48 56.26 C10.93 60.9 10.39 65.53 9.84 70.17 C8.35 82.78 6.87 95.38 5.39 107.99 C5.23 109.29 5.08 110.59 4.92 111.93 C1.72 139.24 -1.42 166.55 -4.54 193.87 C-4.8 196.18 -5.06 198.49 -5.32 200.8 C-6.54 211.47 -7.76 222.15 -8.97 232.82 C-12.02 259.59 -15.08 286.35 -18.14 313.12 C-18.3 314.5 -18.45 315.88 -18.61 317.26 C-25.92 381.17 -33.24 445.07 -40.59 508.96 C-40.96 512.1 -41.32 515.24 -41.68 518.37 C-41.77 519.15 -41.86 519.92 -41.95 520.72 C-43.38 533.13 -44.8 545.54 -46.23 557.95 C-47.66 570.43 -49.09 582.91 -50.53 595.39 C-51.32 602.17 -52.1 608.96 -52.87 615.75 C-53.59 621.99 -54.31 628.24 -55.03 634.48 C-55.29 636.74 -55.55 639 -55.81 641.25 C-58.84 667.91 -58.84 667.91 -61.27 676.18 C-61.93 676.51 -62.59 676.84 -63.27 677.18 C-73.1 653.12 -82.92 629.06 -92.66 604.96 C-98.29 591.04 -103.94 577.14 -109.61 563.24 C-119.65 538.63 -129.62 513.99 -139.57 489.35 C-145.8 473.88 -152.06 458.43 -158.32 442.98 C-159.58 439.87 -160.84 436.76 -162.1 433.65 C-172.34 408.34 -182.64 383.05 -192.95 357.76 C-196.72 348.52 -200.49 339.27 -204.25 330.03 C-207.91 321.05 -211.57 312.06 -215.23 303.08 C-217.46 297.6 -219.7 292.11 -221.93 286.63 C-230.54 265.47 -239.17 244.32 -247.95 223.24 C-248.43 222.08 -248.43 222.08 -248.93 220.9 C-251.93 213.46 -251.93 213.46 -255.27 206.18 C-256.16 197.91 -255.35 192.69 -250.27 186.18 C-244.4 177.97 -239.14 169.05 -239.16 158.69 C-239.15 157.84 -239.13 156.98 -239.12 156.11 C-239.09 154.33 -239.09 152.56 -239.1 150.79 C-238.96 145.14 -237.99 141.38 -234.28 137.03 C-230.24 133.32 -225.51 130.84 -220.7 128.24 C-218.96 127.27 -217.23 126.3 -215.49 125.32 C-214.28 124.64 -213.06 123.97 -211.85 123.3 C-205.63 119.84 -199.49 116.25 -193.36 112.63 C-191.51 111.55 -189.67 110.46 -187.82 109.38 C-177.84 103.52 -167.87 97.63 -157.9 91.74 C-153.36 89.05 -148.81 86.36 -144.27 83.68 C-142.43 82.59 -140.6 81.51 -138.77 80.43 C-127.77 73.93 -116.77 67.43 -105.77 60.93 C-104.86 60.39 -103.95 59.85 -103.02 59.3 C-101.18 58.22 -99.34 57.13 -97.5 56.04 C-93 53.39 -88.51 50.73 -84.01 48.07 C-76.12 43.4 -68.23 38.73 -60.31 34.11 C-46.39 25.96 -32.51 17.77 -18.69 9.45 C-17.78 8.9 -16.88 8.36 -15.94 7.81 C-14.13 6.7 -12.33 5.56 -10.55 4.38 C-4.13 0.22 -4.13 0.22 0 0 Z " fill="#D7D7D7" transform="translate(374.265625,578.82421875)"/>
<path d="M0 0 C-1.26 4.11 -2.78 7.65 -4.95 11.36 C-5.54 12.38 -6.13 13.4 -6.75 14.45 C-7.39 15.54 -8.03 16.63 -8.69 17.75 C-9.36 18.91 -10.04 20.07 -10.71 21.23 C-12.11 23.63 -13.52 26.03 -14.92 28.44 C-18.11 33.9 -21.28 39.39 -24.44 44.88 C-25.05 45.94 -25.67 47 -26.3 48.1 C-31.25 56.69 -36.17 65.29 -41.08 73.9 C-46.23 82.94 -51.46 91.95 -56.71 100.93 C-61.17 108.55 -65.56 116.21 -69.94 123.88 C-78.19 138.35 -86.52 152.78 -94.85 167.21 C-101.93 179.46 -108.99 191.71 -116 204 C-123.01 216.28 -130.07 228.54 -137.14 240.78 C-140.26 246.19 -143.38 251.59 -146.5 257 C-150.24 263.48 -153.97 269.95 -157.71 276.43 C-164.54 288.24 -171.32 300.06 -178.08 311.9 C-183.23 320.94 -188.46 329.95 -193.71 338.93 C-198.17 346.55 -202.56 354.21 -206.94 361.88 C-215.19 376.35 -223.52 390.78 -231.85 405.21 C-238.93 417.46 -245.99 429.71 -253 442 C-260.01 454.28 -267.05 466.53 -274.13 478.77 C-275.75 481.57 -277.37 484.38 -278.98 487.19 C-280.59 489.98 -282.2 492.77 -283.81 495.56 C-284.41 496.6 -285 497.63 -285.61 498.7 C-286.16 499.65 -286.71 500.59 -287.27 501.57 C-287.75 502.4 -288.23 503.24 -288.73 504.1 C-290 506 -290 506 -292 507 C-293.05 503.84 -293.4 501.05 -293.76 497.74 C-293.91 496.41 -294.06 495.07 -294.2 493.74 C-294.28 493.03 -294.36 492.31 -294.44 491.57 C-295.64 480.56 -296.91 469.56 -298.32 458.57 C-298.43 457.67 -298.55 456.78 -298.66 455.85 C-298.9 453.99 -299.14 452.12 -299.38 450.26 C-302.28 427.6 -304.8 404.9 -307.26 382.19 C-310.02 356.64 -312.94 331.12 -316.18 305.63 C-317.32 296.57 -318.26 287.63 -318.44 278.5 C-318.48 277.52 -318.53 276.54 -318.58 275.53 C-318.69 268.06 -316.94 263.59 -312 258 C-309.63 255.61 -307.13 253.43 -304.56 251.25 C-296.36 243.94 -289.73 235.21 -288 224 C-287.86 218.26 -288.1 212.52 -288.34 206.78 C-288.53 197.99 -288.53 197.99 -286.21 193.66 C-281.78 189.51 -276.43 186.27 -271.38 182.94 C-270.24 182.18 -269.11 181.43 -267.99 180.67 C-265.72 179.15 -263.45 177.63 -261.18 176.12 C-256.86 173.24 -252.59 170.31 -248.31 167.38 C-246.79 166.33 -245.26 165.29 -243.74 164.24 C-242.97 163.72 -242.21 163.19 -241.42 162.66 C-236.95 159.6 -232.47 156.55 -228 153.5 C-218.77 147.21 -209.55 140.9 -200.33 134.59 C-196.38 131.89 -192.44 129.2 -188.5 126.5 C-186.92 125.42 -185.33 124.33 -183.75 123.25 C-161.58 108.08 -139.42 92.92 -117.25 77.75 C-116.47 77.21 -115.68 76.68 -114.88 76.13 C-113.29 75.04 -111.7 73.96 -110.12 72.87 C-106.2 70.19 -102.28 67.5 -98.36 64.82 C-88.98 58.4 -79.59 51.99 -70.2 45.59 C-64.23 41.52 -58.27 37.45 -52.31 33.38 C-51.54 32.85 -50.77 32.32 -49.97 31.77 C-46.09 29.12 -42.21 26.46 -38.33 23.79 C-34.41 21.1 -30.48 18.41 -26.54 15.73 C-24.75 14.51 -22.96 13.29 -21.17 12.07 C-18.29 10.1 -15.39 8.14 -12.5 6.19 C-11.6 5.57 -10.69 4.95 -9.76 4.32 C-8.92 3.75 -8.08 3.19 -7.22 2.61 C-6.48 2.1 -5.73 1.6 -4.97 1.08 C-3 0 -3 0 0 0 Z " fill="#B1B1B1" transform="translate(1362,839)"/>
<path d="M0 0 C0.99 0.33 1.98 0.66 3 1 C2.41 7.21 1.42 13.1 -0.07 19.15 C-0.28 20 -0.48 20.85 -0.69 21.72 C-1.13 23.53 -1.57 25.34 -2.01 27.14 C-2.93 30.93 -3.84 34.72 -4.75 38.51 C-5.21 40.4 -5.66 42.29 -6.12 44.18 C-8.05 52.2 -9.92 60.23 -11.77 68.28 C-13.57 76.15 -15.4 84.02 -17.24 91.89 C-17.54 93.2 -17.85 94.52 -18.16 95.83 C-21.29 109.23 -24.43 122.63 -27.57 136.03 C-28.37 139.46 -29.18 142.88 -29.98 146.31 C-32.69 157.87 -35.4 169.44 -38.11 181 C-39.63 187.45 -41.14 193.89 -42.65 200.34 C-43.44 203.71 -44.23 207.09 -45.02 210.46 C-48.36 224.7 -51.7 238.94 -54.95 253.2 C-56.13 258.32 -57.32 263.42 -58.56 268.52 C-58.79 269.49 -59.02 270.45 -59.26 271.45 C-60.56 275.93 -62.35 278.9 -66.31 281.54 C-68.9 282.95 -71.32 283.86 -74.12 284.75 C-88.97 289.98 -99.58 300.01 -106.69 313.88 C-109.36 319.96 -110.43 326.39 -111.48 332.92 C-112.59 339.37 -114.2 343.89 -119.64 347.98 C-121.15 348.86 -121.15 348.86 -122.69 349.75 C-123.25 350.08 -123.81 350.41 -124.39 350.75 C-125.61 351.47 -126.83 352.18 -128.06 352.88 C-130.06 354.03 -132.05 355.21 -134.04 356.38 C-137.62 358.51 -141.21 360.61 -144.81 362.72 C-148.38 364.81 -151.94 366.9 -155.5 369 C-156.92 369.83 -158.33 370.67 -159.75 371.5 C-160.45 371.91 -161.15 372.33 -161.88 372.75 C-202.25 396.5 -202.25 396.5 -204.37 397.75 C-205.79 398.59 -207.22 399.42 -208.64 400.26 C-212.12 402.3 -215.59 404.35 -219.07 406.39 C-230.73 413.24 -242.36 420.12 -254 427 C-275.22 439.55 -275.22 439.55 -284.81 445.19 C-285.49 445.59 -286.16 445.98 -286.86 446.39 C-290.42 448.49 -293.98 450.58 -297.55 452.66 C-298.3 453.11 -299.06 453.55 -299.84 454.01 C-301.26 454.84 -302.69 455.68 -304.12 456.51 C-308.23 458.93 -312.26 461.42 -316.24 464.04 C-318.56 465.31 -320.41 465.41 -323 465 C-320.3 458.96 -316.49 453.76 -312.69 448.38 C-311.97 447.36 -311.26 446.34 -310.53 445.29 C-308.35 442.19 -306.18 439.1 -304 436 C-302.23 433.47 -300.46 430.94 -298.69 428.41 C-297.56 426.79 -296.42 425.18 -295.29 423.56 C-290.85 417.22 -286.42 410.86 -282 404.5 C-277.01 397.32 -272.02 390.16 -267 383 C-259.31 372.02 -251.65 361.01 -244 350 C-235.78 338.17 -227.55 326.35 -219.29 314.56 C-214.85 308.21 -210.42 301.86 -206 295.5 C-201.01 288.32 -196.02 281.16 -191 274 C-183.31 263.02 -175.65 252.01 -168 241 C-159.78 229.17 -151.55 217.35 -143.29 205.56 C-138.85 199.21 -134.42 192.86 -130 186.5 C-124.45 178.51 -118.87 170.53 -113.29 162.56 C-108.85 156.22 -104.42 149.86 -100 143.5 C-95.01 136.32 -90.02 129.16 -85 122 C-77.31 111.02 -69.65 100.01 -62 89 C-53.78 77.17 -45.55 65.35 -37.29 53.56 C-32.17 46.25 -27.08 38.93 -21.99 31.61 C-16.79 24.13 -11.57 16.66 -6.34 9.21 C-5.8 8.43 -5.25 7.66 -4.7 6.86 C-4.22 6.18 -3.75 5.51 -3.26 4.81 C-2.15 3.22 -1.07 1.61 0 0 Z " fill="#B1B1B1" transform="translate(470,201)"/>
</svg>
