<?xml version="1.0" encoding="UTF-8"?>
<!-- Generator: visioncortex VTracer 0.6.4 -->
<svg version="1.1" xmlns="http://www.w3.org/2000/svg" width="200" height="200">
<path d="M0 0 C66 0 132 0 200 0 C200 66 200 132 200 200 C134 200 68 200 0 200 C0 134 0 68 0 0 Z " fill="#FEFEFE" transform="translate(0,0)"/>
<path d="M0 0 C1.53 -0.01 3.07 -0.02 4.6 -0.03 C7.81 -0.05 11.01 -0.05 14.22 -0.02 C18.3 0.01 22.39 -0.04 26.47 -0.1 C29.64 -0.14 32.8 -0.14 35.97 -0.13 C37.47 -0.13 38.98 -0.14 40.48 -0.17 C48.23 -0.29 54.03 -0 60.06 5.39 C61.49 6.91 62.89 8.44 64.26 10 C65.28 10.96 66.33 11.9 67.39 12.81 C68.59 13.9 68.59 13.9 69.82 15 C70.65 15.74 71.47 16.48 72.32 17.25 C73.32 18.15 74.31 19.05 75.26 20 C75.3 21.8 75.27 23.59 75.21 25.39 C75.17 26.54 75.13 27.69 75.09 28.88 C75.04 30.14 75 31.39 74.95 32.69 C74.9 33.97 74.85 35.25 74.8 36.57 C74.27 50.73 73.29 64.86 72.26 79 C68.63 79 65 79 61.26 79 C61.14 71.53 61.26 64.11 61.62 56.65 C61.71 54.66 61.8 52.68 61.87 50.69 C62.07 45.46 62.36 40.31 63.04 35.12 C63.24 29.92 63.06 26.34 60.39 21.89 C51.28 12.85 41.86 12.49 29.38 12.48 C27.36 12.5 25.33 12.53 23.3 12.57 C19.88 12.63 16.46 12.59 13.04 12.53 C-2.95 11.72 -2.95 11.72 -16.98 18.03 C-19.1 20.21 -20.92 22.57 -22.74 25 C-23.4 25 -24.06 25 -24.74 25 C-24.59 26.19 -24.43 27.39 -24.27 28.62 C-23.42 36.34 -23.36 44.11 -23.14 51.87 C-23.1 53.07 -23.06 54.27 -23.02 55.51 C-22.99 56.59 -22.96 57.67 -22.93 58.78 C-22.79 62 -22.79 62 -22.26 65.18 C-21.56 70.32 -21.42 75.44 -21.24 80.63 C-21.18 82.29 -21.18 82.29 -21.12 83.99 C-20.95 88.7 -20.78 93.42 -20.62 98.14 C-20.5 101.6 -20.37 105.05 -20.24 108.5 C-20.21 109.57 -20.17 110.63 -20.13 111.72 C-19.96 116.58 -19.62 121.21 -18.74 126 C-18.8 128 -18.85 130.01 -18.91 132.01 C-18.96 137.61 -18.75 141.61 -15.39 146.24 C-12.91 148.66 -10.2 150.76 -7.39 152.79 C-4.81 154.68 -2.38 156.76 0.07 158.81 C1.32 159.81 1.32 159.81 2.59 160.83 C5.86 163.49 9.05 166.25 12.26 169 C12.59 162.07 12.92 155.14 13.26 148 C11.94 147.67 10.62 147.34 9.26 147 C4.45 144 1.94 140.32 0.26 135 C-0.78 129 -0.39 124.3 2.82 119.06 C5.77 115.24 8.54 112.35 13.26 111 C19.79 110.17 25.53 110.52 31.26 114 C36.22 118.86 38.42 122.17 38.57 129.19 C38.5 135.98 37.6 139.59 32.76 144.53 C30.15 146.88 28.85 148 25.26 148 C25.26 155.26 25.26 162.52 25.26 170 C32.27 164.35 39.11 158.64 45.58 152.37 C47.26 151 47.26 151 49.77 149.65 C53.54 147.37 56.59 145.33 57.86 140.9 C58.88 134.64 58.84 128.33 58.88 122 C59.01 115.4 59.13 108.8 59.26 102 C36.16 102 13.06 102 -10.74 102 C-10.74 69.18 -10.74 69.18 -2.74 59 C1.68 55 1.68 55 4.26 55 C3.6 53.91 2.94 52.81 2.26 51.69 C-0.56 46.02 -0.97 40.03 0.88 33.95 C3.31 29.05 7.26 25.19 12.26 23 C17.93 22.02 23.46 21.74 28.8 24.15 C30.87 25.62 32.54 27.14 34.26 29 C35.08 29.85 35.91 30.69 36.76 31.56 C39.08 36.88 38.89 42.28 38.26 48 C37.63 49.35 36.97 50.69 36.26 52 C36.26 52.99 36.26 53.98 36.26 55 C37.64 56.37 37.64 56.37 39.45 57.62 C44.46 61.69 47.24 66.93 49.26 73 C49.34 74.34 49.37 75.67 49.36 77.01 C49.35 77.69 49.35 78.38 49.35 79.08 C49.34 79.94 49.33 80.8 49.32 81.69 C49.3 84.43 49.28 87.17 49.26 90 C56.52 90 63.78 90 71.26 90 C71.28 95.33 71.28 100.67 71.26 106 C71.25 106.84 71.25 107.67 71.25 108.53 C71.21 113.91 71.11 119.28 70.95 124.66 C70.91 126.52 70.88 128.39 70.87 130.26 C70.76 145.8 70.76 145.8 67.12 151.13 C64.61 153.4 62.13 155.22 59.26 157 C58.27 157.82 57.28 158.65 56.26 159.5 C55.46 160.14 54.65 160.78 53.82 161.44 C50.02 164.51 46.36 167.69 42.76 171 C37.43 175.9 31.89 180.46 26.26 185 C24.25 186.66 22.25 188.33 20.26 190 C17.52 188.73 15.34 187.38 13.08 185.38 C12.49 184.86 11.89 184.35 11.29 183.81 C10.66 183.26 10.03 182.7 9.38 182.12 C8.03 180.94 6.68 179.75 5.33 178.57 C4.65 177.97 3.96 177.37 3.26 176.75 C0.28 174.15 -2.73 171.57 -5.74 169 C-10.84 164.64 -15.92 160.26 -20.99 155.88 C-21.64 155.32 -22.28 154.76 -22.95 154.19 C-29.97 148.1 -29.97 148.1 -30.3 143.66 C-30.38 142.7 -30.45 141.75 -30.53 140.77 C-30.63 139.15 -30.63 139.15 -30.74 137.5 C-30.82 136.35 -30.9 135.19 -30.99 134 C-31.95 119.28 -32.44 104.54 -32.99 89.8 C-33.43 78.06 -33.96 66.33 -34.74 54.61 C-34.95 51.34 -35.13 48.07 -35.32 44.81 C-35.57 40.58 -35.89 36.38 -36.29 32.16 C-37.2 20.31 -37.2 20.31 -33.34 15.66 C-30.93 13.23 -28.31 11.2 -25.45 9.29 C-23.67 8.04 -23.67 8.04 -22.21 6.27 C-15.96 -0.56 -8.63 -0.06 0 0 Z " fill="#69CD69" transform="translate(78.7421875,5)"/>
<path d="M0 0 C5.38 3.18 9.85 7.02 11.88 13.09 C11.88 17.71 11.88 22.33 11.88 27.09 C-0.66 27.09 -13.2 27.09 -26.12 27.09 C-26.12 11.57 -26.12 11.57 -20.75 5.34 C-14.82 0.26 -7.72 -3.29 0 0 Z " fill="#FCFEFC" transform="translate(105.125,67.90625)"/>
<path d="M0 0 C3.44 0.56 3.44 0.56 5.88 2.06 C8.08 5.59 8.23 8.51 7.44 12.56 C5.94 15.06 5.94 15.06 3.44 16.56 C0.63 17.17 -1.76 17.22 -4.56 16.56 C-7.55 14.02 -8.4 12.41 -9.12 8.56 C-8.11 3.15 -5.36 0.85 0 0 Z " fill="#FCFEFC" transform="translate(98.5625,126.4375)"/>
<path d="M0 0 C2.5 1.5 2.5 1.5 4 4 C4.6 6.81 4.66 9.2 4 12 C1.46 14.99 -0.16 15.84 -4 16.56 C-8.14 15.79 -9.55 14.39 -12 11 C-12.62 7.04 -12.61 4.99 -10.5 1.56 C-6.97 -0.64 -4.05 -0.8 0 0 Z " fill="#FCFEFC" transform="translate(102,39)"/>
</svg>
