<?xml version="1.0" encoding="UTF-8"?>
<!-- Generator: visioncortex VTracer 0.6.5 -->
<svg version="1.1" xmlns="http://www.w3.org/2000/svg" width="460" height="460">
<path d="M0,0 L318,0 L319,163 L320,166 L322,166 L326,172 L327,175 L329,175 L333,181 L334,184 L336,184 L341,191 L341,193 L343,193 L348,200 L348,202 L350,202 L355,209 L355,211 L357,211 L370,228 L378,238 L378,240 L75,240 L75,204 L90,196 L99,192 L115,185 L123,181 L142,172 L157,165 L163,163 L163,134 L158,132 L150,128 L135,121 L112,110 L102,105 L83,96 L62,86 L54,82 L39,75 L16,64 L6,59 L0,56 Z " fill="#DD221C" transform="translate(0,110)"/>
<path d="M0,0 L113,0 L111,4 L103,12 L102,14 L100,14 L100,16 L97,19 L95,19 L95,21 L93,21 L93,23 L91,23 L90,26 L88,26 L88,28 L86,28 L86,30 L84,30 L83,33 L81,33 L81,35 L79,35 L79,37 L77,37 L77,39 L74,42 L72,42 L72,44 L70,44 L70,46 L68,46 L67,49 L65,49 L65,51 L63,51 L63,53 L61,53 L60,56 L58,56 L58,58 L56,58 L54,62 L6,110 L2,115 L0,115 Z " fill="#DB221C" transform="translate(347,129)"/>
</svg>
