<?xml version="1.0" encoding="UTF-8"?>
<!-- Generator: visioncortex VTracer 0.6.5 -->
<svg version="1.1" xmlns="http://www.w3.org/2000/svg" width="64" height="64">
<path d="M0,0 L30,0 L43,23 L41,29 L30,48 L0,48 L-13,25 L-11,19 Z M3,2 L3,5 L28,4 L27,2 Z M1,5 Z M28,5 Z M0,7 Z M29,7 Z M-1,8 L0,10 Z M30,8 L31,10 Z M-2,10 Z M31,10 Z M-3,12 Z M32,12 Z M33,13 L34,15 Z M-4,14 Z M-5,15 L-4,17 Z M34,15 L35,17 Z M-6,17 Z M35,17 Z M4,18 Z M12,18 Z M17,18 Z M22,18 Z M29,18 Z M-7,19 Z M2,19 L3,21 Z M11,19 L12,22 Z M28,19 Z M36,19 Z M-8,20 L-7,22 Z M37,20 L38,22 Z M5,21 L6,23 Z M-9,22 L-8,26 Z M1,22 L2,24 Z M12,22 Z M22,22 L22,30 L23,30 L23,22 Z M24,22 Z M27,22 Z M38,22 L39,26 Z M13,23 Z M6,24 L7,26 Z M16,24 Z M0,25 L1,28 Z M18,25 L19,29 Z M26,25 Z M-8,26 L-7,28 Z M37,26 L38,28 Z M7,27 L8,30 Z M-7,28 Z M-1,28 L0,30 Z M36,28 Z M12,29 Z M16,29 Z M-6,30 Z M35,30 Z M-5,31 L-4,33 Z M34,31 L35,33 Z M-4,33 Z M33,33 L34,35 Z M-3,35 Z M32,35 Z M-2,37 Z M31,37 Z M-1,38 L0,40 Z M30,38 L31,40 Z M0,40 Z M29,40 Z M1,42 Z M28,42 Z M2,43 L3,46 L27,46 L28,44 Z " fill="#93BEFF" transform="translate(17,8)"/>
<path d="M0,0 L8,1 L10,4 L15,6 L16,8 L22,8 L23,6 L23,8 L27,7 L28,6 L34,6 L33,10 L25,25 L0,25 L-6,16 L-11,7 L-10,2 L0,2 Z M2,2 L3,4 Z M-2,3 L-1,5 Z M3,5 L4,7 Z M-3,6 L-2,9 Z M4,8 L5,11 Z M-4,9 L-3,11 Z M9,10 Z M13,10 Z " fill="#CBB1FF" transform="translate(20,27)"/>
<path d="M0,0 L30,0 L43,23 L41,29 L30,48 L0,48 L-13,25 L-11,19 Z M3,2 L-6,17 L-9,22 L-8,28 L-3,36 L3,46 L27,46 L36,31 L39,26 L38,20 L35,15 L27,2 Z " fill="#C323FF" transform="translate(17,8)"/>
<path d="M0,0 L8,1 L10,4 L15,6 L16,8 L22,8 L23,6 L23,8 L27,7 L28,6 L34,6 L33,10 L31,13 L-7,14 L-11,7 L-10,2 L0,2 Z M2,2 L3,4 Z M-2,3 L-1,5 Z M3,5 L4,7 Z M-3,6 L-2,9 Z M4,8 L5,11 Z M-4,9 L-3,11 Z M9,10 Z M13,10 Z " fill="#ACB7FF" transform="translate(20,27)"/>
<path d="M0,0 L25,0 L28,6 L28,9 L-4,9 L-3,4 Z " fill="#81C2FF" transform="translate(20,12)"/>
<path d="M0,0 L30,0 L35,9 L35,12 L32,12 L27,3 L3,3 L-5,17 L-5,19 L-8,21 L-11,21 L-9,16 Z " fill="#1F68FF" transform="translate(17,8)"/>
<path d="M0,0 L1,2 L5,1 L6,0 L12,0 L11,4 L9,7 L-29,8 L-31,3 L-26,3 L-25,4 L-18,4 L-14,5 L-13,3 L-13,5 L-7,4 L-6,2 L0,2 Z " fill="#BBB5FF" transform="translate(42,33)"/>
<path d="M0,0 L5,1 L23,3 L24,9 L17,9 L14,11 L11,8 L11,10 L5,10 L2,7 L-2,5 L-2,2 L0,2 Z M10,5 Z M13,5 Z " fill="#A3BAFF" transform="translate(31,25)"/>
<path d="M0,0 L30,0 L28,5 L3,5 Z " fill="#DDADFF" transform="translate(17,47)"/>
<path d="M0,0 L25,0 L26,4 L-3,5 Z " fill="#72C6FF" transform="translate(20,12)"/>
<path d="M0,0 L3,4 L8,13 L6,19 L1,28 L-3,28 L-1,23 L0,19 L3,16 L2,10 L0,8 L-2,2 L0,2 Z " fill="#7645FF" transform="translate(52,18)"/>
<path d="M0,0 L4,1 L5,7 L7,9 L12,19 L12,21 L9,22 L-1,4 Z " fill="#A82CFF" transform="translate(5,29)"/>
<path d="M0,0 L3,0 L1,6 L-2,12 L-5,15 L-8,15 L-6,10 Z " fill="#3E5BFF" transform="translate(14,14)"/>
<path d="M0,0 L3,4 L6,9 L6,11 L2,10 L0,8 L-2,2 L0,2 Z " fill="#5553FF" transform="translate(52,18)"/>
<path d="M0,0 L4,1 L5,7 L7,9 L5,10 L1,8 L-1,2 Z " fill="#7746FF" transform="translate(5,29)"/>
<path d="M0,0 L3,0 L1,6 L0,8 L-4,8 L-2,3 Z " fill="#9538FF" transform="translate(53,38)"/>
<path d="M0,0 L3,0 L3,5 L0,7 L-3,7 L-1,2 Z " fill="#5A52FF" transform="translate(9,22)"/>
<path d="M0,0 L6,1 L6,6 L3,4 L2,5 L0,5 Z " fill="#ABB7FF" transform="translate(40,30)"/>
<path d="M0,0 L3,4 L3,7 L0,7 L-2,1 Z " fill="#395EFF" transform="translate(49,13)"/>
<path d="M0,0 L4,1 L1,7 L-1,6 Z " fill="#AB2AFF" transform="translate(48,46)"/>
<path d="M0,0 L5,1 L6,6 L3,6 Z " fill="#923AFF" transform="translate(7,38)"/>
</svg>
