<?xml version="1.0" encoding="UTF-8"?>
<!-- Generator: visioncortex VTracer 0.6.5 -->
<svg version="1.1" xmlns="http://www.w3.org/2000/svg" width="250" height="201">
<path d="M0,0 L30,0 L46,4 L62,11 L67,12 L81,4 L88,2 L99,3 L109,8 L119,17 L126,25 L134,39 L138,51 L139,56 L139,76 L135,86 L128,92 L116,98 L113,121 L109,138 L101,155 L92,167 L83,176 L65,188 L51,195 L34,200 L27,201 L0,201 L-18,197 L-34,190 L-39,188 L-53,195 L-57,196 L-67,196 L-76,192 L-84,186 L-94,176 L-102,163 L-108,148 L-111,136 L-111,115 L-107,106 L-99,99 L-88,94 L-84,73 L-78,57 L-72,46 L-63,34 L-51,22 L-36,12 L-21,5 L-6,1 Z " fill="#B3A234" transform="translate(111,0)"/>
<path d="M0,0 L11,1 L21,6 L31,15 L38,23 L46,37 L50,49 L51,54 L51,74 L47,84 L40,90 L28,96 L25,119 L21,136 L13,153 L4,165 L-5,174 L-23,186 L-37,193 L-54,198 L-61,199 L-88,199 L-106,195 L-122,188 L-127,186 L-141,193 L-145,194 L-155,194 L-164,190 L-172,184 L-182,174 L-190,161 L-196,146 L-199,134 L-199,113 L-195,104 L-187,97 L-175,92 L-174,110 L-170,128 L-164,143 L-163,147 L-161,147 L-154,159 L-145,170 L-135,177 L-130,179 L-118,179 L-112,176 L-108,171 L-106,164 L-115,157 L-110,153 L-105,151 L-105,146 L-104,146 L-104,162 L-90,155 L-74,145 L-69,138 L-64,135 L-61,135 L-59,130 L-55,128 L-55,126 L-53,125 L-52,122 L-44,118 L-39,107 L-37,107 L-37,105 L-33,101 L-29,92 L-27,84 L-25,78 L-21,54 L-19,54 L-20,31 L-20,15 L-23,11 L-7,2 Z " fill="#7D6F21" transform="translate(199,2)"/>
<path d="M0,0 L4,1 L-10,8 L-16,15 L-17,17 L-17,26 L-13,32 L-9,36 L-4,35 L2,32 L11,32 L12,36 L12,46 L21,47 L44,47 L55,45 L60,45 L57,55 L60,54 L61,58 L63,57 L62,60 L60,60 L59,64 L52,71 L49,76 L48,79 L50,79 L48,84 L45,89 L43,93 L34,105 L23,116 L10,126 L3,131 L-2,131 L-10,114 L-16,105 L-24,106 L-32,109 L-36,109 L-38,103 L-38,89 L-37,87 L-39,87 L-39,89 L-52,97 L-58,100 L-63,102 L-66,102 L-65,117 L-62,128 L-63,132 L-67,118 L-69,108 L-69,84 L-65,66 L-60,53 L-54,42 L-45,30 L-33,18 L-18,8 L-3,1 Z M55,55 Z M54,56 Z M58,58 Z M57,59 Z M56,60 Z M47,79 Z M49,75 Z M50,78 Z M45,88 Z M0,131 Z " fill="#FDEF51" transform="translate(93,4)"/>
<path d="M0,0 L11,1 L21,6 L31,15 L38,23 L46,37 L50,49 L51,54 L51,74 L47,84 L40,90 L28,96 L26,96 L24,79 L23,74 L21,75 L18,83 L17,91 L19,97 L23,106 L23,113 L17,111 L17,109 L13,107 L6,103 L2,99 L-2,98 L-3,107 L-5,113 L-11,112 L-22,104 L-25,101 L-23,91 L-21,85 L-19,85 L-17,76 L-16,63 L-14,58 L-13,19 L-23,12 L-18,8 L-4,1 Z " fill="#6F621C" transform="translate(199,2)"/>
<path d="M0,0 L2,0 L4,5 L6,22 L5,40 L0,62 L-8,79 L-17,91 L-26,100 L-44,112 L-58,119 L-75,124 L-85,125 L-84,122 L-74,117 L-72,114 L-70,114 L-68,110 L-63,107 L-69,99 L-71,95 L-71,92 L-62,89 L-57,86 L-55,83 L-65,77 L-72,74 L-70,64 L-63,48 L-54,35 L-46,27 L-38,33 L-29,38 L-26,39 L-23,24 L-17,25 L-14,29 L-8,32 L-4,35 L-4,37 L0,38 L2,39 L0,29 L-4,22 L-5,13 L-2,4 Z " fill="#C2DD72" transform="translate(220,76)"/>
<path d="M0,0 L2,0 L2,16 L3,22 L13,19 L18,17 L23,17 L30,27 L37,42 L40,54 L40,62 L31,68 L40,75 L37,84 L30,90 L27,91 L15,91 L5,86 L-2,80 L-10,70 L-16,60 L-16,58 L-18,58 L-23,47 L-27,30 L-27,15 L-19,12 L-8,6 L-2,2 L0,2 Z " fill="#78713A" transform="translate(54,91)"/>
<path d="M0,0 L5,0 L2,10 L5,9 L6,13 L8,12 L7,15 L5,15 L4,19 L-3,26 L-6,31 L-7,34 L-5,34 L-7,39 L-10,44 L-12,48 L-21,60 L-32,71 L-45,81 L-52,86 L-57,86 L-65,69 L-71,60 L-79,61 L-87,64 L-91,64 L-93,58 L-93,44 L-92,42 L-94,42 L-94,44 L-107,52 L-113,55 L-118,57 L-121,57 L-120,72 L-117,83 L-118,87 L-122,73 L-124,63 L-124,45 L-108,38 L-98,38 L-89,42 L-81,48 L-73,56 L-67,54 L-54,43 L-45,34 L-41,26 L-39,23 L-40,18 L-37,13 L-33,8 L-31,7 L-31,3 L-11,2 Z M0,10 Z M-1,11 Z M3,13 Z M2,14 Z M1,15 Z M-38,19 Z M-8,34 Z M-32,5 Z M-33,6 Z M-40,16 Z M-41,20 Z M-40,23 Z M-44,30 Z M-6,30 Z M-45,31 Z M-5,33 Z M-10,43 Z M-55,86 Z " fill="#E0CF45" transform="translate(148,49)"/>
<path d="M0,0 L1,0 L2,18 L6,36 L12,51 L13,55 L15,55 L22,67 L31,78 L40,85 L40,87 L45,89 L49,92 L49,94 L35,101 L31,102 L21,102 L12,98 L4,92 L-6,82 L-14,69 L-20,54 L-23,42 L-23,21 L-19,12 L-11,5 Z " fill="#964700" transform="translate(23,94)"/>
<path d="M0,0 L2,0 L4,5 L6,22 L5,40 L1,58 L0,54 L-9,52 L-11,51 L-11,49 L-15,48 L-15,46 L-19,45 L-19,43 L-23,42 L-23,40 L-27,40 L-29,45 L-38,54 L-43,57 L-45,57 L-46,69 L-50,79 L-54,84 L-63,78 L-72,74 L-70,64 L-63,48 L-54,35 L-46,27 L-38,33 L-29,38 L-26,39 L-23,24 L-17,25 L-14,29 L-8,32 L-4,35 L-4,37 L0,38 L2,39 L0,29 L-4,22 L-5,13 L-2,4 Z " fill="#B1A759" transform="translate(220,76)"/>
<path d="M0,0 L30,0 L34,2 L34,36 L19,43 L8,48 L4,47 L1,45 L-1,40 L-5,38 L-5,36 L-13,35 L-13,5 L-9,3 L-6,3 L-6,1 Z " fill="#313A19" transform="translate(111,0)"/>
<path d="M0,0 L11,1 L21,6 L31,15 L38,23 L46,37 L42,39 L20,50 L15,53 L7,40 L-2,29 L-13,19 L-23,12 L-18,8 L-4,1 Z " fill="#9B4900" transform="translate(199,2)"/>
<path d="M0,0 L5,0 L2,10 L5,9 L6,13 L8,12 L7,15 L5,15 L4,19 L-3,26 L-6,31 L-7,34 L-5,34 L-7,39 L-10,44 L-12,48 L-21,60 L-32,71 L-45,81 L-52,86 L-57,86 L-63,72 L-57,68 L-50,64 L-40,55 L-30,45 L-25,36 L-20,27 L-22,27 L-20,23 L-13,15 L-12,12 L-10,11 L-9,5 L-8,3 L-11,2 Z M0,10 Z M-1,11 Z M3,13 Z M2,14 Z M1,15 Z M-20,26 Z M-8,34 Z M-11,9 Z M-12,10 Z M-23,27 Z M-6,30 Z M-5,33 Z M-26,36 Z M-10,43 Z M-54,65 Z M-55,66 Z M-55,86 Z " fill="#C8B73C" transform="translate(148,49)"/>
<path d="M0,0 L6,2 L13,7 L13,47 L11,47 L11,54 L7,74 L5,79 L3,87 L-2,97 L-5,98 L-5,100 L-7,100 L-9,107 L-12,112 L-18,115 L-20,115 L-21,119 L-23,119 L-23,121 L-28,126 L-29,128 L-34,131 L-37,131 L-39,135 L-44,140 L-54,147 L-65,153 L-72,155 L-72,148 L-63,144 L-61,144 L-61,142 L-58,141 L-57,139 L-53,137 L-50,137 L-49,134 L-46,134 L-44,129 L-40,127 L-33,119 L-28,117 L-26,112 L-21,108 L-16,97 L-13,96 L-11,90 L-7,82 L-5,82 L-4,74 L-2,62 L1,55 L2,51 L3,34 L6,27 L9,23 L10,20 L10,13 L5,5 Z " fill="#96872A" transform="translate(167,9)"/>
<path d="M0,0 L4,0 L8,11 L9,16 L9,36 L5,46 L-2,52 L-14,58 L-16,58 L-18,41 L-23,24 L-26,17 L-25,13 L-2,1 Z " fill="#381C00" transform="translate(241,40)"/>
<path d="M0,0 L10,5 L12,8 L7,13 L0,16 L-5,16 L0,26 L4,31 L1,34 L-3,36 L-8,42 L-16,46 L-18,46 L-19,49 L-43,49 L-61,45 L-63,43 L-55,40 L-52,40 L-52,38 L-40,33 L-30,27 L-20,20 L-16,18 L-12,14 L-4,7 L-1,4 L1,4 Z " fill="#6A5E1A" transform="translate(154,152)"/>
<path d="M0,0 L5,1 L9,3 L13,2 L15,1 L14,6 L13,23 L10,33 L8,40 L5,54 L3,54 L1,60 L-1,63 L-3,69 L-6,69 L-7,73 L-11,81 L-13,81 L-14,84 L-16,84 L-18,89 L-24,93 L-31,101 L-34,102 L-36,106 L-39,107 L-40,109 L-44,111 L-47,111 L-48,114 L-51,114 L-51,116 L-61,120 L-62,120 L-62,112 L-51,104 L-46,102 L-39,96 L-32,88 L-19,75 L-14,67 L-14,64 L-8,56 L-5,50 L-7,45 L2,34 L7,30 L6,20 L7,10 L8,7 L-1,10 L-1,2 Z M-4,46 Z M5,17 Z M5,22 Z M5,26 Z M4,27 Z M6,28 Z M4,29 L6,30 L4,31 Z M-8,46 Z M-7,47 L-7,50 Z M-9,50 Z M-6,50 Z M-16,66 Z M-17,67 Z M-15,67 Z M-16,68 Z M-47,101 Z M-48,102 Z " fill="#A6952F" transform="translate(157,37)"/>
<path d="M0,0 L3,3 L9,19 L11,28 L16,26 L25,22 L30,21 L38,28 L41,30 L38,39 L31,45 L28,46 L16,46 L6,41 L-1,35 L-9,25 L-16,13 L-15,9 L-11,7 L-2,2 Z " fill="#A49550" transform="translate(53,136)"/>
<path d="M0,0 L5,5 L13,21 L17,32 L17,35 L15,36 L12,44 L11,52 L13,58 L17,67 L17,74 L11,72 L11,70 L7,68 L0,64 L-4,60 L-8,59 L-8,64 L-9,64 L-11,50 L-8,50 L-7,40 L-4,32 L-1,12 Z " fill="#635818" transform="translate(205,41)"/>
<path d="M0,0 L2,0 L2,7 L7,9 L8,13 L0,20 L-6,25 L-8,25 L-9,28 L-18,34 L-23,37 L-37,45 L-42,47 L-45,47 L-45,49 L-57,53 L-72,46 L-69,44 L-60,41 L-56,39 L-53,39 L-53,37 L-43,34 L-43,32 L-36,28 L-33,28 L-31,24 L-21,21 L-14,13 L-8,10 L-3,4 Z " fill="#564C13" transform="translate(147,143)"/>
<path d="M0,0 L9,1 L22,6 L32,14 L36,21 L36,28 L33,34 L27,40 L22,39 L13,36 L2,36 L3,1 Z " fill="#738641" transform="translate(142,1)"/>
<path d="M0,0 L2,0 L4,5 L5,8 L7,8 L10,16 L11,19 L13,19 L13,23 L16,24 L2,33 L-13,39 L-24,42 L-34,43 L-33,40 L-23,35 L-21,32 L-19,32 L-17,28 L-12,25 L-18,17 L-20,13 L-20,10 L-11,7 L-6,4 L-3,2 L0,4 L1,11 L2,10 Z " fill="#9CB25A" transform="translate(169,158)"/>
<path d="M0,0 L2,0 L2,16 L3,22 L13,19 L18,17 L23,17 L30,27 L32,32 L11,32 L4,24 L-2,24 L-6,25 L-6,27 L-10,28 L-11,30 L-15,28 L-23,32 L-25,32 L-26,35 L-27,30 L-27,15 L-19,12 L-8,6 L-2,2 L0,2 Z " fill="#8A723E" transform="translate(54,91)"/>
<path d="M0,0 L4,0 L5,2 L8,3 L9,5 L12,6 L12,8 L16,9 L16,11 L27,14 L27,22 L21,35 L14,34 L6,31 L6,29 L2,28 L2,26 L-2,25 L-2,23 L-6,22 L-6,20 L-12,19 L-14,18 L-13,14 L-5,7 Z " fill="#C1DC71" transform="translate(193,116)"/>
<path d="M0,0 L30,0 L34,2 L34,36 L19,43 L16,44 L13,41 L15,41 L15,1 L-6,2 L-6,1 Z " fill="#5B6831" transform="translate(111,0)"/>
<path d="M0,0 L4,2 L8,7 L8,21 L5,41 L1,53 L0,59 L-3,59 L-1,65 L-1,77 L-3,83 L-9,82 L-20,74 L-22,70 L-12,63 L-11,58 L-8,58 L-7,49 L-6,47 L-4,47 L-3,41 L-2,23 L-1,22 Z " fill="#564B13" transform="translate(197,32)"/>
<path d="M0,0 L5,0 L2,2 L-1,3 L-2,33 L7,33 L7,36 L12,39 L13,43 L17,47 L13,49 L5,48 L4,34 L-8,36 L-12,39 L-17,38 L-24,30 L-25,28 L-25,19 L-21,13 L-14,7 L-5,3 L-3,3 L-3,1 Z " fill="#606D33" transform="translate(100,2)"/>
<path d="M0,0 L11,1 L21,6 L26,10 L26,12 L-2,26 L-6,25 L-19,15 L-23,11 L-7,2 Z " fill="#BD5C00" transform="translate(199,2)"/>
<path d="M0,0 L6,2 L13,7 L13,47 L11,47 L11,54 L7,74 L5,79 L3,87 L-2,97 L-5,98 L-5,100 L-7,100 L-9,107 L-12,112 L-18,115 L-20,115 L-21,119 L-23,119 L-23,121 L-28,126 L-29,128 L-34,131 L-37,131 L-39,135 L-44,140 L-54,147 L-65,153 L-72,155 L-71,151 L-52,142 L-48,139 L-46,139 L-45,135 L-40,132 L-34,127 L-29,121 L-24,117 L-22,117 L-21,112 L-18,112 L-16,106 L-10,97 L-5,88 L-3,88 L-2,81 L0,81 L1,76 L5,66 L6,52 L7,52 L8,25 L10,20 L10,13 L5,5 Z " fill="#8B7C26" transform="translate(167,9)"/>
<path d="M0,0 L10,0 L19,4 L27,10 L36,19 L35,21 L21,26 L17,26 L15,20 L15,6 L16,4 L14,4 L14,6 L1,14 L-5,17 L-10,19 L-13,19 L-12,34 L-9,45 L-10,49 L-14,35 L-16,25 L-16,7 Z " fill="#BAA45A" transform="translate(40,87)"/>
<path d="M0,0 L1,0 L1,15 L-3,25 L-10,31 L-22,37 L-24,37 L-26,20 L-28,11 L-22,11 Z " fill="#4D2600" transform="translate(249,61)"/>
<path d="M0,0 L3,1 L2,8 L-2,9 L-5,14 L-12,20 L-15,21 L-22,29 L-32,32 L-34,35 L-42,39 L-44,39 L-44,41 L-51,44 L-54,44 L-54,46 L-66,51 L-75,52 L-83,46 L-85,45 L-84,43 L-79,45 L-67,45 L-58,41 L-56,39 L-53,39 L-53,37 L-46,35 L-46,33 L-44,33 L-44,29 L-35,27 L-34,24 L-30,24 L-30,22 L-19,18 L-15,16 L-15,14 L-13,14 L-13,12 L-9,10 L-5,4 Z " fill="#6A5E1A" transform="translate(148,136)"/>
<path d="M0,0 L2,4 L4,3 L3,6 L1,6 L0,10 L-7,17 L-10,22 L-11,25 L-9,25 L-11,30 L-14,35 L-16,39 L-25,51 L-36,62 L-49,72 L-56,77 L-61,77 L-62,74 L-53,68 L-47,64 L-32,50 L-24,41 L-21,35 L-16,27 L-14,23 L-18,22 L-16,16 L-9,8 L-8,5 L-2,1 Z M-1,4 Z M-2,5 Z M-3,6 Z M-13,21 Z M-12,25 Z M-18,18 Z M-10,21 Z M-19,22 Z M-16,22 L-16,25 Z M-9,24 Z M-18,25 Z M-14,34 Z M-23,37 Z M-24,38 Z M-52,66 Z M-53,67 Z M-59,77 Z " fill="#C0AF39" transform="translate(152,58)"/>
<path d="M0,0 L8,0 L6,8 L7,12 L2,16 L-5,25 L-7,34 L-11,40 L-18,51 L-32,65 L-36,67 L-43,74 L-47,77 L-49,77 L-52,70 L-46,66 L-39,62 L-29,53 L-19,43 L-14,34 L-9,25 L-11,25 L-9,21 L-2,13 L-1,10 L1,9 L2,3 L3,1 Z M4,8 Z M3,9 Z M5,10 Z M3,11 L4,13 L5,11 Z M-9,24 Z M0,7 Z M-1,8 Z M-12,25 Z M-5,25 Z M-6,29 Z M-15,34 Z M-43,63 Z M-44,64 Z M-34,65 Z M-35,66 Z M-36,67 Z " fill="#CFBE3F" transform="translate(137,51)"/>
<path d="M0,0 L2,0 L4,5 L6,22 L5,40 L3,50 L2,46 L-4,45 L-7,42 L-13,40 L-19,36 L-25,35 L-23,24 L-17,25 L-14,29 L-8,32 L-4,35 L-4,37 L0,38 L2,39 L0,29 L-4,22 L-5,13 L-2,4 Z " fill="#99882A" transform="translate(220,76)"/>
<path d="M0,0 L3,0 L4,4 L1,5 L-1,9 L-5,14 L-6,17 L-4,18 L-7,25 L-10,29 L-12,33 L-24,45 L-35,53 L-39,54 L-45,47 L-39,45 L-31,39 L-19,27 L-13,19 L-8,9 L-1,3 Z M2,2 Z M1,3 Z M-7,17 Z M-5,13 Z M-12,15 Z M-4,16 Z M-5,20 Z M-9,27 Z M-10,28 Z M-39,44 Z " fill="#F4E34C" transform="translate(114,52)"/>
<path d="M0,0 L5,0 L11,12 L1,16 L-18,26 L-20,27 L-27,15 L-24,12 Z " fill="#8C4000" transform="translate(234,28)"/>
<path d="M0,0 L3,0 L7,8 L10,20 L10,24 L12,24 L13,28 L15,28 L16,35 L18,35 L18,37 L20,38 L12,43 L8,43 L8,39 L6,39 L2,32 L2,28 L0,28 L-3,24 L-3,20 L-5,20 L-2,31 L-4,31 L-5,24 L-8,23 L-2,11 Z " fill="#B6D06A" transform="translate(174,138)"/>
<path d="M0,0 L4,5 L8,10 L5,13 L1,15 L-4,21 L-12,25 L-14,25 L-15,28 L-38,28 L-36,26 L-31,23 L-29,23 L-27,19 L-24,17 L-20,17 L-20,15 L-14,11 L-9,9 L-6,8 L-6,6 L-1,2 Z " fill="#877925" transform="translate(150,173)"/>
<path d="M0,0 L8,0 L8,41 L9,43 L1,47 L-3,46 L-6,44 L-8,39 L-12,37 L-11,34 L-2,36 L0,37 Z " fill="#4C5929" transform="translate(118,1)"/>
<path d="M0,0 L5,1 L14,5 L19,7 L19,9 L24,10 L34,7 L30,11 L16,19 L-2,25 L-16,27 L-15,24 L-5,19 L-3,16 L-1,16 L1,12 L6,9 L0,1 Z " fill="#A7962F" transform="translate(151,174)"/>
<path d="M0,0 L9,0 L11,1 L9,12 L-2,15 L-9,16 L-32,16 L-33,14 L-10,3 Z " fill="#BDA75C" transform="translate(146,36)"/>
<path d="M0,0 L4,0 L5,2 L8,3 L9,5 L12,6 L12,8 L16,9 L16,11 L27,14 L27,22 L25,26 L22,27 L22,25 L18,24 L18,22 L14,21 L14,19 L5,17 L3,16 L3,14 L-8,11 L-2,3 Z " fill="#B1CA67" transform="translate(193,116)"/>
<path d="M0,0 L5,2 L13,9 L16,15 L16,22 L13,28 L7,34 L2,33 L-2,30 L0,27 Z " fill="#8EA251" transform="translate(162,7)"/>
<path d="M0,0 L8,6 L13,10 L4,14 L-3,16 L-11,20 L-13,22 L-4,27 L-7,29 L-17,34 L-21,38 L-24,39 L-21,30 L-14,16 L-6,6 Z " fill="#98924C" transform="translate(174,103)"/>
<path d="M0,0 L3,0 L2,11 L-2,21 L-6,26 L-15,20 L-24,16 L-23,10 L-21,11 L-13,7 L-10,7 L-10,5 Z " fill="#91A452" transform="translate(172,134)"/>
<path d="M0,0 L0,3 L-1,31 L1,32 L-2,34 L-7,33 L-14,25 L-15,23 L-15,14 L-11,8 L-4,2 Z " fill="#748540" transform="translate(90,7)"/>
<path d="M0,0 L6,0 L6,1 L1,1 L2,8 L-2,12 L-4,12 L-4,14 L-8,17 L-15,20 L-18,21 L-18,23 L-25,26 L-30,31 L-37,34 L-48,32 L-45,29 L-35,25 L-32,25 L-30,20 L-19,14 L-14,12 L-7,8 L-2,3 Z " fill="#73661E" transform="translate(148,167)"/>
<path d="M0,0 L4,2 L3,25 L2,26 L1,44 L-1,50 L-3,50 L-5,61 L-8,61 L-8,66 L-16,71 L-16,67 L-14,67 L-11,57 L-10,54 L-8,54 L-7,43 L-5,37 L-3,32 L-1,1 Z " fill="#5E5216" transform="translate(194,29)"/>
<path d="M0,0 L2,0 L2,8 L-1,9 L-3,12 L-5,12 L-6,15 L-9,15 L-10,18 L-21,25 L-24,25 L-25,28 L-30,30 L-40,36 L-50,40 L-52,40 L-52,42 L-61,45 L-72,46 L-69,44 L-60,41 L-56,39 L-53,39 L-53,37 L-43,34 L-43,32 L-36,28 L-33,28 L-31,24 L-21,21 L-14,13 L-8,10 L-3,4 Z " fill="#5F5416" transform="translate(147,143)"/>
<path d="M0,0 L3,0 L9,16 L9,19 L7,20 L4,28 L3,36 L3,40 L-5,35 L-5,26 L-3,10 Z " fill="#7E7021" transform="translate(213,57)"/>
<path d="M0,0 L4,2 L5,5 L5,17 L3,23 L-3,22 L-14,14 L-16,10 L-6,3 Z " fill="#463008" transform="translate(191,92)"/>
<path d="M0,0 L11,1 L15,4 L13,4 L13,6 L1,11 L-9,16 L-17,16 L-23,12 L-18,8 L-4,1 Z " fill="#D76A00" transform="translate(199,2)"/>
<path d="M0,0 L10,0 L14,2 L14,36 L8,39 L6,39 L6,1 L0,1 Z " fill="#657438" transform="translate(131,0)"/>
<path d="M0,0 L9,6 L19,16 L18,18 L4,23 L0,23 L-2,17 L-2,3 Z " fill="#E2AB2C" transform="translate(57,90)"/>
<path d="M0,0 L2,0 L2,18 L-4,16 L-6,16 L-6,18 L-16,24 L-25,16 L-24,14 L-19,12 L-8,6 L-2,2 L0,2 Z " fill="#B19A53" transform="translate(54,91)"/>
<path d="M0,0 L5,5 L9,13 L3,18 L-4,21 L-7,23 L-9,26 L-14,15 L-14,11 L-2,5 Z " fill="#8E773F" transform="translate(45,123)"/>
<path d="M0,0 L6,5 L6,7 L-22,21 L-26,20 L-30,15 Z " fill="#AE5300" transform="translate(225,13)"/>
<path d="M0,0 L5,0 L12,10 L14,15 L-7,15 L-14,7 L-14,5 Z " fill="#A0954F" transform="translate(72,108)"/>
<path d="M0,0 L2,1 L1,33 L-7,33 L-7,3 Z " fill="#404B21" transform="translate(105,2)"/>
<path d="M0,0 L6,1 L9,4 L9,30 L7,33 L1,33 Z " fill="#7D8F47" transform="translate(154,4)"/>
<path d="M0,0 L9,3 L12,6 L19,8 L20,11 L26,12 L26,20 L24,24 L24,20 L15,18 L13,17 L13,15 L9,14 L9,12 L5,11 L5,9 L1,8 L1,6 L-2,6 L-1,1 Z " fill="#9EB55B" transform="translate(196,110)"/>
<path d="M0,0 L2,0 L1,6 L-3,12 L-8,16 L-20,22 L-22,22 L-23,10 L-7,4 Z " fill="#A14D00" transform="translate(247,76)"/>
<path d="M0,0 L2,0 L7,9 L7,11 L5,11 L3,21 L0,46 L-8,44 L-6,35 L-3,27 Z " fill="#74671D" transform="translate(208,46)"/>
<path d="M0,0 L6,1 L9,5 L15,8 L19,11 L19,13 L23,14 L25,15 L25,22 L19,21 L16,18 L10,16 L4,12 L-2,11 Z " fill="#7B8D46" transform="translate(197,100)"/>
<path d="M0,0 L2,3 L5,7 L6,13 L6,21 L-2,26 L-5,26 L-9,20 L-8,13 L-4,8 Z M0,3 Z M1,5 Z " fill="#696432" transform="translate(88,132)"/>
<path d="M0,0 L5,1 L9,3 L13,2 L15,1 L14,6 L13,23 L10,33 L8,34 L8,29 L6,24 L6,14 L8,7 L-1,10 L-1,2 Z M5,17 Z M5,22 Z M5,26 Z M4,27 Z M6,28 Z M4,29 L6,30 L4,31 Z " fill="#A4932F" transform="translate(157,37)"/>
<path d="M0,0 L3,1 L2,8 L-2,9 L-6,13 L-11,17 L-14,17 L-14,19 L-26,25 L-31,30 L-36,33 L-46,35 L-46,33 L-44,33 L-44,29 L-35,27 L-34,24 L-30,24 L-30,22 L-19,18 L-15,16 L-15,14 L-13,14 L-13,12 L-9,10 L-5,4 Z " fill="#71641D" transform="translate(148,136)"/>
<path d="M0,0 L3,4 L4,7 L-6,11 L-25,21 L-27,22 L-29,19 L-28,14 Z " fill="#693100" transform="translate(241,33)"/>
<path d="M0,0 L4,2 L4,5 L-2,9 L-7,15 L-15,19 L-17,19 L-18,22 L-31,22 L-30,19 L-20,15 L-15,12 L-13,12 L-12,9 L-7,5 Z " fill="#958529" transform="translate(153,179)"/>
<path d="M0,0 L2,4 L5,12 L6,15 L8,15 L13,32 L15,33 L12,35 L8,35 L8,31 L6,31 L2,24 L2,20 L0,20 L-3,16 L-3,12 L-5,12 L-2,23 L-4,23 L-5,16 L-8,15 L-4,7 L-1,9 L-1,11 L1,11 L2,18 L3,17 L0,5 Z " fill="#AEC665" transform="translate(174,146)"/>
<path d="M0,0 L5,0 L2,9 L-5,15 L-8,16 L-20,16 L-22,13 L-21,11 L-11,7 L-3,1 Z " fill="#B5AA5B" transform="translate(89,166)"/>
<path d="M0,0 L6,0 L2,3 L-5,7 L-8,14 L-18,20 L-21,20 L-23,15 L-23,9 L-13,4 L-9,6 L-4,4 L-4,2 Z " fill="#836B3A" transform="translate(52,114)"/>
<path d="M0,0 L4,2 L6,5 L5,6 L3,37 L1,42 L-1,48 L-3,59 L-5,59 L-6,65 L-8,67 L-6,58 L-2,42 Z " fill="#685B19" transform="translate(189,24)"/>
<path d="M0,0 L4,2 L3,6 L-5,13 L-15,21 L-17,21 L-17,23 L-22,26 L-43,38 L-51,41 L-61,45 L-63,43 L-55,40 L-52,40 L-52,38 L-40,33 L-30,27 L-20,20 L-16,18 L-12,14 L-4,7 L-1,4 L1,4 Z " fill="#625617" transform="translate(154,152)"/>
<path d="M0,0 L7,1 L12,3 L12,5 L23,8 L24,10 L27,11 L28,13 L34,15 L31,21 L30,19 L26,18 L26,16 L17,14 L15,13 L15,11 L8,9 L8,7 L4,6 L4,4 L0,3 Z " fill="#B9D36C" transform="translate(184,127)"/>
<path d="M0,0 L6,3 L6,5 L18,8 L25,12 L26,10 L28,16 L28,23 L22,21 L22,19 L18,17 L11,13 L7,9 L3,8 L3,13 L2,13 Z " fill="#616F36" transform="translate(194,92)"/>
<path d="M0,0 L6,3 L1,7 L-19,17 L-27,17 L-31,13 L-22,11 L-8,4 L-2,3 L-2,1 Z " fill="#CA6300" transform="translate(214,5)"/>
<path d="M0,0 L5,1 L10,6 L1,9 L-2,12 L-15,17 L-16,7 L-11,6 L-1,1 Z " fill="#918E4A" transform="translate(79,157)"/>
<path d="M0,0 L2,0 L4,5 L5,8 L7,8 L10,16 L11,19 L13,19 L14,24 L7,26 L7,24 L5,24 L1,17 L1,13 L-1,13 L-5,6 L-4,2 L0,4 L1,11 L2,10 Z " fill="#A4BC5F" transform="translate(169,158)"/>
<path d="M0,0 L4,0 L5,2 L8,3 L9,5 L12,6 L12,8 L16,9 L16,11 L27,14 L27,21 L21,20 L19,19 L19,17 L15,16 L15,14 L11,13 L11,11 L2,9 L-1,6 L-2,3 Z " fill="#A8C061" transform="translate(193,116)"/>
<path d="M0,0 L2,1 L-12,10 L-27,16 L-37,18 L-33,14 L-29,12 L-28,9 L-22,6 L-20,4 L-8,3 Z " fill="#B4A235" transform="translate(183,181)"/>
<path d="M0,0 L5,2 L6,3 L7,34 L2,33 L-2,30 L0,27 Z " fill="#87984C" transform="translate(162,7)"/>
<path d="M0,0 L1,4 L-3,8 L-5,8 L-5,10 L-9,13 L-16,16 L-19,17 L-19,19 L-26,22 L-31,27 L-38,30 L-49,28 L-49,27 L-38,24 L-31,20 L-27,20 L-27,18 L-19,16 L-18,13 L-14,13 L-13,10 L-8,7 L-3,5 Z " fill="#7C6E20" transform="translate(149,171)"/>
<path d="M0,0 L4,0 L5,3 L-8,10 L-10,10 L-10,12 L-25,19 L-26,14 L-16,8 Z " fill="#4B2400" transform="translate(241,40)"/>
<path d="M0,0 L1,2 L0,28 L-6,23 L-8,19 L-8,10 L-4,4 Z " fill="#7E9047" transform="translate(83,11)"/>
<path d="M0,0 L4,0 L4,39 L0,37 Z " fill="#424E24" transform="translate(118,1)"/>
<path d="M0,0 L7,1 L10,3 L8,5 L0,5 L-9,10 L-15,13 L-17,13 L-18,16 L-24,12 L-19,8 L-13,5 L-5,2 Z " fill="#A59E53" transform="translate(184,113)"/>
<path d="M0,0 L1,0 L1,7 L-13,14 L-21,17 L-25,17 L-26,11 L-20,10 L-12,6 L-2,3 L-2,1 Z " fill="#783A00" transform="translate(249,69)"/>
<path d="M0,0 L17,0 L21,2 L22,5 L13,9 L11,9 L11,23 L10,23 L9,9 L1,3 Z " fill="#928747" transform="translate(66,122)"/>
<path d="M0,0 L2,1 L4,10 L2,11 L-1,19 L-2,27 L-2,31 L-7,27 L-7,20 L-5,13 L-3,3 Z " fill="#8C7C26" transform="translate(218,66)"/>
<path d="M0,0 L4,0 L4,37 L0,36 Z " fill="#39431E" transform="translate(114,1)"/>
<path d="M0,0 L1,0 L1,12 L-1,18 L-7,17 L-18,9 L-19,7 L-13,9 L-10,9 L-1,2 Z " fill="#563B0A" transform="translate(195,97)"/>
<path d="M0,0 L13,0 L19,3 L25,10 L25,13 L19,11 L12,8 L6,6 L6,4 L1,2 Z " fill="#56622F" transform="translate(194,91)"/>
<path d="M0,0 L5,0 L5,2 L7,2 L7,35 L2,36 L3,1 Z " fill="#6D7E3D" transform="translate(142,1)"/>
<path d="M0,0 L4,0 L4,3 L-22,16 L-24,16 L-25,19 L-28,15 L-24,12 Z " fill="#7B3900" transform="translate(237,31)"/>
<path d="M0,0 L2,1 L-2,6 L-4,10 L-5,16 L-5,31 L-2,42 L-3,46 L-7,32 L-9,22 L-9,4 Z " fill="#C39427" transform="translate(33,90)"/>
<path d="M0,0 L2,0 L1,4 L-1,4 L-1,6 L-7,8 L-7,10 L-22,17 L-23,10 L-7,4 Z " fill="#934600" transform="translate(247,76)"/>
<path d="M0,0 L7,1 L8,3 L-3,8 L-5,8 L-5,10 L-17,15 L-16,10 L-11,8 L-10,5 Z " fill="#AE9B54" transform="translate(167,131)"/>
<path d="M0,0 L3,4 L4,9 L3,27 L1,37 L0,37 L-1,19 L-2,16 L-1,3 Z " fill="#B8A839" transform="translate(222,89)"/>
<path d="M0,0 L3,1 L-2,2 L-2,4 L-14,9 L-23,10 L-31,4 L-33,3 L-32,1 L-27,3 L-9,3 Z " fill="#635616" transform="translate(96,178)"/>
<path d="M0,0 L10,0 L13,2 L7,2 L6,5 L-2,9 L-11,15 L-10,9 L-4,2 Z " fill="#C2AE5F" transform="translate(40,87)"/>
<path d="M0,0 L1,3 L-1,3 L-1,6 L-27,19 L-28,15 L-16,9 L-14,9 L-14,7 Z " fill="#391C00" transform="translate(245,43)"/>
<path d="M0,0 L6,1 L11,4 L20,7 L22,8 L22,10 L26,11 L26,15 L20,14 L17,11 L11,9 L5,5 L-1,4 Z " fill="#8DA150" transform="translate(196,107)"/>
<path d="M0,0 L2,0 L4,5 L2,5 L1,21 L-2,38 L-4,45 L-8,44 L-6,35 L-3,27 Z " fill="#6C5F1B" transform="translate(208,46)"/>
<path d="M0,0 L9,0 L9,3 L14,6 L15,10 L19,14 L15,16 L7,15 L6,1 L0,1 Z " fill="#6D7E3E" transform="translate(98,35)"/>
<path d="M0,0 L3,0 L2,3 L0,3 L0,5 L-18,13 L-22,14 L-25,11 L-24,9 L-18,8 L-4,1 Z " fill="#5D2E00" transform="translate(247,67)"/>
<path d="M0,0 L11,1 L7,3 L-1,5 L-14,11 L-23,12 L-18,8 L-4,1 Z " fill="#E27100" transform="translate(199,2)"/>
<path d="M0,0 L2,0 L4,8 L-2,6 L-4,6 L-4,8 L-14,14 L-17,11 L-16,7 L-11,5 L-6,5 L-6,3 Z " fill="#A0884A" transform="translate(52,101)"/>
<path d="M0,0 L8,6 L8,7 L2,7 L2,9 L-10,15 L-14,17 L-8,8 Z " fill="#8D8B47" transform="translate(174,103)"/>
<path d="M0,0 L1,3 L5,2 L3,11 L2,17 L-2,19 L-3,15 L-6,15 L-3,4 L0,4 Z M0,15 Z M-7,15 Z M-8,16 Z M-4,18 Z M-5,19 Z M-6,20 Z " fill="#B7A536" transform="translate(155,44)"/>
<path d="M0,0 L3,3 L-1,8 L-10,12 L-13,14 L-15,17 L-18,11 L-17,9 L-11,7 L-2,2 L0,2 Z " fill="#958146" transform="translate(51,132)"/>
<path d="M0,0 L5,1 L14,5 L19,7 L19,9 L22,10 L22,11 L11,11 L5,7 L0,1 Z " fill="#889C4E" transform="translate(151,174)"/>
<path d="M0,0 L2,0 L2,31 L-1,31 L-1,1 Z " fill="#4A5628" transform="translate(99,4)"/>
<path d="M0,0 L2,1 L-12,10 L-24,15 L-26,15 L-26,13 L-19,9 L-15,5 Z " fill="#C7B43C" transform="translate(183,181)"/>
<path d="M0,0 L5,1 L6,3 L-1,6 L-13,13 L-15,13 L-16,7 L-11,6 L-1,1 Z " fill="#848444" transform="translate(79,157)"/>
<path d="M0,0 L1,0 L1,17 L-4,16 L-10,11 L-5,7 L0,5 Z " fill="#7F631C" transform="translate(94,148)"/>
<path d="M0,0 L1,0 L1,9 L-14,9 L-15,7 Z " fill="#A88E4B" transform="translate(128,43)"/>
<path d="M0,0 L5,0 L1,10 L-4,13 L-6,8 L-4,2 Z M-7,10 Z M-8,11 Z M-6,12 Z M-8,13 L-6,14 L-8,15 Z " fill="#C1B03A" transform="translate(148,49)"/>
<path d="M0,0 L9,2 L11,4 L9,4 L14,11 L12,13 L8,12 L5,10 L3,5 L-1,3 Z " fill="#637136" transform="translate(107,35)"/>
<path d="M0,0 L3,0 L1,5 L-5,10 L-8,11 L-17,11 L-13,9 L-9,5 Z " fill="#BFB15F" transform="translate(89,171)"/>
<path d="M0,0 L5,0 L9,6 L-14,6 L-11,4 Z " fill="#B1A658" transform="translate(72,108)"/>
<path d="M0,0 L9,0 L11,1 L9,12 L4,13 L4,1 Z " fill="#B59C56" transform="translate(146,36)"/>
<path d="M0,0 L2,3 L2,11 L-6,16 L-8,15 L-1,1 Z " fill="#5F5A2C" transform="translate(92,142)"/>
<path d="M0,0 L17,1 L17,3 L8,6 L8,20 L7,20 L6,6 L0,2 Z " fill="#887F40" transform="translate(69,125)"/>
<path d="M0,0 L4,1 L6,4 L-4,9 L-10,11 L-10,7 L-4,3 L-2,3 L-2,1 Z " fill="#957D45" transform="translate(50,106)"/>
<path d="M0,0 L2,0 L2,4 L-4,7 L-6,7 L-6,9 L-16,12 L-18,14 L-21,11 L-9,6 L-4,1 Z " fill="#A89250" transform="translate(52,97)"/>
<path d="M0,0 L2,0 L3,3 L-7,7 L-26,17 L-28,18 L-27,14 Z " fill="#5B2A00" transform="translate(242,37)"/>
<path d="M0,0 L3,1 L0,5 L-4,7 L-9,13 L-17,17 L-19,17 L-20,20 L-23,20 L-23,18 L-10,10 L-7,7 L-5,3 Z " fill="#9D8C2C" transform="translate(155,181)"/>
<path d="M0,0 L23,0 L24,3 L3,3 Z " fill="#A99E54" transform="translate(58,114)"/>
<path d="M0,0 L6,0 L14,4 L17,4 L17,11 L11,9 L11,7 L7,5 L0,1 Z " fill="#6C7C3D" transform="translate(205,104)"/>
<path d="M0,0 L5,1 L10,4 L7,7 L1,10 L-1,10 L-1,2 Z " fill="#C18A1F" transform="translate(157,37)"/>
<path d="M0,0 L3,0 L1,4 L-7,11 L-12,12 L-15,9 L-7,6 L-4,2 Z " fill="#BAB05E" transform="translate(186,121)"/>
<path d="M0,0 L5,0 L2,2 L-8,7 L-12,11 L-15,12 L-13,5 L-6,1 Z " fill="#A1924E" transform="translate(165,130)"/>
<path d="M0,0 L5,0 L4,2 L0,3 L-11,10 L-18,14 L-18,16 L-22,14 L-21,11 L-11,7 L-3,1 Z " fill="#ADA357" transform="translate(89,166)"/>
<path d="M0,0 L3,0 L3,10 L5,11 L-3,11 L-3,2 Z " fill="#C8B462" transform="translate(132,41)"/>
<path d="M0,0 L2,0 L2,28 L4,29 L0,30 Z " fill="#6C7B3C" transform="translate(87,10)"/>
<path d="M0,0 L7,1 L7,3 L16,5 L20,6 L20,8 L24,9 L26,10 L25,13 L22,12 L22,10 L11,7 L4,3 L0,2 Z " fill="#819349" transform="translate(196,105)"/>
<path d="M0,0 L1,0 L0,10 L-1,12 L-7,11 L-10,8 L-4,5 Z " fill="#65440C" transform="translate(195,103)"/>
<path d="M0,0 L1,2 L0,20 L-3,17 L-4,15 L-4,6 Z " fill="#8B9E4D" transform="translate(79,15)"/>
<path d="M0,0 L2,0 L1,4 L-15,10 L-17,10 L-17,12 L-22,14 L-23,10 L-7,4 Z " fill="#874100" transform="translate(247,76)"/>
<path d="M0,0 L9,1 L16,7 L15,9 L5,5 L5,3 L0,1 Z " fill="#434D23" transform="translate(201,91)"/>
<path d="M0,0 L1,3 L-17,12 L-25,14 L-26,11 L-20,10 L-12,6 L-2,3 L-2,1 Z " fill="#6B3400" transform="translate(249,69)"/>
<path d="M0,0 L6,3 L6,7 L11,8 L15,12 L10,11 L3,8 L3,13 L2,13 Z " fill="#697739" transform="translate(194,92)"/>
<path d="M0,0 L3,4 L4,10 L2,10 L2,13 L0,13 L0,19 L-2,16 L-1,3 Z " fill="#AC9A32" transform="translate(222,89)"/>
<path d="M0,0 L3,1 L-4,7 L-16,13 L-18,13 L-17,10 L-3,3 Z " fill="#B05200" transform="translate(243,85)"/>
<path d="M0,0 L10,0 L6,2 L0,5 L-2,5 L-2,7 L-8,8 L-6,4 Z " fill="#CAB763" transform="translate(40,87)"/>
<path d="M0,0 L6,4 L1,10 L-5,12 L-5,9 L0,4 Z " fill="#73671E" transform="translate(160,155)"/>
<path d="M0,0 L3,1 L4,3 L4,9 L1,8 L-1,18 L-2,18 L-3,10 L-2,9 L-1,1 Z " fill="#A3902D" transform="translate(221,84)"/>
<path d="M0,0 L8,4 L10,7 L4,8 L0,7 Z " fill="#84974A" transform="translate(105,43)"/>
<path d="M0,0 L4,2 L16,7 L17,9 L10,9 L4,5 Z " fill="#7D8D44" transform="translate(152,176)"/>
<path d="M0,0 L1,0 L1,11 L-3,10 L-5,6 Z " fill="#7A5814" transform="translate(93,154)"/>
<path d="M0,0 L2,1 L-2,5 L-5,5 L-5,8 L-14,11 L-14,9 L-7,5 L-3,1 Z " fill="#BFAB37" transform="translate(171,185)"/>
<path d="M0,0 L6,2 L15,3 L15,5 L9,8 L0,2 Z " fill="#875A13" transform="translate(63,179)"/>
<path d="M0,0 L4,0 L5,5 L-5,5 L-6,3 Z " fill="#B7A051" transform="translate(119,47)"/>
<path d="M0,0 L12,0 L21,1 L22,3 L1,3 Z " fill="#998F4B" transform="translate(64,120)"/>
<path d="M0,0 L4,2 L7,5 L1,7 L1,15 L0,15 Z " fill="#988042" transform="translate(27,106)"/>
<path d="M0,0 L5,2 L3,3 L8,10 L5,11 L0,4 L-2,3 L-2,1 Z " fill="#58642F" transform="translate(113,36)"/>
<path d="M0,0 L4,1 L4,4 L0,6 L-4,6 L-4,2 Z " fill="#8E7841" transform="translate(32,111)"/>
<path d="M0,0 L6,2 L10,4 L11,1 L11,8 L5,6 L5,4 L1,2 Z " fill="#738340" transform="translate(211,107)"/>
<path d="M0,0 L6,2 L10,5 L11,13 L8,9 L4,4 Z " fill="#8F8228" transform="translate(167,9)"/>
<path d="M0,0 L4,4 L-4,7 L-7,10 L-9,9 Z " fill="#858443" transform="translate(174,103)"/>
<path d="M0,0 L9,0 L9,5 L11,10 L7,8 L6,1 L0,1 Z " fill="#7D8A40" transform="translate(98,35)"/>
<path d="M0,0 L5,0 L7,3 L-5,3 L-3,1 Z " fill="#BEB159" transform="translate(72,108)"/>
<path d="M0,0 L7,2 L7,4 L10,5 L6,6 L1,3 Z " fill="#90A553" transform="translate(163,179)"/>
<path d="M0,0 L6,1 L5,5 L3,8 L0,2 Z " fill="#9C7E37" transform="translate(33,141)"/>
<path d="M0,0 L9,0 L11,1 L10,8 L8,5 L8,1 L0,1 Z " fill="#AE9850" transform="translate(146,36)"/>
<path d="M0,0 L3,3 L-2,8 L-5,7 L-2,6 Z " fill="#7B7023" transform="translate(163,157)"/>
<path d="M0,0 L7,0 L2,4 L-2,1 Z " fill="#7E510D" transform="translate(71,183)"/>
<path d="M0,0 L5,2 L3,4 L-2,5 Z " fill="#8C8342" transform="translate(157,124)"/>
<path d="M0,0 L7,1 L7,4 L1,3 Z " fill="#8EA351" transform="translate(215,118)"/>
<path d="M0,0 L6,1 L8,4 L3,3 L0,2 Z " fill="#748541" transform="translate(197,100)"/>
<path d="M0,0 L2,4 L3,9 L1,9 L1,6 L-1,6 L-1,1 Z " fill="#C4DF72" transform="translate(175,139)"/>
<path d="M0,0 L4,0 L3,4 L-3,3 Z " fill="#745213" transform="translate(191,111)"/>
<path d="M0,0 L7,3 L5,5 L2,5 Z " fill="#414B22" transform="translate(120,40)"/>
</svg>
